<svg width="177" height="73" viewBox="0 0 177 73" fill="none" xmlns="http://www.w3.org/2000/svg">
<path d="M13.952 29.6C13.952 32.3307 14.5707 34.6987 15.808 36.704C17.0453 38.6667 18.6667 40.16 20.672 41.184C22.72 42.208 24.96 42.72 27.392 42.72C29.5253 42.72 31.4027 42.4427 33.024 41.888C34.6453 41.3333 36.096 40.608 37.376 39.712C38.656 38.816 39.7867 37.856 40.768 36.832V48.48C38.976 49.888 37.0133 50.9973 34.88 51.808C32.7467 52.6187 30.0373 53.024 26.752 53.024C23.168 53.024 19.8613 52.4693 16.832 51.36C13.8027 50.2507 11.2 48.6507 9.024 46.56C6.848 44.4693 5.16267 41.9947 3.968 39.136C2.77333 36.2773 2.176 33.0987 2.176 29.6C2.176 26.1013 2.77333 22.9227 3.968 20.064C5.16267 17.2053 6.848 14.7307 9.024 12.64C11.2 10.5493 13.8027 8.94933 16.832 7.84C19.8613 6.73066 23.168 6.176 26.752 6.176C30.0373 6.176 32.7467 6.58133 34.88 7.392C37.0133 8.20266 38.976 9.312 40.768 10.72V22.368C39.7867 21.344 38.656 20.384 37.376 19.488C36.096 18.5493 34.6453 17.824 33.024 17.312C31.4027 16.7573 29.5253 16.48 27.392 16.48C24.96 16.48 22.72 16.992 20.672 18.016C18.6667 19.04 17.0453 20.5333 15.808 22.496C14.5707 24.4587 13.952 26.8267 13.952 29.6ZM48.651 2.08H58.379V52H48.651V2.08ZM64.173 37.28C64.173 34.1653 64.8983 31.456 66.349 29.152C67.7997 26.848 69.805 25.056 72.365 23.776C74.925 22.496 77.805 21.856 81.005 21.856C84.205 21.856 87.0637 22.496 89.581 23.776C92.141 25.056 94.1463 26.848 95.597 29.152C97.0903 31.456 97.837 34.1653 97.837 37.28C97.837 40.352 97.0903 43.04 95.597 45.344C94.1463 47.648 92.141 49.44 89.581 50.72C87.0637 52 84.205 52.64 81.005 52.64C77.805 52.64 74.925 52 72.365 50.72C69.805 49.44 67.7997 47.648 66.349 45.344C64.8983 43.04 64.173 40.352 64.173 37.28ZM74.093 37.28C74.093 38.816 74.413 40.1387 75.053 41.248C75.693 42.3147 76.525 43.1467 77.549 43.744C78.573 44.3413 79.725 44.64 81.005 44.64C82.2423 44.64 83.373 44.3413 84.397 43.744C85.4637 43.1467 86.2957 42.3147 86.893 41.248C87.533 40.1387 87.853 38.816 87.853 37.28C87.853 35.744 87.533 34.4213 86.893 33.312C86.2957 32.2027 85.4637 31.3493 84.397 30.752C83.373 30.1547 82.2423 29.856 81.005 29.856C79.725 29.856 78.573 30.1547 77.549 30.752C76.525 31.3493 75.693 32.2027 75.053 33.312C74.413 34.4213 74.093 35.744 74.093 37.28ZM113.763 40.48C113.763 42.1867 114.083 43.5307 114.723 44.512C115.363 45.4507 116.472 45.92 118.051 45.92C119.118 45.92 120.014 45.7067 120.739 45.28C121.507 44.8533 122.104 44.2347 122.531 43.424C122.958 42.6133 123.171 41.632 123.171 40.48V22.56H132.835V52H123.171V47.584C122.275 49.1627 121.102 50.4213 119.651 51.36C118.2 52.256 116.387 52.704 114.211 52.704C110.542 52.704 107.854 51.7227 106.147 49.76C104.483 47.7547 103.651 45.0027 103.651 41.504V22.56H113.763V40.48ZM162.8 2.08H172.464V52H162.8V2.08ZM138.736 37.28C138.736 33.952 139.397 31.1573 140.72 28.896C142.085 26.6347 143.834 24.9067 145.968 23.712C148.101 22.5173 150.362 21.92 152.752 21.92C155.226 21.92 157.402 22.5387 159.28 23.776C161.2 25.0133 162.714 26.784 163.824 29.088C164.933 31.3493 165.488 34.08 165.488 37.28C165.488 40.4373 164.933 43.168 163.824 45.472C162.714 47.776 161.2 49.5467 159.28 50.784C157.402 52.0213 155.226 52.64 152.752 52.64C150.362 52.64 148.101 52.0427 145.968 50.848C143.834 49.6533 142.085 47.9253 140.72 45.664C139.397 43.36 138.736 40.5653 138.736 37.28ZM148.912 37.28C148.912 38.816 149.232 40.16 149.872 41.312C150.512 42.4213 151.365 43.296 152.432 43.936C153.498 44.5333 154.672 44.832 155.952 44.832C157.061 44.832 158.128 44.5333 159.152 43.936C160.218 43.3387 161.093 42.4853 161.776 41.376C162.458 40.224 162.8 38.8587 162.8 37.28C162.8 35.7013 162.458 34.3573 161.776 33.248C161.093 32.096 160.218 31.2213 159.152 30.624C158.128 30.0267 157.061 29.728 155.952 29.728C154.672 29.728 153.498 30.048 152.432 30.688C151.365 31.2853 150.512 32.16 149.872 33.312C149.232 34.4213 148.912 35.744 148.912 37.28Z" fill="#F0F0F0"/>
<path d="M32.464 43.2C32.464 45.248 32.928 47.024 33.856 48.528C34.784 50 36 51.12 37.504 51.888C39.04 52.656 40.72 53.04 42.544 53.04C44.144 53.04 45.552 52.832 46.768 52.416C47.984 52 49.072 51.456 50.032 50.784C50.992 50.112 51.84 49.392 52.576 48.624V57.36C51.232 58.416 49.76 59.248 48.16 59.856C46.56 60.464 44.528 60.768 42.064 60.768C39.376 60.768 36.896 60.352 34.624 59.52C32.352 58.688 30.4 57.488 28.768 55.92C27.136 54.352 25.872 52.496 24.976 50.352C24.08 48.208 23.632 45.824 23.632 43.2C23.632 40.576 24.08 38.192 24.976 36.048C25.872 33.904 27.136 32.048 28.768 30.48C30.4 28.912 32.352 27.712 34.624 26.88C36.896 26.048 39.376 25.632 42.064 25.632C44.528 25.632 46.56 25.936 48.16 26.544C49.76 27.152 51.232 27.984 52.576 29.04V37.776C51.84 37.008 50.992 36.288 50.032 35.616C49.072 34.912 47.984 34.368 46.768 33.984C45.552 33.568 44.144 33.36 42.544 33.36C40.72 33.36 39.04 33.744 37.504 34.512C36 35.28 34.784 36.4 33.856 37.872C32.928 39.344 32.464 41.12 32.464 43.2ZM58.4883 22.56H65.7843V60H58.4883V22.56ZM70.1298 48.96C70.1298 46.624 70.6738 44.592 71.7617 42.864C72.8498 41.136 74.3538 39.792 76.2738 38.832C78.1938 37.872 80.3538 37.392 82.7538 37.392C85.1538 37.392 87.2978 37.872 89.1858 38.832C91.1058 39.792 92.6098 41.136 93.6978 42.864C94.8178 44.592 95.3778 46.624 95.3778 48.96C95.3778 51.264 94.8178 53.28 93.6978 55.008C92.6098 56.736 91.1058 58.08 89.1858 59.04C87.2978 60 85.1538 60.48 82.7538 60.48C80.3538 60.48 78.1938 60 76.2738 59.04C74.3538 58.08 72.8498 56.736 71.7617 55.008C70.6738 53.28 70.1298 51.264 70.1298 48.96ZM77.5698 48.96C77.5698 50.112 77.8098 51.104 78.2898 51.936C78.7698 52.736 79.3938 53.36 80.1618 53.808C80.9298 54.256 81.7938 54.48 82.7538 54.48C83.6818 54.48 84.5298 54.256 85.2978 53.808C86.0978 53.36 86.7218 52.736 87.1698 51.936C87.6498 51.104 87.8898 50.112 87.8898 48.96C87.8898 47.808 87.6498 46.816 87.1698 45.984C86.7218 45.152 86.0978 44.512 85.2978 44.064C84.5298 43.616 83.6818 43.392 82.7538 43.392C81.7938 43.392 80.9298 43.616 80.1618 44.064C79.3938 44.512 78.7698 45.152 78.2898 45.984C77.8098 46.816 77.5698 47.808 77.5698 48.96ZM107.322 51.36C107.322 52.64 107.562 53.648 108.042 54.384C108.522 55.088 109.354 55.44 110.538 55.44C111.338 55.44 112.01 55.28 112.554 54.96C113.13 54.64 113.578 54.176 113.898 53.568C114.218 52.96 114.378 52.224 114.378 51.36V37.92H121.626V60H114.378V56.688C113.706 57.872 112.826 58.816 111.738 59.52C110.65 60.192 109.29 60.528 107.658 60.528C104.906 60.528 102.89 59.792 101.61 58.32C100.362 56.816 99.7383 54.752 99.7383 52.128V37.92H107.322V51.36ZM144.1 22.56H151.348V60H144.1V22.56ZM126.052 48.96C126.052 46.464 126.548 44.368 127.54 42.672C128.564 40.976 129.876 39.68 131.476 38.784C133.076 37.888 134.772 37.44 136.564 37.44C138.42 37.44 140.052 37.904 141.46 38.832C142.9 39.76 144.036 41.088 144.868 42.816C145.7 44.512 146.116 46.56 146.116 48.96C146.116 51.328 145.7 53.376 144.868 55.104C144.036 56.832 142.9 58.16 141.46 59.088C140.052 60.016 138.42 60.48 136.564 60.48C134.772 60.48 133.076 60.032 131.476 59.136C129.876 58.24 128.564 56.944 127.54 55.248C126.548 53.52 126.052 51.424 126.052 48.96ZM133.684 48.96C133.684 50.112 133.924 51.12 134.404 51.984C134.884 52.816 135.524 53.472 136.324 53.952C137.124 54.4 138.004 54.624 138.964 54.624C139.796 54.624 140.596 54.4 141.364 53.952C142.164 53.504 142.82 52.864 143.332 52.032C143.844 51.168 144.1 50.144 144.1 48.96C144.1 47.776 143.844 46.768 143.332 45.936C142.82 45.072 142.164 44.416 141.364 43.968C140.596 43.52 139.796 43.296 138.964 43.296C138.004 43.296 137.124 43.536 136.324 44.016C135.524 44.464 134.884 45.12 134.404 45.984C133.924 46.816 133.684 47.808 133.684 48.96Z" fill="#143274"/>
</svg>
