<svg width="114" height="105" viewBox="0 0 114 105" fill="none" xmlns="http://www.w3.org/2000/svg">
<path d="M99.9391 79.1046C92.7407 84.8904 51.8119 104.159 40.8095 104.159C-31.1744 100.543 9.18797 8.58969 32.8398 1.61569C56.4917 -5.35831 52.1493 24.9657 68.6028 28.8402C81.7656 31.9397 94.626 34.7637 98.6537 36.4857C127.131 49.9487 108.937 71.8723 99.9391 79.1046Z" fill="#CA256D"/>
<path fill-rule="evenodd" clip-rule="evenodd" d="M32.9153 35.1726C32.9153 35.203 32.7894 35.228 32.6356 35.228C32.4817 35.228 32.3558 35.2489 32.3558 35.2745C32.3558 35.3386 32.0975 35.4495 31.9476 35.4497C31.7737 35.4501 31.4459 35.658 31.4951 35.7368C31.5224 35.7804 31.5028 35.7885 31.4339 35.7622C31.3172 35.7181 31.1076 35.8752 31.1635 35.9648C31.1848 35.9989 31.1649 36.0091 31.1147 35.9902C31.0063 35.9489 30.7424 36.1724 30.7778 36.2754C30.7965 36.3299 30.7762 36.3426 30.7102 36.3175C30.6544 36.2964 30.6297 36.3041 30.6499 36.3365C30.6687 36.3666 30.6434 36.3912 30.5936 36.3912C30.5438 36.3912 30.5186 36.4161 30.5376 36.4466C30.5567 36.4771 30.5438 36.502 30.509 36.502C30.4095 36.502 30.2859 36.6496 30.2859 36.7682C30.2859 36.8935 30.1569 37.0187 30.0899 36.9586C30.0648 36.9359 30.0578 36.9424 30.0746 36.9728C30.1236 37.0623 30.0174 37.2775 29.9241 37.2775C29.8757 37.2775 29.8383 37.3257 29.8383 37.3883C29.8383 37.4492 29.8132 37.4991 29.7824 37.4991C29.7516 37.4991 29.7264 37.5409 29.7264 37.5921C29.7264 37.727 29.5997 38.053 29.5474 38.053C29.5228 38.053 29.5027 38.0794 29.5027 38.1117C29.5027 38.144 29.5278 38.1549 29.5586 38.1361C29.5894 38.1173 29.6146 38.1282 29.6146 38.1605C29.6146 38.1927 29.5894 38.2192 29.5586 38.2192C29.5278 38.2192 29.5027 38.269 29.5027 38.33C29.5027 38.3909 29.4775 38.4407 29.4467 38.4407C29.4159 38.4407 29.3912 38.4844 29.3916 38.5377C29.3923 38.6205 29.4004 38.6226 29.4467 38.5515C29.4765 38.5058 29.5014 38.4954 29.5018 38.5284C29.5022 38.5615 29.4838 38.6073 29.4607 38.6303C29.4057 38.685 29.4077 38.5875 29.3986 41.8335L29.3908 44.6447H27.8843C26.6416 44.6447 26.3635 44.6588 26.2965 44.7252C26.2519 44.7694 26.1976 44.788 26.1759 44.7667C26.1544 44.7453 26.1418 44.7527 26.1479 44.7832C26.1733 44.9073 26.1402 44.9714 26.0341 45.0048C25.9068 45.0448 25.851 72.7341 25.9781 72.8119C26.0089 72.8307 26.0341 72.8972 26.0341 72.9595C26.0341 73.0358 26.0607 73.0629 26.1152 73.0422C26.1636 73.0238 26.1861 73.0382 26.171 73.0778C26.1082 73.2439 26.4387 73.2827 27.9194 73.2827H29.3908L29.3986 79.1128C29.4074 85.6408 29.4038 85.2783 29.4607 85.3349C29.4838 85.3579 29.5022 85.4037 29.5018 85.4368C29.5014 85.4698 29.4765 85.4594 29.4467 85.4137C29.4004 85.3427 29.3923 85.3447 29.3916 85.4276C29.3912 85.4809 29.4159 85.5245 29.4467 85.5245C29.4775 85.5245 29.5027 85.5743 29.5027 85.6353C29.5027 85.6962 29.5278 85.7461 29.5586 85.7461C29.5894 85.7461 29.6146 85.7725 29.6146 85.8048C29.6146 85.837 29.5894 85.848 29.5586 85.8292C29.5278 85.8103 29.5027 85.8213 29.5027 85.8535C29.5027 85.8858 29.535 85.9122 29.5746 85.9122C29.6141 85.9122 29.6509 85.9559 29.6562 86.0092C29.6801 86.2485 29.7434 86.4662 29.7887 86.4662C29.816 86.4662 29.8383 86.5144 29.8383 86.5732C29.8383 86.6321 29.8887 86.696 29.9502 86.7154C30.0481 86.7462 30.0906 86.8408 30.0687 86.9785C30.065 87.0014 30.0897 87.0139 30.1232 87.0062C30.1848 86.9923 30.2125 87.0305 30.3448 87.3109C30.3844 87.3947 30.4516 87.4632 30.4944 87.4632C30.5396 87.4632 30.5553 87.4904 30.5318 87.528C30.5049 87.571 30.5213 87.5815 30.5803 87.5591C30.676 87.5226 30.8182 87.6491 30.7695 87.7272C30.7534 87.7531 30.8052 87.8227 30.8849 87.8819C30.9645 87.941 31.0361 87.977 31.0442 87.9618C31.0523 87.9465 31.1141 88.0035 31.1816 88.0883C31.2646 88.1929 31.3369 88.2324 31.4058 88.2108C31.4616 88.1932 31.5259 88.2087 31.5486 88.2451C31.5764 88.2897 31.566 88.2966 31.5167 88.2664C31.4697 88.2378 31.457 88.2433 31.4811 88.2821C31.5332 88.3654 31.8477 88.5157 31.9702 88.5157C32.1014 88.5157 32.3558 88.6312 32.3558 88.6907C32.3558 88.7164 32.4565 88.7373 32.5796 88.7373C32.7027 88.7373 32.8034 88.7622 32.8034 88.7927C32.8034 88.8295 37.2604 88.848 46.0623 88.848C54.8642 88.848 59.3212 88.8295 59.3212 88.7927C59.3212 88.7622 59.4219 88.7373 59.545 88.7373C59.6681 88.7373 59.7688 88.7173 59.7688 88.6929C59.7688 88.6687 59.8632 88.6171 59.9785 88.5783C60.3902 88.4402 60.4942 88.3915 60.4679 88.3494C60.4532 88.3258 60.4851 88.31 60.5386 88.3142C60.5921 88.3184 60.6307 88.2941 60.6246 88.2603C60.6183 88.2264 60.6812 88.1699 60.7644 88.1347C60.905 88.0752 60.9081 88.0766 60.8071 88.1547C60.7472 88.2009 60.7246 88.2387 60.7565 88.2387C60.8457 88.2387 61.0051 88.0417 60.9577 87.99C60.9345 87.9648 60.9559 87.9583 61.0051 87.9757C61.0562 87.9938 61.1621 87.9499 61.2516 87.8737C61.3379 87.8003 61.3912 87.7402 61.3699 87.7402C61.3486 87.7402 61.3577 87.6913 61.39 87.6315C61.4279 87.5614 61.4816 87.5352 61.5411 87.5578C61.6029 87.5814 61.62 87.5715 61.5928 87.528C61.5693 87.4904 61.585 87.4632 61.6302 87.4632C61.673 87.4632 61.7402 87.3947 61.7798 87.3109C61.913 87.0285 61.94 86.9924 62.0056 87.0076C62.0414 87.0159 62.0593 87.0035 62.0453 86.9799C61.999 86.9022 62.113 86.6877 62.2005 86.6877C62.2489 86.6877 62.2863 86.6395 62.2863 86.577C62.2863 86.516 62.3114 86.4662 62.3422 86.4662C62.373 86.4662 62.3982 86.4054 62.3982 86.331C62.3982 86.2566 62.4256 86.179 62.459 86.1585C62.4924 86.1381 62.5074 86.0743 62.4921 86.0168C62.4748 85.9509 62.4937 85.9122 62.5432 85.9122C62.5866 85.9122 62.6219 85.8858 62.6219 85.8535C62.6219 85.8213 62.5968 85.8103 62.566 85.8292C62.4582 85.8951 62.5112 85.659 62.6219 85.5799C62.7467 85.4908 62.7716 85.3587 62.6639 85.3575C62.6133 85.3568 62.6116 85.3454 62.658 85.3159C62.6933 85.2935 62.7212 85.188 62.7201 85.0813C62.719 84.9747 62.7217 82.2764 62.726 79.0851L62.7338 73.2827H64.2052C65.6859 73.2827 66.0164 73.2439 65.9536 73.0778C65.9385 73.0382 65.961 73.0238 66.0094 73.0422C66.0639 73.0629 66.0905 73.0358 66.0905 72.9595C66.0905 72.8972 66.1158 72.8307 66.1467 72.8117C66.2241 72.7644 66.2234 45.0325 66.146 45.0325C66.1155 45.0325 66.0905 45.0057 66.0905 44.9731C66.0905 44.8986 65.9845 44.7922 65.8273 44.7088C65.7444 44.6649 65.239 44.6447 64.22 44.6447H62.7338L62.726 41.8612C62.7217 40.3303 62.719 38.9905 62.7201 38.8839C62.7212 38.7773 62.6933 38.6717 62.658 38.6493C62.6116 38.6198 62.6133 38.6084 62.6639 38.6078C62.7668 38.6065 62.7492 38.5078 62.6219 38.3726C62.5072 38.2506 62.4656 38.0746 62.566 38.1361C62.5968 38.1549 62.6219 38.144 62.6219 38.1117C62.6219 38.0794 62.585 38.053 62.5398 38.053C62.4898 38.053 62.4702 38.0205 62.4898 37.9699C62.5075 37.9242 62.4996 37.8868 62.472 37.8868C62.4445 37.8868 62.4158 37.8058 62.4082 37.7068C62.4008 37.6078 62.3702 37.5185 62.3404 37.5083C62.3106 37.4981 62.2863 37.442 62.2863 37.3837C62.2863 37.3253 62.2477 37.2775 62.2005 37.2775C62.113 37.2775 61.999 37.063 62.0453 36.9853C62.0593 36.9618 62.0414 36.9493 62.0056 36.9576C61.94 36.9728 61.913 36.9367 61.7798 36.6543C61.7402 36.5706 61.673 36.502 61.6302 36.502C61.5874 36.502 61.5668 36.4789 61.5844 36.4506C61.6022 36.4222 61.5595 36.3911 61.4899 36.3814C61.4202 36.3716 61.3632 36.3261 61.3632 36.2804C61.3632 36.1605 61.1097 35.9522 61.0099 35.9902C60.9597 36.0091 60.9398 35.9989 60.9611 35.9648C61.0146 35.8791 60.8076 35.7179 60.6976 35.7596C60.6369 35.7827 60.6092 35.7704 60.6197 35.725C60.6379 35.6459 60.3647 35.4972 60.0065 35.3914C59.8758 35.3526 59.7688 35.3001 59.7688 35.2745C59.7688 35.2489 59.6429 35.228 59.489 35.228C59.3352 35.228 59.2093 35.203 59.2093 35.1726C59.2093 35.1357 54.7897 35.1172 46.0623 35.1172C37.3349 35.1172 32.9153 35.1357 32.9153 35.1726ZM33.6719 37.0559C33.7444 37.0559 33.8194 37.031 33.8384 37.0005C33.8862 36.9238 58.2384 36.9238 58.2862 37.0005C58.3336 37.0766 58.5939 37.0707 58.5939 36.9938C58.5939 36.9512 58.6209 36.9537 58.6792 37.0016C58.7261 37.0401 58.7808 37.0557 58.8006 37.036C58.8205 37.0162 58.8892 37.0339 58.9531 37.0753C59.0171 37.1167 59.1324 37.1417 59.2093 37.1307C59.3051 37.1173 59.3253 37.1263 59.2732 37.1597C59.1876 37.2145 59.2841 37.3067 59.3713 37.2534C59.3988 37.2365 59.4365 37.2617 59.4549 37.3094C59.4762 37.3641 59.5268 37.3839 59.5928 37.3632C59.657 37.343 59.7268 37.3681 59.7749 37.4286C59.8455 37.5179 59.8437 37.5198 59.7548 37.4507C59.7009 37.4089 59.6569 37.3987 59.6569 37.428C59.6569 37.4861 59.936 37.636 60.0107 37.6182C60.036 37.6121 60.0408 37.6327 60.0213 37.6639C60.0019 37.6952 60.0267 37.7206 60.0765 37.7206C60.1262 37.7206 60.1531 37.7429 60.1362 37.7701C60.1191 37.7972 60.2121 37.925 60.3426 38.0541C60.4731 38.1833 60.5485 38.2717 60.51 38.2507C60.4716 38.2298 60.4401 38.239 60.4401 38.2712C60.4401 38.3035 60.4653 38.33 60.496 38.33C60.5268 38.33 60.552 38.3772 60.552 38.4348C60.552 38.4925 60.5913 38.5546 60.6394 38.5729C60.6875 38.5911 60.7106 38.6324 60.6906 38.6644C60.6706 38.6964 60.6842 38.7581 60.7207 38.8018C60.7572 38.8453 60.7869 38.9688 60.7869 39.0762C60.7869 39.1837 60.8096 39.2716 60.8373 39.2716C60.865 39.2716 60.8872 39.3277 60.8868 39.3963C60.8861 39.4971 60.8756 39.505 60.8317 39.4378C60.7991 39.3878 60.7772 39.381 60.7766 39.4206C60.7762 39.4569 60.8009 39.5021 60.8317 39.5209C60.8677 39.5429 60.8877 40.4631 60.8877 42.1V44.6447H46.0623H31.2369V42.1C31.2369 40.6516 31.2586 39.5418 31.2873 39.5244C31.315 39.5073 31.3376 39.4062 31.3376 39.2996C31.3376 39.188 31.3146 39.1199 31.2831 39.1391C31.2521 39.1582 31.2544 39.1225 31.2887 39.0559C31.3218 38.9918 31.3749 38.8885 31.4067 38.8263C31.4385 38.7641 31.4505 38.6908 31.4335 38.6634C31.4164 38.6361 31.4446 38.5903 31.4961 38.5618C31.5528 38.5303 31.5761 38.4743 31.555 38.42C31.5326 38.3621 31.5495 38.33 31.6024 38.33C31.6476 38.33 31.6845 38.3035 31.6845 38.2712C31.6845 38.239 31.653 38.23 31.6146 38.2512C31.5761 38.2724 31.6453 38.189 31.7684 38.066C31.8915 37.9429 31.9796 37.833 31.9642 37.8216C31.9272 37.7943 32.095 37.6161 32.1353 37.64C32.1525 37.6503 32.2293 37.604 32.3058 37.5373C32.3824 37.4705 32.4061 37.4409 32.3585 37.4714C32.2827 37.5198 32.2816 37.5146 32.3497 37.4286C32.3978 37.3681 32.4676 37.343 32.5318 37.3632C32.5978 37.3839 32.6484 37.3641 32.6697 37.3094C32.6882 37.2617 32.7258 37.2365 32.7533 37.2534C32.841 37.307 32.9367 37.2145 32.8514 37.1585C32.7992 37.1245 32.8199 37.1162 32.9172 37.132C32.9952 37.1447 33.1047 37.122 33.1603 37.0815C33.2161 37.0413 33.2946 37.0206 33.3346 37.0358C33.3747 37.0511 33.4272 37.0318 33.4514 36.9932C33.4845 36.94 33.5006 36.9391 33.5177 36.9895C33.53 37.026 33.5994 37.0559 33.6719 37.0559ZM42.0911 38.5931C42.0906 38.6312 42.0506 38.6623 42.0023 38.6623C41.8712 38.6623 41.7546 38.8023 41.7546 38.9598C41.7546 39.0364 41.7294 39.1143 41.6986 39.1332C41.5417 39.2293 41.6873 40.1934 41.8497 40.1331C41.8897 40.1182 41.9042 40.1405 41.8856 40.1884C41.8646 40.2424 41.892 40.2687 41.9691 40.2687C42.032 40.2687 42.0992 40.2936 42.1182 40.3241C42.1407 40.3601 43.5163 40.3795 46.0623 40.3795C48.6083 40.3795 49.9839 40.3601 50.0064 40.3241C50.0254 40.2936 50.0926 40.2687 50.1555 40.2687C50.2326 40.2687 50.26 40.2424 50.239 40.1884C50.2204 40.1403 50.2348 40.1185 50.2751 40.1337C50.398 40.1804 50.4903 39.8474 50.4741 39.4158C50.4656 39.1885 50.4386 39.0146 50.4142 39.0296C50.3899 39.0444 50.37 39.0091 50.37 38.9512C50.37 38.8372 50.2064 38.6623 50.1 38.6623C50.0639 38.6623 50.0344 38.6374 50.0344 38.6069C50.0344 38.5705 48.6917 38.5515 46.1182 38.5515C43.0231 38.5515 42.202 38.5661 42.2013 38.6208C42.2007 38.6669 42.1823 38.6623 42.1462 38.6069C42.1101 38.5515 42.0916 38.547 42.0911 38.5931ZM52.5519 38.626C52.5519 38.667 52.5015 38.7457 52.44 38.8008C52.3785 38.8559 52.3281 38.8813 52.3281 38.857C52.3281 38.8328 52.3722 38.7799 52.426 38.7395C52.4799 38.699 52.4955 38.6651 52.4608 38.6641C52.3445 38.6608 52.242 38.8367 52.2196 39.0778C52.2168 39.1082 52.193 39.0996 52.1668 39.0587C52.1385 39.0143 52.121 39.1719 52.1238 39.4464C52.1263 39.7007 52.1425 39.9211 52.1596 39.9363C52.1768 39.9516 52.2354 40.0334 52.2899 40.1182C52.3443 40.2029 52.4133 40.2573 52.4428 40.2392C52.4724 40.2211 52.5119 40.2453 52.5303 40.2929C52.581 40.4235 53.5313 40.4196 53.5822 40.2885C53.6015 40.2384 53.6332 40.213 53.6525 40.232C53.7053 40.2844 53.9023 40.0362 53.8713 39.9563C53.8561 39.9171 53.8747 39.8981 53.9137 39.9129C53.9656 39.9327 53.9839 39.8195 53.9862 39.467C53.9884 39.0971 53.972 38.9947 53.9105 38.9947C53.8673 38.9947 53.8456 38.9729 53.8621 38.9465C53.9059 38.8764 53.6876 38.6456 53.6178 38.6882C53.5855 38.708 53.5589 38.6904 53.5589 38.6492C53.5589 38.563 52.7957 38.5301 52.7432 38.6141C52.7267 38.6406 52.688 38.6623 52.6572 38.6623C52.6264 38.6623 52.6168 38.6374 52.6358 38.6069C52.6548 38.5765 52.6438 38.5515 52.6112 38.5515C52.5786 38.5515 52.5519 38.585 52.5519 38.626ZM64.3562 49.0207V51.5688H46.0623H27.7684V49.0207V46.4727H46.0623H64.3562V49.0207ZM54.3981 48.1483C54.3981 48.1813 54.3828 48.1933 54.3644 48.1749C54.3458 48.1566 54.2683 48.2085 54.192 48.2904C54.1157 48.3721 54.0695 48.408 54.0891 48.3699C54.1088 48.3318 54.0983 48.3006 54.0658 48.3006C54.0332 48.3006 54.0065 48.3455 54.0065 48.4003C54.0065 48.4552 53.975 48.5336 53.9365 48.5747C53.8797 48.6352 53.8823 48.641 53.9505 48.6053C54.0188 48.5696 54.0213 48.5754 53.9645 48.6359C53.8809 48.7252 53.8692 49.3865 53.9505 49.4362C53.9813 49.455 54.0065 49.5081 54.0065 49.5542C54.0065 49.6568 54.1013 49.7504 54.2862 49.8302C54.4771 49.9124 55.3167 49.9342 55.2676 49.8554C55.2463 49.8213 55.2758 49.7962 55.3371 49.7962C55.4522 49.7962 55.6288 49.6342 55.6288 49.5288C55.6288 49.4931 55.6495 49.4639 55.6747 49.4639C55.6999 49.4639 55.7235 49.2515 55.7272 48.9919C55.7308 48.7324 55.7164 48.5304 55.6953 48.543C55.6742 48.5556 55.6244 48.5312 55.5847 48.4887C55.5315 48.4318 55.5301 48.4114 55.5793 48.4114C55.6202 48.4114 55.6074 48.369 55.5469 48.3029C55.4923 48.2432 55.4318 48.1962 55.4123 48.1986C55.3067 48.2117 55.2344 48.1838 55.2616 48.1404C55.2786 48.113 55.093 48.0903 54.8452 48.0896C54.5607 48.0888 54.3981 48.1101 54.3981 48.1483ZM57.8464 48.1469C57.8817 48.2034 57.7715 48.299 57.6708 48.299C57.6401 48.299 57.6527 48.2747 57.6988 48.2452C57.745 48.2157 57.7552 48.1911 57.7215 48.1907C57.6878 48.1903 57.6122 48.244 57.5536 48.3102C57.487 48.3854 57.4785 48.4125 57.531 48.3826C57.6026 48.3418 57.604 48.3481 57.5402 48.4261C57.4991 48.4762 57.4806 48.5416 57.4991 48.5714C57.5177 48.601 57.5033 48.6434 57.4673 48.6654C57.4279 48.6895 57.4167 48.6816 57.4394 48.6453C57.4599 48.6124 57.4535 48.571 57.425 48.5535C57.3943 48.5348 57.3746 48.7158 57.377 48.9928C57.3792 49.2519 57.4022 49.4639 57.428 49.4639C57.4539 49.4639 57.475 49.5031 57.475 49.551C57.475 49.6742 57.6138 49.7962 57.754 49.7962C57.8244 49.7962 57.8581 49.8205 57.8363 49.8554C57.7872 49.9342 58.6268 49.9124 58.8177 49.8302C59.0026 49.7504 59.0974 49.6568 59.0974 49.5542C59.0974 49.5081 59.1236 49.4545 59.1555 49.4349C59.2525 49.3755 59.212 48.5222 59.112 48.5222C59.0599 48.5222 59.0419 48.4901 59.0633 48.435C59.1011 48.3376 58.9585 48.1656 58.8799 48.2137C58.8521 48.2307 58.8156 48.2091 58.7988 48.1656C58.7755 48.1054 58.6542 48.0872 58.29 48.089C57.9864 48.0906 57.8245 48.1117 57.8464 48.1469ZM61.3912 48.1483C61.3912 48.1813 61.3759 48.1933 61.3575 48.1749C61.3388 48.1566 61.2614 48.2085 61.1851 48.2904C61.1088 48.3721 61.0626 48.408 61.0822 48.3699C61.1019 48.3318 61.0914 48.3006 61.0588 48.3006C61.0263 48.3006 60.9995 48.3455 60.9995 48.4003C60.9995 48.4552 60.9681 48.5336 60.9296 48.5747C60.8728 48.6352 60.8753 48.641 60.9436 48.6053C61.0118 48.5696 61.0144 48.5754 60.9576 48.6359C60.8739 48.7252 60.8623 49.3865 60.9436 49.4362C60.9744 49.455 60.9995 49.5081 60.9995 49.5542C60.9995 49.6568 61.0944 49.7504 61.2793 49.8302C61.4702 49.9124 62.3098 49.9342 62.2607 49.8554C62.2394 49.8213 62.2689 49.7962 62.3302 49.7962C62.4453 49.7962 62.6219 49.6342 62.6219 49.5288C62.6219 49.4931 62.6426 49.4639 62.6678 49.4639C62.693 49.4639 62.7166 49.2515 62.7203 48.9919C62.7239 48.7324 62.7095 48.5304 62.6884 48.543C62.6673 48.5556 62.6175 48.5312 62.5777 48.4887C62.5246 48.4318 62.5232 48.4114 62.5724 48.4114C62.6133 48.4114 62.6005 48.369 62.54 48.3029C62.4854 48.2432 62.4249 48.1962 62.4054 48.1986C62.2998 48.2117 62.2275 48.1838 62.2547 48.1404C62.2717 48.113 62.0861 48.0903 61.8383 48.0896C61.5538 48.0888 61.3912 48.1101 61.3912 48.1483ZM64.3562 62.4258V71.4548H46.0623H27.7684V62.4258V53.3968H46.0623H64.3562V62.4258ZM48.1643 55.0958C48.1471 55.1401 48.1076 55.1609 48.0767 55.1419C48.0457 55.1229 48.0204 55.1477 48.0204 55.197C48.0204 55.2463 47.9949 55.2711 47.9637 55.252C47.9323 55.2327 47.8918 55.2935 47.8724 55.3892C47.8534 55.4837 47.7879 55.5956 47.7271 55.6378C47.6662 55.6799 47.6275 55.7473 47.6411 55.7876C47.6546 55.8278 47.6307 55.8954 47.5881 55.9376C47.5454 55.9799 47.524 56.0497 47.5406 56.0926C47.5573 56.1355 47.5317 56.1855 47.4839 56.2036C47.4241 56.2264 47.4071 56.278 47.4299 56.3677C47.4529 56.4589 47.4391 56.4987 47.3846 56.4987C47.2988 56.4987 47.2391 56.6622 47.2378 56.8999C47.2374 56.9884 47.1928 57.0791 47.1308 57.1175C47.0724 57.1536 47.0373 57.2159 47.0527 57.256C47.0682 57.296 47.0405 57.344 46.9913 57.3627C46.9381 57.383 46.9015 57.4609 46.9015 57.5538C46.9015 57.6402 46.8763 57.7262 46.8455 57.7451C46.8148 57.7639 46.7896 57.8568 46.7896 57.9514C46.7896 58.0461 46.7741 58.1082 46.7549 58.0893C46.688 58.0232 46.5658 58.2098 46.5658 58.3781C46.5658 58.4717 46.538 58.5483 46.5038 58.5483C46.4699 58.5483 46.4563 58.5854 46.4739 58.6308C46.4921 58.6775 46.4461 58.7726 46.368 58.8499C46.2922 58.9249 46.2301 59.0374 46.2301 59.0997C46.2301 59.162 46.2073 59.213 46.1794 59.213C46.1515 59.213 46.1419 59.2628 46.158 59.3238C46.1784 59.4008 46.1596 59.4346 46.0968 59.4346C46.0471 59.4346 46.0064 59.461 46.0064 59.4933C46.0064 59.5255 46.0315 59.5365 46.0623 59.5176C46.0931 59.4988 46.1182 59.5038 46.1182 59.5287C46.1182 59.5536 46.0679 59.6052 46.0064 59.6432C45.9448 59.6813 45.8945 59.7718 45.8945 59.8442C45.8945 60.0014 45.7589 60.2789 45.7072 60.2276C45.6871 60.2078 45.6707 60.2207 45.6707 60.2562C45.6707 60.2918 45.7022 60.3214 45.7406 60.3221C45.7791 60.3228 45.75 60.3694 45.676 60.4258C45.5877 60.4928 45.5536 60.5601 45.5771 60.6205C45.5994 60.6778 45.5798 60.7253 45.5252 60.7461C45.4545 60.773 45.4519 60.7885 45.5121 60.8263C45.5654 60.8597 45.5673 60.8734 45.5187 60.8739C45.478 60.8745 45.465 60.9122 45.4863 60.9674C45.5142 61.0394 45.4999 61.0516 45.4224 61.0222C45.3497 60.9946 45.331 61.0059 45.3535 61.0639C45.3704 61.1078 45.348 61.1735 45.3037 61.2099C45.2049 61.291 45.1963 61.3959 45.2931 61.3383C45.3489 61.305 45.349 61.3139 45.2935 61.3816C45.2553 61.4283 45.2427 61.4851 45.2655 61.5076C45.2884 61.5302 45.2693 61.5404 45.2231 61.5302C45.1715 61.5188 45.1421 61.549 45.147 61.6087C45.1512 61.662 45.1308 61.7057 45.1017 61.7057C45.0725 61.7057 45.063 61.7285 45.0803 61.7563C45.0977 61.7842 45.0813 61.8171 45.044 61.8295C45.0065 61.8418 44.9719 61.9124 44.967 61.9865C44.9621 62.0606 44.9296 62.1913 44.8947 62.277C44.86 62.3628 44.8315 62.4633 44.8315 62.5003C44.8315 62.5372 44.7812 62.6034 44.7196 62.6473C44.6476 62.6987 44.6077 62.7907 44.6077 62.9056C44.6077 63.0036 44.5826 63.0993 44.5518 63.1182C44.521 63.137 44.4958 63.2006 44.4958 63.2594C44.4958 63.3183 44.4455 63.3976 44.384 63.4357C44.3224 63.4738 44.2721 63.5253 44.2721 63.5502C44.2721 63.5752 44.2991 63.579 44.3322 63.5588C44.3652 63.5386 44.3591 63.5745 44.3186 63.6386C44.2782 63.7027 44.2245 63.7552 44.1993 63.7552C44.1742 63.7552 44.1679 63.778 44.1854 63.8061C44.2028 63.8341 44.1792 63.8946 44.1328 63.9406C44.0307 64.0417 44.0206 64.1634 44.1182 64.1144C44.1567 64.0952 44.1378 64.1198 44.0763 64.1691C44.0147 64.2185 43.9723 64.3079 43.982 64.3675C43.9919 64.4293 43.9599 64.4911 43.9073 64.511C43.8336 64.5391 43.8301 64.5555 43.8897 64.593C43.9456 64.628 43.9468 64.6399 43.8944 64.6406C43.856 64.6411 43.8245 64.6804 43.8245 64.7279C43.8245 64.7754 43.7993 64.7988 43.7686 64.7799C43.7378 64.7611 43.7126 64.7956 43.7126 64.8565C43.7126 64.9175 43.689 64.9817 43.6602 64.9994C43.6312 65.017 43.6171 65.0805 43.6287 65.1403C43.6407 65.2016 43.6087 65.2728 43.5554 65.3035C43.5031 65.3339 43.4916 65.3589 43.5295 65.3599C43.5828 65.3612 43.5838 65.3933 43.5339 65.5016C43.4858 65.6063 43.4567 65.6237 43.4188 65.5708C43.3851 65.5237 43.3763 65.55 43.3922 65.6496C43.4055 65.7319 43.3919 65.7942 43.3621 65.7881C43.3323 65.782 43.2996 65.8265 43.2895 65.8868C43.2795 65.9472 43.2446 66.0054 43.2122 66.016C43.1797 66.0267 43.1532 66.0598 43.1532 66.0896C43.1532 66.1193 43.1846 66.1257 43.2231 66.1037C43.2616 66.0818 43.2321 66.13 43.1576 66.211C43.0831 66.292 43.0379 66.3737 43.0571 66.3927C43.0763 66.4117 43.0551 66.4636 43.0104 66.5079C42.9641 66.5538 42.9397 66.649 42.9543 66.7278C42.974 66.8354 42.9603 66.8595 42.8942 66.8343C42.8251 66.8081 42.8155 66.8329 42.8444 66.9627C42.8669 67.0646 42.8549 67.139 42.8112 67.1657C42.7618 67.1959 42.754 67.178 42.7834 67.1017C42.8114 67.029 42.806 67.0135 42.7665 67.0523C42.7347 67.0833 42.7018 67.1706 42.6932 67.2462C42.6846 67.3216 42.6533 67.4006 42.6237 67.4218C42.4688 67.5317 42.5267 68.5364 42.6993 68.7335C42.8084 68.8578 42.908 68.896 42.8402 68.7873C42.8154 68.7477 42.8248 68.7384 42.8648 68.763C42.9003 68.7847 42.9294 68.8384 42.9294 68.8823C42.9294 68.9451 43.0245 68.9621 43.377 68.9621C43.6972 68.9621 43.8248 68.9424 43.8253 68.8928C43.826 68.8411 43.8381 68.8422 43.8735 68.8976C43.9115 68.957 43.9276 68.9541 43.955 68.8832C43.9739 68.8345 44.0214 68.8013 44.0607 68.8092C44.1 68.8171 44.1259 68.7924 44.1182 68.7544C44.1105 68.7163 44.1357 68.6914 44.1742 68.699C44.2135 68.7067 44.2518 68.6464 44.2617 68.561C44.2715 68.4777 44.3314 68.3733 44.395 68.3292C44.4621 68.2827 44.4971 68.2143 44.4784 68.166C44.4606 68.1204 44.4737 68.0739 44.5075 68.0628C44.5413 68.0516 44.5731 67.9857 44.5782 67.9163C44.5834 67.8468 44.6129 67.7732 44.6437 67.7529C44.7184 67.7034 44.7918 67.5054 44.7189 67.55C44.6886 67.5686 44.6637 67.5575 44.6637 67.5252C44.6637 67.4929 44.6985 67.4665 44.741 67.4665C44.8258 67.4665 44.8855 67.3021 44.8868 67.0653C44.8872 66.9768 44.9318 66.8861 44.9938 66.8478C45.0522 66.8116 45.0873 66.7493 45.0719 66.7093C45.0564 66.6692 45.0841 66.6212 45.1333 66.6025C45.1865 66.5823 45.2231 66.5043 45.2231 66.4114C45.2231 66.325 45.2483 66.239 45.2791 66.2202C45.3098 66.2013 45.335 66.1306 45.335 66.063C45.335 65.9953 45.3854 65.904 45.4469 65.8601C45.5196 65.8082 45.5588 65.7168 45.5588 65.5986C45.5588 65.4987 45.5866 65.417 45.6208 65.417C45.6547 65.417 45.6696 65.3832 45.6536 65.3419C45.6375 65.3006 45.6852 65.202 45.7595 65.1228C45.8338 65.0435 45.8945 64.9277 45.8945 64.8654C45.8945 64.8032 45.9173 64.7522 45.9452 64.7522C45.9731 64.7522 45.9827 64.7024 45.9666 64.6415C45.9462 64.5645 45.965 64.5307 46.0278 64.5307C46.0775 64.5307 46.1182 64.5058 46.1182 64.4753C46.1182 64.4448 46.0875 64.4199 46.0499 64.4199C46.0122 64.4199 46.0374 64.3811 46.1058 64.3336C46.1766 64.2846 46.2301 64.1892 46.2301 64.112C46.2301 64.0377 46.2553 63.9768 46.2861 63.9768C46.3169 63.9768 46.3391 63.9581 46.3355 63.9352C46.3155 63.81 46.3493 63.6977 46.398 63.7275C46.4287 63.7463 46.4539 63.7354 46.4539 63.7031C46.4539 63.6708 46.4224 63.6438 46.384 63.6432C46.3455 63.6425 46.3746 63.5958 46.4486 63.5394C46.5339 63.4746 46.5707 63.4044 46.5489 63.3483C46.5283 63.2951 46.5529 63.2374 46.6101 63.2044C46.6868 63.1601 46.6892 63.1488 46.6217 63.1467C46.5543 63.1446 46.5525 63.1349 46.6125 63.0973C46.6536 63.0715 46.6914 63.0283 46.6964 63.0011C46.7015 62.9741 46.7276 62.9592 46.7545 62.9681C46.7813 62.9769 46.7892 62.9477 46.7718 62.903C46.7545 62.8582 46.7766 62.7918 46.8209 62.7553C46.9197 62.6742 46.9283 62.5694 46.8315 62.627C46.7757 62.6602 46.7756 62.6513 46.8311 62.5836C46.8693 62.537 46.8819 62.4802 46.8591 62.4576C46.8362 62.435 46.8553 62.4248 46.9015 62.435C46.9531 62.4464 46.9825 62.4162 46.9776 62.3565C46.9734 62.3032 46.9938 62.2596 47.0229 62.2596C47.0521 62.2596 47.0616 62.2367 47.0443 62.2089C47.0269 62.1811 47.0433 62.1481 47.0806 62.1358C47.1181 62.1235 47.1527 62.0528 47.1576 61.9787C47.1625 61.9047 47.195 61.7739 47.2299 61.6882C47.2646 61.6025 47.2931 61.5019 47.2931 61.465C47.2931 61.428 47.3434 61.3618 47.405 61.3179C47.4665 61.274 47.5169 61.1841 47.5169 61.1182C47.5169 60.9536 47.6548 60.642 47.7054 60.6921C47.7281 60.7145 47.73 60.6903 47.7099 60.6381C47.6864 60.5774 47.7054 60.5311 47.7627 60.5093C47.8121 60.4905 47.8525 60.4514 47.8525 60.4225C47.8525 60.3934 47.8255 60.3862 47.7924 60.4064C47.7594 60.4266 47.7655 60.3908 47.806 60.3267C47.8464 60.2625 47.8985 60.2101 47.9219 60.2101C47.9453 60.2101 47.9644 60.1602 47.9644 60.0993C47.9644 60.0383 47.9896 59.9885 48.0204 59.9885C48.1025 59.9885 48.0888 59.823 48.0064 59.8188C47.9679 59.8169 47.9911 59.7935 48.058 59.7668C48.1448 59.732 48.171 59.6859 48.1496 59.6047C48.1302 59.5314 48.1514 59.4791 48.2099 59.457C48.2595 59.4382 48.3001 59.3616 48.3001 59.2869C48.3001 59.2105 48.3246 59.166 48.356 59.1853C48.3868 59.2041 48.412 59.1724 48.412 59.1147C48.412 59.0571 48.4295 58.9927 48.4507 58.9715C48.472 58.9504 48.498 58.8777 48.5083 58.81C48.5187 58.7421 48.5517 58.6784 48.5818 58.6682C48.6118 58.658 48.6221 58.6265 48.6046 58.5984C48.5457 58.5042 48.6402 58.3012 48.7022 58.3886C48.7412 58.4437 48.7496 58.4229 48.7321 58.3145C48.7188 58.2317 48.7276 58.176 48.7518 58.1909C48.776 58.2057 48.8117 58.1924 48.831 58.1615C48.8503 58.1305 48.8356 58.1051 48.7983 58.1051C48.7611 58.1051 48.7847 58.0586 48.851 58.0017C48.9815 57.8897 49.0149 57.7969 48.9015 57.8615C48.863 57.8834 48.8909 57.8369 48.9633 57.7581C49.0358 57.6793 49.0797 57.5901 49.0608 57.5601C49.0421 57.5299 49.0559 57.4957 49.0914 57.4839C49.1271 57.4721 49.163 57.4014 49.1711 57.3269C49.1793 57.2522 49.1879 57.1709 49.1906 57.1463C49.1931 57.1216 49.223 57.1186 49.2572 57.1394C49.3 57.1657 49.3077 57.1257 49.2818 57.0095C49.2577 56.9009 49.2689 56.8268 49.3134 56.7995C49.3628 56.7693 49.3706 56.7872 49.3412 56.8635C49.3132 56.9362 49.3186 56.9517 49.3581 56.9129C49.3899 56.8819 49.4228 56.7947 49.4314 56.7191C49.44 56.6436 49.4718 56.5642 49.5023 56.5426C49.5942 56.4777 49.6113 55.6256 49.5229 55.5177C49.4577 55.4381 49.4588 55.4317 49.5309 55.4729C49.5818 55.5018 49.5707 55.4686 49.5029 55.3883C49.2973 55.145 49.2461 55.1005 49.211 55.1353C49.1918 55.1542 49.1188 55.1325 49.0488 55.0871C48.876 54.975 48.2085 54.9815 48.1643 55.0958ZM38.974 56.8049C38.9377 56.8433 38.9254 56.8938 38.9467 56.9172C38.9679 56.9405 38.9514 56.9402 38.9102 56.9165C38.8252 56.8679 38.3265 57.3155 38.3765 57.3956C38.3928 57.4217 38.3749 57.4363 38.3366 57.428C38.2984 57.4195 38.234 57.475 38.1935 57.5512C38.153 57.6274 38.1194 57.6707 38.119 57.6475C38.1186 57.6242 37.8829 57.8361 37.5952 58.1183C37.3077 58.4005 37.0825 58.6501 37.0951 58.6729C37.1075 58.6958 37.0839 58.7145 37.0426 58.7145C36.9492 58.7145 36.37 59.2882 36.4104 59.3408C36.4265 59.3619 36.4223 59.366 36.4011 59.3501C36.3458 59.3085 35.7685 59.8853 35.7685 59.982C35.7685 60.0261 35.7536 60.0476 35.7355 60.0298C35.6928 59.9874 34.6594 61 34.6894 61.0548C34.7019 61.0776 34.676 61.0963 34.6318 61.0963C34.512 61.0963 34.401 61.2438 34.4934 61.2805C34.5331 61.2963 34.5064 61.3111 34.4338 61.3135C34.3405 61.3167 34.3114 61.3421 34.3342 61.401C34.3533 61.4504 34.3346 61.4841 34.288 61.4841C34.2264 61.4841 34.2107 61.5902 34.2142 61.9826C34.2174 62.3565 34.237 62.4812 34.2925 62.4812C34.3352 62.4812 34.3528 62.5162 34.3342 62.5642C34.3114 62.6231 34.3405 62.6486 34.4338 62.6518C34.5064 62.6541 34.5331 62.6689 34.4934 62.6847C34.3985 62.7225 34.5134 62.8689 34.6378 62.8689C34.6852 62.8689 34.7093 62.8836 34.6913 62.9016C34.6485 62.9438 35.6711 63.9671 35.7265 63.9373C35.7496 63.925 35.7685 63.9484 35.7685 63.9892C35.7685 64.0817 36.3479 64.6552 36.4011 64.6152C36.4223 64.5992 36.4265 64.6034 36.4104 64.6244C36.37 64.6771 36.9492 65.2508 37.0426 65.2508C37.0839 65.2508 37.1075 65.2695 37.0951 65.2923C37.0825 65.3152 37.3077 65.5647 37.5952 65.8469C37.8829 66.1292 38.1186 66.341 38.119 66.3178C38.1194 66.2945 38.153 66.3379 38.1935 66.414C38.234 66.4902 38.2984 66.5457 38.3366 66.5373C38.3749 66.529 38.3928 66.5435 38.3765 66.5697C38.3265 66.6497 38.8252 67.0973 38.9102 67.0487C38.9514 67.025 38.9677 67.025 38.946 67.0487C38.9245 67.0725 38.9456 67.1304 38.993 67.1773C39.0666 67.2503 39.0867 67.2513 39.1293 67.1847C39.1569 67.1416 39.1798 67.1332 39.1803 67.1657C39.1819 67.2812 39.9752 67.2433 40.0061 67.1262C40.021 67.0703 40.0554 67.0383 40.0826 67.0551C40.1101 67.0717 40.1569 67.0215 40.1868 66.9436C40.2168 66.8656 40.2797 66.8018 40.3266 66.8018C40.4385 66.8018 40.453 65.9966 40.342 65.9521C40.2894 65.9309 40.2927 65.9094 40.3559 65.8652C40.4129 65.8253 40.4173 65.8061 40.3699 65.8055C40.3315 65.8051 40.3 65.7673 40.3 65.7216C40.3 65.6759 40.2653 65.6385 40.2229 65.6385C40.1806 65.6385 40.1113 65.5949 40.0691 65.5416C39.998 65.4519 40.0005 65.4508 40.1042 65.5268C40.2147 65.6079 40.2148 65.6074 40.1108 65.4866C40.0527 65.4193 39.9829 65.3779 39.9555 65.3947C39.9281 65.4114 39.9126 65.3922 39.921 65.3519C39.9295 65.3114 39.9031 65.2853 39.8622 65.2937C39.8215 65.302 39.8031 65.2851 39.8211 65.2562C39.8393 65.2271 39.704 65.0519 39.5207 64.8671C39.2169 64.5605 39.0645 64.444 39.1531 64.5861C39.2242 64.6999 39.1411 64.634 38.899 64.3842C38.7618 64.2426 38.6811 64.1445 38.7196 64.1659C38.8705 64.25 38.7745 64.1222 38.4498 63.8067C38.263 63.6251 38.0829 63.4933 38.0496 63.5137C38.0162 63.534 38.0043 63.5261 38.0232 63.4959C38.0681 63.4241 37.5941 62.9643 37.5324 63.02C37.5063 63.0435 37.5018 63.0334 37.5226 62.9975C37.5446 62.9595 37.4211 62.7916 37.227 62.596C36.9076 62.2738 36.7805 62.1804 36.8636 62.3288C36.8848 62.3669 36.805 62.3046 36.686 62.1903L36.4696 61.9826L36.686 61.7749C36.805 61.6606 36.8848 61.5983 36.8636 61.6364C36.7805 61.7849 36.9076 61.6914 37.227 61.3693C37.4103 61.1844 37.5435 61.006 37.5229 60.9731C37.5023 60.94 37.5103 60.9282 37.5408 60.9469C37.6134 60.9914 38.0777 60.5221 38.0215 60.461C37.9977 60.4351 38.0079 60.4307 38.0442 60.4513C38.0826 60.473 38.2521 60.3508 38.4498 60.1585C38.7594 59.8578 38.877 59.7068 38.7335 59.7946C38.6186 59.865 38.6851 59.7827 38.9375 59.543C39.0804 59.4071 39.1796 59.3272 39.1579 59.3653C39.073 59.5147 39.2021 59.4197 39.5207 59.0982C39.704 58.9133 39.8372 58.7349 39.8166 58.702C39.7961 58.6689 39.8045 58.6574 39.8352 58.6762C39.866 58.6951 39.9643 58.6305 40.0537 58.5326L40.2161 58.3548L40.0482 58.493L39.8804 58.6314L40.0161 58.479C40.0906 58.3953 40.185 58.3267 40.2259 58.3267C40.2666 58.3267 40.3 58.2893 40.3 58.2436C40.3 58.1979 40.3315 58.1601 40.3699 58.1597C40.4173 58.1591 40.4129 58.1399 40.3559 58.1C40.2927 58.0558 40.2894 58.0344 40.342 58.0132C40.4533 57.9685 40.4385 57.1635 40.3261 57.1635C40.2792 57.1635 40.2247 57.1198 40.2053 57.0665C40.0983 56.7716 39.188 56.5781 38.974 56.8049ZM52.0664 56.854C52.0059 56.9175 51.9401 57.0132 51.9203 57.0665C51.9003 57.1198 51.8442 57.1635 51.7955 57.1635C51.7207 57.1635 51.7087 57.24 51.7172 57.662C51.7228 57.9362 51.7492 58.1605 51.7761 58.1605C51.8028 58.1605 51.8246 58.1979 51.8246 58.2436C51.8246 58.2893 51.8657 58.3267 51.9159 58.3267C51.9661 58.3267 52.0543 58.3804 52.1117 58.4459C52.2431 58.5959 52.2462 58.6401 52.1183 58.5422C52.0369 58.4797 52.0382 58.4876 52.1257 58.5894C52.1838 58.6567 52.2569 58.6962 52.2882 58.6769C52.3197 58.6577 52.3298 58.667 52.3106 58.6977C52.2915 58.7283 52.4236 58.9067 52.6042 59.0939C52.914 59.4153 53.0551 59.521 52.9667 59.3653C52.945 59.3272 53.0442 59.4071 53.1871 59.543C53.4395 59.7827 53.506 59.865 53.3911 59.7946C53.2636 59.7166 53.3505 59.84 53.5772 60.0592C53.9299 60.4002 54.2094 60.6403 54.1234 60.5286C53.9853 60.3494 54.1133 60.4295 54.3686 60.6824C54.6239 60.9351 54.7049 61.0619 54.5239 60.9252C54.4111 60.84 54.6536 61.1167 54.9979 61.4659C55.2316 61.703 55.3361 61.7707 55.261 61.6364C55.2398 61.5983 55.3196 61.6606 55.4386 61.7749L55.655 61.9826L55.4386 62.1903C55.3196 62.3046 55.2398 62.3669 55.261 62.3288C55.3361 62.1945 55.2316 62.2622 54.9979 62.4993C54.6536 62.8485 54.4111 63.1252 54.5239 63.0401C54.7049 62.9034 54.6239 63.0301 54.3686 63.2828C54.1133 63.5357 53.9853 63.6159 54.1234 63.4367C54.2094 63.3249 53.9299 63.565 53.5772 63.906C53.3382 64.137 53.2688 64.2418 53.405 64.1659C53.4435 64.1445 53.3628 64.2426 53.2256 64.3842C52.9835 64.634 52.9004 64.6999 52.9715 64.5861C52.9905 64.5556 52.9895 64.5307 52.9694 64.5307C52.8899 64.5307 52.278 65.2153 52.3106 65.2675C52.3298 65.2983 52.3197 65.3076 52.2882 65.2883C52.2569 65.2691 52.1838 65.3085 52.1257 65.3758C52.0382 65.4776 52.0369 65.4855 52.1183 65.4231C52.2462 65.3251 52.2431 65.3693 52.1117 65.5193C52.0543 65.5848 51.9661 65.6385 51.9159 65.6385C51.8657 65.6385 51.8246 65.6759 51.8246 65.7216C51.8246 65.7673 51.7994 65.8047 51.7687 65.8047C51.7355 65.8047 51.7127 66.009 51.7127 66.3066C51.7127 66.6269 51.733 66.796 51.7687 66.7741C51.7994 66.7552 51.8246 66.7874 51.8246 66.8453C51.8246 66.975 52.0189 67.1586 52.1022 67.1077C52.1359 67.087 52.1562 67.1031 52.1477 67.1438C52.1359 67.2001 52.2473 67.2186 52.6218 67.2229C52.8911 67.2261 53.1113 67.2074 53.1113 67.1814C53.1113 67.1555 53.1438 67.1341 53.1834 67.1341C53.2857 67.1341 53.7943 66.6101 53.7421 66.5585C53.7182 66.5349 53.7266 66.5238 53.7606 66.5341C53.8329 66.5557 55.0736 65.3287 55.0265 65.2822C55.0091 65.2649 55.0323 65.2508 55.0784 65.2508C55.1884 65.2508 55.4181 65.0064 55.3637 64.947C55.3403 64.9215 55.3487 64.9162 55.3826 64.9353C55.4598 64.9788 55.7575 64.678 55.6996 64.6149C55.6761 64.5893 55.6844 64.5839 55.7182 64.603C55.7863 64.6413 56.0947 64.3512 56.0493 64.2914C56.0335 64.2708 56.0375 64.2665 56.0582 64.282C56.1137 64.3234 56.3561 64.0821 56.3561 63.9856C56.3561 63.9401 56.3704 63.9171 56.3879 63.9342C56.4385 63.9845 57.6725 62.7513 57.6546 62.6685C57.6437 62.6185 57.6701 62.6058 57.7342 62.6302C57.8075 62.658 57.8216 62.6447 57.7942 62.5738C57.7717 62.5156 57.7861 62.4812 57.8331 62.4812C57.8901 62.4812 57.908 62.3621 57.908 61.9826C57.908 61.6032 57.8901 61.4841 57.8331 61.4841C57.7896 61.4841 57.7717 61.4493 57.7904 61.401C57.8108 61.3484 57.7897 61.3179 57.7328 61.3179C57.6833 61.3179 57.6491 61.2966 57.6568 61.2705C57.6753 61.208 56.4289 59.9903 56.3879 60.031C56.3704 60.0482 56.3561 60.0252 56.3561 59.9796C56.3561 59.8706 56.1093 59.6432 56.0493 59.6971C56.0235 59.7202 56.0182 59.7119 56.0375 59.6784C56.0763 59.611 55.7833 59.3056 55.7228 59.3506C55.702 59.3663 55.6978 59.3621 55.7136 59.3415C55.7591 59.2817 55.4507 58.9916 55.3826 59.0299C55.3487 59.049 55.3403 59.0438 55.3637 59.0183C55.4181 58.9589 55.1884 58.7145 55.0784 58.7145C55.0323 58.7145 55.0091 58.7003 55.0265 58.683C55.0693 58.6406 53.8362 57.4087 53.7704 57.428C53.7418 57.4363 53.7318 57.4217 53.7481 57.3956C53.7981 57.3155 53.2994 56.8679 53.2144 56.9165C53.1732 56.9402 53.1569 56.9402 53.1786 56.9165C53.2001 56.8927 53.179 56.8348 53.1316 56.7879C53.058 56.7149 53.0379 56.7139 52.9953 56.7806C52.9671 56.8245 52.9449 56.8314 52.9443 56.7963C52.9427 56.6731 52.1916 56.7224 52.0664 56.854ZM38.9288 59.6013C38.8407 59.6924 38.787 59.7669 38.8095 59.7669C38.8673 59.7669 39.1422 59.4883 39.113 59.4595C39.0998 59.4465 39.0169 59.5102 38.9288 59.6013ZM52.9994 59.4544C52.9994 59.5116 53.2808 59.7838 53.3099 59.7549C53.3231 59.7418 53.2587 59.6597 53.1667 59.5725C53.0747 59.4852 52.9994 59.4321 52.9994 59.4544ZM37.9503 60.5597C37.9503 60.5693 37.8685 60.6503 37.7685 60.7397L37.5867 60.9025L37.751 60.7224C37.9042 60.5546 37.9503 60.5169 37.9503 60.5597ZM36.6634 61.8444L36.5323 61.9826L36.6634 62.1208C36.7355 62.197 36.8069 62.247 36.8219 62.232C36.837 62.2171 36.7911 62.1549 36.72 62.0938L36.5906 61.9826L36.72 61.8714C36.7911 61.8103 36.837 61.7482 36.8219 61.7332C36.8069 61.7183 36.7355 61.7682 36.6634 61.8444ZM55.2932 61.7281C55.2932 61.7543 55.3474 61.8223 55.4136 61.8792L55.534 61.9826L55.4046 62.0938C55.3335 62.1549 55.2876 62.2171 55.3027 62.232C55.3177 62.247 55.3897 62.1963 55.4627 62.1194L55.5953 61.9796L55.4442 61.83C55.3612 61.7478 55.2932 61.7019 55.2932 61.7281ZM37.8139 63.2705L37.9783 63.4505L37.7965 63.2878C37.627 63.1362 37.5889 63.0905 37.6321 63.0905C37.6418 63.0905 37.7236 63.1715 37.8139 63.2705ZM38.9288 64.3639C39.0169 64.4551 39.0998 64.5188 39.113 64.5058C39.1422 64.4769 38.8673 64.1983 38.8095 64.1983C38.787 64.1983 38.8407 64.2728 38.9288 64.3639ZM53.1197 64.3439C53.0474 64.4202 52.9989 64.4932 53.0119 64.506C53.0249 64.5189 53.1077 64.4551 53.1958 64.3639C53.2839 64.2728 53.3325 64.1998 53.3036 64.2016C53.2748 64.2036 53.192 64.2676 53.1197 64.3439ZM60.8877 75.8308V78.3788H46.0623H31.2369V75.8308V73.2827H46.0623H60.8877V75.8308ZM60.8877 82.3084C60.8877 83.6499 60.8674 84.4225 60.8317 84.4443C60.8009 84.4632 60.7762 84.5083 60.7766 84.5446C60.7772 84.5842 60.7991 84.5774 60.8317 84.5274C60.8756 84.4603 60.8861 84.4682 60.8868 84.569C60.8872 84.6375 60.865 84.6936 60.8373 84.6936C60.8096 84.6936 60.7839 84.7746 60.78 84.8736C60.767 85.2128 60.7394 85.318 60.6457 85.3857C60.5942 85.4231 60.552 85.4944 60.552 85.5444C60.552 85.5944 60.5268 85.6353 60.496 85.6353C60.4653 85.6353 60.4401 85.6617 60.4401 85.694C60.4401 85.7263 60.4716 85.7365 60.51 85.7167C60.5485 85.697 60.4713 85.7823 60.3384 85.9064C60.2054 86.0305 60.1125 86.1573 60.1318 86.1884C60.1511 86.2192 60.142 86.2446 60.1116 86.2446C60.0293 86.2446 59.662 86.4862 59.6592 86.5422C59.658 86.5688 59.7009 86.5563 59.7548 86.5145C59.8437 86.4454 59.8455 86.4473 59.7749 86.5366C59.7268 86.5972 59.657 86.6222 59.5928 86.602C59.5268 86.5814 59.4762 86.6012 59.4549 86.6559C59.4365 86.7035 59.3988 86.7287 59.3713 86.7118C59.2819 86.6571 59.1889 86.751 59.2732 86.8107C59.3327 86.8527 59.3294 86.8582 59.2581 86.8358C59.208 86.82 59.135 86.8363 59.096 86.8721C59.0404 86.923 59.0355 86.9191 59.0731 86.8539C59.1142 86.7827 59.1012 86.7834 58.9834 86.8579C58.8938 86.9147 58.7539 86.9387 58.5834 86.9268C58.4392 86.9166 58.3057 86.9335 58.2865 86.9643C58.2384 87.0414 33.8865 87.0418 33.8384 86.9647C33.791 86.8887 33.5307 86.8945 33.5307 86.9715C33.5307 87.014 33.5037 87.0115 33.4454 86.9636C33.3985 86.9251 33.3438 86.9096 33.324 86.9292C33.3041 86.9491 33.2354 86.9313 33.1715 86.8899C33.1075 86.8485 32.9922 86.8236 32.9153 86.8345C32.8195 86.848 32.7993 86.839 32.8514 86.8056C32.937 86.7507 32.8405 86.6585 32.7533 86.7118C32.7258 86.7287 32.6882 86.7035 32.6697 86.6559C32.6484 86.6012 32.5978 86.5814 32.5318 86.602C32.4676 86.6222 32.3978 86.5972 32.3497 86.5366C32.2791 86.4473 32.2809 86.4454 32.3698 86.5145C32.4237 86.5563 32.4677 86.5666 32.4677 86.5372C32.4677 86.4792 32.1886 86.3292 32.1139 86.3471C32.0886 86.3532 32.0838 86.3325 32.1033 86.3014C32.1227 86.2701 32.0979 86.2446 32.0481 86.2446C31.9984 86.2446 31.9715 86.2223 31.9884 86.1952C32.0055 86.168 31.9125 86.0402 31.782 85.9111C31.6515 85.7819 31.5761 85.6936 31.6146 85.7145C31.653 85.7354 31.6845 85.7263 31.6845 85.694C31.6845 85.6617 31.6476 85.6353 31.6024 85.6353C31.5495 85.6353 31.5326 85.6031 31.555 85.5453C31.5761 85.491 31.5528 85.4349 31.4961 85.4035C31.4446 85.3749 31.4164 85.3291 31.4335 85.3018C31.4634 85.2538 31.4455 85.2036 31.2975 84.9232C31.2596 84.8515 31.2532 84.8078 31.2831 84.8261C31.3146 84.8454 31.3376 84.7772 31.3376 84.6656C31.3376 84.559 31.315 84.4579 31.2873 84.4409C31.2589 84.4236 31.2369 83.4941 31.2369 82.3084V80.2068H46.0623H60.8877V82.3084ZM45.2231 81.0434C45.2231 81.0706 45.1628 81.0931 45.0893 81.0931C45.0156 81.0931 44.941 81.1301 44.9235 81.1752C44.9061 81.2205 44.8563 81.2439 44.8129 81.2274C44.7696 81.2109 44.7192 81.2359 44.701 81.2828C44.6819 81.3321 44.6317 81.3544 44.5819 81.3354C44.5012 81.3048 44.4663 81.3732 44.4939 81.5085C44.5 81.539 44.4865 81.5454 44.4635 81.5228C44.4407 81.5001 44.3865 81.5317 44.3433 81.5929C44.2999 81.6542 44.2442 81.6919 44.2195 81.6768C44.1518 81.6354 43.9207 81.854 43.9621 81.9204C43.9838 81.9551 43.9635 81.965 43.9114 81.9452C43.855 81.9237 43.8245 81.9435 43.8245 82.0011C43.8245 82.0501 43.7993 82.0901 43.7686 82.0901C43.7378 82.0901 43.7126 82.1255 43.7126 82.1687C43.7126 82.2117 43.6812 82.2598 43.6427 82.2752C43.5887 82.2969 43.5904 82.3155 43.6501 82.3569C43.7121 82.3998 43.7037 82.4178 43.6081 82.4478C43.5426 82.4685 43.4888 82.51 43.4888 82.5403C43.4888 82.5705 43.5158 82.5787 43.549 82.5585C43.6086 82.5219 43.4932 82.7572 43.4255 82.8102C43.3621 82.8598 43.3905 84.2199 43.4558 84.2635C43.4975 84.2913 43.4947 84.3045 43.4469 84.305C43.4084 84.3054 43.377 84.3323 43.377 84.3646C43.377 84.3968 43.4021 84.4078 43.4329 84.3889C43.4637 84.3701 43.4888 84.401 43.4888 84.4576C43.4888 84.5143 43.5203 84.5942 43.5588 84.6353C43.6147 84.695 43.6147 84.702 43.5588 84.6707C43.5203 84.6493 43.4888 84.658 43.4888 84.6903C43.4888 84.7225 43.514 84.749 43.5448 84.749C43.5756 84.749 43.6007 84.7988 43.6007 84.8598C43.6007 84.9228 43.6381 84.9706 43.6872 84.9706C43.7379 84.9706 43.7668 85.0099 43.7571 85.0663C43.748 85.1189 43.77 85.1625 43.8059 85.1632C43.8935 85.1649 43.9736 85.2475 43.8876 85.2475C43.8371 85.2475 43.8384 85.2672 43.8922 85.3254C43.9319 85.3681 43.9807 85.3993 44.0007 85.3946C44.0207 85.3899 44.0412 85.4109 44.0461 85.4414C44.0509 85.4719 44.1038 85.5147 44.1635 85.5365C44.2233 85.5584 44.2721 85.616 44.2721 85.6645C44.2721 85.713 44.2935 85.7394 44.3198 85.7234C44.3461 85.7073 44.4153 85.7308 44.4736 85.7757C44.577 85.8549 44.5768 85.8563 44.4679 85.8254C44.3817 85.801 44.3869 85.8121 44.4904 85.8733C44.5642 85.9171 44.6717 85.9408 44.729 85.9258C44.8072 85.9056 44.8245 85.9212 44.7984 85.9887C44.7666 86.0707 44.8542 86.1099 45.0133 86.0849C45.0364 86.0813 45.0553 86.1004 45.0553 86.1273C45.0553 86.2008 45.2617 86.2396 45.324 86.178C45.3592 86.1431 45.3917 86.1454 45.4159 86.1844C45.4392 86.2217 45.682 86.2446 46.0545 86.2446C46.4125 86.2446 46.6799 86.2202 46.7162 86.1844C46.7556 86.1453 46.789 86.1435 46.8113 86.1792C46.8514 86.2433 47.0693 86.1996 47.0693 86.1273C47.0693 86.1004 47.0882 86.0813 47.1113 86.0849C47.2583 86.1079 47.3577 86.0698 47.3308 86.0007C47.3131 85.9546 47.3447 85.9118 47.4089 85.8952C47.4683 85.8798 47.5027 85.8899 47.4854 85.9178C47.4681 85.9456 47.5191 85.939 47.5988 85.9031C47.7037 85.8557 47.724 85.8251 47.6723 85.7927C47.6034 85.7494 47.6208 85.7412 47.7697 85.7472C47.8276 85.7495 47.952 85.6065 47.9272 85.566C47.9134 85.5432 47.9411 85.5245 47.989 85.5245C48.037 85.5245 48.07 85.4933 48.0623 85.4552C48.0546 85.4172 48.0735 85.3899 48.1043 85.3946C48.1351 85.3993 48.1927 85.3681 48.2324 85.3254C48.2862 85.2672 48.2875 85.2475 48.237 85.2475C48.151 85.2475 48.2311 85.1649 48.3187 85.1632C48.3546 85.1625 48.3766 85.1189 48.3675 85.0663C48.3579 85.0099 48.3867 84.9706 48.4374 84.9706C48.4865 84.9706 48.5239 84.9228 48.5239 84.8598C48.5239 84.7988 48.549 84.749 48.5798 84.749C48.6106 84.749 48.6358 84.7225 48.6358 84.6903C48.6358 84.658 48.6043 84.6493 48.5658 84.6707C48.5099 84.702 48.5099 84.695 48.5658 84.6353C48.6043 84.5942 48.6358 84.5143 48.6358 84.4576C48.6358 84.401 48.6609 84.3701 48.6917 84.3889C48.7225 84.4078 48.7476 84.3989 48.7476 84.3691C48.7476 84.3394 48.7162 84.3046 48.6777 84.2917C48.6251 84.2743 48.6234 84.2491 48.671 84.1902C48.7735 84.0635 48.759 82.8102 48.6551 82.8102C48.61 82.8102 48.5895 82.7842 48.6093 82.7524C48.6292 82.7207 48.6117 82.6535 48.5706 82.6034C48.5173 82.5383 48.5159 82.524 48.5658 82.5536C48.6043 82.5765 48.6358 82.5705 48.6358 82.5403C48.6358 82.51 48.5821 82.4685 48.5165 82.4478C48.4209 82.4178 48.4125 82.3998 48.4745 82.3569C48.5342 82.3155 48.5359 82.2969 48.4819 82.2752C48.4434 82.2598 48.412 82.2117 48.412 82.1687C48.412 82.1255 48.3868 82.0901 48.356 82.0901C48.3253 82.0901 48.3001 82.0634 48.3001 82.0307C48.3001 81.9526 48.1572 81.8132 48.077 81.8132C48.0422 81.8132 48.0282 81.7901 48.0458 81.7618C48.0634 81.7336 48.0272 81.6945 47.9653 81.675C47.9033 81.6555 47.8525 81.6149 47.8525 81.5846C47.8525 81.5544 47.8274 81.5451 47.7966 81.5639C47.7658 81.5827 47.7406 81.5703 47.7406 81.5362C47.7406 81.5022 47.7149 81.4901 47.6833 81.5094C47.6518 81.5286 47.6296 81.5239 47.6339 81.4988C47.6559 81.3738 47.6183 81.3147 47.5169 81.3147C47.4553 81.3147 47.405 81.2906 47.405 81.2611C47.405 81.2314 47.3675 81.2216 47.3215 81.239C47.2739 81.2572 47.2233 81.2327 47.2037 81.182C47.1847 81.1331 47.109 81.0931 47.0353 81.0931C46.9618 81.0931 46.9015 81.0706 46.9015 81.0434C46.9015 81.0161 46.5238 80.9936 46.0623 80.9936C45.6008 80.9936 45.2231 81.0161 45.2231 81.0434ZM35.098 82.7636C35.0974 82.8278 35.0637 82.8467 34.9852 82.8263C34.9202 82.8094 34.8734 82.8247 34.8734 82.8625C34.8734 82.8983 34.8985 82.9122 34.9293 82.8933C35.0204 82.8377 34.9931 82.9012 34.8906 82.9835C34.8262 83.0351 34.8094 83.0374 34.838 82.9903C34.861 82.9522 34.8534 82.921 34.8208 82.921C34.7882 82.921 34.7615 82.9709 34.7615 83.0318C34.7615 83.0928 34.7363 83.1426 34.7055 83.1426C34.6047 83.1426 34.635 84.0668 34.737 84.1056C34.7851 84.1239 34.8087 84.1642 34.7894 84.1951C34.7437 84.2683 34.9113 84.4342 34.9852 84.3889C35.0164 84.3698 35.0576 84.3943 35.0764 84.4432C35.1265 84.5723 39.5463 84.5645 39.5963 84.4355C39.6137 84.3907 39.6533 84.3697 39.6842 84.3887C39.7152 84.4076 39.7405 84.3828 39.7405 84.3335C39.7405 84.2842 39.7657 84.2593 39.7965 84.2782C39.8273 84.297 39.8557 84.286 39.8594 84.2538C39.8633 84.2215 39.8727 84.1701 39.8804 84.1397C39.8881 84.1092 39.8979 84.0531 39.9022 84.015C39.9085 83.9596 39.919 83.9598 39.9545 84.0152C39.979 84.0533 39.9983 83.8743 39.9973 83.6176C39.9965 83.3609 39.9731 83.1551 39.9454 83.1605C39.9179 83.1659 39.888 83.1272 39.879 83.0745C39.8598 82.9619 39.7184 82.8102 39.6327 82.8102C39.5997 82.8102 39.5727 82.7853 39.5727 82.7549C39.5727 82.6826 35.3818 82.6806 35.2665 82.7528C35.2121 82.7868 35.1694 82.7819 35.1415 82.7381C35.1121 82.6924 35.0985 82.7003 35.098 82.7636ZM52.526 82.8037C52.4985 82.8897 52.4695 82.9129 52.4429 82.8704C52.4122 82.8211 52.3883 82.8227 52.3459 82.8769C52.2492 83.0004 52.2032 83.1207 52.2959 83.0075C52.3445 82.9482 52.3841 82.9264 52.3841 82.9591C52.3841 82.9917 52.3466 83.049 52.3007 83.0867C52.255 83.1243 52.2312 83.1772 52.2481 83.2042C52.265 83.2312 52.2543 83.2534 52.2242 83.2534C52.1941 83.2534 52.1604 83.2262 52.1492 83.193C52.138 83.1598 52.1281 83.3467 52.1273 83.6085C52.126 83.975 52.1432 84.0843 52.2022 84.0843C52.2443 84.0843 52.2657 84.1052 52.2498 84.1307C52.2084 84.1971 52.3814 84.4248 52.4442 84.3863C52.4731 84.3687 52.5112 84.3916 52.5289 84.4373C52.5793 84.5673 56.9981 84.5724 57.0484 84.4425C57.0672 84.3939 57.1082 84.3698 57.1394 84.3889C57.2133 84.4342 57.3809 84.2683 57.3352 84.1951C57.3159 84.1642 57.3406 84.1235 57.3903 84.1046C57.4891 84.0671 57.5096 83.1426 57.4115 83.1426C57.385 83.1426 57.3631 83.0901 57.3631 83.0259C57.3631 82.9468 57.3371 82.9191 57.282 82.94C57.2252 82.9616 57.2112 82.9442 57.2356 82.8816C57.2626 82.8118 57.2438 82.7993 57.1487 82.8238C57.0696 82.8443 57.0275 82.8299 57.0275 82.7821C57.0275 82.651 52.665 82.663 52.6599 82.7942C52.6564 82.8809 52.6504 82.8794 52.6122 82.7826C52.5705 82.6769 52.5664 82.6779 52.526 82.8037ZM46.3629 82.9325C46.3478 82.9566 46.3755 82.9764 46.4244 82.9764C46.4734 82.9764 46.5278 83.0137 46.5454 83.0592C46.5631 83.1047 46.6001 83.1282 46.6276 83.1113C46.6552 83.0944 46.6777 83.1293 46.6777 83.1889C46.6777 83.2483 46.7092 83.3089 46.7478 83.3236C46.8374 83.3577 46.8219 83.8641 46.7296 83.9206C46.6932 83.9429 46.6806 83.9889 46.7017 84.0227C46.7241 84.0585 46.7012 84.0843 46.6471 84.0843C46.5872 84.0843 46.5654 84.1141 46.5861 84.1674C46.6169 84.2469 46.5629 84.274 46.412 84.2546C46.3735 84.2496 46.342 84.2654 46.342 84.2895C46.342 84.3137 46.2161 84.3335 46.0623 84.3335C45.9085 84.3335 45.7826 84.3122 45.7826 84.286C45.7826 84.26 45.7436 84.2535 45.6957 84.2716C45.6391 84.2931 45.6229 84.2823 45.649 84.2403C45.6754 84.198 45.6585 84.1879 45.5988 84.2106C45.5354 84.2347 45.5178 84.221 45.5396 84.1646C45.5592 84.1142 45.536 84.0843 45.4775 84.0843C45.4234 84.0843 45.4005 84.0585 45.4229 84.0227C45.444 83.9889 45.4314 83.9429 45.395 83.9206C45.3036 83.8647 45.2891 83.3694 45.377 83.2973C45.4154 83.2657 45.4469 83.2013 45.4469 83.1542C45.4469 83.1073 45.461 83.0828 45.4784 83.0998C45.4956 83.117 45.568 83.0775 45.6394 83.0122C45.7668 82.8953 46.4318 82.822 46.3629 82.9325Z" fill="white"/>
</svg>
