<svg width="60" height="60" viewBox="0 0 60 60" fill="none" xmlns="http://www.w3.org/2000/svg">
<path d="M51.4711 46.7503H50.4658L52.9261 34.4406C52.9842 34.151 52.9846 33.8527 52.9274 33.5629C52.8702 33.2731 52.7564 32.9974 52.5926 32.7516C52.4287 32.5059 52.2181 32.2948 51.9726 32.1306C51.7272 31.9663 51.4518 31.8521 51.1622 31.7945C51.0169 31.7651 50.869 31.7503 50.7208 31.7503H29.7307C29.1823 31.7469 28.652 31.9467 28.2421 32.3112C27.8322 32.6757 27.5716 33.179 27.5107 33.7243C26.1358 32.9233 24.5735 32.5007 22.9824 32.4993V31.1828C24.422 30.6184 25.6744 29.6612 26.5971 28.4201C27.5199 27.1789 28.076 25.7037 28.2022 24.162C28.8515 23.9998 29.428 23.6253 29.8403 23.0979C30.2526 22.5705 30.4769 21.9205 30.4777 21.251V15.2507C30.4768 14.0276 30.0495 12.8431 29.2695 11.9013C28.4895 10.9595 27.4056 10.3193 26.2045 10.0909C26.4568 9.83654 26.628 9.5131 26.6967 9.16144C26.7654 8.80977 26.7284 8.44563 26.5904 8.11497C26.4524 7.78432 26.2196 7.50195 25.9214 7.30352C25.6232 7.10508 25.2729 6.99947 24.9147 7H17.7398C15.5536 7.00303 13.4578 7.87332 11.912 9.42001C10.3663 10.9667 9.49675 13.0635 9.49416 15.2507V21.251C9.49499 21.9205 9.71935 22.5705 10.1316 23.0979C10.5439 23.6253 11.1204 23.9998 11.7697 24.162C11.8961 25.7038 12.4524 27.1793 13.3755 28.4204C14.2985 29.6616 15.5512 30.6187 16.9911 31.1828V32.4993C14.6065 32.4993 12.3196 33.447 10.6334 35.1339C8.94727 36.8207 8 39.1086 8 41.4941V48.999C7.99979 49.393 8.07718 49.7832 8.22775 50.1473C8.37832 50.5114 8.59913 50.8422 8.87755 51.1209C9.15598 51.3996 9.48656 51.6207 9.85041 51.7715C10.2143 51.9224 10.6043 52 10.9981 52H28.9803C29.3421 51.9918 29.6996 51.9198 30.0364 51.7874C30.4198 51.9233 30.823 51.9951 31.2297 52H49.2217C50.2149 51.997 51.1666 51.6009 51.869 50.8983C52.5713 50.1957 52.9672 49.2436 52.9702 48.25C52.9702 47.8523 52.8123 47.4708 52.5311 47.1896C52.25 46.9083 51.8687 46.7503 51.4711 46.7503ZM29.152 33.5248C29.2222 33.4391 29.3105 33.37 29.4105 33.3225C29.5106 33.275 29.6199 33.2502 29.7307 33.25H50.7208C50.8192 33.2498 50.9168 33.269 51.0078 33.3065C51.0988 33.3441 51.1816 33.3992 51.2513 33.4688C51.321 33.5384 51.3763 33.621 51.414 33.712C51.4517 33.803 51.4711 33.9005 51.4711 33.999C51.4712 34.0495 51.4663 34.0999 51.4564 34.1495L48.9373 46.7503H31.5142L28.995 34.1495C28.9727 34.0402 28.9753 33.9274 29.0024 33.8192C29.0296 33.7111 29.0807 33.6105 29.152 33.5248ZM17.7398 8.49967H24.9163C24.999 8.49923 25.0785 8.53145 25.1376 8.58933C25.1967 8.6472 25.2305 8.72606 25.2318 8.80877C25.2328 8.85065 25.2252 8.8923 25.2095 8.93112C25.1937 8.96994 25.1702 9.00512 25.1403 9.03446L23.9518 10.2201C23.8472 10.3252 23.776 10.4589 23.7472 10.6045C23.7185 10.75 23.7335 10.9008 23.7903 11.0378C23.8472 11.1748 23.9433 11.2919 24.0666 11.3742C24.1899 11.4566 24.3349 11.5006 24.4831 11.5007H25.2318C26.2251 11.5037 27.1768 11.8997 27.8791 12.6023C28.5814 13.3049 28.9773 14.257 28.9803 15.2507V16.8861C28.638 16.7588 28.2693 16.7189 27.9076 16.77C27.546 16.8211 27.2028 16.9616 26.9091 17.1788C26.6604 16.8187 26.3398 16.5141 25.9676 16.2841C25.5954 16.0541 25.1795 15.9038 24.7463 15.8427C23.3824 15.7489 22.0712 15.2785 20.9586 14.4836C20.6905 14.2422 20.3426 14.1086 19.9819 14.1086C19.6211 14.1086 19.2732 14.2422 19.0051 14.4836C17.8928 15.2778 16.5823 15.7482 15.219 15.8427C14.7858 15.9038 14.37 16.0541 13.9978 16.2841C13.6255 16.5141 13.3049 16.8187 13.0563 17.1788C12.7629 16.9623 12.4202 16.8222 12.0593 16.7711C11.6983 16.72 11.3302 16.7595 10.9883 16.8861V15.2507C10.99 13.4601 11.702 11.7435 12.9679 10.4777C14.2338 9.21198 15.95 8.50054 17.7398 8.49967ZM13.2426 23.4997C13.2422 23.3009 13.1629 23.1104 13.0223 22.9699C12.8816 22.8295 12.691 22.7507 12.4923 22.7507C12.0948 22.7502 11.7138 22.5921 11.4328 22.3109C11.1517 22.0298 10.9936 21.6486 10.9932 21.251V19.0007C10.9885 18.8992 11.0044 18.7979 11.0399 18.7028C11.0754 18.6077 11.1299 18.5208 11.1999 18.4474C11.27 18.3739 11.3542 18.3155 11.4475 18.2755C11.5408 18.2356 11.6413 18.215 11.7427 18.215C11.8442 18.215 11.9447 18.2356 12.038 18.2755C12.1313 18.3155 12.2155 18.3739 12.2856 18.4474C12.3556 18.5208 12.4101 18.6077 12.4456 18.7028C12.4811 18.7979 12.497 18.8992 12.4923 19.0007C12.5013 19.1935 12.5842 19.3754 12.7238 19.5087C12.8633 19.6419 13.0489 19.7163 13.2418 19.7163C13.4348 19.7163 13.6203 19.6419 13.7599 19.5087C13.8994 19.3754 13.9823 19.1935 13.9913 19.0007C13.992 18.5957 14.1379 18.2045 14.4025 17.8981C14.6671 17.5917 15.0328 17.3904 15.4332 17.3309C17.0832 17.2079 18.6639 16.6161 19.9892 15.6252C21.3146 16.6161 22.8952 17.2079 24.5453 17.3309C24.9456 17.3904 25.3113 17.5917 25.5759 17.8981C25.8405 18.2045 25.9864 18.5957 25.9871 19.0007C25.9961 19.1935 26.079 19.3754 26.2186 19.5087C26.3582 19.6419 26.5437 19.7163 26.7366 19.7163C26.9296 19.7163 27.1151 19.6419 27.2547 19.5087C27.3943 19.3754 27.4772 19.1935 27.4862 19.0007C27.4814 18.8992 27.4973 18.7979 27.5328 18.7028C27.5684 18.6077 27.6228 18.5208 27.6929 18.4474C27.7629 18.3739 27.8472 18.3155 27.9405 18.2755C28.0338 18.2356 28.1342 18.215 28.2357 18.215C28.3372 18.215 28.4376 18.2356 28.5309 18.2755C28.6242 18.3155 28.7084 18.3739 28.7785 18.4474C28.8486 18.5208 28.903 18.6077 28.9385 18.7028C28.9741 18.7979 28.99 18.8992 28.9852 19.0007V21.251C28.9848 21.6486 28.8267 22.0298 28.5457 22.3109C28.2646 22.5921 27.8836 22.7502 27.4862 22.7507C27.2874 22.7507 27.0968 22.8295 26.9562 22.9699C26.8155 23.1104 26.7362 23.3009 26.7358 23.4997C26.7358 25.2897 26.025 27.0064 24.7598 28.2722C23.4945 29.5379 21.7785 30.249 19.9892 30.249C18.1999 30.249 16.4839 29.5379 15.2187 28.2722C13.9534 27.0064 13.2426 25.2897 13.2426 23.4997ZM19.9843 31.7454C20.4872 31.7445 20.989 31.6974 21.4834 31.6048V33.2402C21.4834 33.6379 21.3254 34.0194 21.0443 34.3006C20.7632 34.5819 20.3819 34.7399 19.9843 34.7399C19.5867 34.7399 19.2054 34.5819 18.9243 34.3006C18.6432 34.0194 18.4853 33.6379 18.4853 33.2402V31.6048C18.9796 31.6974 19.4814 31.7445 19.9843 31.7454ZM9.48925 48.999V41.5007C9.48839 40.5165 9.68134 39.5417 10.0571 38.6322C10.4328 37.7226 10.984 36.8959 11.6791 36.1995C12.3742 35.503 13.1997 34.9504 14.1083 34.5731C15.0169 34.1958 15.991 34.0013 16.9747 34.0007H17.0859C17.249 34.6442 17.622 35.2149 18.1457 35.6226C18.6695 36.0303 19.3142 36.2516 19.9778 36.2516C20.6414 36.2516 21.2861 36.0303 21.8098 35.6226C22.3336 35.2149 22.7065 34.6442 22.8696 34.0007H22.9759C24.7316 33.999 26.4319 34.6156 27.7788 35.7424L29.9791 46.7503H28.9738C28.5762 46.7503 28.1949 46.9083 27.9138 47.1896C27.6327 47.4708 27.4747 47.8523 27.4747 48.25C27.4779 49.064 27.7478 49.8545 28.243 50.5003H10.9883C10.7913 50.5003 10.5963 50.4615 10.4143 50.386C10.2323 50.3105 10.067 50.1999 9.92774 50.0605C9.78852 49.9211 9.67813 49.7556 9.60289 49.5734C9.52766 49.3913 9.48904 49.1961 9.48925 48.999ZM49.2217 50.5003H31.2297C30.6331 50.5003 30.061 50.2632 29.6392 49.8412C29.2173 49.4192 28.9803 48.8468 28.9803 48.25H51.4711C51.4711 48.8468 51.2341 49.4192 50.8123 49.8412C50.3904 50.2632 49.8183 50.5003 49.2217 50.5003Z" fill="#143274"/>
<path d="M23.5824 26.1997C23.6464 26.1213 23.6939 26.0308 23.722 25.9336C23.7501 25.8364 23.7583 25.7345 23.746 25.634C23.7338 25.5335 23.7013 25.4366 23.6507 25.349C23.6 25.2614 23.5321 25.1849 23.4512 25.1242C23.3702 25.0635 23.2778 25.0198 23.1795 24.9958C23.0812 24.9717 22.9791 24.9678 22.8793 24.9843C22.7795 25.0007 22.684 25.0372 22.5986 25.0915C22.5132 25.1458 22.4397 25.2168 22.3825 25.3003C22.1032 25.673 21.7411 25.9755 21.3247 26.1838C20.9083 26.3922 20.4491 26.5007 19.9835 26.5007C19.5179 26.5007 19.0587 26.3922 18.6423 26.1838C18.2259 25.9755 17.8638 25.673 17.5845 25.3003C17.5255 25.2216 17.4515 25.1552 17.3669 25.1051C17.2822 25.055 17.1885 25.0221 17.0911 25.0082C16.9938 24.9943 16.8946 24.9997 16.7993 25.0241C16.704 25.0486 16.6145 25.0916 16.5358 25.1506C16.4571 25.2097 16.3909 25.2837 16.3408 25.3684C16.2907 25.453 16.2577 25.5468 16.2438 25.6442C16.2299 25.7416 16.2354 25.8408 16.2598 25.9361C16.2842 26.0315 16.3272 26.121 16.3862 26.1997C16.8048 26.7586 17.3477 27.2122 17.972 27.5247C18.5962 27.8371 19.2847 27.9998 19.9827 27.9998C20.6807 27.9998 21.3691 27.8371 21.9934 27.5247C22.6177 27.2122 23.1606 26.7586 23.5791 26.1997H23.5824Z" fill="#143274"/>
<path d="M41.2938 43.6934H39.6303L39.1482 42.1858H36.7379L36.2606 43.6934H34.6065L37.0735 36.9163H38.8835L41.2938 43.6934ZM38.7985 41.0138L38.0707 38.7358C38.0171 38.5657 37.9793 38.3625 37.9572 38.1262H37.9194C37.9037 38.3247 37.8643 38.5216 37.8013 38.7169L37.064 41.0138H38.7985Z" fill="#143274"/>
<path d="M44.2334 36.9163V38.0978H43.6663V42.5119H44.2334V43.6934H41.5727V42.5119H42.1398V38.0978H41.5727V36.9163H44.2334Z" fill="#143274"/>
</svg>
