<svg width="56" height="55" viewBox="0 0 56 55" fill="none" xmlns="http://www.w3.org/2000/svg">
<path d="M48.5297 44.7503H47.523L49.9866 32.4406C50.0448 32.151 50.0453 31.8527 49.988 31.5629C49.9307 31.2731 49.8167 30.9974 49.6527 30.7516C49.4886 30.5059 49.2777 30.2948 49.0319 30.1306C48.7861 29.9663 48.5104 29.8521 48.2204 29.7945C48.0749 29.7651 47.9268 29.7503 47.7784 29.7503H26.76C26.2108 29.7469 25.6798 29.9467 25.2694 30.3112C24.8589 30.6757 24.598 31.179 24.537 31.7243C23.1602 30.9233 21.5958 30.5007 20.0026 30.4993V29.1828C21.4441 28.6184 22.6982 27.6612 23.6222 26.4201C24.5462 25.1789 25.103 23.7037 25.2294 22.162C25.8796 21.9998 26.4569 21.6253 26.8697 21.0979C27.2826 20.5705 27.5072 19.9205 27.508 19.251V13.2507C27.5071 12.0276 27.0792 10.8431 26.2982 9.90129C25.5171 8.95947 24.4318 8.31926 23.2291 8.09093C23.4816 7.83654 23.6531 7.5131 23.7219 7.16144C23.7907 6.80977 23.7536 6.44563 23.6155 6.11498C23.4773 5.78432 23.2442 5.50195 22.9456 5.30352C22.6469 5.10508 22.2962 4.99947 21.9375 5H14.7529C12.5638 5.00303 10.4651 5.87332 8.91729 7.42001C7.36946 8.9667 6.49877 11.0635 6.49617 13.2507V19.251C6.49701 19.9205 6.72166 20.5705 7.13448 21.0979C7.5473 21.6253 8.12463 21.9998 8.7748 22.162C8.90132 23.7038 9.45841 25.1793 10.3827 26.4204C11.307 27.6616 12.5614 28.6187 14.0032 29.1828V30.4993C11.6154 30.4993 9.32541 31.447 7.63698 33.1339C5.94855 34.8207 5 37.1086 5 39.4941V46.999C4.99979 47.393 5.07728 47.7832 5.22806 48.1473C5.37883 48.5114 5.59994 48.8422 5.87874 49.1209C6.15753 49.3996 6.48856 49.6207 6.85291 49.7715C7.21725 49.9224 7.60778 50 8.00216 50H26.0086C26.3709 49.9918 26.7288 49.9198 27.0661 49.7874C27.45 49.9233 27.8537 49.9951 28.261 50H46.2773C47.2719 49.997 48.2248 49.6009 48.9281 48.8983C49.6314 48.1957 50.0278 47.2436 50.0308 46.25C50.0308 45.8523 49.8727 45.4708 49.5912 45.1896C49.3097 44.9083 48.9279 44.7503 48.5297 44.7503ZM26.1805 31.5248C26.2508 31.4391 26.3392 31.37 26.4394 31.3225C26.5396 31.275 26.6491 31.2502 26.76 31.25H47.7784C47.877 31.2498 47.9746 31.269 48.0658 31.3065C48.1569 31.3441 48.2398 31.3992 48.3096 31.4688C48.3794 31.5384 48.4347 31.621 48.4725 31.712C48.5103 31.803 48.5297 31.9005 48.5297 31.999C48.5298 32.0495 48.5249 32.0999 48.515 32.1495L45.9925 44.7503H28.5459L26.0233 32.1495C26.001 32.0402 26.0035 31.9274 26.0307 31.8192C26.0579 31.7111 26.1091 31.6105 26.1805 31.5248ZM14.7529 6.49967H21.9391C22.0219 6.49923 22.1016 6.53145 22.1607 6.58933C22.2199 6.6472 22.2538 6.72606 22.2551 6.80877C22.2561 6.85065 22.2485 6.8923 22.2327 6.93112C22.2169 6.96994 22.1933 7.00512 22.1634 7.03446L20.9733 8.22013C20.8685 8.3252 20.7972 8.45894 20.7685 8.60446C20.7397 8.74998 20.7547 8.90077 20.8116 9.03777C20.8685 9.17478 20.9648 9.29186 21.0883 9.37425C21.2117 9.45663 21.3569 9.50062 21.5054 9.50066H22.2551C23.2496 9.50368 24.2026 9.89973 24.9059 10.6023C25.6091 11.3049 26.0056 12.257 26.0086 13.2507V14.8861C25.6658 14.7588 25.2966 14.7189 24.9345 14.77C24.5724 14.8211 24.2287 14.9616 23.9346 15.1788C23.6856 14.8187 23.3646 14.5141 22.9918 14.2841C22.6191 14.0541 22.2027 13.9038 21.7689 13.8427C20.4031 13.7489 19.0902 13.2785 17.9761 12.4836C17.7076 12.2422 17.3592 12.1086 16.998 12.1086C16.6368 12.1086 16.2884 12.2422 16.0199 12.4836C14.9061 13.2778 13.5939 13.7482 12.2288 13.8427C11.795 13.9038 11.3786 14.0541 11.0058 14.2841C10.6331 14.5141 10.3121 14.8187 10.0631 15.1788C9.76928 14.9623 9.4262 14.8222 9.06472 14.7711C8.70325 14.72 8.33474 14.7595 7.99234 14.8861V13.2507C7.99408 11.4601 8.70701 9.74352 9.97459 8.47775C11.2422 7.21198 12.9608 6.50054 14.7529 6.49967ZM10.2497 21.4997C10.2493 21.3009 10.1699 21.1104 10.029 20.9699C9.88819 20.8295 9.69732 20.7507 9.49833 20.7507C9.10036 20.7502 8.7188 20.5921 8.43739 20.3109C8.15597 20.0298 7.99769 19.6486 7.99725 19.251V17.0007C7.99251 16.8992 8.00841 16.7979 8.04399 16.7028C8.07957 16.6077 8.13409 16.5208 8.20425 16.4474C8.27441 16.3739 8.35875 16.3155 8.45218 16.2755C8.54561 16.2356 8.64617 16.215 8.7478 16.215C8.84942 16.215 8.94998 16.2356 9.04341 16.2755C9.13683 16.3155 9.22118 16.3739 9.29134 16.4474C9.3615 16.5208 9.41602 16.6077 9.4516 16.7028C9.48718 16.7979 9.50308 16.8992 9.49833 17.0007C9.50735 17.1935 9.59036 17.3754 9.73013 17.5087C9.8699 17.6419 10.0557 17.7163 10.2489 17.7163C10.4421 17.7163 10.6279 17.6419 10.7676 17.5087C10.9074 17.3754 10.9904 17.1935 10.9994 17.0007C11.0001 16.5957 11.1462 16.2045 11.4112 15.8981C11.6761 15.5917 12.0423 15.3904 12.4432 15.3309C14.0955 15.2079 15.6782 14.6161 17.0054 13.6252C18.3325 14.6161 19.9153 15.2079 21.5676 15.3309C21.9685 15.3904 22.3347 15.5917 22.5996 15.8981C22.8646 16.2045 23.0107 16.5957 23.0113 17.0007C23.0204 17.1935 23.1034 17.3754 23.2431 17.5087C23.3829 17.6419 23.5687 17.7163 23.7619 17.7163C23.9551 17.7163 24.1409 17.6419 24.2806 17.5087C24.4204 17.3754 24.5034 17.1935 24.5124 17.0007C24.5077 16.8992 24.5236 16.7979 24.5592 16.7028C24.5947 16.6077 24.6493 16.5208 24.7194 16.4474C24.7896 16.3739 24.8739 16.3155 24.9674 16.2755C25.0608 16.2356 25.1613 16.215 25.263 16.215C25.3646 16.215 25.4652 16.2356 25.5586 16.2755C25.652 16.3155 25.7364 16.3739 25.8065 16.4474C25.8767 16.5208 25.9312 16.6077 25.9668 16.7028C26.0024 16.7979 26.0183 16.8992 26.0135 17.0007V19.251C26.0131 19.6486 25.8548 20.0298 25.5734 20.3109C25.292 20.5921 24.9104 20.7502 24.5124 20.7507C24.3134 20.7507 24.1226 20.8295 23.9817 20.9699C23.8409 21.1104 23.7615 21.3009 23.7611 21.4997C23.7611 23.2897 23.0493 25.0064 21.7824 26.2722C20.5154 27.5379 18.7971 28.249 17.0054 28.249C15.2137 28.249 13.4953 27.5379 12.2284 26.2722C10.9615 25.0064 10.2497 23.2897 10.2497 21.4997ZM17.0005 29.7454C17.5041 29.7445 18.0065 29.6974 18.5016 29.6048V31.2402C18.5016 31.6379 18.3434 32.0194 18.0619 32.3006C17.7804 32.5819 17.3986 32.7399 17.0005 32.7399C16.6024 32.7399 16.2206 32.5819 15.939 32.3006C15.6575 32.0194 15.4994 31.6379 15.4994 31.2402V29.6048C15.9944 29.6974 16.4969 29.7445 17.0005 29.7454ZM6.49126 46.999V39.5007C6.4904 38.5165 6.68361 37.5417 7.05985 36.6322C7.43609 35.7226 7.988 34.8959 8.68405 34.1995C9.38011 33.503 10.2067 32.9504 11.1165 32.5731C12.0264 32.1958 13.0017 32.0013 13.9869 32.0007H14.0982C14.2615 32.6442 14.635 33.2149 15.1594 33.6226C15.6839 34.0303 16.3294 34.2516 16.9939 34.2516C17.6584 34.2516 18.304 34.0303 18.8284 33.6226C19.3529 33.2149 19.7263 32.6442 19.8897 32.0007H19.9961C21.7542 31.999 23.4568 32.6156 24.8054 33.7424L27.0088 44.7503H26.0021C25.6039 44.7503 25.2221 44.9083 24.9406 45.1896C24.6591 45.4708 24.501 45.8523 24.501 46.25C24.5041 47.064 24.7744 47.8545 25.2703 48.5003H7.99234C7.79508 48.5003 7.59975 48.4615 7.41752 48.386C7.2353 48.3105 7.06975 48.1999 6.93034 48.0605C6.79093 47.9211 6.6804 47.7556 6.60505 47.5734C6.52971 47.3913 6.49105 47.1961 6.49126 46.999ZM46.2773 48.5003H28.261C27.6637 48.5003 27.0907 48.2632 26.6683 47.8412C26.2459 47.4192 26.0086 46.8468 26.0086 46.25H48.5297C48.5297 46.8468 48.2924 47.4192 47.87 47.8412C47.4476 48.2632 46.8747 48.5003 46.2773 48.5003Z" fill="#143274"/>
<path d="M20.6034 24.1997C20.6675 24.1213 20.715 24.0308 20.7432 23.9336C20.7714 23.8364 20.7795 23.7344 20.7673 23.634C20.755 23.5335 20.7225 23.4366 20.6718 23.349C20.621 23.2613 20.5531 23.1849 20.472 23.1242C20.3909 23.0635 20.2984 23.0198 20.2 22.9958C20.1016 22.9717 19.9993 22.9678 19.8994 22.9842C19.7994 23.0007 19.7038 23.0372 19.6183 23.0915C19.5328 23.1458 19.4592 23.2168 19.4019 23.3003C19.1223 23.673 18.7596 23.9755 18.3426 24.1838C17.9257 24.3922 17.4659 24.5007 16.9997 24.5007C16.5334 24.5007 16.0736 24.3922 15.6567 24.1838C15.2397 23.9755 14.8771 23.673 14.5974 23.3003C14.5383 23.2215 14.4643 23.1552 14.3795 23.1051C14.2947 23.055 14.2009 23.0221 14.1034 23.0082C14.0059 22.9943 13.9066 22.9997 13.8112 23.0241C13.7158 23.0486 13.6261 23.0916 13.5473 23.1506C13.4685 23.2097 13.4022 23.2837 13.352 23.3684C13.3018 23.453 13.2689 23.5468 13.255 23.6442C13.241 23.7416 13.2465 23.8408 13.2709 23.9361C13.2954 24.0315 13.3384 24.121 13.3975 24.1997C13.8167 24.7586 14.3603 25.2122 14.9854 25.5247C15.6105 25.8371 16.2999 25.9998 16.9988 25.9998C17.6978 25.9998 18.3872 25.8371 19.0123 25.5247C19.6374 25.2122 20.181 24.7586 20.6001 24.1997H20.6034Z" fill="#143274"/>
<path d="M41.3141 35.8275C41.1275 35.8275 40.9654 35.8275 40.805 35.8275C40.7461 35.8342 40.6866 35.8248 40.6327 35.8003C40.5788 35.7758 40.5325 35.7372 40.4989 35.6885C40.3789 35.5376 40.2252 35.4168 40.0501 35.3359C39.875 35.2549 39.6833 35.2161 39.4905 35.2224C38.0713 35.2224 36.6537 35.2224 35.2344 35.2224C35.0647 35.2162 34.8955 35.2451 34.7374 35.3072C34.5792 35.3693 34.4356 35.4632 34.3155 35.5832C34.1954 35.7033 34.1013 35.8467 34.0392 36.0047C33.977 36.1626 33.9482 36.3317 33.9543 36.5013C33.9537 36.6656 33.9866 36.8283 34.0509 36.9795C34.1152 37.1307 34.2097 37.2672 34.3285 37.3807C34.4474 37.4942 34.5881 37.5824 34.7422 37.6398C34.8962 37.6973 35.0604 37.7228 35.2246 37.7148C36.6422 37.7148 38.0615 37.7148 39.4807 37.7148C39.6727 37.7223 39.8639 37.6864 40.0402 37.61C40.2164 37.5336 40.3732 37.4185 40.4989 37.2732C40.7346 37.0099 41.0276 37.2094 41.3026 37.1309C41.1818 37.4865 40.9548 37.7964 40.6521 38.019C40.3494 38.2415 39.9857 38.366 39.61 38.3755C38.1106 38.3755 36.6111 38.3755 35.1117 38.3755C34.659 38.3554 34.2281 38.1759 33.8952 37.8688C33.5623 37.5617 33.349 37.1468 33.293 36.6976C33.2145 35.6918 33.8398 34.8021 34.7663 34.6173C34.9747 34.5745 35.187 34.5536 35.3998 34.5552C36.7666 34.5552 38.1335 34.5552 39.502 34.5552C39.8997 34.5494 40.289 34.6694 40.6145 34.8979C40.9399 35.1264 41.1847 35.4517 41.3141 35.8275Z" fill="#143274"/>
<path d="M33.5582 37.8096C33.7219 37.9503 33.8561 38.0778 34.0035 38.1809C34.1508 38.2839 34.0591 38.3444 34.0329 38.4425C33.8398 39.1114 33.6302 39.7787 33.6597 40.4852C33.6712 40.755 33.6957 41.0396 33.9969 41.177C34.0412 41.2026 34.0904 41.2188 34.1413 41.2244C34.1922 41.23 34.2437 41.2249 34.2925 41.2096C34.3413 41.1942 34.3864 41.1688 34.4248 41.135C34.4633 41.1012 34.4943 41.0598 34.5158 41.0134C34.6582 40.7697 34.7859 40.5228 34.9071 40.2628C35.2525 39.5481 35.7092 38.9364 36.5211 38.732C37.8978 38.3869 39.1058 38.732 39.7737 40.0681C39.9178 40.3576 40.0553 40.6487 40.2108 40.9333C40.2975 41.0968 40.4105 41.2522 40.6298 41.2195C40.7413 41.2061 40.8453 41.1567 40.926 41.0787C41.0067 41.0008 41.0596 40.8986 41.0767 40.7877C41.2175 40.2039 41.0407 39.6429 40.931 39.0853C40.9163 39.0068 40.8901 38.9299 40.8688 38.853C40.6937 38.2414 40.6937 38.2414 41.229 37.8178C41.5563 38.8121 41.8837 39.7885 41.738 40.8499C41.7124 41.0876 41.6128 41.3113 41.4534 41.4896C41.294 41.668 41.0827 41.792 40.8492 41.8442C40.3155 41.9538 39.9603 41.8 39.6575 41.2914C39.4627 40.9644 39.3055 40.6127 39.132 40.2726C38.7719 39.5661 38.1744 39.2668 37.4018 39.2652C36.6291 39.2635 36.0104 39.5595 35.6453 40.2791C35.4816 40.6062 35.3294 40.9333 35.1542 41.2489C34.8481 41.7821 34.4995 41.9489 33.9576 41.8458C33.4665 41.7542 33.1506 41.3912 33.0508 40.8401C32.8871 39.9717 33.1588 39.1621 33.3781 38.3461C33.4223 38.1727 33.4911 38.0043 33.5582 37.8096Z" fill="#143274"/>
<path d="M36.0742 36.4604C36.1151 36.673 36.0349 36.7744 35.8156 36.7384C35.6437 36.7106 35.57 36.7826 35.5978 36.956C35.6257 37.1293 35.5291 37.1947 35.3523 37.1931C35.1755 37.1915 35.0495 37.1702 35.0871 36.9494C35.1182 36.7663 35.0216 36.7139 34.8596 36.7384C34.6533 36.7712 34.6075 36.673 34.6042 36.4817C34.6009 36.2903 34.6697 36.202 34.8661 36.2298C35.0626 36.2576 35.11 36.171 35.0871 36.0041C35.0544 35.7801 35.1837 35.7703 35.3572 35.7654C35.5307 35.7605 35.6306 35.8095 35.5978 36.0025C35.5651 36.1955 35.6617 36.2527 35.8385 36.2298C36.0153 36.2069 36.1217 36.2593 36.0742 36.4604Z" fill="#143274"/>
<path d="M39.0469 36.691H39.5003L39.5511 36.7368C39.54 36.795 39.5345 36.8542 39.5347 36.9134C39.5511 37.1064 39.4954 37.1996 39.2744 37.1996C39.0534 37.1996 38.9929 37.108 39.0158 36.9118C39.019 36.8524 39.019 36.7929 39.0158 36.7335C39.0251 36.7186 39.0355 36.7044 39.0469 36.691Z" fill="#143274"/>
<path d="M39.0469 36.691C39.0351 36.7028 39.0242 36.7154 39.0142 36.7286C38.8177 36.7057 38.5231 36.8807 38.5231 36.4621C38.5231 36.2674 38.6131 36.2249 38.7817 36.2266C38.9503 36.2282 39.0633 36.2511 39.0485 36.4523C39.0485 36.5324 39.0502 36.6142 39.0469 36.691Z" fill="#143274"/>
<path d="M39.4856 36.2625C39.3956 36.2625 39.3039 36.2511 39.2155 36.2625C39.0158 36.2773 39.0207 36.1464 39.0142 36.0074C39.0076 35.8684 39.0567 35.7572 39.2351 35.7752C39.3645 35.7883 39.5363 35.7229 39.5331 35.9567C39.5469 36.069 39.527 36.1829 39.4758 36.2838L39.4856 36.2625Z" fill="#143274"/>
<path d="M39.5511 36.7319L39.5003 36.6861C39.5003 36.5455 39.4921 36.4032 39.4872 36.2625L39.4758 36.2724C39.5543 36.2593 39.6395 36.2396 39.7115 36.2315C39.8948 36.2102 40.016 36.2429 40.016 36.48C40.016 36.7172 39.9341 36.7695 39.7311 36.7417C39.6706 36.7335 39.61 36.7352 39.5511 36.7319Z" fill="#143274"/>
</svg>
