<svg width="804" height="106" viewBox="0 0 804 106" fill="none" xmlns="http://www.w3.org/2000/svg">
<path d="M25.6 48.0654V38.5934H40.064C42.5387 38.5934 44.6293 38.2094 46.336 37.4414C48.128 36.6734 49.4933 35.6067 50.432 34.2414C51.3707 32.7907 51.84 31.0414 51.84 28.9934C51.84 25.9214 50.816 23.6174 48.768 22.0814C46.72 20.5454 43.8187 19.7774 40.064 19.7774H31.104V75.8414H42.112C44.928 75.8414 47.4453 75.5 49.664 74.8174C51.8827 74.0494 53.632 72.8547 54.912 71.2334C56.2773 69.5267 56.96 67.2227 56.96 64.3214C56.96 62.444 56.576 60.8227 55.808 59.4574C55.04 58.092 53.9733 56.9827 52.608 56.1294C51.2427 55.276 49.664 54.6787 47.872 54.3374C46.1653 53.9107 44.2453 53.6974 42.112 53.6974H25.6V41.9214H44.544C48.896 41.9214 53.12 42.3907 57.216 43.3294C61.312 44.268 65.024 45.804 68.352 47.9374C71.68 49.9854 74.3253 52.6307 76.288 55.8734C78.336 59.0307 79.36 62.8707 79.36 67.3934C79.36 73.3667 77.9093 78.188 75.008 81.8574C72.192 85.5267 68.1813 88.2574 62.976 90.0494C57.7707 91.756 51.6267 92.6094 44.544 92.6094H9.472V3.00937H42.368C48.5973 3.00937 54.0587 3.8627 58.752 5.56937C63.5307 7.19071 67.2853 9.70804 70.016 13.1214C72.832 16.4494 74.24 20.6734 74.24 25.7934C74.24 30.4867 72.832 34.4974 70.016 37.8254C67.2853 41.1534 63.5307 43.7134 58.752 45.5054C54.0587 47.212 48.5973 48.0654 42.368 48.0654H25.6ZM122.504 93.8894C115.677 93.8894 109.747 92.652 104.712 90.1774C99.7627 87.6174 95.9227 84.0334 93.192 79.4254C90.4613 74.8174 89.096 69.3987 89.096 63.1694C89.096 56.8547 90.4187 51.3934 93.064 46.7854C95.7093 42.1774 99.5067 38.636 104.456 36.1614C109.491 33.6867 115.421 32.4494 122.248 32.4494C129.075 32.4494 134.835 33.644 139.528 36.0334C144.221 38.3374 147.805 41.708 150.28 46.1454C152.755 50.5827 153.992 55.9587 153.992 62.2734C153.992 63.212 153.992 64.1507 153.992 65.0894C153.992 65.9427 153.907 66.668 153.736 67.2654H99.976V56.5134H136.328L131.72 62.4014C132.147 61.804 132.488 61.0787 132.744 60.2254C133.085 59.2867 133.256 58.5187 133.256 57.9214C133.256 55.3614 132.787 53.1427 131.848 51.2654C130.909 49.388 129.587 47.9374 127.88 46.9134C126.173 45.8894 124.168 45.3774 121.864 45.3774C118.963 45.3774 116.531 46.0174 114.568 47.2974C112.605 48.5774 111.112 50.54 110.088 53.1854C109.149 55.7454 108.637 58.988 108.552 62.9134C108.552 66.4974 109.064 69.5694 110.088 72.1294C111.112 74.6894 112.648 76.652 114.696 78.0174C116.744 79.2974 119.261 79.9374 122.248 79.9374C125.661 79.9374 128.563 79.2974 130.952 78.0174C133.427 76.7374 135.389 74.8174 136.84 72.2574L154.12 76.4814C151.048 82.284 146.867 86.636 141.576 89.5374C136.371 92.4387 130.013 93.8894 122.504 93.8894ZM169.127 71.2334C172.114 73.708 174.802 75.6707 177.191 77.1214C179.666 78.4867 181.842 79.468 183.719 80.0654C185.596 80.5774 187.218 80.8334 188.583 80.8334C190.546 80.8334 191.996 80.4067 192.935 79.5534C193.874 78.7 194.343 77.5907 194.343 76.2254C194.343 74.9454 193.959 73.8787 193.191 73.0254C192.423 72.0867 191.1 71.1907 189.223 70.3374C187.431 69.484 184.956 68.588 181.799 67.6494C178.983 66.6254 176.295 65.4307 173.735 64.0654C171.26 62.6147 169.212 60.6947 167.591 58.3054C165.97 55.916 165.159 52.844 165.159 49.0894C165.159 45.5054 166.098 42.476 167.975 40.0014C169.938 37.5267 172.54 35.6494 175.783 34.3694C179.111 33.0894 182.908 32.4494 187.175 32.4494C190.588 32.4494 193.746 32.8334 196.647 33.6014C199.634 34.3694 202.407 35.3934 204.967 36.6734C207.612 37.9534 210.087 39.4467 212.391 41.1534L205.479 53.6974C203.004 51.3934 200.188 49.516 197.031 48.0654C193.874 46.5294 190.972 45.7614 188.327 45.7614C186.535 45.7614 185.17 46.1027 184.231 46.7854C183.378 47.468 182.951 48.364 182.951 49.4734C182.951 50.7534 183.463 51.82 184.487 52.6734C185.596 53.5267 187.132 54.3374 189.095 55.1054C191.143 55.788 193.618 56.684 196.519 57.7934C199.591 58.9027 202.407 60.1827 204.967 61.6334C207.612 63.084 209.703 64.9187 211.239 67.1374C212.86 69.356 213.671 72.3 213.671 75.9694C213.671 82.284 211.708 87.0627 207.783 90.3054C203.943 93.4627 198.524 95.0414 191.527 95.0414C187.26 95.0414 183.292 94.5294 179.623 93.5054C176.039 92.5667 172.711 91.2867 169.639 89.6654C166.567 87.9587 163.708 86.0814 161.063 84.0334L169.127 71.2334ZM217.39 33.7294H256.814V49.7294H217.39V33.7294ZM227.758 13.2494H246.318V92.6094H227.758V13.2494ZM315.203 61.1214C316.995 64.364 319 67.18 321.219 69.5694C323.523 71.9587 325.998 73.7934 328.643 75.0734C331.374 76.3534 334.232 76.9934 337.219 76.9934C340.376 76.9934 342.979 76.2254 345.027 74.6894C347.075 73.068 348.099 70.892 348.099 68.1614C348.099 65.8574 347.502 64.0227 346.307 62.6574C345.112 61.2067 343.192 59.8414 340.547 58.5614C337.902 57.2814 334.403 55.8307 330.051 54.2094C327.918 53.4414 325.443 52.3747 322.627 51.0094C319.896 49.644 317.294 47.8947 314.819 45.7614C312.344 43.5427 310.296 40.8974 308.675 37.8254C307.054 34.668 306.243 30.8707 306.243 26.4334C306.243 21.1427 307.608 16.5774 310.339 12.7374C313.155 8.89737 316.91 5.99604 321.603 4.03337C326.382 1.98537 331.672 0.961372 337.475 0.961372C343.448 0.961372 348.611 1.94271 352.963 3.90537C357.4 5.86804 361.07 8.3427 363.971 11.3294C366.872 14.316 369.091 17.3454 370.627 20.4174L354.115 29.6334C352.835 27.5 351.342 25.6654 349.635 24.1294C348.014 22.508 346.179 21.2707 344.131 20.4174C342.168 19.4787 340.035 19.0094 337.731 19.0094C334.659 19.0094 332.312 19.692 330.691 21.0574C329.07 22.3374 328.259 23.9587 328.259 25.9214C328.259 27.9694 329.027 29.7614 330.563 31.2974C332.184 32.8334 334.446 34.2414 337.347 35.5214C340.334 36.8014 343.918 38.1667 348.099 39.6174C351.256 40.812 354.2 42.22 356.931 43.8414C359.662 45.3774 362.051 47.2547 364.099 49.4734C366.232 51.692 367.896 54.252 369.091 57.1534C370.286 60.0547 370.883 63.3827 370.883 67.1374C370.883 71.66 369.944 75.7134 368.067 79.2974C366.275 82.796 363.8 85.74 360.643 88.1294C357.571 90.5187 354.03 92.3107 350.019 93.5054C346.094 94.7854 342.04 95.4254 337.859 95.4254C332.056 95.4254 326.638 94.4014 321.603 92.3534C316.654 90.22 312.344 87.3614 308.675 83.7774C305.006 80.1934 302.147 76.268 300.099 72.0014L315.203 61.1214ZM413.379 93.8894C406.552 93.8894 400.622 92.652 395.587 90.1774C390.638 87.6174 386.798 84.0334 384.067 79.4254C381.336 74.8174 379.971 69.3987 379.971 63.1694C379.971 56.8547 381.294 51.3934 383.939 46.7854C386.584 42.1774 390.382 38.636 395.331 36.1614C400.366 33.6867 406.296 32.4494 413.123 32.4494C419.95 32.4494 425.71 33.644 430.403 36.0334C435.096 38.3374 438.68 41.708 441.155 46.1454C443.63 50.5827 444.867 55.9587 444.867 62.2734C444.867 63.212 444.867 64.1507 444.867 65.0894C444.867 65.9427 444.782 66.668 444.611 67.2654H390.851V56.5134H427.203L422.595 62.4014C423.022 61.804 423.363 61.0787 423.619 60.2254C423.96 59.2867 424.131 58.5187 424.131 57.9214C424.131 55.3614 423.662 53.1427 422.723 51.2654C421.784 49.388 420.462 47.9374 418.755 46.9134C417.048 45.8894 415.043 45.3774 412.739 45.3774C409.838 45.3774 407.406 46.0174 405.443 47.2974C403.48 48.5774 401.987 50.54 400.963 53.1854C400.024 55.7454 399.512 58.988 399.427 62.9134C399.427 66.4974 399.939 69.5694 400.963 72.1294C401.987 74.6894 403.523 76.652 405.571 78.0174C407.619 79.2974 410.136 79.9374 413.123 79.9374C416.536 79.9374 419.438 79.2974 421.827 78.0174C424.302 76.7374 426.264 74.8174 427.715 72.2574L444.995 76.4814C441.923 82.284 437.742 86.636 432.451 89.5374C427.246 92.4387 420.888 93.8894 413.379 93.8894ZM475.874 33.7294V92.6094H456.802V33.7294H475.874ZM492.898 53.6974C491.874 52.6734 490.765 51.8627 489.57 51.2654C488.461 50.668 487.053 50.3694 485.346 50.3694C483.469 50.3694 481.805 50.8814 480.354 51.9054C478.903 52.9294 477.794 54.4227 477.026 56.3854C476.258 58.348 475.874 60.7374 475.874 63.5534L471.266 56.7694C471.266 52.076 472.162 47.8947 473.954 44.2254C475.831 40.556 478.263 37.6547 481.25 35.5214C484.237 33.388 487.351 32.3214 490.594 32.3214C492.727 32.3214 494.775 32.748 496.738 33.6014C498.701 34.4547 500.194 35.6494 501.218 37.1854L492.898 53.6974ZM505.366 33.7294H525.974L539.542 66.3694L552.982 33.7294H573.59L539.542 99.5214L505.366 33.7294ZM579.65 11.5854C579.65 8.51337 580.759 6.0387 582.978 4.16137C585.197 2.1987 587.842 1.21737 590.914 1.21737C594.071 1.21737 596.717 2.1987 598.85 4.16137C601.069 6.0387 602.178 8.51337 602.178 11.5854C602.178 14.6574 601.069 17.1747 598.85 19.1374C596.717 21.1 594.071 22.0814 590.914 22.0814C587.842 22.0814 585.197 21.1 582.978 19.1374C580.759 17.1747 579.65 14.6574 579.65 11.5854ZM581.57 33.7294H600.258V92.6094H581.57V33.7294ZM632.433 63.1694C632.433 66.3267 633.116 69.0574 634.481 71.3614C635.846 73.58 637.724 75.3294 640.113 76.6094C642.588 77.8894 645.233 78.5294 648.049 78.5294C650.438 78.5294 652.7 78.188 654.833 77.5054C657.052 76.7374 659.057 75.7134 660.849 74.4334C662.726 73.1534 664.262 71.5747 665.457 69.6974V88.5134C663.409 90.1347 660.849 91.4574 657.777 92.4814C654.705 93.42 650.95 93.8894 646.513 93.8894C640.028 93.8894 634.182 92.6094 628.977 90.0494C623.857 87.4894 619.804 83.9054 616.817 79.2974C613.916 74.6894 612.465 69.3134 612.465 63.1694C612.465 56.94 613.916 51.564 616.817 47.0414C619.804 42.4334 623.857 38.8494 628.977 36.2894C634.182 33.7294 640.028 32.4494 646.513 32.4494C650.95 32.4494 654.705 32.9614 657.777 33.9854C660.849 34.924 663.409 36.1187 665.457 37.5694V56.5134C664.262 54.636 662.684 53.0574 660.721 51.7774C658.844 50.4974 656.796 49.516 654.577 48.8334C652.358 48.1507 650.182 47.8094 648.049 47.8094C645.233 47.8094 642.588 48.492 640.113 49.8574C637.724 51.2227 635.846 53.0574 634.481 55.3614C633.116 57.6654 632.433 60.268 632.433 63.1694ZM709.379 93.8894C702.552 93.8894 696.622 92.652 691.587 90.1774C686.638 87.6174 682.798 84.0334 680.067 79.4254C677.336 74.8174 675.971 69.3987 675.971 63.1694C675.971 56.8547 677.294 51.3934 679.939 46.7854C682.584 42.1774 686.382 38.636 691.331 36.1614C696.366 33.6867 702.296 32.4494 709.123 32.4494C715.95 32.4494 721.71 33.644 726.403 36.0334C731.096 38.3374 734.68 41.708 737.155 46.1454C739.63 50.5827 740.867 55.9587 740.867 62.2734C740.867 63.212 740.867 64.1507 740.867 65.0894C740.867 65.9427 740.782 66.668 740.611 67.2654H686.851V56.5134H723.203L718.595 62.4014C719.022 61.804 719.363 61.0787 719.619 60.2254C719.96 59.2867 720.131 58.5187 720.131 57.9214C720.131 55.3614 719.662 53.1427 718.723 51.2654C717.784 49.388 716.462 47.9374 714.755 46.9134C713.048 45.8894 711.043 45.3774 708.739 45.3774C705.838 45.3774 703.406 46.0174 701.443 47.2974C699.48 48.5774 697.987 50.54 696.963 53.1854C696.024 55.7454 695.512 58.988 695.427 62.9134C695.427 66.4974 695.939 69.5694 696.963 72.1294C697.987 74.6894 699.523 76.652 701.571 78.0174C703.619 79.2974 706.136 79.9374 709.123 79.9374C712.536 79.9374 715.438 79.2974 717.827 78.0174C720.302 76.7374 722.264 74.8174 723.715 72.2574L740.995 76.4814C737.923 82.284 733.742 86.636 728.451 89.5374C723.246 92.4387 716.888 93.8894 709.379 93.8894ZM756.002 71.2334C758.989 73.708 761.677 75.6707 764.066 77.1214C766.541 78.4867 768.717 79.468 770.594 80.0654C772.471 80.5774 774.093 80.8334 775.458 80.8334C777.421 80.8334 778.871 80.4067 779.81 79.5534C780.749 78.7 781.218 77.5907 781.218 76.2254C781.218 74.9454 780.834 73.8787 780.066 73.0254C779.298 72.0867 777.975 71.1907 776.098 70.3374C774.306 69.484 771.831 68.588 768.674 67.6494C765.858 66.6254 763.17 65.4307 760.61 64.0654C758.135 62.6147 756.087 60.6947 754.466 58.3054C752.845 55.916 752.034 52.844 752.034 49.0894C752.034 45.5054 752.973 42.476 754.85 40.0014C756.813 37.5267 759.415 35.6494 762.658 34.3694C765.986 33.0894 769.783 32.4494 774.05 32.4494C777.463 32.4494 780.621 32.8334 783.522 33.6014C786.509 34.3694 789.282 35.3934 791.842 36.6734C794.487 37.9534 796.962 39.4467 799.266 41.1534L792.354 53.6974C789.879 51.3934 787.063 49.516 783.906 48.0654C780.749 46.5294 777.847 45.7614 775.202 45.7614C773.41 45.7614 772.045 46.1027 771.106 46.7854C770.253 47.468 769.826 48.364 769.826 49.4734C769.826 50.7534 770.338 51.82 771.362 52.6734C772.471 53.5267 774.007 54.3374 775.97 55.1054C778.018 55.788 780.493 56.684 783.394 57.7934C786.466 58.9027 789.282 60.1827 791.842 61.6334C794.487 63.084 796.578 64.9187 798.114 67.1374C799.735 69.356 800.546 72.3 800.546 75.9694C800.546 82.284 798.583 87.0627 794.658 90.3054C790.818 93.4627 785.399 95.0414 778.402 95.0414C774.135 95.0414 770.167 94.5294 766.498 93.5054C762.914 92.5667 759.586 91.2867 756.514 89.6654C753.442 87.9587 750.583 86.0814 747.938 84.0334L756.002 71.2334Z" fill="#F0F0F0"/>
<path d="M260.6 75.9054V72.3534H266.024C266.952 72.3534 267.736 72.2094 268.376 71.9214C269.048 71.6334 269.56 71.2334 269.912 70.7214C270.264 70.1774 270.44 69.5214 270.44 68.7534C270.44 67.6014 270.056 66.7374 269.288 66.1614C268.52 65.5854 267.432 65.2974 266.024 65.2974H262.664V86.3214H266.792C267.848 86.3214 268.792 86.1934 269.624 85.9374C270.456 85.6494 271.112 85.2014 271.592 84.5934C272.104 83.9534 272.36 83.0894 272.36 82.0014C272.36 81.2974 272.216 80.6894 271.928 80.1774C271.64 79.6654 271.24 79.2494 270.728 78.9294C270.216 78.6094 269.624 78.3854 268.952 78.2574C268.312 78.0974 267.592 78.0174 266.792 78.0174H260.6V73.6014H267.704C269.336 73.6014 270.92 73.7774 272.456 74.1294C273.992 74.4814 275.384 75.0574 276.632 75.8574C277.88 76.6254 278.872 77.6174 279.608 78.8334C280.376 80.0174 280.76 81.4574 280.76 83.1534C280.76 85.3934 280.216 87.2014 279.128 88.5774C278.072 89.9534 276.568 90.9774 274.616 91.6494C272.664 92.2894 270.36 92.6094 267.704 92.6094H254.552V59.0094H266.888C269.224 59.0094 271.272 59.3294 273.032 59.9694C274.824 60.5774 276.232 61.5214 277.256 62.8014C278.312 64.0494 278.84 65.6334 278.84 67.5534C278.84 69.3134 278.312 70.8174 277.256 72.0654C276.232 73.3134 274.824 74.2734 273.032 74.9454C271.272 75.5854 269.224 75.9054 266.888 75.9054H260.6ZM296.939 93.0894C294.379 93.0894 292.155 92.6254 290.267 91.6974C288.411 90.7374 286.971 89.3934 285.947 87.6654C284.923 85.9374 284.411 83.9054 284.411 81.5694C284.411 79.2014 284.907 77.1534 285.899 75.4254C286.891 73.6974 288.315 72.3694 290.171 71.4414C292.059 70.5134 294.283 70.0494 296.843 70.0494C299.403 70.0494 301.563 70.4974 303.323 71.3934C305.083 72.2574 306.427 73.5214 307.355 75.1854C308.283 76.8494 308.747 78.8654 308.747 81.2334C308.747 81.5854 308.747 81.9374 308.747 82.2894C308.747 82.6094 308.715 82.8814 308.651 83.1054H288.491V79.0734H302.123L300.395 81.2814C300.555 81.0574 300.683 80.7854 300.779 80.4654C300.907 80.1134 300.971 79.8254 300.971 79.6014C300.971 78.6414 300.795 77.8094 300.443 77.1054C300.091 76.4014 299.595 75.8574 298.955 75.4734C298.315 75.0894 297.563 74.8974 296.699 74.8974C295.611 74.8974 294.699 75.1374 293.963 75.6174C293.227 76.0974 292.667 76.8334 292.283 77.8254C291.931 78.7854 291.739 80.0014 291.707 81.4734C291.707 82.8174 291.899 83.9694 292.283 84.9294C292.667 85.8894 293.243 86.6254 294.011 87.1374C294.779 87.6174 295.723 87.8574 296.843 87.8574C298.123 87.8574 299.211 87.6174 300.107 87.1374C301.035 86.6574 301.771 85.9374 302.315 84.9774L308.795 86.5614C307.643 88.7374 306.075 90.3694 304.091 91.4574C302.139 92.5454 299.755 93.0894 296.939 93.0894ZM314.423 84.5934C315.543 85.5214 316.551 86.2574 317.447 86.8014C318.375 87.3134 319.191 87.6814 319.895 87.9054C320.599 88.0974 321.207 88.1934 321.719 88.1934C322.455 88.1934 322.999 88.0334 323.351 87.7134C323.703 87.3934 323.879 86.9774 323.879 86.4654C323.879 85.9854 323.735 85.5854 323.447 85.2654C323.159 84.9134 322.663 84.5774 321.959 84.2574C321.287 83.9374 320.359 83.6014 319.175 83.2494C318.119 82.8654 317.111 82.4174 316.151 81.9054C315.223 81.3614 314.455 80.6414 313.847 79.7454C313.239 78.8494 312.935 77.6974 312.935 76.2894C312.935 74.9454 313.287 73.8094 313.991 72.8814C314.727 71.9534 315.703 71.2494 316.919 70.7694C318.167 70.2894 319.591 70.0494 321.191 70.0494C322.471 70.0494 323.655 70.1934 324.743 70.4814C325.863 70.7694 326.903 71.1534 327.863 71.6334C328.855 72.1134 329.783 72.6734 330.647 73.3134L328.055 78.0174C327.127 77.1534 326.071 76.4494 324.887 75.9054C323.703 75.3294 322.615 75.0414 321.623 75.0414C320.951 75.0414 320.439 75.1694 320.087 75.4254C319.767 75.6814 319.607 76.0174 319.607 76.4334C319.607 76.9134 319.799 77.3134 320.183 77.6334C320.599 77.9534 321.175 78.2574 321.911 78.5454C322.679 78.8014 323.607 79.1374 324.695 79.5534C325.847 79.9694 326.903 80.4494 327.863 80.9934C328.855 81.5374 329.639 82.2254 330.215 83.0574C330.823 83.8894 331.127 84.9934 331.127 86.3694C331.127 88.7374 330.391 90.5294 328.919 91.7454C327.479 92.9294 325.447 93.5214 322.823 93.5214C321.223 93.5214 319.735 93.3294 318.359 92.9454C317.015 92.5934 315.767 92.1134 314.615 91.5054C313.463 90.8654 312.391 90.1614 311.399 89.3934L314.423 84.5934ZM332.521 70.5294H347.305V76.5294H332.521V70.5294ZM336.409 62.8494H343.369V92.6094H336.409V62.8494ZM369.201 80.8014C369.873 82.0174 370.625 83.0734 371.457 83.9694C372.321 84.8654 373.249 85.5534 374.241 86.0334C375.265 86.5134 376.337 86.7534 377.457 86.7534C378.641 86.7534 379.617 86.4654 380.385 85.8894C381.153 85.2814 381.537 84.4654 381.537 83.4414C381.537 82.5774 381.313 81.8894 380.865 81.3774C380.417 80.8334 379.697 80.3214 378.705 79.8414C377.713 79.3614 376.401 78.8174 374.769 78.2094C373.969 77.9214 373.041 77.5214 371.985 77.0094C370.961 76.4974 369.985 75.8414 369.057 75.0414C368.129 74.2094 367.361 73.2174 366.753 72.0654C366.145 70.8814 365.841 69.4574 365.841 67.7934C365.841 65.8094 366.353 64.0974 367.377 62.6574C368.433 61.2174 369.841 60.1294 371.601 59.3934C373.393 58.6254 375.377 58.2414 377.553 58.2414C379.793 58.2414 381.729 58.6094 383.361 59.3454C385.025 60.0814 386.401 61.0094 387.489 62.1294C388.577 63.2494 389.409 64.3854 389.985 65.5374L383.793 68.9934C383.313 68.1934 382.753 67.5054 382.113 66.9294C381.505 66.3214 380.817 65.8574 380.049 65.5374C379.313 65.1854 378.513 65.0094 377.649 65.0094C376.497 65.0094 375.617 65.2654 375.009 65.7774C374.401 66.2574 374.097 66.8654 374.097 67.6014C374.097 68.3694 374.385 69.0414 374.961 69.6174C375.569 70.1934 376.417 70.7214 377.505 71.2014C378.625 71.6814 379.969 72.1934 381.537 72.7374C382.721 73.1854 383.825 73.7134 384.849 74.3214C385.873 74.8974 386.769 75.6014 387.537 76.4334C388.337 77.2654 388.961 78.2254 389.409 79.3134C389.857 80.4014 390.081 81.6494 390.081 83.0574C390.081 84.7534 389.729 86.2734 389.025 87.6174C388.353 88.9294 387.425 90.0334 386.241 90.9294C385.089 91.8254 383.761 92.4974 382.257 92.9454C380.785 93.4254 379.265 93.6654 377.697 93.6654C375.521 93.6654 373.489 93.2814 371.601 92.5134C369.745 91.7134 368.129 90.6414 366.753 89.2974C365.377 87.9534 364.305 86.4814 363.537 84.8814L369.201 80.8014ZM406.017 93.0894C403.457 93.0894 401.233 92.6254 399.345 91.6974C397.489 90.7374 396.049 89.3934 395.025 87.6654C394.001 85.9374 393.489 83.9054 393.489 81.5694C393.489 79.2014 393.985 77.1534 394.977 75.4254C395.969 73.6974 397.393 72.3694 399.249 71.4414C401.137 70.5134 403.361 70.0494 405.921 70.0494C408.481 70.0494 410.641 70.4974 412.401 71.3934C414.161 72.2574 415.505 73.5214 416.433 75.1854C417.361 76.8494 417.825 78.8654 417.825 81.2334C417.825 81.5854 417.825 81.9374 417.825 82.2894C417.825 82.6094 417.793 82.8814 417.729 83.1054H397.569V79.0734H411.201L409.473 81.2814C409.633 81.0574 409.761 80.7854 409.857 80.4654C409.985 80.1134 410.049 79.8254 410.049 79.6014C410.049 78.6414 409.873 77.8094 409.521 77.1054C409.169 76.4014 408.673 75.8574 408.033 75.4734C407.393 75.0894 406.641 74.8974 405.777 74.8974C404.689 74.8974 403.777 75.1374 403.041 75.6174C402.305 76.0974 401.745 76.8334 401.361 77.8254C401.009 78.7854 400.817 80.0014 400.785 81.4734C400.785 82.8174 400.977 83.9694 401.361 84.9294C401.745 85.8894 402.321 86.6254 403.089 87.1374C403.857 87.6174 404.801 87.8574 405.921 87.8574C407.201 87.8574 408.289 87.6174 409.185 87.1374C410.113 86.6574 410.849 85.9374 411.393 84.9774L417.873 86.5614C416.721 88.7374 415.153 90.3694 413.169 91.4574C411.217 92.5454 408.833 93.0894 406.017 93.0894ZM429.453 70.5294V92.6094H422.301V70.5294H429.453ZM435.837 78.0174C435.453 77.6334 435.037 77.3294 434.589 77.1054C434.173 76.8814 433.645 76.7694 433.005 76.7694C432.301 76.7694 431.677 76.9614 431.133 77.3454C430.589 77.7294 430.173 78.2894 429.885 79.0254C429.597 79.7614 429.453 80.6574 429.453 81.7134L427.725 79.1694C427.725 77.4094 428.061 75.8414 428.733 74.4654C429.437 73.0894 430.349 72.0014 431.469 71.2014C432.589 70.4014 433.757 70.0014 434.973 70.0014C435.773 70.0014 436.541 70.1614 437.277 70.4814C438.013 70.8014 438.573 71.2494 438.957 71.8254L435.837 78.0174ZM440.512 70.5294H448.24L453.328 82.7694L458.368 70.5294H466.096L453.328 95.2014L440.512 70.5294ZM468.369 62.2254C468.369 61.0734 468.785 60.1454 469.617 59.4414C470.449 58.7054 471.441 58.3374 472.593 58.3374C473.777 58.3374 474.769 58.7054 475.569 59.4414C476.401 60.1454 476.817 61.0734 476.817 62.2254C476.817 63.3774 476.401 64.3214 475.569 65.0574C474.769 65.7934 473.777 66.1614 472.593 66.1614C471.441 66.1614 470.449 65.7934 469.617 65.0574C468.785 64.3214 468.369 63.3774 468.369 62.2254ZM469.089 70.5294H476.097V92.6094H469.089V70.5294ZM488.162 81.5694C488.162 82.7534 488.418 83.7774 488.93 84.6414C489.442 85.4734 490.146 86.1294 491.042 86.6094C491.97 87.0894 492.962 87.3294 494.018 87.3294C494.914 87.3294 495.762 87.2014 496.562 86.9454C497.394 86.6574 498.146 86.2734 498.818 85.7934C499.522 85.3134 500.098 84.7214 500.546 84.0174V91.0734C499.778 91.6814 498.818 92.1774 497.666 92.5614C496.514 92.9134 495.106 93.0894 493.442 93.0894C491.01 93.0894 488.818 92.6094 486.866 91.6494C484.946 90.6894 483.426 89.3454 482.306 87.6174C481.218 85.8894 480.674 83.8734 480.674 81.5694C480.674 79.2334 481.218 77.2174 482.306 75.5214C483.426 73.7934 484.946 72.4494 486.866 71.4894C488.818 70.5294 491.01 70.0494 493.442 70.0494C495.106 70.0494 496.514 70.2414 497.666 70.6254C498.818 70.9774 499.778 71.4254 500.546 71.9694V79.0734C500.098 78.3694 499.506 77.7774 498.77 77.2974C498.066 76.8174 497.298 76.4494 496.466 76.1934C495.634 75.9374 494.818 75.8094 494.018 75.8094C492.962 75.8094 491.97 76.0654 491.042 76.5774C490.146 77.0894 489.442 77.7774 488.93 78.6414C488.418 79.5054 488.162 80.4814 488.162 81.5694ZM517.017 93.0894C514.457 93.0894 512.233 92.6254 510.345 91.6974C508.489 90.7374 507.049 89.3934 506.025 87.6654C505.001 85.9374 504.489 83.9054 504.489 81.5694C504.489 79.2014 504.985 77.1534 505.977 75.4254C506.969 73.6974 508.393 72.3694 510.249 71.4414C512.137 70.5134 514.361 70.0494 516.921 70.0494C519.481 70.0494 521.641 70.4974 523.401 71.3934C525.161 72.2574 526.505 73.5214 527.433 75.1854C528.361 76.8494 528.825 78.8654 528.825 81.2334C528.825 81.5854 528.825 81.9374 528.825 82.2894C528.825 82.6094 528.793 82.8814 528.729 83.1054H508.569V79.0734H522.201L520.473 81.2814C520.633 81.0574 520.761 80.7854 520.857 80.4654C520.985 80.1134 521.049 79.8254 521.049 79.6014C521.049 78.6414 520.873 77.8094 520.521 77.1054C520.169 76.4014 519.673 75.8574 519.033 75.4734C518.393 75.0894 517.641 74.8974 516.777 74.8974C515.689 74.8974 514.777 75.1374 514.041 75.6174C513.305 76.0974 512.745 76.8334 512.361 77.8254C512.009 78.7854 511.817 80.0014 511.785 81.4734C511.785 82.8174 511.977 83.9694 512.361 84.9294C512.745 85.8894 513.321 86.6254 514.089 87.1374C514.857 87.6174 515.801 87.8574 516.921 87.8574C518.201 87.8574 519.289 87.6174 520.185 87.1374C521.113 86.6574 521.849 85.9374 522.393 84.9774L528.873 86.5614C527.721 88.7374 526.153 90.3694 524.169 91.4574C522.217 92.5454 519.833 93.0894 517.017 93.0894ZM534.501 84.5934C535.621 85.5214 536.629 86.2574 537.525 86.8014C538.453 87.3134 539.269 87.6814 539.973 87.9054C540.677 88.0974 541.285 88.1934 541.797 88.1934C542.533 88.1934 543.077 88.0334 543.429 87.7134C543.781 87.3934 543.957 86.9774 543.957 86.4654C543.957 85.9854 543.813 85.5854 543.525 85.2654C543.237 84.9134 542.741 84.5774 542.037 84.2574C541.365 83.9374 540.437 83.6014 539.253 83.2494C538.197 82.8654 537.189 82.4174 536.229 81.9054C535.301 81.3614 534.533 80.6414 533.925 79.7454C533.317 78.8494 533.013 77.6974 533.013 76.2894C533.013 74.9454 533.365 73.8094 534.069 72.8814C534.805 71.9534 535.781 71.2494 536.997 70.7694C538.245 70.2894 539.669 70.0494 541.269 70.0494C542.549 70.0494 543.733 70.1934 544.821 70.4814C545.941 70.7694 546.981 71.1534 547.941 71.6334C548.933 72.1134 549.861 72.6734 550.725 73.3134L548.133 78.0174C547.205 77.1534 546.149 76.4494 544.965 75.9054C543.781 75.3294 542.693 75.0414 541.701 75.0414C541.029 75.0414 540.517 75.1694 540.165 75.4254C539.845 75.6814 539.685 76.0174 539.685 76.4334C539.685 76.9134 539.877 77.3134 540.261 77.6334C540.677 77.9534 541.253 78.2574 541.989 78.5454C542.757 78.8014 543.685 79.1374 544.773 79.5534C545.925 79.9694 546.981 80.4494 547.941 80.9934C548.933 81.5374 549.717 82.2254 550.293 83.0574C550.901 83.8894 551.205 84.9934 551.205 86.3694C551.205 88.7374 550.469 90.5294 548.997 91.7454C547.557 92.9294 545.525 93.5214 542.901 93.5214C541.301 93.5214 539.813 93.3294 538.437 92.9454C537.093 92.5934 535.845 92.1134 534.693 91.5054C533.541 90.8654 532.469 90.1614 531.477 89.3934L534.501 84.5934Z" fill="#143274"/>
</svg>
