<svg width="42" height="42" viewBox="0 0 42 42" fill="none" xmlns="http://www.w3.org/2000/svg">
<g id="Facebook">
<path id="Oval 10" opacity="0.1" fill-rule="evenodd" clip-rule="evenodd" d="M21.1804 40.6791C31.9972 40.6791 40.766 31.9103 40.766 21.0935C40.766 10.2766 31.9972 1.50781 21.1804 1.50781C10.3635 1.50781 1.59473 10.2766 1.59473 21.0935C1.59473 31.9103 10.3635 40.6791 21.1804 40.6791Z" stroke="#0A142F" stroke-width="1.67877"/>
<path id="Shape" d="M22.9634 16.0819H24.7635C24.9291 16.0819 25.0635 15.9553 25.0635 15.7992V14.103C25.0635 13.947 24.9291 13.8203 24.7635 13.8203H22.9634C21.1441 13.8203 19.6633 15.2152 19.6633 16.93V18.909H17.5632C17.3976 18.909 17.2632 19.0356 17.2632 19.1917V20.8879C17.2632 21.0439 17.3976 21.1706 17.5632 21.1706H19.6633V27.1073C19.6633 27.2634 19.7977 27.39 19.9633 27.39H21.7633C21.929 27.39 22.0634 27.2634 22.0634 27.1073V21.1706H24.1634C24.2924 21.1706 24.407 21.0926 24.4484 20.9772L25.0485 19.281C25.0791 19.1951 25.0635 19.1001 25.0071 19.026C24.9501 18.9525 24.8601 18.909 24.7635 18.909H22.0634V16.93C22.0634 16.4625 22.4672 16.0819 22.9634 16.0819Z" fill="#0A142F"/>
</g>
</svg>
