<svg width="51" height="51" viewBox="0 0 51 51" fill="none" xmlns="http://www.w3.org/2000/svg">
<path id="Vector" fill-rule="evenodd" clip-rule="evenodd" d="M50.5 20.2647C50.5 31.3354 41.5247 40.3107 30.454 40.3107C25.3998 40.3107 20.7812 38.4397 17.2558 35.3527L14.8128 37.7956L14.8182 41.5709L6.169 50.2188L0.5 44.5498L9.21866 35.8311L12.8363 35.9915L15.3661 33.463C12.1637 29.8127 10.4011 25.1206 10.4081 20.2647C10.4081 9.194 19.3833 0.21875 30.454 0.21875C41.5247 0.21875 50.5 9.194 50.5 20.2647ZM47.8272 20.2647C47.8272 29.8601 40.0494 37.6379 30.454 37.6379C20.8587 37.6379 13.0809 29.8601 13.0809 20.2647C13.0809 10.6694 20.8587 2.89155 30.454 2.89155C40.0494 2.89155 47.8272 10.6694 47.8272 20.2647ZM4.27933 44.5498L6.169 46.4394L12.1427 40.4657L12.1414 38.6375L10.2744 38.5533L4.27933 44.5498Z" fill="#444444"/>
</svg>
