<svg width="42" height="42" viewBox="0 0 42 42" fill="none" xmlns="http://www.w3.org/2000/svg">
<g id="Linkedin">
<path id="Oval 10 Copy 3" opacity="0.1" fill-rule="evenodd" clip-rule="evenodd" d="M21.2214 40.6791C32.0383 40.6791 40.8071 31.9103 40.8071 21.0935C40.8071 10.2766 32.0383 1.50781 21.2214 1.50781C10.4045 1.50781 1.63574 10.2766 1.63574 21.0935C1.63574 31.9103 10.4045 40.6791 21.2214 40.6791Z" stroke="#0A142F" stroke-width="1.67877"/>
<g id="Group 36">
<path id="Oval" d="M16.7263 17.141C17.6433 17.141 18.3866 16.3977 18.3866 15.4807C18.3866 14.5637 17.6433 13.8203 16.7263 13.8203C15.8093 13.8203 15.0659 14.5637 15.0659 15.4807C15.0659 16.3977 15.8093 17.141 16.7263 17.141Z" fill="#0A142F"/>
<path id="Shape" d="M18.1099 18.25H15.3426C15.1899 18.25 15.0659 18.374 15.0659 18.5267V26.8285C15.0659 26.9813 15.1899 27.1053 15.3426 27.1053H18.1099C18.2627 27.1053 18.3866 26.9813 18.3866 26.8285V18.5267C18.3866 18.374 18.2627 18.25 18.1099 18.25Z" fill="#0A142F"/>
<path id="Shape_2" d="M26.3563 17.7893C25.1736 17.3842 23.6942 17.7401 22.807 18.3782C22.7765 18.2592 22.6681 18.1707 22.5391 18.1707H19.7718C19.6191 18.1707 19.4951 18.2946 19.4951 18.4474V26.7492C19.4951 26.9019 19.6191 27.0259 19.7718 27.0259H22.5391C22.6919 27.0259 22.8158 26.9019 22.8158 26.7492V20.783C23.263 20.3978 23.8392 20.2749 24.3107 20.4753C24.7679 20.6684 25.0297 21.1399 25.0297 21.7681V26.7492C25.0297 26.9019 25.1536 27.0259 25.3064 27.0259H28.0736C28.2264 27.0259 28.3504 26.9019 28.3504 26.7492V21.2108C28.3188 18.9367 27.249 18.0949 26.3563 17.7893Z" fill="#0A142F"/>
</g>
</g>
</svg>
