<svg width="42" height="42" viewBox="0 0 42 42" fill="none" xmlns="http://www.w3.org/2000/svg">
<g id="Twitter">
<path id="Oval 10 Copy" opacity="0.1" fill-rule="evenodd" clip-rule="evenodd" d="M21.1394 40.6791C31.9562 40.6791 40.725 31.9103 40.725 21.0935C40.725 10.2766 31.9562 1.50781 21.1394 1.50781C10.3225 1.50781 1.55371 10.2766 1.55371 21.0935C1.55371 31.9103 10.3225 40.6791 21.1394 40.6791Z" stroke="#0A142F" stroke-width="1.67877"/>
<path id="Shape" d="M27.5414 17.4701C27.4505 17.3674 27.3039 17.3415 27.1837 17.4049C27.109 17.4443 26.9685 17.4959 26.8016 17.547C27.0121 17.2591 27.1814 16.9368 27.2561 16.6471C27.2884 16.5222 27.2412 16.3906 27.1383 16.3161C27.0354 16.2423 26.8985 16.2423 26.7956 16.3161C26.6336 16.4324 25.8513 16.7818 25.3568 16.895C24.2391 15.888 22.9384 15.7835 21.5862 16.5954C20.4871 17.2554 20.2479 18.5976 20.2945 19.4157C17.7786 19.1666 16.2148 17.7998 15.3345 16.6686C15.2729 16.5893 15.1736 16.5474 15.0803 16.5536C14.9823 16.561 14.8938 16.6169 14.8435 16.7037C14.4273 17.4264 14.3119 18.2254 14.511 19.0146C14.6199 19.4452 14.81 19.8247 15.0307 20.1323C14.9248 20.0788 14.8226 20.0117 14.7263 19.9318C14.6378 19.8567 14.514 19.8426 14.4094 19.8924C14.3053 19.9435 14.2389 20.0517 14.2389 20.1704C14.2389 21.5255 15.063 22.4297 15.8326 22.9021C15.7083 22.8868 15.5785 22.8585 15.4475 22.8172C15.3351 22.7822 15.2131 22.8172 15.1354 22.9083C15.0576 22.9987 15.0391 23.1279 15.0875 23.238C15.5199 24.2215 16.3392 24.8982 17.3528 25.1436C16.4678 25.6781 15.2831 25.9402 14.1982 25.8116C14.0577 25.7913 13.9238 25.883 13.8795 26.022C13.8352 26.161 13.8933 26.3135 14.017 26.3849C15.6628 27.3352 17.1507 27.6748 18.4364 27.6748C20.3077 27.6748 21.7519 26.9563 22.631 26.3554C25.001 24.7376 26.4781 21.8331 26.2724 19.2342C26.6521 18.9457 27.2202 18.4131 27.5725 17.8404C27.6454 17.7247 27.6323 17.5722 27.5414 17.4701Z" fill="#0A142F"/>
</g>
</svg>
