<svg width="115" height="105" viewBox="0 0 115 105" fill="none" xmlns="http://www.w3.org/2000/svg">
<path d="M100.193 79.3975C92.9946 85.1834 52.0658 104.452 41.0634 104.452C-30.9205 100.836 9.44188 8.88266 33.0937 1.90866C56.7456 -5.06534 52.4032 25.2587 68.8567 29.1331C82.0195 32.2327 94.8799 35.0567 98.9076 36.7787C127.385 50.2417 109.191 72.1653 100.193 79.3975Z" fill="#CA256D"/>
<path fill-rule="evenodd" clip-rule="evenodd" d="M28.6053 40.2581C28.6053 40.2841 28.6287 40.291 28.6573 40.2734C28.6869 40.255 28.697 40.2609 28.6808 40.2871C28.6652 40.3123 28.6005 40.3272 28.5369 40.3202C28.406 40.3058 28.185 40.4041 28.2353 40.4543C28.2535 40.4723 28.2481 40.4831 28.2234 40.4782C28.1085 40.455 28.0211 40.486 28.0211 40.5498C28.0211 40.5883 28.0009 40.6073 27.9762 40.592C27.9515 40.5768 27.9312 40.5976 27.9312 40.6385C27.9312 40.6793 27.891 40.7233 27.8418 40.7361C27.7927 40.7489 27.7636 40.7773 27.7771 40.7992C27.7907 40.8211 27.7736 40.8391 27.7392 40.8391C27.7048 40.8391 27.6497 40.8896 27.6167 40.9512C27.5836 41.013 27.5474 41.0544 27.5363 41.0432C27.4961 41.003 27.392 41.1493 27.392 41.2461C27.392 41.3004 27.3564 41.3777 27.3132 41.4176C27.2698 41.4576 27.2298 41.5609 27.2242 41.6472C27.2187 41.7335 27.1934 41.811 27.1681 41.8194C27.1041 41.8407 27.1041 80.7982 27.1681 80.8196C27.1934 80.828 27.2187 80.9055 27.2242 80.9918C27.2298 81.078 27.2698 81.1814 27.3132 81.2213C27.3564 81.2613 27.392 81.3385 27.392 81.3929C27.392 81.4897 27.4961 81.636 27.5363 81.5958C27.5474 81.5846 27.5836 81.626 27.6167 81.6877C27.6497 81.7494 27.7048 81.7999 27.7392 81.7999C27.7736 81.7999 27.7942 81.8151 27.785 81.8336C27.7757 81.8521 27.815 81.9121 27.8721 81.9668C27.9293 82.0215 27.9762 82.0529 27.9762 82.0367C27.9762 82.0206 28.0015 82.0399 28.0324 82.0797C28.1199 82.1926 28.3964 82.3284 28.5179 82.3183C28.5784 82.3134 28.6725 82.3361 28.7272 82.3689C28.8426 82.4381 59.1582 82.4376 59.3222 82.3683C59.3927 82.3385 59.3975 82.3409 59.3447 82.3788C59.2968 82.4133 59.2939 82.4276 59.3349 82.428C59.3665 82.4284 59.4034 82.4 59.4169 82.3649C59.4321 82.3255 59.483 82.3087 59.5504 82.3209C59.6239 82.3343 59.6593 82.3199 59.6593 82.2766C59.6593 82.2342 59.6903 82.2206 59.7511 82.2366C59.8138 82.2529 59.8387 82.2409 59.8297 82.1986C59.8225 82.1646 59.8469 82.1362 59.884 82.1354C59.9769 82.1336 60.648 81.4649 60.648 81.374C60.648 81.3336 60.6682 81.3131 60.6929 81.3283C60.7176 81.3436 60.7378 81.3145 60.7378 81.2637C60.7378 81.2128 60.7585 81.1711 60.7838 81.1711C60.8099 81.1711 60.8222 81.1022 60.8123 81.0128C60.7951 80.8561 60.8448 80.7589 60.8867 80.8677C60.8987 80.8987 60.911 78.4498 60.914 75.4258L60.9195 69.9276L61.0196 69.8584C61.0748 69.8203 61.2017 69.7076 61.3017 69.6078C61.4018 69.508 61.431 69.4718 61.3667 69.5274C61.1833 69.6858 61.1796 69.6458 61.3604 69.46C61.4506 69.3674 61.5344 69.3036 61.5468 69.3184C61.5591 69.3331 61.6154 69.2978 61.6719 69.2398C61.7284 69.1818 61.7525 69.1344 61.7255 69.1344C61.6984 69.1344 61.6882 69.1151 61.7028 69.0914C61.7174 69.0678 61.7624 69.0612 61.8027 69.0766C61.8518 69.0954 61.8653 69.0873 61.8436 69.0522C61.8239 69.0203 61.8398 68.9996 61.8838 68.9996C61.9238 68.9996 61.944 68.9794 61.9288 68.9547C61.9135 68.93 61.9234 68.9098 61.9507 68.9098C61.978 68.9098 62.0499 68.8602 62.1106 68.7996C62.2218 68.6884 62.2586 68.6117 62.1765 68.6625C62.151 68.6782 62.1435 68.6602 62.1588 68.6202C62.183 68.557 62.2349 68.5324 62.3189 68.5441C62.3723 68.5516 62.5821 68.2752 62.5556 68.2323C62.5416 68.2097 62.5616 68.1912 62.6002 68.1912C62.6387 68.1912 62.6703 68.1738 62.6703 68.1526C62.6703 68.1006 62.9691 67.7863 62.9945 67.8116C63.0255 67.8426 63.5242 67.3089 63.5242 67.2448C63.5242 67.2137 63.5364 67.2004 63.5515 67.2154C63.5871 67.251 63.7007 67.146 63.674 67.1021C63.6629 67.0835 63.6864 67.0684 63.7264 67.0684C63.7664 67.0684 63.7866 67.0482 63.7713 67.0235C63.7561 66.9988 63.7656 66.9786 63.7927 66.9786C63.8196 66.9786 63.9119 66.9085 63.9975 66.8228C64.1519 66.6687 64.2014 66.5842 64.1014 66.646C64.0691 66.666 64.0618 66.6583 64.0821 66.6254C64.1 66.5966 64.1315 66.5833 64.1523 66.5962C64.2067 66.6298 64.4293 66.3515 64.3939 66.2941C64.3775 66.2677 64.385 66.2589 64.4105 66.2747C64.4359 66.2904 64.5126 66.2228 64.5808 66.1244C64.649 66.0261 64.728 65.9455 64.7564 65.9455C64.8266 65.9455 65.2768 65.4854 65.2768 65.4138C65.2768 65.3822 65.2971 65.3689 65.3218 65.3841C65.3465 65.3994 65.3667 65.3792 65.3667 65.3392C65.3667 65.2992 65.3869 65.279 65.4117 65.2943C65.4364 65.3096 65.4566 65.2805 65.4566 65.2296C65.4566 65.1675 65.4857 65.1371 65.545 65.1371C65.6056 65.1371 65.6252 65.1157 65.6075 65.0692C65.5882 65.0188 65.6019 65.0092 65.6612 65.0319C65.7159 65.0529 65.7307 65.046 65.7085 65.01C65.6906 64.9811 65.698 64.9575 65.7251 64.9575C65.7731 64.9575 66.0858 64.668 66.0858 64.6235C66.0858 64.6111 66.0504 64.6123 66.0071 64.6262C65.943 64.6469 65.9405 64.643 65.9938 64.6053C66.0296 64.58 66.0728 64.5677 66.0898 64.5782C66.1068 64.5887 66.1778 64.5217 66.2477 64.4293C66.3174 64.3369 66.4007 64.2346 66.4325 64.2019C66.4642 64.1693 66.4902 64.1205 66.4902 64.0934C66.4902 64.0664 66.5036 64.0576 66.5199 64.0739C66.5363 64.0902 66.5733 64.0582 66.6022 64.0028C66.6312 63.9474 66.6797 63.9075 66.7101 63.9141C66.7882 63.9313 67.1166 63.5608 67.1188 63.4529C67.1204 63.3783 67.1282 63.3745 67.1643 63.4304C67.2013 63.4876 67.208 63.4854 67.2086 63.4165C67.2089 63.3718 67.2295 63.3478 67.2542 63.363C67.2924 63.3866 67.3193 63.3014 67.306 63.1992C67.304 63.1833 67.3429 63.1808 67.3925 63.1937C67.4538 63.2098 67.4785 63.1974 67.4696 63.1554C67.4624 63.1214 67.4811 63.0984 67.5111 63.1042C67.5447 63.1109 67.5547 63.0865 67.5371 63.0408C67.518 62.9912 67.5259 62.9772 67.5608 62.9988C67.632 63.0427 67.8384 62.8288 67.8384 62.7112C67.8384 62.6592 67.8536 62.6259 67.8722 62.637C67.8907 62.6482 67.9319 62.6293 67.9638 62.5948C67.9956 62.5603 68.0096 62.5321 67.9947 62.5321C67.9602 62.5321 68.209 62.0656 68.2542 62.0456C68.2727 62.0373 68.2879 62.0109 68.2879 61.9868C68.2879 61.9626 68.2676 61.9555 68.2429 61.9707C68.2182 61.986 68.198 61.9771 68.198 61.951C68.198 61.9248 68.2206 61.9034 68.2482 61.9034C68.2758 61.9034 68.2881 61.8639 68.2754 61.8157C68.2628 61.7674 68.28 61.6916 68.3137 61.6472C68.3846 61.5537 68.4005 61.3001 68.3328 61.3419C68.3081 61.3572 68.2879 61.337 68.2879 61.297C68.2879 61.2571 68.3081 61.2368 68.3328 61.2521C68.3575 61.2674 68.3777 61.2383 68.3777 61.1874C68.3777 61.1366 68.3575 61.0949 68.3328 61.0949C68.3081 61.0949 68.2879 61.0242 68.2879 60.9377C68.2879 60.8423 68.2658 60.7803 68.2317 60.7799C68.1936 60.7794 68.1972 60.7638 68.2429 60.7315C68.2937 60.6956 68.2964 60.6782 68.2542 60.6611C68.2233 60.6486 68.198 60.6096 68.198 60.5747C68.198 60.5397 68.1778 60.511 68.153 60.511C68.1283 60.511 68.1081 60.4719 68.1081 60.4239C68.1081 60.376 68.0879 60.3242 68.0632 60.3089C68.0384 60.2937 68.0182 60.2318 68.0182 60.1715C68.0182 60.1112 67.996 60.0619 67.9687 60.0619C67.9414 60.0619 67.7817 59.9204 67.6137 59.7475C67.4458 59.5746 67.2861 59.4331 67.2588 59.4331C67.2315 59.4331 67.2116 59.418 67.2146 59.3994C67.2287 59.31 67.2048 59.251 67.1643 59.2759C67.1396 59.2912 67.1194 59.2756 67.1194 59.2411C67.1194 59.2068 66.9585 59.0236 66.7619 58.8343C66.4211 58.506 66.3114 58.4226 66.3825 58.5461C66.4012 58.5787 66.3977 58.5865 66.3738 58.5648C66.3514 58.5442 66.332 58.5038 66.3309 58.475C66.3298 58.4462 66.3045 58.4276 66.2747 58.4338C66.245 58.44 66.2206 58.4135 66.2206 58.375C66.2206 58.3365 66.2025 58.3161 66.1804 58.3298C66.1582 58.3435 66.1286 58.3244 66.1143 58.2876C66.1002 58.2507 66.0564 58.2205 66.0171 58.2205C65.9778 58.2205 65.9581 58.2003 65.9734 58.1756C65.9887 58.1509 65.9584 58.1306 65.906 58.1306C65.8536 58.1306 65.8233 58.1104 65.8386 58.0857C65.8539 58.061 65.8349 58.0408 65.7964 58.0408C65.7578 58.0408 65.7262 58.0172 65.7262 57.9884C65.7262 57.9596 65.714 57.9483 65.6989 57.9632C65.684 57.9783 65.6298 57.9516 65.5787 57.9039C65.5276 57.8563 65.4185 57.8048 65.3364 57.7893C65.2541 57.7739 65.187 57.7434 65.187 57.7214C65.187 57.6995 65.1364 57.6815 65.0746 57.6815C65.0128 57.6815 64.9623 57.6613 64.9623 57.6366C64.9623 57.6119 64.9408 57.5917 64.9146 57.5917C64.8884 57.5917 64.8796 57.6119 64.8948 57.6366C64.9101 57.6613 64.8911 57.6815 64.8526 57.6815C64.8141 57.6815 64.7825 57.6664 64.7825 57.6478C64.7825 57.6293 64.6618 57.6122 64.5144 57.6098C64.367 57.6074 64.257 57.6226 64.2699 57.6434C64.2829 57.6644 64.2738 57.6815 64.2496 57.6815C64.2255 57.6815 64.1979 57.6582 64.1885 57.6298C64.1766 57.5939 64.1357 57.6012 64.0563 57.6532C63.9909 57.696 63.9075 57.7155 63.863 57.6985C63.8193 57.6816 63.7699 57.6924 63.7511 57.7228C63.7326 57.7528 63.684 57.7822 63.6434 57.7882C63.6027 57.7941 63.5276 57.8438 63.4766 57.8984C63.4257 57.9531 63.3648 57.986 63.3414 57.9717C63.318 57.9572 63.2868 57.9768 63.2719 58.0152C63.2572 58.0537 63.2274 58.0743 63.2058 58.0609C63.1671 58.037 62.7626 58.4114 62.7551 58.4782C62.753 58.497 62.733 58.5074 62.7107 58.5012C62.6885 58.495 62.6726 58.5051 62.6756 58.5236C62.6911 58.6212 62.6617 58.6696 62.5873 58.6696C62.4931 58.6696 62.0411 59.1484 62.0411 59.2482C62.0411 59.284 62.0289 59.3011 62.0138 59.2862C61.9782 59.2506 61.8646 59.3555 61.8912 59.3994C61.9024 59.418 61.8888 59.4331 61.8608 59.4331C61.7832 59.4331 61.6722 59.5612 61.7045 59.6136C61.7204 59.6391 61.714 59.6543 61.6904 59.6476C61.6415 59.6334 61.367 59.9052 61.367 59.9677C61.367 59.9904 61.3013 60.0617 61.221 60.1259C61.1406 60.1903 61.0483 60.2649 61.0158 60.2916C60.9167 60.3734 60.919 60.5733 60.914 51.0088C60.9114 45.8971 60.8993 41.7402 60.8872 41.7712C60.8447 41.8796 60.795 41.7832 60.8123 41.6262C60.8222 41.5368 60.8099 41.4678 60.7838 41.4678C60.7585 41.4678 60.7378 41.4262 60.7378 41.3753C60.7378 41.3245 60.7176 41.2954 60.6929 41.3106C60.6682 41.3259 60.648 41.3046 60.648 41.2631C60.648 41.2218 60.5064 41.0512 60.3334 40.884C60.1604 40.7168 60.0188 40.5574 60.0188 40.5298C60.0188 40.5023 59.9973 40.4797 59.9712 40.4797C59.945 40.4797 59.9361 40.5 59.9514 40.5247C59.9667 40.5494 59.9603 40.5696 59.9371 40.5696C59.8761 40.5696 59.7896 40.4543 59.8244 40.4195C59.8407 40.4032 59.8102 40.3899 59.7567 40.3899C59.7031 40.3899 59.6593 40.3693 59.6593 40.3441C59.6593 40.319 59.6103 40.3072 59.5504 40.3181C59.483 40.3303 59.4321 40.3135 59.4169 40.274C59.4034 40.239 59.3665 40.2106 59.3349 40.2109C59.2939 40.2114 59.2968 40.2256 59.3447 40.2601C59.3975 40.2981 59.3927 40.3004 59.3222 40.2707C59.1845 40.2125 28.6053 40.2 28.6053 40.2581ZM29.257 41.7373C29.2417 41.762 29.2506 41.7822 29.2768 41.7822C29.3029 41.7822 29.3244 41.762 29.3244 41.7373C29.3244 41.7074 34.2529 41.6924 44.02 41.6924C53.787 41.6924 58.7155 41.7074 58.7155 41.7373C58.7155 41.762 58.737 41.7822 58.7632 41.7822C58.7893 41.7822 58.7982 41.762 58.7829 41.7373C58.7676 41.7126 58.79 41.6924 58.8327 41.6924C58.8754 41.6924 58.8971 41.7055 58.881 41.7217C58.8487 41.7539 59.0527 41.8721 59.1408 41.8721C59.1713 41.8721 59.2338 41.963 59.2797 42.0742C59.3256 42.1853 59.3792 42.2763 59.3988 42.2763C59.4185 42.2763 59.4346 42.2977 59.4346 42.3239C59.4346 42.35 59.4143 42.3589 59.3896 42.3436C59.3649 42.3284 59.3447 42.3372 59.3447 42.3634C59.3447 42.3896 59.3649 42.411 59.3896 42.411C59.4194 42.411 59.4346 45.7114 59.4346 52.2223V62.0335L59.2777 62.1531C59.1914 62.2189 59.1339 62.2938 59.1499 62.3195C59.1663 62.3462 59.1572 62.3531 59.1287 62.3354C59.0683 62.2981 58.7055 62.6144 58.7417 62.6728C58.7557 62.6955 58.7403 62.7084 58.7077 62.7017C58.6748 62.6948 58.6536 62.7161 58.6605 62.7488C58.6672 62.7815 58.6547 62.7971 58.6327 62.7835C58.5785 62.75 58.43 62.9193 58.4646 62.9753C58.4798 62.9999 58.4686 63.0346 58.4397 63.0525C58.4046 63.0741 58.3991 63.0654 58.4234 63.0262C58.4474 62.9873 58.4422 62.9782 58.4079 62.9995C58.3794 63.0171 58.356 63.064 58.356 63.1037C58.356 63.1434 58.3426 63.1625 58.3263 63.1462C58.3099 63.1299 58.273 63.1619 58.244 63.2173C58.215 63.2728 58.1677 63.3131 58.1388 63.3069C58.1099 63.3007 58.0914 63.3139 58.0976 63.3361C58.1038 63.3583 58.0921 63.3772 58.0717 63.3781C58.0513 63.3789 57.996 63.4264 57.9489 63.4836C57.9019 63.5408 57.8439 63.6107 57.8202 63.6389C57.7966 63.6672 57.7894 63.7026 57.8045 63.7175C57.8194 63.7326 57.7968 63.7448 57.7541 63.7448C57.7114 63.7448 57.6891 63.765 57.7044 63.7897C57.7196 63.8144 57.702 63.8346 57.6651 63.8346C57.6282 63.8346 57.5859 63.8727 57.5712 63.9191C57.5353 64.0322 57.3918 64.1939 57.3273 64.1939C57.2409 64.1939 56.8719 64.5599 56.9032 64.6145C56.9192 64.6426 56.9155 64.6504 56.8951 64.6317C56.8451 64.5865 56.6877 64.7326 56.7236 64.7907C56.7393 64.816 56.7308 64.8235 56.7051 64.8076C56.6793 64.7916 56.628 64.8238 56.5913 64.8792C56.5544 64.9347 56.4659 65.0405 56.3945 65.1147C56.323 65.1888 56.2578 65.2696 56.2496 65.2943C56.2414 65.319 56.2166 65.3342 56.1944 65.328C56.1721 65.3218 56.1539 65.3504 56.1539 65.3917C56.1539 65.4328 56.1411 65.4536 56.1255 65.438C56.092 65.4046 55.9292 65.5998 55.9292 65.6734C55.9292 65.7011 55.8938 65.7372 55.8506 65.7535C55.7555 65.7895 55.7059 65.8392 55.6008 66.0032C55.5568 66.0719 55.5015 66.1161 55.4778 66.1015C55.4542 66.0869 55.4349 66.0963 55.4349 66.1225C55.4349 66.1487 55.4125 66.1701 55.3851 66.1701C55.2912 66.1701 54.8493 66.6802 54.9084 66.7205C54.9443 66.745 54.9322 66.7532 54.8731 66.7447C54.8176 66.7366 54.7879 66.7543 54.7956 66.791C54.8023 66.8237 54.7894 66.8391 54.7668 66.8251C54.7441 66.8111 54.6897 66.855 54.6458 66.9227C54.6019 66.9906 54.5293 67.0783 54.4844 67.1179C54.4395 67.1574 54.4159 67.2029 54.432 67.219C54.4481 67.2349 54.4274 67.248 54.3863 67.248C54.345 67.248 54.3164 67.2733 54.3226 67.3042C54.3288 67.3351 54.3061 67.3545 54.2721 67.3473C54.2313 67.3386 54.2201 67.3593 54.2389 67.4084C54.2594 67.4619 54.2485 67.4754 54.2 67.4568C54.1545 67.4393 54.1235 67.4669 54.1047 67.5412C54.0896 67.6019 54.0641 67.6445 54.0481 67.6357C54.0207 67.6206 53.6668 67.9647 53.662 68.0112C53.6607 68.0235 53.6348 68.0277 53.6042 68.0207C53.5707 68.013 53.5594 68.0355 53.5756 68.0776C53.595 68.1282 53.5823 68.1397 53.5294 68.1193C53.4735 68.0979 53.4637 68.1101 53.487 68.1711C53.5085 68.2267 53.5013 68.2407 53.4637 68.2175C53.4024 68.1796 52.9086 68.6784 52.9466 68.7397C52.9593 68.7604 52.9462 68.7717 52.9174 68.765C52.8885 68.7581 52.8414 68.7906 52.8129 68.837C52.7843 68.8833 52.6954 68.9863 52.6153 69.0657C52.5352 69.1451 52.4829 69.2233 52.4991 69.2396C52.5154 69.2559 52.495 69.2691 52.4538 69.2691C52.4126 69.2691 52.3789 69.3007 52.3789 69.3392C52.3789 69.3777 52.3587 69.3967 52.334 69.3814C52.3092 69.3661 52.289 69.3788 52.289 69.4097C52.289 69.4688 51.8879 69.8524 51.8257 69.8528C51.8057 69.8529 51.8019 69.8732 51.8171 69.8979C51.8324 69.9226 51.8084 69.9444 51.7637 69.9464C51.712 69.9487 51.7038 69.9585 51.7412 69.9735C51.7871 69.9919 51.7833 70.0157 51.724 70.0812C51.6821 70.1274 51.6302 70.1544 51.6085 70.141C51.5869 70.1276 51.5358 70.1502 51.4949 70.1911C51.4394 70.2465 51.4344 70.2738 51.4749 70.299C51.515 70.3237 51.5089 70.3492 51.4513 70.3959C51.3823 70.452 51.3767 70.4503 51.4029 70.3807C51.4191 70.3375 51.4202 70.3021 51.4053 70.3021C51.3522 70.3021 51.2128 70.4941 51.2372 70.5337C51.2509 70.5558 51.2353 70.5682 51.2026 70.5615C51.1695 70.5547 51.1498 70.5792 51.158 70.6165C51.1663 70.6536 51.1578 70.6687 51.1392 70.6501C51.0899 70.6009 50.9408 70.7507 50.9408 70.8495C50.9408 70.8958 50.9054 70.9464 50.8622 70.962C50.7585 70.9992 50.6243 71.1386 50.6589 71.1731C50.6739 71.1882 50.661 71.2004 50.6305 71.2004C50.5744 71.2004 50.4465 71.3072 50.4465 71.3539C50.4465 71.4085 50.2882 71.5597 50.2311 71.5597C50.1977 71.5597 50.1401 71.59 50.103 71.6271C50.0659 71.6641 50.0573 71.6944 50.0837 71.6944C50.1102 71.6944 50.1319 71.7147 50.1319 71.7394C50.1319 71.7641 50.1167 71.7819 50.0982 71.779C50.0142 71.7657 49.9521 71.7882 49.9521 71.8319C49.9521 71.858 49.9774 71.8642 50.0083 71.8457C50.0465 71.8228 50.0447 71.8363 50.0028 71.8879C49.9688 71.9297 49.9104 71.9639 49.8729 71.9639C49.7885 71.9639 49.6858 72.0935 49.6839 72.2024C49.6831 72.2471 49.6625 72.2712 49.6381 72.2562C49.6126 72.2405 49.6051 72.2584 49.6202 72.2981C49.636 72.3389 49.6172 72.3787 49.5748 72.395C49.5352 72.4102 49.5027 72.4722 49.5027 72.5327C49.5027 72.6046 49.4846 72.6318 49.4508 72.6109C49.4214 72.5927 49.411 72.5984 49.4269 72.624C49.4423 72.649 49.4259 72.7077 49.3904 72.7545C49.3549 72.8013 49.3252 72.8965 49.3244 72.9659C49.3234 73.049 49.3054 73.0812 49.2715 73.0603C49.2361 73.0384 49.227 73.0649 49.2424 73.1453C49.2563 73.2182 49.2423 73.2706 49.2046 73.2849C49.1717 73.2976 49.1565 73.3388 49.171 73.3766C49.1864 73.4168 49.1674 73.4568 49.1254 73.4729C49.0858 73.4882 49.0533 73.5198 49.0533 73.5433C49.0533 73.5669 49.0786 73.5709 49.1095 73.5524C49.1496 73.5284 49.1485 73.5399 49.1057 73.5927C49.0726 73.6333 49.0589 73.6883 49.0752 73.7146C49.0916 73.741 49.079 73.7571 49.0475 73.7503C49.0159 73.7435 48.9896 73.7784 48.989 73.8278C48.9886 73.8772 48.9593 73.9399 48.924 73.9669C48.8887 73.9941 48.8727 74.0373 48.8886 74.0629C48.9045 74.0885 48.888 74.134 48.852 74.1639C48.8133 74.196 48.7928 74.2729 48.802 74.3513C48.814 74.4546 48.8024 74.4786 48.7502 74.4586C48.7022 74.4402 48.6889 74.4559 48.704 74.5134C48.7157 74.5578 48.6962 74.621 48.661 74.6539C48.6216 74.6906 48.6072 74.7554 48.6237 74.8211C48.6424 74.8959 48.6315 74.9282 48.5875 74.9282C48.5217 74.9282 48.4708 75.0592 48.4696 75.2314C48.4693 75.2869 48.4532 75.3324 48.4339 75.3324C48.4146 75.3324 48.3942 75.3869 48.3887 75.4535C48.3832 75.5199 48.3602 75.5858 48.3375 75.5999C48.2829 75.6336 48.2826 76.6798 48.3372 76.6798C48.3603 76.6798 48.3792 76.7215 48.3792 76.7723C48.3792 76.8232 48.3994 76.8523 48.4241 76.837C48.4488 76.8217 48.4691 76.8419 48.4691 76.8819C48.4691 76.9219 48.4517 76.9439 48.4304 76.9308C48.4092 76.9176 48.4244 76.9764 48.4641 77.0613C48.5039 77.1463 48.5599 77.2165 48.5885 77.2173C48.6185 77.2181 48.6303 77.2575 48.6164 77.3105C48.6009 77.3698 48.6122 77.3976 48.6484 77.3891C48.6792 77.3819 48.7101 77.41 48.717 77.4514C48.7335 77.5488 48.8725 77.7344 48.9794 77.8016C49.046 77.8436 49.0564 77.8423 49.0317 77.7948C49.0147 77.762 49.0628 77.801 49.1387 77.8812C49.2146 77.9615 49.3073 78.0272 49.3447 78.0272C49.3822 78.0272 49.4128 78.0474 49.4128 78.0721C49.4128 78.0968 49.4646 78.117 49.5279 78.117C49.5911 78.117 49.632 78.1345 49.6188 78.156C49.6055 78.1774 49.6295 78.1948 49.6722 78.1947C49.8463 78.1943 49.9113 78.2088 49.89 78.2432C49.8543 78.3011 50.8171 78.2985 50.887 78.2405C50.9324 78.2028 50.9569 78.2051 50.9844 78.2496C51.0133 78.2964 51.0433 78.2885 51.1244 78.2129C51.2033 78.1395 51.237 78.1302 51.2673 78.1731C51.2992 78.2181 51.3118 78.2181 51.33 78.1732C51.3425 78.1423 51.3966 78.1167 51.4501 78.1164C51.5206 78.1158 51.531 78.1051 51.4875 78.0776C51.4408 78.0481 51.4457 78.0345 51.51 78.0161C51.5554 78.0031 51.6312 77.9767 51.6785 77.9573C51.7453 77.93 51.7562 77.9363 51.7274 77.9859C51.707 78.0209 51.7474 77.9991 51.8171 77.9374C51.8869 77.8756 51.9304 77.8488 51.9138 77.8778C51.8971 77.9067 51.9697 77.8882 52.075 77.8364C52.4031 77.6753 52.421 77.6679 52.4859 77.6679C52.5206 77.6679 52.5606 77.6379 52.5746 77.6013C52.5892 77.5634 52.63 77.5461 52.6693 77.5612C52.7073 77.5757 52.7384 77.5653 52.7384 77.538C52.7384 77.5106 52.7688 77.4882 52.8058 77.4882C52.8429 77.4882 52.8732 77.468 52.8732 77.4433C52.8732 77.4186 52.9423 77.3984 53.0268 77.3984C53.1112 77.3984 53.187 77.3798 53.1954 77.3569C53.2036 77.3341 53.2406 77.3088 53.2777 77.3007C53.3148 77.2928 53.3725 77.2494 53.406 77.2045C53.4406 77.1581 53.4966 77.1343 53.5359 77.1494C53.6195 77.1815 53.7817 77.136 53.7525 77.0887C53.7409 77.0701 53.7761 77.0564 53.8305 77.0582C53.8878 77.0602 53.9245 77.0375 53.9178 77.0045C53.9096 76.9641 53.941 76.9561 54.0256 76.9774C54.1097 76.9985 54.1355 76.9921 54.1132 76.9558C54.0956 76.9275 54.1027 76.9019 54.1289 76.8988C54.1551 76.8957 54.1951 76.8907 54.2178 76.8875C54.2403 76.8844 54.2757 76.8635 54.2964 76.841C54.3181 76.8172 54.3102 76.8136 54.2776 76.8324C54.2462 76.8505 54.2215 76.8415 54.2215 76.812C54.2215 76.7815 54.259 76.769 54.3098 76.7822C54.3708 76.7982 54.4068 76.7778 54.4263 76.7168C54.4417 76.668 54.4655 76.6393 54.4791 76.6527C54.5482 76.7219 54.9555 76.3398 54.9555 76.2057C54.9555 76.1729 54.9673 76.1497 54.9817 76.1545C54.9961 76.1594 55.0122 76.1474 55.0175 76.1278C55.0262 76.0957 55.1877 75.943 55.4715 75.6983C55.5288 75.649 55.5793 75.592 55.5838 75.5716C55.5884 75.5513 55.6073 75.5396 55.6259 75.5457C55.6444 75.5519 55.6545 75.5388 55.6483 75.5166C55.6421 75.4943 55.6529 75.4748 55.6724 75.4732C55.7158 75.4697 55.8393 75.3494 55.8393 75.3105C55.8393 75.2949 55.814 75.2974 55.7831 75.3159C55.7445 75.3392 55.7461 75.3261 55.7882 75.2741C55.8219 75.2326 55.8676 75.2098 55.8897 75.2235C55.9385 75.2537 56.0711 75.13 56.0319 75.0908C56.0166 75.0754 56.0429 75.0626 56.0902 75.0623C56.1623 75.0617 56.1654 75.0544 56.109 75.018C56.0547 74.983 56.0619 74.9743 56.1454 74.9738C56.2029 74.9734 56.2367 74.9531 56.2213 74.9282C56.206 74.9035 56.2245 74.8833 56.2622 74.8833C56.3025 74.8833 56.3209 74.8573 56.3067 74.8204C56.2934 74.7859 56.3074 74.7424 56.3376 74.7237C56.3727 74.7019 56.381 74.7085 56.3604 74.7416C56.3156 74.8142 56.3721 74.8064 56.4493 74.7293C56.5284 74.6502 56.5332 74.5971 56.4573 74.6409C56.4264 74.6586 56.4516 74.6144 56.5134 74.5425C56.5752 74.4705 56.6341 74.4016 56.6442 74.3892C56.6543 74.3769 56.6498 74.4021 56.6343 74.4454C56.5941 74.5575 56.636 74.5427 56.7615 74.4005C56.8214 74.3325 56.8612 74.2507 56.8497 74.2185C56.8384 74.1863 56.8491 74.1724 56.8737 74.1877C56.8983 74.2028 56.9321 74.1786 56.9486 74.1338C56.9807 74.0467 57.0983 73.9263 57.2888 73.7855C57.3537 73.7375 57.3967 73.682 57.3844 73.662C57.3721 73.642 57.3935 73.6257 57.432 73.6257C57.4706 73.6257 57.4971 73.6075 57.4909 73.5853C57.4847 73.5631 57.4898 73.5474 57.5021 73.5507C57.5592 73.5656 57.8169 73.287 57.7963 73.2329C57.7833 73.1994 57.7929 73.1843 57.8176 73.1996C57.8422 73.2148 57.8923 73.1972 57.9289 73.1606C57.9796 73.11 57.9822 73.0885 57.9398 73.0715C57.9092 73.059 57.9347 73.0458 57.9965 73.0418C58.0583 73.0379 58.0835 73.0245 58.0526 73.0121C57.9569 72.9735 57.991 72.9141 58.0934 72.9408C58.1598 72.9582 58.1802 72.9498 58.1581 72.9142C58.1388 72.883 58.1551 72.8622 58.1987 72.8622C58.2387 72.8622 58.2589 72.842 58.2436 72.8173C58.2284 72.7926 58.2474 72.7724 58.2859 72.7724C58.3244 72.7724 58.356 72.7509 58.356 72.7248C58.356 72.6986 58.3358 72.6897 58.3111 72.705C58.2225 72.7597 58.2688 72.6976 58.4301 72.5453C58.5204 72.4602 58.5798 72.4159 58.5623 72.4467C58.5447 72.4776 58.5468 72.5021 58.5668 72.5012C58.6059 72.4993 58.854 72.1663 58.9017 72.0516C58.9176 72.0133 59.0036 71.9325 59.0927 71.872C59.1819 71.8113 59.2457 71.7376 59.2347 71.7079C59.2219 71.674 59.2412 71.6643 59.2869 71.6819C59.3317 71.699 59.3482 71.6915 59.3301 71.6622C59.3139 71.6362 59.3304 71.5901 59.3668 71.56C59.4248 71.5119 59.433 72.0351 59.4341 75.8665C59.435 78.7724 59.4203 80.228 59.3901 80.228C59.3651 80.228 59.3447 80.2494 59.3447 80.2756C59.3447 80.3017 59.3649 80.3106 59.3896 80.2953C59.4143 80.2801 59.4346 80.2889 59.4346 80.3151C59.4346 80.3412 59.4185 80.3627 59.3988 80.3627C59.3792 80.3627 59.3256 80.4536 59.2797 80.5648C59.2338 80.676 59.173 80.7669 59.1446 80.7669C59.0673 80.7669 58.8511 80.8743 58.8507 80.9129C58.8505 80.9314 58.8289 80.9466 58.8027 80.9466C58.7765 80.9466 58.7676 80.9264 58.7829 80.9017C58.7982 80.8769 58.7893 80.8567 58.7632 80.8567C58.737 80.8567 58.7155 80.8769 58.7155 80.9017C58.7155 80.9315 53.787 80.9466 44.02 80.9466C34.2529 80.9466 29.3244 80.9315 29.3244 80.9017C29.3244 80.8769 29.3029 80.8567 29.2768 80.8567C29.2506 80.8567 29.242 80.8774 29.2577 80.9028C29.2733 80.928 29.2158 80.9093 29.1298 80.861C29.0439 80.8127 28.9624 80.7843 28.9488 80.7979C28.9145 80.8322 28.7854 80.6964 28.7836 80.6242C28.7829 80.5915 28.7547 80.5285 28.7211 80.4841C28.6874 80.4397 28.6702 80.3639 28.6828 80.3157C28.6955 80.2674 28.6832 80.228 28.6556 80.228C28.6186 80.228 28.6053 75.2118 28.6053 61.3195C28.6053 48.8866 28.6205 42.411 28.6498 42.411C28.6742 42.411 28.6916 42.3655 28.6885 42.31C28.6768 42.1018 28.9029 41.7283 28.9734 41.8393C29.0009 41.8827 29.0086 41.8825 29.0091 41.8384C29.0095 41.8075 29.049 41.7822 29.097 41.7822C29.145 41.7822 29.1968 41.762 29.212 41.7373C29.2273 41.7126 29.2499 41.6924 29.2623 41.6924C29.2746 41.6924 29.2723 41.7126 29.257 41.7373ZM33.1311 45.8995C33.1534 45.9577 33.1392 45.9683 33.0646 45.9488C33.0022 45.9324 32.9419 45.9558 32.8885 46.0166C32.8438 46.0676 32.8326 46.0946 32.8635 46.0765C32.8944 46.0584 32.9196 46.0626 32.9196 46.0857C32.9196 46.1522 32.8031 46.2313 32.7597 46.1946C32.7381 46.1762 32.7474 46.1966 32.7805 46.2399C32.8235 46.2959 32.8256 46.3185 32.788 46.3185C32.7514 46.3185 32.7379 46.4222 32.744 46.6553C32.749 46.8406 32.7703 46.9922 32.7913 46.9922C32.8125 46.9922 32.8298 47.0138 32.8298 47.0403C32.8298 47.1105 32.9405 47.2098 33.0765 47.2614C33.2325 47.3207 51.8917 47.324 52.0985 47.2648C52.2533 47.2203 52.3789 47.1198 52.3789 47.0403C52.3789 47.0138 52.3953 46.9922 52.4152 46.9922C52.4352 46.9922 52.4569 46.8081 52.4634 46.5833C52.4715 46.3015 52.4602 46.1837 52.427 46.2042C52.3999 46.221 52.3789 46.2 52.3789 46.1562C52.3789 46.0474 52.2486 45.9154 52.1706 45.9452C52.1308 45.9605 52.1106 45.9462 52.1187 45.9085C52.1297 45.8564 50.6546 45.8452 42.6171 45.8362C33.7926 45.8262 33.1047 45.8308 33.1311 45.8995ZM33.1668 50.8098C33.1515 50.8345 33.0896 50.8547 33.0293 50.8547C32.969 50.8547 32.9196 50.8761 32.9196 50.9023C32.9196 50.9285 32.9449 50.9346 32.9758 50.9161C33.014 50.8932 33.0122 50.9067 32.9703 50.9583C32.9036 51.0406 32.852 51.0625 32.8972 50.9894C32.9124 50.9647 32.9036 50.9445 32.8774 50.9445C32.8313 50.9445 32.8102 51.0369 32.8274 51.1624C32.8322 51.1973 32.814 51.2096 32.7846 51.1914C32.7476 51.1685 32.7368 51.2597 32.7457 51.5208C32.7526 51.7193 32.7741 51.8718 32.7939 51.8596C32.8136 51.8475 32.8298 51.876 32.8298 51.923C32.8298 52.0154 32.9612 52.1572 33.0467 52.1572C33.0757 52.1572 33.0994 52.1776 33.0994 52.2025C33.0994 52.2887 52.0471 52.2603 52.1791 52.1739C52.2391 52.1346 52.2772 52.0847 52.2639 52.063C52.2504 52.0412 52.2708 52.0355 52.3091 52.0502C52.3615 52.0703 52.3789 52.047 52.3789 51.9572C52.3789 51.8888 52.3982 51.8494 52.4238 51.8653C52.4524 51.8829 52.4688 51.7609 52.4688 51.5311C52.4688 51.3062 52.4507 51.1691 52.4211 51.1691C52.395 51.1691 52.3861 51.1489 52.4014 51.1242C52.4167 51.0995 52.4065 51.0793 52.3789 51.0793C52.3513 51.0793 52.3413 51.0589 52.3567 51.034C52.3931 50.9751 52.2585 50.8406 52.1995 50.8769C52.1745 50.8923 52.1542 50.8823 52.1542 50.8547C52.1542 50.8271 52.134 50.817 52.1093 50.8322C52.0845 50.8475 52.0643 50.8386 52.0643 50.8125C52.0643 50.7478 33.2068 50.7451 33.1668 50.8098ZM33.1001 55.7124C33.0996 55.7645 33.0725 55.7798 33.0095 55.7633C32.9573 55.7496 32.9196 55.7619 32.9196 55.7926C32.9196 55.8217 32.9399 55.8329 32.9646 55.8176C33.0377 55.7725 33.0158 55.824 32.9335 55.8907C32.8818 55.9326 32.8683 55.9344 32.8912 55.8962C32.9098 55.8653 32.9036 55.8401 32.8774 55.8401C32.8512 55.8401 32.8298 55.8805 32.8298 55.9299C32.8298 55.9793 32.8095 56.0197 32.7848 56.0197C32.7038 56.0197 32.7282 56.7691 32.8101 56.8005C32.8487 56.8154 32.8677 56.848 32.8522 56.8731C32.8155 56.9325 32.9501 57.067 33.0095 57.0303C33.0346 57.0148 33.0673 57.0339 33.0821 57.0725C33.1184 57.1669 51.9289 57.1807 52.1417 57.0865C52.3027 57.0153 52.3789 56.9415 52.3789 56.8565C52.3789 56.8191 52.3999 56.7756 52.4255 56.7598C52.5035 56.7116 52.4709 56.0197 52.3906 56.0197C52.3488 56.0197 52.3343 55.9937 52.3515 55.949C52.3818 55.8701 52.2673 55.7306 52.2042 55.7696C52.1818 55.7834 52.1521 55.7646 52.138 55.7279C52.1077 55.6489 33.3599 55.6246 33.2355 55.7035C33.1916 55.7313 33.1576 55.7272 33.135 55.6917C33.1114 55.6547 33.1005 55.6611 33.1001 55.7124ZM66.9822 59.1328C66.9712 59.1421 66.9029 59.0771 66.8305 58.9883L66.699 58.8268L66.8508 58.9713C66.9341 59.0508 66.9933 59.1235 66.9822 59.1328ZM64.3556 59.2086C64.3403 59.2333 64.3492 59.2535 64.3753 59.2535C64.4015 59.2535 64.423 59.2333 64.423 59.2086C64.423 59.0816 64.8968 59.2122 64.9419 59.3515C64.9568 59.3974 65.0009 59.4206 65.0543 59.4102C65.1282 59.3961 65.142 59.4189 65.142 59.5555C65.142 59.6447 65.1295 59.7051 65.1142 59.6898C65.0781 59.6537 64.9623 59.7694 64.9623 59.8416C64.9623 59.8722 64.9488 59.8837 64.9321 59.8672C64.8918 59.8268 64.7332 59.9735 64.7637 60.023C64.777 60.0444 64.765 60.0619 64.737 60.0619C64.6685 60.0619 64.5551 60.1789 64.5899 60.2137C64.6052 60.2291 64.5926 60.2416 64.5621 60.2416C64.4843 60.2416 64.3757 60.3582 64.4139 60.4007C64.4313 60.4199 64.42 60.421 64.3889 60.4031C64.356 60.3842 64.3213 60.3998 64.3056 60.4405C64.2908 60.479 64.2606 60.4994 64.2385 60.4857C64.2164 60.472 64.1983 60.4917 64.1983 60.5295C64.1983 60.5722 64.1726 60.5883 64.1303 60.572C64.0816 60.5533 64.0703 60.5665 64.0904 60.6188C64.1111 60.6727 64.0994 60.6844 64.0455 60.6638C63.9915 60.6431 63.9799 60.6548 64.0005 60.7087C64.022 60.7646 64.0097 60.7744 63.9483 60.7508C63.8868 60.7272 63.8746 60.7371 63.896 60.7929C63.9167 60.8468 63.905 60.8585 63.8511 60.8378C63.7953 60.8163 63.7854 60.8286 63.809 60.89C63.8326 60.9514 63.8228 60.9637 63.7668 60.9422C63.7129 60.9216 63.7012 60.9332 63.7219 60.9871C63.7426 61.041 63.7309 61.0527 63.677 61.032C63.6246 61.0119 63.6113 61.0233 63.6301 61.0719C63.6468 61.1155 63.6298 61.1398 63.5827 61.1398C63.5422 61.1398 63.5209 61.1515 63.5351 61.1658C63.5493 61.18 63.5021 61.2479 63.4302 61.3166C63.3583 61.3853 63.2995 61.4679 63.2995 61.5003C63.2995 61.5326 63.2878 61.5473 63.2735 61.533C63.2361 61.4958 62.8033 61.909 62.8316 61.9549C62.8447 61.976 62.8325 61.9932 62.8045 61.9932C62.736 61.9932 62.6227 62.1102 62.6575 62.145C62.6728 62.1604 62.6602 62.1728 62.6296 62.1728C62.552 62.1728 62.4432 62.2895 62.4814 62.3318C62.4988 62.351 62.4776 62.3541 62.4343 62.3386C62.3829 62.3202 62.3557 62.3326 62.3557 62.3749C62.3557 62.4141 62.329 62.4293 62.2877 62.4135C62.2391 62.3947 62.2277 62.408 62.2478 62.4603C62.2685 62.5142 62.2568 62.5259 62.2029 62.5052C62.149 62.4845 62.1373 62.4962 62.158 62.5501C62.1794 62.606 62.1672 62.6158 62.1057 62.5922C62.0443 62.5686 62.032 62.5785 62.0535 62.6343C62.0742 62.6882 62.0625 62.6999 62.0085 62.6792C61.9527 62.6578 61.9428 62.67 61.9664 62.7314C61.99 62.7929 61.9802 62.8051 61.9243 62.7837C61.8703 62.763 61.8587 62.7747 61.8793 62.8286C61.9 62.8825 61.8883 62.8941 61.8344 62.8735C61.782 62.8534 61.7688 62.8647 61.7875 62.9133C61.8038 62.9557 61.7878 62.9813 61.745 62.9813C61.7072 62.9813 61.6888 63.0015 61.7041 63.0262C61.7193 63.0509 61.6981 63.0711 61.657 63.0711C61.6078 63.0711 61.5913 63.095 61.6089 63.1408C61.6242 63.1808 61.6167 63.1988 61.5912 63.183C61.5668 63.168 61.5468 63.1883 61.5468 63.2283C61.5468 63.2683 61.5266 63.2885 61.5018 63.2732C61.4771 63.2579 61.4569 63.2782 61.4569 63.3181C61.4569 63.3581 61.4367 63.3783 61.412 63.363C61.3872 63.3478 61.367 63.368 61.367 63.408C61.367 63.4479 61.3468 63.4681 61.3221 63.4529C61.2974 63.4376 61.2771 63.4578 61.2771 63.4978C61.2771 63.5378 61.2569 63.558 61.2322 63.5427C61.2075 63.5274 61.1872 63.5464 61.1872 63.5849C61.1872 63.6234 61.162 63.6499 61.1311 63.6437C61.1002 63.6376 61.08 63.6578 61.0861 63.6887C61.0923 63.7195 61.0658 63.7448 61.0273 63.7448C60.9887 63.7448 60.9697 63.765 60.985 63.7897C61.0003 63.8144 60.9801 63.8346 60.9401 63.8346C60.9001 63.8346 60.8799 63.8548 60.8951 63.8795C60.9104 63.9042 60.8902 63.9245 60.8502 63.9245C60.8102 63.9245 60.79 63.9447 60.8053 63.9694C60.8205 63.9941 60.8003 64.0143 60.7603 64.0143C60.7203 64.0143 60.7001 64.0345 60.7154 64.0592C60.7307 64.0839 60.7104 64.1041 60.6704 64.1041C60.6304 64.1041 60.6101 64.1241 60.6252 64.1485C60.6409 64.1739 60.6229 64.1815 60.5829 64.1662C60.5371 64.1486 60.5131 64.1651 60.5131 64.2143C60.5131 64.2554 60.4929 64.2766 60.4682 64.2613C60.4435 64.246 60.4233 64.2644 60.4233 64.3022C60.4233 64.345 60.3976 64.361 60.3553 64.3447C60.3066 64.326 60.2953 64.3392 60.3154 64.3916C60.3361 64.4454 60.3244 64.4571 60.2705 64.4365C60.2165 64.4158 60.2048 64.4275 60.2255 64.4814C60.247 64.5373 60.2347 64.5471 60.1733 64.5235C60.1118 64.4999 60.0996 64.5098 60.121 64.5656C60.1417 64.6195 60.13 64.6312 60.0761 64.6105C60.0203 64.5891 60.0104 64.6013 60.034 64.6627C60.0576 64.7241 60.0478 64.7364 59.9918 64.7149C59.9379 64.6943 59.9262 64.7059 59.9469 64.7598C59.9676 64.8137 59.9559 64.8254 59.902 64.8048C59.8496 64.7847 59.8363 64.796 59.8551 64.8446C59.8709 64.8858 59.8558 64.9125 59.8166 64.9125C59.7748 64.9125 59.7621 64.9389 59.7807 64.9873C59.7999 65.0375 59.7922 65.0513 59.7568 65.0295C59.7249 65.0099 59.7042 65.0257 59.7042 65.0697C59.7042 65.1097 59.684 65.1299 59.6593 65.1147C59.6346 65.0994 59.6143 65.1196 59.6143 65.1596C59.6143 65.1995 59.5941 65.2198 59.5694 65.2045C59.5447 65.1892 59.5244 65.2094 59.5244 65.2494C59.5244 65.2894 59.5042 65.3096 59.4795 65.2943C59.4548 65.279 59.4346 65.2992 59.4346 65.3392C59.4346 65.3792 59.4143 65.3994 59.3896 65.3841C59.3649 65.3689 59.3447 65.3878 59.3447 65.4264C59.3447 65.4649 59.3194 65.4914 59.2885 65.4852C59.2576 65.479 59.2374 65.4992 59.2436 65.5301C59.2497 65.561 59.2232 65.5862 59.1847 65.5862C59.1462 65.5862 59.1272 65.6065 59.1425 65.6312C59.1577 65.6559 59.1375 65.6761 59.0975 65.6761C59.0575 65.6761 59.0373 65.6963 59.0526 65.721C59.0679 65.7457 59.0489 65.7659 59.0103 65.7659C58.9718 65.7659 58.9402 65.7827 58.9402 65.8032C58.9402 65.8237 58.8906 65.8671 58.8299 65.8995C58.7174 65.9597 58.6637 66.7989 58.7724 66.7989C58.7935 66.7989 58.7982 66.7787 58.7829 66.754C58.7676 66.7293 58.7788 66.7091 58.8075 66.7091C58.8367 66.7091 58.848 66.7404 58.8328 66.7798C58.8042 66.8545 58.8989 66.9786 58.9846 66.9786C59.0126 66.9786 59.0246 66.9961 59.0113 67.0175C58.9981 67.039 59.0322 67.0541 59.0873 67.0512C59.1423 67.0483 59.1838 67.0669 59.1793 67.0925C59.1746 67.1203 59.2885 67.1416 59.4607 67.1452C59.6198 67.1484 59.7399 67.1346 59.7275 67.1145C59.6992 67.0688 59.8323 67.014 59.888 67.0484C59.9105 67.0623 59.9289 67.0552 59.9289 67.0328C59.9289 66.9782 60.6657 66.2376 60.9941 65.9622C61.2729 65.7282 61.3124 65.6884 61.5308 65.4219C61.7138 65.1985 62.6419 64.2711 62.8653 64.0882C63.1325 63.8694 63.1717 63.8306 63.411 63.5458C63.6847 63.2201 64.6026 62.3104 64.8526 62.1171C64.9529 62.0396 65.0983 61.894 65.1758 61.7938C65.3428 61.5777 66.2594 60.6458 66.305 60.6458C66.3223 60.6458 66.4268 60.7294 66.537 60.8316C66.6472 60.9338 66.7121 61.0033 66.6812 60.9861C66.6149 60.9493 66.6043 61.0318 66.67 61.0725C66.6947 61.0877 66.7149 61.1378 66.7149 61.1836C66.7149 61.2295 66.7402 61.2764 66.7711 61.2877C66.816 61.3041 66.816 61.3202 66.7711 61.3678C66.7402 61.4004 66.7149 61.4872 66.7149 61.5606C66.7149 61.6338 66.7028 61.6816 66.688 61.6668C66.6434 61.6222 66.3482 61.9451 66.3826 62.0008C66.4016 62.0315 66.3943 62.0397 66.3646 62.0214C66.3167 61.9916 66.1917 62.1606 66.211 62.229C66.2163 62.2475 66.1953 62.2576 66.1644 62.2514C66.1335 62.2453 66.1133 62.2655 66.1195 62.2963C66.1257 62.3272 66.1155 62.3492 66.097 62.3453C66.0309 62.3314 65.9069 62.4075 65.9314 62.447C65.9451 62.4692 65.9235 62.4872 65.8835 62.4872C65.8435 62.4872 65.8233 62.5074 65.8386 62.5321C65.8539 62.5568 65.8349 62.5771 65.7964 62.5771C65.7578 62.5771 65.7262 62.5985 65.7262 62.6247C65.7262 62.6508 65.7515 62.6575 65.7824 62.6394C65.8133 62.6213 65.8005 62.6499 65.754 62.703C65.7074 62.756 65.6523 62.789 65.6314 62.7761C65.575 62.7413 65.3247 63.0348 65.3225 63.1385C65.3208 63.213 65.313 63.2168 65.2768 63.1609C65.2399 63.1038 65.2331 63.1059 65.2326 63.1749C65.2322 63.2195 65.2117 63.2436 65.187 63.2283C65.1622 63.213 65.142 63.2421 65.142 63.293C65.142 63.3438 65.1218 63.3855 65.0971 63.3855C65.0724 63.3855 65.0521 63.417 65.0521 63.4556C65.0521 63.4941 65.0319 63.513 65.0072 63.4978C64.9825 63.4825 64.9623 63.4914 64.9623 63.5175C64.9623 63.5437 64.9218 63.5651 64.8724 63.5651C64.8229 63.5651 64.7825 63.5866 64.7825 63.6128C64.7825 63.6389 64.8027 63.6478 64.8274 63.6325C64.9102 63.5813 64.8735 63.6382 64.7527 63.7482C64.687 63.8081 64.6478 63.8318 64.6655 63.8009C64.7234 63.7006 64.6383 63.7417 64.5318 63.8655C64.4748 63.9319 64.4403 64.0077 64.4552 64.0339C64.4702 64.0602 64.4672 64.0682 64.4489 64.0517C64.3995 64.0074 64.2347 64.1888 64.271 64.2474C64.2899 64.278 64.2816 64.2851 64.2498 64.2653C64.1926 64.2301 64.0504 64.3456 64.0956 64.3907C64.1109 64.406 64.0885 64.4185 64.0458 64.4185C64.0031 64.4185 63.9808 64.4387 63.996 64.4634C64.0113 64.4881 63.989 64.5083 63.9463 64.5083C63.9036 64.5083 63.8814 64.5211 63.8971 64.5367C63.9468 64.5864 63.8349 64.741 63.7678 64.7154C63.7298 64.7007 63.7039 64.7185 63.7039 64.7594C63.7039 64.7971 63.6837 64.8155 63.659 64.8003C63.6343 64.785 63.614 64.8141 63.614 64.8649C63.614 64.9158 63.5888 64.9524 63.5579 64.9462C63.527 64.9401 63.5074 64.9694 63.5144 65.0112C63.5274 65.0898 63.3784 65.201 63.3279 65.1505C63.3123 65.1349 63.2995 65.1568 63.2995 65.1991C63.2995 65.2848 63.1068 65.4964 63.0287 65.4964C62.975 65.4964 62.85 65.606 62.85 65.6531C62.85 65.6687 62.8703 65.6689 62.895 65.6536C62.9778 65.6024 62.9411 65.6593 62.8203 65.7693C62.7546 65.8292 62.7153 65.8529 62.7331 65.822C62.751 65.7912 62.752 65.7659 62.7356 65.7659C62.6917 65.7659 62.5111 66.0052 62.5242 66.0457C62.5304 66.0648 62.5138 66.0803 62.4873 66.0803C62.4072 66.0803 62.3028 66.2108 62.3377 66.2672C62.3602 66.3036 62.3456 66.3106 62.2906 66.2895C62.2296 66.2661 62.2174 66.276 62.2389 66.3318C62.2589 66.3839 62.2476 66.3974 62.1994 66.3789C62.1603 66.3638 62.1366 66.3758 62.1428 66.4075C62.1486 66.4375 62.1282 66.457 62.0973 66.4508C62.0664 66.4446 62.0462 66.4649 62.0524 66.4957C62.0585 66.5266 62.0383 66.5468 62.0074 66.5406C61.9765 66.5345 61.9563 66.5547 61.9625 66.5856C61.9687 66.6164 61.946 66.6359 61.912 66.6287C61.8712 66.62 61.86 66.6407 61.8788 66.6898C61.8994 66.7434 61.8885 66.7568 61.8394 66.7379C61.7978 66.722 61.7715 66.7375 61.7715 66.7779C61.7715 66.8142 61.7513 66.8438 61.7265 66.8438C61.7018 66.8438 61.6816 66.8638 61.6816 66.8882C61.6816 66.9572 61.5351 67.1114 61.4939 67.0859C61.4735 67.0733 61.4569 67.0958 61.4569 67.1357C61.4569 67.1757 61.4367 67.1959 61.412 67.1807C61.3872 67.1654 61.367 67.1858 61.367 67.2261C61.367 67.3106 61.2625 67.4277 61.1872 67.4277C61.1326 67.4277 61.0075 67.5368 61.0075 67.5843C61.0075 67.5999 61.0277 67.6002 61.0524 67.5849C61.1256 67.5397 61.1037 67.5913 61.0213 67.658C60.9696 67.6999 60.9561 67.7017 60.9791 67.6635C61.0462 67.5516 60.9488 67.611 60.8018 67.7715C60.719 67.8618 60.6618 67.9527 60.6747 67.9736C60.6876 67.9945 60.6667 68.0116 60.6282 68.0116C60.5896 68.0116 60.5604 68.0267 60.5634 68.0452C60.5818 68.1615 60.5562 68.2129 60.5131 68.1463C60.4762 68.0891 60.4694 68.0913 60.4689 68.1602C60.4685 68.2049 60.448 68.2289 60.4233 68.2137C60.3985 68.1984 60.3783 68.2186 60.3783 68.2586C60.3783 68.2986 60.3583 68.3189 60.3339 68.3038C60.3074 68.2874 60.3015 68.3078 60.3192 68.3539C60.3419 68.4131 60.3314 68.4247 60.2743 68.4028C60.2281 68.385 60.2037 68.3949 60.2104 68.4286C60.2162 68.4586 60.1957 68.4781 60.1649 68.4719C60.134 68.4657 60.111 68.4758 60.114 68.4944C60.1324 68.6106 60.1068 68.662 60.0637 68.5954C60.0268 68.5383 60.02 68.5404 60.0195 68.6094C60.019 68.6598 59.9989 68.6783 59.9662 68.6581C59.9301 68.6359 59.9233 68.6507 59.9443 68.7054C59.967 68.7646 59.9575 68.7783 59.907 68.759C59.8602 68.7411 59.839 68.7613 59.839 68.824C59.839 68.8741 59.8188 68.9026 59.7941 68.8874C59.7694 68.8721 59.7491 68.8911 59.7491 68.9296C59.7491 68.9681 59.7275 68.9996 59.701 68.9996C59.6443 68.9996 59.5244 69.1117 59.5244 69.1648C59.5243 69.2266 59.3155 69.4488 59.2576 69.4488C59.2009 69.4488 59.075 69.5567 59.075 69.6054C59.075 69.621 59.0953 69.6212 59.12 69.606C59.1931 69.5608 59.1712 69.6124 59.0889 69.6791C59.0372 69.721 59.0237 69.7227 59.0466 69.6846C59.1019 69.5925 59.0338 69.6207 58.9157 69.7387C58.8551 69.7993 58.8054 69.8777 58.8054 69.9128C58.8054 69.9905 58.6963 70.0882 58.6552 70.0472C58.6389 70.031 58.6256 70.0525 58.6256 70.0952C58.6256 70.1379 58.6054 70.1602 58.5807 70.1449C58.556 70.1297 58.5358 70.1499 58.5358 70.1898C58.5358 70.2298 58.5155 70.25 58.4908 70.2348C58.4661 70.2195 58.4459 70.2397 58.4459 70.2797C58.4459 70.3196 58.4259 70.34 58.4015 70.3249C58.375 70.3085 58.369 70.3289 58.3868 70.375C58.4098 70.4351 58.3991 70.4457 58.339 70.4227C58.2963 70.4063 58.2722 70.4104 58.2853 70.4316C58.2985 70.4528 58.2712 70.514 58.2247 70.5677C58.1639 70.6376 58.1334 70.6488 58.1167 70.6071C58.1023 70.5713 58.0921 70.5801 58.0899 70.6304C58.0878 70.6778 58.0657 70.6988 58.0366 70.681C58.0031 70.6602 57.9967 70.6813 58.017 70.7453C58.0407 70.8198 58.032 70.8346 57.9769 70.8136C57.9376 70.7984 57.9066 70.8099 57.9066 70.8395C57.9066 70.9057 57.7945 71.0207 57.7301 71.0207C57.7036 71.0207 57.6819 71.0523 57.6819 71.0908C57.6819 71.1293 57.6617 71.1483 57.6369 71.133C57.6122 71.1178 57.592 71.1382 57.592 71.1785C57.592 71.2624 57.4877 71.3801 57.4134 71.3801C57.3858 71.3801 57.3136 71.4297 57.2529 71.4903C57.1348 71.6083 57.1066 71.6764 57.1988 71.6211C57.2339 71.6 57.2302 71.62 57.189 71.6746C57.0882 71.808 57.0811 71.8128 57.1116 71.7281C57.1271 71.6849 57.1275 71.6495 57.1127 71.6495C57.0655 71.6495 56.8731 71.8941 56.873 71.9542C56.873 71.9857 56.838 72.025 56.7953 72.0414C56.6752 72.0874 56.4375 72.3425 56.4578 72.4035C56.4697 72.4391 56.4488 72.4476 56.3975 72.4279C56.3439 72.4073 56.3293 72.4145 56.3514 72.4503C56.3704 72.4811 56.3573 72.5029 56.3195 72.5029C56.2832 72.5029 56.2428 72.5643 56.2269 72.6431C56.2019 72.7682 56.1906 72.7767 56.123 72.7217C56.0566 72.6677 56.0509 72.6698 56.0767 72.7387C56.0969 72.7927 56.084 72.8173 56.0354 72.8173C55.9909 72.8173 55.9741 72.8423 55.9904 72.8846C56.0058 72.9247 55.9909 72.952 55.9535 72.952C55.919 72.952 55.8516 73.0019 55.8036 73.0627C55.7556 73.1237 55.7019 73.1591 55.6843 73.1413C55.6665 73.1237 55.6562 73.1294 55.6611 73.1541C55.6815 73.2546 55.6559 73.3113 55.5901 73.3113C55.5519 73.3113 55.471 73.3609 55.4104 73.4216C55.2949 73.537 55.2632 73.6089 55.3519 73.5541C55.3843 73.5341 55.3916 73.5417 55.3713 73.5746C55.3534 73.6035 55.3189 73.6149 55.2945 73.5999C55.2703 73.5848 55.216 73.6131 55.1741 73.6628C55.1321 73.7123 55.0641 73.7934 55.0229 73.8428C54.9816 73.892 54.9597 73.9444 54.9742 73.9587C54.9886 73.9732 54.9656 73.985 54.9229 73.985C54.8802 73.985 54.8578 74.0052 54.8731 74.0299C54.8884 74.0546 54.8785 74.0748 54.8512 74.0748C54.7838 74.0748 54.5796 74.283 54.6137 74.3172C54.6286 74.3321 54.6078 74.3443 54.5674 74.3443C54.5173 74.3443 54.503 74.3681 54.5227 74.4191C54.5418 74.4691 54.534 74.4831 54.4991 74.4615C54.4696 74.4434 54.3955 74.4806 54.3291 74.5471L54.2112 74.6648L54.1054 74.5654C54.0472 74.5107 54.0109 74.4476 54.0247 74.4252C54.0568 74.3735 53.1528 73.466 53.111 73.5079C53.0721 73.5467 52.1509 72.6343 52.1806 72.5864C52.1925 72.5671 52.1308 72.4756 52.0434 72.383C51.8817 72.2117 51.8631 72.162 51.9123 72.0339C51.9325 71.9811 51.9554 71.9744 51.9972 72.0092C52.0406 72.0451 52.0661 72.0235 52.1021 71.9205C52.1281 71.8456 52.1717 71.7843 52.1988 71.7843C52.2661 71.7843 52.47 71.576 52.4361 71.542C52.4211 71.527 52.4437 71.5148 52.4864 71.5148C52.5291 71.5148 52.5515 71.4946 52.5362 71.4699C52.5209 71.4452 52.5312 71.425 52.5592 71.425C52.6369 71.425 52.7479 71.2968 52.7155 71.2445C52.6997 71.219 52.704 71.2038 52.7251 71.2105C52.7766 71.2271 53.0992 70.9022 53.065 70.868C53.0502 70.8532 53.0623 70.8411 53.092 70.8411C53.1622 70.8411 53.4597 70.5439 53.4246 70.5087C53.4097 70.4939 53.4363 70.4814 53.4837 70.4811C53.5489 70.4805 53.5551 70.4711 53.509 70.4419C53.4613 70.4117 53.4702 70.3881 53.5501 70.3322C53.6061 70.293 53.6688 70.2714 53.6895 70.2842C53.7102 70.297 53.7271 70.2683 53.7271 70.2205C53.7271 70.1727 53.7575 70.1083 53.7945 70.0776C53.8488 70.0325 53.8619 70.0334 53.8619 70.0821C53.8619 70.1153 53.8972 70.0925 53.9402 70.0314C53.9833 69.9703 54.0187 69.9052 54.0189 69.8867C54.0191 69.8682 54.0395 69.8491 54.0642 69.8442C54.1342 69.8307 54.2143 69.7444 54.1916 69.707C54.1805 69.6885 54.2027 69.6733 54.2412 69.6733C54.2798 69.6733 54.309 69.6582 54.3061 69.6397C54.2912 69.5459 54.3184 69.4937 54.382 69.4937C54.4657 69.4937 54.5887 69.3817 54.5489 69.3419C54.5336 69.3265 54.5447 69.314 54.5735 69.314C54.6023 69.314 54.6259 69.2958 54.6259 69.2736C54.6259 69.2336 54.9313 68.9098 54.9689 68.9098C55.0152 68.9098 55.2915 68.6018 55.2671 68.5775C55.2523 68.5626 55.2789 68.5502 55.3262 68.5498C55.3983 68.5493 55.4014 68.542 55.345 68.5056C55.2913 68.4709 55.3004 68.4613 55.3899 68.4579C55.4517 68.4555 55.4769 68.4434 55.4459 68.4308C55.4147 68.4184 55.4003 68.3905 55.4135 68.369C55.4269 68.3475 55.4674 68.3412 55.5037 68.3551C55.5501 68.373 55.5699 68.3491 55.5704 68.2746C55.5709 68.1897 55.5797 68.1821 55.6146 68.2361C55.6508 68.292 55.6584 68.2882 55.6596 68.2137C55.6617 68.0716 55.7398 67.9741 55.7894 68.0512C55.821 68.1001 55.836 68.093 55.8599 68.0175C55.8766 67.9648 55.9092 67.9217 55.9322 67.9217C55.9553 67.9217 55.9741 67.8953 55.9741 67.8631C55.9741 67.7748 56.2677 67.4726 56.3537 67.4726C56.395 67.4726 56.4164 67.4524 56.4011 67.4277C56.3858 67.403 56.3959 67.3828 56.4235 67.3828C56.4512 67.3828 56.4613 67.3626 56.446 67.3379C56.4307 67.3132 56.4531 67.2929 56.4958 67.2929C56.5385 67.2929 56.5612 67.2808 56.5462 67.2659C56.5205 67.2402 56.8042 66.9497 57.0904 66.7091C57.1637 66.6473 57.2145 66.5816 57.203 66.5631C57.1916 66.5446 57.2188 66.5278 57.2635 66.5258C57.3111 66.5238 57.3215 66.5129 57.2884 66.4996C57.2573 66.4871 57.2428 66.4592 57.2561 66.4377C57.2694 66.4162 57.3135 66.4113 57.354 66.4269C57.4089 66.4479 57.4207 66.4365 57.3999 66.3823C57.3807 66.3324 57.3913 66.3169 57.4335 66.333C57.4727 66.3481 57.5003 66.3189 57.5098 66.2522C57.5196 66.1827 57.5523 66.15 57.6074 66.1546C57.6668 66.1596 57.684 66.1383 57.6686 66.0794C57.6529 66.0191 57.6658 66.0044 57.7173 66.024C57.7695 66.0441 57.7797 66.0312 57.7576 65.9735C57.7399 65.9274 57.7458 65.907 57.7723 65.9234C57.7967 65.9385 57.8167 65.9295 57.8167 65.9033C57.8167 65.8772 57.842 65.8608 57.8729 65.867C57.9038 65.8731 57.924 65.8529 57.9178 65.822C57.9116 65.7912 57.9319 65.7709 57.9628 65.7771C57.9937 65.7833 58.0134 65.7616 58.0066 65.7288C57.9998 65.6962 58.0126 65.6808 58.0352 65.6947C58.0577 65.7086 58.1038 65.6861 58.1375 65.6445C58.1895 65.5804 58.1893 65.5747 58.1356 65.607C58.0928 65.6328 58.0828 65.6283 58.1045 65.5932C58.1222 65.5647 58.1669 65.5413 58.204 65.5413C58.2411 65.5413 58.2612 65.5248 58.2487 65.5046C58.2362 65.4844 58.2653 65.4395 58.3134 65.4049C58.3616 65.3702 58.4009 65.325 58.4009 65.3043C58.4009 65.2511 58.8207 64.8432 58.8616 64.8565C58.8801 64.8627 58.8953 64.8361 58.8953 64.7976C58.8953 64.7591 58.9104 64.7368 58.929 64.7479C58.9475 64.7592 58.9874 64.7416 59.0175 64.709C59.0608 64.6623 59.0608 64.645 59.0175 64.6275C58.9874 64.6152 59.0094 64.6037 59.0665 64.6017C59.1236 64.5997 59.1577 64.5779 59.1425 64.5532C59.1272 64.5285 59.1484 64.5083 59.1895 64.5083C59.2365 64.5083 59.2551 64.4841 59.2394 64.4432C59.2228 64.3997 59.236 64.3865 59.2795 64.4031C59.3204 64.4188 59.3447 64.4002 59.3447 64.3533C59.3447 64.3122 59.3649 64.2909 59.3896 64.3062C59.4146 64.3216 59.4349 64.2878 59.4352 64.2303C59.4358 64.1469 59.4445 64.1397 59.4795 64.1939C59.5167 64.2515 59.5232 64.2499 59.5238 64.1827C59.5241 64.1395 59.5468 64.1041 59.5742 64.1041C59.6015 64.1041 59.6119 64.0728 59.5971 64.0344C59.5812 63.9928 59.5892 63.9762 59.6168 63.9934C59.6751 64.0293 59.802 63.9286 59.7678 63.8734C59.7539 63.8508 59.7693 63.838 59.802 63.8447C59.8348 63.8516 59.856 63.8304 59.8491 63.7976C59.8424 63.7649 59.8548 63.7492 59.8767 63.7628C59.9181 63.7884 60.1235 63.5802 60.2487 63.3855C60.3463 63.2338 60.7316 62.8465 60.7849 62.8465C60.8084 62.8465 60.8277 62.8129 60.8277 62.7716C60.8277 62.7305 60.84 62.7091 60.855 62.724C60.8906 62.7596 61.0042 62.6546 60.9776 62.6107C60.9665 62.5922 60.9938 62.5767 61.0385 62.5764C61.1075 62.5758 61.1096 62.5691 61.0524 62.5321C60.9953 62.4953 60.9976 62.4885 61.0669 62.4879C61.1653 62.4871 61.2771 62.3838 61.2771 62.2939C61.2771 62.1972 61.3967 62.1078 61.4266 62.1822C61.4413 62.2191 61.451 62.2116 61.4533 62.1616C61.4553 62.1184 61.4741 62.083 61.4952 62.083C61.5846 62.083 61.8133 61.8123 61.7886 61.7356C61.7695 61.6764 61.7738 61.6715 61.806 61.7164C61.8437 61.7691 62.1759 61.445 62.1759 61.3555C62.1759 61.3434 62.2973 61.2092 62.4456 61.0573C62.5939 60.9054 62.7152 60.7919 62.7152 60.805C62.7152 60.8181 62.7434 60.8029 62.7779 60.7711C62.8124 60.7392 62.8314 60.698 62.8202 60.6795C62.809 60.6609 62.8363 60.6455 62.8811 60.6451C62.95 60.6446 62.9522 60.6378 62.895 60.6009C62.8409 60.566 62.8486 60.5572 62.9335 60.5566C63.0073 60.5562 63.0318 60.5363 63.0144 60.4908C62.9978 60.4474 63.011 60.4341 63.0545 60.4508C63.0954 60.4665 63.1197 60.4478 63.1197 60.4009C63.1197 60.3556 63.1403 60.3388 63.1717 60.3582C63.2073 60.3802 63.2158 60.3599 63.1983 60.2936C63.1844 60.2402 63.1914 60.1967 63.2137 60.1967C63.2362 60.1967 63.2545 60.2181 63.2545 60.2443C63.2545 60.2704 63.2738 60.2799 63.2975 60.2653C63.3211 60.2507 63.329 60.2088 63.315 60.1723C63.2969 60.125 63.3106 60.1139 63.3624 60.1338C63.4147 60.1539 63.428 60.1425 63.4092 60.0939C63.395 60.0566 63.408 60.0108 63.4382 59.9922C63.4733 59.9704 63.4816 59.9769 63.461 60.01C63.3854 60.1324 63.5151 60.0442 63.6671 59.8698C64.0066 59.4803 64.0633 59.4099 64.0634 59.377C64.0634 59.3585 64.0931 59.3433 64.1293 59.3433C64.1655 59.3433 64.2168 59.3029 64.2432 59.2535C64.2696 59.2041 64.312 59.1637 64.3374 59.1637C64.3626 59.1637 64.3708 59.1839 64.3556 59.2086ZM33.1331 60.5859C33.225 60.6225 33.1968 60.7032 33.101 60.6781C33.0523 60.6654 33.0169 60.6757 33.0223 60.7009C33.0276 60.7262 33.0039 60.7571 32.9695 60.7695C32.9262 60.7852 32.9185 60.7733 32.9445 60.7302C32.9762 60.6777 32.9703 60.6776 32.9058 60.7299C32.8235 60.7966 32.8016 60.8481 32.8747 60.803C32.8994 60.7877 32.9196 60.7985 32.9196 60.827C32.9196 60.8554 32.8829 60.8883 32.8381 60.9001C32.7358 60.9268 32.7073 61.7237 32.8085 61.7237C32.8394 61.7237 32.8619 61.756 32.8585 61.7955C32.855 61.835 32.9019 61.9007 32.9627 61.9414C33.0339 61.9894 33.0602 61.9945 33.0366 61.9561C33.0065 61.9072 33.0164 61.9068 33.0929 61.9547C33.1592 61.996 33.1702 62.0223 33.1313 62.0466C33.1014 62.0654 35.9385 62.0762 39.436 62.0707C44.7989 62.0621 45.7931 62.0509 45.7821 61.9989C45.774 61.9608 45.7942 61.9469 45.8349 61.9625C45.9108 61.9917 46.0131 61.8908 45.9633 61.8359C45.9449 61.8157 45.9516 61.8114 45.9781 61.8264C46.0045 61.8415 46.0568 61.8182 46.094 61.7748C46.1687 61.6877 46.1974 60.9153 46.126 60.9153C46.1046 60.9153 46.0872 60.8828 46.0872 60.8431C46.0872 60.7985 46.0623 60.7804 46.0221 60.7959C45.9786 60.8125 45.9653 60.7993 45.982 60.7558C46.0058 60.6938 45.9543 60.6709 45.8281 60.6876C45.7968 60.6916 45.7766 60.6687 45.7832 60.6367C45.7929 60.5892 44.6205 60.5771 39.436 60.571C35.9385 60.5669 33.1022 60.5736 33.1331 60.5859ZM33.1219 65.5413C33.1066 65.566 33.0548 65.5862 33.0068 65.5862C32.9589 65.5862 32.9196 65.6058 32.9196 65.6297C32.9196 65.6537 32.955 65.6606 32.9983 65.6451C33.083 65.6147 33.0782 65.6217 32.9447 65.7224C32.8901 65.7637 32.8701 65.7674 32.8912 65.7322C32.9098 65.7013 32.9036 65.6761 32.8774 65.6761C32.8512 65.6761 32.8298 65.7379 32.8298 65.8135C32.8298 65.8936 32.811 65.9393 32.7848 65.9231C32.7563 65.9055 32.7399 66.0274 32.7399 66.2572C32.7399 66.4687 32.7585 66.6192 32.7848 66.6192C32.8095 66.6192 32.8298 66.6618 32.8298 66.7139C32.8298 66.778 32.8507 66.8005 32.8949 66.7835C32.9405 66.766 32.9518 66.7801 32.9322 66.8309C32.9105 66.8875 32.9256 66.8976 33.002 66.8777C33.0673 66.8607 33.0994 66.8727 33.0994 66.9144C33.0994 66.9672 34.0628 66.9769 39.4135 66.9777C44.4342 66.9783 45.7278 66.967 45.7284 66.9224C45.7289 66.8804 45.7386 66.8813 45.767 66.9262C45.7976 66.9744 45.8105 66.972 45.8325 66.9146C45.8477 66.8751 45.8859 66.8482 45.9175 66.8546C45.949 66.861 45.9698 66.841 45.9636 66.8101C45.9575 66.7793 45.9772 66.759 46.0076 66.7652C46.0378 66.7714 46.0701 66.7259 46.0792 66.6642C46.0883 66.6024 46.1116 66.5317 46.1308 66.507C46.1985 66.4201 46.1701 65.8557 46.0981 65.8557C46.0604 65.8557 46.043 65.829 46.0569 65.7926C46.0862 65.7162 45.9529 65.5862 45.8451 65.5862C45.8023 65.5862 45.7798 65.566 45.7951 65.5413C45.8398 65.469 33.2697 65.4802 33.1916 65.5526C33.1432 65.5975 33.1375 65.5975 33.1629 65.5526C33.2003 65.4862 33.1623 65.4759 33.1219 65.5413ZM63.2784 67.5076L63.1499 67.6298L63.2583 67.4898C63.318 67.4128 63.3759 67.3577 63.387 67.3676C63.398 67.3775 63.3492 67.4405 63.2784 67.5076ZM58.4236 72.5925C58.3788 72.642 58.3568 72.6825 58.3748 72.6825C58.4221 72.6825 58.5501 72.5472 58.5259 72.523C58.5145 72.5116 58.4686 72.5429 58.4236 72.5925ZM52.6246 73.0404C52.8701 73.2866 53.0788 73.4802 53.0885 73.4705C53.1109 73.4481 52.2565 72.5927 52.2118 72.5927C52.1934 72.5927 52.3791 72.7941 52.6246 73.0404ZM51.0548 73.6321C51.1775 73.7591 51.2526 73.8489 51.2217 73.8315C51.0987 73.7626 51.1809 73.867 51.5019 74.1878C51.8088 74.4947 51.9346 74.5963 51.8621 74.4791C51.8033 74.3841 51.8741 74.4434 52.1108 74.6875C52.2459 74.8268 52.3312 74.9267 52.3003 74.9094C52.1914 74.8485 52.2464 74.9263 52.4709 75.1506C52.6957 75.3753 52.7726 75.4295 52.7127 75.3212C52.6956 75.2903 52.7686 75.3497 52.8752 75.4531C53.049 75.6221 53.0826 75.8606 52.9182 75.7591C52.8991 75.7473 52.8586 75.7675 52.8283 75.8041C52.7936 75.8459 52.7335 75.8606 52.6663 75.8438C52.5909 75.8248 52.551 75.8389 52.5308 75.8917C52.5147 75.9336 52.4736 75.9555 52.4372 75.9414C52.4015 75.9277 52.3417 75.9469 52.3045 75.9842C52.2673 76.0214 52.2182 76.0404 52.1955 76.0263C52.1727 76.0123 52.1542 76.0317 52.1542 76.0694C52.1542 76.113 52.1287 76.1283 52.0843 76.1112C52.0436 76.0956 51.977 76.1245 51.9252 76.18C51.8356 76.2763 51.7205 76.3143 51.7722 76.2307C51.7875 76.206 51.7786 76.1858 51.7524 76.1858C51.7262 76.1858 51.7048 76.206 51.7048 76.2307C51.7048 76.2554 51.6643 76.2756 51.6149 76.2756C51.5655 76.2756 51.525 76.2958 51.525 76.3205C51.525 76.3452 51.4867 76.3654 51.44 76.3654C51.3931 76.3654 51.3425 76.3979 51.3272 76.4375C51.31 76.4822 51.2716 76.4987 51.2255 76.4811C51.1804 76.4638 51.1075 76.4927 51.0389 76.5551C50.977 76.6113 50.9409 76.6321 50.9587 76.6012C51.0114 76.5098 50.9213 76.5373 50.8516 76.6339C50.8045 76.6992 50.7783 76.7081 50.7525 76.6676C50.7283 76.6295 50.7172 76.6375 50.7168 76.6937C50.7164 76.7385 50.6951 76.762 50.6691 76.7459C50.6434 76.73 50.5946 76.7399 50.5608 76.7679C50.5186 76.803 50.4903 76.8042 50.4703 76.7718C50.4542 76.7459 50.4209 76.7247 50.3962 76.7247C50.3715 76.7247 50.365 76.747 50.3819 76.7741C50.4033 76.8088 50.384 76.8084 50.317 76.7726C50.2647 76.7445 50.2218 76.7009 50.2218 76.6755C50.2218 76.6503 50.2038 76.6407 50.1818 76.6543C50.1597 76.6679 50.1087 76.6287 50.0684 76.5672C50.0279 76.5055 49.9601 76.4537 49.9174 76.4516C49.8627 76.4492 49.8578 76.441 49.901 76.4238C49.9504 76.4042 49.9511 76.3925 49.9042 76.3636C49.8176 76.3102 49.8367 75.8842 49.9303 75.7809C49.9724 75.7343 49.9909 75.6732 49.972 75.6427C49.9498 75.6067 49.9571 75.5996 49.9931 75.6219C50.0267 75.6427 50.0448 75.6323 50.0396 75.5952C50.0229 75.473 50.0432 75.4177 50.0934 75.4487C50.1295 75.471 50.1364 75.4462 50.1163 75.3662C50.0956 75.284 50.1078 75.2442 50.1597 75.2243C50.2055 75.2068 50.2233 75.1639 50.2086 75.1073C50.1939 75.051 50.203 75.0289 50.233 75.0474C50.2637 75.0664 50.2718 75.0422 50.2555 74.9801C50.2393 74.918 50.2474 74.8937 50.2779 74.9127C50.3086 74.9317 50.3167 74.9074 50.3004 74.8453C50.2865 74.792 50.2934 74.7598 50.3158 74.7736C50.3383 74.7874 50.3566 74.7606 50.3566 74.7137C50.3566 74.667 50.3708 74.6146 50.3883 74.5972C50.4057 74.5798 50.4263 74.5107 50.4343 74.4437C50.4488 74.3211 50.6197 73.9382 50.6797 73.8938C50.6974 73.8807 50.7126 73.8302 50.7134 73.7816C50.7161 73.6203 50.7308 73.5408 50.7573 73.5437C50.8752 73.5564 50.9044 73.533 50.8509 73.4685C50.7286 73.3212 50.8442 73.4139 51.0548 73.6321ZM50.8959 73.5519C50.8959 73.5983 51.1219 73.8191 51.1453 73.7956C51.1558 73.785 51.1042 73.7185 51.0302 73.6477C50.9563 73.577 50.8959 73.5339 50.8959 73.5519ZM54.1093 74.5242C54.1543 74.5738 54.2002 74.605 54.2116 74.5937C54.2358 74.5695 54.1078 74.4341 54.0605 74.4341C54.0425 74.4341 54.0645 74.4747 54.1093 74.5242ZM51.8846 74.5388C51.8846 74.5846 52.2007 74.8966 52.2237 74.8736C52.2341 74.8634 52.1619 74.7764 52.0635 74.6804C51.9651 74.5843 51.8846 74.5206 51.8846 74.5388ZM33.1664 75.3781C33.1509 75.4032 33.1211 75.4133 33.1003 75.4003C33.0446 75.3659 32.916 75.425 32.945 75.4719C32.9587 75.494 32.9372 75.5121 32.8972 75.5121C32.8572 75.5121 32.8371 75.5324 32.8525 75.5573C32.8678 75.5821 32.8471 75.6153 32.8064 75.6309C32.7472 75.6537 32.7444 75.6669 32.7922 75.6973C32.8316 75.7221 32.834 75.7355 32.7998 75.736C32.7639 75.7364 32.7483 75.8498 32.7506 76.0936C32.7527 76.3259 32.7711 76.4475 32.803 76.4417C32.8301 76.4368 32.8525 76.4674 32.8528 76.5097C32.8535 76.6082 32.9464 76.701 33.0449 76.7017C33.0873 76.702 33.1169 76.7272 33.1109 76.7576C33.0918 76.8543 42.9682 76.8368 43.0053 76.74C43.0208 76.6998 43.0464 76.68 43.0624 76.696C43.1082 76.7418 43.256 76.585 43.256 76.4905C43.256 76.4436 43.2734 76.4157 43.2946 76.4289C43.3158 76.442 43.3371 76.2916 43.3419 76.0947C43.3483 75.8265 43.3358 75.7364 43.292 75.736C43.2499 75.7354 43.2524 75.723 43.3009 75.6917C43.3581 75.6548 43.356 75.648 43.287 75.6475C43.2423 75.6471 43.2183 75.6265 43.2337 75.6016C43.2726 75.5387 43.1336 75.4092 43.0696 75.4487C43.0347 75.4703 43.0296 75.4613 43.0542 75.4216C43.0809 75.3783 43.0705 75.3699 43.0162 75.3907C42.9751 75.4065 42.9414 75.3999 42.9414 75.3759C42.9414 75.3144 33.2045 75.3166 33.1664 75.3781ZM52.7384 75.3915C52.7384 75.4107 52.7893 75.4773 52.8517 75.5395C52.9139 75.6017 52.9513 75.6766 52.9349 75.7059C52.915 75.7411 52.9256 75.74 52.9662 75.7023C53.0173 75.6549 53.0033 75.6214 52.8829 75.5011C52.8035 75.4216 52.7384 75.3723 52.7384 75.3915Z" fill="white"/>
</svg>
