<svg width="114" height="104" viewBox="0 0 114 104" fill="none" xmlns="http://www.w3.org/2000/svg">
<path d="M99.9391 78.5265C92.7407 84.3123 51.8119 103.581 40.8095 103.581C-31.1744 99.9651 9.18797 8.01157 32.8398 1.03757C56.4917 -5.93643 52.1493 24.3876 68.6028 28.262C81.7656 31.3616 94.626 34.1856 98.6537 35.9076C127.131 49.3706 108.937 71.2942 99.9391 78.5265Z" fill="#CA256D"/>
<path fill-rule="evenodd" clip-rule="evenodd" d="M54.8612 41.9787C53.4105 42.3591 52.0088 43.2778 51.2114 44.371L50.746 45.0091L38.8986 45.0438L27.0513 45.0785L26.3382 45.4164C25.3721 45.8742 24.482 46.7586 24.0327 47.7072L23.6819 48.4479L23.6517 57.2961C23.6243 65.3085 23.6385 66.1965 23.8023 66.6979C24.3336 68.3228 25.6816 69.5569 27.3012 69.9008C27.6234 69.9692 28.8809 70.0231 30.1543 70.0231H32.4315V72.8981C32.4315 74.5947 32.4812 76.009 32.5527 76.349C32.9437 78.208 34.4345 79.6705 36.2879 80.0131C36.7068 80.0905 39.3532 80.1314 43.9499 80.1314C51.6427 80.1314 51.6755 80.1337 52.8053 80.7802C53.4319 81.1387 54.2239 81.9367 57.6413 85.6532C59.1563 87.3007 60.2264 88.3744 60.4851 88.5063C61.4776 89.0126 62.7589 88.6462 63.3541 87.6858L63.6802 87.1598L63.7345 84.1075C63.781 81.4981 63.8151 81.0183 63.9691 80.8007C64.2795 80.3624 64.5974 80.2168 65.4531 80.1208C66.6457 79.9871 67.3853 79.721 68.129 79.1581C68.9408 78.5438 69.5471 77.6891 69.8289 76.7615C70.0379 76.0732 70.0439 75.7684 70.0146 67.3574L69.9843 58.6649L69.5804 57.8191C69.3135 57.2601 68.9861 56.7878 68.6148 56.4262L68.0531 55.879L69.3508 54.5546C70.9077 52.9658 71.245 52.5408 71.6661 51.6377C72.2102 50.4707 72.3533 49.7047 72.292 48.2877C72.2262 46.7684 71.9863 46.0063 71.2063 44.8402C70.2666 43.4351 68.6319 42.3161 66.9409 41.9201C66.3797 41.7887 65.8665 41.7559 64.9845 41.7949C63.56 41.858 62.7393 42.111 61.7003 42.8077L60.9961 43.28L60.6507 43.0165C60.1689 42.649 59.0201 42.1295 58.25 41.9307C57.3695 41.7033 55.8284 41.7253 54.8612 41.9787ZM55.6604 43.6155C54.9407 43.7365 53.8531 44.2662 53.2955 44.7674C52.65 45.3477 52.0313 46.3412 51.7608 47.2319C51.5751 47.8435 51.5425 48.1743 51.5838 49.0314C51.6271 49.9321 51.6853 50.1894 51.9928 50.8406C52.3227 51.5397 52.6807 51.9308 56.5084 55.7755C60.2485 59.5321 60.7005 59.951 61.013 59.951C61.3246 59.951 61.7625 59.5496 65.271 56.0473C67.4219 53.9002 69.3553 51.9096 69.5676 51.6238C70.0535 50.9693 70.3362 50.2299 70.4751 49.2505C70.782 47.087 69.6306 45.0353 67.5749 44.0827C65.6547 43.1927 63.5068 43.4753 62.0606 44.8084C61.5316 45.2961 61.0868 45.4953 60.7584 45.392C60.6317 45.3522 60.2836 45.0988 59.9847 44.8292C59.3067 44.2174 58.3503 43.7634 57.4305 43.6168C56.6379 43.4904 56.4055 43.4902 55.6604 43.6155ZM27.8122 46.8645C27.1641 46.9749 26.6143 47.277 26.1737 47.7646C25.3727 48.6513 25.4209 48.0256 25.4209 57.5236V66.0559L25.7433 66.638C25.9207 66.9581 26.2359 67.3603 26.4437 67.5317C27.1329 68.0997 27.5643 68.1753 30.114 68.1753H32.4315V63.7787C32.4315 60.979 32.4753 59.1729 32.5521 58.8061C32.944 56.9326 34.5875 55.4075 36.5074 55.1358C36.9526 55.0727 40.5525 55.0271 45.1858 55.0259L53.1033 55.0237L52.1562 54.0183C51.6353 53.4653 51.0663 52.8057 50.8918 52.5524C50.4549 51.9184 49.9771 50.7564 49.8174 49.9397C49.6863 49.2694 49.7248 47.527 49.8821 47.0078L49.9561 46.7632L39.1016 46.7768C33.1315 46.7843 28.0513 46.8237 27.8122 46.8645ZM36.5074 56.9734C35.9577 57.1079 35.3079 57.4919 34.9603 57.8877C34.2542 58.6919 34.2709 58.439 34.3038 67.8036L34.3336 76.2728L34.5745 76.7231C34.7069 76.9707 35.0183 77.3471 35.2664 77.5595C36.1332 78.3015 35.9196 78.2834 43.8363 78.2855C51.6368 78.2875 51.8119 78.2996 53.1526 78.9271C53.5302 79.1038 54.0601 79.4003 54.3299 79.5859C54.5998 79.7716 56.2905 81.511 58.0871 83.4512C59.8836 85.3915 61.3907 86.9789 61.4364 86.9789C61.4819 86.9789 61.6 86.9178 61.6987 86.843C61.8564 86.7236 61.8819 86.3457 61.9096 83.7182L61.9411 80.7292L62.2307 80.1857C62.8553 79.013 63.7981 78.4203 65.2562 78.2836C66.3288 78.183 66.8476 77.9644 67.4511 77.3584C68.216 76.5904 68.1909 76.9248 68.1909 67.5252V59.088L67.9096 58.5235C67.7548 58.2129 67.4271 57.7868 67.1814 57.5763L66.7344 57.1938L64.6639 59.2485C63.4569 60.4462 62.4024 61.399 62.1357 61.5329C61.5347 61.8345 60.5943 61.8371 59.9373 61.5391C59.6043 61.388 58.7619 60.6322 57.2145 59.0959L54.9739 56.8715L45.9037 56.8826C40.9151 56.8888 36.6868 56.9296 36.5074 56.9734ZM38.1007 63.6756C37.9641 63.7713 37.8068 63.9693 37.7512 64.1156C37.6101 64.4868 37.8818 65.102 38.2483 65.2413C38.4278 65.3096 41.712 65.3494 47.1717 65.3494C56.3317 65.3494 56.3032 65.3509 56.4934 64.8554C56.6385 64.4772 56.5567 64.0309 56.2941 63.7685L56.0274 63.5016H47.1883C39.2596 63.5016 38.3237 63.5196 38.1007 63.6756ZM38.2832 69.9267C37.9503 70.0511 37.6142 70.6689 37.7188 70.9642C37.7578 71.0742 37.8888 71.2743 38.0099 71.4089L38.2301 71.6535H43.3791H48.5281L48.7947 71.3659C49.134 70.9998 49.1356 70.5564 48.799 70.165L48.5368 69.8601L43.5546 69.8393C40.4639 69.8265 38.4628 69.8596 38.2832 69.9267Z" fill="white"/>
</svg>
