<svg width="21" height="32" viewBox="0 0 21 32" fill="none" xmlns="http://www.w3.org/2000/svg">
<g clip-path="url(#clip0_656_19708)">
<path d="M0 10.7524C0 10.656 0 10.5586 0 10.4623C0.0904841 7.65775 1.25336 5.00111 3.2392 3.06219C5.22505 1.12327 7.8757 0.0564813 10.6226 0.0906395C13.3696 0.124798 15.994 1.25718 17.9331 3.24491C19.8721 5.23264 20.9713 7.9174 20.9949 10.7234C20.9949 10.8197 20.9949 10.9171 20.9949 11.0134C20.9425 12.6396 20.5043 14.2284 19.718 15.6433L18.8488 17.2243L15.4216 23.2859L10.4975 31.9987L5.57431 23.2859L2.14717 17.2243L1.28506 15.6433C0.457489 14.1507 0.0152652 12.4676 0 10.7524Z" fill="#CA256D"/>
<path d="M18.9391 10.5296C18.9386 12.4477 18.3123 14.3108 17.1591 15.8246C16.0059 17.3383 14.3917 18.4163 12.5716 18.8881C12.2109 18.9827 11.8442 19.0519 11.4742 19.0953C10.8142 19.1754 10.1473 19.1754 9.4873 19.0953C9.11697 19.0518 8.74998 18.9826 8.38887 18.8881C6.86013 18.4854 5.47259 17.6529 4.38388 16.485C3.29517 15.3172 2.54895 13.8608 2.22998 12.2815C1.91101 10.7021 2.03208 9.06304 2.57944 7.55045C3.12679 6.03785 4.07849 4.71238 5.32642 3.72461C6.57435 2.73685 8.06849 2.12638 9.63908 1.96257C11.2097 1.79876 12.7938 2.08817 14.2114 2.79792C15.629 3.50767 16.8233 4.60931 17.6587 5.97769C18.494 7.34606 18.9369 8.92632 18.937 10.5389L18.9391 10.5296Z" fill="white"/>
</g>
<defs>
<clipPath id="clip0_656_19708">
<rect width="21" height="32" fill="white"/>
</clipPath>
</defs>
</svg>
