<svg width="114" height="104" viewBox="0 0 114 104" fill="none" xmlns="http://www.w3.org/2000/svg">
<path d="M99.9391 78.5265C92.7407 84.3123 51.8119 103.581 40.8095 103.581C-31.1744 99.9651 9.18797 8.01157 32.8398 1.03757C56.4917 -5.93643 52.1493 24.3876 68.6028 28.262C81.7656 31.3616 94.626 34.1856 98.6537 35.9076C127.131 49.3706 108.937 71.2942 99.9391 78.5265Z" fill="#CA256D"/>
<path fill-rule="evenodd" clip-rule="evenodd" d="M28.6265 38.4977C28.59 38.5533 28.528 38.5961 28.4888 38.5927C28.4492 38.5892 28.412 38.6215 28.405 38.6653C28.3981 38.7086 28.3531 38.7717 28.3049 38.8055L28.2171 38.8669L28.2166 57.0368C28.2163 67.0301 28.2105 75.212 28.2039 75.2185C28.1974 75.2251 27.5808 75.2332 26.8338 75.2365C25.877 75.2406 25.4577 75.2569 25.4145 75.2915C25.3663 75.3301 25.3605 75.3286 25.387 75.2844C25.4149 75.2382 25.4054 75.2379 25.3343 75.2824C25.2866 75.3121 25.2538 75.347 25.2616 75.3598C25.2693 75.3727 25.249 75.4078 25.2163 75.438C25.1782 75.4733 25.1571 75.4761 25.1571 75.4461C25.1571 75.4205 25.1367 75.412 25.1117 75.4274C25.0869 75.4428 25.0774 75.4665 25.0909 75.4799C25.1044 75.4934 25.0762 75.5459 25.0284 75.5968C24.9082 75.7249 24.9236 77.7503 25.0461 77.9089C25.0818 77.9551 25.0807 77.9626 25.042 77.9394C25.0068 77.9182 25.0094 77.9446 25.0504 78.0238C25.0833 78.0872 25.1006 78.1547 25.0887 78.1739C25.0768 78.1931 25.0873 78.2088 25.112 78.2088C25.1368 78.2088 25.1571 78.2592 25.1571 78.3207C25.1571 78.3822 25.1953 78.4657 25.242 78.5062C25.2888 78.5468 25.3311 78.6289 25.3361 78.6887C25.3411 78.7485 25.3563 78.7906 25.3701 78.7821C25.3838 78.7736 25.4193 78.8057 25.4491 78.8534C25.479 78.9012 25.4829 78.9274 25.4577 78.9118C25.3774 78.8622 25.4086 78.9239 25.5206 79.0358C25.5802 79.0955 25.6173 79.1633 25.603 79.1864C25.5887 79.2097 25.6079 79.2286 25.6457 79.2286C25.6835 79.2286 25.7026 79.2477 25.6882 79.2711C25.6738 79.2944 25.6821 79.3136 25.7069 79.3136C25.7316 79.3136 25.7519 79.3422 25.7519 79.3773C25.7519 79.4124 25.78 79.441 25.8143 79.441C25.8523 79.441 25.8672 79.466 25.8523 79.5048C25.835 79.5499 25.8571 79.5695 25.9279 79.5719C25.9831 79.5737 26.0034 79.5851 25.9732 79.5972C25.9313 79.6141 25.93 79.6332 25.9675 79.6783C25.9944 79.711 26.0364 79.7252 26.0607 79.7102C26.0851 79.6951 26.0927 79.7028 26.0776 79.7271C26.0429 79.7834 26.1586 79.8822 26.217 79.8462C26.2441 79.8294 26.2501 79.8469 26.2328 79.892C26.2139 79.9415 26.2209 79.955 26.2546 79.9341C26.285 79.9153 26.3043 79.931 26.3043 79.9742C26.3043 80.0196 26.3271 80.0362 26.368 80.0205C26.4068 80.0056 26.4318 80.0205 26.4318 80.0585C26.4318 80.0928 26.4605 80.1209 26.4955 80.1209C26.5306 80.1209 26.5593 80.1412 26.5593 80.1659C26.5593 80.1907 26.5784 80.1991 26.6017 80.1846C26.6251 80.1702 26.6442 80.1881 26.6442 80.2246C26.6442 80.261 26.6586 80.287 26.6761 80.2825C26.7478 80.2634 26.8992 80.3432 26.8992 80.3999C26.8992 80.4369 26.9419 80.4608 27.008 80.4608C27.0836 80.4608 27.107 80.477 27.0848 80.5139C27.0631 80.55 27.0758 80.5483 27.1247 80.5087C27.1715 80.4707 27.1966 80.467 27.1966 80.4981C27.1966 80.5243 27.2336 80.5458 27.2787 80.5458C27.3239 80.5458 27.3729 80.584 27.3878 80.6308C27.4067 80.6903 27.4521 80.7157 27.5394 80.7157C27.6079 80.7157 27.664 80.7331 27.664 80.7543C27.664 80.7754 27.7001 80.7833 27.7442 80.7718C27.7883 80.7603 27.8372 80.7715 27.8528 80.7968C27.8839 80.8471 57.5227 80.8666 57.8882 80.8164C57.9965 80.8016 58.0749 80.7729 58.0624 80.7526C58.0499 80.7323 58.1077 80.7157 58.1908 80.7157C58.274 80.7157 58.3421 80.6966 58.3421 80.6733C58.3421 80.6499 58.3722 80.6308 58.4089 80.6308C58.4456 80.6308 58.5045 80.6019 58.5398 80.5666C58.5751 80.5313 58.6215 80.5134 58.6429 80.5267C58.6645 80.5399 58.682 80.5076 58.682 80.4549C58.682 80.379 58.693 80.3698 58.7341 80.4109C58.7753 80.4521 58.7998 80.4456 58.8509 80.3801C58.8866 80.3345 58.954 80.291 59.0007 80.2834C59.0975 80.2677 59.1919 80.1901 59.1919 80.1264C59.1919 80.1027 59.214 80.0698 59.241 80.0531C59.2714 80.0343 59.2785 80.0414 59.2597 80.0718C59.243 80.0988 59.2496 80.1209 59.2743 80.1209C59.2991 80.1209 59.3194 80.0928 59.3194 80.0585C59.3194 80.0242 59.3661 79.9716 59.4234 79.9417C59.4805 79.9117 59.5331 79.8681 59.5402 79.8447C59.5472 79.8213 59.5685 79.8073 59.5872 79.8136C59.6495 79.8344 59.7504 79.7056 59.6907 79.6815C59.6617 79.6697 59.6831 79.6587 59.7382 79.6569C59.8037 79.6547 59.8308 79.6337 59.8165 79.5965C59.8045 79.5652 59.8138 79.5126 59.8372 79.4797C59.8709 79.4322 59.8748 79.4353 59.8558 79.4941C59.8101 79.6364 59.8976 79.5675 59.9512 79.4192C59.9836 79.3296 60.0239 79.2813 60.0519 79.2986C60.0817 79.317 60.0891 79.3026 60.0723 79.259C60.0538 79.2108 60.0643 79.1975 60.1076 79.214C60.1494 79.2301 60.1692 79.2088 60.1692 79.1482C60.1692 79.0989 60.1892 79.0586 60.2136 79.0586C60.2379 79.0586 60.2548 79.0347 60.251 79.0055C60.2364 78.8933 60.2571 78.8509 60.3392 78.8249C60.3942 78.8075 60.4241 78.7607 60.4241 78.692C60.4241 78.6323 60.4426 78.5976 60.4666 78.6125C60.49 78.6269 60.5091 78.5994 60.5091 78.5513C60.5091 78.5032 60.5282 78.4638 60.5516 78.4638C60.575 78.4638 60.5941 78.4435 60.5941 78.4187C60.5941 78.394 60.575 78.3856 60.5516 78.4C60.5282 78.4145 60.5091 78.4061 60.5091 78.3813C60.5091 78.3566 60.5291 78.3363 60.5535 78.3363C60.5778 78.3363 60.5922 78.3028 60.5854 78.2619C60.5781 78.2186 60.5961 78.1923 60.6286 78.199C60.6682 78.2072 60.6786 78.1735 60.6644 78.0836C60.6515 78.0014 60.6618 77.9598 60.6936 77.9658C60.7249 77.9717 60.7419 77.9101 60.7404 77.7971C60.739 77.6991 60.7534 77.6286 60.7726 77.6404C60.7916 77.6522 60.82 77.6283 60.8358 77.5873C60.8521 77.5446 60.8431 77.5057 60.8145 77.4962C60.7805 77.4849 60.7774 77.4558 60.8051 77.4041C60.8273 77.3627 60.8428 77.2829 60.8395 77.2271C60.8362 77.1711 60.8369 75.3573 60.8413 73.1964L60.849 69.2674L61.0827 69.4983C61.2113 69.6252 61.3164 69.7547 61.3164 69.7861C61.3164 69.8175 61.3356 69.8314 61.3589 69.817C61.3823 69.8025 61.4014 69.8216 61.4014 69.8594C61.4014 69.8973 61.4205 69.9164 61.4439 69.9019C61.4673 69.8875 61.4864 69.9054 61.4864 69.9419C61.4864 69.9783 61.5162 70.0082 61.5527 70.0082C61.5891 70.0082 61.6071 70.0273 61.5926 70.0506C61.5782 70.074 61.5973 70.0931 61.6351 70.0931C61.6729 70.0931 61.692 70.1123 61.6776 70.1356C61.6632 70.159 61.6823 70.1781 61.7201 70.1781C61.7579 70.1781 61.781 70.1925 61.7714 70.21C61.7483 70.2521 62.1934 70.6892 62.226 70.6566C62.2399 70.6426 62.2512 70.6643 62.2512 70.7047C62.2512 70.745 62.2703 70.7662 62.2937 70.7517C62.3171 70.7373 62.3362 70.7552 62.3362 70.7917C62.3362 70.8281 62.3661 70.858 62.4025 70.858C62.4389 70.858 62.4569 70.8771 62.4424 70.9005C62.428 70.9238 62.4471 70.9429 62.4849 70.9429C62.5227 70.9429 62.5427 70.9607 62.5293 70.9824C62.5159 71.004 62.5434 71.034 62.5905 71.049C62.6376 71.0639 62.6761 71.0918 62.6761 71.1108C62.6761 71.1299 62.7144 71.1555 62.7611 71.1677C62.8078 71.1799 62.8461 71.2204 62.8461 71.2577C62.8461 71.2949 62.8801 71.3254 62.9217 71.3254C62.9633 71.3254 63.0231 71.3612 63.0546 71.4049C63.089 71.4527 63.1441 71.4761 63.1922 71.4636C63.255 71.4471 63.266 71.459 63.2432 71.5183C63.2195 71.58 63.2312 71.5895 63.3064 71.5699C63.3686 71.5535 63.3985 71.5651 63.3985 71.6055C63.3985 71.6384 63.4188 71.6653 63.4435 71.6653C63.4683 71.6653 63.4777 71.648 63.4646 71.6267C63.4516 71.6056 63.4885 71.6104 63.5468 71.6373C63.6051 71.6644 63.6532 71.7057 63.6537 71.729C63.6543 71.7524 63.6733 71.7428 63.6959 71.7078C63.7233 71.6653 63.7373 71.6618 63.7378 71.6972C63.7381 71.7264 63.7755 71.7503 63.8208 71.7503C63.8662 71.7503 63.9146 71.7685 63.9285 71.7909C63.9701 71.8583 65.2685 71.8412 65.2946 71.773C65.3068 71.7411 65.3693 71.7203 65.4382 71.7251C65.5052 71.7298 65.5506 71.7182 65.539 71.6994C65.5274 71.6807 65.5778 71.6653 65.651 71.6653C65.7242 71.6653 65.8129 71.6364 65.8481 71.6011C65.8834 71.5659 65.9298 71.5479 65.9513 71.5612C65.9729 71.5745 65.9904 71.5651 65.9904 71.5404C65.9904 71.5156 66.0204 71.4953 66.0572 71.4953C66.1363 71.4953 66.2527 71.3894 66.2149 71.3517C66.2005 71.3372 66.2253 71.3247 66.2701 71.324C66.3793 71.3222 66.5157 71.2148 66.4807 71.1582C66.4651 71.1329 66.5022 71.0939 66.5646 71.0702C66.6971 71.0197 66.8045 70.9214 66.7673 70.8843C66.7529 70.8698 66.7729 70.858 66.8118 70.858C66.8508 70.858 66.8827 70.8377 66.8827 70.8129C66.8827 70.7882 66.8606 70.7816 66.8336 70.7983C66.804 70.8166 66.7961 70.81 66.8137 70.7814C66.8298 70.7555 66.871 70.7449 66.9053 70.7581C66.9421 70.7722 66.9677 70.7574 66.9677 70.7218C66.9677 70.6886 67.0059 70.6204 67.0526 70.5703C67.0994 70.5202 67.1376 70.4412 67.1376 70.3948C67.1376 70.3485 67.1567 70.2988 67.1801 70.2843C67.2035 70.2699 67.2226 70.2217 67.2226 70.1773C67.2226 70.1329 67.2656 70.0564 67.3182 70.0074C67.4539 69.881 67.4686 68.0807 67.3353 67.9332C67.2921 67.8855 67.2693 67.8262 67.2846 67.8013C67.3 67.7765 67.2924 67.7562 67.2676 67.7562C67.2429 67.7562 67.2226 67.7181 67.2226 67.6715C67.2226 67.625 67.1844 67.563 67.1376 67.5338C67.0909 67.5046 67.0526 67.448 67.0526 67.408C67.0526 67.3316 66.8646 67.1188 66.7971 67.1188C66.7755 67.1188 66.7669 67.0949 66.778 67.0657C66.7891 67.0365 66.7528 66.96 66.6974 66.8957C66.6009 66.7838 66.5092 66.7327 66.564 66.8214C66.6067 66.8905 66.5579 66.8698 66.4948 66.7919C66.4552 66.7431 66.4535 66.7303 66.4896 66.752C66.6315 66.8372 66.4934 66.6804 65.949 66.1381C65.4145 65.6058 65.2536 65.4626 65.3318 65.5892C65.3745 65.6583 65.3257 65.6376 65.2626 65.5597C65.223 65.5109 65.2213 65.4981 65.2574 65.5198C65.3293 65.563 65.3247 65.5122 65.2499 65.4374C65.175 65.3626 65.125 65.358 65.1656 65.4298C65.1822 65.459 65.126 65.4171 65.0407 65.3365C64.8882 65.1925 64.8444 65.1338 64.9281 65.1855C64.9914 65.2246 64.9794 65.167 64.91 65.0974C64.8404 65.028 64.7828 65.016 64.8219 65.0793C64.8646 65.1484 64.8158 65.1277 64.7527 65.0498C64.7131 65.001 64.7114 64.9882 64.7475 65.0099C64.8814 65.0903 64.7656 64.9536 64.3361 64.524C63.9198 64.1077 63.7672 63.9767 63.8446 64.102C63.8873 64.1711 63.8386 64.1504 63.7755 64.0726C63.7358 64.0237 63.7341 64.0109 63.7703 64.0326C63.8678 64.0913 63.825 64.0157 63.676 63.8669C63.5264 63.7172 63.454 63.6764 63.5085 63.7727C63.5251 63.8019 63.4689 63.7599 63.3836 63.6794C63.231 63.5354 63.1873 63.4766 63.271 63.5284C63.3595 63.5831 63.308 63.4987 63.1661 63.357C63.0244 63.2152 62.9401 63.1637 62.9948 63.2522C63.0375 63.3213 62.9888 63.3006 62.9257 63.2228C62.886 63.1739 62.8843 63.1611 62.9204 63.1828C63.0583 63.2657 62.9353 63.1199 62.509 62.6951C62.0925 62.2802 61.9404 62.1501 62.0175 62.2749C62.0602 62.344 62.0115 62.3233 61.9484 62.2455C61.9087 62.1966 61.907 62.1839 61.9432 62.2055C62.0151 62.2488 62.0104 62.198 61.9356 62.1231C61.8607 62.0483 61.8107 62.0437 61.8514 62.1156C61.868 62.1448 61.8118 62.1028 61.7265 62.0223C61.5739 61.8782 61.5302 61.8195 61.6139 61.8712C61.6772 61.9103 61.6652 61.8528 61.5957 61.7832C61.5208 61.7084 61.4706 61.7038 61.512 61.7756C61.5288 61.8048 61.4917 61.7824 61.4296 61.7257C61.3154 61.6217 61.2806 61.5679 61.3589 61.6163C61.3823 61.6307 61.4014 61.6223 61.4014 61.5976C61.4014 61.5728 61.3823 61.5526 61.3589 61.5526C61.3021 61.5526 61.3044 61.395 61.3618 61.3595C61.3868 61.3441 61.3972 61.3054 61.3849 61.2734C61.3726 61.2415 61.3812 61.2038 61.404 61.1898C61.4267 61.1758 61.436 61.1493 61.4248 61.1312C61.4135 61.1129 61.4376 61.0617 61.4784 61.0173C61.5191 60.9728 61.5568 60.8801 61.5621 60.8113C61.5674 60.7426 61.5913 60.6742 61.6152 60.6594C61.639 60.6446 61.6628 60.572 61.6681 60.4978C61.6734 60.4237 61.6919 60.3629 61.7095 60.3629C61.727 60.3628 61.7413 60.3341 61.7413 60.2991C61.7413 60.264 61.7587 60.2354 61.7799 60.2354C61.801 60.2354 61.8091 60.2 61.7977 60.1567C61.7865 60.1134 61.8074 60.0479 61.8443 60.011C61.9189 59.9363 61.9347 59.876 61.8688 59.9167C61.8454 59.9311 61.8263 59.9227 61.8263 59.898C61.8263 59.8732 61.8454 59.8529 61.8688 59.8529C61.8922 59.8529 61.9113 59.8051 61.9113 59.7467C61.9113 59.6883 61.9304 59.6405 61.9538 59.6405C61.9772 59.6405 61.9963 59.6202 61.9963 59.5954C61.9963 59.5707 61.9789 59.5612 61.9575 59.5744C61.9135 59.6016 61.9215 59.4887 61.9667 59.4434C61.983 59.4272 61.9963 59.3693 61.9963 59.3147C61.9963 59.2602 62.0154 59.2156 62.0388 59.2156C62.0621 59.2156 62.0813 59.1953 62.0813 59.1705C62.0813 59.1458 62.0621 59.1374 62.0388 59.1518C62.0154 59.1663 61.9963 59.1483 61.9963 59.1119C61.9963 59.0755 62.0118 59.0456 62.0308 59.0456C62.0498 59.0456 62.07 58.9561 62.0757 58.8466C62.0814 58.737 62.0993 58.6271 62.1155 58.6022C62.1572 58.5382 62.1604 56.6922 62.1188 56.6647C62.0998 56.6521 62.0789 56.5422 62.0722 56.4204C62.0655 56.2985 62.0457 56.1988 62.0281 56.1988C62.0106 56.1988 61.9963 56.1785 61.9963 56.1537C61.9963 56.129 62.0154 56.1206 62.0388 56.135C62.0621 56.1495 62.0813 56.1427 62.0813 56.1198C62.0813 56.097 62.0633 56.072 62.0414 56.0642C62.0194 56.0564 61.9951 56.0022 61.9871 55.9438C61.9793 55.8854 61.9566 55.8116 61.9367 55.7797C61.9137 55.7432 61.922 55.7082 61.959 55.6847C61.9912 55.6643 61.9978 55.6473 61.9738 55.647C61.9496 55.6467 61.9082 55.5889 61.8817 55.5186C61.8517 55.4391 61.8498 55.4009 61.8767 55.4175C61.903 55.4338 61.9016 55.4102 61.8731 55.3569C61.8474 55.3088 61.8263 55.218 61.8263 55.1549C61.8263 55.0904 61.7863 55.0055 61.7349 54.9609C61.6845 54.9173 61.6654 54.8816 61.6924 54.8816C61.7602 54.8816 61.7537 54.8027 61.6794 54.7286C61.6453 54.6945 61.6287 54.6373 61.6425 54.6014C61.6571 54.5634 61.6334 54.5123 61.5859 54.4791C61.534 54.4427 61.5003 54.3624 61.4935 54.2586C61.4876 54.1689 61.4644 54.0891 61.442 54.0814C61.4197 54.0735 61.4014 54.0305 61.4014 53.9858C61.4014 53.9409 61.3823 53.9043 61.3589 53.9043C61.3356 53.9043 61.3164 53.866 61.3164 53.8193C61.3164 53.7726 61.2994 53.7343 61.2787 53.7343C61.2579 53.7343 61.2281 53.6658 61.2123 53.5821C61.1918 53.4728 61.1663 53.4365 61.1221 53.4535C61.0738 53.4719 61.0665 53.452 61.0882 53.3614C61.1035 53.2977 61.1007 53.2598 61.082 53.2772C61.0413 53.3149 60.9337 53.2339 60.9347 53.1661C60.935 53.1398 60.9539 53.1469 60.9765 53.1819C60.9991 53.217 61.018 53.2241 61.0184 53.1978C61.0187 53.1714 60.976 53.1179 60.9234 53.0789C60.8708 53.0399 60.8565 53.0222 60.8915 53.0394C60.9442 53.0653 60.9461 53.0595 60.9024 53.0055C60.8607 52.954 60.8494 51.4664 60.8488 45.9795C60.8482 40.5107 60.8367 39.0049 60.7954 38.9539C60.7535 38.9021 60.7536 38.8953 60.7959 38.9208C60.8251 38.9383 60.849 38.9334 60.849 38.9097C60.849 38.8861 60.8156 38.8474 60.7747 38.8236C60.7338 38.7998 60.7147 38.7797 60.7322 38.779C60.7497 38.7782 60.7306 38.7425 60.6897 38.6994C60.6488 38.6564 60.601 38.6289 60.5835 38.6382C60.5659 38.6476 60.5516 38.6358 60.5516 38.6119C60.5516 38.5881 60.5098 38.5295 60.4587 38.482C60.3534 38.3838 47.4221 38.34 47.4221 38.4378C47.4221 38.4611 47.3934 38.4803 47.3583 38.4803C47.3233 38.4803 47.2946 38.4994 47.2946 38.5227C47.2946 38.5461 47.2679 38.5652 47.2354 38.5652C47.1647 38.5652 47.1129 38.6804 47.1526 38.7496C47.1681 38.7767 47.1658 38.7855 47.1477 38.7691C47.0066 38.6419 46.916 39.5949 47.0558 39.7348C47.0881 39.767 47.1274 39.7806 47.1431 39.7648C47.1587 39.7491 47.1605 39.7653 47.1469 39.8006C47.1223 39.8649 47.2958 40.0524 47.3799 40.0524C47.403 40.0524 47.4221 40.0729 47.4221 40.098C47.4221 40.1229 47.4651 40.1399 47.5177 40.1357C47.5702 40.1314 50.1803 40.13 53.3178 40.1327L59.0223 40.1374L59.0115 45.4558C59.0024 49.95 58.9916 50.7772 58.9416 50.7939C58.9043 50.8063 58.8942 50.7949 58.914 50.7626C58.9522 50.701 58.8147 50.5907 58.7369 50.6205C58.7052 50.6327 58.682 50.6108 58.682 50.5688C58.682 50.5223 58.6595 50.5046 58.6197 50.5199C58.5854 50.5331 58.547 50.5271 58.5344 50.5069C58.5218 50.4865 58.531 50.4633 58.5547 50.4554C58.5785 50.4475 58.5602 50.4175 58.5141 50.3887C58.4415 50.3434 58.4333 50.3462 58.4533 50.4101C58.4719 50.4692 58.4636 50.467 58.4113 50.3988C58.2946 50.2469 58.2009 50.1651 58.1435 50.1651C58.1125 50.1651 58.0872 50.1491 58.0872 50.1294C58.0872 50.0711 57.8815 49.9953 57.8041 50.0249C57.7509 50.0453 57.7392 50.0351 57.7582 49.9855C57.775 49.9416 57.7555 49.9111 57.7018 49.8971C57.6487 49.8832 57.6285 49.893 57.6446 49.9247C57.6584 49.9518 57.6345 49.9348 57.5916 49.8871C57.4871 49.7708 57.3387 49.6602 57.3804 49.7296C57.398 49.7588 57.3928 49.7827 57.3689 49.7827C57.3449 49.7827 57.304 49.7429 57.2779 49.6941C57.2518 49.6454 57.2194 49.6165 57.2059 49.63C57.1924 49.6434 57.1539 49.6317 57.1203 49.6037C57.0866 49.5758 57.018 49.5468 56.9676 49.5391C56.9173 49.5315 56.8698 49.5067 56.8621 49.484C56.8542 49.4614 56.8005 49.4428 56.7427 49.4428C56.6848 49.4428 56.6467 49.4278 56.6581 49.4094C56.6695 49.3911 56.6418 49.3724 56.5969 49.3679C56.4137 49.3498 56.3875 49.3421 56.3875 49.3058C56.3875 49.2848 56.3718 49.2775 56.3526 49.2894C56.1842 49.3935 56.1764 49.2632 56.1736 46.3306C56.1708 43.3796 56.1735 43.422 55.9851 43.3511C55.9148 43.3247 55.9113 43.3132 55.9638 43.2801C56.0172 43.2463 56.0162 43.2403 55.9566 43.2398C55.9181 43.2395 55.8753 43.2093 55.8613 43.1728C55.8473 43.1362 55.8185 43.117 55.7975 43.13C55.7763 43.143 55.7482 43.1253 55.7349 43.0906C55.7074 43.019 33.5907 43.0124 33.4215 43.0839C33.3549 43.112 33.3503 43.1098 33.4002 43.0739C33.4353 43.0486 33.4424 43.0277 33.416 43.0274C33.3897 43.027 33.3362 43.0697 33.2972 43.1223C33.2582 43.1749 33.2379 43.194 33.252 43.1648C33.2662 43.1356 33.2576 43.1117 33.2328 43.1117C33.208 43.1117 33.1878 43.1416 33.1878 43.178C33.1878 43.2144 33.1708 43.2338 33.1501 43.2209C33.1008 43.1904 33.0113 43.2994 33.0269 43.3709C33.0336 43.4015 33.0104 43.4274 32.9753 43.4285C32.9316 43.4297 32.905 43.4905 32.8908 43.6216C32.8597 43.9055 32.8646 55.8435 32.8959 56.1001C32.9261 56.3489 33.0714 56.5905 33.1685 56.5532C33.2147 56.5356 33.2236 56.5492 33.2021 56.6051C33.18 56.6628 33.1891 56.6747 33.2406 56.655C33.2798 56.6399 33.3181 56.6548 33.3316 56.6901C33.3446 56.7236 33.3892 56.7498 33.4307 56.7482C33.4975 56.7455 33.4965 56.7404 33.4215 56.7048C33.3537 56.6725 33.3579 56.6709 33.4427 56.6965C33.5011 56.7142 35.994 56.7385 38.9824 56.7505L44.416 56.7724L44.4163 57.6551C44.4165 58.1406 44.4332 58.548 44.4535 58.5605C44.4736 58.573 44.4902 58.6023 44.4902 58.6257C44.4902 58.6491 44.4711 58.6564 44.4477 58.642C44.4244 58.6275 44.4052 58.6359 44.4052 58.6607C44.4052 58.6854 44.4244 58.7057 44.4477 58.7057C44.4711 58.7057 44.4902 58.7631 44.4902 58.8332V58.9606L38.9983 58.9669C32.8917 58.9739 33.3777 58.9697 33.331 59.016C33.312 59.0348 33.3342 59.0365 33.3802 59.0198C33.4852 58.9819 33.4535 59.0174 33.3208 59.0866C33.2559 59.1204 33.2303 59.1224 33.2488 59.0924C33.2648 59.0667 33.2576 59.0456 33.2328 59.0456C33.208 59.0456 33.1878 59.0755 33.1878 59.1119C33.1878 59.1483 33.1708 59.1677 33.1501 59.1548C33.1008 59.1243 33.0113 59.2333 33.0269 59.3048C33.0336 59.3354 33.0104 59.3613 32.9753 59.3624C32.7465 59.3693 32.9243 60.5316 33.1544 60.5325C33.1945 60.5327 33.2478 60.571 33.2727 60.6178C33.3179 60.7021 33.3618 60.7027 39.0985 60.7027C43.7733 60.7027 44.8882 60.7133 44.9288 60.7578C45.0007 60.8367 45.1711 61.1758 45.1243 61.1469C45.1027 61.1335 45.0851 61.1428 45.0851 61.1676C45.0851 61.1923 45.1042 61.2126 45.1276 61.2126C45.1509 61.2126 45.1701 61.252 45.1701 61.3002C45.1701 61.3483 45.1892 61.3758 45.2126 61.3614C45.2528 61.3365 45.2746 61.398 45.2571 61.4872C45.2527 61.5096 45.2743 61.5479 45.3052 61.5722C45.336 61.5964 45.3666 61.6637 45.3731 61.7216C45.3796 61.7796 45.4063 61.8465 45.4324 61.8703C45.4658 61.9008 45.471 61.8979 45.45 61.8606C45.4335 61.8314 45.4416 61.8075 45.4678 61.8075C45.4963 61.8075 45.5048 61.8418 45.4888 61.8921C45.4534 62.0038 45.5058 62.0928 45.5606 62.0139C45.5884 61.9737 45.5923 61.9853 45.5736 62.052C45.5553 62.1169 45.5672 62.1558 45.6107 62.1725C45.646 62.186 45.7066 62.2456 45.7455 62.305C45.7845 62.3642 45.7951 62.3998 45.7693 62.3839C45.6859 62.3323 45.7197 62.4241 45.8074 62.4873C45.8542 62.521 45.8924 62.5826 45.8924 62.6242C45.8924 62.6741 45.9249 62.7 45.988 62.7004C46.0566 62.701 46.0676 62.7113 46.0269 62.737C45.9813 62.7659 45.9835 62.7781 46.0379 62.7989C46.0752 62.8132 46.1007 62.8485 46.0947 62.8773C46.0886 62.9061 46.1123 62.9305 46.1473 62.9316C46.1824 62.9326 46.2168 62.9739 46.2239 63.0233C46.2309 63.0727 46.2846 63.1349 46.3431 63.1616C46.4016 63.1882 46.4383 63.2283 46.4245 63.2506C46.3905 63.3056 46.494 63.4646 46.5638 63.4646C46.5946 63.4646 46.611 63.479 46.6005 63.4965C46.5753 63.538 46.6827 63.6374 46.7164 63.6037C46.7306 63.5896 46.7422 63.6098 46.7422 63.6487C46.7422 63.6877 46.7661 63.7148 46.7953 63.7089C46.8245 63.7031 46.8437 63.7222 46.8378 63.7514C46.832 63.7807 46.8591 63.8046 46.898 63.8046C46.9369 63.8046 46.9578 63.8155 46.9445 63.8289C46.9311 63.8424 47.0283 63.9631 47.1604 64.0974C47.3082 64.2474 47.4128 64.324 47.432 64.2961C47.4498 64.2702 47.4635 64.2898 47.4639 64.3414C47.4645 64.4283 47.728 64.6029 47.8191 64.5769C47.8388 64.5713 47.8469 64.591 47.8369 64.6208C47.817 64.6804 47.9219 64.8062 47.9598 64.7682C47.9858 64.7421 48.0562 64.792 48.2122 64.9473C48.2804 65.0153 48.3149 65.0294 48.3158 64.9898C48.3168 64.9546 48.3383 64.9667 48.369 65.0199C48.3973 65.0691 48.4471 65.1001 48.4796 65.0887C48.5133 65.077 48.5268 65.0873 48.5111 65.1128C48.4952 65.1385 48.5398 65.1697 48.6171 65.1867C48.7153 65.2082 48.735 65.2259 48.6918 65.2532C48.6497 65.2798 48.6659 65.2905 48.7484 65.2911C48.8216 65.2915 48.8812 65.3243 48.9113 65.3807C48.9427 65.4393 48.9868 65.4624 49.0403 65.4484C49.085 65.4367 49.1341 65.4474 49.1494 65.4722C49.1668 65.5003 49.1548 65.5054 49.1176 65.4858C49.0848 65.4685 49.1057 65.4944 49.1642 65.5433C49.2226 65.5922 49.3039 65.6243 49.3449 65.6146C49.3858 65.605 49.4099 65.6122 49.3985 65.6307C49.377 65.6652 49.4769 65.7092 49.7909 65.8035C49.8902 65.8333 49.9715 65.8737 49.9715 65.8934C49.9715 65.913 50.027 65.9291 50.0949 65.9291C50.1628 65.9291 50.2919 65.9647 50.3817 66.008C50.597 66.1121 50.8275 66.1858 50.8003 66.142C50.7884 66.1227 50.8264 66.1291 50.8846 66.1561C50.9429 66.1832 50.9907 66.2196 50.9909 66.2371C50.9911 66.2547 51.0639 66.269 51.1527 66.269C51.2415 66.269 51.3399 66.2929 51.3714 66.3221C51.4179 66.3652 51.4223 66.3633 51.3949 66.3115C51.3675 66.2597 51.372 66.2577 51.4184 66.3009C51.4499 66.3301 51.559 66.354 51.6609 66.354C51.7977 66.354 51.8378 66.3679 51.8142 66.4071C51.7956 66.438 51.8157 66.4336 51.8623 66.3965C51.9089 66.3593 51.929 66.3549 51.9104 66.3858C51.886 66.4265 51.9578 66.439 52.2185 66.439C52.4054 66.439 52.5686 66.4555 52.5811 66.4758C52.5937 66.496 52.8997 66.5116 53.2612 66.5106C53.6228 66.5094 53.9089 66.4928 53.8971 66.4737C53.8853 66.4546 53.8958 66.439 53.9205 66.439C53.9453 66.439 53.9656 66.4581 53.9656 66.4814C53.9656 66.5354 54.0813 66.5374 54.1002 66.4838C54.1079 66.4617 54.2157 66.4392 54.3396 66.4336C54.4636 66.4281 54.5746 66.4079 54.5865 66.3888C54.5983 66.3696 54.6366 66.354 54.6717 66.354C54.7067 66.354 54.7236 66.3731 54.7092 66.3965C54.6947 66.4198 54.7031 66.439 54.7279 66.439C54.7526 66.439 54.7729 66.4198 54.7729 66.3965C54.7729 66.3731 54.8264 66.354 54.8919 66.354C54.9573 66.354 55.0317 66.3332 55.0571 66.3078C55.0903 66.2745 55.1112 66.2746 55.1319 66.3081C55.1519 66.3404 55.1788 66.3366 55.2198 66.2956C55.2522 66.2632 55.3371 66.2415 55.4082 66.2475C55.4795 66.2536 55.5377 66.2418 55.5377 66.2213C55.5377 66.2008 55.5855 66.184 55.644 66.184C55.7024 66.184 55.7502 66.1649 55.7502 66.1415C55.7502 66.1182 55.8267 66.099 55.9201 66.099C56.0136 66.099 56.0901 66.0799 56.0901 66.0565C56.0901 66.0332 56.1356 66.0141 56.1911 66.0141C56.2467 66.0141 56.3158 65.9856 56.3447 65.9507C56.3766 65.9123 56.4348 65.8968 56.4929 65.9114C56.5567 65.9274 56.5969 65.9134 56.6139 65.8692C56.6278 65.8328 56.6646 65.8128 56.6955 65.8247C56.7264 65.8364 56.7893 65.8122 56.8352 65.7706C56.8811 65.7291 56.9618 65.7012 57.0145 65.7089C57.072 65.717 57.1205 65.696 57.1358 65.6561C57.1498 65.6195 57.1787 65.6004 57.2 65.6136C57.2213 65.6268 57.2277 65.6553 57.2143 65.6771C57.2008 65.6988 57.2156 65.7166 57.2469 65.7166C57.3192 65.7166 57.7472 66.1471 57.7472 66.2197C57.7472 66.2496 57.7664 66.2622 57.7897 66.2478C57.8131 66.2333 57.8322 66.2524 57.8322 66.2902C57.8322 66.3281 57.8513 66.3472 57.8747 66.3327C57.8981 66.3183 57.9172 66.3362 57.9172 66.3727C57.9172 66.4091 57.947 66.439 57.9835 66.439C58.0199 66.439 58.0379 66.4581 58.0234 66.4814C58.009 66.5048 58.0281 66.5239 58.0659 66.5239C58.1037 66.5239 58.1229 66.5431 58.1084 66.5664C58.094 66.5898 58.1131 66.6089 58.1509 66.6089C58.1887 66.6089 58.2118 66.6233 58.2022 66.6408C58.1791 66.6829 58.6242 67.12 58.6568 67.0874C58.6707 67.0734 58.682 67.0951 58.682 67.1355C58.682 67.1758 58.7011 67.197 58.7245 67.1825C58.7479 67.1681 58.767 67.186 58.767 67.2225C58.767 67.2589 58.7909 67.284 58.8201 67.2781C58.8493 67.2723 58.8685 67.2914 58.8626 67.3206C58.8568 67.3498 58.8818 67.3738 58.9183 67.3738C58.9547 67.3738 58.9727 67.3929 58.9582 67.4162C58.9438 67.4396 58.9569 67.4587 58.9875 67.4587C59.06 67.4587 59.0538 77.2846 58.9814 77.3088C58.9569 77.3169 58.937 77.3422 58.937 77.3651C58.937 77.3879 58.9559 77.3948 58.9789 77.3806C59.0369 77.3447 58.9809 77.4966 58.9165 77.5502C58.8883 77.5736 58.8522 77.6626 58.8363 77.7479C58.8202 77.8333 58.779 77.9139 58.7446 77.9272C58.7102 77.9404 58.682 77.9974 58.682 78.0538C58.682 78.1228 58.6524 78.1642 58.5915 78.18C58.5326 78.1955 58.5096 78.2261 58.5257 78.2679C58.5424 78.3117 58.5307 78.3244 58.4882 78.3081C58.4443 78.2914 58.4339 78.3045 58.4526 78.3533C58.4721 78.4043 58.4611 78.4153 58.4101 78.3958C58.3591 78.3762 58.348 78.3873 58.3676 78.4383C58.3879 78.4912 58.3763 78.5004 58.3182 78.4781C58.2601 78.4558 58.2485 78.4651 58.2688 78.5179C58.2883 78.5688 58.2773 78.58 58.2267 78.5606C58.183 78.5437 58.1686 78.5513 58.1872 78.5812C58.2191 78.6329 57.9313 78.8744 57.8887 78.8318C57.8743 78.8174 57.7977 78.8625 57.7184 78.9321C57.5793 79.0543 57.4597 79.1033 57.5135 79.0161C57.528 78.9928 57.5196 78.9736 57.4948 78.9736C57.4701 78.9736 57.4497 78.988 57.4495 79.0055C57.4493 79.023 57.4015 79.0595 57.3432 79.0866C57.2849 79.1135 57.248 79.1183 57.261 79.0972C57.2741 79.0759 57.2662 79.0586 57.2434 79.0586C57.2206 79.0586 57.1954 79.0782 57.1874 79.1021C57.1796 79.1259 57.1022 79.1481 57.0157 79.1514C56.9292 79.1545 56.8663 79.1702 56.876 79.1859C56.8857 79.2016 56.8659 79.2145 56.8318 79.2145C56.7978 79.2145 56.77 79.1985 56.77 79.179C56.77 79.1284 56.5678 79.1351 56.5358 79.1868C56.5212 79.2105 56.4865 79.2155 56.4589 79.198C56.4314 79.1804 56.3426 79.163 56.2617 79.1594C56.1807 79.1559 56.1074 79.1318 56.0987 79.1058C56.0901 79.0799 56.0644 79.0586 56.0416 79.0586C56.0187 79.0586 56.0128 79.0791 56.0283 79.1043C56.061 79.1572 55.8736 79.0582 55.8214 78.9949C55.7984 78.9672 55.779 78.97 55.7655 79.0032C55.7402 79.0649 55.6227 79.0269 55.6227 78.9569C55.6227 78.9293 55.58 78.9035 55.528 78.8996C55.4758 78.8957 55.4078 78.8582 55.3768 78.8162C55.3459 78.7743 55.2929 78.7456 55.2592 78.7525C55.2254 78.7593 55.1978 78.7343 55.1978 78.6968C55.1978 78.6593 55.1787 78.6405 55.1553 78.655C55.1319 78.6694 55.0917 78.6681 55.0658 78.6522C55.0331 78.6319 55.0362 78.612 55.0764 78.5866C55.1209 78.5584 55.1165 78.5499 55.0572 78.5494C55.0095 78.5489 54.9919 78.5299 55.0111 78.499C55.032 78.4651 55.0182 78.4583 54.9675 78.4778C54.9183 78.4967 54.8992 78.4885 54.9109 78.4536C54.931 78.3933 54.8452 78.2938 54.7734 78.2938C54.747 78.2938 54.7372 78.2747 54.7517 78.2513C54.7661 78.2279 54.7487 78.2088 54.713 78.2088C54.6727 78.2088 54.6574 78.1846 54.6725 78.1451C54.6882 78.1042 54.6717 78.0813 54.6262 78.0813C54.5873 78.0813 54.5657 78.0648 54.5782 78.0445C54.5907 78.0243 54.5631 77.9735 54.517 77.9317C54.4698 77.8891 54.433 77.8012 54.433 77.7318C54.433 77.6637 54.4032 77.5781 54.3668 77.5417C54.3304 77.5053 54.3119 77.446 54.3258 77.41C54.3396 77.374 54.332 77.3329 54.3089 77.3186C54.2859 77.3043 54.2622 77.2215 54.2563 77.1347C54.2505 77.0478 54.2336 76.9766 54.2189 76.9766C54.2043 76.9766 54.1922 76.9488 54.1922 76.9148C54.1922 76.8807 54.2081 76.8627 54.2276 76.8747C54.2471 76.8868 54.263 76.8669 54.263 76.8304C54.263 76.794 54.2439 76.7641 54.2205 76.7641C54.1944 76.7641 54.178 76.5513 54.178 76.2104C54.178 75.7574 54.1665 75.6523 54.1143 75.6323C54.0792 75.6188 54.0506 75.5846 54.0506 75.5562C54.0506 75.528 54.0028 75.4632 53.9443 75.4124C53.8859 75.3616 53.8381 75.3422 53.8381 75.3693C53.8381 75.3965 53.8238 75.4042 53.8062 75.3867C53.7887 75.3692 53.7744 75.3325 53.7744 75.3053C53.7744 75.2379 54.7787 75.2434 41.7177 75.2387L29.9585 75.2345V57.6859V40.1374L35.7053 40.1308C38.8661 40.1272 41.4952 40.1278 41.5478 40.1324C41.6062 40.1374 41.6434 40.117 41.6434 40.0798C41.6434 40.0229 41.7385 39.9582 41.8346 39.9499C41.8579 39.9479 41.8771 39.9239 41.8771 39.8967C41.8771 39.8694 41.9201 39.8098 41.9727 39.7642C42.0846 39.667 42.1164 39.059 42.0151 38.9499C41.9727 38.9041 41.9727 38.8987 42.0151 38.9227C42.1061 38.974 42.0735 38.856 41.9727 38.7684C41.9201 38.7229 41.8771 38.6633 41.8771 38.636C41.8771 38.6088 41.8547 38.5865 41.8276 38.5865C41.8003 38.5865 41.7408 38.5436 41.6952 38.491L41.6123 38.3956L35.1526 38.3959L28.6928 38.3963L28.6265 38.4977ZM44.0525 38.4556C43.9951 38.4995 43.9898 38.5198 44.0312 38.5363C44.0616 38.5486 44.034 38.56 43.9697 38.5618C43.8655 38.5649 43.832 38.6036 43.8479 38.7033C43.8506 38.7209 43.8222 38.7352 43.7846 38.7352C43.7404 38.7352 43.7252 38.7584 43.7416 38.8012C43.7556 38.8374 43.7494 38.8563 43.7279 38.843C43.67 38.8072 43.6517 38.9322 43.6627 39.2876C43.6761 39.7165 43.6768 39.7212 43.7249 39.6915C43.749 39.6767 43.7561 39.6937 43.7416 39.7315C43.7252 39.7743 43.7404 39.7975 43.7846 39.7975C43.8222 39.7975 43.8481 39.8198 43.8422 39.8471C43.8364 39.8744 43.8794 39.922 43.9378 39.9527C43.9963 39.9835 44.0255 40.009 44.0027 40.0093C43.98 40.0096 43.9998 40.0368 44.0467 40.0696C44.1445 40.1381 44.9576 40.1579 44.9576 40.0918C44.9576 40.0701 44.9863 40.0524 45.0213 40.0524C45.0564 40.0524 45.0851 40.0225 45.0851 39.9861C45.0851 39.9497 45.1029 39.9309 45.1247 39.9444C45.1722 39.9737 45.3034 39.7988 45.272 39.7481C45.2599 39.7285 45.2784 39.7125 45.313 39.7125C45.3647 39.7125 45.3759 39.6322 45.3759 39.2663C45.3759 38.9005 45.3647 38.8202 45.313 38.8202C45.2784 38.8202 45.2614 38.8017 45.2754 38.7791C45.3049 38.7315 45.0784 38.4803 45.0062 38.4803C44.9795 38.4803 44.9576 38.463 44.9576 38.4421C44.9576 38.3767 44.1397 38.3889 44.0525 38.4556ZM54.3803 46.7728L54.3692 48.7767L53.222 48.7754C52.5209 48.7746 52.0645 48.7902 52.0482 48.8155C52.0335 48.8384 51.9475 48.8598 51.857 48.8632C51.7664 48.8666 51.6655 48.8867 51.6326 48.9077C51.5915 48.9342 51.5824 48.9308 51.6033 48.897C51.62 48.87 51.615 48.8479 51.5922 48.8479C51.5693 48.8479 51.5429 48.8714 51.5333 48.9C51.5232 48.9302 51.4573 48.9477 51.3761 48.9414C51.2992 48.9356 51.2099 48.9527 51.1776 48.9794C51.1308 49.0183 51.0694 48.9735 50.8745 48.7578C50.74 48.6092 50.4995 48.3631 50.34 48.211C50.0302 47.9156 49.153 47.0378 48.6946 46.5646C48.3848 46.2447 48.0718 45.9586 48.0318 45.9586C48.0175 45.9586 47.9748 45.9233 47.9369 45.8803C47.8532 45.7849 47.1671 45.7595 47.1671 45.8517C47.1671 45.8801 47.0906 45.9376 46.9972 45.9798C46.9037 46.022 46.8272 46.0834 46.8272 46.1162C46.8272 46.1491 46.8081 46.1642 46.7847 46.1498C46.7613 46.1353 46.7422 46.1544 46.7422 46.1923C46.7422 46.2301 46.7231 46.2492 46.6997 46.2348C46.6763 46.2203 46.6572 46.2394 46.6572 46.2772C46.6572 46.3151 46.6417 46.3364 46.6227 46.3246C46.5713 46.2929 46.2209 46.6279 46.2522 46.6788C46.2689 46.7057 46.251 46.7116 46.2059 46.6943C46.1484 46.6722 46.1388 46.6825 46.1617 46.742C46.184 46.8001 46.1748 46.8117 46.1218 46.7914C46.0709 46.7718 46.0598 46.7829 46.0794 46.8339C46.0981 46.8826 46.0876 46.8958 46.0438 46.879C45.9999 46.8622 45.9895 46.8754 46.0082 46.9242C46.0277 46.9752 46.0167 46.9862 45.9657 46.9667C45.9147 46.9471 45.9037 46.9582 45.9232 47.0091C45.9428 47.0601 45.9317 47.0712 45.8807 47.0516C45.832 47.0329 45.8188 47.0433 45.8356 47.0872C45.8524 47.1311 45.8392 47.1415 45.7904 47.1228C45.7376 47.1025 45.7283 47.1141 45.7504 47.1718C45.7705 47.2238 45.7638 47.2376 45.7291 47.2162C45.67 47.1795 45.3271 47.518 45.3636 47.5769C45.3768 47.5983 45.3566 47.6157 45.3188 47.6157C45.281 47.6157 45.2618 47.6348 45.2763 47.6582C45.2907 47.6816 45.2728 47.7007 45.2363 47.7007C45.1999 47.7007 45.1748 47.7238 45.1807 47.7522C45.1865 47.7806 45.1483 47.8234 45.0957 47.8473C45.0431 47.8712 45.0001 47.9161 45.0001 47.9469C45.0001 47.9778 44.981 47.9913 44.9576 47.9769C44.9342 47.9624 44.9151 47.9815 44.9151 48.0194C44.9151 48.0572 44.896 48.0763 44.8726 48.0618C44.8493 48.0474 44.8301 48.0665 44.8301 48.1043C44.8301 48.1422 44.8127 48.1623 44.7914 48.1492C44.7324 48.1126 44.394 48.4555 44.4306 48.5147C44.4521 48.5493 44.4383 48.556 44.3862 48.5359C44.3285 48.5138 44.317 48.5232 44.3373 48.576C44.3559 48.6247 44.3455 48.6379 44.3017 48.6211C44.2578 48.6043 44.2474 48.6175 44.2661 48.6663C44.2856 48.7173 44.2746 48.7283 44.2236 48.7088C44.1726 48.6892 44.1616 48.7003 44.1811 48.7513C44.2006 48.8022 44.1896 48.8133 44.1386 48.7937C44.0899 48.775 44.0767 48.7855 44.0935 48.8293C44.1102 48.8732 44.0971 48.8836 44.0483 48.8649C43.9973 48.8454 43.9863 48.8564 44.0058 48.9074C44.0254 48.9584 44.0143 48.9694 43.9633 48.9499C43.9123 48.9303 43.9013 48.9414 43.9208 48.9924C43.9409 49.0446 43.9296 49.0545 43.8739 49.0332C43.8134 49.01 43.8051 49.023 43.8263 49.107C43.8405 49.1632 43.8411 49.1852 43.8277 49.156C43.7935 49.0814 43.7112 49.0894 43.7399 49.1645C43.7565 49.2078 43.7431 49.2182 43.6946 49.1995C43.6424 49.1796 43.6324 49.1909 43.6538 49.2464C43.6693 49.2867 43.6652 49.3094 43.6448 49.2967C43.6243 49.2841 43.5815 49.3059 43.5496 49.3452C43.4998 49.4067 43.5006 49.4113 43.5554 49.379C43.6102 49.3468 43.6111 49.3514 43.5613 49.4129C43.5294 49.4522 43.4858 49.4736 43.4646 49.4604C43.4433 49.4472 43.4311 49.4618 43.4375 49.4927C43.444 49.5237 43.4253 49.5442 43.3961 49.5384C43.3669 49.5325 43.3478 49.5517 43.3536 49.5809C43.3594 49.6101 43.3403 49.6292 43.3111 49.6234C43.2819 49.6175 43.2628 49.6366 43.2686 49.6659C43.2745 49.6951 43.2553 49.7142 43.2261 49.7083C43.1969 49.7025 43.1778 49.72 43.1836 49.7473C43.1895 49.7746 43.1513 49.8194 43.0989 49.8468C43.0465 49.8742 43.0172 49.9102 43.0339 49.9269C43.0505 49.9435 43.028 49.9433 42.9837 49.9263C42.9208 49.9021 42.909 49.9105 42.9298 49.9644C42.9485 50.0129 42.938 50.0263 42.8947 50.0097C42.8196 49.9809 42.8116 50.0633 42.8862 50.0975C42.9154 50.1108 42.8963 50.1112 42.8437 50.0981C42.7432 50.0732 42.71 50.1399 42.8012 50.1833C42.8304 50.1972 42.8098 50.2002 42.7553 50.19C42.6798 50.1757 42.6624 50.1868 42.6815 50.2367C42.6997 50.284 42.6875 50.2947 42.6376 50.2756C42.5866 50.2561 42.5756 50.2671 42.5951 50.3181C42.6138 50.3668 42.6034 50.38 42.5596 50.3632C42.5157 50.3464 42.5053 50.3596 42.524 50.4084C42.5435 50.4594 42.5325 50.4704 42.4815 50.4509C42.4305 50.4313 42.4194 50.4424 42.439 50.4934C42.4585 50.5443 42.4475 50.5554 42.3965 50.5359C42.3455 50.5163 42.3345 50.5274 42.354 50.5783C42.3736 50.6293 42.3625 50.6404 42.3115 50.6208C42.2628 50.6021 42.2496 50.6125 42.2664 50.6564C42.2832 50.7003 42.27 50.7107 42.2212 50.692C42.1702 50.6725 42.1592 50.6835 42.1787 50.7345C42.1979 50.7843 42.1871 50.7965 42.1399 50.7784C42.0899 50.7592 42.0789 50.7767 42.0931 50.8522C42.1033 50.9067 42.1003 50.9273 42.0864 50.8981C42.0431 50.8068 41.9764 50.8401 42.0012 50.9406C42.0143 50.9932 42.014 51.0123 42.0006 50.9831C41.9664 50.9085 41.8841 50.9165 41.9129 50.9916C41.9294 51.0349 41.916 51.0453 41.8675 51.0266C41.8153 51.0066 41.8054 51.018 41.8267 51.0735C41.8435 51.1171 41.8379 51.1363 41.8128 51.1208C41.7897 51.1066 41.7708 51.1236 41.7708 51.1587C41.7708 51.1937 41.7487 51.236 41.7218 51.2527C41.6914 51.2715 41.6843 51.2643 41.7031 51.234C41.721 51.2049 41.7063 51.1849 41.6672 51.1849C41.6307 51.1849 41.6009 51.1658 41.6009 51.1424C41.6009 51.119 41.571 51.0999 41.5346 51.0999C41.4981 51.0999 41.4802 51.0808 41.4946 51.0574C41.5091 51.0341 41.4879 51.0149 41.4476 51.0149C41.4072 51.0149 41.3859 51.0034 41.4 50.9891C41.4337 50.9554 41.3343 50.848 41.2928 50.8732C41.2753 50.8837 41.2609 50.8615 41.2609 50.8237C41.2609 50.7859 41.2418 50.7668 41.2185 50.7812C41.1951 50.7957 41.176 50.7766 41.176 50.7387C41.176 50.7009 41.1568 50.6818 41.1335 50.6963C41.1101 50.7107 41.091 50.6927 41.091 50.6563C41.091 50.6199 41.0611 50.59 41.0247 50.59C40.9883 50.59 40.9703 50.5709 40.9848 50.5475C40.9992 50.5242 40.9801 50.505 40.9423 50.505C40.9044 50.505 40.8853 50.4859 40.8998 50.4626C40.9142 50.4392 40.8951 50.4201 40.8573 50.4201C40.8195 50.4201 40.8003 50.4009 40.8148 50.3776C40.8292 50.3542 40.8081 50.3351 40.7677 50.3351C40.7274 50.3351 40.706 50.3235 40.7201 50.3093C40.7538 50.2756 40.6545 50.1682 40.613 50.1934C40.5954 50.2039 40.5811 50.1817 40.5811 50.1439C40.5811 50.1061 40.562 50.0869 40.5386 50.1014C40.5152 50.1158 40.4961 50.102 40.4961 50.0708C40.4961 50.0395 40.4555 49.9858 40.4059 49.9514C40.3563 49.9171 40.2916 49.866 40.2623 49.8378C40.2329 49.8098 40.197 49.7986 40.1825 49.8131C40.168 49.8275 40.1562 49.8075 40.1562 49.7686C40.1562 49.7296 40.1243 49.6977 40.0853 49.6977C40.0465 49.6977 40.0262 49.6861 40.0403 49.6719C40.0961 49.6163 39.7652 49.2934 39.6429 49.2843C39.5905 49.2803 39.5365 49.2599 39.5227 49.2389C39.4891 49.1877 39.3406 49.1892 39.2745 49.2414C39.2396 49.2689 39.2214 49.2688 39.2214 49.2408C39.2214 49.2176 39.1736 49.1985 39.1152 49.1985C39.0568 49.1985 39.0089 49.2152 39.0089 49.2356C39.0089 49.256 38.989 49.2728 38.9647 49.2728C38.9403 49.2728 38.8794 49.3111 38.8292 49.3578C38.7791 49.4045 38.7022 49.4428 38.6585 49.4428C38.6147 49.4428 38.5908 49.4619 38.6053 49.4853C38.6197 49.5086 38.6006 49.5278 38.5628 49.5278C38.525 49.5278 38.5059 49.5469 38.5203 49.5703C38.5348 49.5936 38.5264 49.6127 38.5016 49.6127C38.4769 49.6127 38.3419 49.7275 38.2016 49.8677C38.0614 50.0079 37.9467 50.1429 37.9467 50.1677C37.9467 50.1924 37.9276 50.2008 37.9042 50.1864C37.8808 50.1719 37.8617 50.191 37.8617 50.2289C37.8617 50.2667 37.8474 50.2889 37.8298 50.2784C37.8123 50.2677 37.7746 50.2843 37.7461 50.3152C37.7052 50.3594 37.7052 50.3758 37.7461 50.3923C37.7746 50.4039 37.7631 50.4149 37.7205 50.4167C37.6318 50.4206 37.5129 50.5244 37.5522 50.5637C37.5666 50.5782 37.5455 50.59 37.5051 50.59C37.4647 50.59 37.4436 50.6091 37.458 50.6325C37.4725 50.6559 37.4545 50.675 37.4181 50.675C37.3817 50.675 37.3566 50.6989 37.3624 50.7281C37.3683 50.7573 37.3492 50.7765 37.32 50.7706C37.2907 50.7648 37.2668 50.7898 37.2668 50.8263C37.2668 50.8627 37.2477 50.8807 37.2244 50.8662C37.201 50.8518 37.1819 50.8709 37.1819 50.9087C37.1819 50.9465 37.1627 50.9656 37.1394 50.9512C37.116 50.9367 37.0969 50.9559 37.0969 50.9937C37.0969 51.0315 37.0825 51.0542 37.065 51.0442C37.0231 51.0203 36.8399 51.2112 36.8731 51.2443C36.8871 51.2584 36.8656 51.2699 36.8253 51.2699C36.7849 51.2699 36.7638 51.289 36.7782 51.3124C36.7926 51.3357 36.7843 51.3549 36.7595 51.3549C36.7008 51.3549 36.2046 51.851 36.2046 51.9098C36.2046 51.9345 36.1855 51.9429 36.1621 51.9285C36.1387 51.914 36.1196 51.9331 36.1196 51.971C36.1196 52.0088 36.1053 52.0315 36.0877 52.0215C36.0702 52.0115 36.0135 52.0473 35.9617 52.101C35.8976 52.1676 35.8841 52.2052 35.9193 52.2195C35.9476 52.231 35.9267 52.2419 35.8727 52.2438C35.8188 52.2457 35.7865 52.2663 35.8009 52.2896C35.8154 52.313 35.7962 52.3321 35.7584 52.3321C35.7206 52.3321 35.7015 52.3513 35.7159 52.3746C35.7304 52.398 35.7124 52.4171 35.676 52.4171C35.6396 52.4171 35.6145 52.441 35.6203 52.4702C35.6262 52.4994 35.6071 52.5186 35.5778 52.5127C35.5486 52.5069 35.5247 52.5319 35.5247 52.5684C35.5247 52.6048 35.5056 52.6228 35.4822 52.6083C35.4589 52.5939 35.4398 52.613 35.4398 52.6508C35.4398 52.6886 35.4206 52.7077 35.3973 52.6933C35.3739 52.6789 35.3548 52.698 35.3548 52.7358C35.3548 52.7736 35.3357 52.7927 35.3123 52.7783C35.2889 52.7638 35.2683 52.7961 35.2664 52.8501C35.2646 52.9041 35.2536 52.925 35.2422 52.8966C35.2278 52.8615 35.1902 52.8749 35.1236 52.9391C35.07 52.9908 35.0342 53.0476 35.0442 53.0651C35.0542 53.0826 35.0314 53.097 34.9936 53.097C34.9558 53.097 34.9367 53.1161 34.9511 53.1395C34.9656 53.1628 34.9548 53.1819 34.9273 53.1819C34.8998 53.1819 34.8226 53.2441 34.7556 53.32L34.6338 53.4581L34.6331 49.1135L34.6324 44.7688H44.5119H54.3913L54.3803 46.7728ZM47.5716 47.9967C47.5576 48.0194 47.8431 48.3348 48.2061 48.6978C48.8098 49.3015 48.9671 49.4433 48.8839 49.3087C48.8656 49.2791 48.8723 49.2712 48.9008 49.2889C48.9268 49.3049 48.936 49.3494 48.9212 49.3878C48.9008 49.4409 48.912 49.4508 48.9678 49.4294C49.0139 49.4118 49.0309 49.4179 49.0135 49.446C48.9786 49.5024 49.1215 49.6644 49.1847 49.6402C49.2106 49.6302 49.2345 49.6582 49.2378 49.7024C49.2412 49.7466 49.2248 49.7827 49.2016 49.7827C49.1782 49.7827 49.1713 49.7588 49.186 49.7296C49.2008 49.7004 49.1841 49.7119 49.1489 49.7551C49.1101 49.8027 49.0627 49.8209 49.0289 49.8014C48.9981 49.7837 48.9877 49.7854 49.0059 49.8052C49.0239 49.8252 48.9761 49.8626 48.8997 49.8885C48.8231 49.9144 48.7657 49.96 48.7722 49.9897C48.7788 50.0203 48.7632 50.0312 48.7363 50.0146C48.6778 49.9784 48.4786 50.079 48.5095 50.129C48.5305 50.1631 48.4739 50.1808 48.3773 50.1705C48.3536 50.168 48.3151 50.2088 48.2918 50.2611C48.2635 50.3248 48.2179 50.3529 48.1544 50.3462C48.1022 50.3406 48.0594 50.3561 48.0594 50.3805C48.0594 50.4051 48.0833 50.4107 48.1125 50.3932C48.1486 50.3715 48.1469 50.3843 48.1073 50.4331C48.0752 50.4726 48.0265 50.505 47.999 50.505C47.9224 50.505 47.7202 50.6069 47.7198 50.6457C47.7196 50.6646 47.7416 50.6664 47.7686 50.6497C47.7999 50.6303 47.8061 50.6381 47.7855 50.6713C47.7678 50.6999 47.7245 50.7122 47.6892 50.6987C47.6453 50.6818 47.6326 50.6936 47.6488 50.7361C47.6658 50.7804 47.6519 50.7907 47.6005 50.7723C47.5608 50.7581 47.5424 50.7621 47.5598 50.7811C47.6053 50.8313 47.5104 50.9299 47.4169 50.9299C47.3627 50.9299 47.3369 50.9605 47.3364 51.0256C47.3359 51.1029 47.3279 51.1089 47.2946 51.0574C47.2596 51.0034 47.2533 51.0054 47.2527 51.0706C47.2524 51.1129 47.233 51.1356 47.2096 51.1212C47.1862 51.1067 47.1671 51.1272 47.1671 51.1667C47.1671 51.2533 47.0025 51.4056 46.9464 51.371C46.9244 51.3574 46.9126 51.381 46.9199 51.4234C46.9284 51.4717 46.9032 51.5067 46.8528 51.517C46.7609 51.5358 46.5722 51.7111 46.5722 51.7778C46.5722 51.8023 46.552 51.8222 46.5272 51.8222C46.5025 51.8222 46.4941 51.8414 46.5085 51.8647C46.523 51.8881 46.5042 51.9072 46.4667 51.9072C46.4292 51.9072 46.4016 51.9311 46.4055 51.9603C46.4209 52.0793 46.3985 52.1228 46.3279 52.111C46.277 52.1024 46.2576 52.1221 46.2662 52.1734C46.2733 52.2159 46.2557 52.2435 46.2256 52.2372C46.1964 52.231 46.1692 52.2498 46.1652 52.279C46.1613 52.3082 46.1556 52.3513 46.1527 52.3746C46.1498 52.398 46.1091 52.4171 46.0624 52.4171C46.0156 52.4171 45.9774 52.4374 45.9774 52.4622C45.9774 52.4869 45.9965 52.4953 46.0199 52.4808C46.0432 52.4664 46.0624 52.4735 46.0624 52.4967C46.0624 52.5199 46.0238 52.5511 45.9767 52.566C45.9297 52.581 45.9022 52.611 45.9156 52.6326C45.9289 52.6543 45.9088 52.6721 45.8708 52.6721C45.821 52.6721 45.8092 52.6959 45.8287 52.757C45.8474 52.8158 45.8363 52.842 45.793 52.842C45.7513 52.842 45.7378 52.8704 45.7526 52.927C45.7656 52.9764 45.7539 53.012 45.7249 53.012C45.6969 53.012 45.6884 52.9886 45.7055 52.9589C45.7233 52.9281 45.7199 52.9206 45.6974 52.9411C45.6761 52.9607 45.6586 53.0085 45.6584 53.0474C45.6581 53.1235 45.5117 53.3559 45.5075 53.287C45.5039 53.2273 45.255 53.7387 45.255 53.8057C45.255 53.8365 45.2359 53.8618 45.2126 53.8618C45.1892 53.8618 45.1701 53.9285 45.1701 54.0102C45.1701 54.1125 45.1437 54.1749 45.0851 54.2116C45.0335 54.2438 45.0001 54.3107 45.0001 54.3819C45.0001 54.4464 44.981 54.4991 44.9576 54.4991C44.9342 54.4991 44.9151 54.4789 44.9151 54.4541C44.9151 54.4294 44.896 54.421 44.8726 54.4354C44.8493 54.4499 44.8301 54.4307 44.8301 54.3929C44.8301 54.3551 44.811 54.336 44.7877 54.3504C44.7643 54.3649 44.7452 54.3458 44.7452 54.3079C44.7452 54.2701 44.726 54.251 44.7027 54.2654C44.6793 54.2799 44.6602 54.2608 44.6602 54.223C44.6602 54.1851 44.6411 54.166 44.6177 54.1805C44.5943 54.1949 44.5752 54.177 44.5752 54.1405C44.5752 54.1041 44.5453 54.0742 44.5089 54.0742C44.4725 54.0742 44.4545 54.0551 44.469 54.0318C44.4834 54.0084 44.4643 53.9893 44.4265 53.9893C44.3887 53.9893 44.3695 53.9701 44.384 53.9468C44.3984 53.9234 44.3793 53.9043 44.3415 53.9043C44.3037 53.9043 44.2815 53.8899 44.292 53.8724C44.3172 53.8309 44.2098 53.7316 44.1761 53.7652C44.1619 53.7794 44.1503 53.758 44.1503 53.7176C44.1503 53.6773 44.1312 53.6561 44.1078 53.6706C44.0844 53.685 44.0653 53.6712 44.0653 53.64C44.0653 53.6087 44.0244 53.555 43.9745 53.5206C43.9245 53.4863 43.8389 53.4147 43.7842 53.3616C43.7295 53.3085 43.6748 53.2654 43.6626 53.266C43.6504 53.2665 43.641 53.2567 43.6419 53.2442C43.6427 53.2317 43.6188 53.1958 43.5888 53.1644C43.5587 53.1331 43.506 53.0668 43.4717 53.0172C43.4373 52.9676 43.3837 52.927 43.3523 52.927C43.3211 52.927 43.3073 52.9079 43.3217 52.8845C43.3362 52.8611 43.3171 52.842 43.2792 52.842C43.2414 52.842 43.2223 52.8229 43.2367 52.7995C43.2512 52.7762 43.2314 52.757 43.1928 52.757C43.1542 52.757 43.1126 52.719 43.1005 52.6725C43.0884 52.6261 43.0663 52.5954 43.0514 52.6044C43.0365 52.6133 42.9997 52.594 42.9695 52.5614C42.9243 52.5125 42.9268 52.5021 42.9832 52.5021C43.0775 52.5021 43.1852 52.3862 43.1475 52.3252C43.1264 52.291 43.1399 52.2841 43.1901 52.3035C43.2507 52.3266 43.2582 52.3149 43.2333 52.2366C43.2083 52.1574 43.2134 52.15 43.2643 52.1922C43.3354 52.2513 43.4529 52.1095 43.4016 52.0264C43.3846 51.999 43.3915 51.9909 43.418 52.0073C43.4774 52.044 43.6073 51.9141 43.5705 51.8548C43.5544 51.8286 43.5621 51.8214 43.5886 51.8378C43.649 51.875 43.8632 51.6609 43.8259 51.6004C43.8098 51.5746 43.8167 51.5662 43.8413 51.5814C43.9235 51.6322 44.4029 51.1991 44.3708 51.103C44.3596 51.0692 44.371 51.0575 44.3986 51.0746C44.4741 51.1213 45.0041 50.5664 44.9718 50.4747C44.9503 50.4136 44.956 50.4089 45.001 50.4506C45.0651 50.5099 45.2738 50.2724 45.2258 50.1947C45.2113 50.1712 45.2205 50.165 45.2462 50.1809C45.303 50.216 45.6925 49.8373 45.6576 49.7809C45.6442 49.7591 45.658 49.7506 45.6883 49.7623C45.7596 49.7894 46.2376 49.3422 46.2183 49.2664C46.2103 49.2349 46.2118 49.2234 46.2216 49.241C46.2545 49.2999 46.3267 49.2735 46.3028 49.2112C46.2862 49.1679 46.2996 49.1575 46.3481 49.1762C46.4003 49.1961 46.4103 49.1848 46.3889 49.1293C46.3723 49.086 46.3779 49.0665 46.4024 49.0817C46.4616 49.1183 46.6683 48.9003 46.6313 48.8404C46.6107 48.8069 46.6245 48.8001 46.6743 48.8192C46.7349 48.8424 46.7424 48.8307 46.7176 48.7524C46.6899 48.6651 46.6937 48.6624 46.7635 48.7204C46.8338 48.7789 46.837 48.7757 46.8059 48.678C46.776 48.5834 46.7797 48.5784 46.8423 48.6304C46.9023 48.6801 46.9122 48.6786 46.9122 48.6194C46.9122 48.5815 46.9333 48.5505 46.9592 48.5505C46.985 48.5505 46.9953 48.522 46.982 48.4873C46.9679 48.4507 46.9795 48.4283 47.0093 48.4342C47.0376 48.4397 47.0561 48.4204 47.0503 48.3911C47.0444 48.3619 47.0635 48.3428 47.0928 48.3487C47.122 48.3545 47.1411 48.3354 47.1352 48.3062C47.1294 48.277 47.1485 48.2578 47.1777 48.2637C47.2069 48.2695 47.2261 48.2504 47.2202 48.2212C47.2144 48.192 47.2335 48.1729 47.2627 48.1787C47.2919 48.1845 47.3111 48.1654 47.3052 48.1362C47.2994 48.107 47.3185 48.0879 47.3477 48.0937C47.3769 48.0996 47.3962 48.0811 47.3907 48.0527C47.3849 48.023 47.4073 48.0114 47.4438 48.0254C47.4786 48.0388 47.507 48.0285 47.507 48.0027C47.507 47.9768 47.5273 47.9556 47.5521 47.9556C47.5768 47.9556 47.5855 47.9741 47.5716 47.9967ZM53.2601 50.59C53.3365 50.59 53.4119 50.5772 53.4277 50.5613C53.4681 50.5209 53.6659 50.5167 53.6412 50.5569C53.6299 50.5752 53.6504 50.59 53.6868 50.59C53.7233 50.59 53.7535 50.5661 53.7538 50.5369C53.7542 50.5021 53.7651 50.4992 53.7856 50.5284C53.8028 50.553 53.922 50.5771 54.0506 50.582C54.1791 50.5868 54.2906 50.6098 54.2984 50.6329C54.3063 50.6561 54.3312 50.675 54.3541 50.675C54.3769 50.675 54.3819 50.6529 54.3652 50.6259C54.3445 50.5925 54.3537 50.5885 54.3944 50.6137C54.4272 50.634 54.5111 50.6549 54.5807 50.6602C54.6504 50.6656 54.7143 50.6902 54.7224 50.7149C54.7307 50.7397 54.7561 50.76 54.779 50.76C54.8018 50.76 54.806 50.7361 54.7885 50.7069C54.763 50.6645 54.7698 50.6644 54.8218 50.7066C54.8576 50.7356 54.8979 50.7483 54.9113 50.7349C54.9246 50.7215 54.9803 50.7356 55.0349 50.766C55.0895 50.7964 55.1782 50.8226 55.2321 50.824C55.2861 50.8254 55.3451 50.8509 55.3635 50.8806C55.3818 50.9102 55.4142 50.9311 55.4354 50.9272C55.5467 50.9062 55.6673 50.9347 55.6418 50.9759C55.6243 51.0042 55.6453 51.0164 55.6965 51.0078C55.7422 51.0001 55.8149 51.0224 55.858 51.0574C55.9278 51.114 55.9325 51.114 55.9008 51.0574C55.8718 51.0056 55.8758 51.0036 55.9224 51.0468C55.9539 51.076 56.0134 51.0999 56.0546 51.0999C56.0958 51.0999 56.1507 51.1393 56.1765 51.1874C56.2023 51.2357 56.2457 51.2675 56.2732 51.2584C56.3006 51.2493 56.3487 51.2674 56.38 51.2988C56.4112 51.33 56.4545 51.3448 56.4759 51.3315C56.4975 51.3182 56.515 51.3297 56.515 51.3569C56.515 51.3842 56.5445 51.3951 56.581 51.3811C56.6172 51.3672 56.637 51.3719 56.6249 51.3914C56.5952 51.4395 56.7929 51.5419 56.8488 51.5074C56.8732 51.4923 56.9139 51.5188 56.9393 51.5661C56.9647 51.6135 57.0278 51.6523 57.0795 51.6524C57.1342 51.6524 57.2404 51.7235 57.3335 51.8224C57.4214 51.9157 57.5218 51.9922 57.5566 51.9922C57.5913 51.9922 57.6198 52.0101 57.6198 52.0318C57.6198 52.0536 57.658 52.0836 57.7047 52.0984C57.7515 52.1133 57.7897 52.1446 57.7897 52.1681C57.7897 52.2288 57.9019 52.3332 57.9333 52.3018C57.9479 52.2873 57.9597 52.3074 57.9597 52.3463C57.9597 52.3852 57.9841 52.4171 58.0141 52.4171C58.0439 52.4171 58.0952 52.4543 58.1281 52.4999C58.1608 52.5453 58.2033 52.5728 58.2224 52.5611C58.2415 52.5493 58.2571 52.5612 58.2571 52.5876C58.2571 52.6496 58.3645 52.757 58.4266 52.757C58.453 52.757 58.4628 52.7762 58.4483 52.7995C58.4339 52.8229 58.4423 52.842 58.467 52.842C58.4918 52.842 58.5121 52.8727 58.5121 52.9103C58.5121 52.9543 58.5353 52.9697 58.5775 52.9535C58.6162 52.9386 58.6395 52.9498 58.6345 52.9807C58.6205 53.0683 58.6873 53.1819 58.7528 53.1819C58.7868 53.1819 58.8027 53.2011 58.7882 53.2244C58.7738 53.2478 58.7929 53.2669 58.8307 53.2669C58.8686 53.2669 58.8877 53.286 58.8732 53.3094C58.8588 53.3328 58.8779 53.3519 58.9157 53.3519C58.9535 53.3519 58.972 53.3721 58.9568 53.3966C58.9416 53.4213 58.9692 53.4761 59.018 53.5185C59.0669 53.5609 59.1069 53.6268 59.1069 53.665C59.1069 53.7031 59.1361 53.7343 59.1717 53.7343C59.2098 53.7343 59.247 53.787 59.262 53.8618C59.2771 53.9373 59.3142 53.9893 59.3531 53.9893C59.3891 53.9893 59.4057 54.002 59.3901 54.0177C59.3745 54.0333 59.387 54.0764 59.418 54.1133C59.4489 54.1502 59.5002 54.2627 59.5317 54.3632C59.5634 54.4636 59.6098 54.5592 59.6349 54.5756C59.66 54.592 59.6805 54.6341 59.6805 54.6691C59.6805 54.7042 59.7033 54.7285 59.731 54.7231C59.7612 54.7173 59.7747 54.7492 59.7645 54.802C59.7551 54.8509 59.7746 54.9179 59.8078 54.9511C59.8414 54.9847 59.856 55.044 59.8407 55.0847C59.8176 55.1465 59.8236 55.1495 59.8798 55.1038C59.9384 55.0562 59.9449 55.0702 59.9347 55.2206C59.9284 55.3145 59.9413 55.3914 59.9636 55.3914C59.986 55.3914 59.9905 55.3675 59.9736 55.3383C59.9566 55.3087 59.9596 55.3003 59.9805 55.3193C60.0011 55.3381 60.0123 55.4194 60.0053 55.4999C59.9963 55.6049 60.0101 55.6464 60.0538 55.6464C60.0963 55.6464 60.1086 55.6792 60.0943 55.7541C60.0825 55.816 60.1008 55.8927 60.1374 55.9347C60.1725 55.9747 60.1956 56.041 60.1889 56.0819C60.1822 56.1228 60.1989 56.1566 60.226 56.1569C60.2566 56.1573 60.253 56.1718 60.2167 56.1948C60.1671 56.2263 60.1678 56.2461 60.2216 56.3229C60.2566 56.3729 60.2787 56.4697 60.2707 56.5382C60.2628 56.6065 60.2749 56.6739 60.2977 56.688C60.3205 56.7022 60.3388 56.7365 60.3385 56.7643C60.3381 56.7947 60.3214 56.7895 60.2967 56.7511C60.274 56.7161 60.2551 56.7075 60.2548 56.732C60.2545 56.7566 60.2751 56.7976 60.3007 56.8232C60.3676 56.8901 60.3778 58.4083 60.3113 58.4083C60.2794 58.4083 60.263 58.4989 60.2642 58.6677C60.2652 58.8103 60.2461 58.9394 60.2219 58.9545C60.1976 58.9696 60.183 59.0436 60.1894 59.1191C60.1959 59.1947 60.178 59.2756 60.1496 59.2992C60.1214 59.3227 60.095 59.4224 60.0912 59.521C60.0873 59.6195 60.0651 59.7191 60.0417 59.7425C60.0183 59.7658 59.9992 59.8205 59.9992 59.864C59.9992 59.9074 59.98 59.9311 59.9566 59.9166C59.9315 59.9011 59.9201 59.9305 59.929 59.9885C59.9372 60.0426 59.9135 60.1118 59.876 60.1429C59.8245 60.1855 59.8235 60.1913 59.8718 60.1666C59.926 60.1389 59.9271 60.1444 59.8788 60.2041C59.8475 60.2426 59.8363 60.2973 59.8538 60.3256C59.8757 60.361 59.8639 60.3689 59.8164 60.3507C59.7595 60.3288 59.7514 60.3455 59.7713 60.4445C59.7862 60.5193 59.7749 60.5776 59.7413 60.5983C59.7017 60.6229 59.6955 60.6101 59.7184 60.5504C59.7417 60.4889 59.7373 60.4809 59.7001 60.5179C59.673 60.5448 59.6479 60.6146 59.6444 60.6731C59.6409 60.7316 59.6257 60.772 59.6107 60.7627C59.5723 60.739 59.5262 60.8718 59.5561 60.9201C59.5696 60.942 59.5557 60.9545 59.5254 60.9481C59.495 60.9417 59.4635 60.9795 59.4556 61.0321C59.4475 61.0846 59.4232 61.1277 59.4014 61.1277C59.3796 61.1277 59.3657 61.142 59.3703 61.1595C59.3893 61.2312 59.3095 61.3826 59.2528 61.3826C59.2193 61.3826 59.1919 61.4029 59.1919 61.4276C59.1919 61.4524 59.2158 61.46 59.245 61.4445C59.2742 61.4291 59.236 61.4736 59.16 61.5433C59.0841 61.613 59.0219 61.6932 59.0219 61.7217C59.0219 61.7501 58.9682 61.8241 58.9024 61.8861C58.7895 61.9925 58.7152 62.1163 58.707 62.2112C58.705 62.2345 58.6837 62.2537 58.6598 62.2537C58.6207 62.2537 58.5442 62.3182 58.1241 62.7062C58.0571 62.7682 58.0022 62.841 58.0022 62.8681C58.0022 62.8951 57.9831 62.9055 57.9597 62.891C57.9363 62.8766 57.9172 62.8957 57.9172 62.9335C57.9172 62.9751 57.8977 62.9901 57.8675 62.9715C57.8343 62.951 57.8266 62.9637 57.8441 63.0093C57.861 63.0535 57.8518 63.0707 57.818 63.0578C57.7516 63.0323 57.5668 63.2008 57.6007 63.2558C57.6147 63.2783 57.6103 63.294 57.5911 63.2907C57.505 63.2758 57.4469 63.2982 57.471 63.3372C57.4859 63.3613 57.4502 63.3796 57.3886 63.3796C57.3214 63.3796 57.2798 63.4034 57.2798 63.4419C57.2798 63.5133 57.1551 63.5892 57.0816 63.5628C57.0544 63.553 57.0196 63.5842 57.0044 63.6323C56.9862 63.6896 56.9403 63.7196 56.8708 63.7196C56.8111 63.7196 56.7763 63.7381 56.7912 63.7621C56.8167 63.8034 56.7611 63.8218 56.6531 63.8077C56.6239 63.8039 56.6 63.8208 56.6 63.8451C56.6 63.8696 56.5618 63.8895 56.515 63.8895C56.4683 63.8895 56.43 63.9087 56.43 63.932C56.43 63.9554 56.4 63.9745 56.3632 63.9745C56.2841 63.9745 56.1678 64.0804 56.2055 64.1181C56.2199 64.1327 56.2094 64.1445 56.1822 64.1445C56.1549 64.1445 56.1326 64.1272 56.1326 64.1059C56.1326 64.0848 56.0944 64.0774 56.0476 64.0897C56.0009 64.1019 55.9626 64.1387 55.9626 64.1715C55.9626 64.2131 55.932 64.2234 55.8611 64.2056C55.8009 64.1905 55.7463 64.2014 55.727 64.2325C55.7048 64.2685 55.712 64.2743 55.7502 64.2507C55.7884 64.2271 55.7955 64.2329 55.7732 64.2691C55.7553 64.2981 55.7007 64.3114 55.6519 64.2986C55.6001 64.2851 55.5019 64.3134 55.4156 64.3668C55.3342 64.4171 55.2818 64.4353 55.299 64.4075C55.3162 64.3797 55.3095 64.3569 55.284 64.3569C55.2585 64.3569 55.2267 64.3855 55.2133 64.4205C55.1998 64.4553 55.1723 64.4737 55.152 64.4611C55.1318 64.4486 55.0717 64.4646 55.0184 64.4966C54.9652 64.5287 54.8782 64.5512 54.825 64.5466C54.7718 64.5421 54.7181 64.5549 54.7057 64.5751C54.6931 64.5953 54.6505 64.6116 54.611 64.6112C54.5491 64.6107 54.548 64.6049 54.6029 64.5694C54.6476 64.5406 54.6503 64.528 54.6122 64.5275C54.5823 64.5272 54.548 64.5525 54.536 64.5837C54.5204 64.6243 54.4389 64.6376 54.2506 64.6301C54.1056 64.6245 53.975 64.6391 53.9605 64.6625C53.9193 64.7294 52.6676 64.7232 52.5865 64.6558C52.5341 64.6124 52.5081 64.6121 52.4572 64.6544C52.4149 64.6894 52.3934 64.6915 52.3934 64.6607C52.3934 64.6326 52.3275 64.6198 52.2258 64.6284C52.1115 64.6382 52.051 64.6239 52.0355 64.5837C52.0202 64.5438 51.9636 64.5301 51.8607 64.5414C51.7682 64.5516 51.6857 64.5354 51.6504 64.5C51.5736 64.4233 51.5284 64.4261 51.559 64.5056C51.5724 64.5407 51.565 64.5694 51.5422 64.5694C51.5196 64.5694 51.5011 64.5508 51.5011 64.528C51.5011 64.5052 51.4447 64.4574 51.3758 64.4217C51.2236 64.343 51.1886 64.3403 51.2306 64.41C51.2533 64.448 51.2424 64.4469 51.1924 64.4064C51.154 64.3752 51.102 64.3622 51.0771 64.3776C51.0521 64.3932 51.0369 64.3804 51.0433 64.3495C51.0507 64.3138 51.0199 64.2969 50.9594 64.3033C50.9068 64.3089 50.8638 64.2924 50.8638 64.2668C50.8638 64.2414 50.8341 64.2318 50.7978 64.2457C50.7565 64.2615 50.7427 64.2536 50.7606 64.2245C50.7799 64.1933 50.7594 64.1874 50.6989 64.2066C50.6355 64.2267 50.6003 64.2144 50.5815 64.1652C50.5649 64.1217 50.5241 64.1032 50.4738 64.1162C50.4288 64.128 50.361 64.1044 50.3203 64.0628C50.2365 63.9766 50.1015 63.9148 50.0246 63.9271C49.9954 63.9319 49.9715 63.9062 49.9715 63.8702C49.9715 63.8329 49.9348 63.8046 49.8865 63.8046C49.8398 63.8046 49.8015 63.7831 49.8015 63.7569C49.8015 63.7251 49.7767 63.7282 49.7272 63.7661C49.6863 63.7974 49.666 63.8072 49.6821 63.788C49.6982 63.7688 49.6657 63.7072 49.6097 63.6514C49.5066 63.5483 49.4349 63.5147 49.4825 63.5916C49.4974 63.6157 49.4804 63.6228 49.4426 63.6084C49.4063 63.5944 49.3766 63.5646 49.3766 63.5421C49.3766 63.471 49.2588 63.3796 49.1672 63.3796C49.1188 63.3796 49.0792 63.3605 49.0792 63.3372C49.0792 63.3138 49.0505 63.2947 49.0154 63.2947C48.979 63.2947 48.9517 63.2564 48.9517 63.2051C48.9517 63.143 48.9322 63.1231 48.888 63.1401C48.8529 63.1535 48.8242 63.1449 48.8242 63.1209C48.8242 63.0969 48.8051 63.089 48.7818 63.1035C48.7584 63.1179 48.739 63.1047 48.7388 63.0741C48.7384 63.0204 48.1007 62.3821 47.8793 62.2137C47.8197 62.1684 47.7789 62.1104 47.7886 62.0848C47.8147 62.0172 47.6385 61.8429 47.5788 61.8771C47.551 61.893 47.5423 61.8906 47.5595 61.8717C47.5766 61.8526 47.5575 61.8099 47.517 61.7767C47.4739 61.7413 47.4698 61.73 47.507 61.7494C47.5614 61.7777 47.5042 61.6939 47.2917 61.4352C47.2676 61.4056 47.2612 61.3597 47.2777 61.333C47.2962 61.3031 47.2888 61.2961 47.2587 61.3148C47.2276 61.3341 47.2096 61.3125 47.2096 61.2559C47.2096 61.2068 47.1714 61.1255 47.1246 61.0754C47.0779 61.0253 47.0396 60.9579 47.0396 60.9259C47.0396 60.8927 47.0185 60.8807 46.9906 60.898C46.9594 60.9172 46.9531 60.9096 46.9731 60.8772C47.0101 60.8173 46.8858 60.5328 46.8227 60.5328C46.799 60.5328 46.7913 60.5141 46.8054 60.4911C46.8195 60.4683 46.8071 60.4062 46.7778 60.3531C46.7484 60.3 46.7291 60.233 46.735 60.2041C46.7416 60.1719 46.7193 60.1618 46.677 60.1781C46.6321 60.1953 46.6125 60.1842 46.6205 60.1455C46.6272 60.1131 46.6092 60.0444 46.5806 59.9927C46.552 59.9411 46.5329 59.8837 46.5383 59.8653C46.5435 59.8468 46.5271 59.7935 46.5018 59.7467C46.4765 59.7 46.4612 59.6283 46.4678 59.5874C46.4744 59.5465 46.4575 59.5127 46.4304 59.5124C46.4022 59.512 46.4083 59.4935 46.4448 59.4691C46.5005 59.4318 46.4996 59.4212 46.4367 59.3841C46.396 59.3601 46.3719 59.3052 46.3811 59.2574C46.3901 59.211 46.3746 59.1728 46.3467 59.1725C46.316 59.172 46.3212 59.1552 46.3598 59.13C46.414 59.0944 46.4146 59.0824 46.3639 59.0498C46.3275 59.0263 46.3028 58.9315 46.3001 58.8054C46.2978 58.6921 46.2793 58.5737 46.259 58.5422C46.2011 58.4521 46.2103 56.7372 46.2689 56.7177C46.2955 56.7089 46.317 56.6697 46.3167 56.6308C46.3161 56.5695 46.3104 56.5685 46.2748 56.6237C46.2501 56.662 46.2334 56.6672 46.233 56.6368C46.2326 56.609 46.2533 56.5732 46.2789 56.5575C46.3043 56.5417 46.3164 56.4821 46.3055 56.4251C46.2946 56.3681 46.3111 56.296 46.3423 56.2648C46.375 56.2321 46.3926 56.1448 46.3842 56.0575C46.3745 55.9574 46.3893 55.8991 46.4284 55.8841C46.4608 55.8717 46.4869 55.837 46.4866 55.8071C46.4862 55.769 46.4736 55.7717 46.4448 55.8163C46.42 55.8547 46.4033 55.8599 46.4029 55.8295C46.4026 55.8017 46.4197 55.7681 46.441 55.755C46.4623 55.7418 46.4743 55.6977 46.4677 55.6568C46.4611 55.616 46.4763 55.5444 46.5013 55.4977C46.5264 55.4509 46.553 55.3754 46.5606 55.3299C46.5681 55.2844 46.6048 55.2135 46.642 55.1723C46.6793 55.1311 46.7149 55.038 46.7211 54.9654C46.7272 54.8928 46.7741 54.7945 46.8251 54.7469C46.8762 54.6994 46.9073 54.6327 46.8943 54.5988C46.8813 54.5649 46.8875 54.5477 46.9082 54.5604C46.9528 54.5879 47.0006 54.4842 47.0234 54.3104C47.0325 54.2415 47.0542 54.1746 47.0716 54.1617C47.1382 54.112 47.2946 53.8625 47.2946 53.806C47.2946 53.7734 47.3404 53.6974 47.3964 53.6369C47.4523 53.5766 47.4858 53.5147 47.4707 53.4997C47.4556 53.4846 47.4624 53.4762 47.4858 53.4809C47.5883 53.5016 47.6421 53.4753 47.6191 53.4156C47.6057 53.3806 47.6141 53.3519 47.6379 53.3519C47.717 53.3519 47.8865 53.1215 47.8325 53.0872C47.8029 53.0683 47.8214 53.0555 47.8788 53.0551C47.9314 53.0548 47.9744 53.0339 47.9744 53.0087C47.9744 52.9834 48.0501 52.8901 48.1425 52.8013C48.2349 52.7125 48.2986 52.628 48.2841 52.6135C48.2696 52.599 48.2907 52.5871 48.331 52.5871C48.3714 52.5871 48.3925 52.568 48.3781 52.5446C48.3636 52.5212 48.3848 52.5021 48.4251 52.5021C48.4655 52.5021 48.4859 52.4896 48.4705 52.4742C48.4318 52.4354 48.524 52.3321 48.5973 52.3321C48.6304 52.3321 48.7707 52.2174 48.9092 52.0772C49.0477 51.937 49.1904 51.8222 49.2263 51.8222C49.2622 51.8222 49.2916 51.8031 49.2916 51.7798C49.2916 51.7564 49.3299 51.7373 49.3766 51.7373C49.4234 51.7373 49.4616 51.7217 49.4616 51.7026C49.4616 51.6835 49.5779 51.6123 49.7202 51.5444C49.8624 51.4764 49.9969 51.3868 50.0191 51.3453C50.0413 51.3039 50.0827 51.2702 50.1111 51.2705C50.1435 51.2709 50.139 51.2864 50.099 51.3124C50 51.3763 50.0713 51.3621 50.2191 51.2885C50.2923 51.2519 50.3635 51.2038 50.3773 51.1815C50.391 51.1592 50.421 51.1526 50.4441 51.1668C50.467 51.1811 50.5212 51.152 50.5644 51.102C50.6212 51.0367 50.6492 51.0267 50.6651 51.0663C50.6787 51.1002 50.6884 51.0918 50.6904 51.0442C50.6923 51.002 50.7138 50.9798 50.7382 50.9949C50.7625 51.0099 50.8141 50.9967 50.8525 50.9654C50.9024 50.925 50.9134 50.9239 50.8907 50.9618C50.8731 50.991 50.879 51.0149 50.9037 51.0149C50.9285 51.0149 50.9488 50.9851 50.9488 50.9486C50.9488 50.9122 50.9687 50.8948 50.9932 50.9099C51.0175 50.925 51.069 50.9117 51.1075 50.8804C51.1574 50.84 51.1683 50.8389 51.1456 50.8768C51.0976 50.9568 51.1532 50.9407 51.256 50.845C51.3061 50.7982 51.3914 50.7577 51.4454 50.7547C51.4994 50.7517 51.5771 50.7477 51.618 50.7454C51.6589 50.7433 51.7064 50.7219 51.7236 50.6976C51.7426 50.671 51.7553 50.6787 51.7561 50.7175C51.7571 50.7703 51.7637 50.7711 51.7945 50.7226C51.8183 50.685 51.9048 50.6656 52.0365 50.6681C52.1492 50.6704 52.2536 50.6525 52.2685 50.6284C52.2834 50.6043 52.4415 50.5832 52.6197 50.5816C52.7981 50.58 52.9337 50.5622 52.9212 50.542C52.9086 50.5218 52.9486 50.5244 53.0099 50.5476C53.0712 50.571 53.1838 50.59 53.2601 50.59ZM39.7285 51.9045C39.959 52.1366 40.1592 52.315 40.1732 52.301C40.1872 52.287 40.1987 52.3032 40.1987 52.3371C40.1987 52.4113 40.6372 52.8537 40.6791 52.8218C40.6953 52.8096 40.6986 52.8127 40.6864 52.8288C40.6558 52.8692 41.0101 53.2244 41.0811 53.2244C41.1127 53.2244 41.1307 53.2388 41.1213 53.2563C41.0984 53.2984 41.8833 54.0751 41.9157 54.0426C41.9295 54.0289 41.9408 54.0453 41.9408 54.0792C41.9408 54.1639 42.3831 54.5943 42.4281 54.5533C42.448 54.5353 42.4525 54.5411 42.438 54.5665C42.4108 54.6144 42.7214 54.9391 42.8331 54.9793C42.8681 54.9919 41.2823 55.0038 39.309 55.0056L35.7213 55.009L35.8361 54.8892C35.8992 54.8233 35.9363 54.7548 35.9184 54.737C35.9006 54.7191 35.9146 54.7109 35.9496 54.7187C35.9847 54.7265 36.0086 54.7089 36.0028 54.6797C35.9969 54.6505 36.0076 54.6314 36.0265 54.6372C36.0716 54.6512 37.6738 53.0489 37.6599 53.0039C37.654 52.985 37.6732 52.9743 37.7024 52.9801C37.7316 52.986 37.7507 52.9668 37.7449 52.9376C37.739 52.9084 37.7581 52.8893 37.7873 52.8951C37.8166 52.901 37.8353 52.8805 37.8288 52.8495C37.8224 52.8185 37.832 52.8022 37.85 52.8132C37.8682 52.8243 38.1793 52.5305 38.5416 52.1603C38.9038 51.7902 39.2247 51.4861 39.2548 51.4848C39.2848 51.4835 39.498 51.6723 39.7285 51.9045ZM61.7203 61.9777C61.7628 62.0246 61.8062 62.0542 61.817 62.0434C61.8399 62.0205 61.7188 61.8925 61.6741 61.8925C61.6571 61.8925 61.6779 61.9308 61.7203 61.9777ZM62.5429 62.7762C62.575 62.8066 62.5928 62.8398 62.5824 62.8501C62.5721 62.8604 62.5078 62.8076 62.4394 62.7328C62.327 62.6099 62.3989 62.64 62.5429 62.7762ZM48.4631 62.7848C48.5054 62.8315 48.5185 62.8698 48.4924 62.8698C48.4663 62.8698 48.4243 62.8315 48.3993 62.7848C48.3744 62.738 48.3611 62.6998 48.37 62.6998C48.3789 62.6998 48.4208 62.738 48.4631 62.7848ZM33.2954 62.995C33.2826 63.0156 33.2962 63.0434 33.3256 63.0569C33.355 63.0704 33.3359 63.0707 33.2834 63.0577C33.2137 63.0405 33.1878 63.0528 33.1878 63.1031C33.1878 63.1411 33.1708 63.1618 33.1501 63.1489C33.0949 63.1148 33.0051 63.2397 33.0419 63.2993C33.0606 63.3296 33.0554 63.3392 33.0292 63.3229C32.8466 63.2101 32.8285 64.154 33.0088 64.3904C33.0677 64.4677 33.1407 64.5215 33.171 64.5098C33.2055 64.4966 33.2172 64.5116 33.2023 64.5503C33.1877 64.5883 33.2048 64.6119 33.2469 64.6119C33.2845 64.6119 33.3152 64.6313 33.3152 64.6551C33.3152 64.7236 42.438 64.7099 42.4813 64.6412C42.4995 64.6123 42.567 64.5551 42.6313 64.5142C42.6955 64.4734 42.7481 64.4106 42.7481 64.3747C42.7481 64.3388 42.7644 64.3194 42.7842 64.3318C42.9341 64.4244 42.9651 63.4886 42.8174 63.3301C42.7677 63.2766 42.7269 63.2134 42.7269 63.1894C42.7269 63.1655 42.7073 63.1459 42.6834 63.1459C42.6594 63.1459 42.5933 63.1026 42.5365 63.0497L42.4331 62.9534L37.8758 62.9555C35.2953 62.9567 33.3084 62.9739 33.2954 62.995ZM60.5672 63.3584C60.701 63.4869 60.7952 63.5924 60.7766 63.5927C60.758 63.5931 60.7906 63.6185 60.849 63.6494C60.9075 63.6801 60.9505 63.7276 60.9446 63.7549C60.9388 63.7822 60.9579 63.7998 60.9871 63.7939C61.0163 63.7881 61.0355 63.8072 61.0296 63.8364C61.0238 63.8656 61.0488 63.8895 61.0853 63.8895C61.1217 63.8895 61.1397 63.9087 61.1252 63.932C61.1108 63.9554 61.1205 63.9745 61.147 63.9745C61.2079 63.9745 61.3164 64.0815 61.3164 64.1414C61.3164 64.1665 61.3403 64.1822 61.3695 64.1763C61.3988 64.1705 61.4179 64.1896 61.412 64.2188C61.4062 64.248 61.4237 64.2672 61.451 64.2613C61.4783 64.2555 61.523 64.2936 61.5504 64.3461C61.5779 64.3985 61.6128 64.4287 61.6283 64.4133C61.6437 64.3979 61.6564 64.4203 61.6564 64.4632C61.6564 64.506 61.6679 64.5294 61.6821 64.5153C61.7241 64.4734 62.1181 64.9171 62.0941 64.9795C62.0821 65.011 62.0504 65.0371 62.0236 65.0374C61.9969 65.0377 62.0037 65.0566 62.0388 65.0793C62.0901 65.1124 62.0833 65.1206 62.0044 65.1211C61.95 65.1214 61.918 65.1407 61.9325 65.1642C61.947 65.1876 61.9243 65.2071 61.882 65.2074C61.8168 65.2079 61.8147 65.2143 61.8688 65.2492C61.9201 65.2824 61.9133 65.2905 61.8344 65.2911C61.78 65.2914 61.748 65.3106 61.7626 65.3342C61.777 65.3576 61.7543 65.377 61.712 65.3773C61.6468 65.3779 61.6448 65.3842 61.6988 65.4192C61.7527 65.454 61.7506 65.4605 61.6849 65.461C61.5958 65.4618 61.2623 65.7908 61.2956 65.8448C61.3078 65.8646 61.2954 65.8946 61.2681 65.9114C61.237 65.9307 61.2298 65.9238 61.2487 65.8932C61.3071 65.7986 61.2272 65.8455 61.0814 65.9914C61.0003 66.0724 60.934 66.1596 60.934 66.1851C60.934 66.2107 60.9149 66.2197 60.8915 66.2053C60.8682 66.1908 60.849 66.2099 60.849 66.2478C60.849 66.2856 60.8299 66.3047 60.8065 66.2902C60.7832 66.2758 60.7641 66.2949 60.7641 66.3327C60.7641 66.3706 60.7449 66.3897 60.7216 66.3752C60.6982 66.3608 60.6791 66.3777 60.6791 66.4127C60.6791 66.4478 60.657 66.4901 60.63 66.5067C60.6001 66.5252 60.5925 66.5184 60.6103 66.4894C60.6441 66.4348 60.3 66.092 60.2452 66.1258C60.2256 66.1379 60.2149 66.1225 60.2212 66.0916C60.2277 66.0606 60.209 66.0401 60.1798 66.0459C60.1506 66.0518 60.1315 66.0326 60.1373 66.0034C60.1432 65.9742 60.1227 65.9555 60.0916 65.962C60.0607 65.9684 60.0435 65.9588 60.0533 65.9408C60.0783 65.8951 59.3763 65.2065 59.3409 65.2419C59.3252 65.2576 59.3186 65.2418 59.3265 65.2067C59.3343 65.1717 59.3167 65.1478 59.2875 65.1536C59.2583 65.1595 59.2392 65.1403 59.245 65.1111C59.2509 65.0819 59.2304 65.0632 59.1993 65.0697C59.1684 65.0761 59.153 65.0653 59.1651 65.0457C59.1772 65.026 59.1137 64.932 59.0239 64.8366C58.8905 64.6952 58.7174 64.3858 58.8327 64.4951C58.8511 64.5127 58.8966 64.4997 58.9336 64.4662C58.9704 64.4329 59.0163 64.4058 59.0354 64.4062C59.1135 64.408 59.2769 64.246 59.2775 64.1663C59.2781 64.1032 59.2876 64.0956 59.3141 64.1375C59.3494 64.1932 59.41 64.1144 59.4228 63.9958C59.4254 63.9724 59.4625 63.9593 59.5052 63.9668C59.5517 63.9748 59.5716 63.962 59.5549 63.9349C59.5394 63.9099 59.5566 63.8895 59.593 63.8895C59.6295 63.8895 59.6593 63.8692 59.6593 63.8445C59.6593 63.8197 59.6372 63.8132 59.6102 63.8298C59.5796 63.8487 59.5727 63.8415 59.592 63.8104C59.6088 63.7831 59.6406 63.7717 59.6626 63.7853C59.6845 63.7989 59.7308 63.7816 59.7654 63.747C59.8133 63.6991 59.8158 63.6788 59.7757 63.6626C59.7467 63.6508 59.7708 63.6395 59.8293 63.6372C59.9139 63.6341 59.9225 63.6249 59.8718 63.5921C59.8182 63.5576 59.8209 63.5508 59.8883 63.5502C59.98 63.5495 60.0808 63.435 60.0828 63.3294C60.0836 63.2901 60.1225 63.2458 60.1692 63.2309C60.2159 63.2161 60.2542 63.1861 60.2542 63.1643C60.2542 63.0835 60.3301 63.1305 60.5672 63.3584ZM63.3774 63.6348C63.4199 63.6818 63.4634 63.7113 63.4741 63.7006C63.497 63.6776 63.3759 63.5496 63.3312 63.5496C63.3142 63.5496 63.335 63.588 63.3774 63.6348ZM47.6345 64.4207C47.664 64.4562 47.6686 64.4844 47.6449 64.4844C47.6215 64.4844 47.5786 64.4557 47.5495 64.4207C47.52 64.3851 47.5154 64.3569 47.5391 64.3569C47.5625 64.3569 47.6054 64.3856 47.6345 64.4207ZM64.312 64.5694C64.3791 64.6395 64.4218 64.6968 64.4069 64.6968C64.3761 64.6968 64.1633 64.491 64.1633 64.4612C64.1633 64.4231 64.1917 64.4438 64.312 64.5694ZM65.0346 65.2919C65.077 65.3389 65.1205 65.3684 65.1312 65.3577C65.1542 65.3347 65.0331 65.2067 64.9883 65.2067C64.9714 65.2067 64.9922 65.2451 65.0346 65.2919ZM66.0541 66.3115C66.1213 66.3816 66.164 66.439 66.149 66.439C66.1182 66.439 65.9054 66.2331 65.9054 66.2034C65.9054 66.1652 65.9338 66.1859 66.0541 66.3115ZM63.9246 66.7151C64.1727 66.9605 64.3613 67.1616 64.3439 67.1619C64.3263 67.1623 64.3598 67.1877 64.4182 67.2186C64.4767 67.2493 64.5197 67.2968 64.5138 67.3241C64.508 67.3514 64.5271 67.369 64.5563 67.3631C64.5855 67.3573 64.6047 67.3764 64.5988 67.4056C64.593 67.4348 64.618 67.4587 64.6545 67.4587C64.6909 67.4587 64.7089 67.4778 64.6944 67.5012C64.68 67.5246 64.6979 67.5437 64.7344 67.5437C64.7708 67.5437 64.8006 67.5736 64.8006 67.61C64.8006 67.6464 64.8198 67.6644 64.8431 67.6499C64.8665 67.6355 64.8856 67.6534 64.8856 67.6899C64.8856 67.7263 64.9095 67.7514 64.9387 67.7455C64.968 67.7397 64.9871 67.7588 64.9812 67.788C64.9754 67.8172 64.9929 67.8364 65.0202 67.8305C65.0475 67.8247 65.0951 67.8677 65.1258 67.9261C65.1566 67.9845 65.1821 68.0141 65.1824 67.9919C65.1827 67.9696 65.2165 67.9955 65.2574 68.0495C65.2983 68.1034 65.3844 68.1966 65.4486 68.2564C65.521 68.3236 65.5655 68.4092 65.5655 68.4809C65.5655 68.5447 65.5894 68.6061 65.6186 68.6172C65.6558 68.6315 65.6695 68.738 65.6644 68.9723C65.6543 69.4313 65.6557 69.4215 65.608 69.392C65.5846 69.3776 65.5655 69.3955 65.5655 69.432C65.5655 69.4684 65.547 69.4983 65.5244 69.4983C65.5016 69.4983 65.4952 69.5317 65.5098 69.5726C65.5245 69.6135 65.5206 69.6326 65.5013 69.615C65.4579 69.5755 65.3039 69.7082 65.335 69.7584C65.3473 69.7784 65.3244 69.7821 65.2841 69.7666C65.229 69.7455 65.2173 69.7552 65.2368 69.8063C65.2629 69.8744 65.05 69.9883 64.9964 69.9349C64.9834 69.9218 64.9613 69.9406 64.9475 69.9766C64.9297 70.0229 64.884 70.0363 64.7932 70.022C64.7077 70.0085 64.6737 70.0171 64.6924 70.0474C64.7079 70.0725 64.692 70.0931 64.6569 70.0931C64.6219 70.0931 64.5809 70.0732 64.5658 70.0487C64.5506 70.0242 64.4826 70.013 64.4145 70.0238C64.327 70.0375 64.2908 70.0257 64.2908 69.9832C64.2908 69.9502 64.2705 69.9232 64.2457 69.9232C64.221 69.9232 64.2145 69.9471 64.2314 69.9763C64.2482 70.0055 64.2145 69.9862 64.1564 69.9334C64.0983 69.8806 64.0378 69.8503 64.022 69.8661C64.0063 69.882 63.9933 69.87 63.9933 69.8396C63.9933 69.7693 63.7766 69.5808 63.7294 69.6101C63.7098 69.6221 63.6991 69.6067 63.7055 69.5758C63.7119 69.5446 63.6887 69.5259 63.6534 69.5336C63.6184 69.5415 63.6025 69.535 63.6182 69.5193C63.6536 69.4839 62.8801 68.697 62.8344 68.7219C62.8163 68.7317 62.8068 68.7144 62.8132 68.6835C62.8196 68.6525 62.7996 68.6324 62.7685 68.6389C62.7376 68.6453 62.7231 68.6332 62.7361 68.612C62.7673 68.5616 62.0468 67.8312 61.9966 67.8622C61.9755 67.8752 61.9666 67.8424 61.9768 67.7893C61.987 67.7362 62.0149 67.6863 62.0387 67.6783C62.0624 67.6704 62.071 67.6464 62.0578 67.6251C62.0446 67.6037 62.0647 67.5862 62.1025 67.5862C62.1403 67.5862 62.1594 67.5671 62.145 67.5437C62.1306 67.5203 62.1461 67.5012 62.1795 67.5012C62.2571 67.5012 62.9736 66.7825 62.9736 66.7047C62.9736 66.6727 62.9879 66.6547 63.0054 66.6649C63.023 66.675 63.1233 66.5912 63.2285 66.4785C63.4696 66.2201 63.4003 66.1966 63.9246 66.7151ZM33.2628 67.0075C33.2223 67.0383 33.2016 67.0759 33.2168 67.0912C33.2319 67.1064 33.2034 67.1188 33.1531 67.1188C33.0919 67.1188 33.0534 67.1528 33.0361 67.222C33.0217 67.2787 32.9844 67.335 32.9531 67.347C32.871 67.3785 32.8854 68.2927 32.9679 68.2756C32.9988 68.2692 33.0124 68.2829 32.998 68.3061C32.9837 68.3294 33.0282 68.4071 33.0969 68.479C33.1831 68.5693 33.2289 68.5928 33.2445 68.5548C33.2588 68.5196 33.2775 68.5344 33.2961 68.5954C33.312 68.6479 33.3432 68.691 33.3652 68.691C33.3873 68.691 33.3909 68.6671 33.3733 68.6378C33.3478 68.5955 33.3545 68.5953 33.4068 68.6376C33.4905 68.7054 45.595 68.7156 45.595 68.6479C45.595 68.6249 45.6153 68.606 45.64 68.606C45.6648 68.606 45.6732 68.6251 45.6587 68.6485C45.6152 68.7189 45.6745 68.6964 45.7614 68.6095C45.8061 68.5648 45.8307 68.5159 45.8158 68.501C45.8009 68.4862 45.824 68.4875 45.8671 68.5041C45.9399 68.532 46.0367 68.4396 46.0401 68.3388C46.0406 68.3204 46.0678 68.289 46.1004 68.2688C46.133 68.2486 46.1482 68.2021 46.1341 68.1653C46.12 68.1286 46.1381 68.0689 46.1742 68.0328C46.2275 67.9795 46.2313 67.9416 46.1937 67.8339C46.1367 67.6707 46.1365 67.6594 46.1898 67.6924C46.2132 67.7069 46.2323 67.7001 46.2323 67.6772C46.2323 67.6544 46.2114 67.6288 46.1859 67.6203C46.1604 67.6118 46.1365 67.5528 46.1328 67.4893C46.1291 67.4258 46.1118 67.3738 46.0942 67.3738C46.0767 67.3738 46.0624 67.3425 46.0624 67.3044C46.0624 67.2267 45.8579 67.0339 45.7756 67.0338C45.7463 67.0338 45.7224 67.0146 45.7224 66.991C45.7224 66.9354 33.499 66.9533 33.3826 67.0092C33.3238 67.0374 33.3098 67.0345 33.332 66.9986C33.371 66.9354 33.355 66.9375 33.2628 67.0075ZM33.2628 71.0016C33.2223 71.0324 33.2016 71.07 33.2168 71.0853C33.2319 71.1005 33.2029 71.1129 33.1524 71.1129C33.069 71.1129 33.0394 71.1566 33.0564 71.2542C33.0597 71.2734 33.0437 71.2777 33.021 71.2636C32.8537 71.1602 32.8397 72.1233 33.0049 72.3667C33.0688 72.4606 33.1264 72.5034 33.1675 72.4876C33.2147 72.4694 33.2237 72.4827 33.2021 72.539C33.18 72.5967 33.1891 72.6086 33.2406 72.5889C33.2796 72.5739 33.3181 72.5886 33.3315 72.6237C33.3675 72.7175 53.6593 72.715 53.6953 72.6212C53.7086 72.5865 53.7375 72.5692 53.7594 72.5828C53.815 72.6171 53.9283 72.5153 53.8948 72.4612C53.8795 72.4365 53.8878 72.4296 53.9136 72.4455C53.9389 72.4611 53.9717 72.4545 53.9864 72.4309C54.0011 72.4071 53.9929 72.3876 53.9681 72.3876C53.9434 72.3876 53.9231 72.3691 53.9231 72.3465C53.9231 72.3238 53.9491 72.3153 53.9809 72.3275C54.0756 72.3638 54.1698 72.0974 54.1698 71.7928C54.1698 71.4847 54.0875 71.2599 53.9627 71.2273C53.9146 71.2147 53.8806 71.1691 53.8806 71.1168C53.8806 71.0563 53.8535 71.0279 53.7956 71.0279C53.7489 71.0279 53.7103 71.004 53.71 70.9748C53.7095 70.9342 53.7017 70.9337 53.677 70.9726C53.6557 71.0062 53.6233 71.01 53.582 70.9838C53.4932 70.9277 33.4002 70.9292 33.4002 70.9854C33.4002 71.0088 33.3799 71.0279 33.3552 71.0279C33.3304 71.0279 33.322 71.0088 33.3365 70.9854C33.371 70.9295 33.3523 70.9336 33.2628 71.0016ZM52.4359 77.274C52.4359 77.455 52.4536 77.5715 52.481 77.5715C52.5057 77.5715 52.5141 77.5906 52.4997 77.6139C52.4852 77.6373 52.4924 77.6564 52.5157 77.6564C52.5403 77.6564 52.548 77.7184 52.5341 77.8044C52.5156 77.9179 52.5264 77.9586 52.5805 77.9794C52.626 77.9969 52.642 78.0344 52.6259 78.0854C52.6105 78.1339 52.6346 78.2006 52.6883 78.2583C52.7364 78.31 52.7755 78.3726 52.7752 78.3974C52.7749 78.4222 52.756 78.4138 52.7334 78.3788C52.6976 78.3234 52.692 78.3243 52.6915 78.3848C52.6912 78.4233 52.7192 78.4656 52.7539 78.4788C52.7898 78.4926 52.8061 78.5312 52.7918 78.5684C52.7764 78.6086 52.7904 78.6337 52.8282 78.6337C52.8805 78.6337 52.931 78.7037 53.0243 78.9052C53.034 78.9259 53.0202 78.9297 52.9938 78.9133C52.9182 78.8666 52.9376 78.9259 53.0308 79.0259C53.0775 79.076 53.1158 79.1422 53.1158 79.1728C53.1158 79.2533 29.2366 79.2559 29.1068 79.1755C29.051 79.1409 29.0104 79.1372 28.9906 79.1648C28.95 79.2213 28.8537 79.2388 28.8537 79.1898C28.8537 79.1686 28.8048 79.1565 28.745 79.163C28.6852 79.1696 28.6101 79.1488 28.5781 79.1168C28.5105 79.0493 28.4541 79.039 28.4926 79.1011C28.507 79.1245 28.4986 79.1436 28.4739 79.1436C28.4491 79.1436 28.4288 79.1251 28.4288 79.1025C28.4288 79.0798 28.4026 79.0714 28.3706 79.0837C28.3385 79.0959 28.2992 79.072 28.2833 79.0304C28.2586 78.966 28.2485 78.964 28.2148 79.0173C28.188 79.0597 28.175 79.0627 28.1745 79.0268C28.1742 78.9975 28.1452 78.9736 28.1102 78.9736C28.0751 78.9736 28.0464 78.9564 28.0464 78.9353C28.0464 78.8847 27.8077 78.8025 27.767 78.8391C27.7497 78.8547 27.7475 78.834 27.7622 78.7931C27.7798 78.7439 27.7677 78.7187 27.7264 78.7187C27.6092 78.7187 27.6003 78.7135 27.5687 78.6284C27.5514 78.5816 27.5175 78.5555 27.4933 78.5704C27.4692 78.5854 27.4547 78.5722 27.4611 78.5413C27.4676 78.5103 27.4475 78.4902 27.4165 78.4967C27.3856 78.5031 27.3707 78.4915 27.3835 78.4708C27.3962 78.4502 27.3499 78.3826 27.2804 78.3207C27.2109 78.2588 27.1541 78.1802 27.1541 78.146C27.1541 78.1103 27.1288 78.0937 27.0946 78.1068C27.062 78.1194 27.0208 78.1062 27.0032 78.0776C26.9814 78.0426 26.9887 78.0366 27.0256 78.0595C27.0622 78.0821 27.0731 78.0737 27.0587 78.0342C27.0469 78.0017 27.0134 77.9807 26.984 77.9875C26.9498 77.9955 26.9387 77.9696 26.9529 77.9152C26.9651 77.8686 26.9586 77.8248 26.9384 77.8178C26.9182 77.8109 26.895 77.7619 26.8871 77.709C26.8791 77.6561 26.8514 77.5916 26.8255 77.5657C26.7995 77.5398 26.7878 77.4938 26.7995 77.4635C26.8111 77.4331 26.7926 77.3638 26.7584 77.3093C26.7241 77.2549 26.7026 77.1725 26.7103 77.1264C26.7182 77.0802 26.7017 77.0279 26.6738 77.0102C26.6458 76.9924 32.4309 76.9775 39.5295 76.9772L52.4359 76.9766V77.274Z" fill="white"/>
<path fill-rule="evenodd" clip-rule="evenodd" d="M43.6517 39.2899C43.6517 39.3951 43.6599 39.4381 43.67 39.3855C43.6802 39.3329 43.6802 39.2469 43.67 39.1943C43.6599 39.1417 43.6517 39.1848 43.6517 39.2899ZM46.9781 45.9411C46.8732 46.0204 46.9421 46.0196 47.0818 45.9397C47.1434 45.9044 47.1613 45.8789 47.1243 45.8788C47.0892 45.8787 47.0235 45.9067 46.9781 45.9411ZM45.9137 46.9803C45.8468 47.0502 45.8002 47.1142 45.8102 47.1228C45.8202 47.1313 45.891 47.0742 45.9676 46.9958C46.0443 46.9174 46.0908 46.8532 46.0712 46.8532C46.0515 46.8532 45.9807 46.9104 45.9137 46.9803ZM48.9939 46.8864C48.9939 46.9068 49.0417 46.9683 49.1001 47.0232C49.1585 47.0781 49.2063 47.1092 49.2063 47.0924C49.2063 47.0755 49.1585 47.014 49.1001 46.9556C49.0417 46.8972 48.9939 46.866 48.9939 46.8864ZM49.8862 47.8093C49.9411 47.8677 50.0026 47.9155 50.023 47.9155C50.0434 47.9155 50.0122 47.8677 49.9537 47.8093C49.8953 47.7508 49.8338 47.703 49.8169 47.703C49.8001 47.703 49.8313 47.7508 49.8862 47.8093ZM44.1716 48.7224C44.1047 48.7923 44.0581 48.8563 44.0681 48.8649C44.0781 48.8734 44.1489 48.8163 44.2255 48.7379C44.3022 48.6595 44.3487 48.5953 44.3291 48.5953C44.3094 48.5953 44.2386 48.6525 44.1716 48.7224ZM50.821 48.7135C50.821 48.7338 50.8688 48.7954 50.9272 48.8503C50.9856 48.9052 51.0334 48.9363 51.0334 48.9195C51.0334 48.9026 50.9856 48.8411 50.9272 48.7827C50.8688 48.7243 50.821 48.6931 50.821 48.7135ZM38.7596 49.3638C38.7044 49.4085 38.6757 49.4445 38.6959 49.4438C38.7477 49.4418 38.8998 49.3222 38.8781 49.3006C38.8681 49.2906 38.8148 49.319 38.7596 49.3638ZM43.32 49.6257L43.0665 49.8913L43.332 49.6377C43.5787 49.4021 43.617 49.3602 43.5856 49.3602C43.5791 49.3602 43.4596 49.4797 43.32 49.6257ZM48.1527 50.3557C47.9792 50.4784 47.9492 50.5077 47.9989 50.5062C48.0203 50.5056 48.1048 50.4488 48.1866 50.3799C48.3643 50.2303 48.3473 50.218 48.1527 50.3557ZM42.3874 50.5067C42.2965 50.5997 42.2305 50.6829 42.2407 50.6914C42.2509 50.7 42.3408 50.6239 42.4407 50.5223C42.5405 50.4206 42.6066 50.3374 42.5874 50.3374C42.5683 50.3374 42.4783 50.4136 42.3874 50.5067ZM53.4275 50.5605C53.4167 50.578 53.4557 50.5924 53.5141 50.5924C53.5725 50.5924 53.6292 50.578 53.64 50.5605C53.6508 50.543 53.6119 50.5286 53.5535 50.5286C53.4951 50.5286 53.4384 50.543 53.4275 50.5605ZM47.0392 51.2937C46.9844 51.352 46.9494 51.3997 46.9617 51.3997C47.0038 51.3997 47.1803 51.2291 47.1596 51.2084C47.1482 51.1969 47.0939 51.2353 47.0392 51.2937ZM46.3187 52.0875C46.271 52.1387 46.232 52.197 46.232 52.2172C46.232 52.2374 46.2798 52.2023 46.3382 52.1392C46.3966 52.0762 46.4444 52.0178 46.4444 52.0096C46.4444 51.9732 46.399 52.0014 46.3187 52.0875ZM33.3468 59.0298C33.182 59.1191 33.2007 59.1501 33.368 59.0649C33.5282 58.9835 33.5566 58.9624 33.5026 58.9647C33.4811 58.9657 33.411 58.995 33.3468 59.0298ZM59.7488 60.436C59.7462 60.4633 59.7316 60.5207 59.7164 60.5635C59.6951 60.6239 59.7008 60.6304 59.7417 60.5927C59.7707 60.5661 59.7853 60.5087 59.7741 60.4652C59.763 60.4219 59.7516 60.4087 59.7488 60.436ZM61.6985 62.0011C61.7778 62.0829 61.8522 62.1498 61.8639 62.1498C61.8756 62.1498 61.8202 62.0829 61.741 62.0011C61.6618 61.9193 61.5873 61.8523 61.5756 61.8523C61.5639 61.8523 61.6193 61.9193 61.6985 62.0011ZM62.439 62.7352C62.5074 62.81 62.5718 62.8628 62.5821 62.8525C62.6026 62.832 62.5327 62.7589 62.3994 62.6613C62.3528 62.6272 62.3706 62.6604 62.439 62.7352ZM48.399 62.7871C48.424 62.8339 48.4659 62.8721 48.4921 62.8721C48.5182 62.8721 48.505 62.8339 48.4627 62.7871C48.4205 62.7404 48.3786 62.7022 48.3697 62.7022C48.3608 62.7022 48.374 62.7404 48.399 62.7871ZM63.3556 63.6582C63.4349 63.74 63.5094 63.8069 63.521 63.8069C63.5327 63.8069 63.4774 63.74 63.3981 63.6582C63.3189 63.5764 63.2444 63.5095 63.2327 63.5095C63.2211 63.5095 63.2764 63.5764 63.3556 63.6582ZM47.5492 64.423C47.5783 64.4581 47.6212 64.4868 47.6446 64.4868C47.6683 64.4868 47.6637 64.4586 47.6342 64.423C47.6051 64.388 47.5622 64.3593 47.5388 64.3593C47.5151 64.3593 47.5197 64.3874 47.5492 64.423ZM64.163 64.4636C64.163 64.4933 64.3757 64.6992 64.4065 64.6992C64.4215 64.6992 64.3788 64.6418 64.3117 64.5717C64.1913 64.4462 64.163 64.4255 64.163 64.4636ZM65.0128 65.3153C65.092 65.3971 65.1665 65.464 65.1782 65.464C65.1898 65.464 65.1345 65.3971 65.0553 65.3153C64.976 65.2335 64.9016 65.1666 64.8899 65.1666C64.8782 65.1666 64.9335 65.2335 65.0128 65.3153ZM65.9051 66.2057C65.9051 66.2354 66.1178 66.4413 66.1486 66.4413C66.1636 66.4413 66.1209 66.384 66.0538 66.3138C65.9334 66.1883 65.9051 66.1676 65.9051 66.2057ZM46.15 67.7029C46.1596 67.8132 46.226 67.9068 46.229 67.8142C46.2306 67.763 46.2129 67.7092 46.1895 67.6948C46.1661 67.6803 46.1484 67.6839 46.15 67.7029ZM64.5666 70.053C64.5811 70.0764 64.6215 70.0955 64.6566 70.0955C64.6916 70.0955 64.7085 70.0764 64.6941 70.053C64.6796 70.0296 64.6392 70.0105 64.6041 70.0105C64.5691 70.0105 64.5522 70.0296 64.5666 70.053ZM58.0275 78.7239C57.9363 78.7924 57.8797 78.8485 57.9016 78.8485C57.9235 78.8485 58.0075 78.7919 58.0884 78.7227C58.2767 78.5619 58.242 78.5626 58.0275 78.7239ZM52.8606 78.6488C52.8604 78.7076 52.9933 78.9424 53.0146 78.921C53.0259 78.9098 52.9958 78.8363 52.9479 78.7577C52.9 78.6791 52.8607 78.6301 52.8606 78.6488Z" fill="white"/>
<path fill-rule="evenodd" clip-rule="evenodd" d="M43.6517 39.2899C43.6517 39.3951 43.6599 39.4381 43.67 39.3855C43.6802 39.3329 43.6802 39.2469 43.67 39.1943C43.6599 39.1417 43.6517 39.1848 43.6517 39.2899ZM46.9781 45.9411C46.8732 46.0204 46.9421 46.0196 47.0818 45.9397C47.1434 45.9044 47.1613 45.8789 47.1243 45.8788C47.0892 45.8787 47.0235 45.9067 46.9781 45.9411ZM45.9137 46.9803C45.8468 47.0502 45.8002 47.1142 45.8102 47.1228C45.8202 47.1313 45.891 47.0742 45.9676 46.9958C46.0443 46.9174 46.0908 46.8532 46.0712 46.8532C46.0515 46.8532 45.9807 46.9104 45.9137 46.9803ZM48.9939 46.8864C48.9939 46.9068 49.0417 46.9683 49.1001 47.0232C49.1585 47.0781 49.2063 47.1092 49.2063 47.0924C49.2063 47.0755 49.1585 47.014 49.1001 46.9556C49.0417 46.8972 48.9939 46.866 48.9939 46.8864ZM49.8862 47.8093C49.9411 47.8677 50.0026 47.9155 50.023 47.9155C50.0434 47.9155 50.0122 47.8677 49.9537 47.8093C49.8953 47.7508 49.8338 47.703 49.8169 47.703C49.8001 47.703 49.8313 47.7508 49.8862 47.8093ZM44.1716 48.7224C44.1047 48.7923 44.0581 48.8563 44.0681 48.8649C44.0781 48.8734 44.1489 48.8163 44.2255 48.7379C44.3022 48.6595 44.3487 48.5953 44.3291 48.5953C44.3094 48.5953 44.2386 48.6525 44.1716 48.7224ZM50.821 48.7135C50.821 48.7338 50.8688 48.7954 50.9272 48.8503C50.9856 48.9052 51.0334 48.9363 51.0334 48.9195C51.0334 48.9026 50.9856 48.8411 50.9272 48.7827C50.8688 48.7243 50.821 48.6931 50.821 48.7135ZM38.7596 49.3638C38.7044 49.4085 38.6757 49.4445 38.6959 49.4438C38.7477 49.4418 38.8998 49.3222 38.8781 49.3006C38.8681 49.2906 38.8148 49.319 38.7596 49.3638ZM43.32 49.6257L43.0665 49.8913L43.332 49.6377C43.5787 49.4021 43.617 49.3602 43.5856 49.3602C43.5791 49.3602 43.4596 49.4797 43.32 49.6257ZM48.1527 50.3557C47.9792 50.4784 47.9492 50.5077 47.9989 50.5062C48.0203 50.5056 48.1048 50.4488 48.1866 50.3799C48.3643 50.2303 48.3473 50.218 48.1527 50.3557ZM42.3874 50.5067C42.2965 50.5997 42.2305 50.6829 42.2407 50.6914C42.2509 50.7 42.3408 50.6239 42.4407 50.5223C42.5405 50.4206 42.6066 50.3374 42.5874 50.3374C42.5683 50.3374 42.4783 50.4136 42.3874 50.5067ZM53.4275 50.5605C53.4167 50.578 53.4557 50.5924 53.5141 50.5924C53.5725 50.5924 53.6292 50.578 53.64 50.5605C53.6508 50.543 53.6119 50.5286 53.5535 50.5286C53.4951 50.5286 53.4384 50.543 53.4275 50.5605ZM47.0392 51.2937C46.9844 51.352 46.9494 51.3997 46.9617 51.3997C47.0038 51.3997 47.1803 51.2291 47.1596 51.2084C47.1482 51.1969 47.0939 51.2353 47.0392 51.2937ZM46.3187 52.0875C46.271 52.1387 46.232 52.197 46.232 52.2172C46.232 52.2374 46.2798 52.2023 46.3382 52.1392C46.3966 52.0762 46.4444 52.0178 46.4444 52.0096C46.4444 51.9732 46.399 52.0014 46.3187 52.0875ZM33.3468 59.0298C33.182 59.1191 33.2007 59.1501 33.368 59.0649C33.5282 58.9835 33.5566 58.9624 33.5026 58.9647C33.4811 58.9657 33.411 58.995 33.3468 59.0298ZM59.7488 60.436C59.7462 60.4633 59.7316 60.5207 59.7164 60.5635C59.6951 60.6239 59.7008 60.6304 59.7417 60.5927C59.7707 60.5661 59.7853 60.5087 59.7741 60.4652C59.763 60.4219 59.7516 60.4087 59.7488 60.436ZM61.6985 62.0011C61.7778 62.0829 61.8522 62.1498 61.8639 62.1498C61.8756 62.1498 61.8202 62.0829 61.741 62.0011C61.6618 61.9193 61.5873 61.8523 61.5756 61.8523C61.5639 61.8523 61.6193 61.9193 61.6985 62.0011ZM62.439 62.7352C62.5074 62.81 62.5718 62.8628 62.5821 62.8525C62.6026 62.832 62.5327 62.7589 62.3994 62.6613C62.3528 62.6272 62.3706 62.6604 62.439 62.7352ZM48.399 62.7871C48.424 62.8339 48.4659 62.8721 48.4921 62.8721C48.5182 62.8721 48.505 62.8339 48.4627 62.7871C48.4205 62.7404 48.3786 62.7022 48.3697 62.7022C48.3608 62.7022 48.374 62.7404 48.399 62.7871ZM63.3556 63.6582C63.4349 63.74 63.5094 63.8069 63.521 63.8069C63.5327 63.8069 63.4774 63.74 63.3981 63.6582C63.3189 63.5764 63.2444 63.5095 63.2327 63.5095C63.2211 63.5095 63.2764 63.5764 63.3556 63.6582ZM47.5492 64.423C47.5783 64.4581 47.6212 64.4868 47.6446 64.4868C47.6683 64.4868 47.6637 64.4586 47.6342 64.423C47.6051 64.388 47.5622 64.3593 47.5388 64.3593C47.5151 64.3593 47.5197 64.3874 47.5492 64.423ZM64.163 64.4636C64.163 64.4933 64.3757 64.6992 64.4065 64.6992C64.4215 64.6992 64.3788 64.6418 64.3117 64.5717C64.1913 64.4462 64.163 64.4255 64.163 64.4636ZM65.0128 65.3153C65.092 65.3971 65.1665 65.464 65.1782 65.464C65.1898 65.464 65.1345 65.3971 65.0553 65.3153C64.976 65.2335 64.9016 65.1666 64.8899 65.1666C64.8782 65.1666 64.9335 65.2335 65.0128 65.3153ZM65.9051 66.2057C65.9051 66.2354 66.1178 66.4413 66.1486 66.4413C66.1636 66.4413 66.1209 66.384 66.0538 66.3138C65.9334 66.1883 65.9051 66.1676 65.9051 66.2057ZM46.15 67.7029C46.1596 67.8132 46.226 67.9068 46.229 67.8142C46.2306 67.763 46.2129 67.7092 46.1895 67.6948C46.1661 67.6803 46.1484 67.6839 46.15 67.7029ZM64.5666 70.053C64.5811 70.0764 64.6215 70.0955 64.6566 70.0955C64.6916 70.0955 64.7085 70.0764 64.6941 70.053C64.6796 70.0296 64.6392 70.0105 64.6041 70.0105C64.5691 70.0105 64.5522 70.0296 64.5666 70.053ZM58.0275 78.7239C57.9363 78.7924 57.8797 78.8485 57.9016 78.8485C57.9235 78.8485 58.0075 78.7919 58.0884 78.7227C58.2767 78.5619 58.242 78.5626 58.0275 78.7239ZM52.8606 78.6488C52.8604 78.7076 52.9933 78.9424 53.0146 78.921C53.0259 78.9098 52.9958 78.8363 52.9479 78.7577C52.9 78.6791 52.8607 78.6301 52.8606 78.6488Z" fill="white"/>
<path fill-rule="evenodd" clip-rule="evenodd" d="M43.6517 39.2899C43.6517 39.3951 43.6599 39.4381 43.67 39.3855C43.6802 39.3329 43.6802 39.2469 43.67 39.1943C43.6599 39.1417 43.6517 39.1848 43.6517 39.2899ZM46.9781 45.9411C46.8732 46.0204 46.9421 46.0196 47.0818 45.9397C47.1434 45.9044 47.1613 45.8789 47.1243 45.8788C47.0892 45.8787 47.0235 45.9067 46.9781 45.9411ZM45.9137 46.9803C45.8468 47.0502 45.8002 47.1142 45.8102 47.1228C45.8202 47.1313 45.891 47.0742 45.9676 46.9958C46.0443 46.9174 46.0908 46.8532 46.0712 46.8532C46.0515 46.8532 45.9807 46.9104 45.9137 46.9803ZM48.9939 46.8864C48.9939 46.9068 49.0417 46.9683 49.1001 47.0232C49.1585 47.0781 49.2063 47.1092 49.2063 47.0924C49.2063 47.0755 49.1585 47.014 49.1001 46.9556C49.0417 46.8972 48.9939 46.866 48.9939 46.8864ZM49.8862 47.8093C49.9411 47.8677 50.0026 47.9155 50.023 47.9155C50.0434 47.9155 50.0122 47.8677 49.9537 47.8093C49.8953 47.7508 49.8338 47.703 49.8169 47.703C49.8001 47.703 49.8313 47.7508 49.8862 47.8093ZM44.1716 48.7224C44.1047 48.7923 44.0581 48.8563 44.0681 48.8649C44.0781 48.8734 44.1489 48.8163 44.2255 48.7379C44.3022 48.6595 44.3487 48.5953 44.3291 48.5953C44.3094 48.5953 44.2386 48.6525 44.1716 48.7224ZM50.821 48.7135C50.821 48.7338 50.8688 48.7954 50.9272 48.8503C50.9856 48.9052 51.0334 48.9363 51.0334 48.9195C51.0334 48.9026 50.9856 48.8411 50.9272 48.7827C50.8688 48.7243 50.821 48.6931 50.821 48.7135ZM38.7596 49.3638C38.7044 49.4085 38.6757 49.4445 38.6959 49.4438C38.7477 49.4418 38.8998 49.3222 38.8781 49.3006C38.8681 49.2906 38.8148 49.319 38.7596 49.3638ZM43.32 49.6257L43.0665 49.8913L43.332 49.6377C43.5787 49.4021 43.617 49.3602 43.5856 49.3602C43.5791 49.3602 43.4596 49.4797 43.32 49.6257ZM48.1527 50.3557C47.9792 50.4784 47.9492 50.5077 47.9989 50.5062C48.0203 50.5056 48.1048 50.4488 48.1866 50.3799C48.3643 50.2303 48.3473 50.218 48.1527 50.3557ZM42.3874 50.5067C42.2965 50.5997 42.2305 50.6829 42.2407 50.6914C42.2509 50.7 42.3408 50.6239 42.4407 50.5223C42.5405 50.4206 42.6066 50.3374 42.5874 50.3374C42.5683 50.3374 42.4783 50.4136 42.3874 50.5067ZM53.4275 50.5605C53.4167 50.578 53.4557 50.5924 53.5141 50.5924C53.5725 50.5924 53.6292 50.578 53.64 50.5605C53.6508 50.543 53.6119 50.5286 53.5535 50.5286C53.4951 50.5286 53.4384 50.543 53.4275 50.5605ZM47.0392 51.2937C46.9844 51.352 46.9494 51.3997 46.9617 51.3997C47.0038 51.3997 47.1803 51.2291 47.1596 51.2084C47.1482 51.1969 47.0939 51.2353 47.0392 51.2937ZM46.3187 52.0875C46.271 52.1387 46.232 52.197 46.232 52.2172C46.232 52.2374 46.2798 52.2023 46.3382 52.1392C46.3966 52.0762 46.4444 52.0178 46.4444 52.0096C46.4444 51.9732 46.399 52.0014 46.3187 52.0875ZM33.3468 59.0298C33.182 59.1191 33.2007 59.1501 33.368 59.0649C33.5282 58.9835 33.5566 58.9624 33.5026 58.9647C33.4811 58.9657 33.411 58.995 33.3468 59.0298ZM59.7488 60.436C59.7462 60.4633 59.7316 60.5207 59.7164 60.5635C59.6951 60.6239 59.7008 60.6304 59.7417 60.5927C59.7707 60.5661 59.7853 60.5087 59.7741 60.4652C59.763 60.4219 59.7516 60.4087 59.7488 60.436ZM61.6985 62.0011C61.7778 62.0829 61.8522 62.1498 61.8639 62.1498C61.8756 62.1498 61.8202 62.0829 61.741 62.0011C61.6618 61.9193 61.5873 61.8523 61.5756 61.8523C61.5639 61.8523 61.6193 61.9193 61.6985 62.0011ZM62.439 62.7352C62.5074 62.81 62.5718 62.8628 62.5821 62.8525C62.6026 62.832 62.5327 62.7589 62.3994 62.6613C62.3528 62.6272 62.3706 62.6604 62.439 62.7352ZM48.399 62.7871C48.424 62.8339 48.4659 62.8721 48.4921 62.8721C48.5182 62.8721 48.505 62.8339 48.4627 62.7871C48.4205 62.7404 48.3786 62.7022 48.3697 62.7022C48.3608 62.7022 48.374 62.7404 48.399 62.7871ZM63.3556 63.6582C63.4349 63.74 63.5094 63.8069 63.521 63.8069C63.5327 63.8069 63.4774 63.74 63.3981 63.6582C63.3189 63.5764 63.2444 63.5095 63.2327 63.5095C63.2211 63.5095 63.2764 63.5764 63.3556 63.6582ZM47.5492 64.423C47.5783 64.4581 47.6212 64.4868 47.6446 64.4868C47.6683 64.4868 47.6637 64.4586 47.6342 64.423C47.6051 64.388 47.5622 64.3593 47.5388 64.3593C47.5151 64.3593 47.5197 64.3874 47.5492 64.423ZM64.163 64.4636C64.163 64.4933 64.3757 64.6992 64.4065 64.6992C64.4215 64.6992 64.3788 64.6418 64.3117 64.5717C64.1913 64.4462 64.163 64.4255 64.163 64.4636ZM65.0128 65.3153C65.092 65.3971 65.1665 65.464 65.1782 65.464C65.1898 65.464 65.1345 65.3971 65.0553 65.3153C64.976 65.2335 64.9016 65.1666 64.8899 65.1666C64.8782 65.1666 64.9335 65.2335 65.0128 65.3153ZM65.9051 66.2057C65.9051 66.2354 66.1178 66.4413 66.1486 66.4413C66.1636 66.4413 66.1209 66.384 66.0538 66.3138C65.9334 66.1883 65.9051 66.1676 65.9051 66.2057ZM46.15 67.7029C46.1596 67.8132 46.226 67.9068 46.229 67.8142C46.2306 67.763 46.2129 67.7092 46.1895 67.6948C46.1661 67.6803 46.1484 67.6839 46.15 67.7029ZM64.5666 70.053C64.5811 70.0764 64.6215 70.0955 64.6566 70.0955C64.6916 70.0955 64.7085 70.0764 64.6941 70.053C64.6796 70.0296 64.6392 70.0105 64.6041 70.0105C64.5691 70.0105 64.5522 70.0296 64.5666 70.053ZM58.0275 78.7239C57.9363 78.7924 57.8797 78.8485 57.9016 78.8485C57.9235 78.8485 58.0075 78.7919 58.0884 78.7227C58.2767 78.5619 58.242 78.5626 58.0275 78.7239ZM52.8606 78.6488C52.8604 78.7076 52.9933 78.9424 53.0146 78.921C53.0259 78.9098 52.9958 78.8363 52.9479 78.7577C52.9 78.6791 52.8607 78.6301 52.8606 78.6488Z" fill="white"/>
<path fill-rule="evenodd" clip-rule="evenodd" d="M43.6517 39.2899C43.6517 39.3951 43.6599 39.4381 43.67 39.3855C43.6802 39.3329 43.6802 39.2469 43.67 39.1943C43.6599 39.1417 43.6517 39.1848 43.6517 39.2899ZM46.9781 45.9411C46.8732 46.0204 46.9421 46.0196 47.0818 45.9397C47.1434 45.9044 47.1613 45.8789 47.1243 45.8788C47.0892 45.8787 47.0235 45.9067 46.9781 45.9411ZM45.9137 46.9803C45.8468 47.0502 45.8002 47.1142 45.8102 47.1228C45.8202 47.1313 45.891 47.0742 45.9676 46.9958C46.0443 46.9174 46.0908 46.8532 46.0712 46.8532C46.0515 46.8532 45.9807 46.9104 45.9137 46.9803ZM48.9939 46.8864C48.9939 46.9068 49.0417 46.9683 49.1001 47.0232C49.1585 47.0781 49.2063 47.1092 49.2063 47.0924C49.2063 47.0755 49.1585 47.014 49.1001 46.9556C49.0417 46.8972 48.9939 46.866 48.9939 46.8864ZM49.8862 47.8093C49.9411 47.8677 50.0026 47.9155 50.023 47.9155C50.0434 47.9155 50.0122 47.8677 49.9537 47.8093C49.8953 47.7508 49.8338 47.703 49.8169 47.703C49.8001 47.703 49.8313 47.7508 49.8862 47.8093ZM44.1716 48.7224C44.1047 48.7923 44.0581 48.8563 44.0681 48.8649C44.0781 48.8734 44.1489 48.8163 44.2255 48.7379C44.3022 48.6595 44.3487 48.5953 44.3291 48.5953C44.3094 48.5953 44.2386 48.6525 44.1716 48.7224ZM50.821 48.7135C50.821 48.7338 50.8688 48.7954 50.9272 48.8503C50.9856 48.9052 51.0334 48.9363 51.0334 48.9195C51.0334 48.9026 50.9856 48.8411 50.9272 48.7827C50.8688 48.7243 50.821 48.6931 50.821 48.7135ZM38.7596 49.3638C38.7044 49.4085 38.6757 49.4445 38.6959 49.4438C38.7477 49.4418 38.8998 49.3222 38.8781 49.3006C38.8681 49.2906 38.8148 49.319 38.7596 49.3638ZM43.32 49.6257L43.0665 49.8913L43.332 49.6377C43.5787 49.4021 43.617 49.3602 43.5856 49.3602C43.5791 49.3602 43.4596 49.4797 43.32 49.6257ZM48.1527 50.3557C47.9792 50.4784 47.9492 50.5077 47.9989 50.5062C48.0203 50.5056 48.1048 50.4488 48.1866 50.3799C48.3643 50.2303 48.3473 50.218 48.1527 50.3557ZM42.3874 50.5067C42.2965 50.5997 42.2305 50.6829 42.2407 50.6914C42.2509 50.7 42.3408 50.6239 42.4407 50.5223C42.5405 50.4206 42.6066 50.3374 42.5874 50.3374C42.5683 50.3374 42.4783 50.4136 42.3874 50.5067ZM53.4275 50.5605C53.4167 50.578 53.4557 50.5924 53.5141 50.5924C53.5725 50.5924 53.6292 50.578 53.64 50.5605C53.6508 50.543 53.6119 50.5286 53.5535 50.5286C53.4951 50.5286 53.4384 50.543 53.4275 50.5605ZM47.0392 51.2937C46.9844 51.352 46.9494 51.3997 46.9617 51.3997C47.0038 51.3997 47.1803 51.2291 47.1596 51.2084C47.1482 51.1969 47.0939 51.2353 47.0392 51.2937ZM46.3187 52.0875C46.271 52.1387 46.232 52.197 46.232 52.2172C46.232 52.2374 46.2798 52.2023 46.3382 52.1392C46.3966 52.0762 46.4444 52.0178 46.4444 52.0096C46.4444 51.9732 46.399 52.0014 46.3187 52.0875ZM33.3468 59.0298C33.182 59.1191 33.2007 59.1501 33.368 59.0649C33.5282 58.9835 33.5566 58.9624 33.5026 58.9647C33.4811 58.9657 33.411 58.995 33.3468 59.0298ZM59.7488 60.436C59.7462 60.4633 59.7316 60.5207 59.7164 60.5635C59.6951 60.6239 59.7008 60.6304 59.7417 60.5927C59.7707 60.5661 59.7853 60.5087 59.7741 60.4652C59.763 60.4219 59.7516 60.4087 59.7488 60.436ZM61.6985 62.0011C61.7778 62.0829 61.8522 62.1498 61.8639 62.1498C61.8756 62.1498 61.8202 62.0829 61.741 62.0011C61.6618 61.9193 61.5873 61.8523 61.5756 61.8523C61.5639 61.8523 61.6193 61.9193 61.6985 62.0011ZM62.439 62.7352C62.5074 62.81 62.5718 62.8628 62.5821 62.8525C62.6026 62.832 62.5327 62.7589 62.3994 62.6613C62.3528 62.6272 62.3706 62.6604 62.439 62.7352ZM48.399 62.7871C48.424 62.8339 48.4659 62.8721 48.4921 62.8721C48.5182 62.8721 48.505 62.8339 48.4627 62.7871C48.4205 62.7404 48.3786 62.7022 48.3697 62.7022C48.3608 62.7022 48.374 62.7404 48.399 62.7871ZM63.3556 63.6582C63.4349 63.74 63.5094 63.8069 63.521 63.8069C63.5327 63.8069 63.4774 63.74 63.3981 63.6582C63.3189 63.5764 63.2444 63.5095 63.2327 63.5095C63.2211 63.5095 63.2764 63.5764 63.3556 63.6582ZM47.5492 64.423C47.5783 64.4581 47.6212 64.4868 47.6446 64.4868C47.6683 64.4868 47.6637 64.4586 47.6342 64.423C47.6051 64.388 47.5622 64.3593 47.5388 64.3593C47.5151 64.3593 47.5197 64.3874 47.5492 64.423ZM64.163 64.4636C64.163 64.4933 64.3757 64.6992 64.4065 64.6992C64.4215 64.6992 64.3788 64.6418 64.3117 64.5717C64.1913 64.4462 64.163 64.4255 64.163 64.4636ZM65.0128 65.3153C65.092 65.3971 65.1665 65.464 65.1782 65.464C65.1898 65.464 65.1345 65.3971 65.0553 65.3153C64.976 65.2335 64.9016 65.1666 64.8899 65.1666C64.8782 65.1666 64.9335 65.2335 65.0128 65.3153ZM65.9051 66.2057C65.9051 66.2354 66.1178 66.4413 66.1486 66.4413C66.1636 66.4413 66.1209 66.384 66.0538 66.3138C65.9334 66.1883 65.9051 66.1676 65.9051 66.2057ZM46.15 67.7029C46.1596 67.8132 46.226 67.9068 46.229 67.8142C46.2306 67.763 46.2129 67.7092 46.1895 67.6948C46.1661 67.6803 46.1484 67.6839 46.15 67.7029ZM64.5666 70.053C64.5811 70.0764 64.6215 70.0955 64.6566 70.0955C64.6916 70.0955 64.7085 70.0764 64.6941 70.053C64.6796 70.0296 64.6392 70.0105 64.6041 70.0105C64.5691 70.0105 64.5522 70.0296 64.5666 70.053ZM58.0275 78.7239C57.9363 78.7924 57.8797 78.8485 57.9016 78.8485C57.9235 78.8485 58.0075 78.7919 58.0884 78.7227C58.2767 78.5619 58.242 78.5626 58.0275 78.7239ZM52.8606 78.6488C52.8604 78.7076 52.9933 78.9424 53.0146 78.921C53.0259 78.9098 52.9958 78.8363 52.9479 78.7577C52.9 78.6791 52.8607 78.6301 52.8606 78.6488Z" fill="white"/>
</svg>
