<svg width="60" height="60" viewBox="0 0 60 60" fill="none" xmlns="http://www.w3.org/2000/svg">
<path d="M48.3961 35.4279C46.8492 34.6333 45.3632 34.8914 44.2294 36.2197C43.4785 37.0999 42.8043 38.0468 42.0838 38.9531C41.0994 40.1944 39.9584 41.2559 38.5174 41.9592C38.2448 42.0912 38.0056 42.2072 37.9244 41.7344C37.8012 41.0094 37.3068 40.5613 36.6994 40.2104C35.4969 39.5327 34.1498 39.1528 32.7705 39.1025C30.3509 38.9807 27.9993 38.5297 25.6565 37.97C23.4819 37.4508 21.3522 37.3725 19.3863 38.6689C19.1485 38.8255 18.9847 38.7211 18.7861 38.6559L14.8224 37.3508C14.8034 37.6003 14.8034 37.8509 14.8224 38.1005C14.9413 38.7951 14.6282 38.9415 13.9888 38.9169C12.7348 38.869 11.4764 38.9169 10.2194 38.8951C9.80916 38.8879 9.62359 38.9531 9.62794 39.4375C9.65211 42.0699 9.65211 44.7028 9.62794 47.3362C9.62794 47.8509 9.82221 47.9264 10.2629 47.9162C11.4228 47.8916 12.5826 47.9075 13.7424 47.9075C14.7572 47.9075 14.7848 47.9075 14.8065 48.9545C14.8166 49.4069 14.9515 49.3997 15.3154 49.2663C16.423 48.8689 17.5538 48.5412 18.6614 48.1366C18.8481 48.0651 19.0488 48.0374 19.2478 48.0558C19.4469 48.0742 19.6391 48.138 19.8096 48.2425C22.496 49.7065 25.3873 50.758 28.3864 51.3616C30.8046 51.8358 33.2025 52.0084 35.5425 50.9121C40.1194 48.7703 43.9888 45.7164 47.2551 41.8881C48.2859 40.6802 49.2355 39.394 49.524 37.7583C49.7153 36.7171 49.3326 35.9108 48.3961 35.4279ZM14.8224 43.4513C14.8224 44.3446 14.8065 45.2379 14.8224 46.1311C14.8326 46.5038 14.7297 46.6372 14.3397 46.6271C13.3509 46.6024 12.3607 46.6053 11.3706 46.6271C11.011 46.6343 10.9269 46.5009 10.9356 46.1659C10.9482 44.3291 10.9482 42.4924 10.9356 40.6556C10.9356 40.3191 11.0197 40.1828 11.3778 40.1901C12.3665 40.2089 13.3567 40.2118 14.3469 40.1901C14.7369 40.1814 14.8369 40.3249 14.8282 40.6947C14.8079 41.6155 14.8224 42.5334 14.8224 43.4513ZM48.2511 37.6509C47.9727 38.8661 47.258 39.842 46.4766 40.7585C43.3654 44.4186 39.7192 47.4043 35.4105 49.5795C33.1228 50.7396 30.7887 50.5322 28.4227 50.045C25.4318 49.4316 22.6236 48.3048 19.9488 46.8547C19.5661 46.6488 19.2399 46.5647 18.8035 46.7431C18.0714 47.0418 17.2943 47.2318 16.5506 47.5044C16.191 47.6349 16.1055 47.5638 16.1156 47.1897C16.1345 45.9093 16.1229 44.6288 16.1229 43.3484C16.1229 42.1173 16.1345 40.8832 16.1229 39.6535C16.1156 39.2345 16.2302 39.1416 16.6187 39.3142C16.9463 39.4592 17.303 39.539 17.6437 39.6579C18.6382 40.0059 19.4849 40.3539 20.5925 39.5433C22.0423 38.4804 23.8371 38.8647 25.4927 39.2606C27.8848 39.8406 30.2856 40.2959 32.7531 40.4134C33.766 40.4699 34.7593 40.7159 35.6816 41.1384C35.9252 41.2406 36.1527 41.3773 36.3572 41.5445C36.8733 41.9911 36.8154 42.2971 36.1818 42.5131C35.7005 42.6726 35.1955 42.7491 34.6885 42.7393C33.1924 42.7306 31.6933 42.7698 30.1943 42.7205C29.5897 42.7016 29.6144 42.9946 29.6144 43.4151C29.6144 43.8356 29.6303 44.0691 30.1725 44.0444C32.2022 43.9545 34.2319 44.1517 36.2485 43.9284C39.032 43.6196 41.14 42.1521 42.8667 40.0509C43.6481 39.101 44.3962 38.1237 45.1355 37.1405C45.7923 36.2704 46.6375 36.1878 47.59 36.4865C48.1598 36.6605 48.3874 37.0463 48.2511 37.648V37.6509Z" fill="#143274"/>
<path d="M49.6139 11.1243C49.6139 10.6066 49.4152 10.5355 48.9774 10.5442C47.8176 10.5689 46.6578 10.5529 45.498 10.5529C44.4832 10.5529 44.4571 10.5529 44.4339 9.50449C44.4237 9.05061 44.2889 9.06946 43.925 9.19417C42.7956 9.6002 41.6445 9.95112 40.5108 10.3455C40.3452 10.4069 40.1678 10.4299 39.9921 10.4128C39.8163 10.3957 39.6467 10.339 39.496 10.2469C36.7849 8.79684 33.9434 7.70637 30.9221 7.11328C28.5053 6.64054 26.1089 6.43608 23.7631 7.52075C19.1746 9.6408 15.3067 12.6976 12.0288 16.5114C10.9791 17.7353 10.0078 19.036 9.70913 20.6978C9.52356 21.7462 9.90485 22.5539 10.8414 23.0339C12.3868 23.8271 13.8859 23.5676 15.008 22.2436C15.743 21.3823 16.407 20.4586 17.1087 19.5682C18.1047 18.3037 19.2544 17.2176 20.7201 16.5056C20.9868 16.3765 21.2318 16.2475 21.313 16.7274C21.4363 17.4525 21.9306 17.9006 22.5381 18.2529C23.7402 18.9302 25.0868 19.31 26.4655 19.3608C28.8837 19.4884 31.2381 19.9293 33.5809 20.4934C35.7556 21.0154 37.8838 21.0937 39.8512 19.7973C40.0875 19.6407 40.2513 19.7422 40.4499 19.8075L44.4165 21.1125C44.4363 20.863 44.4363 20.6123 44.4165 20.3628C44.2961 19.6653 44.618 19.5261 45.253 19.5493C46.507 19.5957 47.764 19.5493 49.0224 19.5711C49.4355 19.5711 49.6168 19.5087 49.6124 19.0273C49.5882 16.391 49.5887 13.7567 49.6139 11.1243ZM42.7072 19.1868C41.8663 18.8968 41.0197 18.6285 40.1788 18.34C39.9729 18.2703 39.8048 18.1601 39.5873 18.3545C38.01 19.7596 36.1456 19.7306 34.2609 19.3101C31.6745 18.73 29.0983 18.163 26.4321 18.0485C25.4433 17.9956 24.4737 17.7534 23.5761 17.335C23.333 17.232 23.1056 17.0953 22.9005 16.929C22.3844 16.4824 22.4424 16.1735 23.0745 15.9603C23.508 15.8119 23.9631 15.7364 24.4213 15.737C25.9668 15.7457 27.5137 15.7051 29.0606 15.753C29.6593 15.7704 29.6405 15.4847 29.6405 15.0598C29.6405 14.6349 29.6332 14.4044 29.0852 14.4276C27.0555 14.5175 25.0259 14.3203 23.0093 14.5421C20.2286 14.8496 18.1163 16.3156 16.3896 18.4183C15.6097 19.3681 14.863 20.3469 14.1208 21.3286C13.4887 22.1639 12.6797 22.2929 11.7388 22.0044C11.0618 21.797 10.8617 21.4504 11.0139 20.7544C11.285 19.5624 11.9983 18.6126 12.7609 17.7092C15.8721 14.0491 19.5197 11.0648 23.8255 8.8882C26.1132 7.72812 28.4488 7.93113 30.8148 8.41837C33.8274 9.03901 36.6588 10.1585 39.3495 11.6448C39.5104 11.7436 39.6926 11.8022 39.8809 11.8156C40.0692 11.829 40.2579 11.7968 40.4311 11.7217C41.2835 11.4027 42.1621 11.1533 43.1247 10.8516C43.1247 13.5778 43.1247 16.233 43.1247 18.8881C43.1378 19.2463 43.0116 19.2912 42.7072 19.1868ZM48.3047 15.0294C48.3047 15.9473 48.2902 16.8652 48.312 17.7846C48.3207 18.1514 48.2235 18.3008 47.8307 18.2921C46.8419 18.2689 45.8517 18.2718 44.8615 18.2921C44.502 18.2993 44.4165 18.1471 44.4194 17.8194C44.431 15.9826 44.431 14.1458 44.4194 12.309C44.4194 11.9726 44.5107 11.8406 44.8659 11.8479C45.8546 11.8682 46.8463 11.8725 47.835 11.8479C48.2351 11.8363 48.3207 11.9929 48.312 12.351C48.2902 13.2414 48.3047 14.1347 48.3047 15.0294Z" fill="#143274"/>
<path d="M32.2167 31.894C32.266 32.2551 32.1993 32.4842 31.7368 32.461C31.0409 32.4248 30.3422 32.4523 29.6448 32.4523C28.9475 32.4523 28.2472 32.4204 27.5528 32.4625C27.0555 32.4929 26.9874 32.258 27.028 31.8621C27.0613 31.5315 26.8903 31.1255 27.5108 31.1371C28.9301 31.1675 30.3509 31.1617 31.7687 31.1371C32.4124 31.1327 32.1732 31.5852 32.2167 31.894Z" fill="#143274"/>
<path d="M27.0294 29.2882C27.0613 28.9474 26.9135 28.5632 27.5267 28.5762C28.9253 28.611 30.3267 28.611 31.731 28.5762C32.3443 28.5603 32.1979 28.946 32.2283 29.2868C32.2645 29.6928 32.1863 29.919 31.6962 29.8915C30.9975 29.8523 30.2958 29.8813 29.5955 29.8813C28.9199 29.8813 28.2429 29.8523 27.5659 29.8915C27.0744 29.919 26.9889 29.6971 27.0294 29.2882Z" fill="#143274"/>
<path d="M35.4381 26.9129C35.4457 26.7478 35.4168 26.583 35.3534 26.4304C35.29 26.2777 35.1937 26.1409 35.0713 26.0298C33.8854 24.8611 32.7082 23.6836 31.5397 22.4974C31.4301 22.3738 31.2944 22.2762 31.1425 22.2115C30.9905 22.1468 30.8261 22.1167 30.6611 22.1233C28.585 22.1436 26.5071 22.1436 24.4271 22.1233C23.9922 22.1233 23.8008 22.1914 23.8037 22.7033C23.826 27.0536 23.826 31.3996 23.8037 35.7412C23.8037 36.2052 23.911 36.356 24.3967 36.3473C26.1364 36.3183 27.8761 36.3357 29.6158 36.3357C31.3555 36.3357 33.0953 36.3197 34.835 36.3473C35.3018 36.3545 35.4453 36.2342 35.441 35.7513C35.4158 32.8057 35.4149 29.8596 35.4381 26.9129ZM31.5542 24.5754C31.9891 24.7363 32.4748 25.1757 33.0866 25.9733C31.515 26.1154 31.515 26.1154 31.5542 24.5754ZM34.1333 34.5245C34.1333 34.9596 33.9883 35.0379 33.5911 35.035C30.9583 35.0205 28.3255 35.0118 25.6942 35.035C25.1781 35.035 25.1143 34.8435 25.1143 34.4071C25.1346 32.6669 25.1216 30.9268 25.1216 29.1867C25.1216 27.4727 25.1346 25.7572 25.1129 24.0417C25.1129 23.6067 25.1796 23.4037 25.6928 23.4182C27.0208 23.4569 28.3487 23.4569 29.6767 23.4182C30.1885 23.4037 30.2755 23.5951 30.2566 24.0417C30.2276 24.9336 30.2726 25.8297 30.2378 26.7215C30.2189 27.2088 30.39 27.3422 30.8612 27.3233C31.7542 27.2871 32.6487 27.332 33.5418 27.3045C33.9579 27.2914 34.1318 27.3712 34.1217 27.8483C34.1033 30.0776 34.1072 32.303 34.1333 34.5245Z" fill="#143274"/>
<path d="M31.7368 32.461C31.0409 32.4248 30.3422 32.4523 29.6448 32.4523C28.9475 32.4523 28.2472 32.4204 27.5528 32.4625C27.0555 32.4929 26.9874 32.258 27.028 31.8621C27.0613 31.5315 26.8903 31.1255 27.5108 31.1371C28.9301 31.1675 30.3509 31.1617 31.7687 31.1371C32.4124 31.1284 32.1732 31.5808 32.2167 31.8897C32.266 32.2609 32.1993 32.4842 31.7368 32.461Z" fill="#F4F4F6"/>
<path d="M27.0294 29.2882C27.0613 28.9474 26.9135 28.5632 27.5267 28.5762C28.9253 28.611 30.3267 28.611 31.731 28.5762C32.3443 28.5603 32.1979 28.946 32.2283 29.2868C32.2645 29.6928 32.1863 29.919 31.6962 29.8915C30.9975 29.8523 30.2958 29.8813 29.5955 29.8813C28.9199 29.8813 28.2429 29.8523 27.5659 29.8915C27.0744 29.919 26.9889 29.6971 27.0294 29.2882Z" fill="#F4F4F6"/>
<path d="M31.7368 32.461C31.0409 32.4248 30.3422 32.4523 29.6448 32.4523C28.9475 32.4523 28.2472 32.4204 27.5528 32.4625C27.0555 32.4929 26.9874 32.258 27.028 31.8621C27.0613 31.5315 26.8903 31.1255 27.5108 31.1371C28.9301 31.1675 30.3509 31.1617 31.7687 31.1371C32.4124 31.1284 32.1732 31.5808 32.2167 31.8897C32.266 32.2609 32.1993 32.4842 31.7368 32.461Z" fill="#143274"/>
<path d="M31.689 29.8915C30.9902 29.8523 30.2885 29.8813 29.5883 29.8813C28.9127 29.8813 28.2357 29.8523 27.5586 29.8915C27.0715 29.919 26.986 29.6971 27.0237 29.2882C27.0555 28.9474 26.9077 28.5632 27.5209 28.5762C28.9195 28.611 30.3209 28.611 31.7252 28.5762C32.3385 28.5603 32.1921 28.946 32.2225 29.2868C32.2573 29.6928 32.179 29.919 31.689 29.8915Z" fill="#143274"/>
</svg>
