<svg width="42" height="41" viewBox="0 0 42 41" fill="none" xmlns="http://www.w3.org/2000/svg">
<path d="M20.875 19.3691C20.5378 19.3691 20.2081 19.4536 19.9278 19.612C19.6474 19.7703 19.4288 19.9953 19.2998 20.2586C19.1707 20.5219 19.137 20.8116 19.2028 21.0911C19.2685 21.3706 19.4309 21.6273 19.6694 21.8289C19.9078 22.0304 20.2116 22.1676 20.5424 22.2232C20.8731 22.2788 21.2159 22.2503 21.5275 22.1412C21.839 22.0321 22.1053 21.8475 22.2927 21.6105C22.48 21.3736 22.58 21.095 22.58 20.81C22.58 20.6208 22.5359 20.4334 22.4502 20.2586C22.3645 20.0838 22.2389 19.9249 22.0806 19.7911C21.9223 19.6573 21.7343 19.5512 21.5275 19.4788C21.3206 19.4064 21.0989 19.3691 20.875 19.3691ZM27.7019 17.9457C27.6983 17.497 27.6005 17.0524 27.4131 16.6326C27.2751 16.3254 27.0616 16.0464 26.7867 15.8141C26.5117 15.5817 26.1816 15.4013 25.8181 15.2847C25.3214 15.1263 24.7953 15.0437 24.2644 15.0407C23.3775 15 23.1162 15 20.875 15C18.6338 15 18.3725 15 17.4856 15.0407C16.9547 15.0437 16.4286 15.1263 15.9319 15.2847C15.5684 15.4013 15.2383 15.5817 14.9633 15.8141C14.6884 16.0464 14.4749 16.3254 14.3369 16.6326C14.1495 17.0524 14.0517 17.497 14.0481 17.9457C14 18.6952 14 18.9159 14 20.81C14 22.7041 14 22.9248 14.0481 23.6743C14.0555 24.1246 14.1532 24.5705 14.3369 24.9932C14.4743 25.299 14.6876 25.5764 14.9625 25.8066C15.2363 26.0403 15.5671 26.2208 15.9319 26.3353C16.4286 26.4937 16.9547 26.5763 17.4856 26.5793C18.3725 26.62 18.6338 26.62 20.875 26.62C23.1162 26.62 23.3775 26.62 24.2644 26.5793C24.7953 26.5763 25.3214 26.4937 25.8181 26.3353C26.1829 26.2208 26.5137 26.0403 26.7875 25.8066C27.0624 25.5764 27.2757 25.299 27.4131 24.9932C27.6003 24.5713 27.6981 24.1249 27.7019 23.6743C27.75 22.9248 27.75 22.7041 27.75 20.81C27.75 18.9159 27.75 18.6952 27.7019 17.9457ZM25.9556 22.5937C25.9336 22.9522 25.843 23.3054 25.6875 23.6395C25.554 23.9182 25.3556 24.1713 25.1041 24.3839C24.8525 24.5965 24.5529 24.7642 24.2231 24.877C23.824 25.0011 23.4038 25.0698 22.9788 25.0803H18.7712C18.3462 25.0698 17.926 25.0011 17.5269 24.877C17.1859 24.7699 16.8781 24.5991 16.6263 24.3773C16.3771 24.1689 16.1848 23.9171 16.0625 23.6395C15.9151 23.3026 15.836 22.947 15.8287 22.5879V19.0321C15.836 18.673 15.9151 18.3174 16.0625 17.9805C16.1892 17.6924 16.3913 17.4322 16.6538 17.2194C16.9015 17.01 17.1991 16.8476 17.5269 16.743C17.926 16.6189 18.3462 16.5502 18.7712 16.5396H22.9788C23.4038 16.5502 23.824 16.6189 24.2231 16.743C24.5641 16.8501 24.8719 17.0209 25.1238 17.2427C25.3729 17.4511 25.5652 17.7029 25.6875 17.9805C25.8343 18.3178 25.9156 18.6729 25.9281 19.0321V20.81C25.9281 22.0069 25.9762 22.1289 25.9556 22.5879V22.5937ZM24.8556 18.271C24.7738 18.0834 24.6447 17.9129 24.4774 17.7715C24.31 17.6301 24.1083 17.521 23.8862 17.4518C23.5813 17.3625 23.2602 17.3192 22.9375 17.324H18.8125C18.4882 17.3267 18.167 17.3778 17.8637 17.4751C17.6451 17.5411 17.4455 17.6457 17.2784 17.7819C17.1113 17.9182 16.9804 18.0829 16.8944 18.2652C16.7945 18.524 16.7458 18.7949 16.75 19.067V22.553C16.7568 22.8268 16.8172 23.0977 16.9288 23.3548C17.0106 23.5425 17.1397 23.7129 17.307 23.8543C17.4744 23.9957 17.6761 24.1048 17.8981 24.174C18.1915 24.2652 18.5001 24.3162 18.8125 24.325H22.9375C23.2618 24.3224 23.583 24.2712 23.8862 24.174C24.1083 24.1048 24.31 23.9957 24.4774 23.8543C24.6447 23.7129 24.7738 23.5425 24.8556 23.3548C24.9707 23.0985 25.0312 22.8271 25.0344 22.553V19.067C25.0346 18.7927 24.9739 18.5207 24.8556 18.2652V18.271ZM20.875 23.0294C20.5304 23.0294 20.1893 22.972 19.871 22.8604C19.5528 22.7488 19.2637 22.5852 19.0204 22.379C18.7771 22.1728 18.5843 21.9281 18.453 21.6589C18.3218 21.3897 18.2547 21.1012 18.2556 20.81C18.2556 20.3708 18.4098 19.9415 18.6987 19.5764C18.9876 19.2112 19.3982 18.9268 19.8784 18.759C20.3587 18.5912 20.8871 18.5476 21.3968 18.6337C21.9064 18.7198 22.3743 18.9317 22.7413 19.2427C23.1084 19.5537 23.3579 19.9497 23.4585 20.3806C23.5591 20.8115 23.5061 21.2579 23.3062 21.6634C23.1064 22.0688 22.7687 22.415 22.3359 22.6582C21.9031 22.9014 21.3947 23.0306 20.875 23.0294ZM23.625 19.0263C23.473 19.0127 23.3324 18.9521 23.2302 18.8561C23.1279 18.7601 23.0714 18.6355 23.0714 18.5063C23.0714 18.3772 23.1279 18.2526 23.2302 18.1566C23.3324 18.0606 23.473 17.9999 23.625 17.9863C23.777 17.9999 23.9176 18.0606 24.0198 18.1566C24.1221 18.2526 24.1786 18.3772 24.1786 18.5063C24.1786 18.6355 24.1221 18.7601 24.0198 18.8561C23.9176 18.9521 23.777 19.0127 23.625 19.0263Z" fill="black"/>
<path opacity="0.1" fill-rule="evenodd" clip-rule="evenodd" d="M20.5857 40.1713C31.4025 40.1713 40.1713 31.4025 40.1713 20.5857C40.1713 9.7688 31.4025 1 20.5857 1C9.7688 1 1 9.7688 1 20.5857C1 31.4025 9.7688 40.1713 20.5857 40.1713Z" stroke="#0A142F" stroke-width="1.67877"/>
</svg>
