<svg width="42" height="41" viewBox="0 0 42 41" fill="none" xmlns="http://www.w3.org/2000/svg">
<path d="M22.1827 19.9202L27.3011 15H26.088L21.6448 19.272L18.0944 15H14L19.3682 21.4607L14 26.62H15.2131L19.906 22.1081L23.6556 26.62H27.75L22.1827 19.9202ZM20.5217 21.5172L19.9778 20.8739L15.6499 15.7553H17.5131L21.0049 19.8862L21.5488 20.5295L26.089 25.8996H24.2258L20.5217 21.5172Z" fill="black"/>
<path opacity="0.1" fill-rule="evenodd" clip-rule="evenodd" d="M20.5857 40.1713C31.4025 40.1713 40.1713 31.4025 40.1713 20.5857C40.1713 9.7688 31.4025 1 20.5857 1C9.7688 1 1 9.7688 1 20.5857C1 31.4025 9.7688 40.1713 20.5857 40.1713Z" stroke="#0A142F" stroke-width="1.67877"/>
</svg>
