<svg width="114" height="104" viewBox="0 0 114 104" fill="none" xmlns="http://www.w3.org/2000/svg">
<g id="Group 1261152879">
<path id="Vector 16" d="M99.9391 78.5265C92.7407 84.3123 51.8119 103.581 40.8095 103.581C-31.1744 99.9651 9.18797 8.01157 32.8398 1.03757C56.4917 -5.93643 52.1493 24.3876 68.6028 28.262C81.7656 31.3616 94.626 34.1856 98.6537 35.9076C127.131 49.3706 108.937 71.2942 99.9391 78.5265Z" fill="#CA256D"/>
<g id="Group 1261152961">
<path id="Vector" d="M51.0488 78.4433H33V40H59.4396V70.6728" stroke="white" stroke-width="2" stroke-linecap="round" stroke-linejoin="round"/>
<path id="Vector_2" d="M36.4766 47.6875H55.5106" stroke="white" stroke-width="2" stroke-linecap="round" stroke-linejoin="round"/>
<path id="Vector_3" d="M36.7036 54.7031H55.7376" stroke="white" stroke-width="2" stroke-linecap="round" stroke-linejoin="round"/>
<path id="Vector_4" d="M36.7036 62.4062H49.2019" stroke="white" stroke-width="2" stroke-linecap="round" stroke-linejoin="round"/>
<path id="Vector_5" d="M62.1324 77.4111L62.6076 76.9375L65.1043 79.4422C65.2743 79.6132 65.3698 79.8445 65.3698 80.0855C65.3698 80.3266 65.2743 80.5579 65.1043 80.7288L61.0773 84.7348C60.9065 84.9051 60.675 85.0008 60.4337 85.0008C60.1924 85.0008 59.9609 84.9051 59.79 84.7348L57.2947 82.2314L57.7699 81.7578L60.2666 84.2626C60.3113 84.3071 60.3719 84.332 60.435 84.332C60.4981 84.332 60.5587 84.3071 60.6035 84.2626L64.6304 80.2566C64.675 80.2116 64.7 80.1509 64.7 80.0876C64.7 80.0242 64.675 79.9635 64.6304 79.9185L62.1324 77.4111Z" fill="white"/>
<path id="Vector_6" d="M62.0387 76.3576L56.7246 81.6484L57.293 82.2187L62.6071 76.9279L62.0387 76.3576Z" fill="white"/>
<path id="Vector_7" d="M47.4878 67.0779L52.0409 68.3054L48.6985 71.6285L47.4905 67.0779M46.3535 65.9375L48.0824 72.4362L48.2824 73.1834L56.7283 81.6583L57.2048 81.186L48.7576 72.7098L53.1148 68.3658L61.5633 76.846L62.0398 76.3724L53.5926 67.8962L53.2275 67.7983L53.1805 67.7849L52.9282 67.7164L52.8758 67.703H52.8691L46.3508 65.9429L46.3535 65.9375Z" fill="white"/>
</g>
</g>
</svg>
