<svg width="114" height="104" viewBox="0 0 114 104" fill="none" xmlns="http://www.w3.org/2000/svg">
<g id="Group 1261152879">
<path id="Vector 16" d="M99.9391 78.5265C92.7407 84.3123 51.8119 103.581 40.8095 103.581C-31.1744 99.9651 9.18797 8.01157 32.8398 1.03757C56.4917 -5.93643 52.1493 24.3876 68.6028 28.262C81.7656 31.3616 94.626 34.1856 98.6537 35.9076C127.131 49.3706 108.937 71.2942 99.9391 78.5265Z" fill="#CA256D"/>
<path id="Vector" d="M65.243 46.2229C63.1239 46.2151 61.0494 45.6135 59.2549 44.4864C57.4604 43.3593 56.0177 41.7519 55.0904 39.8465C55.0404 39.7426 54.9621 39.655 54.8645 39.5938C54.7669 39.5325 54.654 39.5 54.5388 39.5H42.8446C42.7294 39.5 42.6165 39.5325 42.5189 39.5938C42.4213 39.655 42.343 39.7426 42.293 39.8465C41.3657 41.7519 39.923 43.3593 38.1285 44.4864C36.334 45.6135 34.2595 46.2151 32.1404 46.2229C32.0599 46.2229 31.9802 46.2388 31.9059 46.2696C31.8315 46.3004 31.764 46.3456 31.7071 46.4025C31.6502 46.4594 31.6051 46.527 31.5743 46.6014C31.5436 46.6758 31.5278 46.7555 31.5278 46.836V70.5858C31.5278 73.4547 33.0085 76.0932 35.9311 78.4279C38.7332 80.6672 42.9641 82.7005 48.5073 84.471C48.6285 84.5097 48.7587 84.5097 48.8799 84.471C54.4232 82.7005 58.6541 80.6672 61.4562 78.4279C64.3769 76.0932 65.8594 73.4547 65.8594 70.5858V46.836C65.8595 46.7552 65.8436 46.6751 65.8126 46.6005C65.7816 46.5259 65.7361 46.4581 65.6788 46.4011C65.6215 46.3441 65.5535 46.299 65.4787 46.2685C65.4039 46.2379 65.3238 46.2224 65.243 46.2229ZM64.6299 70.5858C64.6299 75.5779 59.2686 79.836 48.6917 83.2419C38.1148 79.836 32.7535 75.5779 32.7535 70.5858V47.4355C34.9279 47.3309 37.0367 46.6573 38.8691 45.4821C40.711 44.3038 42.2123 42.664 43.224 40.7256H54.1594C55.1704 42.6637 56.6709 44.3035 58.5119 45.4821C60.345 46.6577 62.4547 47.3313 64.6299 47.4355V70.5858ZM52.9875 43.356C52.9312 43.2738 52.8558 43.2066 52.7677 43.1601C52.6796 43.1137 52.5815 43.0894 52.4819 43.0894H44.9015C44.802 43.0894 44.704 43.1137 44.616 43.1601C44.5279 43.2066 44.4526 43.2738 44.3964 43.356C42.3149 46.3976 39.1755 48.5552 35.5899 49.4082C35.4558 49.44 35.3363 49.5162 35.2509 49.6244C35.1654 49.7326 35.119 49.8665 35.1191 50.0044V70.5858C35.1191 75.2082 42.3946 78.6321 48.4977 80.6905C48.6248 80.733 48.7624 80.733 48.8896 80.6905C54.9907 78.6321 62.2662 75.2097 62.2662 70.5858V50.0044C62.2663 49.8665 62.2199 49.7326 62.1345 49.6244C62.049 49.5162 61.9296 49.44 61.7954 49.4082C58.2092 48.5557 55.0692 46.398 52.9875 43.356ZM61.0406 70.5858C61.0406 72.381 59.5043 74.211 56.4738 76.024C54.0048 77.4345 51.397 78.5868 48.6917 79.4624C45.9864 78.5868 43.3786 77.4345 40.9096 76.024C37.8791 74.211 36.3428 72.381 36.3428 70.5858V50.4805C39.9261 49.5137 43.0634 47.3349 45.2209 44.315H52.163C54.3201 47.335 57.4574 49.5138 61.0406 50.4805V70.5858ZM39.8896 62C39.8896 63.7409 40.4058 65.4427 41.373 66.8902C42.3402 68.3377 43.7149 69.4659 45.3233 70.1321C46.9317 70.7983 48.7015 70.9726 50.4089 70.633C52.1163 70.2933 53.6847 69.455 54.9157 68.224C56.1467 66.993 56.985 65.4246 57.3247 63.7172C57.6643 62.0098 57.49 60.24 56.8238 58.6316C56.1576 57.0232 55.0294 55.6485 53.5819 54.6813C52.1344 53.7141 50.4326 53.1979 48.6917 53.1979C46.358 53.2005 44.1207 54.1286 42.4705 55.7788C40.8203 57.429 39.8922 59.6663 39.8896 62ZM56.2682 62C56.2682 63.4985 55.8238 64.9633 54.9913 66.2092C54.1588 67.4552 52.9755 68.4263 51.5911 68.9997C50.2067 69.5732 48.6833 69.7232 47.2136 69.4309C45.7439 69.1385 44.3939 68.4169 43.3343 67.3574C42.2748 66.2978 41.5532 64.9478 41.2608 63.4781C40.9685 62.0084 41.1185 60.485 41.692 59.1006C42.2654 57.7162 43.2365 56.5329 44.4824 55.7004C45.7284 54.8679 47.1932 54.4235 48.6917 54.4235C50.7004 54.4259 52.6262 55.2248 54.0465 56.6452C55.4669 58.0655 56.2658 59.9913 56.2682 62ZM48.6917 56.1989C48.7722 56.1989 48.8519 56.2147 48.9263 56.2455C49.0007 56.2763 49.0683 56.3215 49.1252 56.3784C49.1821 56.4354 49.2273 56.5029 49.2581 56.5773C49.2889 56.6517 49.3048 56.7314 49.3048 56.8119V57.6935C50.5178 57.9089 51.4256 58.7494 51.4256 59.751V60.1569C51.4211 60.3165 51.3546 60.468 51.2401 60.5793C51.1257 60.6905 50.9724 60.7528 50.8127 60.7528C50.6531 60.7528 50.4998 60.6905 50.3854 60.5793C50.2709 60.468 50.2044 60.3165 50.1999 60.1569V59.751C50.1999 59.3329 49.5549 58.865 48.6917 58.865C47.8285 58.865 47.1835 59.3329 47.1835 59.751V60.5C47.1835 61.0047 47.4844 61.1721 48.7943 61.3947C49.8423 61.5732 51.4256 61.8427 51.4256 63.4981V64.2476C51.4256 65.2492 50.5178 66.0897 49.3048 66.305V67.1871C49.3048 67.3497 49.2402 67.5056 49.1252 67.6206C49.0102 67.7356 48.8543 67.8002 48.6917 67.8002C48.5291 67.8002 48.3732 67.7356 48.2582 67.6206C48.1432 67.5056 48.0786 67.3497 48.0786 67.1871V66.3064C46.8656 66.0911 45.9578 65.2506 45.9578 64.249V63.8431C45.9623 63.6835 46.0288 63.532 46.1433 63.4207C46.2577 63.3095 46.411 63.2472 46.5707 63.2472C46.7303 63.2472 46.8836 63.3095 46.998 63.4207C47.1125 63.532 47.179 63.6835 47.1835 63.8431V64.249C47.1835 64.6671 47.8285 65.135 48.6917 65.135C49.5549 65.135 50.1999 64.6671 50.1999 64.249V63.5C50.1999 62.9953 49.899 62.8279 48.5891 62.6053C47.5411 62.4268 45.9578 62.1573 45.9578 60.5019V59.7514C45.9578 58.7498 46.8656 57.9094 48.0786 57.694V56.8119C48.0786 56.6493 48.1432 56.4934 48.2582 56.3784C48.3732 56.2635 48.5291 56.1989 48.6917 56.1989Z" fill="white"/>
</g>
</svg>
