<svg width="50" height="46" viewBox="0 0 50 46" fill="none" xmlns="http://www.w3.org/2000/svg">
<path d="M1.26189 0.230469V31.4737C1.26189 31.8448 1.4095 32.2008 1.67227 32.4632C1.93503 32.7257 2.29141 32.8731 2.66302 32.8731C3.03462 32.8731 3.39101 32.7257 3.65377 32.4632C3.91653 32.2008 4.06415 31.8448 4.06415 31.4737V16.5063H47.205V42.4315H12.6251C12.2535 42.4315 11.8971 42.579 11.6343 42.8414C11.3716 43.1039 11.2239 43.4598 11.2239 43.831C11.2239 44.2022 11.3716 44.5581 11.6343 44.8206C11.8971 45.083 12.2535 45.2305 12.6251 45.2305H50.0073V0.230469H1.26189ZM47.205 13.7074H4.06415V3.02941H47.205V13.7074Z" fill="#143274"/>
<path d="M44.8722 7.5707C44.8722 7.94186 44.7246 8.29782 44.4618 8.56027C44.199 8.82273 43.8426 8.97017 43.471 8.97017H16.0018C15.6302 8.97017 15.2738 8.82273 15.0111 8.56027C14.7483 8.29782 14.6007 7.94186 14.6007 7.5707C14.6007 7.19953 14.7483 6.84357 15.0111 6.58112C15.2738 6.31867 15.6302 6.17123 16.0018 6.17123H43.471C43.8426 6.17123 44.199 6.31867 44.4618 6.58112C44.7246 6.84357 44.8722 7.19953 44.8722 7.5707Z" fill="#143274"/>
<path d="M12.569 7.66867C12.569 8.03983 12.4214 8.39579 12.1586 8.65824C11.8959 8.92069 11.5395 9.06814 11.1679 9.06814H7.48292C7.11132 9.06814 6.75493 8.92069 6.49217 8.65824C6.22941 8.39579 6.08179 8.03983 6.08179 7.66867C6.08179 7.2975 6.22941 6.94154 6.49217 6.67909C6.75493 6.41664 7.11132 6.26919 7.48292 6.26919H11.1679C11.5395 6.26919 11.8959 6.41664 12.1586 6.67909C12.4214 6.94154 12.569 7.2975 12.569 7.66867Z" fill="#143274"/>
<path d="M40.4025 33.6289C40.267 33.7536 40.1081 33.8504 39.935 33.9137C39.7619 33.9771 39.578 34.0056 39.3938 33.9978C39.2096 33.99 39.0288 33.946 38.8617 33.8683C38.6946 33.7906 38.5444 33.6807 38.4199 33.5449L33.516 28.1849L25.5575 36.6867C25.3119 36.9484 24.9751 37.1059 24.6166 37.1268C24.2581 37.1476 23.9053 37.0302 23.631 36.7987L16.0929 30.501L2.38277 43.894C2.25121 44.0226 2.09559 44.1241 1.92476 44.1927C1.75392 44.2613 1.57122 44.2955 1.38712 44.2936C1.20302 44.2916 1.02112 44.2535 0.851778 44.1813C0.682437 44.1092 0.528976 44.0044 0.400177 43.873C0.271377 43.7416 0.169747 43.5861 0.101097 43.4155C0.0324477 43.2449 -0.00187283 43.0624 7.8793e-05 42.8785C0.00203042 42.6946 0.0402156 42.5129 0.112471 42.3438C0.184727 42.1746 0.289633 42.0214 0.421193 41.8927L15.042 27.6181C15.2898 27.3752 15.6191 27.2329 15.966 27.2187C16.3128 27.2045 16.6526 27.3194 16.9195 27.5411L24.4156 33.8388L32.5071 25.204C32.6384 25.0646 32.7969 24.9535 32.9728 24.8777C33.1487 24.8019 33.3384 24.7629 33.53 24.7632C33.7226 24.7647 33.9129 24.8059 34.0888 24.8841C34.2648 24.9624 34.4228 25.0761 34.5528 25.218L40.5006 31.6906C40.7383 31.9636 40.8609 32.3181 40.8426 32.6794C40.8243 33.0408 40.6666 33.3811 40.4025 33.6289Z" fill="#143274"/>
</svg>
