<svg width="60" height="60" viewBox="0 0 60 60" fill="none" xmlns="http://www.w3.org/2000/svg">
<path d="M42.5188 41.0903V52.3477H6.40527V7.34766H39.7175C40.0115 7.34766 40.2935 7.46423 40.5014 7.67175C40.7094 7.87927 40.8262 8.16074 40.8262 8.45421C40.8262 8.74769 40.7094 9.02914 40.5014 9.23666C40.2935 9.44418 40.0115 9.56077 39.7175 9.56077H8.62264V50.1345H40.3014V41.0903C40.3014 40.7968 40.4182 40.5153 40.6261 40.3078C40.834 40.1003 41.116 39.9837 41.4101 39.9837C41.7041 39.9837 41.9861 40.1003 42.194 40.3078C42.402 40.5153 42.5188 40.7968 42.5188 41.0903Z" fill="#143274"/>
<path d="M24.462 30.8509H16.4943V33.064H24.462V30.8509Z" fill="#143274"/>
<path d="M32.5997 40.1534H16.4943V42.3665H32.5997V40.1534Z" fill="#143274"/>
<path d="M43.5535 28.8149C43.3667 29.0125 43.1667 29.1974 42.9549 29.3681C42.9892 29.2711 43.0447 29.1829 43.1175 29.1099C43.2337 28.9744 43.3843 28.8725 43.5535 28.8149Z" fill="#143274"/>
<path d="M53.0734 36.4722L45.6083 29.8329C46.9275 28.2083 47.5792 26.1442 47.4314 24.0582C47.2837 21.9722 46.3476 20.0202 44.8125 18.597C43.2773 17.1738 41.2579 16.3858 39.1627 16.3923C37.0675 16.3989 35.0531 17.1996 33.5269 18.6323C32.0008 20.0651 31.077 22.023 30.9424 24.1099C30.8077 26.1967 31.4724 28.2567 32.8018 29.873C34.1313 31.4893 36.0262 32.5412 38.1032 32.8159C40.1803 33.0906 42.2843 32.5675 43.9896 31.3526L51.6026 38.1173C51.8041 38.3014 52.0685 38.4016 52.3417 38.3976C52.5666 38.398 52.7862 38.33 52.9715 38.2029C53.1568 38.0757 53.2989 37.8954 53.3791 37.6857C53.4593 37.476 53.4737 37.2469 53.4204 37.0289C53.3671 36.8109 53.2487 36.6142 53.0808 36.4649L53.0734 36.4722ZM33.1984 24.6689C33.1984 23.0783 33.8315 21.5528 34.9584 20.4281C36.0854 19.3033 37.6138 18.6714 39.2075 18.6714C40.8012 18.6714 42.3296 19.3033 43.4565 20.4281C44.5834 21.5528 45.2165 23.0783 45.2165 24.6689C45.2199 26.2091 44.6236 27.6904 43.5535 28.8001C43.3667 28.9978 43.1667 29.1826 42.9548 29.3534C42.0717 30.0603 41.0062 30.5034 39.8814 30.6317C38.7567 30.76 37.6185 30.5681 36.5983 30.0783C35.5781 29.5885 34.7176 28.8207 34.116 27.8635C33.5144 26.9063 33.1963 25.7989 33.1984 24.6689Z" fill="#143274"/>
</svg>
