<svg width="114" height="104" viewBox="0 0 114 104" fill="none" xmlns="http://www.w3.org/2000/svg">
<path d="M99.9391 78.5265C92.7407 84.3123 51.8119 103.581 40.8095 103.581C-31.1744 99.9651 9.18797 8.01157 32.8398 1.03757C56.4917 -5.93643 52.1493 24.3876 68.6028 28.262C81.7656 31.3616 94.626 34.1856 98.6537 35.9076C127.131 49.3706 108.937 71.2942 99.9391 78.5265Z" fill="#CA256D"/>
<path d="M56.9592 65.7108V64.5699C56.9592 63.1031 55.7536 61.9047 54.2896 61.9047H50.1943C48.7303 61.9047 47.5246 63.1031 47.5246 64.5699V65.7108H56.9592ZM58.0787 64.5699V66.8325H46.4147V64.5699C46.4147 62.6525 47.8595 61.0418 49.735 60.8118C47.6969 58.6163 49.2565 55.0307 52.2419 55.0307C55.2273 55.0307 56.787 58.6259 54.7489 60.8118C56.6339 61.0418 58.0787 62.6525 58.0787 64.5699ZM50.6153 60.1023C52.0697 61.5596 54.5671 60.5241 54.5671 58.4629C54.5671 56.4017 52.0697 55.3663 50.6153 56.8235C49.7063 57.7343 49.7063 59.2011 50.6153 60.1023ZM52.2419 70.2359C56.9496 70.2359 60.777 66.4106 60.777 61.6842C60.777 56.9577 56.9592 53.1325 52.2419 53.1325C47.5246 53.1325 43.7068 56.9577 43.7068 61.6842C43.7164 66.4106 47.5342 70.2359 52.2419 70.2359ZM59.0738 68.5294C55.3038 72.3067 49.1896 72.3067 45.4196 68.5294C41.6496 64.7521 41.6496 58.6259 45.4196 54.8486C49.1896 51.0713 55.3038 51.0713 59.0738 54.8486C62.8438 58.6259 62.8438 64.7425 59.0738 68.5294ZM43.4963 73.9173L43.8025 74.2145L40.6257 78.4616H61.5999V71.6835H68.3649V45.3669H59.2748V47.6391H45.2186V45.3669H36.1285V72.8819L39.755 70.1784L40.0325 70.4564L42.1567 68.328C39.0182 63.5537 39.6498 57.1974 43.7068 53.1325C48.4241 48.4156 56.0693 48.4156 60.777 53.1325C65.4943 57.8589 65.4943 65.519 60.777 70.2359C56.7296 74.3008 50.3856 74.9431 45.6109 71.789L43.4963 73.9173ZM39.7837 79.5833C38.7407 80.983 37.6978 82.3731 36.6452 83.7729L32.8274 85L29 81.1652L30.1961 77.3112L35.0186 73.716V44.2453H45.2186V41.8581H48.3284C49.2087 39.1066 52.6055 38.0903 54.8541 39.9311C55.4569 40.4296 55.9162 41.1007 56.165 41.8581H59.2748V44.2357H69.4748V72.4793L62.3845 79.5833H39.7837ZM42.3194 74.3296L39.6498 71.6548L31.1529 77.9918L30.263 80.8488L33.1336 83.7249L35.9659 82.8141L42.3194 74.3296ZM52.2419 50.7165C46.1946 50.7165 41.286 55.6251 41.286 61.6938C41.286 64.0138 42.0036 66.2189 43.3336 68.0788L43.6111 68.4623L40.8267 71.2521L42.7021 73.1312L45.4866 70.3413C46.6252 71.1562 47.5055 71.6931 48.8929 72.1437C52.8447 73.4092 57.1219 72.3259 59.9924 69.4497C64.2695 65.1643 64.2695 58.2137 59.9924 53.9282C58.0117 51.9341 55.2656 50.7165 52.2419 50.7165ZM52.2419 41.8389C53.4954 41.8389 54.1365 43.3728 53.2466 44.2644C52.3567 45.156 50.8258 44.5233 50.8258 43.2578C50.8258 42.4716 51.4669 41.8389 52.2419 41.8389ZM52.462 43.0469C52.1845 42.7688 51.7539 43.1907 52.041 43.4687C52.3089 43.7467 52.7395 43.3249 52.462 43.0469ZM46.3381 42.9798V46.5174H58.1553V42.9798H55.2751L55.189 42.5292C54.7489 40.3241 52.0984 39.3654 50.3474 40.7939C49.8211 41.2253 49.4479 41.8293 49.3044 42.5292L49.2183 42.9798H46.3381ZM67.5611 72.8148H62.7099V77.6755L67.5611 72.8148Z" fill="white"/>
</svg>
