<svg width="114" height="104" viewBox="0 0 114 104" fill="none" xmlns="http://www.w3.org/2000/svg">
<path d="M99.9391 78.5265C92.7407 84.3123 51.8119 103.581 40.8095 103.581C-31.1744 99.9651 9.18797 8.01157 32.8398 1.03757C56.4917 -5.93643 52.1493 24.3876 68.6028 28.262C81.7656 31.3616 94.626 34.1856 98.6537 35.9076C127.131 49.3706 108.937 71.2942 99.9391 78.5265Z" fill="#CA256D"/>
<path fill-rule="evenodd" clip-rule="evenodd" d="M61.0388 68.3773L61.3532 68.5997C62.582 69.5304 63.3964 70.9074 63.6207 72.434C63.8449 73.9605 63.4612 75.5141 62.5521 76.7598C61.6431 78.0056 60.2815 78.8436 58.7612 79.0932C57.2408 79.3428 55.6834 78.984 54.4247 78.0941C53.1661 77.2042 52.3071 75.8546 52.033 74.3363C51.7589 72.818 52.0916 71.2526 52.9594 69.9777C53.8272 68.7027 55.1606 67.8205 56.672 67.5211C58.1834 67.2218 59.7517 67.5293 61.0388 68.3773ZM62.5828 78.9702L64.1226 80.673C64.4647 81.0349 64.1315 81.3381 64.5421 81.7676L69.2638 86.705C69.424 86.8733 69.6444 86.9709 69.8765 86.9765C70.1085 86.982 70.3333 86.895 70.5014 86.7346C70.6694 86.5742 70.7669 86.3535 70.7724 86.121C70.778 85.8886 70.6911 85.6635 70.5309 85.4952L65.8092 80.5579C65.3869 80.1189 65.0706 80.4559 64.727 80.0672L63.1638 78.3752C63.0459 78.2665 62.9744 78.1166 62.9641 77.9565C62.9538 77.7964 63.0055 77.6385 63.1084 77.5156C63.7116 76.8108 64.1564 75.9844 64.4128 75.0924C64.6691 74.2004 64.731 73.2636 64.5942 72.3456C64.4023 70.9307 63.7747 69.6109 62.7989 68.5699C61.823 67.5288 60.5474 66.8183 59.1496 66.5372C57.7517 66.2561 56.3011 66.4184 54.9996 67.0014C53.6982 67.5845 52.6105 68.5594 51.8881 69.7903C51.1656 71.0213 50.8443 72.4473 50.9688 73.8697C51.0933 75.2921 51.6575 76.6403 52.5828 77.7266C53.508 78.813 54.7485 79.5834 56.1314 79.9308C57.5143 80.2782 58.971 80.1853 60.2987 79.6649C60.8056 79.4541 61.285 79.1823 61.7263 78.8555C61.8562 78.7602 62.0179 78.7189 62.1776 78.7403C62.3372 78.7616 62.4824 78.844 62.5828 78.9702ZM64.4013 77.885C65.0802 76.9343 65.543 75.8463 65.7571 74.6974C65.9712 73.5485 65.9315 72.3666 65.6408 71.2347C65.35 70.1029 64.8153 69.0485 64.0742 68.1457C63.3331 67.2429 62.4035 66.5136 61.3509 66.009V49.959C61.3524 49.7939 61.2886 49.6349 61.1735 49.5167C58.7486 47.0694 56.2749 44.6367 53.8561 42.188C53.798 42.1284 53.7286 42.081 53.6519 42.0487C53.5752 42.0165 53.4929 41.9999 53.4097 42H26.6223C26.457 42.0005 26.2987 42.0666 26.182 42.1839C26.0653 42.3012 25.9999 42.46 26 42.6256V88.3744C25.9999 88.54 26.0653 88.6988 26.182 88.8161C26.2987 88.9334 26.457 88.9995 26.6223 89H60.7262C60.8082 89 60.8895 88.9838 60.9652 88.9524C61.041 88.9209 61.1099 88.8749 61.1679 88.8168C61.2259 88.7587 61.2719 88.6897 61.3033 88.6138C61.3347 88.5379 61.3509 88.4566 61.3509 88.3744V80.5522C61.5733 80.4385 61.7896 80.3139 61.9994 80.1805L63.0652 81.3592C63.1093 81.8369 63.3134 82.2856 63.6443 82.6324L68.366 87.5674C68.7577 87.9625 69.2886 88.1877 69.8444 88.1945C70.4003 88.2014 70.9366 87.9894 71.3379 87.6041C71.7391 87.2189 71.9733 86.6912 71.99 86.1348C72.0066 85.5783 71.8044 85.0376 71.4268 84.629L66.7052 79.694C66.3814 79.3567 65.9554 79.136 65.4934 79.0666L64.4013 77.885ZM61.3509 70.3053V76.2907C62.057 75.4539 62.4444 74.3936 62.4444 73.298C62.4444 72.2024 62.057 71.1421 61.3509 70.3053ZM60.1016 77.3323V69.2666C59.3971 68.8659 58.6 68.6572 57.7899 68.6615C56.9797 68.6658 56.1849 68.8829 55.4847 69.291C54.7845 69.6992 54.2035 70.2841 53.7996 70.9875C53.3958 71.6909 53.1832 72.4881 53.1832 73.2994C53.1832 74.1108 53.3958 74.9079 53.7996 75.6113C54.2035 76.3147 54.7845 76.8997 55.4847 77.3078C56.1849 77.716 56.9797 77.933 57.7899 77.9373C58.6 77.9416 59.3971 77.733 60.1016 77.3323ZM60.1016 81.0636C59.7197 81.1818 59.3289 81.269 58.933 81.3244C57.0124 81.5963 55.0584 81.1655 53.4295 80.1109H42.3567C42.2732 80.1132 42.1902 80.0987 42.1124 80.0683C42.0347 80.0379 41.9638 79.9922 41.904 79.9339C41.8441 79.8756 41.7966 79.8059 41.7641 79.7289C41.7316 79.6519 41.7149 79.5691 41.7149 79.4856C41.7149 79.402 41.7316 79.3192 41.7641 79.2422C41.7966 79.1652 41.8441 79.0955 41.904 79.0372C41.9638 78.9789 42.0347 78.9332 42.1124 78.9028C42.1902 78.8724 42.2732 78.8579 42.3567 78.8602H51.9258C50.8359 77.7059 50.1106 76.255 49.8407 74.6894H46.4739C46.3082 74.6894 46.1493 74.6235 46.0322 74.5062C45.9151 74.3889 45.8492 74.2298 45.8492 74.0639C45.8492 73.898 45.9151 73.7388 46.0322 73.6215C46.1493 73.5042 46.3082 73.4383 46.4739 73.4383H49.721C49.7101 72.8489 49.7636 72.2601 49.8806 71.6824H42.3567C42.2732 71.6847 42.1902 71.6702 42.1124 71.6398C42.0347 71.6094 41.9638 71.5637 41.904 71.5054C41.8441 71.4471 41.7966 71.3774 41.7641 71.3004C41.7316 71.2234 41.7149 71.1406 41.7149 71.057C41.7149 70.9735 41.7316 70.8907 41.7641 70.8137C41.7966 70.7367 41.8441 70.667 41.904 70.6087C41.9638 70.5504 42.0347 70.5047 42.1124 70.4743C42.1902 70.4439 42.2732 70.4294 42.3567 70.4317H50.241C50.9644 68.5196 52.3821 66.9517 54.2105 66.0416C56.0388 65.1315 58.1428 64.9465 60.1016 65.5235V50.5775H53.4097C53.2441 50.5775 53.0852 50.5116 52.9681 50.3943C52.8509 50.277 52.7851 50.1178 52.7851 49.9519V43.2511H27.2488V87.7489H60.1002V81.0636H60.1016ZM39.7872 60.0682C40.816 60.68 41.9746 61.0394 43.1686 61.1173L41.5668 65.1593L40.7517 63.549C40.6833 63.4133 40.5677 63.3073 40.4268 63.251C40.2858 63.1946 40.1291 63.1918 39.9862 63.2431L38.2869 63.8569L39.7886 60.0677L39.7872 60.0682ZM44.5188 61.0876C45.5947 60.9692 46.6329 60.6216 47.5636 60.0682L49.0654 63.8574L47.3656 63.244C47.2227 63.1928 47.0661 63.1956 46.9252 63.2519C46.7843 63.3083 46.6689 63.4143 46.6006 63.55L45.784 65.1593L44.3447 61.5266L44.5188 61.0876ZM43.674 63.2158L45.1228 66.8724C45.1617 66.9893 45.2343 67.092 45.3314 67.1675C45.4286 67.2431 45.5459 67.2882 45.6685 67.2971C45.7912 67.306 45.9138 67.2783 46.0208 67.2175C46.1278 67.1568 46.2144 67.0656 46.2697 66.9556L47.4613 64.6032L49.9416 65.5C50.0541 65.5394 50.1756 65.5457 50.2916 65.5181C50.4076 65.4906 50.5133 65.4303 50.5962 65.3445C50.6791 65.2587 50.7357 65.1508 50.7593 65.0338C50.7829 64.9168 50.7726 64.7954 50.7295 64.6841L48.6064 59.3261C49.7988 58.3146 50.6523 56.9607 51.0515 55.4476C51.4507 53.9345 51.3764 52.3352 50.8385 50.8658C50.3006 49.3964 49.3252 48.1279 48.044 47.2317C46.7629 46.3355 45.2379 45.855 43.6752 45.855C42.1125 45.855 40.5875 46.3355 39.3064 47.2317C38.0252 48.1279 37.0498 49.3964 36.5119 50.8658C35.974 52.3352 35.8996 53.9345 36.2988 55.4476C36.698 56.9607 37.5516 58.3146 38.744 59.3261L36.6208 64.6841C36.5778 64.7954 36.5674 64.9168 36.5911 65.0338C36.6147 65.1508 36.6713 65.2587 36.7542 65.3445C36.8371 65.4303 36.9428 65.4906 37.0588 65.5181C37.1748 65.5457 37.2963 65.5394 37.4088 65.5L39.8881 64.6047L41.0797 66.957C41.135 67.067 41.2217 67.1582 41.3286 67.219C41.4356 67.2797 41.5582 67.3074 41.6809 67.2985C41.8036 67.2896 41.9209 67.2445 42.018 67.169C42.1152 67.0934 42.1878 66.9907 42.2267 66.8738L43.6754 63.2172L43.674 63.2158ZM41.0257 54.6007C40.9121 54.4827 40.8493 54.3247 40.8509 54.1608C40.8524 53.9969 40.918 53.8401 41.0338 53.7242C41.1495 53.6083 41.3061 53.5425 41.4697 53.541C41.6334 53.5395 41.7911 53.6024 41.909 53.7162L42.4965 54.3046L45.4414 51.353C45.5585 51.2358 45.7173 51.1699 45.8828 51.1699C46.0484 51.1699 46.2071 51.2358 46.3242 51.353C46.4412 51.4702 46.507 51.6292 46.507 51.795C46.507 51.9608 46.4412 52.1198 46.3242 52.2371L42.9377 55.63C42.8797 55.6881 42.8109 55.7342 42.7352 55.7657C42.6595 55.7971 42.5783 55.8133 42.4963 55.8133C42.4143 55.8133 42.3331 55.7971 42.2574 55.7657C42.1816 55.7342 42.1128 55.6881 42.0549 55.63L41.0257 54.6007ZM48.1873 48.9743C49.0803 49.8681 49.6885 51.0071 49.9351 52.2471C50.1816 53.4871 50.0554 54.7725 49.5725 55.9407C49.0895 57.1089 48.2714 58.1074 47.2217 58.8099C46.1721 59.5124 44.9379 59.8874 43.6754 59.8874C42.4129 59.8874 41.1788 59.5124 40.1291 58.8099C39.0794 58.1074 38.2614 57.1089 37.7784 55.9407C37.2954 54.7725 37.1692 53.4871 37.4158 52.2471C37.6623 51.0071 38.2706 49.8681 39.1635 48.9743C40.3604 47.7764 41.9833 47.1034 43.6754 47.1034C45.3676 47.1034 46.9905 47.7764 48.1873 48.9743ZM43.6754 48.04C44.7521 48.04 45.8047 48.3597 46.6999 48.9588C47.5952 49.5579 48.2929 50.4094 48.705 51.4056C49.117 52.4018 49.2248 53.498 49.0148 54.5556C48.8047 55.6132 48.2862 56.5846 47.5249 57.3471C46.7635 58.1096 45.7935 58.6288 44.7375 58.8392C43.6815 59.0496 42.5869 58.9416 41.5921 58.529C40.5974 58.1163 39.7471 57.4175 39.149 56.5209C38.5508 55.6244 38.2315 54.5703 38.2315 53.492C38.2315 52.046 38.805 50.6593 39.826 49.6368C40.8469 48.6144 42.2316 48.04 43.6754 48.04ZM46.6419 50.5216C47.2287 51.1092 47.6283 51.8579 47.7902 52.673C47.952 53.488 47.869 54.3329 47.5514 55.1007C47.2339 55.8684 46.6961 56.5247 46.0061 56.9864C45.3162 57.4481 44.505 57.6945 43.6752 57.6945C42.8454 57.6945 42.0342 57.4481 41.3442 56.9864C40.6543 56.5247 40.1165 55.8684 39.799 55.1007C39.4814 54.3329 39.3983 53.488 39.5602 52.673C39.7221 51.8579 40.1217 51.1092 40.7085 50.5216C41.4953 49.7336 42.5625 49.2909 43.6752 49.2909C44.7879 49.2909 45.8551 49.7336 46.6419 50.5216ZM33.5211 81.1477L34.8351 82.4637C34.9522 82.5808 35.111 82.6466 35.2765 82.6466C35.442 82.6466 35.6008 82.5808 35.7179 82.4637L37.604 80.5771V83.3191H32.9509V78.66H37.604V78.8095L35.2777 81.1393L34.4038 80.2641C34.3469 80.2018 34.2779 80.1517 34.2011 80.1168C34.1243 80.0819 34.0413 80.0629 33.9569 80.0611C33.8726 80.0592 33.7888 80.0744 33.7105 80.1059C33.6322 80.1373 33.5611 80.1843 33.5015 80.244C33.4418 80.3037 33.3949 80.3749 33.3634 80.4533C33.332 80.5317 33.3167 80.6156 33.3186 80.7001C33.3204 80.7845 33.3393 80.8677 33.3741 80.9446C33.4089 81.0216 33.4589 81.0907 33.5211 81.1477ZM38.7383 77.673L39.1659 77.2448C39.2232 77.1839 39.2921 77.1351 39.3686 77.1014C39.4451 77.0676 39.5276 77.0496 39.6111 77.0483C39.6947 77.0471 39.7777 77.0626 39.8551 77.0941C39.9326 77.1255 40.003 77.1722 40.0621 77.2314C40.1212 77.2905 40.1679 77.361 40.1993 77.4385C40.2307 77.5161 40.2463 77.5992 40.2451 77.6829C40.2439 77.7666 40.2259 77.8492 40.1922 77.9258C40.1586 78.0024 40.1099 78.0715 40.0491 78.1289L38.8528 79.3265V83.9442C38.8529 84.0263 38.8368 84.1077 38.8055 84.1836C38.7741 84.2595 38.7282 84.3284 38.6702 84.3865C38.6122 84.4446 38.5434 84.4907 38.4676 84.5222C38.3919 84.5536 38.3107 84.5698 38.2287 84.5698H32.3267C32.161 84.5698 32.0022 84.5039 31.885 84.3866C31.7679 84.2692 31.7021 84.1101 31.7021 83.9442V78.0335C31.7021 77.9514 31.7182 77.87 31.7496 77.7942C31.781 77.7183 31.827 77.6494 31.885 77.5913C31.943 77.5333 32.0119 77.4872 32.0877 77.4558C32.1635 77.4245 32.2447 77.4083 32.3267 77.4084H38.2287C38.3285 77.4083 38.427 77.4323 38.5156 77.4783C38.6043 77.5242 38.6807 77.5913 38.7383 77.673ZM55.0232 81.8673C55.1889 81.8673 55.3478 81.9332 55.4649 82.0505C55.5821 82.1678 55.6479 82.3269 55.6479 82.4929C55.6479 82.6588 55.5821 82.8179 55.4649 82.9352C55.3478 83.0525 55.1889 83.1184 55.0232 83.1184H46.4739C46.3082 83.1184 46.1493 83.0525 46.0322 82.9352C45.9151 82.8179 45.8492 82.6588 45.8492 82.4929C45.8492 82.3269 45.9151 82.1678 46.0322 82.0505C46.1493 81.9332 46.3082 81.8673 46.4739 81.8673H55.0232ZM33.5211 72.7192L34.8351 74.0352C34.9522 74.1523 35.111 74.2181 35.2765 74.2181C35.442 74.2181 35.6008 74.1523 35.7179 74.0352L37.604 72.1486V74.8906H32.9509V70.2306H37.604V70.38L35.2777 72.7098L34.4038 71.8347C34.3465 71.7738 34.2775 71.725 34.201 71.6913C34.1245 71.6576 34.042 71.6396 33.9585 71.6384C33.8749 71.6372 33.7919 71.6528 33.7145 71.6843C33.6371 71.7157 33.5667 71.7625 33.5076 71.8217C33.4485 71.8809 33.4019 71.9513 33.3705 72.0289C33.3391 72.1065 33.3236 72.1896 33.3249 72.2733C33.3261 72.357 33.3441 72.4396 33.3778 72.5162C33.4115 72.5928 33.4602 72.6618 33.5211 72.7192ZM38.7388 69.244L39.1663 68.8159C39.2239 68.756 39.2929 68.7083 39.3691 68.6754C39.4453 68.6425 39.5273 68.6252 39.6103 68.6244C39.6933 68.6237 39.7756 68.6395 39.8525 68.6709C39.9293 68.7024 39.9991 68.7489 40.0578 68.8076C40.1165 68.8664 40.1629 68.9363 40.1943 69.0133C40.2257 69.0902 40.2415 69.1726 40.2407 69.2557C40.2399 69.3389 40.2226 69.421 40.1898 69.4973C40.157 69.5737 40.1093 69.6427 40.0496 69.7004L38.8533 70.898V75.5157C38.8534 75.5978 38.8373 75.6792 38.8059 75.7551C38.7746 75.831 38.7286 75.8999 38.6707 75.958C38.6127 76.0161 38.5439 76.0622 38.4681 76.0936C38.3924 76.1251 38.3112 76.1413 38.2291 76.1413H32.3267C32.161 76.1413 32.0022 76.0754 31.885 75.958C31.7679 75.8407 31.7021 75.6816 31.7021 75.5157V69.605C31.7021 69.5229 31.7182 69.4415 31.7496 69.3657C31.781 69.2898 31.827 69.2209 31.885 69.1628C31.943 69.1047 32.0119 69.0587 32.0877 69.0273C32.1635 68.9959 32.2447 68.9798 32.3267 68.9799H38.2287C38.3285 68.9798 38.427 69.0038 38.5156 69.0498C38.6043 69.0957 38.6812 69.1623 38.7388 69.244ZM54.0344 49.3273V44.1352L59.2188 49.3273H54.0344Z" fill="white"/>
</svg>
