<svg width="114" height="104" viewBox="0 0 114 104" fill="none" xmlns="http://www.w3.org/2000/svg">
<path d="M99.9391 78.5265C92.7407 84.3123 51.8119 103.581 40.8095 103.581C-31.1744 99.9651 9.18797 8.01157 32.8398 1.03757C56.4917 -5.93643 52.1493 24.3876 68.6028 28.262C81.7656 31.3616 94.626 34.1856 98.6537 35.9076C127.131 49.3706 108.937 71.2942 99.9391 78.5265Z" fill="#CA256D"/>
<path d="M54.0146 83.1448V88.1307C54.0146 88.5779 53.6488 88.9437 53.2016 88.9437H48.2021C47.755 88.9437 47.3892 88.5779 47.3892 88.1307V83.1448C47.3892 82.6976 47.755 82.3318 48.2021 82.3318H53.2016C53.6488 82.3318 54.0146 82.6976 54.0146 83.1448ZM52.3887 87.3314V83.9577H49.0286V87.3314H52.3887ZM62.6994 77.4407H67.6989C68.146 77.4407 68.5118 77.8065 68.5118 78.2536V83.2532C68.5118 83.7003 68.146 84.0661 67.6989 84.0661H62.6994C62.2523 84.0661 61.8864 83.7003 61.8864 83.2532V78.2536C61.8864 77.8065 62.2523 77.4407 62.6994 77.4407ZM66.8724 79.0666H63.5123V82.4267H66.8724V79.0666ZM67.7396 62.8079H72.7255C73.1726 62.8079 73.5385 63.1738 73.5385 63.6209V68.6204C73.5385 69.0675 73.1726 69.4333 72.7255 69.4333H67.7396C67.2924 69.4333 66.9266 69.0675 66.9266 68.6204V63.6209C66.9266 63.1738 67.2924 62.8079 67.7396 62.8079ZM71.9261 64.4338H68.566V67.7939H71.9261V64.4338ZM57.754 66.9403C57.3069 66.9403 56.9411 66.5745 56.9411 66.1274C56.9411 65.6803 57.3069 65.3145 57.754 65.3145H60.3825C60.0303 65.0841 59.9354 64.6099 60.1386 64.2441C60.3554 63.8512 60.8567 63.7157 61.2361 63.946L63.7833 65.4093C64.3388 65.7209 64.3388 66.5068 63.7968 66.8184L61.2497 68.2952C60.8703 68.512 60.369 68.3901 60.1522 67.9971C59.949 67.6313 60.0438 67.1842 60.369 66.9403H57.754ZM47.3485 61.9408H54.0552C54.5023 61.9408 54.8681 62.3066 54.8681 62.7537V69.4604C54.8681 69.9075 54.5023 70.2734 54.0552 70.2734H47.3485C46.9014 70.2734 46.5356 69.9075 46.5356 69.4604V62.7537C46.5356 62.3066 46.9014 61.9408 47.3485 61.9408ZM53.2558 63.5802H48.175V68.661H53.2558V63.5802ZM55.8166 72.387C55.4914 72.0618 55.4914 71.5469 55.8166 71.2353C56.1417 70.9101 56.6566 70.9101 56.9682 71.2353L58.8244 73.0915C58.7567 72.6851 59.0005 72.2786 59.4206 72.1566C59.8541 72.0347 60.3012 72.2921 60.4096 72.7392L61.1684 75.571C61.3309 76.1807 60.7754 76.7362 60.1793 76.5736L57.334 75.8148C56.3585 75.5574 56.6701 74.0806 57.6592 74.2296L55.8166 72.387ZM49.8822 73.1999C49.8822 72.7528 50.248 72.387 50.6951 72.387C51.1422 72.387 51.508 72.7528 51.508 73.1999V75.8148C51.7384 75.4761 52.2126 75.3677 52.5784 75.571C52.9713 75.7877 53.1068 76.289 52.8765 76.682L51.4132 79.2156C51.1016 79.7711 50.3157 79.7711 50.0041 79.2291L48.5408 76.682C48.3241 76.289 48.446 75.8013 48.8389 75.571C49.2047 75.3677 49.6518 75.4626 49.8957 75.7877V73.1999H49.8822ZM58.3908 52.5921C59.4883 52.5921 60.5722 52.6734 61.629 52.836V39.6259H22.229V45.4925H23.4484C25.4265 45.4925 26.0904 49.0965 25.0878 51.1424C24.722 51.9011 24.1394 52.3753 23.4484 52.3753H22.229V59.0414H23.4484C25.4265 59.0414 26.0904 62.6454 25.0878 64.6912C24.722 65.45 24.1394 65.9242 23.4484 65.9242H22.229V72.5902H23.4484C25.4265 72.5902 26.0904 76.1942 25.0878 78.2401C24.722 78.9988 24.1394 79.473 23.4484 79.473H22.229V85.3397H40.5877C35.1275 76.9394 36.3333 65.87 43.3923 58.811C47.2266 54.9632 52.5377 52.5921 58.3908 52.5921ZM63.2549 53.1476C72.712 55.3696 79.5948 63.8512 79.5948 73.7961C79.5948 85.5023 70.0971 95 58.3908 95C51.6977 95 45.682 91.8973 41.7529 86.952H21.416C20.9689 86.952 20.6031 86.5862 20.6031 86.1391V79.4595H19.0992C17.1346 79.473 16.4572 75.8555 17.4598 73.8232C17.8256 73.0644 18.4082 72.5902 19.0992 72.5902H20.6031V65.9242H19.0992C17.1346 65.9242 16.4572 62.3066 17.4598 60.2743C17.8256 59.5156 18.4082 59.0549 19.0992 59.0549H20.6031V52.3889H19.0992C17.1346 52.3753 16.4572 48.7578 17.4598 46.7255C17.8256 45.9667 18.4082 45.4925 19.0992 45.4925H20.6031V38.8129C20.6031 38.3658 20.9689 38 21.416 38H62.442C62.8891 38 63.2549 38.3658 63.2549 38.8129V53.1476ZM72.2378 59.9491C64.5962 52.3076 52.1855 52.3076 44.5439 59.9491C41.0077 63.4854 38.8128 68.3901 38.8128 73.7961C38.8128 84.5538 47.5247 93.3741 58.3908 93.3741C69.2028 93.3741 77.9689 84.608 77.9689 73.7961C77.9689 68.3901 75.774 63.4989 72.2378 59.9491ZM29.5047 57.5645C29.0576 57.5645 28.6918 57.1987 28.6918 56.7516C28.6918 56.3045 29.0576 55.9387 29.5047 55.9387H41.509C41.9561 55.9387 42.3219 56.3045 42.3219 56.7516C42.3219 57.1987 41.9561 57.5645 41.509 57.5645H29.5047ZM29.5047 76.5194C29.0576 76.5194 28.6918 76.1536 28.6918 75.7064C28.6918 75.2593 29.0576 74.8935 29.5047 74.8935H34.6262C35.0733 74.8935 35.4391 75.2593 35.4391 75.7064C35.4391 76.1536 35.0733 76.5194 34.6262 76.5194H29.5047ZM29.5047 70.2056C29.0576 70.2056 28.6918 69.8398 28.6918 69.3927C28.6918 68.9456 29.0576 68.5797 29.5047 68.5797H34.9242C35.3714 68.5797 35.7372 68.9456 35.7372 69.3927C35.7372 69.8398 35.3714 70.2056 34.9242 70.2056H29.5047ZM29.5047 63.8918C29.0576 63.8918 28.6918 63.526 28.6918 63.0789C28.6918 62.6318 29.0576 62.266 29.5047 62.266H36.5637C37.0108 62.266 37.3766 62.6318 37.3766 63.0789C37.3766 63.526 37.0108 63.8918 36.5637 63.8918H29.5047ZM29.5047 50.1262C29.0576 50.1262 28.6918 49.7604 28.6918 49.3133C28.6918 48.8662 29.0576 48.5004 29.5047 48.5004H56.5076C56.9547 48.5004 57.3205 48.8662 57.3205 49.3133C57.3205 49.7604 56.9547 50.1262 56.5076 50.1262H29.5047ZM18.625 48.9339C18.625 49.5301 18.7469 50.0585 18.9231 50.4378C19.0179 50.6275 19.0856 50.7495 19.1127 50.7495H23.4619C23.489 50.7495 23.5568 50.6275 23.6516 50.4378C24.0445 49.6385 24.0445 48.2429 23.6516 47.4435C23.5568 47.2539 23.489 47.1319 23.4619 47.1319H19.0992C19.0856 47.1319 19.0043 47.2539 18.9095 47.4435C18.7334 47.7958 18.625 48.3378 18.625 48.9339ZM18.625 76.0316C18.625 76.6278 18.7469 77.1562 18.9231 77.5355C19.0179 77.7252 19.0856 77.8472 19.1127 77.8472H23.4619C23.489 77.8472 23.5568 77.7252 23.6516 77.5355C24.0445 76.7362 24.0445 75.3406 23.6516 74.5412C23.5568 74.3516 23.489 74.2296 23.4619 74.2296H19.0992C19.0856 74.2296 19.0043 74.3516 18.9095 74.5412C18.7334 74.8935 18.625 75.4219 18.625 76.0316ZM18.625 62.4828C18.625 63.0925 18.7469 63.6209 18.9231 63.9867C19.0179 64.1764 19.0856 64.2983 19.1127 64.2983H23.4619C23.489 64.2983 23.5568 64.1764 23.6516 63.9867C24.0445 63.1873 24.0445 61.7918 23.6516 60.9924C23.5568 60.8027 23.489 60.6808 23.4619 60.6808H19.0992C19.0856 60.6808 19.0043 60.8027 18.9095 60.9924C18.7334 61.3447 18.625 61.8731 18.625 62.4828Z" fill="white"/>
</svg>
