<svg width="114" height="104" viewBox="0 0 114 104" fill="none" xmlns="http://www.w3.org/2000/svg">
<path d="M99.9391 78.5265C92.7407 84.3123 51.8119 103.581 40.8095 103.581C-31.1744 99.9651 9.18797 8.01157 32.8398 1.03757C56.4917 -5.93643 52.1493 24.3876 68.6028 28.262C81.7656 31.3616 94.626 34.1856 98.6537 35.9076C127.131 49.3706 108.937 71.2942 99.9391 78.5265Z" fill="#CA256D"/>
<path d="M66.1693 76.1667H65.3868V50.2305C65.3645 49.6223 65.1073 49.0465 64.6695 48.6242C64.2316 48.202 63.6472 47.9663 63.0392 47.9667H50.5187C50.3168 45.3027 49.4121 42.7402 47.8972 40.5407C47.2008 39.4753 45.3618 37 43.4759 37C41.59 37 39.7511 39.4675 39.0546 40.5328C37.5577 42.7444 36.6549 45.3045 36.4331 47.9667H23.9127C23.3047 47.9663 22.7202 48.202 22.2824 48.6242C21.8445 49.0465 21.5874 49.6223 21.5651 50.2305V76.1667H20.7825C20.575 76.1667 20.376 76.2492 20.2292 76.3961C20.0824 76.543 20 76.7422 20 76.95V80.0833C20 81.1221 20.4122 82.1183 21.146 82.8528C21.8798 83.5873 22.875 84 23.9127 84H63.0392C64.0769 84 65.0721 83.5873 65.8059 82.8528C66.5396 82.1183 66.9518 81.1221 66.9518 80.0833V76.95C66.9518 76.7422 66.8694 76.543 66.7226 76.3961C66.5759 76.2492 66.3769 76.1667 66.1693 76.1667ZM50.2526 51.6013C51.4214 53.1302 52.2244 54.9068 52.6002 56.7948C51.8288 55.9222 50.9029 55.1999 49.8692 54.6642C50.0101 53.4892 50.1431 52.4708 50.2526 51.6013ZM43.4759 38.5667C44.008 38.5667 45.041 39.2795 46.1835 40.8227C45.3934 41.3885 44.4474 41.695 43.4759 41.7C42.5027 41.6985 41.5549 41.3886 40.7684 40.8148C41.8561 39.35 42.9203 38.5667 43.4759 38.5667ZM39.8998 42.1308C40.945 42.8721 42.1949 43.2691 43.4759 43.2667C44.7556 43.2683 46.0045 42.8743 47.0521 42.1387C48.1911 44.002 48.8449 46.1217 48.9536 48.3035C48.9536 48.4288 48.9536 48.562 48.9536 48.7108C48.9536 49.0007 48.9536 49.3375 48.8832 49.69C48.7658 50.9355 48.5467 52.6667 48.2181 54.9932C47.9363 56.9515 47.6546 58.7767 47.506 59.6932H39.4459C39.2972 58.7532 39.0155 56.9358 38.7338 54.9932C38.5147 53.4813 38.2251 51.335 38.0765 49.6978V49.502C38.0765 49.2122 38.0217 48.938 38.0139 48.7187C38.023 46.3906 38.6757 44.1104 39.8998 42.1308ZM40.3458 61.2833H46.606V62.85H40.3458V61.2833ZM36.707 51.6013C36.8322 52.651 36.9731 53.7477 37.1061 54.6798C36.074 55.2181 35.1486 55.9401 34.3751 56.8105C34.7437 54.9183 35.5415 53.1361 36.707 51.6013ZM23.1301 50.2305C23.1514 50.038 23.2431 49.8603 23.3877 49.7315C23.5322 49.6028 23.7192 49.5322 23.9127 49.5333H36.4331C33.8542 52.2884 32.4505 55.9417 32.5205 59.7167V59.8968C32.5164 60.079 32.576 60.2569 32.6888 60.3998C32.8016 60.5428 32.9607 60.6419 33.1387 60.6802H33.303C33.4536 60.6799 33.6008 60.6361 33.7271 60.5541C33.8534 60.4721 33.9534 60.3554 34.0151 60.218C34.7019 58.603 35.865 57.2365 37.3487 56.3013C37.693 58.6513 38.006 60.5705 38.006 60.594C38.0289 60.7837 38.1203 60.9585 38.263 61.0855C38.4057 61.2124 38.5898 61.2828 38.7807 61.2833V63.6333C38.7807 63.8411 38.8632 64.0403 39.0099 64.1872C39.1567 64.3341 39.3557 64.4167 39.5633 64.4167H47.3886C47.5961 64.4167 47.7952 64.3341 47.9419 64.1872C48.0887 64.0403 48.1711 63.8411 48.1711 63.6333V61.2833C48.3587 61.2857 48.5409 61.2206 48.6845 61.0999C48.8281 60.9791 48.9236 60.8107 48.9536 60.6253C48.9536 60.6253 49.2666 58.6748 49.6188 56.317C51.102 57.2507 52.2629 58.6179 52.9445 60.2337C53.0063 60.3711 53.1063 60.4878 53.2326 60.5698C53.3589 60.6518 53.5061 60.6955 53.6566 60.6958H53.821C53.999 60.6576 54.158 60.5585 54.2709 60.4155C54.3837 60.2725 54.4432 60.0947 54.4392 59.9125V59.7167C54.4947 56.3373 53.3898 53.0412 51.3091 50.3793C51.0821 50.0973 50.8317 49.8232 50.5735 49.5568H63.0392C63.2326 49.5557 63.4197 49.6263 63.5642 49.755C63.7087 49.8838 63.8004 50.0615 63.8217 50.254V76.1667H23.1301V50.2305ZM49.5953 77.7333C49.4339 78.1904 49.1351 78.5864 48.7401 78.8669C48.345 79.1473 47.8729 79.2986 47.3886 79.3H39.5633C39.0789 79.2986 38.6069 79.1473 38.2118 78.8669C37.8167 78.5864 37.518 78.1904 37.3565 77.7333H49.5953ZM65.3868 80.0833C65.3868 80.7066 65.1394 81.3043 64.6992 81.745C64.2589 82.1857 63.6618 82.4333 63.0392 82.4333H23.9127C23.29 82.4333 22.6929 82.1857 22.2527 81.745C21.8124 81.3043 21.5651 80.7066 21.5651 80.0833V77.7333H35.7289C35.9093 78.618 36.3895 79.4131 37.0882 79.9841C37.7869 80.5551 38.6613 80.8669 39.5633 80.8667H47.3886C48.2906 80.8669 49.1649 80.5551 49.8636 79.9841C50.5624 79.4131 51.0426 78.618 51.223 77.7333H65.3868V80.0833ZM39.5633 66.8763C39.5342 66.6686 39.5888 66.4578 39.715 66.2903C39.8412 66.1228 40.0287 66.0124 40.2362 65.9833C40.4438 65.9542 40.6544 66.0089 40.8217 66.1352C40.989 66.2616 41.0993 66.4492 41.1283 66.657C41.41 68.5918 42.3491 71.4667 43.4759 71.4667C44.6028 71.4667 45.5496 68.5918 45.8235 66.657C45.8379 66.5541 45.8724 66.4551 45.925 66.3656C45.9776 66.2761 46.0473 66.1978 46.1302 66.1352C46.213 66.0727 46.3074 66.0271 46.4078 66.001C46.5082 65.9749 46.6128 65.9689 46.7156 65.9833C46.8184 65.9977 46.9173 66.0323 47.0067 66.0849C47.0962 66.1376 47.1744 66.2074 47.2368 66.2903C47.2993 66.3732 47.3449 66.4677 47.3709 66.5682C47.397 66.6688 47.403 66.7735 47.3886 66.8763C47.2321 67.9025 46.3556 73.0333 43.4759 73.0333C40.5962 73.0333 39.7198 67.9025 39.5633 66.8763ZM42.6934 68.3333V66.7667C42.6934 66.5589 42.7758 66.3597 42.9226 66.2128C43.0693 66.0659 43.2684 65.9833 43.4759 65.9833C43.6835 65.9833 43.8825 66.0659 44.0293 66.2128C44.176 66.3597 44.2585 66.5589 44.2585 66.7667V68.3333C44.2585 68.5411 44.176 68.7403 44.0293 68.8872C43.8825 69.0341 43.6835 69.1167 43.4759 69.1167C43.2684 69.1167 43.0693 69.0341 42.9226 68.8872C42.7758 68.7403 42.6934 68.5411 42.6934 68.3333ZM43.4759 51.8833C44.095 51.8833 44.7002 51.6996 45.2149 51.3553C45.7297 51.011 46.1309 50.5216 46.3678 49.9491C46.6047 49.3765 46.6667 48.7465 46.5459 48.1387C46.4251 47.5309 46.127 46.9726 45.6893 46.5344C45.2515 46.0962 44.6938 45.7978 44.0866 45.6769C43.4794 45.556 42.85 45.618 42.2781 45.8552C41.7061 46.0923 41.2173 46.4939 40.8733 47.0092C40.5294 47.5245 40.3458 48.1303 40.3458 48.75C40.3458 49.581 40.6756 50.378 41.2626 50.9656C41.8496 51.5532 42.6458 51.8833 43.4759 51.8833ZM43.4759 47.1833C43.7855 47.1833 44.0881 47.2752 44.3454 47.4474C44.6028 47.6195 44.8034 47.8642 44.9219 48.1505C45.0403 48.4367 45.0713 48.7517 45.0109 49.0556C44.9505 49.3595 44.8015 49.6387 44.5826 49.8578C44.3637 50.0769 44.0848 50.2261 43.7813 50.2866C43.4777 50.347 43.163 50.316 42.877 50.1974C42.591 50.0788 42.3466 49.878 42.1746 49.6204C42.0027 49.3628 41.9109 49.0599 41.9109 48.75C41.9109 48.3345 42.0758 47.936 42.3693 47.6422C42.6628 47.3484 43.0608 47.1833 43.4759 47.1833Z" fill="white"/>
</svg>
