<svg width="551" height="113" viewBox="0 0 551 113" fill="none" xmlns="http://www.w3.org/2000/svg">
<path d="M24.552 82.72L26.088 66.208H70.504L71.912 82.72H24.552ZM47.976 43.296L35.432 72.224L36.456 76.96L25.32 100H0.872L47.976 4.768L95.208 100H70.632L59.88 77.856L60.648 72.352L47.976 43.296ZM121.877 0.159996V100H102.549V0.159996H121.877ZM170.005 70.56C170.005 77.1307 168.64 82.72 165.909 87.328C163.264 91.8507 159.808 95.3067 155.541 97.696C151.36 100.085 146.837 101.28 141.973 101.28C137.109 101.28 132.757 100.043 128.917 97.568C125.077 95.0933 122.048 91.552 119.829 86.944C117.61 82.336 116.501 76.8747 116.501 70.56C116.501 64.16 117.61 58.6987 119.829 54.176C122.048 49.568 125.077 46.0267 128.917 43.552C132.757 41.0773 137.109 39.84 141.973 39.84C146.837 39.84 151.36 41.0347 155.541 43.424C159.808 45.8133 163.264 49.2693 165.909 53.792C168.64 58.3147 170.005 63.904 170.005 70.56ZM149.653 70.56C149.653 67.488 149.013 64.8427 147.733 62.624C146.453 60.32 144.746 58.5707 142.613 57.376C140.48 56.096 138.133 55.456 135.573 55.456C133.354 55.456 131.178 56.0533 129.045 57.248C126.997 58.4427 125.29 60.192 123.925 62.496C122.56 64.7147 121.877 67.4027 121.877 70.56C121.877 73.7173 122.56 76.448 123.925 78.752C125.29 80.9707 126.997 82.6773 129.045 83.872C131.178 85.0667 133.354 85.664 135.573 85.664C138.133 85.664 140.48 85.0667 142.613 83.872C144.746 82.592 146.453 80.8427 147.733 78.624C149.013 76.32 149.653 73.632 149.653 70.56ZM178.221 70.56C178.221 64.3307 179.672 58.912 182.573 54.304C185.474 49.696 189.485 46.112 194.605 43.552C199.725 40.992 205.485 39.712 211.885 39.712C218.285 39.712 224.002 40.992 229.037 43.552C234.157 46.112 238.168 49.696 241.069 54.304C244.056 58.912 245.549 64.3307 245.549 70.56C245.549 76.704 244.056 82.08 241.069 86.688C238.168 91.296 234.157 94.88 229.037 97.44C224.002 100 218.285 101.28 211.885 101.28C205.485 101.28 199.725 100 194.605 97.44C189.485 94.88 185.474 91.296 182.573 86.688C179.672 82.08 178.221 76.704 178.221 70.56ZM198.061 70.56C198.061 73.632 198.701 76.2773 199.981 78.496C201.261 80.6293 202.925 82.2933 204.973 83.488C207.021 84.6827 209.325 85.28 211.885 85.28C214.36 85.28 216.621 84.6827 218.669 83.488C220.802 82.2933 222.466 80.6293 223.661 78.496C224.941 76.2773 225.581 73.632 225.581 70.56C225.581 67.488 224.941 64.8427 223.661 62.624C222.466 60.4053 220.802 58.6987 218.669 57.504C216.621 56.3093 214.36 55.712 211.885 55.712C209.325 55.712 207.021 56.3093 204.973 57.504C202.925 58.6987 201.261 60.4053 199.981 62.624C198.701 64.8427 198.061 67.488 198.061 70.56ZM277.401 76.96C277.401 80.3733 278.041 83.0613 279.321 85.024C280.601 86.9013 282.82 87.84 285.977 87.84C288.11 87.84 289.902 87.4133 291.353 86.56C292.889 85.7067 294.084 84.4693 294.937 82.848C295.79 81.2267 296.217 79.264 296.217 76.96V41.12H315.545V100H296.217V91.168C294.425 94.3253 292.078 96.8427 289.177 98.72C286.276 100.512 282.649 101.408 278.297 101.408C270.958 101.408 265.582 99.4453 262.169 95.52C258.841 91.5093 257.177 86.0053 257.177 79.008V41.12H277.401V76.96ZM323.89 41.12H363.314V57.12H323.89V41.12ZM334.258 20.64H352.818V100H334.258V20.64ZM411.207 10.4H432.839V69.024C432.839 73.5467 434.034 77.216 436.423 80.032C438.812 82.848 442.396 84.256 447.175 84.256C452.039 84.256 455.666 82.848 458.055 80.032C460.444 77.216 461.639 73.5467 461.639 69.024V10.4H483.271V70.56C483.271 76.192 482.332 81.0987 480.455 85.28C478.663 89.4613 476.103 92.9173 472.775 95.648C469.532 98.2933 465.692 100.299 461.255 101.664C456.903 103.029 452.21 103.712 447.175 103.712C442.14 103.712 437.447 103.029 433.095 101.664C428.743 100.299 424.903 98.2933 421.575 95.648C418.332 92.9173 415.772 89.4613 413.895 85.28C412.103 81.0987 411.207 76.192 411.207 70.56V10.4ZM502.877 78.624C505.864 81.0987 508.552 83.0613 510.941 84.512C513.416 85.8773 515.592 86.8587 517.469 87.456C519.346 87.968 520.968 88.224 522.333 88.224C524.296 88.224 525.746 87.7973 526.685 86.944C527.624 86.0907 528.093 84.9813 528.093 83.616C528.093 82.336 527.709 81.2693 526.941 80.416C526.173 79.4773 524.85 78.5813 522.973 77.728C521.181 76.8747 518.706 75.9787 515.549 75.04C512.733 74.016 510.045 72.8213 507.485 71.456C505.01 70.0053 502.962 68.0853 501.341 65.696C499.72 63.3067 498.909 60.2347 498.909 56.48C498.909 52.896 499.848 49.8667 501.725 47.392C503.688 44.9173 506.29 43.04 509.533 41.76C512.861 40.48 516.658 39.84 520.925 39.84C524.338 39.84 527.496 40.224 530.397 40.992C533.384 41.76 536.157 42.784 538.717 44.064C541.362 45.344 543.837 46.8373 546.141 48.544L539.229 61.088C536.754 58.784 533.938 56.9067 530.781 55.456C527.624 53.92 524.722 53.152 522.077 53.152C520.285 53.152 518.92 53.4933 517.981 54.176C517.128 54.8587 516.701 55.7547 516.701 56.864C516.701 58.144 517.213 59.2107 518.237 60.064C519.346 60.9173 520.882 61.728 522.845 62.496C524.893 63.1787 527.368 64.0747 530.269 65.184C533.341 66.2933 536.157 67.5733 538.717 69.024C541.362 70.4747 543.453 72.3093 544.989 74.528C546.61 76.7467 547.421 79.6907 547.421 83.36C547.421 89.6747 545.458 94.4533 541.533 97.696C537.693 100.853 532.274 102.432 525.277 102.432C521.01 102.432 517.042 101.92 513.373 100.896C509.789 99.9573 506.461 98.6773 503.389 97.056C500.317 95.3493 497.458 93.472 494.813 91.424L502.877 78.624Z" fill="#F0F0F0"/>
<path d="M181.832 93.52L182.408 87.328H199.064L199.592 93.52H181.832ZM190.616 78.736L185.912 89.584L186.296 91.36L182.12 100H172.952L190.616 64.288L208.328 100H199.112L195.08 91.696L195.368 89.632L190.616 78.736ZM218.329 62.56V100H211.081V62.56H218.329ZM236.377 88.96C236.377 91.424 235.865 93.52 234.841 95.248C233.849 96.944 232.553 98.24 230.953 99.136C229.385 100.032 227.689 100.48 225.865 100.48C224.041 100.48 222.409 100.016 220.969 99.088C219.529 98.16 218.393 96.832 217.561 95.104C216.729 93.376 216.313 91.328 216.313 88.96C216.313 86.56 216.729 84.512 217.561 82.816C218.393 81.088 219.529 79.76 220.969 78.832C222.409 77.904 224.041 77.44 225.865 77.44C227.689 77.44 229.385 77.888 230.953 78.784C232.553 79.68 233.849 80.976 234.841 82.672C235.865 84.368 236.377 86.464 236.377 88.96ZM228.745 88.96C228.745 87.808 228.505 86.816 228.025 85.984C227.545 85.12 226.905 84.464 226.105 84.016C225.305 83.536 224.425 83.296 223.465 83.296C222.633 83.296 221.817 83.52 221.017 83.968C220.249 84.416 219.609 85.072 219.097 85.936C218.585 86.768 218.329 87.776 218.329 88.96C218.329 90.144 218.585 91.168 219.097 92.032C219.609 92.864 220.249 93.504 221.017 93.952C221.817 94.4 222.633 94.624 223.465 94.624C224.425 94.624 225.305 94.4 226.105 93.952C226.905 93.472 227.545 92.816 228.025 91.984C228.505 91.12 228.745 90.112 228.745 88.96ZM239.458 88.96C239.458 86.624 240.002 84.592 241.09 82.864C242.178 81.136 243.682 79.792 245.602 78.832C247.522 77.872 249.682 77.392 252.082 77.392C254.482 77.392 256.626 77.872 258.514 78.832C260.434 79.792 261.938 81.136 263.026 82.864C264.146 84.592 264.706 86.624 264.706 88.96C264.706 91.264 264.146 93.28 263.026 95.008C261.938 96.736 260.434 98.08 258.514 99.04C256.626 100 254.482 100.48 252.082 100.48C249.682 100.48 247.522 100 245.602 99.04C243.682 98.08 242.178 96.736 241.09 95.008C240.002 93.28 239.458 91.264 239.458 88.96ZM246.898 88.96C246.898 90.112 247.138 91.104 247.618 91.936C248.098 92.736 248.722 93.36 249.49 93.808C250.258 94.256 251.122 94.48 252.082 94.48C253.01 94.48 253.858 94.256 254.626 93.808C255.426 93.36 256.05 92.736 256.498 91.936C256.978 91.104 257.218 90.112 257.218 88.96C257.218 87.808 256.978 86.816 256.498 85.984C256.05 85.152 255.426 84.512 254.626 84.064C253.858 83.616 253.01 83.392 252.082 83.392C251.122 83.392 250.258 83.616 249.49 84.064C248.722 84.512 248.098 85.152 247.618 85.984C247.138 86.816 246.898 87.808 246.898 88.96ZM276.65 91.36C276.65 92.64 276.89 93.648 277.37 94.384C277.85 95.088 278.682 95.44 279.866 95.44C280.666 95.44 281.338 95.28 281.882 94.96C282.458 94.64 282.906 94.176 283.226 93.568C283.546 92.96 283.706 92.224 283.706 91.36V77.92H290.954V100H283.706V96.688C283.034 97.872 282.154 98.816 281.066 99.52C279.978 100.192 278.618 100.528 276.986 100.528C274.234 100.528 272.218 99.792 270.938 98.32C269.69 96.816 269.066 94.752 269.066 92.128V77.92H276.65V91.36ZM294.084 77.92H308.868V83.92H294.084V77.92ZM297.972 70.24H304.932V100H297.972V70.24ZM326.828 66.4H334.94V88.384C334.94 90.08 335.388 91.456 336.284 92.512C337.18 93.568 338.524 94.096 340.316 94.096C342.14 94.096 343.5 93.568 344.396 92.512C345.292 91.456 345.74 90.08 345.74 88.384V66.4H353.852V88.96C353.852 91.072 353.5 92.912 352.796 94.48C352.124 96.048 351.164 97.344 349.916 98.368C348.7 99.36 347.26 100.112 345.596 100.624C343.964 101.136 342.204 101.392 340.316 101.392C338.428 101.392 336.668 101.136 335.036 100.624C333.404 100.112 331.964 99.36 330.716 98.368C329.5 97.344 328.54 96.048 327.836 94.48C327.164 92.912 326.828 91.072 326.828 88.96V66.4ZM361.204 91.984C362.324 92.912 363.332 93.648 364.228 94.192C365.156 94.704 365.972 95.072 366.676 95.296C367.38 95.488 367.988 95.584 368.5 95.584C369.236 95.584 369.78 95.424 370.132 95.104C370.484 94.784 370.66 94.368 370.66 93.856C370.66 93.376 370.516 92.976 370.228 92.656C369.94 92.304 369.444 91.968 368.74 91.648C368.068 91.328 367.14 90.992 365.956 90.64C364.9 90.256 363.892 89.808 362.932 89.296C362.004 88.752 361.236 88.032 360.628 87.136C360.02 86.24 359.716 85.088 359.716 83.68C359.716 82.336 360.068 81.2 360.772 80.272C361.508 79.344 362.484 78.64 363.7 78.16C364.948 77.68 366.372 77.44 367.972 77.44C369.252 77.44 370.436 77.584 371.524 77.872C372.644 78.16 373.684 78.544 374.644 79.024C375.636 79.504 376.564 80.064 377.428 80.704L374.836 85.408C373.908 84.544 372.852 83.84 371.668 83.296C370.484 82.72 369.396 82.432 368.404 82.432C367.732 82.432 367.22 82.56 366.868 82.816C366.548 83.072 366.388 83.408 366.388 83.824C366.388 84.304 366.58 84.704 366.964 85.024C367.38 85.344 367.956 85.648 368.692 85.936C369.46 86.192 370.388 86.528 371.476 86.944C372.628 87.36 373.684 87.84 374.644 88.384C375.636 88.928 376.42 89.616 376.996 90.448C377.604 91.28 377.908 92.384 377.908 93.76C377.908 96.128 377.172 97.92 375.7 99.136C374.26 100.32 372.228 100.912 369.604 100.912C368.004 100.912 366.516 100.72 365.14 100.336C363.796 99.984 362.548 99.504 361.396 98.896C360.244 98.256 359.172 97.552 358.18 96.784L361.204 91.984Z" fill="#143274"/>
</svg>
