<svg width="114" height="104" viewBox="0 0 114 104" fill="none" xmlns="http://www.w3.org/2000/svg">
<g id="Group 1261152879">
<path id="Vector 16" d="M99.9391 78.5265C92.7407 84.3123 51.8119 103.581 40.8095 103.581C-31.1744 99.9651 9.18797 8.01157 32.8398 1.03757C56.4917 -5.93643 52.1493 24.3876 68.6028 28.262C81.7656 31.3616 94.626 34.1856 98.6537 35.9076C127.131 49.3706 108.937 71.2942 99.9391 78.5265Z" fill="#CA256D"/>
<g id="Group">
<path id="Vector" d="M38.5203 43.6C38.5204 43.7182 38.4971 43.8353 38.4519 43.9445C38.4066 44.0537 38.3402 44.153 38.2565 44.2365C38.1728 44.3201 38.0734 44.3864 37.964 44.4316C37.8546 44.4768 37.7374 44.5001 37.619 44.5H29.5068C29.2677 44.5 29.0385 44.4052 28.8694 44.2364C28.7004 44.0676 28.6054 43.8387 28.6054 43.6C28.6054 43.3613 28.7004 43.1324 28.8694 42.9636C29.0385 42.7948 29.2677 42.7 29.5068 42.7H37.619C37.7374 42.6999 37.8546 42.7232 37.964 42.7684C38.0734 42.8136 38.1728 42.8799 38.2565 42.9635C38.3402 43.047 38.4066 43.1463 38.4519 43.2555C38.4971 43.3647 38.5204 43.4818 38.5203 43.6ZM63.7583 42.7C63.58 42.7 63.4057 42.7528 63.2575 42.8517C63.1093 42.9506 62.9938 43.0911 62.9255 43.2556C62.8573 43.42 62.8395 43.601 62.8742 43.7756C62.909 43.9502 62.9949 44.1105 63.1209 44.2364C63.247 44.3623 63.4076 44.448 63.5824 44.4827C63.7573 44.5174 63.9385 44.4996 64.1032 44.4315C64.2679 44.3634 64.4087 44.248 64.5077 44.1C64.6068 43.952 64.6596 43.778 64.6596 43.6C64.6596 43.3613 64.5647 43.1324 64.3956 42.9636C64.2266 42.7948 63.9973 42.7 63.7583 42.7ZM63.7583 53.5V66.1C63.7584 66.2182 63.7351 66.3353 63.6898 66.4445C63.6445 66.5537 63.5781 66.653 63.4944 66.7365C63.4107 66.8201 63.3113 66.8864 63.2019 66.9316C63.0926 66.9768 62.9753 67.0001 62.8569 67H44.8298C44.7114 67.0001 44.5942 66.9768 44.4848 66.9316C44.3754 66.8864 44.276 66.8201 44.1923 66.7365C44.1086 66.653 44.0422 66.5537 43.9969 66.4445C43.9517 66.3353 43.9284 66.2182 43.9285 66.1V53.5C43.9284 53.3818 43.9517 53.2647 43.9969 53.1555C44.0422 53.0463 44.1086 52.947 44.1923 52.8635C44.276 52.7799 44.3754 52.7136 44.4848 52.6684C44.5942 52.6232 44.7114 52.5999 44.8298 52.6H47.5339V49.9C47.5338 49.7818 47.5571 49.6647 47.6024 49.5555C47.6476 49.4463 47.714 49.347 47.7977 49.2635C47.8814 49.1799 47.9808 49.1136 48.0902 49.0684C48.1996 49.0232 48.3169 48.9999 48.4352 49H59.2515C59.3699 48.9999 59.4871 49.0232 59.5965 49.0684C59.7059 49.1136 59.8053 49.1799 59.889 49.2635C59.9727 49.347 60.0391 49.4463 60.0844 49.5555C60.1297 49.6647 60.1529 49.7818 60.1529 49.9V52.6H62.8569C62.9753 52.5999 63.0926 52.6232 63.2019 52.6684C63.3113 52.7136 63.4107 52.7799 63.4944 52.8635C63.5781 52.947 63.6445 53.0463 63.6898 53.1555C63.7351 53.2647 63.7584 53.3818 63.7583 53.5ZM49.3366 52.6H58.3502V50.8H49.3366V52.6ZM61.9556 59.1934L57.4488 60.4791V61.6C57.4489 61.7182 57.4256 61.8353 57.3803 61.9445C57.335 62.0537 57.2687 62.153 57.1849 62.2365C57.1012 62.3201 57.0018 62.3864 56.8925 62.4316C56.7831 62.4768 56.6658 62.5001 56.5474 62.5H51.1393C51.0209 62.5001 50.9037 62.4768 50.7943 62.4316C50.6849 62.3864 50.5855 62.3201 50.5018 62.2365C50.4181 62.153 50.3517 62.0537 50.3064 61.9445C50.2612 61.8353 50.2379 61.7182 50.238 61.6V60.4791L45.7312 59.1934V65.2H61.9556V59.1934ZM55.6461 60.7V58.9H52.0407V60.7H55.6461ZM61.9556 54.4H45.7312V57.3209L50.238 58.6066V58C50.2379 57.8818 50.2612 57.7647 50.3064 57.6555C50.3517 57.5463 50.4181 57.447 50.5018 57.3634C50.5855 57.2799 50.6849 57.2136 50.7943 57.1684C50.9037 57.1232 51.0209 57.0999 51.1393 57.1H56.5474C56.6658 57.0999 56.7831 57.1232 56.8925 57.1684C57.0018 57.2136 57.1012 57.2799 57.1849 57.3634C57.2687 57.447 57.335 57.5463 57.3803 57.6555C57.4256 57.7647 57.4489 57.8818 57.4488 58V58.6066L61.9556 57.3209V54.4ZM33.1122 59.8C33.1122 59.088 33.3237 58.392 33.7198 57.7999C34.116 57.2079 34.6791 56.7465 35.3379 56.474C35.9967 56.2016 36.7216 56.1303 37.421 56.2692C38.1204 56.4081 38.7628 56.7509 39.267 57.2544C39.7713 57.7579 40.1146 58.3993 40.2538 59.0977C40.3929 59.796 40.3215 60.5198 40.0486 61.1777C39.7757 61.8355 39.3136 62.3977 38.7207 62.7933C38.1278 63.1889 37.4307 63.4 36.7176 63.4C35.7617 63.399 34.8452 63.0195 34.1693 62.3445C33.4933 61.6696 33.1132 60.7545 33.1122 59.8ZM34.9149 59.8C34.9149 60.156 35.0206 60.504 35.2187 60.8C35.4168 61.096 35.6983 61.3267 36.0278 61.463C36.3572 61.5992 36.7196 61.6349 37.0693 61.5654C37.419 61.496 37.7402 61.3245 37.9923 61.0728C38.2444 60.8211 38.4161 60.5003 38.4857 60.1512C38.5553 59.802 38.5196 59.4401 38.3831 59.1112C38.2467 58.7823 38.0156 58.5011 37.7192 58.3034C37.4227 58.1056 37.0742 58 36.7176 58C36.2397 58.0006 35.7815 58.1905 35.4436 58.5279C35.1057 58.8653 34.9155 59.3228 34.9149 59.8ZM43.9285 71.5V73.3C43.9285 73.4182 43.9053 73.5353 43.86 73.6445C43.8147 73.7537 43.7483 73.853 43.6646 73.9365C43.5809 74.0201 43.4815 74.0864 43.3721 74.1316C43.2627 74.1768 43.1455 74.2001 43.0271 74.2H30.4081C30.2897 74.2001 30.1725 74.1768 30.0631 74.1316C29.9537 74.0864 29.8543 74.0201 29.7706 73.9365C29.6869 73.853 29.6205 73.7537 29.5752 73.6445C29.53 73.5353 29.5067 73.4182 29.5068 73.3V71.5C29.5068 69.5904 30.2665 67.7591 31.6188 66.4088C32.9711 65.0586 34.8052 64.3 36.7176 64.3C38.6301 64.3 40.4642 65.0586 41.8165 66.4088C43.1688 67.7591 43.9285 69.5904 43.9285 71.5ZM42.1258 71.5C42.1258 70.0678 41.556 68.6943 40.5417 67.6816C39.5275 66.6689 38.1519 66.1 36.7176 66.1C35.2833 66.1 33.9077 66.6689 32.8935 67.6816C31.8793 68.6943 31.3095 70.0678 31.3095 71.5V72.4H42.1258V71.5ZM73.6732 71.5V84.1C73.6733 84.2182 73.65 84.3353 73.6047 84.4445C73.5594 84.5537 73.4931 84.653 73.4093 84.7365C73.3256 84.8201 73.2262 84.8864 73.1169 84.9316C73.0075 84.9768 72.8902 85.0001 72.7718 85H58.3502C58.2318 85.0001 58.1145 84.9768 58.0051 84.9316C57.8957 84.8864 57.7964 84.8201 57.7126 84.7365C57.6289 84.653 57.5625 84.5537 57.5173 84.4445C57.472 84.3353 57.4487 84.2182 57.4488 84.1V77.8H25.9014C25.783 77.8001 25.6657 77.7768 25.5563 77.7316C25.447 77.6864 25.3476 77.6201 25.2638 77.5365C25.1801 77.453 25.1137 77.3537 25.0685 77.2445C25.0232 77.1353 24.9999 77.0182 25 76.9V40.9C24.9999 40.7818 25.0232 40.6647 25.0685 40.5555C25.1137 40.4463 25.1801 40.347 25.2638 40.2635C25.3476 40.1799 25.447 40.1136 25.5563 40.0684C25.6657 40.0232 25.783 39.9999 25.9014 40H67.3637C67.4821 39.9999 67.5993 40.0232 67.7087 40.0684C67.8181 40.1136 67.9175 40.1799 68.0012 40.2635C68.0849 40.347 68.1513 40.4463 68.1966 40.5555C68.2419 40.6647 68.2651 40.7818 68.2651 40.9V70.6H72.7718C72.8902 70.5999 73.0075 70.6232 73.1169 70.6684C73.2262 70.7136 73.3256 70.7799 73.4093 70.8635C73.4931 70.947 73.5594 71.0463 73.6047 71.1555C73.65 71.2647 73.6733 71.3818 73.6732 71.5ZM26.8027 45.4H66.4623V41.8H26.8027V45.4ZM58.3502 70.6H66.4623V47.2H26.8027V76H57.4488V71.5C57.4487 71.3818 57.472 71.2647 57.5173 71.1555C57.5625 71.0463 57.6289 70.947 57.7126 70.8635C57.7964 70.7799 57.8957 70.7136 58.0051 70.6684C58.1145 70.6232 58.2318 70.5999 58.3502 70.6ZM71.8705 72.4H59.2515V83.2H71.8705V72.4ZM62.8569 80.5V75.1C62.8569 74.9407 62.8992 74.7842 62.9795 74.6466C63.0599 74.509 63.1754 74.3951 63.3142 74.3167C63.453 74.2382 63.6102 74.1979 63.7698 74.2C63.9293 74.202 64.0854 74.2463 64.2222 74.3283L68.7289 77.0283C68.8624 77.1083 68.9728 77.2214 69.0495 77.3566C69.1261 77.4919 69.1664 77.6446 69.1664 77.8C69.1664 77.9554 69.1261 78.1081 69.0495 78.2434C68.9728 78.3786 68.8624 78.4917 68.7289 78.5717L64.2222 81.2717C64.0844 81.3512 63.9285 81.3939 63.7695 81.3959C63.6104 81.3979 63.4535 81.3591 63.3138 81.2831C63.175 81.2046 63.0596 81.0908 62.9794 80.9532C62.8991 80.8156 62.8569 80.6592 62.8569 80.5ZM64.6596 78.9101L66.5134 77.8L64.6596 76.6899V78.9101Z" fill="white"/>
</g>
</g>
</svg>
