<svg width="114" height="104" viewBox="0 0 114 104" fill="none" xmlns="http://www.w3.org/2000/svg">
<g id="Group 1261152879">
<path id="Vector 16" d="M99.9391 78.5265C92.7407 84.3123 51.8119 103.581 40.8095 103.581C-31.1744 99.9651 9.18797 8.01157 32.8398 1.03757C56.4917 -5.93643 52.1493 24.3876 68.6028 28.262C81.7656 31.3616 94.626 34.1856 98.6537 35.9076C127.131 49.3706 108.937 71.2942 99.9391 78.5265Z" fill="#CA256D"/>
<g id="Vector">
<path d="M51.5998 41.7496H48.6476C47.9781 41.7496 47.8464 41.6179 47.7367 40.9704C47.707 40.7817 47.6667 40.5948 47.616 40.4107C47.4524 39.9545 47.1382 39.5678 46.7251 39.3143C46.3121 39.0609 45.8249 38.956 45.3442 39.0169C44.8734 39.0863 44.4379 39.3069 44.1033 39.6454C43.7688 39.9839 43.5534 40.422 43.4894 40.8936C43.3577 41.6618 43.259 41.7496 42.4907 41.7496H39.6373V45.6457H51.5998V41.7496Z" fill="black"/>
<path d="M56.9446 60.0446L58.3713 59.7044L57.3945 58.6728L56.9446 60.0446Z" fill="black"/>
<path d="M57.0872 51.9452C56.8833 52.1152 56.6282 52.2118 56.3629 52.2196H43.226C43.1381 52.2271 43.0495 52.2171 42.9654 52.1902C42.8813 52.1634 42.8033 52.1201 42.736 52.063C42.6687 52.0059 42.6133 51.936 42.5731 51.8574C42.5329 51.7788 42.5086 51.693 42.5017 51.605C42.5041 51.5106 42.5262 51.4178 42.5664 51.3325C42.6067 51.2471 42.6642 51.171 42.7354 51.1091C42.8066 51.0472 42.89 51.0007 42.9801 50.9727C43.0702 50.9447 43.1652 50.9358 43.259 50.9465H56.3958C56.5338 50.9571 56.6682 50.9956 56.7908 51.0598C56.9135 51.1239 57.0218 51.2123 57.1092 51.3196C57.1568 51.4178 57.1796 51.5261 57.1758 51.6351C57.172 51.7442 57.1416 51.8506 57.0872 51.9452Z" fill="white"/>
<path d="M51.1389 74.696C51.1389 75.124 50.8535 75.3764 50.2938 75.3874H43.3907C42.8419 75.3874 42.5237 75.113 42.5237 74.7069C42.5237 74.3009 42.831 74.0594 43.4016 74.0594H50.3048C50.8316 74.0594 51.1169 74.2899 51.1389 74.696Z" fill="white"/>
<path d="M52.5217 71.5243C52.5217 71.9303 52.2034 72.1937 51.6547 72.1937H43.4016C42.8529 72.1937 42.5346 71.9303 42.5346 71.5243C42.5346 71.1182 42.8529 70.8658 43.4016 70.8658H51.6547C52.2034 70.8658 52.5217 71.1182 52.5217 71.5243Z" fill="white"/>
<path d="M57.2628 64.7418C57.2628 65.1918 56.9116 65.3674 56.4726 65.3674H43.3687C42.9626 65.3674 42.6444 65.2357 42.5676 64.8077C42.5349 64.652 42.565 64.4898 42.6513 64.3562C42.7376 64.2226 42.8732 64.1285 43.0285 64.0943C43.2181 64.0723 43.4096 64.0723 43.5992 64.0943H56.4726C56.9775 64.0833 57.3067 64.3687 57.2628 64.7418Z" fill="white"/>
<path d="M53.8716 61.5701C53.8659 61.7409 53.794 61.9028 53.6711 62.0216C53.5483 62.1404 53.384 62.2067 53.2131 62.2066H43.226C42.798 62.2066 42.5127 61.9981 42.5017 61.5701C42.4907 61.1421 42.7651 60.9226 43.1821 60.9006H53.0595C53.6082 60.9116 53.9045 61.186 53.8716 61.5701Z" fill="white"/>
<path d="M51.5998 41.7496V45.6457H39.6373V41.7935H42.4907C43.259 41.7935 43.3577 41.7057 43.4894 40.9375C43.5534 40.4659 43.7688 40.0278 44.1033 39.6893C44.4379 39.3508 44.8734 39.1302 45.3442 39.0608C45.8195 38.997 46.3025 39.0956 46.7148 39.3406C47.1272 39.5856 47.4447 39.9627 47.616 40.4107C47.6667 40.5948 47.707 40.7817 47.7367 40.9704C47.8464 41.6179 47.9781 41.7496 48.6476 41.7496H51.5998Z" fill="white"/>
<path d="M56.9446 60.0446L57.3945 58.6728L58.3713 59.7044L56.9446 60.0446Z" fill="white"/>
<path d="M70.4875 77.6153C70.4831 79.278 69.9858 80.902 69.0585 82.2821C68.1311 83.6621 66.8154 84.7362 65.2776 85.3685C63.7398 86.0007 62.0491 86.1628 60.4192 85.8342C58.7893 85.5055 57.2935 84.701 56.1209 83.5222C54.9482 82.3434 54.1515 80.8434 53.8314 79.2118C53.5113 77.5803 53.6821 75.8904 54.3224 74.3559C54.9627 72.8215 56.0436 71.5113 57.4285 70.5912C58.8134 69.6711 60.44 69.1823 62.1027 69.1866C64.3314 69.1953 66.4657 70.0875 68.0375 71.6676C69.6093 73.2477 70.4904 75.3866 70.4875 77.6153Z" fill="white"/>
<path d="M41.0311 50.6172L39.9336 51.8684L38.9349 52.9659L37.8374 54.1841C37.4204 54.6231 37.1899 54.656 36.6741 54.3267L35.5766 53.6134C35.4145 53.5454 35.2856 53.4163 35.2179 53.2541C35.1501 53.0919 35.1489 52.9095 35.2144 52.7464C35.2823 52.587 35.4102 52.4608 35.5704 52.3951C35.7306 52.3293 35.9103 52.3294 36.0705 52.3952C36.1455 52.4179 36.2135 52.4595 36.268 52.5159C36.5643 52.6805 36.8497 52.8671 37.146 53.0537C37.574 52.5817 37.9911 52.1427 38.3862 51.6928C38.4362 51.6472 38.4804 51.5956 38.5179 51.5391L39.1763 50.8258L39.8239 50.1344L39.9775 49.9807C40.0328 49.9229 40.0993 49.877 40.1728 49.8456C40.2464 49.8142 40.3255 49.798 40.4055 49.798C40.4855 49.798 40.5647 49.8142 40.6382 49.8456C40.7118 49.877 40.7782 49.9229 40.8335 49.9807C40.9231 50.0574 40.9892 50.1579 41.0241 50.2705C41.0591 50.3831 41.0615 50.5033 41.0311 50.6172Z" fill="white"/>
<path d="M40.7018 61.164L39.6044 62.4152L38.6057 63.5126L37.5082 64.7309C37.0911 65.1698 36.8607 65.2028 36.3448 64.8735L35.2474 64.1602C35.0879 64.0921 34.9611 63.9649 34.8935 63.8052C34.826 63.6456 34.823 63.4659 34.8852 63.3041C34.9177 63.2229 34.9661 63.149 35.0274 63.0867C35.0888 63.0244 35.162 62.9749 35.2427 62.9412C35.3234 62.9075 35.4101 62.8902 35.4975 62.8903C35.585 62.8904 35.6716 62.908 35.7522 62.942C35.8206 62.9717 35.8836 63.0125 35.9388 63.0627C36.2351 63.2273 36.5204 63.4139 36.8168 63.6004C37.2448 63.1285 37.6618 62.6895 38.0569 62.2396C38.1095 62.1964 38.154 62.1444 38.1886 62.0859L38.8471 61.3726L39.4946 60.6811L39.6483 60.5275C39.7044 60.4711 39.771 60.4263 39.8445 60.3958C39.918 60.3652 39.9967 60.3495 40.0763 60.3495C40.1558 60.3495 40.2346 60.3652 40.3081 60.3958C40.3815 60.4263 40.4482 60.4711 40.5043 60.5275C40.5961 60.6025 40.6638 60.7028 40.6989 60.816C40.734 60.9292 40.735 61.0503 40.7018 61.164Z" fill="white"/>
<path d="M40.7018 70.8109L39.6044 72.062L38.6057 73.1595L37.5082 74.3777C37.0911 74.8167 36.8607 74.8496 36.3448 74.5204L35.2474 73.807C35.0879 73.739 34.9611 73.6118 34.8935 73.4521C34.826 73.2924 34.823 73.1128 34.8852 72.951C34.9532 72.7889 35.0823 72.66 35.2445 72.5922C35.4067 72.5245 35.5891 72.5232 35.7522 72.5888L35.9388 72.7095C36.2351 72.8742 36.5204 73.0607 36.8168 73.2473C37.2448 72.7754 37.6618 72.3364 38.0569 71.8864C38.1095 71.8433 38.154 71.7913 38.1886 71.7328L38.8471 71.0194L39.4946 70.328L39.6483 70.1744C39.7044 70.1179 39.771 70.0732 39.8445 70.0426C39.918 70.0121 39.9967 69.9964 40.0763 69.9964C40.1558 69.9964 40.2346 70.0121 40.3081 70.0426C40.3815 70.0732 40.4482 70.1179 40.5043 70.1744C40.5961 70.2493 40.6638 70.3497 40.6989 70.4629C40.734 70.5761 40.735 70.6971 40.7018 70.8109Z" fill="white"/>
<path d="M47.616 40.4107C47.6667 40.5948 47.707 40.7817 47.7367 40.9704C47.8464 41.6179 47.9781 41.7496 48.6476 41.7496H51.5998V45.6457H39.6373M47.616 40.4107C47.4524 39.9545 47.1382 39.5678 46.7251 39.3143C46.3121 39.0609 45.8249 38.956 45.3442 39.0169C44.8734 39.0863 44.4379 39.3069 44.1033 39.6454C43.7688 39.9839 43.5534 40.422 43.4894 40.8936C43.3577 41.6618 43.259 41.7496 42.4907 41.7496H39.6373V45.6457M47.616 40.4107C47.4447 39.9627 47.1272 39.5856 46.7148 39.3406C46.3025 39.0956 45.8195 38.997 45.3442 39.0608C44.8734 39.1302 44.4379 39.3508 44.1033 39.6893C43.7688 40.0278 43.5534 40.4659 43.4894 40.9375C43.3577 41.7057 43.259 41.7935 42.4907 41.7935H39.6373V45.6457M39.6373 43.0885H32.4488C32.0481 43.0394 31.6417 43.0697 31.2527 43.1778C30.8638 43.2858 30.4999 43.4694 30.1819 43.718C29.8639 43.9667 29.5981 44.2756 29.3995 44.6271C29.2009 44.9785 29.0735 45.3657 29.0246 45.7664C28.9918 46.0104 28.9918 46.2577 29.0246 46.5017V80.6553C28.9804 81.0567 29.0158 81.4629 29.1287 81.8507C29.2416 82.2384 29.4298 82.6001 29.6826 82.9151C29.9354 83.23 30.2478 83.4921 30.6019 83.6862C30.956 83.8803 31.3449 84.0028 31.7464 84.0465C31.969 84.0684 32.1932 84.0684 32.4159 84.0465H54.2009L62.2344 83.9258L62.1686 67.8477V56.8729M51.5998 43.1105H58.9529C59.3499 43.0713 59.7506 43.1114 60.1319 43.2286C60.5131 43.3457 60.8673 43.5376 61.1737 43.7929C61.4801 44.0482 61.7327 44.362 61.9166 44.7159C62.1006 45.0697 62.2124 45.4567 62.2454 45.8542C62.2617 46.0111 62.2617 46.1692 62.2454 46.3261V53.5914M60.9174 57.9704V67.3319L60.6101 82.7844H32.2512C32.0213 82.8186 31.7869 82.8071 31.5614 82.7506C31.336 82.694 31.1239 82.5935 30.9373 82.4549C30.7507 82.3162 30.5934 82.1421 30.4742 81.9426C30.355 81.743 30.2764 81.5218 30.2428 81.2918C30.2208 81.1279 30.2208 80.9619 30.2428 80.798V46.3151C30.2153 46.0859 30.2332 45.8536 30.2955 45.6313C30.3578 45.409 30.4633 45.2012 30.606 45.0198C30.7487 44.8383 30.9258 44.6868 31.1271 44.5739C31.3285 44.4609 31.5501 44.3888 31.7793 44.3616C31.9211 44.3396 32.0655 44.3396 32.2073 44.3616H39.6044M51.5998 44.4055H58.8651C59.0972 44.3679 59.3344 44.3764 59.5631 44.4305C59.7919 44.4847 60.0078 44.5834 60.1984 44.721C60.389 44.8586 60.5506 45.0324 60.674 45.2325C60.7973 45.4326 60.8801 45.655 60.9174 45.8871C60.9504 46.0759 60.9504 46.269 60.9174 46.4578V54.7986M56.9446 60.0446L58.3713 59.7044L57.3945 58.6728L56.9446 60.0446ZM57.0872 51.9452C56.8833 52.1152 56.6282 52.2118 56.3629 52.2196H43.226C43.1381 52.2271 43.0495 52.2171 42.9654 52.1902C42.8813 52.1634 42.8033 52.1201 42.736 52.063C42.6687 52.0059 42.6133 51.936 42.5731 51.8574C42.5329 51.7788 42.5086 51.693 42.5017 51.605C42.5041 51.5106 42.5262 51.4178 42.5664 51.3325C42.6067 51.2471 42.6642 51.171 42.7354 51.1091C42.8066 51.0472 42.89 51.0007 42.9801 50.9727C43.0702 50.9447 43.1652 50.9358 43.259 50.9465H56.3958C56.5338 50.9571 56.6682 50.9956 56.7908 51.0598C56.9135 51.1239 57.0218 51.2123 57.1092 51.3196C57.1568 51.4178 57.1796 51.5261 57.1758 51.6351C57.172 51.7442 57.1416 51.8506 57.0872 51.9452ZM51.1389 74.696C51.1389 75.124 50.8535 75.3764 50.2938 75.3874H43.3907C42.8419 75.3874 42.5237 75.113 42.5237 74.7069C42.5237 74.3009 42.831 74.0594 43.4016 74.0594H50.3048C50.8316 74.0594 51.1169 74.2899 51.1389 74.696ZM52.5217 71.5243C52.5217 71.9303 52.2034 72.1937 51.6547 72.1937H43.4016C42.8529 72.1937 42.5346 71.9303 42.5346 71.5243C42.5346 71.1182 42.8529 70.8658 43.4016 70.8658H51.6547C52.2034 70.8658 52.5217 71.1182 52.5217 71.5243ZM57.2628 64.7418C57.2628 65.1918 56.9116 65.3674 56.4726 65.3674H43.3687C42.9626 65.3674 42.6444 65.2357 42.5676 64.8077C42.5349 64.652 42.565 64.4898 42.6513 64.3562C42.7376 64.2226 42.8732 64.1285 43.0285 64.0943C43.2181 64.0724 43.4096 64.0724 43.5992 64.0943H56.4726C56.9775 64.0833 57.3067 64.3687 57.2628 64.7418ZM53.8716 61.5701C53.8659 61.7409 53.794 61.9028 53.6711 62.0216C53.5483 62.1404 53.384 62.2067 53.2131 62.2066H43.226C42.798 62.2066 42.5127 61.9981 42.5017 61.5701C42.4907 61.1421 42.7651 60.9226 43.1821 60.9006H53.0595C53.6082 60.9116 53.9045 61.186 53.8716 61.5701ZM68.5669 50.7709L62.2234 56.7522L62.1466 56.818C61.756 57.2047 61.3457 57.571 60.9174 57.9155L59.6883 59.1556L58.0859 57.4436L58.8103 56.7631L61.0052 54.7548L66.9645 49.1027C67.2938 48.7954 67.5023 48.7625 67.7877 49.1027C68.0611 49.4347 68.3582 49.7464 68.6766 50.0356C68.8961 50.3319 68.8412 50.4746 68.5669 50.7709ZM49.9646 54.0963H56.7251C56.8461 54.154 56.9536 54.2367 57.0406 54.3388C57.1276 54.4409 57.1921 54.5602 57.2299 54.6889C57.2299 54.8974 56.9775 55.1608 56.769 55.3254C56.5604 55.4901 56.4068 55.3254 56.2202 55.3254H43.0504C42.8198 55.1788 42.6456 54.9583 42.5566 54.6999C42.4907 54.3706 42.7322 54.1182 43.0943 54.0743C43.2656 54.0524 43.4389 54.0524 43.6102 54.0743L49.9646 54.0963ZM70.4875 77.6153C70.4831 79.278 69.9858 80.902 69.0585 82.2821C68.1311 83.6621 66.8154 84.7362 65.2776 85.3685C63.7398 86.0007 62.0491 86.1628 60.4192 85.8342C58.7893 85.5055 57.2935 84.701 56.1209 83.5222C54.9482 82.3434 54.1515 80.8434 53.8314 79.2118C53.5113 77.5803 53.6821 75.8904 54.3224 74.3559C54.9627 72.8215 56.0436 71.5113 57.4285 70.5912C58.8134 69.6711 60.44 69.1823 62.1027 69.1866C64.3314 69.1953 66.4657 70.0875 68.0375 71.6676C69.6093 73.2476 70.4904 75.3866 70.4875 77.6153ZM57.7128 81.3138C54.9691 81.3138 54.6398 76.8141 57.3835 76.4849C57.4933 76.4849 57.603 76.4849 57.603 76.2654C57.2738 73.4119 61.115 72.4242 62.7612 74.5094C62.8709 74.6192 62.9807 74.7289 63.2002 74.6191C63.7241 74.4622 64.2889 74.5197 64.7705 74.779C65.252 75.0383 65.6109 75.4782 65.7683 76.002C65.8005 76.0869 65.8226 76.1753 65.8341 76.2654C65.8391 76.3219 65.8638 76.3749 65.9039 76.4151C65.9441 76.4552 65.9971 76.4799 66.0536 76.4849C68.4681 76.5946 68.5778 80.4358 66.3829 81.0943C65.7244 81.4235 62.432 81.204 61.6637 81.204L57.7128 81.3138ZM40.3067 53.328C40.3067 55.11 38.8622 56.5546 37.0802 56.5546C35.2982 56.5546 33.8536 55.11 33.8536 53.328C33.8536 51.546 35.2982 50.1014 37.0802 50.1014C38.8622 50.1014 40.3067 51.546 40.3067 53.328ZM41.0311 50.6172L39.9336 51.8684L38.9349 52.9659L37.8374 54.1841C37.4204 54.6231 37.1899 54.656 36.6741 54.3267L35.5766 53.6134C35.4145 53.5454 35.2856 53.4163 35.2179 53.2541C35.1501 53.0919 35.1489 52.9095 35.2144 52.7464C35.2823 52.587 35.4102 52.4608 35.5704 52.3951C35.7306 52.3293 35.9103 52.3294 36.0705 52.3952C36.1455 52.4179 36.2135 52.4595 36.268 52.5159C36.5643 52.6805 36.8497 52.8671 37.146 53.0537C37.574 52.5817 37.9911 52.1427 38.3862 51.6928C38.4362 51.6472 38.4804 51.5956 38.5179 51.5391L39.1763 50.8258L39.8239 50.1344L39.9775 49.9807C40.0328 49.9229 40.0993 49.877 40.1728 49.8456C40.2464 49.8142 40.3255 49.798 40.4055 49.798C40.4855 49.798 40.5647 49.8142 40.6382 49.8456C40.7118 49.877 40.7782 49.9229 40.8335 49.9807C40.9231 50.0574 40.9892 50.1579 41.0241 50.2705C41.0591 50.3831 41.0615 50.5033 41.0311 50.6172ZM39.9665 63.8858C39.9665 65.6678 38.5219 67.1124 36.7399 67.1124C34.9579 67.1124 33.5133 65.6678 33.5133 63.8858C33.5133 62.1038 34.9579 60.6592 36.7399 60.6592C38.5219 60.6592 39.9665 62.1038 39.9665 63.8858ZM40.7018 61.164L39.6044 62.4152L38.6057 63.5126L37.5082 64.7309C37.0911 65.1698 36.8607 65.2028 36.3448 64.8735L35.2474 64.1602C35.0879 64.0921 34.9611 63.9649 34.8935 63.8052C34.826 63.6456 34.823 63.4659 34.8852 63.3041C34.9177 63.2229 34.9661 63.149 35.0274 63.0867C35.0888 63.0244 35.162 62.9749 35.2427 62.9412C35.3234 62.9075 35.4101 62.8902 35.4975 62.8903C35.585 62.8904 35.6716 62.908 35.7522 62.942C35.8206 62.9717 35.8836 63.0125 35.9388 63.0627C36.2351 63.2273 36.5204 63.4139 36.8168 63.6004C37.2448 63.1285 37.6618 62.6895 38.0569 62.2396C38.1095 62.1964 38.154 62.1444 38.1886 62.0859L38.8471 61.3726L39.4946 60.6811L39.6483 60.5275C39.7044 60.4711 39.771 60.4263 39.8445 60.3958C39.918 60.3652 39.9967 60.3495 40.0763 60.3495C40.1558 60.3495 40.2346 60.3652 40.3081 60.3958C40.3815 60.4263 40.4482 60.4711 40.5043 60.5275C40.5961 60.6025 40.6638 60.7028 40.6989 60.816C40.734 60.9292 40.735 61.0503 40.7018 61.164ZM39.9665 73.5326C39.9665 75.3146 38.5219 76.7592 36.7399 76.7592C34.9579 76.7592 33.5133 75.3146 33.5133 73.5326C33.5133 71.7506 34.9579 70.306 36.7399 70.306C38.5219 70.306 39.9665 71.7506 39.9665 73.5326ZM40.7018 70.8109L39.6044 72.062L38.6057 73.1595L37.5082 74.3777C37.0911 74.8167 36.8607 74.8496 36.3448 74.5204L35.2474 73.807C35.0879 73.739 34.9611 73.6118 34.8935 73.4521C34.826 73.2924 34.823 73.1128 34.8852 72.951C34.9532 72.7889 35.0823 72.66 35.2445 72.5922C35.4067 72.5245 35.5891 72.5232 35.7522 72.5888L35.9388 72.7095C36.2351 72.8742 36.5204 73.0607 36.8168 73.2473C37.2448 72.7754 37.6618 72.3364 38.0569 71.8864C38.1095 71.8433 38.154 71.7913 38.1886 71.7328L38.8471 71.0194L39.4946 70.328L39.6483 70.1744C39.7044 70.1179 39.771 70.0732 39.8445 70.0426C39.918 70.0121 39.9967 69.9964 40.0763 69.9964C40.1558 69.9964 40.2346 70.0121 40.3081 70.0426C40.3815 70.0732 40.4482 70.1179 40.5043 70.1744C40.5961 70.2493 40.6638 70.3497 40.6989 70.4629C40.734 70.5761 40.735 70.6971 40.7018 70.8109Z" stroke="white" stroke-miterlimit="10"/>
</g>
</g>
</svg>
