<svg width="114" height="104" viewBox="0 0 114 104" fill="none" xmlns="http://www.w3.org/2000/svg">
<path d="M99.9391 78.5265C92.7407 84.3123 51.8119 103.581 40.8095 103.581C-31.1744 99.9651 9.18797 8.01157 32.8398 1.03757C56.4917 -5.93643 52.1493 24.3876 68.6028 28.262C81.7656 31.3616 94.626 34.1856 98.6537 35.9076C127.131 49.3706 108.937 71.2942 99.9391 78.5265Z" fill="#CA256D"/>
<path d="M66.0028 41.0156C66.1884 41.0156 66.339 40.8652 66.339 40.6797C66.339 40.4942 66.1884 40.3438 66.0028 40.3438C65.8171 40.3438 65.6666 40.4942 65.6666 40.6797C65.6666 40.8652 65.8171 41.0156 66.0028 41.0156Z" fill="white"/>
<path d="M64.9936 40.6997C65.0047 40.5145 64.8635 40.3555 64.6782 40.3444C64.4929 40.3334 64.3337 40.4745 64.3227 40.6597C64.3116 40.8448 64.4528 41.0039 64.6381 41.0149C64.8234 41.026 64.9826 40.8849 64.9936 40.6997Z" fill="white"/>
<path d="M63.649 40.6997C63.6601 40.5145 63.5188 40.3555 63.3336 40.3444C63.1483 40.3334 62.9891 40.4745 62.978 40.6597C62.967 40.8448 63.1082 41.0039 63.2935 41.015C63.4788 41.026 63.6379 40.8849 63.649 40.6997Z" fill="white"/>
<path d="M65.6666 54.7891H47.8503C47.6646 54.7891 47.5141 54.9395 47.5141 55.125C47.5141 55.3105 47.6646 55.4609 47.8503 55.4609H65.6666C65.8523 55.4609 66.0028 55.3105 66.0028 55.125C66.0028 54.9395 65.8523 54.7891 65.6666 54.7891Z" fill="white"/>
<path d="M65.6666 56.8047H47.8503C47.6646 56.8047 47.5141 56.9551 47.5141 57.1406C47.5141 57.3261 47.6646 57.4766 47.8503 57.4766H65.6666C65.8523 57.4766 66.0028 57.3261 66.0028 57.1406C66.0028 56.9551 65.8523 56.8047 65.6666 56.8047Z" fill="white"/>
<path d="M65.6666 58.8203H47.8503C47.6646 58.8203 47.5141 58.9707 47.5141 59.1562C47.5141 59.3418 47.6646 59.4922 47.8503 59.4922H65.6666C65.8523 59.4922 66.0028 59.3418 66.0028 59.1562C66.0028 58.9707 65.8523 58.8203 65.6666 58.8203Z" fill="white"/>
<path d="M65.6666 60.8359H47.8503C47.6646 60.8359 47.5141 60.9862 47.5141 61.1719C47.5141 61.3575 47.6646 61.5078 47.8503 61.5078H65.6666C65.8523 61.5078 66.0028 61.3575 66.0028 61.1719C66.0028 60.9862 65.8523 60.8359 65.6666 60.8359Z" fill="white"/>
<path d="M65.6666 62.8516H47.8503C47.6646 62.8516 47.5141 63.0018 47.5141 63.1875C47.5141 63.3732 47.6646 63.5234 47.8503 63.5234H65.6666C65.8523 63.5234 66.0028 63.3732 66.0028 63.1875C66.0028 63.0018 65.8523 62.8516 65.6666 62.8516Z" fill="white"/>
<path d="M65.6666 64.8672H47.8503C47.6646 64.8672 47.5141 65.0175 47.5141 65.2031C47.5141 65.3888 47.6646 65.5391 47.8503 65.5391H65.6666C65.8523 65.5391 66.0028 65.3888 66.0028 65.2031C66.0028 65.0175 65.8523 64.8672 65.6666 64.8672Z" fill="white"/>
<path d="M65.6666 66.8828H47.8503C47.6646 66.8828 47.5141 67.0331 47.5141 67.2188C47.5141 67.4044 47.6646 67.5547 47.8503 67.5547H65.6666C65.8523 67.5547 66.0028 67.4044 66.0028 67.2188C66.0028 67.0331 65.8523 66.8828 65.6666 66.8828Z" fill="white"/>
<path d="M30.3701 67.5547H43.1441C43.8837 67.5547 44.4887 66.9501 44.4887 66.2109V56.1328C44.4887 55.3937 43.8837 54.7891 43.1441 54.7891H30.3701C29.6304 54.7891 29.0254 55.3937 29.0254 56.1328V66.2109C29.0254 66.9501 29.6304 67.5547 30.3701 67.5547ZM43.1441 66.8828H30.3701C30.2207 66.8828 30.0841 66.8323 29.9723 66.7496L34.6244 62.366L36.6961 64.4581C36.7605 64.5231 36.8537 64.5588 36.9394 64.5578C37.0305 64.5565 37.1175 64.5184 37.1799 64.4522L41.7078 59.6438L43.8164 61.8382V66.2109C43.8164 66.5813 43.5148 66.8828 43.1441 66.8828ZM30.3701 55.4609H43.1441C43.5148 55.4609 43.8164 55.7623 43.8164 56.1328V60.8681L41.9478 58.9235C41.8844 58.8575 41.7968 58.8203 41.7054 58.8203H41.7037C41.6116 58.8208 41.5237 58.859 41.4606 58.926L36.9291 63.7383L34.8714 61.6604C34.7431 61.5311 34.5346 61.5275 34.4018 61.6522L29.6977 66.0853V56.1328C29.6977 55.7623 29.9993 55.4609 30.3701 55.4609Z" fill="white"/>
<path d="M67.6836 39H27.3446C26.605 39 26 39.6046 26 40.3438V80.6562C26 81.3954 26.605 82 27.3446 82H67.6836C68.4232 82 69.0282 81.3954 69.0282 80.6562V40.3438C69.0282 39.6046 68.4232 39 67.6836 39ZM27.3446 39.6719H67.6836C68.0544 39.6719 68.3559 39.9732 68.3559 40.3438V41.6875H26.6723V40.3438C26.6723 39.9732 26.9738 39.6719 27.3446 39.6719ZM67.6836 81.3281H27.3446C26.9738 81.3281 26.6723 81.0266 26.6723 80.6562V42.3594H68.3559V80.6562C68.3559 81.0266 68.0544 81.3281 67.6836 81.3281Z" fill="white"/>
<path d="M30.3701 53.4453H64.322C65.0616 53.4453 65.6666 52.8407 65.6666 52.1016V45.0469C65.6666 44.3077 65.0616 43.7031 64.322 43.7031H30.3701C29.6304 43.7031 29.0254 44.3077 29.0254 45.0469V52.1016C29.0254 52.8407 29.6304 53.4453 30.3701 53.4453ZM29.6977 45.0469C29.6977 44.6763 29.9993 44.375 30.3701 44.375H64.322C64.6928 44.375 64.9943 44.6763 64.9943 45.0469V52.1016C64.9943 52.4721 64.6928 52.7734 64.322 52.7734H30.3701C29.9993 52.7734 29.6977 52.4721 29.6977 52.1016V45.0469Z" fill="white"/>
<path d="M34.7401 60.8359C35.4815 60.8359 36.0847 60.2331 36.0847 59.4922C36.0847 58.7512 35.4815 58.1484 34.7401 58.1484C33.9987 58.1484 33.3955 58.7512 33.3955 59.4922C33.3955 60.2331 33.9987 60.8359 34.7401 60.8359ZM34.7401 58.8203C35.1109 58.8203 35.4124 59.1216 35.4124 59.4922C35.4124 59.8627 35.1109 60.1641 34.7401 60.1641C34.3693 60.1641 34.0678 59.8627 34.0678 59.4922C34.0678 59.1216 34.3693 58.8203 34.7401 58.8203Z" fill="white"/>
<path d="M34.7401 68.8984H30.3701C29.6304 68.8984 29.0254 69.5031 29.0254 70.2422V78.6406C29.0254 79.3798 29.6304 79.9844 30.3701 79.9844H34.7401C35.4797 79.9844 36.0847 79.3798 36.0847 78.6406V70.2422C36.0847 69.5031 35.4797 68.8984 34.7401 68.8984ZM35.4124 78.6406C35.4124 79.011 35.1109 79.3125 34.7401 79.3125H30.3701C29.9993 79.3125 29.6977 79.011 29.6977 78.6406V70.2422C29.6977 69.8718 29.9993 69.5703 30.3701 69.5703H34.7401C35.1109 69.5703 35.4124 69.8718 35.4124 70.2422V78.6406Z" fill="white"/>
<path d="M64.322 68.8984H59.6158C58.8762 68.8984 58.2712 69.5031 58.2712 70.2422V78.6406C58.2712 79.3798 58.8762 79.9844 59.6158 79.9844H64.322C65.0616 79.9844 65.6666 79.3798 65.6666 78.6406V70.2422C65.6666 69.5031 65.0616 68.8984 64.322 68.8984ZM64.9943 78.6406C64.9943 79.011 64.6928 79.3125 64.322 79.3125H59.6158C59.245 79.3125 58.9435 79.011 58.9435 78.6406V70.2422C58.9435 69.8718 59.245 69.5703 59.6158 69.5703H64.322C64.6928 69.5703 64.9943 69.8718 64.9943 70.2422V78.6406Z" fill="white"/>
<path d="M44.4887 68.8984H40.1186C39.379 68.8984 38.774 69.5031 38.774 70.2422V78.6406C38.774 79.3798 39.379 79.9844 40.1186 79.9844H44.4887C45.2283 79.9844 45.8333 79.3798 45.8333 78.6406V70.2422C45.8333 69.5031 45.2283 68.8984 44.4887 68.8984ZM45.161 78.6406C45.161 79.011 44.8595 79.3125 44.4887 79.3125H40.1186C39.7479 79.3125 39.4463 79.011 39.4463 78.6406V70.2422C39.4463 69.8718 39.7479 69.5703 40.1186 69.5703H44.4887C44.8595 69.5703 45.161 69.8718 45.161 70.2422V78.6406Z" fill="white"/>
<path d="M54.2373 68.8984H49.8672C49.1276 68.8984 48.5226 69.5031 48.5226 70.2422V78.6406C48.5226 79.3798 49.1276 79.9844 49.8672 79.9844H54.2373C54.9769 79.9844 55.5819 79.3798 55.5819 78.6406V70.2422C55.5819 69.5031 54.9769 68.8984 54.2373 68.8984ZM54.9096 78.6406C54.9096 79.011 54.608 79.3125 54.2373 79.3125H49.8672C49.4964 79.3125 49.1949 79.011 49.1949 78.6406V70.2422C49.1949 69.8718 49.4964 69.5703 49.8672 69.5703H54.2373C54.608 69.5703 54.9096 69.8718 54.9096 70.2422V78.6406Z" fill="white"/>
</svg>
