<svg width="51" height="56" viewBox="0 0 51 56" fill="none" xmlns="http://www.w3.org/2000/svg">
<g id="svgg">
<path id="path0" fill-rule="evenodd" clip-rule="evenodd" d="M17.0742 0.75174C17.0259 0.802154 16.8491 0.966998 16.6812 1.11811C16.5135 1.26921 16.3875 1.41139 16.4014 1.43406C16.4153 1.45672 16.3867 1.47527 16.3378 1.47527C16.2889 1.47527 16.2642 1.49999 16.2828 1.53022C16.3015 1.56044 16.2907 1.58516 16.2588 1.58516C16.2268 1.58516 16.1089 1.67171 15.9968 1.77748C15.8846 1.88326 15.7718 1.9698 15.7461 1.9698C15.7205 1.9698 15.7147 1.99453 15.7334 2.02475C15.7521 2.05497 15.7288 2.07969 15.6817 2.07969C15.6346 2.07969 15.6022 2.1106 15.6097 2.14838C15.6173 2.18616 15.5926 2.21088 15.5548 2.20333C15.517 2.19577 15.4923 2.2205 15.4998 2.25828C15.5074 2.29605 15.4827 2.32078 15.4449 2.31322C15.4071 2.30567 15.3762 2.33809 15.3762 2.38521C15.3762 2.43232 15.3515 2.45554 15.3213 2.43686C15.291 2.41817 15.2663 2.42394 15.2663 2.44963C15.2663 2.47532 15.1798 2.5881 15.074 2.70033C14.9682 2.81243 14.8817 2.93029 14.8817 2.9623C14.8817 2.99417 14.8569 3.00502 14.8267 2.98634C14.7965 2.96765 14.7718 2.99169 14.7718 3.03977C14.7718 3.08785 14.7291 3.14349 14.6769 3.16354C14.5542 3.21066 14.2543 3.51054 14.2072 3.63321C14.1871 3.68541 14.1315 3.72813 14.0834 3.72813C14.0353 3.72813 14.0113 3.75286 14.03 3.78308C14.0487 3.8133 14.0378 3.83803 14.0059 3.83803C13.9739 3.83803 13.8561 3.92457 13.744 4.03035C13.6317 4.13612 13.519 4.22267 13.4933 4.22267C13.4676 4.22267 13.4618 4.24739 13.4805 4.27761C13.4992 4.30784 13.476 4.33256 13.4288 4.33256C13.3817 4.33256 13.3493 4.36347 13.3569 4.40125C13.3644 4.43902 13.3397 4.46375 13.3019 4.4562C13.2641 4.44864 13.2394 4.47337 13.247 4.51114C13.2545 4.54892 13.2298 4.57365 13.192 4.56609C13.1542 4.55854 13.1233 4.59095 13.1233 4.63807C13.1233 4.68519 13.0986 4.70841 13.0684 4.68972C13.0382 4.67104 13.0134 4.68244 13.0134 4.71486C13.0134 4.74742 12.9269 4.85814 12.8211 4.96089C12.7153 5.06351 12.6288 5.17588 12.6288 5.21036C12.6288 5.24497 12.6041 5.25789 12.5739 5.2392C12.5436 5.22052 12.5189 5.24525 12.5189 5.29415C12.5189 5.34306 12.4942 5.36778 12.464 5.3491C12.4337 5.33042 12.409 5.35514 12.409 5.40405C12.409 5.45295 12.3905 5.48276 12.3678 5.47026C12.3134 5.44018 11.8577 5.906 11.9001 5.94831C11.9181 5.9663 11.8902 5.981 11.838 5.981C11.7858 5.981 11.7584 6.00573 11.7771 6.03595C11.7958 6.06617 11.7711 6.0909 11.7222 6.0909C11.6733 6.0909 11.6485 6.11562 11.6672 6.14585C11.6859 6.17607 11.6738 6.20079 11.6404 6.20079C11.607 6.20079 11.518 6.26261 11.4425 6.33816C11.3669 6.41372 11.28 6.47553 11.2493 6.47553C11.2187 6.47553 11.2089 6.50026 11.2276 6.53048C11.2463 6.5607 11.2216 6.58543 11.1727 6.58543C11.1238 6.58543 11.0991 6.61016 11.1177 6.64038C11.1364 6.6706 11.1132 6.69533 11.0661 6.69533C11.019 6.69533 10.9865 6.72623 10.9941 6.76401C11.0017 6.80179 10.9769 6.82651 10.9392 6.81896C10.9014 6.8114 10.8705 6.84382 10.8705 6.89094C10.8705 6.93806 10.8457 6.96127 10.8155 6.94259C10.7853 6.92391 10.7606 6.94864 10.7606 6.99754C10.7606 7.04644 10.7376 7.07227 10.7096 7.05496C10.6816 7.03765 10.6428 7.07323 10.6235 7.13408C10.6041 7.19494 10.5652 7.2448 10.5371 7.2448C10.5089 7.2448 10.4858 7.28341 10.4858 7.33052C10.4858 7.37764 10.4611 7.40086 10.4309 7.38217C10.4007 7.36349 10.3758 7.36816 10.3757 7.39262C10.3755 7.41707 10.3062 7.5113 10.2215 7.60197C10.0248 7.81269 9.86354 8.17549 10.0054 8.08771C10.0464 8.06243 10.0491 8.08372 10.0144 8.15612C9.98512 8.21697 9.95778 10.2511 9.94954 12.9731L9.93511 17.6849H6.33986C3.89138 17.6849 2.73335 17.7033 2.70903 17.7425C2.68596 17.7798 2.65093 17.7815 2.60958 17.7471C2.53059 17.6816 2.47234 17.6868 2.30256 17.7749C2.22906 17.8129 2.14856 17.8315 2.12342 17.816C2.05694 17.7749 1.85239 17.8496 1.88536 17.9029C1.90075 17.9278 1.87506 17.9628 1.82835 17.9808C1.77382 18.0017 1.7572 17.9911 1.78179 17.9511C1.80294 17.9169 1.74387 17.9341 1.65032 17.9893C1.55677 18.0446 1.49276 18.1099 1.50801 18.1345C1.52325 18.1593 1.50842 18.1795 1.47504 18.1795C1.40567 18.1795 1.11664 18.4534 1.1834 18.4558C1.20744 18.4568 1.18079 18.4844 1.12433 18.5172C1.04122 18.5655 1.036 18.5862 1.09686 18.6255C1.1551 18.663 1.14411 18.6817 1.0485 18.7079C0.95674 18.7331 0.92487 18.7825 0.92487 18.9002C0.92487 18.9873 0.900144 19.0586 0.869922 19.0586C0.839701 19.0586 0.814974 19.1802 0.814974 19.3288C0.814974 19.4949 0.788462 19.6087 0.746289 19.6242C0.691341 19.6442 0.691341 19.6639 0.746289 19.7221C0.847119 19.829 0.847119 43.0698 0.746289 43.1767C0.691341 43.2349 0.691341 43.2546 0.746289 43.2746C0.7875 43.2897 0.815661 43.4026 0.81676 43.5562C0.817722 43.6973 0.853026 43.8583 0.895336 43.9142C0.937646 43.97 0.958938 44.0503 0.942728 44.0928C0.926381 44.1351 0.940531 44.1698 0.973912 44.1698C1.00743 44.1698 1.03477 44.2193 1.03477 44.2797C1.03477 44.3402 1.05867 44.3896 1.08793 44.3896C1.11733 44.3896 1.12708 44.3464 1.10963 44.2935C1.09232 44.2406 1.12873 44.27 1.19068 44.3587C1.25264 44.4475 1.28849 44.544 1.27036 44.5733C1.25236 44.6026 1.2661 44.6087 1.30099 44.5872C1.33904 44.5637 1.36445 44.5837 1.36445 44.6369C1.36445 44.6858 1.38918 44.7105 1.4194 44.6919C1.44962 44.6732 1.47435 44.6858 1.47435 44.72C1.47435 44.8096 1.62944 44.9516 1.68796 44.9155C1.7153 44.8986 1.7528 44.9243 1.77121 44.9726C1.78975 45.0209 1.83976 45.0471 1.88234 45.0307C1.92492 45.0144 1.97452 45.0393 1.99251 45.0861C2.0149 45.1446 2.07535 45.1639 2.18634 45.1475C2.28401 45.1332 2.33443 45.1453 2.31409 45.1781C2.29445 45.2099 2.3178 45.2183 2.37028 45.1981C2.4196 45.1792 2.47454 45.1873 2.4924 45.2162C2.51246 45.2489 3.93218 45.2688 6.23065 45.2688H9.93635V49.2755C9.93635 52.4294 9.95091 53.2879 10.005 53.3098C10.06 53.3319 10.06 53.3383 10.005 53.3418C9.92399 53.347 9.91204 53.4936 9.99047 53.5202C10.0201 53.5302 10.0489 53.6559 10.0542 53.7995C10.0597 53.943 10.0848 54.0605 10.1101 54.0605C10.1354 54.0605 10.1561 54.1114 10.1561 54.1737C10.1561 54.2359 10.1806 54.2716 10.2104 54.2532C10.2416 54.234 10.2508 54.256 10.2322 54.3045C10.213 54.3545 10.236 54.4031 10.2877 54.423C10.3362 54.4417 10.3759 54.4917 10.3759 54.5341C10.3759 54.5767 10.4068 54.6663 10.4446 54.7332C10.5456 54.9122 10.8705 55.2364 10.8705 55.1582C10.8705 55.1056 10.8882 55.1057 10.9523 55.1589C10.9973 55.1963 11.018 55.2549 10.9984 55.2893C10.9789 55.3236 10.9828 55.3336 11.0073 55.3114C11.0319 55.2893 11.0871 55.314 11.1301 55.3663C11.1731 55.4188 11.1926 55.4307 11.1735 55.393C11.1544 55.3552 11.1632 55.3243 11.1931 55.3243C11.2232 55.3243 11.2625 55.3711 11.2808 55.4284C11.3333 55.5937 11.0316 55.5905 25.6041 55.5808L39.486 55.5716L39.6062 55.4342C39.6724 55.3586 39.7109 55.3277 39.6917 55.3655C39.6725 55.4033 39.6829 55.4342 39.7149 55.4342C39.7469 55.4342 39.7731 55.4009 39.7731 55.3603C39.7731 55.3196 39.8226 55.2416 39.883 55.1869C39.955 55.1218 39.9929 55.1112 39.9929 55.1564C39.9929 55.236 40.3166 54.9142 40.4188 54.7332C40.4566 54.6663 40.4875 54.574 40.4875 54.5282C40.4875 54.4825 40.5116 54.4451 40.5412 54.4451C40.6317 54.4451 40.7933 54.0465 40.8084 53.7856C40.8162 53.6496 40.8461 53.5302 40.8749 53.5202C40.9504 53.4937 40.939 53.3602 40.8584 53.3276C40.8034 53.3055 40.8034 53.299 40.8584 53.2956C40.9126 53.2922 40.927 52.45 40.927 49.28V45.2688H44.6327C46.9312 45.2688 48.3509 45.2489 48.371 45.2162C48.3889 45.1873 48.4438 45.1792 48.4931 45.1981C48.5456 45.2183 48.569 45.2099 48.5493 45.1781C48.529 45.1453 48.5794 45.1332 48.6771 45.1475C48.7881 45.1639 48.8485 45.1446 48.8709 45.0861C48.8889 45.0393 48.9385 45.0144 48.9811 45.0307C49.0236 45.0471 49.0737 45.0209 49.0922 44.9726C49.1106 44.9243 49.1481 44.8986 49.1754 44.9155C49.234 44.9516 49.389 44.8096 49.389 44.72C49.389 44.6858 49.4138 44.6732 49.444 44.6919C49.4742 44.7105 49.4989 44.6858 49.4989 44.6369C49.4989 44.5837 49.5244 44.5637 49.5624 44.5872C49.5973 44.6087 49.6124 44.6041 49.5961 44.5767C49.5799 44.5494 49.6156 44.4405 49.6757 44.3347C49.7476 44.2083 49.7755 44.1847 49.7571 44.266C49.7417 44.334 49.7514 44.3896 49.7788 44.3896C49.8062 44.3896 49.8286 44.3402 49.8286 44.2797C49.8286 44.2193 49.8534 44.1698 49.8836 44.1698C49.9138 44.1698 49.9385 44.1436 49.9385 44.1116C49.9385 44.0796 49.909 44.0718 49.8727 44.0942C49.8366 44.1164 49.8613 44.0584 49.9277 43.9652C50.0091 43.8509 50.0484 43.715 50.0484 43.5478C50.0484 43.3995 50.076 43.2897 50.1171 43.2746C50.1721 43.2546 50.1721 43.2349 50.1171 43.1767C50.0288 43.083 50.0152 33.1803 50.1034 33.1803C50.2181 33.1803 50.0815 32.7429 49.966 32.7403C49.9358 32.7396 49.9473 32.7161 49.9916 32.6881C50.056 32.6473 50.0411 32.6253 49.9174 32.5782C49.8109 32.5378 49.7727 32.4927 49.7951 32.4343C49.8196 32.3707 49.7968 32.3536 49.7046 32.3663C49.6369 32.3758 49.5859 32.3575 49.5915 32.3257C49.5979 32.2894 49.4507 32.2683 49.1973 32.2689C48.9749 32.2696 48.8019 32.2846 48.8128 32.302C48.8236 32.3196 48.782 32.3655 48.7203 32.404C48.6585 32.4427 48.6246 32.4477 48.6448 32.4151C48.6981 32.3288 48.625 32.343 48.5308 32.4372C48.4861 32.4819 48.457 32.5622 48.4659 32.6158C48.475 32.6694 48.4525 32.7073 48.4159 32.7001C48.3641 32.6901 48.3486 33.8543 48.3461 37.9176C48.3437 41.9958 48.328 43.1576 48.2753 43.1911C48.2382 43.2147 48.2324 43.2352 48.2626 43.2366C48.2928 43.2379 48.2737 43.2646 48.2203 43.2958C48.1667 43.3269 48.1335 43.3694 48.1464 43.3903C48.1593 43.411 47.8261 43.4206 47.4058 43.4114L46.6416 43.3948L46.6388 41.3509C46.6373 40.2268 46.6368 38.2388 46.6379 36.9332C46.6393 35.2155 46.6226 34.5486 46.5774 34.5207C46.5356 34.4949 46.5297 34.5077 46.5595 34.5592C46.586 34.6049 46.584 34.6177 46.5543 34.5906C46.5268 34.5654 46.5032 34.4664 46.5018 34.3708C46.5004 34.2737 46.4723 34.2021 46.4382 34.2089C46.4047 34.2155 46.3834 34.1784 46.3912 34.1265C46.4157 33.9612 46.1911 33.6411 46.0933 33.7016C46.0615 33.7212 46.0523 33.6992 46.0714 33.6495C46.0938 33.5913 46.0798 33.5731 46.0279 33.593C45.9849 33.6095 45.8691 33.5374 45.7637 33.4288C45.656 33.3176 45.5222 33.2352 45.4495 33.2352C45.3799 33.2352 45.3229 33.2105 45.3229 33.1804C45.3229 33.1441 38.6194 33.1256 25.4317 33.1256C12.244 33.1256 5.54051 33.1441 5.54051 33.1804C5.54051 33.2105 5.48487 33.236 5.41687 33.237C5.34888 33.2379 5.20738 33.325 5.10243 33.4304C4.99652 33.5367 4.87756 33.6091 4.83525 33.5929C4.78525 33.5737 4.76959 33.5913 4.78978 33.6439C4.8086 33.6928 4.79431 33.7141 4.75351 33.6984C4.67137 33.6668 4.4785 33.9796 4.47081 34.1568C4.46765 34.2277 4.44127 34.3027 4.41215 34.3236C4.38303 34.3446 4.3528 34.4234 4.34511 34.499C4.33728 34.5746 4.32492 34.692 4.31764 34.76C4.31022 34.828 4.28398 34.8836 4.25926 34.8836C4.23453 34.8836 4.21777 35.8789 4.22203 37.0953C4.22629 38.3117 4.22794 40.2268 4.22574 41.3509L4.22175 43.3948L3.44712 43.4114C3.021 43.4206 2.65876 43.4057 2.64186 43.3783C2.62469 43.3504 2.64268 43.3481 2.68321 43.3731C2.73074 43.4025 2.74187 43.396 2.7159 43.3541C2.69434 43.3193 2.63485 43.2903 2.58375 43.2899C2.50367 43.2892 2.50229 43.2816 2.57331 43.2357C2.62826 43.2003 2.63279 43.1822 2.58705 43.1816C2.53238 43.1809 2.51836 40.7974 2.51836 31.4494C2.51836 23.9185 2.53746 19.718 2.57153 19.718C2.60092 19.718 2.61054 19.6806 2.59296 19.6349C2.56919 19.5731 2.58609 19.5615 2.65917 19.5896C2.73033 19.6169 2.74901 19.6056 2.72717 19.5489C2.70134 19.4813 5.78805 19.4707 25.4317 19.4707C45.0754 19.4707 48.1621 19.4813 48.1362 19.5489C48.1144 19.6056 48.1331 19.6169 48.2042 19.5896C48.2759 19.5621 48.2941 19.5733 48.2718 19.6315C48.2551 19.6751 48.2644 19.7187 48.2927 19.7282C48.324 19.7387 48.3446 21.711 48.3457 24.7856C48.3472 29.7514 48.3489 29.8266 48.456 29.8839C48.5159 29.9159 48.5648 29.9784 48.5648 30.0227C48.5648 30.0669 48.5911 30.1032 48.6231 30.1032C48.6551 30.1032 48.6626 30.0723 48.64 30.0345C48.6119 29.9878 48.6284 29.99 48.6916 30.0412C48.7923 30.1228 48.8191 30.1859 48.7297 30.1306C48.6995 30.112 48.6747 30.1228 48.6747 30.1548C48.6747 30.1868 48.7489 30.2131 48.8396 30.2131C48.9302 30.2131 49.0044 30.2378 49.0044 30.268C49.0044 30.3471 49.155 30.3359 49.1878 30.2543C49.2099 30.1993 49.2164 30.1993 49.2198 30.2543C49.2253 30.3397 49.3724 30.3453 49.4005 30.2611C49.4119 30.2272 49.4881 30.1993 49.57 30.1993C49.6804 30.1993 49.7187 30.172 49.7187 30.093C49.7187 30.0346 49.7435 30.0021 49.7737 30.0207C49.8039 30.0394 49.8286 30.0302 49.8286 30.0003C49.8286 29.9702 49.8751 29.931 49.9317 29.913C49.9987 29.8918 50.0347 29.8288 50.0347 29.7331C50.0347 29.652 50.0626 29.5765 50.0965 29.5651C50.1304 29.5538 50.1583 29.5081 50.1583 29.4634C50.1583 29.4188 50.1336 29.3976 50.1034 29.4163C50.015 29.4708 50.0288 19.8158 50.1171 19.7221C50.1721 19.6639 50.1721 19.6442 50.1171 19.6242C50.0744 19.6085 50.0482 19.4915 50.0476 19.3151C50.0469 19.1115 50.0317 19.0545 49.9935 19.1136C49.9543 19.1741 49.94 19.1355 49.9394 18.9684C49.9388 18.8131 49.9112 18.7302 49.8527 18.7078C49.8054 18.6896 49.7811 18.6513 49.7988 18.6227C49.8165 18.5942 49.7871 18.5454 49.7336 18.5142C49.6801 18.483 49.656 18.4568 49.68 18.4558C49.704 18.4549 49.6597 18.3902 49.5814 18.3119C49.5022 18.2326 49.4036 18.1832 49.3591 18.2002C49.3151 18.2171 49.2792 18.2091 49.2792 18.1823C49.2792 18.1556 49.3048 18.1251 49.3362 18.1146C49.3675 18.1042 49.3143 18.0491 49.2182 17.9922C49.1219 17.9355 49.0605 17.9169 49.0816 17.9511C49.1062 17.9911 49.0896 18.0017 49.035 17.9808C48.9883 17.9628 48.9638 17.926 48.9805 17.8989C48.9973 17.8719 48.991 17.8477 48.9665 17.8452C48.7949 17.8278 48.5794 17.786 48.5099 17.7566C48.3817 17.7026 48.3228 17.7017 48.2538 17.7529C48.2166 17.7804 48.1751 17.7761 48.1544 17.7425C48.1301 17.7033 46.9719 17.6849 44.5229 17.6849H40.927L40.9189 10.2807C40.9099 2.08656 40.9148 2.70954 40.8584 2.65239C40.8357 2.62959 40.8172 2.49139 40.8172 2.34523C40.8172 2.19921 40.7924 2.07969 40.7622 2.07969C40.732 2.07969 40.7073 2.01788 40.7073 1.94232C40.7073 1.86677 40.682 1.80496 40.6511 1.80496C40.6203 1.80496 40.5671 1.74396 40.5332 1.66937C40.4991 1.59464 40.4465 1.54903 40.416 1.56785C40.385 1.58709 40.3774 1.57486 40.3989 1.54011C40.42 1.50604 40.3866 1.43502 40.325 1.38213C40.2633 1.32924 40.2127 1.253 40.2127 1.21248C40.2127 1.17209 40.188 1.15437 40.1578 1.17305C40.1276 1.19174 40.1028 1.1791 40.1028 1.14489C40.1028 1.08088 39.9646 0.920293 39.9124 0.923864C39.7742 0.933068 39.7057 0.919881 39.7356 0.889934C39.9379 0.687863 39.68 0.679071 33.1339 0.663548L26.797 0.648438L26.6337 0.823172C26.3502 1.12676 26.4399 2.13464 26.7505 2.13464C26.7807 2.13464 26.8054 2.17132 26.8054 2.2161C26.8054 2.28754 27.5223 2.2977 32.6436 2.29894C36.4546 2.2999 38.4882 2.31927 38.5001 2.35485C38.5103 2.38479 38.5658 2.40938 38.6236 2.40938C38.6816 2.40938 38.8217 2.49936 38.935 2.60939C39.0485 2.71943 39.1103 2.7921 39.0726 2.77094C39.0348 2.74992 39.0039 2.75871 39.0039 2.79072C39.0039 2.82273 39.0286 2.84897 39.0588 2.84897C39.0952 2.84897 39.1138 5.3583 39.1138 10.2669V17.6849H25.4317H11.7496V13.3715V9.05809L14.1536 9.05149C15.4758 9.04779 16.6132 9.04435 16.6812 9.04394C16.7492 9.04339 16.8049 9.02169 16.8049 8.99558C16.8049 8.96948 16.879 8.94819 16.9697 8.94819C17.0604 8.94819 17.1345 8.92814 17.1345 8.90355C17.1345 8.87896 17.2211 8.82483 17.3269 8.78335C17.4326 8.74186 17.5192 8.6784 17.5192 8.64241C17.5192 8.60642 17.5625 8.54309 17.6153 8.5016C17.7027 8.43305 17.7045 8.43498 17.635 8.52358C17.5696 8.60697 17.5697 8.61672 17.6362 8.59117C17.6789 8.57482 17.738 8.50627 17.7675 8.43882C17.7972 8.37151 17.8408 8.3233 17.8645 8.33195C17.9108 8.34885 18.0687 8.20969 18.0687 8.15213C18.0687 8.13304 18.0401 8.1351 18.0052 8.15667C17.9669 8.18043 17.9567 8.17178 17.9795 8.13482C18.0003 8.10131 18.0536 8.08771 18.0979 8.10474C18.1489 8.12438 18.1786 8.10213 18.1786 8.04416C18.1786 7.98894 18.1534 7.96819 18.1151 7.99182C18.0758 8.01614 18.0666 8.00693 18.0909 7.96765C18.1125 7.93275 18.172 7.90377 18.2231 7.90336C18.2959 7.90267 18.2999 7.89237 18.2416 7.85541C18.1832 7.81846 18.1935 7.79003 18.2901 7.7223C18.3757 7.66241 18.4037 7.60087 18.3824 7.51968C18.3635 7.44674 18.3813 7.39165 18.4301 7.37297C18.4731 7.35649 18.5082 7.3194 18.5082 7.29069C18.5082 7.26184 18.4835 7.2536 18.4533 7.27228C18.4231 7.29096 18.3983 7.26775 18.3983 7.22063C18.3983 7.17351 18.4205 7.13491 18.4474 7.13491C18.4751 7.13491 18.5001 6.09708 18.5051 4.73272C18.5098 3.41163 18.5203 2.32408 18.5284 2.31597C18.5364 2.30787 19.7839 2.30004 21.3006 2.29853C23.6844 2.29605 24.058 2.28479 24.058 2.21514C24.058 2.17091 24.0827 2.13464 24.1129 2.13464C24.4226 2.13464 24.5132 1.12676 24.2309 0.824546L24.0689 0.651048L20.6155 0.655581C17.4677 0.659839 17.1542 0.668356 17.0742 0.75174ZM40.8584 14.0171C40.8504 16.0495 40.8438 14.3867 40.8438 10.3219C40.8438 6.25711 40.8504 4.59425 40.8584 6.62664C40.8663 8.65903 40.8663 11.9848 40.8584 14.0171ZM16.6408 6.90564C16.6102 6.91594 16.5851 6.95454 16.5851 6.99163C16.5851 7.02858 16.5462 7.10689 16.4985 7.16568C16.451 7.22434 16.4278 7.24137 16.4469 7.20359C16.466 7.16582 16.4643 7.13491 16.4433 7.13491C16.4221 7.13491 16.3774 7.16582 16.3438 7.20359C16.2971 7.25621 15.9177 7.26871 14.723 7.25689L13.1633 7.24137L13.6379 6.77102C13.9136 6.49779 14.0974 6.27387 14.0763 6.23692C14.0562 6.20189 14.0601 6.19159 14.0848 6.21412C14.1463 6.26975 14.2847 6.14736 14.2407 6.0762C14.2212 6.04474 14.2297 6.03403 14.2594 6.05243C14.3219 6.09103 14.8991 5.52686 14.8556 5.46957C14.8398 5.44869 14.8429 5.44361 14.8629 5.45858C14.9208 5.50186 15.0489 5.36984 15.01 5.30693C14.9903 5.2752 15.0009 5.26599 15.0335 5.28605C15.1105 5.33371 16.3774 4.06689 16.3297 3.98982C16.3096 3.95727 16.3188 3.94669 16.3506 3.96633C16.4217 4.01029 16.5441 3.87196 16.4885 3.81042C16.466 3.78569 16.477 3.78226 16.5125 3.80259C16.5483 3.82306 16.5977 3.8085 16.6224 3.77031C16.6473 3.73198 16.6741 4.41759 16.682 5.29388C16.6917 6.33651 16.6774 6.89355 16.6408 6.90564ZM10.0325 15.3318C10.0243 16.641 10.0175 15.5859 10.0175 12.9869C10.0175 10.3878 10.0243 9.31648 10.0325 10.6062C10.0408 11.8959 10.0408 14.0224 10.0325 15.3318ZM41.0576 23.4009C41.0265 23.4319 40.8917 23.465 40.7581 23.4747C40.6148 23.485 40.5203 23.5174 40.528 23.5536C40.5355 23.5891 40.504 23.6012 40.4538 23.5818C40.4057 23.5634 40.349 23.5766 40.3277 23.6111C40.3064 23.6455 40.2223 23.6792 40.141 23.6859C40.0596 23.6927 39.9929 23.7175 39.9929 23.7411C39.9929 23.7648 39.9553 23.7841 39.9093 23.7841C39.8634 23.7841 39.6876 23.9201 39.5186 24.0864C39.3498 24.2526 39.2285 24.3886 39.2491 24.3886C39.2695 24.3886 39.2493 24.4257 39.204 24.471C39.1587 24.5163 39.0937 24.5534 39.0595 24.5534C39.0253 24.5534 39.0116 24.5765 39.029 24.6045C39.0463 24.6327 39.035 24.6716 39.0039 24.6908C38.9727 24.71 38.9624 24.7505 38.9811 24.7808C38.9996 24.8108 38.9622 24.8493 38.898 24.8662C38.8133 24.8883 38.7901 24.9254 38.8137 25.0001C38.8339 25.0636 38.8161 25.1151 38.7673 25.1339C38.7236 25.1506 38.6879 25.2275 38.6879 25.3047C38.6879 25.3819 38.6643 25.4609 38.6354 25.48C38.5503 25.5368 38.5791 26.884 38.6679 26.9909C38.7089 27.0405 38.7242 27.081 38.7017 27.081C38.6791 27.081 38.6944 27.1215 38.7354 27.1711C38.7765 27.2206 38.8022 27.3222 38.7925 27.3971C38.7811 27.4842 38.796 27.5196 38.8342 27.496C38.8713 27.4732 38.894 27.5126 38.894 27.5997C38.894 27.6771 38.9202 27.7404 38.9522 27.7404C38.9842 27.7404 38.9927 27.7118 38.9712 27.6769C38.9474 27.6386 38.9561 27.6284 38.993 27.6512C39.0265 27.672 39.0385 27.7293 39.0197 27.7786C38.9966 27.8386 39.0065 27.8551 39.0495 27.8286C39.0908 27.803 39.1138 27.8305 39.1138 27.9059C39.1138 27.9704 39.1491 28.0583 39.1922 28.1015C39.2866 28.1958 39.3557 28.2054 39.3009 28.1165C39.2771 28.0782 39.2858 28.068 39.3227 28.0908C39.3562 28.1116 39.3682 28.1691 39.3491 28.2187C39.3233 28.286 39.3374 28.3002 39.4047 28.2744C39.4543 28.2553 39.5119 28.2672 39.5326 28.3007C39.5554 28.3377 39.5452 28.3463 39.5069 28.3226C39.472 28.301 39.4435 28.3102 39.4435 28.3429C39.4435 28.3757 39.5176 28.4174 39.6083 28.4355C39.6995 28.4538 39.7731 28.5036 39.7731 28.5473C39.7731 28.5906 39.7979 28.6108 39.8281 28.5921C39.8583 28.5734 39.883 28.5825 39.883 28.6123C39.883 28.6753 40.2171 28.8532 40.2583 28.8122C40.2736 28.7969 40.2571 28.7844 40.2219 28.7844C40.1866 28.7844 40.1578 28.7558 40.1578 28.7209C40.1578 28.683 40.1983 28.6942 40.2583 28.7486C40.3137 28.7986 40.3776 28.821 40.4004 28.7983C40.423 28.7755 40.4335 28.794 40.4233 28.8394C40.4115 28.8928 40.4427 28.9185 40.5122 28.9123C40.5711 28.9071 40.6873 28.938 40.7705 28.981C41.0243 29.1123 41.8095 29.0859 42.0608 28.9377C42.174 28.871 42.2481 28.8462 42.2255 28.8828C42.1635 28.9829 42.2369 28.9631 42.4258 28.8285C42.519 28.7622 42.577 28.7374 42.5547 28.7736C42.4788 28.8965 42.5866 28.84 42.6979 28.6987C42.7587 28.6212 42.8427 28.5711 42.8843 28.587C42.9281 28.6039 42.9601 28.5811 42.9601 28.533C42.9601 28.4873 42.991 28.4549 43.0288 28.461C43.1743 28.4844 43.2965 28.3918 43.2285 28.3097C43.1772 28.2478 43.1818 28.2392 43.2522 28.2661C43.361 28.3079 43.5701 28.1043 43.651 27.8778C43.6834 27.7871 43.7422 27.7202 43.7816 27.729C43.8293 27.7397 43.8434 27.7073 43.8241 27.6328C43.8058 27.5632 43.8212 27.5206 43.8647 27.5206C43.9033 27.5206 43.9319 27.465 43.9283 27.397C43.9245 27.326 43.9504 27.279 43.9893 27.2867C44.034 27.2956 44.0503 27.2442 44.0377 27.1356C44.0247 27.0237 44.0426 26.9711 44.0937 26.9711C44.1352 26.9711 44.169 26.9449 44.169 26.9129C44.169 26.8809 44.1404 26.8724 44.1055 26.8939C44.0621 26.9207 44.0573 26.9088 44.09 26.856C44.1607 26.7423 44.1616 25.6945 44.0911 25.6006C44.0462 25.5408 44.0485 25.5315 44.1003 25.5627C44.1385 25.5856 44.169 25.5774 44.169 25.544C44.169 25.511 44.1334 25.4705 44.09 25.4537C44.0466 25.4371 44.0245 25.3885 44.041 25.3456C44.0576 25.3021 44.0379 25.2673 43.9963 25.2669C43.9335 25.2662 43.9335 25.2585 43.9963 25.2188C44.0482 25.1859 44.0524 25.1602 44.0101 25.1339C43.9765 25.1133 43.9492 25.0484 43.9492 24.9897C43.9492 24.931 43.9273 24.8831 43.9007 24.8831C43.8739 24.8831 43.8385 24.8312 43.822 24.7677C43.8028 24.6942 43.7673 24.6673 43.7246 24.6938C43.6816 24.7203 43.6716 24.7124 43.697 24.6714C43.7376 24.6055 43.6003 24.4261 43.5486 24.4777C43.5327 24.4937 43.5033 24.4555 43.4835 24.3927C43.4636 24.3301 43.4242 24.2787 43.396 24.2787C43.3678 24.2787 43.3509 24.2489 43.3585 24.2125C43.3661 24.1761 43.3404 24.1452 43.3015 24.1438C43.2626 24.1424 43.2132 24.1148 43.1916 24.0824C43.17 24.05 43.1092 24.0074 43.0563 23.9879C43.0034 23.9684 42.9601 23.9145 42.9601 23.8684C42.9601 23.8221 42.9339 23.7841 42.9019 23.7841C42.8699 23.7841 42.8594 23.8151 42.8787 23.8528C42.8979 23.8906 42.8636 23.8648 42.8024 23.7954C42.7413 23.7262 42.6777 23.6705 42.6609 23.6718C42.5197 23.683 42.4642 23.6659 42.4927 23.62C42.5126 23.5878 42.4883 23.5802 42.433 23.6014C42.374 23.6241 42.3117 23.5988 42.2631 23.5323C42.1972 23.4421 42.1793 23.4389 42.1345 23.5097C42.106 23.5549 42.0822 23.5646 42.0818 23.5315C42.0814 23.4983 42.0011 23.4689 41.9035 23.4661C41.8058 23.4634 41.7172 23.4348 41.7066 23.4028C41.6959 23.3708 41.626 23.3446 41.5511 23.3446C41.4745 23.3446 41.43 23.3685 41.4491 23.3995C41.4677 23.4297 41.4306 23.4545 41.3666 23.4545C41.3026 23.4545 41.2655 23.4297 41.2842 23.3995C41.329 23.3271 41.1301 23.3284 41.0576 23.4009ZM41.4765 25.2128C41.4765 25.243 41.5507 25.2677 41.6414 25.2677C41.732 25.2677 41.8062 25.2951 41.8062 25.3286C41.8062 25.362 41.843 25.3753 41.888 25.358C41.9352 25.3399 41.9642 25.3548 41.9566 25.3933C41.9495 25.43 41.9683 25.4568 41.9985 25.4526C42.0288 25.4487 42.1029 25.4958 42.1634 25.5573C42.2238 25.6189 42.2424 25.6517 42.2046 25.6301C42.0946 25.5673 42.1255 25.6538 42.2487 25.7536C42.3834 25.8627 42.4249 26.7457 42.2915 26.6633C42.2664 26.6476 42.2458 26.6734 42.2458 26.7206C42.2458 26.7677 42.2196 26.8063 42.1876 26.8063C42.1556 26.8063 42.1447 26.831 42.1634 26.8612C42.1821 26.8915 42.1589 26.9162 42.1117 26.9162C42.0646 26.9162 42.026 26.9371 42.026 26.9625C42.026 26.9879 41.9264 27.0386 41.8046 27.075C41.6829 27.1115 41.5978 27.1648 41.6156 27.1937C41.6342 27.2238 41.5418 27.2459 41.3974 27.2459C41.2596 27.2459 41.1468 27.2242 41.1468 27.1977C41.1468 27.1474 40.9189 27.0445 40.743 27.0154C40.4733 26.9709 40.201 25.9584 40.4375 25.8797C40.4803 25.8654 40.4769 25.8447 40.4265 25.8135C40.3693 25.7782 40.3758 25.7595 40.4559 25.7288C40.5835 25.6799 40.8781 25.3769 40.8471 25.3267C40.8345 25.3063 40.9154 25.2837 41.0268 25.2764C41.1382 25.269 41.2375 25.2393 41.2475 25.2103C41.272 25.1404 41.4765 25.1426 41.4765 25.2128ZM25.4362 34.9386C40.825 34.9386 44.7186 34.9247 44.7193 34.8699C44.7198 34.8242 44.738 34.8287 44.7734 34.8836C44.8047 34.9321 44.827 35.65 44.8275 36.6282L44.8284 38.2904H25.4317H6.03504V36.6465C6.03504 35.1802 6.0632 34.6659 6.13216 34.8726C6.14919 34.9237 10.4928 34.9386 25.4362 34.9386ZM8.99207 40.0349C8.45756 40.0439 7.5674 40.0439 7.01394 40.035C6.46047 40.0259 6.89772 40.0187 7.98569 40.0187C9.07367 40.0185 9.52658 40.0259 8.99207 40.0349ZM10.0214 43.3863C10.0006 43.4401 9.5568 43.4555 8.01495 43.4555H6.03504V41.7796V40.1037H7.9824C9.48001 40.1037 9.9402 40.0879 9.97426 40.035C10.021 39.9629 10.0674 43.2664 10.0214 43.3863ZM42.8887 40.1037H44.8284V41.7803V43.4569L42.8365 43.4425L40.8446 43.4281L40.8301 41.6991C40.8187 40.3429 40.8299 39.9846 40.8823 40.0369C40.9321 40.0868 41.4404 40.1037 42.8887 40.1037ZM43.8841 40.0349C43.3496 40.0439 42.4594 40.0439 41.9059 40.035C41.3525 40.0259 41.7897 40.0187 42.8777 40.0187C43.9657 40.0185 44.4186 40.0259 43.8841 40.0349ZM39.1138 46.7139C39.1138 51.926 39.0992 53.3398 39.0451 53.3982C38.9899 53.4577 38.9907 53.4642 39.0492 53.4309C39.1094 53.3967 39.1095 53.4095 39.0496 53.5052C39.0099 53.5688 38.9572 53.6209 38.9324 53.6209C38.9077 53.6209 38.9028 53.6456 38.9214 53.6758C38.9401 53.7061 38.9107 53.7312 38.8561 53.7316C38.78 53.7323 38.7739 53.7434 38.8305 53.7793C38.9246 53.8389 38.6703 53.9118 38.5412 53.8623C38.4934 53.844 38.4544 53.8564 38.4544 53.8897C38.4544 53.9341 34.916 53.9506 25.4317 53.9506C15.9474 53.9506 12.409 53.9341 12.409 53.8897C12.409 53.8564 12.37 53.844 12.3222 53.8623C12.1931 53.9118 11.9388 53.8389 12.0329 53.7793C12.0895 53.7434 12.0834 53.7323 12.0073 53.7316C11.9527 53.7312 11.9233 53.7061 11.942 53.6758C11.9606 53.6456 11.9557 53.6209 11.931 53.6209C11.9062 53.6209 11.8535 53.5688 11.8138 53.5052C11.7539 53.4095 11.754 53.3967 11.8142 53.4309C11.8727 53.4642 11.8735 53.4577 11.8183 53.3982C11.7642 53.3398 11.7496 51.926 11.7496 46.7139V40.1037H25.4317H39.1138V46.7139ZM14.8552 41.9067C14.8399 41.9464 14.8025 41.9635 14.7722 41.9447C14.7417 41.9259 14.7168 41.9366 14.7168 41.9686C14.7168 42.0006 14.6826 42.0269 14.6409 42.0269C14.599 42.0269 14.5518 42.0763 14.5361 42.1368C14.5203 42.1972 14.4683 42.2467 14.4208 42.2467C14.3485 42.2467 14.3348 42.3237 14.3376 42.7137C14.3403 43.0837 14.3576 43.1808 14.4208 43.1808C14.4646 43.1808 14.5168 43.2241 14.5369 43.2769C14.5961 43.4333 14.6998 43.5105 14.8502 43.5105C14.928 43.5105 14.9916 43.5351 14.9916 43.5651C14.9916 43.6011 18.5446 43.6198 25.4317 43.6198C32.3188 43.6198 35.8718 43.6011 35.8718 43.5651C35.8718 43.5351 35.9354 43.5105 36.0132 43.5105C36.1636 43.5105 36.2673 43.4333 36.3265 43.2769C36.3466 43.2241 36.3988 43.1808 36.4426 43.1808C36.5058 43.1808 36.5231 43.0837 36.5258 42.7137C36.5286 42.3237 36.5149 42.2467 36.4426 42.2467C36.3951 42.2467 36.3431 42.1972 36.3274 42.1368C36.3116 42.0763 36.2644 42.0269 36.2225 42.0269C36.1808 42.0269 36.1466 42.0006 36.1466 41.9686C36.1466 41.9366 36.1234 41.9248 36.0951 41.9424C36.0666 41.9598 36.0233 41.9428 35.9989 41.9043C35.9317 41.7993 14.8955 41.8016 14.8552 41.9067ZM10.0325 51.1855C10.0241 52.2983 10.0174 51.4037 10.0174 49.1976C10.0174 46.9914 10.0241 46.0809 10.0325 47.1743C10.0408 48.2675 10.0408 50.0725 10.0325 51.1855ZM40.8584 51.1855C40.85 52.2983 40.8433 51.4037 40.8433 49.1976C40.8433 46.9914 40.85 46.0809 40.8584 47.1743C40.8666 48.2675 40.8666 50.0725 40.8584 51.1855ZM14.8045 45.3323C14.8287 45.3714 14.8196 45.3808 14.7807 45.3567C14.7123 45.3144 14.4275 45.5655 14.4821 45.6202C14.5003 45.6385 14.4741 45.6534 14.4238 45.6534C14.3734 45.6534 14.3322 45.6797 14.3322 45.7117C14.3322 45.7437 14.3631 45.7523 14.4009 45.7311C14.4558 45.7 14.4558 45.707 14.4009 45.7662C14.3014 45.8734 14.3116 46.4649 14.4146 46.5679C14.4599 46.6132 14.4977 46.63 14.4987 46.6053C14.4996 46.5804 14.5257 46.6035 14.5567 46.6567C14.5876 46.7098 14.5951 46.7819 14.5734 46.8171C14.5473 46.8593 14.5637 46.8696 14.6214 46.8475C14.6694 46.8289 14.7384 46.8495 14.7745 46.8931C14.8107 46.9366 14.8881 46.9722 14.9467 46.9722C15.0052 46.9722 15.0377 46.9969 15.019 47.0271C15.0004 47.0574 15.0375 47.0821 15.1015 47.0821C15.1655 47.0821 15.2064 47.0635 15.1924 47.0409C15.1784 47.0182 19.7861 46.9997 25.4317 46.9997C31.0773 46.9997 35.685 47.0182 35.671 47.0409C35.657 47.0635 35.6979 47.0821 35.7619 47.0821C35.826 47.0821 35.863 47.0574 35.8444 47.0271C35.8257 46.9969 35.8582 46.9722 35.9167 46.9722C35.9753 46.9722 36.0527 46.9366 36.0889 46.8931C36.125 46.8495 36.194 46.8289 36.242 46.8475C36.2997 46.8696 36.3161 46.8593 36.29 46.8171C36.2683 46.7819 36.2758 46.7098 36.3067 46.6567C36.3377 46.6035 36.3638 46.5804 36.3647 46.6053C36.3657 46.63 36.4035 46.6132 36.4488 46.5679C36.5518 46.4649 36.562 45.8734 36.4625 45.7662C36.4076 45.707 36.4076 45.7 36.4625 45.7311C36.5003 45.7523 36.5312 45.7437 36.5312 45.7117C36.5312 45.6797 36.49 45.6534 36.4396 45.6534C36.3893 45.6534 36.3631 45.6385 36.3813 45.6202C36.4359 45.5655 36.1511 45.3144 36.0827 45.3567C36.0438 45.3808 36.0348 45.3714 36.0589 45.3323C36.0885 45.2843 33.4804 45.2688 25.4317 45.2688C17.383 45.2688 14.7749 45.2843 14.8045 45.3323ZM14.8462 48.7178C14.8605 48.7408 14.8126 48.788 14.7395 48.8224C14.6666 48.8569 14.6207 48.8627 14.6376 48.8353C14.6855 48.7577 14.6078 48.7767 14.5205 48.8639C14.4285 48.956 14.416 49.0279 14.5012 48.9753C14.5337 48.9551 14.5288 48.9891 14.49 49.0509C14.4516 49.1126 14.3941 49.1474 14.3624 49.1285C14.3307 49.1095 14.3387 49.1359 14.3801 49.187C14.4216 49.2381 14.4315 49.28 14.4021 49.28C14.3727 49.28 14.3441 49.4284 14.3388 49.6097C14.3329 49.8057 14.3518 49.9394 14.3855 49.9394C14.4167 49.9394 14.4421 49.9783 14.4421 50.0258C14.4421 50.1393 14.5909 50.2854 14.6619 50.2416C14.6925 50.2226 14.7325 50.2459 14.7506 50.2931C14.801 50.4246 36.0624 50.4246 36.1128 50.2931C36.1309 50.2459 36.1709 50.2226 36.2015 50.2416C36.2725 50.2854 36.4213 50.1393 36.4213 50.0258C36.4213 49.9783 36.4467 49.9394 36.4779 49.9394C36.5116 49.9394 36.5305 49.8057 36.5246 49.6097C36.5193 49.4284 36.4907 49.28 36.4613 49.28C36.4319 49.28 36.4418 49.2381 36.4833 49.187C36.5247 49.1359 36.5327 49.1095 36.501 49.1285C36.4692 49.1474 36.4118 49.1126 36.3734 49.0509C36.3346 48.9891 36.3297 48.9551 36.3622 48.9753C36.4474 49.0279 36.4349 48.956 36.3429 48.8639C36.2556 48.7767 36.1779 48.7577 36.2258 48.8353C36.2427 48.8627 36.1968 48.8569 36.1239 48.8224C36.0508 48.788 36.0029 48.7408 36.0172 48.7178C36.0315 48.6945 31.268 48.6756 25.4317 48.6756C19.5954 48.6756 14.8319 48.6945 14.8462 48.7178Z" fill="#143274"/>
<path id="path1" fill-rule="evenodd" clip-rule="evenodd" d="M40.8417 10.3244C40.8417 14.3892 40.8483 16.052 40.8563 14.0196C40.8643 11.9872 40.8643 8.66152 40.8563 6.62913C40.8483 4.59674 40.8417 6.2596 40.8417 10.3244ZM9.97564 12.239C9.98319 14.5556 9.99665 16.7354 10.0054 17.083C10.0142 17.4305 10.0258 15.5461 10.031 12.8954C10.0364 10.2446 10.0229 8.06492 10.0012 8.05146C9.97948 8.038 9.96794 9.92244 9.97564 12.239ZM0.739693 19.7022C0.677327 19.7644 0.695872 43.1941 0.758238 43.1557C0.808103 43.1248 0.843957 19.6655 0.794092 19.6655C0.784338 19.6655 0.759749 19.682 0.739693 19.7022ZM50.0469 24.557C50.0458 27.841 50.0635 29.4422 50.1008 29.4192C50.176 29.3726 50.1777 19.7403 50.1024 19.6937C50.0675 19.6721 50.048 21.377 50.0469 24.557ZM41.2822 23.402C41.2635 23.4322 41.3006 23.4569 41.3646 23.4569C41.4286 23.4569 41.4657 23.4322 41.447 23.402C41.4283 23.3718 41.3912 23.347 41.3646 23.347C41.3379 23.347 41.3008 23.3718 41.2822 23.402ZM44.1259 26.2318C44.1264 26.3527 44.1377 26.3957 44.1508 26.3273C44.164 26.259 44.1635 26.1601 44.1498 26.1075C44.136 26.055 44.1252 26.1109 44.1259 26.2318ZM41.2691 27.2328C41.3528 27.2455 41.4764 27.2452 41.5438 27.2321C41.6114 27.2191 41.5432 27.2087 41.392 27.2091C41.2409 27.2095 41.1856 27.2202 41.2691 27.2328ZM50.0469 38.2131C50.048 41.4821 50.0675 43.2316 50.1024 43.2101C50.1778 43.1635 50.1762 33.1827 50.1008 33.1827C50.0638 33.1827 50.0458 34.8618 50.0469 38.2131ZM4.4028 34.2033C4.36819 34.2766 4.36063 34.3366 4.38605 34.3366C4.43371 34.3366 4.51929 34.1233 4.48509 34.0892C4.47451 34.0787 4.43742 34.1299 4.4028 34.2033ZM4.27656 34.6078C4.20307 34.7452 4.20376 34.8861 4.27794 34.8861C4.30994 34.8861 4.32203 34.8635 4.305 34.8358C4.28783 34.8081 4.29813 34.7216 4.3278 34.6435C4.39113 34.477 4.35857 34.4545 4.27656 34.6078ZM4.23247 39.1721C4.23247 39.2778 4.24373 39.3211 4.2576 39.2682C4.27134 39.2153 4.27134 39.1288 4.2576 39.0759C4.24373 39.023 4.23247 39.0663 4.23247 39.1721ZM46.5974 39.1721C46.5974 39.2778 46.6087 39.3211 46.6226 39.2682C46.6363 39.2153 46.6363 39.1288 46.6226 39.0759C46.6087 39.023 46.5974 39.0663 46.5974 39.1721ZM7.99737 40.037L9.93429 40.0526V41.7271V43.4017L7.9699 43.4172L6.0055 43.4327L8.01111 43.4316L10.0167 43.4305L10.0313 41.716L10.0457 40.0014L8.05314 40.0113L6.06045 40.0212L7.99737 40.037ZM40.828 41.716L40.8426 43.4305L42.8482 43.4316L44.8538 43.4327L42.8894 43.4172L40.925 43.4017V41.7271V40.0526L42.8619 40.037L44.7988 40.0212L42.8061 40.0113L40.8136 40.0014L40.828 41.716ZM20.2783 41.8508C23.1115 41.8586 27.7478 41.8586 30.581 41.8508C33.4143 41.843 31.0962 41.8365 25.4296 41.8365C19.7631 41.8365 17.445 41.843 20.2783 41.8508ZM49.7167 44.2325C49.7167 44.2656 49.6649 44.3707 49.6017 44.466L49.4869 44.6394L49.6292 44.4853C49.7553 44.3489 49.8201 44.1723 49.7442 44.1723C49.729 44.1723 49.7167 44.1994 49.7167 44.2325ZM1.08765 44.27C1.08765 44.3035 1.1518 44.4004 1.2301 44.4853L1.37242 44.6394L1.24783 44.4471C1.08559 44.1967 1.08765 44.199 1.08765 44.27ZM10.0153 49.2001C10.0153 51.4062 10.0221 52.3008 10.0304 51.188C10.0387 50.075 10.0387 48.2699 10.0304 47.1768C10.0221 46.0834 10.0153 46.9939 10.0153 49.2001ZM40.8412 49.2001C40.8412 51.4062 40.8479 52.3008 40.8563 51.188C40.8645 50.075 40.8645 48.2699 40.8563 47.1768C40.8479 46.0834 40.8412 46.9939 40.8412 49.2001ZM15.1903 47.0434C15.2236 47.0972 35.6357 47.0972 35.6689 47.0434C35.6829 47.0207 31.0753 47.0022 25.4296 47.0022C19.784 47.0022 15.1763 47.0207 15.1903 47.0434Z" fill="#143274"/>
<path id="path2" fill-rule="evenodd" clip-rule="evenodd" d="M40.8417 10.3244C40.8417 14.3892 40.8483 16.052 40.8563 14.0196C40.8643 11.9872 40.8643 8.66152 40.8563 6.62913C40.8483 4.59674 40.8417 6.2596 40.8417 10.3244ZM9.97564 12.239C9.98319 14.5556 9.99665 16.7354 10.0054 17.083C10.0142 17.4305 10.0258 15.5461 10.031 12.8954C10.0364 10.2446 10.0229 8.06492 10.0012 8.05146C9.97948 8.038 9.96794 9.92244 9.97564 12.239ZM0.739693 19.7022C0.677327 19.7644 0.695872 43.1941 0.758238 43.1557C0.808103 43.1248 0.843957 19.6655 0.794092 19.6655C0.784338 19.6655 0.759749 19.682 0.739693 19.7022ZM50.0469 24.557C50.0458 27.841 50.0635 29.4422 50.1008 29.4192C50.176 29.3726 50.1777 19.7403 50.1024 19.6937C50.0675 19.6721 50.048 21.377 50.0469 24.557ZM41.2822 23.402C41.2635 23.4322 41.3006 23.4569 41.3646 23.4569C41.4286 23.4569 41.4657 23.4322 41.447 23.402C41.4283 23.3718 41.3912 23.347 41.3646 23.347C41.3379 23.347 41.3008 23.3718 41.2822 23.402ZM44.1259 26.2318C44.1264 26.3527 44.1377 26.3957 44.1508 26.3273C44.164 26.259 44.1635 26.1601 44.1498 26.1075C44.136 26.055 44.1252 26.1109 44.1259 26.2318ZM41.2691 27.2328C41.3528 27.2455 41.4764 27.2452 41.5438 27.2321C41.6114 27.2191 41.5432 27.2087 41.392 27.2091C41.2409 27.2095 41.1856 27.2202 41.2691 27.2328ZM50.0469 38.2131C50.048 41.4821 50.0675 43.2316 50.1024 43.2101C50.1778 43.1635 50.1762 33.1827 50.1008 33.1827C50.0638 33.1827 50.0458 34.8618 50.0469 38.2131ZM4.4028 34.2033C4.36819 34.2766 4.36063 34.3366 4.38605 34.3366C4.43371 34.3366 4.51929 34.1233 4.48509 34.0892C4.47451 34.0787 4.43742 34.1299 4.4028 34.2033ZM4.27656 34.6078C4.20307 34.7452 4.20376 34.8861 4.27794 34.8861C4.30994 34.8861 4.32203 34.8635 4.305 34.8358C4.28783 34.8081 4.29813 34.7216 4.3278 34.6435C4.39113 34.477 4.35857 34.4545 4.27656 34.6078ZM4.23247 39.1721C4.23247 39.2778 4.24373 39.3211 4.2576 39.2682C4.27134 39.2153 4.27134 39.1288 4.2576 39.0759C4.24373 39.023 4.23247 39.0663 4.23247 39.1721ZM46.5974 39.1721C46.5974 39.2778 46.6087 39.3211 46.6226 39.2682C46.6363 39.2153 46.6363 39.1288 46.6226 39.0759C46.6087 39.023 46.5974 39.0663 46.5974 39.1721ZM7.99737 40.037L9.93429 40.0526V41.7271V43.4017L7.9699 43.4172L6.0055 43.4327L8.01111 43.4316L10.0167 43.4305L10.0313 41.716L10.0457 40.0014L8.05314 40.0113L6.06045 40.0212L7.99737 40.037ZM40.828 41.716L40.8426 43.4305L42.8482 43.4316L44.8538 43.4327L42.8894 43.4172L40.925 43.4017V41.7271V40.0526L42.8619 40.037L44.7988 40.0212L42.8061 40.0113L40.8136 40.0014L40.828 41.716ZM20.2783 41.8508C23.1115 41.8586 27.7478 41.8586 30.581 41.8508C33.4143 41.843 31.0962 41.8365 25.4296 41.8365C19.7631 41.8365 17.445 41.843 20.2783 41.8508ZM49.7167 44.2325C49.7167 44.2656 49.6649 44.3707 49.6017 44.466L49.4869 44.6394L49.6292 44.4853C49.7553 44.3489 49.8201 44.1723 49.7442 44.1723C49.729 44.1723 49.7167 44.1994 49.7167 44.2325ZM1.08765 44.27C1.08765 44.3035 1.1518 44.4004 1.2301 44.4853L1.37242 44.6394L1.24783 44.4471C1.08559 44.1967 1.08765 44.199 1.08765 44.27ZM10.0153 49.2001C10.0153 51.4062 10.0221 52.3008 10.0304 51.188C10.0387 50.075 10.0387 48.2699 10.0304 47.1768C10.0221 46.0834 10.0153 46.9939 10.0153 49.2001ZM40.8412 49.2001C40.8412 51.4062 40.8479 52.3008 40.8563 51.188C40.8645 50.075 40.8645 48.2699 40.8563 47.1768C40.8479 46.0834 40.8412 46.9939 40.8412 49.2001ZM15.1903 47.0434C15.2236 47.0972 35.6357 47.0972 35.6689 47.0434C35.6829 47.0207 31.0753 47.0022 25.4296 47.0022C19.784 47.0022 15.1763 47.0207 15.1903 47.0434Z" fill="#143274"/>
<path id="path3" fill-rule="evenodd" clip-rule="evenodd" d="M40.8417 10.3244C40.8417 14.3892 40.8483 16.052 40.8563 14.0196C40.8643 11.9872 40.8643 8.66152 40.8563 6.62913C40.8483 4.59674 40.8417 6.2596 40.8417 10.3244ZM9.97564 12.239C9.98319 14.5556 9.99665 16.7354 10.0054 17.083C10.0142 17.4305 10.0258 15.5461 10.031 12.8954C10.0364 10.2446 10.0229 8.06492 10.0012 8.05146C9.97948 8.038 9.96794 9.92244 9.97564 12.239ZM0.739693 19.7022C0.677327 19.7644 0.695872 43.1941 0.758238 43.1557C0.808103 43.1248 0.843957 19.6655 0.794092 19.6655C0.784338 19.6655 0.759749 19.682 0.739693 19.7022ZM50.0469 24.557C50.0458 27.841 50.0635 29.4422 50.1008 29.4192C50.176 29.3726 50.1777 19.7403 50.1024 19.6937C50.0675 19.6721 50.048 21.377 50.0469 24.557ZM41.2822 23.402C41.2635 23.4322 41.3006 23.4569 41.3646 23.4569C41.4286 23.4569 41.4657 23.4322 41.447 23.402C41.4283 23.3718 41.3912 23.347 41.3646 23.347C41.3379 23.347 41.3008 23.3718 41.2822 23.402ZM44.1259 26.2318C44.1264 26.3527 44.1377 26.3957 44.1508 26.3273C44.164 26.259 44.1635 26.1601 44.1498 26.1075C44.136 26.055 44.1252 26.1109 44.1259 26.2318ZM41.2691 27.2328C41.3528 27.2455 41.4764 27.2452 41.5438 27.2321C41.6114 27.2191 41.5432 27.2087 41.392 27.2091C41.2409 27.2095 41.1856 27.2202 41.2691 27.2328ZM50.0469 38.2131C50.048 41.4821 50.0675 43.2316 50.1024 43.2101C50.1778 43.1635 50.1762 33.1827 50.1008 33.1827C50.0638 33.1827 50.0458 34.8618 50.0469 38.2131ZM4.4028 34.2033C4.36819 34.2766 4.36063 34.3366 4.38605 34.3366C4.43371 34.3366 4.51929 34.1233 4.48509 34.0892C4.47451 34.0787 4.43742 34.1299 4.4028 34.2033ZM4.27656 34.6078C4.20307 34.7452 4.20376 34.8861 4.27794 34.8861C4.30994 34.8861 4.32203 34.8635 4.305 34.8358C4.28783 34.8081 4.29813 34.7216 4.3278 34.6435C4.39113 34.477 4.35857 34.4545 4.27656 34.6078ZM4.23247 39.1721C4.23247 39.2778 4.24373 39.3211 4.2576 39.2682C4.27134 39.2153 4.27134 39.1288 4.2576 39.0759C4.24373 39.023 4.23247 39.0663 4.23247 39.1721ZM46.5974 39.1721C46.5974 39.2778 46.6087 39.3211 46.6226 39.2682C46.6363 39.2153 46.6363 39.1288 46.6226 39.0759C46.6087 39.023 46.5974 39.0663 46.5974 39.1721ZM7.99737 40.037L9.93429 40.0526V41.7271V43.4017L7.9699 43.4172L6.0055 43.4327L8.01111 43.4316L10.0167 43.4305L10.0313 41.716L10.0457 40.0014L8.05314 40.0113L6.06045 40.0212L7.99737 40.037ZM40.828 41.716L40.8426 43.4305L42.8482 43.4316L44.8538 43.4327L42.8894 43.4172L40.925 43.4017V41.7271V40.0526L42.8619 40.037L44.7988 40.0212L42.8061 40.0113L40.8136 40.0014L40.828 41.716ZM20.2783 41.8508C23.1115 41.8586 27.7478 41.8586 30.581 41.8508C33.4143 41.843 31.0962 41.8365 25.4296 41.8365C19.7631 41.8365 17.445 41.843 20.2783 41.8508ZM49.7167 44.2325C49.7167 44.2656 49.6649 44.3707 49.6017 44.466L49.4869 44.6394L49.6292 44.4853C49.7553 44.3489 49.8201 44.1723 49.7442 44.1723C49.729 44.1723 49.7167 44.1994 49.7167 44.2325ZM1.08765 44.27C1.08765 44.3035 1.1518 44.4004 1.2301 44.4853L1.37242 44.6394L1.24783 44.4471C1.08559 44.1967 1.08765 44.199 1.08765 44.27ZM10.0153 49.2001C10.0153 51.4062 10.0221 52.3008 10.0304 51.188C10.0387 50.075 10.0387 48.2699 10.0304 47.1768C10.0221 46.0834 10.0153 46.9939 10.0153 49.2001ZM40.8412 49.2001C40.8412 51.4062 40.8479 52.3008 40.8563 51.188C40.8645 50.075 40.8645 48.2699 40.8563 47.1768C40.8479 46.0834 40.8412 46.9939 40.8412 49.2001ZM15.1903 47.0434C15.2236 47.0972 35.6357 47.0972 35.6689 47.0434C35.6829 47.0207 31.0753 47.0022 25.4296 47.0022C19.784 47.0022 15.1763 47.0207 15.1903 47.0434Z" fill="#143274"/>
<path id="path4" fill-rule="evenodd" clip-rule="evenodd" d="M40.8417 10.3244C40.8417 14.3892 40.8483 16.052 40.8563 14.0196C40.8643 11.9872 40.8643 8.66152 40.8563 6.62913C40.8483 4.59674 40.8417 6.2596 40.8417 10.3244ZM9.97564 12.239C9.98319 14.5556 9.99665 16.7354 10.0054 17.083C10.0142 17.4305 10.0258 15.5461 10.031 12.8954C10.0364 10.2446 10.0229 8.06492 10.0012 8.05146C9.97948 8.038 9.96794 9.92244 9.97564 12.239ZM0.739693 19.7022C0.677327 19.7644 0.695872 43.1941 0.758238 43.1557C0.808103 43.1248 0.843957 19.6655 0.794092 19.6655C0.784338 19.6655 0.759749 19.682 0.739693 19.7022ZM50.0469 24.557C50.0458 27.841 50.0635 29.4422 50.1008 29.4192C50.176 29.3726 50.1777 19.7403 50.1024 19.6937C50.0675 19.6721 50.048 21.377 50.0469 24.557ZM41.2822 23.402C41.2635 23.4322 41.3006 23.4569 41.3646 23.4569C41.4286 23.4569 41.4657 23.4322 41.447 23.402C41.4283 23.3718 41.3912 23.347 41.3646 23.347C41.3379 23.347 41.3008 23.3718 41.2822 23.402ZM44.1259 26.2318C44.1264 26.3527 44.1377 26.3957 44.1508 26.3273C44.164 26.259 44.1635 26.1601 44.1498 26.1075C44.136 26.055 44.1252 26.1109 44.1259 26.2318ZM41.2691 27.2328C41.3528 27.2455 41.4764 27.2452 41.5438 27.2321C41.6114 27.2191 41.5432 27.2087 41.392 27.2091C41.2409 27.2095 41.1856 27.2202 41.2691 27.2328ZM50.0469 38.2131C50.048 41.4821 50.0675 43.2316 50.1024 43.2101C50.1778 43.1635 50.1762 33.1827 50.1008 33.1827C50.0638 33.1827 50.0458 34.8618 50.0469 38.2131ZM4.4028 34.2033C4.36819 34.2766 4.36063 34.3366 4.38605 34.3366C4.43371 34.3366 4.51929 34.1233 4.48509 34.0892C4.47451 34.0787 4.43742 34.1299 4.4028 34.2033ZM4.27656 34.6078C4.20307 34.7452 4.20376 34.8861 4.27794 34.8861C4.30994 34.8861 4.32203 34.8635 4.305 34.8358C4.28783 34.8081 4.29813 34.7216 4.3278 34.6435C4.39113 34.477 4.35857 34.4545 4.27656 34.6078ZM4.23247 39.1721C4.23247 39.2778 4.24373 39.3211 4.2576 39.2682C4.27134 39.2153 4.27134 39.1288 4.2576 39.0759C4.24373 39.023 4.23247 39.0663 4.23247 39.1721ZM46.5974 39.1721C46.5974 39.2778 46.6087 39.3211 46.6226 39.2682C46.6363 39.2153 46.6363 39.1288 46.6226 39.0759C46.6087 39.023 46.5974 39.0663 46.5974 39.1721ZM7.99737 40.037L9.93429 40.0526V41.7271V43.4017L7.9699 43.4172L6.0055 43.4327L8.01111 43.4316L10.0167 43.4305L10.0313 41.716L10.0457 40.0014L8.05314 40.0113L6.06045 40.0212L7.99737 40.037ZM40.828 41.716L40.8426 43.4305L42.8482 43.4316L44.8538 43.4327L42.8894 43.4172L40.925 43.4017V41.7271V40.0526L42.8619 40.037L44.7988 40.0212L42.8061 40.0113L40.8136 40.0014L40.828 41.716ZM20.2783 41.8508C23.1115 41.8586 27.7478 41.8586 30.581 41.8508C33.4143 41.843 31.0962 41.8365 25.4296 41.8365C19.7631 41.8365 17.445 41.843 20.2783 41.8508ZM49.7167 44.2325C49.7167 44.2656 49.6649 44.3707 49.6017 44.466L49.4869 44.6394L49.6292 44.4853C49.7553 44.3489 49.8201 44.1723 49.7442 44.1723C49.729 44.1723 49.7167 44.1994 49.7167 44.2325ZM1.08765 44.27C1.08765 44.3035 1.1518 44.4004 1.2301 44.4853L1.37242 44.6394L1.24783 44.4471C1.08559 44.1967 1.08765 44.199 1.08765 44.27ZM10.0153 49.2001C10.0153 51.4062 10.0221 52.3008 10.0304 51.188C10.0387 50.075 10.0387 48.2699 10.0304 47.1768C10.0221 46.0834 10.0153 46.9939 10.0153 49.2001ZM40.8412 49.2001C40.8412 51.4062 40.8479 52.3008 40.8563 51.188C40.8645 50.075 40.8645 48.2699 40.8563 47.1768C40.8479 46.0834 40.8412 46.9939 40.8412 49.2001ZM15.1903 47.0434C15.2236 47.0972 35.6357 47.0972 35.6689 47.0434C35.6829 47.0207 31.0753 47.0022 25.4296 47.0022C19.784 47.0022 15.1763 47.0207 15.1903 47.0434Z" fill="#143274"/>
</g>
</svg>
