<svg width="114" height="104" viewBox="0 0 114 104" fill="none" xmlns="http://www.w3.org/2000/svg">
<g id="Group 1261152879">
<path id="Vector 16" d="M99.9391 78.5265C92.7407 84.3123 51.8119 103.581 40.8095 103.581C-31.1744 99.9651 9.18797 8.01157 32.8398 1.03757C56.4917 -5.93643 52.1493 24.3876 68.6028 28.262C81.7656 31.3616 94.626 34.1856 98.6537 35.9076C127.131 49.3706 108.937 71.2942 99.9391 78.5265Z" fill="#CA256D"/>
<path id="Vector" d="M46.4029 46.7316C46.4029 46.6512 46.4188 46.5715 46.4496 46.4971C46.4804 46.4228 46.5256 46.3552 46.5825 46.2983C46.6395 46.2414 46.707 46.1963 46.7814 46.1656C46.8558 46.1348 46.9355 46.119 47.016 46.1191H50.9874C51.0694 46.1168 51.1509 46.1309 51.2273 46.1607C51.3036 46.1904 51.3732 46.2352 51.432 46.2923C51.4908 46.3495 51.5375 46.4178 51.5694 46.4933C51.6013 46.5688 51.6177 46.6499 51.6177 46.7319C51.6177 46.8138 51.6013 46.895 51.5694 46.9704C51.5375 47.0459 51.4908 47.1143 51.432 47.1714C51.3732 47.2285 51.3036 47.2733 51.2273 47.3031C51.1509 47.3328 51.0694 47.347 50.9874 47.3447H47.016C46.8534 47.3447 46.6975 47.2801 46.5825 47.1651C46.4675 47.0502 46.4029 46.8942 46.4029 46.7316ZM47.016 49.8709H54.1871C54.2691 49.8732 54.3506 49.859 54.427 49.8293C54.5033 49.7995 54.573 49.7547 54.6317 49.6976C54.6905 49.6405 54.7372 49.5721 54.7691 49.4966C54.801 49.4211 54.8174 49.34 54.8174 49.2581C54.8174 49.1761 54.801 49.095 54.7691 49.0195C54.7372 48.944 54.6905 48.8757 54.6317 48.8185C54.573 48.7614 54.5033 48.7166 54.427 48.6869C54.3506 48.6571 54.2691 48.643 54.1871 48.6453H47.016C46.9341 48.643 46.8525 48.6571 46.7761 48.6869C46.6998 48.7166 46.6302 48.7614 46.5714 48.8185C46.5127 48.8757 46.4659 48.944 46.4341 49.0195C46.4022 49.095 46.3857 49.1761 46.3857 49.2581C46.3857 49.34 46.4022 49.4211 46.4341 49.4966C46.4659 49.5721 46.5127 49.6405 46.5714 49.6976C46.6302 49.7547 46.6998 49.7995 46.7761 49.8293C46.8525 49.859 46.9341 49.8732 47.016 49.8709ZM47.016 52.3975H54.1871C54.2691 52.3998 54.3506 52.3857 54.427 52.3559C54.5033 52.3262 54.573 52.2814 54.6317 52.2243C54.6905 52.1671 54.7372 52.0988 54.7691 52.0233C54.801 51.9478 54.8174 51.8667 54.8174 51.7847C54.8174 51.7028 54.801 51.6217 54.7691 51.5462C54.7372 51.4707 54.6905 51.4023 54.6317 51.3452C54.573 51.2881 54.5033 51.2433 54.427 51.2135C54.3506 51.1838 54.2691 51.1696 54.1871 51.1719H47.016C46.9341 51.1696 46.8525 51.1838 46.7761 51.2135C46.6998 51.2433 46.6302 51.2881 46.5714 51.3452C46.5127 51.4023 46.4659 51.4707 46.4341 51.5462C46.4022 51.6217 46.3857 51.7028 46.3857 51.7847C46.3857 51.8667 46.4022 51.9478 46.4341 52.0233C46.4659 52.0988 46.5127 52.1671 46.5714 52.2243C46.6302 52.2814 46.6998 52.3262 46.7761 52.3559C46.8525 52.3857 46.9341 52.3998 47.016 52.3975ZM44.6214 58.9242V66.644C44.6214 66.7245 44.6055 66.8042 44.5747 66.8786C44.5439 66.9529 44.4988 67.0205 44.4418 67.0773C44.3849 67.1342 44.3173 67.1793 44.2429 67.2101C44.1686 67.2409 44.0889 67.2567 44.0084 67.2566H41.0849C41.0045 67.2567 40.9248 67.2409 40.8504 67.2101C40.776 67.1793 40.7084 67.1342 40.6515 67.0773C40.5946 67.0205 40.5494 66.9529 40.5186 66.8786C40.4878 66.8042 40.4719 66.7245 40.4719 66.644V58.9242C40.4719 58.7616 40.5365 58.6057 40.6515 58.4907C40.7664 58.3757 40.9224 58.3112 41.0849 58.3112H44.0084C44.171 58.3112 44.3269 58.3757 44.4419 58.4907C44.5568 58.6057 44.6214 58.7616 44.6214 58.9242ZM43.3973 59.5367H41.6989V66.0286H43.3973V59.5367ZM45.953 66.644V59.9553C45.953 59.8748 45.9688 59.7951 45.9996 59.7207C46.0304 59.6463 46.0756 59.5787 46.1325 59.5218C46.1894 59.4649 46.257 59.4197 46.3314 59.3889C46.4058 59.3581 46.4855 59.3422 46.566 59.3422H49.4894C49.5699 59.3422 49.6496 59.3581 49.724 59.3889C49.7983 59.4197 49.8659 59.4649 49.9227 59.5218C49.9796 59.5788 50.0247 59.6463 50.0555 59.7207C50.0863 59.7951 50.102 59.8748 50.102 59.9553V66.644C50.102 66.8065 50.0374 66.9623 49.9226 67.0772C49.8077 67.1921 49.6519 67.2566 49.4894 67.2566H46.566C46.4855 67.2567 46.4058 67.2409 46.3314 67.2101C46.2571 67.1793 46.1895 67.1342 46.1325 67.0773C46.0756 67.0205 46.0305 66.9529 45.9996 66.8786C45.9688 66.8042 45.953 66.7245 45.953 66.644ZM47.1786 66.031H48.8764V60.5678H47.1786V66.031ZM41.3124 53.2414V54.0025C41.3168 54.162 41.3834 54.3135 41.4978 54.4248C41.6122 54.536 41.7655 54.5983 41.9251 54.5983C42.0848 54.5983 42.2381 54.536 42.3525 54.4248C42.4669 54.3135 42.5335 54.162 42.5379 54.0025V53.2414C43.6639 53.0333 44.4777 52.2611 44.4777 51.3137V50.6286C44.4777 49.0706 43.0034 48.8195 42.028 48.6535C40.8522 48.4537 40.5982 48.3148 40.5982 47.8866V47.2019C40.5982 46.8439 41.1657 46.4437 41.9249 46.4437C42.6841 46.4437 43.2521 46.8439 43.2521 47.2019V47.5726C43.2498 47.6545 43.264 47.736 43.2937 47.8124C43.3235 47.8888 43.3682 47.9584 43.4254 48.0171C43.4825 48.0759 43.5508 48.1226 43.6263 48.1545C43.7018 48.1864 43.783 48.2028 43.8649 48.2028C43.9469 48.2028 44.028 48.1864 44.1035 48.1545C44.179 48.1226 44.2473 48.0759 44.3044 48.0171C44.3616 47.9584 44.4063 47.8888 44.4361 47.8124C44.4659 47.736 44.48 47.6545 44.4777 47.5726V47.2019C44.4777 46.2541 43.6639 45.4818 42.5379 45.2738V44.5132C42.5402 44.4313 42.5261 44.3497 42.4963 44.2733C42.4666 44.197 42.4218 44.1274 42.3647 44.0686C42.3075 44.0098 42.2392 43.9631 42.1637 43.9312C42.0882 43.8994 42.0071 43.8829 41.9251 43.8829C41.8432 43.8829 41.7621 43.8994 41.6866 43.9312C41.6111 43.9631 41.5428 44.0098 41.4856 44.0686C41.4285 44.1274 41.3837 44.197 41.354 44.2733C41.3242 44.3497 41.31 44.4313 41.3124 44.5132V45.2738C40.1864 45.4818 39.3726 46.2541 39.3726 47.2019V47.8871C39.3726 49.4456 40.8469 49.6962 41.8223 49.8622C42.9981 50.0625 43.2521 50.2008 43.2521 50.6291V51.3147C43.2521 51.6722 42.6846 52.0729 41.9249 52.0729C41.1653 52.0729 40.5982 51.6722 40.5982 51.3147V50.9436C40.6005 50.8616 40.5863 50.7801 40.5566 50.7037C40.5268 50.6274 40.4821 50.5577 40.4249 50.499C40.3678 50.4402 40.2995 50.3935 40.224 50.3616C40.1485 50.3297 40.0673 50.3133 39.9854 50.3133C39.9034 50.3133 39.8223 50.3297 39.7468 50.3616C39.6713 50.3935 39.603 50.4402 39.5459 50.499C39.4887 50.5577 39.444 50.6274 39.4142 50.7037C39.3844 50.7801 39.3703 50.8616 39.3726 50.9436V51.3147C39.3726 52.2621 40.1864 53.0343 41.3124 53.2414ZM70.5413 81.7886C70.5418 82.0051 70.4992 82.2196 70.4162 82.4196C70.3331 82.6196 70.2112 82.8012 70.0574 82.9537L68.9954 84.0182C68.6862 84.3267 68.2673 84.5 67.8305 84.5C67.3937 84.5 66.9748 84.3267 66.6657 84.0182L63.7142 81.0667C63.6132 80.9655 63.5259 80.8517 63.4543 80.728H60.2304L31.6421 83.8062C31.6203 83.8086 31.5983 83.8097 31.5763 83.8096C31.4252 83.8095 31.2795 83.7537 31.1671 83.6528C31.0547 83.5519 30.9835 83.413 30.9671 83.2629L26.806 44.6419C26.7971 44.5617 26.8041 44.4806 26.8266 44.4031C26.849 44.3256 26.8866 44.2533 26.9371 44.1904C26.9876 44.1275 27.05 44.0751 27.1207 44.0363C27.1915 43.9976 27.2692 43.9732 27.3494 43.9645L34.5259 43.1903V40.113C34.5259 39.9506 34.5903 39.7948 34.7051 39.6799C34.8198 39.565 34.9755 39.5003 35.1379 39.5H58.7532C58.8337 39.4999 58.9134 39.5157 58.9877 39.5465C59.062 39.5773 59.1295 39.6225 59.1863 39.6795L66.5839 47.0766C66.641 47.1338 66.6862 47.2017 66.717 47.2765C66.7478 47.3512 66.7636 47.4313 66.7634 47.5121V77.4141C66.8899 77.4857 67.0062 77.5739 67.1093 77.6763L70.0608 80.6278C70.2134 80.7801 70.3344 80.961 70.4169 81.1602C70.4993 81.3594 70.5416 81.573 70.5413 81.7886ZM65.5378 77.2452V73.0841C65.4229 74.5304 64.8601 75.9049 63.9275 77.0163L64.6819 77.7726L64.7786 77.6758C64.988 77.4662 65.2504 77.3174 65.5378 77.2452ZM63.719 78.7369L63.8158 78.6401L63.0614 77.8853C61.9313 78.8337 60.5294 79.3992 59.0576 79.5004H63.2879C63.3592 79.2113 63.5083 78.9473 63.719 78.7369ZM54.4774 76.6046C55.2854 77.4127 56.3149 77.963 57.4357 78.186C58.5565 78.409 59.7182 78.2947 60.774 77.8574C61.8298 77.4201 62.7322 76.6796 63.367 75.7294C64.0019 74.7793 64.3408 73.6622 64.3408 72.5194C64.3408 71.3767 64.0019 70.2596 63.367 69.3095C62.7322 68.3593 61.8298 67.6188 60.774 67.1815C59.7182 66.7442 58.5565 66.6299 57.4357 66.8528C56.3149 67.0758 55.2854 67.6262 54.4774 68.4343C53.9387 68.9694 53.511 69.6059 53.2192 70.307C52.9274 71.0081 52.7772 71.76 52.7772 72.5194C52.7772 73.2788 52.9274 74.0308 53.2192 74.7319C53.511 75.433 53.9387 76.0694 54.4774 76.6046ZM54.3579 56.924H52.6596V66.0286H54.3575L54.3579 56.924ZM59.838 52.6607H58.1402V65.5312C58.7083 65.4971 59.2783 65.5319 59.838 65.6347V52.6607ZM59.3643 46.8971H64.6707L59.3643 41.5922V46.8971ZM35.7524 79.4995H58.0671C56.9848 79.4251 55.9348 79.0994 55.0003 78.5484C54.0659 77.9973 53.2727 77.236 52.6838 76.3249H39.5821C39.5002 76.3272 39.4186 76.3131 39.3423 76.2833C39.2659 76.2536 39.1963 76.2088 39.1375 76.1517C39.0788 76.0945 39.0321 76.0262 39.0002 75.9507C38.9683 75.8752 38.9518 75.7941 38.9518 75.7121C38.9518 75.6302 38.9683 75.549 39.0002 75.4736C39.0321 75.3981 39.0788 75.3297 39.1375 75.2726C39.1963 75.2155 39.2659 75.1707 39.3423 75.1409C39.4186 75.1112 39.5002 75.097 39.5821 75.0993H52.0529C51.8617 74.6141 51.725 74.109 51.6455 73.5936H39.5821C39.5002 73.5959 39.4186 73.5817 39.3423 73.552C39.2659 73.5222 39.1963 73.4775 39.1375 73.4203C39.0788 73.3632 39.0321 73.2949 39.0002 73.2194C38.9683 73.1439 38.9518 73.0627 38.9518 72.9808C38.9518 72.8988 38.9683 72.8177 39.0002 72.7422C39.0321 72.6667 39.0788 72.5984 39.1375 72.5413C39.1963 72.4841 39.2659 72.4394 39.3423 72.4096C39.4186 72.3798 39.5002 72.3657 39.5821 72.368H51.5656C51.5757 71.8606 51.6406 71.3557 51.7592 70.8622H39.5821C39.5002 70.8646 39.4186 70.8504 39.3423 70.8206C39.2659 70.7909 39.1963 70.7461 39.1375 70.689C39.0788 70.6319 39.0321 70.5635 39.0002 70.488C38.9683 70.4125 38.9518 70.3314 38.9518 70.2494C38.9518 70.1675 38.9683 70.0864 39.0002 70.0109C39.0321 69.9354 39.0788 69.8671 39.1375 69.8099C39.1963 69.7528 39.2659 69.708 39.3423 69.6783C39.4186 69.6485 39.5002 69.6344 39.5821 69.6367H52.0529C52.094 69.6367 52.135 69.6408 52.1753 69.6488C52.5227 68.8736 53.0089 68.1685 53.6099 67.5682C53.7193 67.4588 53.832 67.3558 53.9486 67.2551H52.0466C51.8843 67.2551 51.7287 67.1908 51.6138 67.0763C51.4989 66.9617 51.4341 66.8063 51.4335 66.644V56.3109C51.4337 56.1484 51.4983 55.9926 51.6133 55.8777C51.7282 55.7629 51.8841 55.6984 52.0466 55.6984H54.97C55.0505 55.6983 55.1302 55.7141 55.2046 55.7449C55.2789 55.7756 55.3465 55.8207 55.4035 55.8776C55.4604 55.9345 55.5056 56.002 55.5364 56.0764C55.5672 56.1507 55.583 56.2304 55.583 56.3109V66.1815C56.01 65.9812 56.4561 65.8247 56.9146 65.7146V52.0487C56.9145 51.8864 56.9788 51.7307 57.0933 51.6157C57.2079 51.5008 57.3634 51.436 57.5257 51.4356H60.4496C60.5301 51.4356 60.6098 51.4515 60.6841 51.4823C60.7585 51.5131 60.826 51.5583 60.8829 51.6152C60.9398 51.6721 60.9849 51.7397 61.0157 51.8141C61.0464 51.8885 61.0622 51.9682 61.0622 52.0487V65.9802C62.2964 66.4507 63.372 67.2616 64.1639 68.3188C64.9558 69.376 65.4317 70.6361 65.5363 71.9528V48.1227H58.7532C58.6728 48.1228 58.5931 48.107 58.5187 48.0762C58.4443 48.0455 58.3767 48.0004 58.3198 47.9435C58.2629 47.8866 58.2177 47.819 58.1869 47.7447C58.1561 47.6703 58.1402 47.5906 58.1402 47.5102V40.7256H35.7524V79.4995ZM48.7922 80.7241H35.1379C35.0574 80.7242 34.9777 80.7084 34.9034 80.6776C34.829 80.6469 34.7614 80.6017 34.7045 80.5449C34.6475 80.488 34.6024 80.4204 34.5716 80.3461C34.5408 80.2717 34.5249 80.192 34.5249 80.1115V44.4266L28.0897 45.1199L32.1206 82.5216L48.7922 80.7241ZM64.5841 80.1986L65.4386 81.0531L67.0968 79.3945L66.2428 78.5405C66.1636 78.4615 66.0563 78.4171 65.9445 78.4171C65.8326 78.4171 65.7254 78.4615 65.6462 78.5405L64.5841 79.6049C64.5056 79.684 64.4616 79.7909 64.4616 79.9023C64.4616 80.0137 64.5056 80.1206 64.5841 80.1996V80.1986ZM69.3152 81.7886C69.3154 81.7333 69.3047 81.6785 69.2837 81.6273C69.2627 81.5762 69.2318 81.5297 69.1928 81.4905L67.9638 80.2615L66.3052 81.9202L67.5342 83.1492C67.6135 83.2279 67.7207 83.2721 67.8325 83.2721C67.9442 83.2721 68.0514 83.2279 68.1308 83.1492L69.1923 82.0871C69.2315 82.0479 69.2626 82.0014 69.2837 81.9501C69.3048 81.8989 69.3155 81.844 69.3152 81.7886ZM55.4079 75.6732C54.6784 74.9436 54.2244 73.9836 54.1233 72.9569C54.0223 71.9301 54.2803 70.9001 54.8535 70.0422C55.4267 69.1844 56.2796 68.5518 57.2669 68.2523C58.2542 67.9528 59.3148 68.0049 60.268 68.3997C61.2212 68.7945 62.0081 69.5076 62.4945 70.4174C62.9809 71.3273 63.1368 72.3777 62.9356 73.3896C62.7344 74.4015 62.1886 75.3124 61.3911 75.967C60.5936 76.6216 59.5938 76.9794 58.5621 76.9796C57.9761 76.9813 57.3955 76.8667 56.8541 76.6425C56.3127 76.4182 55.8211 76.0888 55.4079 75.6732ZM55.3305 72.368H57.3573C57.4393 72.3657 57.5208 72.3798 57.5972 72.4096C57.6735 72.4394 57.7431 72.4841 57.8019 72.5413C57.8607 72.5984 57.9074 72.6667 57.9393 72.7422C57.9712 72.8177 57.9876 72.8988 57.9876 72.9808C57.9876 73.0627 57.9712 73.1439 57.9393 73.2194C57.9074 73.2949 57.8607 73.3632 57.8019 73.4203C57.7431 73.4775 57.6735 73.5222 57.5972 73.552C57.5208 73.5817 57.4393 73.5959 57.3573 73.5936H55.509C55.7212 74.1923 56.104 74.7157 56.6103 75.0993H60.5135C60.9477 74.7709 61.2921 74.3381 61.5146 73.8412C61.737 73.3443 61.8305 72.7992 61.7863 72.2566C61.7421 71.7139 61.5616 71.1911 61.2617 70.7368C60.9617 70.2824 60.5518 69.9111 60.0702 69.6573C59.5885 69.4034 59.0505 69.2753 58.5061 69.2847C57.9617 69.2941 57.4285 69.4407 56.9559 69.711C56.4833 69.9813 56.0865 70.3666 55.8024 70.831C55.5182 71.2955 55.3559 71.8241 55.3305 72.368Z" fill="white"/>
</g>
</svg>
