<svg width="114" height="104" viewBox="0 0 114 104" fill="none" xmlns="http://www.w3.org/2000/svg">
<path d="M99.9391 78.5265C92.7407 84.3123 51.8119 103.581 40.8095 103.581C-31.1744 99.9651 9.18797 8.01157 32.8398 1.03757C56.4917 -5.93643 52.1493 24.3876 68.6028 28.262C81.7656 31.3616 94.626 34.1856 98.6537 35.9076C127.131 49.3706 108.937 71.2942 99.9391 78.5265Z" fill="#CA256D"/>
<path d="M68.2438 57.2429H65.4887V55.2498C66.6682 54.9249 67.5359 53.8611 67.5359 52.6017C67.5359 51.0847 66.2777 49.8512 64.7314 49.8512C63.1851 49.8512 61.9246 51.0853 61.9246 52.6017C61.9246 53.8617 62.7935 54.9249 63.9746 55.2498V57.2429H58.9021V49.991L62.7325 47.7799C63.2357 48.2503 63.9166 48.5401 64.6647 48.5401C66.2127 48.5401 67.4715 47.3061 67.4715 45.7897C67.4715 44.2733 66.2122 43.0392 64.6647 43.0392C63.1172 43.0392 61.8602 44.2733 61.8602 45.7897C61.8602 46.0289 61.8918 46.2612 61.9505 46.4832L57.7664 48.8984C57.5323 49.0335 57.3874 49.2837 57.3874 49.554V57.2429H51.8635C51.4454 57.2429 51.1062 57.5822 51.1062 58.0003C51.1062 60.814 48.8157 63.1027 46.0009 63.1027C43.186 63.1027 40.8984 60.8134 40.8984 58.0003C40.8984 57.5822 40.5592 57.2429 40.1411 57.2429H34.6143V49.554C34.6143 49.2837 34.47 49.0335 34.2353 48.8984L30.0513 46.4832C30.1099 46.2618 30.1415 46.0295 30.1415 45.7897C30.1415 44.2727 28.8833 43.0392 27.337 43.0392C25.7907 43.0392 24.5302 44.2733 24.5302 45.7897C24.5302 47.3061 25.7896 48.5401 27.337 48.5401C28.0857 48.5401 28.766 48.2503 29.2692 47.7799L33.0996 49.991V57.2429H28.03V55.2498C29.2094 54.9249 30.0771 53.8611 30.0771 52.6017C30.0771 51.0847 28.8189 49.8512 27.2726 49.8512C25.7263 49.8512 24.4652 51.0853 24.4652 52.6017C24.4652 53.8617 25.3341 54.9249 26.5153 55.2498V57.2429H23.7573C23.3393 57.2429 23 57.5822 23 58.0003V60.8606C23 61.1562 23.1719 61.4241 23.4399 61.5483L27.6303 63.4822L29.1341 67.1125L27.5383 71.4438C27.4359 71.721 27.5044 72.0321 27.7131 72.2408L31.7592 76.2869C31.9679 76.4956 32.2796 76.5641 32.5562 76.4617L36.888 74.8659L40.5183 76.3697L42.4522 80.5601C42.5759 80.8281 42.8444 81 43.14 81H48.86C49.1556 81 49.4236 80.8281 49.5478 80.5601L51.4817 76.3697L55.112 74.8659L59.4461 76.4617C59.7233 76.5635 60.0344 76.4956 60.2437 76.2863L64.2869 72.2403C64.4956 72.0315 64.5641 71.7204 64.4617 71.4432L62.8659 67.112L64.3697 63.4817L68.5601 61.5478C68.8281 61.4241 69 61.1556 69 60.86V57.9997C69 57.5817 68.6607 57.2424 68.2427 57.2424L68.2438 57.2429ZM63.4393 52.6017C63.4393 51.9197 64.0189 51.3654 64.732 51.3654C65.445 51.3654 66.0218 51.9197 66.0218 52.6017C66.0218 53.2837 65.4433 53.8381 64.732 53.8381C64.0206 53.8381 63.4393 53.2837 63.4393 52.6017ZM64.6647 44.5533C65.3772 44.5533 65.9574 45.1077 65.9574 45.7897C65.9574 46.4717 65.3778 47.026 64.6647 47.026C63.9516 47.026 63.3749 46.4717 63.3749 45.7897C63.3749 45.1077 63.9534 44.5533 64.6647 44.5533ZM27.3382 47.026C26.6257 47.026 26.0455 46.4717 26.0455 45.7897C26.0455 45.1077 26.6251 44.5533 27.3382 44.5533C28.0512 44.5533 28.628 45.1077 28.628 45.7897C28.628 46.4717 28.0495 47.026 27.3382 47.026ZM25.9811 52.6017C25.9811 51.9197 26.5607 51.3654 27.2738 51.3654C27.9868 51.3654 28.5636 51.9197 28.5636 52.6017C28.5636 53.2837 27.9851 53.8381 27.2738 53.8381C26.5624 53.8381 25.9811 53.2837 25.9811 52.6017ZM46.0014 64.6168C49.3954 64.6168 52.2011 62.0504 52.5783 58.7571H57.365C56.974 64.6835 52.0274 69.3863 46.002 69.3863C39.9766 69.3863 35.0324 64.6841 34.6413 58.7571H39.428C39.8047 62.0504 42.6086 64.6168 46.0014 64.6168ZM67.487 60.3752L63.4674 62.2304C63.2943 62.3103 63.1581 62.4523 63.085 62.6283L61.3547 66.806C61.2817 66.982 61.2776 67.1787 61.3438 67.3575L62.8746 71.5128L59.5163 74.8734L55.3587 73.3426C55.1798 73.2771 54.9832 73.2805 54.8072 73.3536L50.6294 75.0839C50.4535 75.1569 50.3114 75.2932 50.2315 75.4663L48.3764 79.4859H43.6253L41.7702 75.4663C41.6903 75.2932 41.5482 75.1569 41.3723 75.0839L37.1945 73.3536C37.0186 73.2805 36.8219 73.2765 36.6431 73.3426L32.4883 74.8734L29.1277 71.5122L30.6585 67.3575C30.7241 67.1787 30.7206 66.982 30.6476 66.806L28.9173 62.6283C28.8442 62.4523 28.7079 62.3103 28.5349 62.2304L24.5153 60.3752V58.7571H33.1226C33.5159 65.5196 39.1411 70.9004 46.0003 70.9004C52.8595 70.9004 58.4875 65.5191 58.8808 58.7571H67.4859V60.3752H67.487ZM39.9824 42.7471C39.8564 42.4849 39.8921 42.1732 40.0738 41.946L45.4103 35.2841C45.554 35.1047 45.7714 35.0006 46.0014 35C46.2315 34.9994 46.4488 35.1041 46.5926 35.2835L51.9319 41.9455C52.1142 42.1726 52.1499 42.4843 52.0239 42.7465C51.898 43.0087 51.6323 43.1761 51.3414 43.1761H49.5121V55.1285C49.5121 55.5466 49.1728 55.8858 48.7548 55.8858C48.3367 55.8858 47.9974 55.5466 47.9974 55.1285V42.4187C47.9974 42.0007 48.3367 41.6614 48.7548 41.6614H49.764L46.002 36.9672L42.2418 41.6614H43.2515C43.6696 41.6614 44.0089 42.0007 44.0089 42.4187V55.1285C44.0089 55.5466 43.6696 55.8858 43.2515 55.8858C42.8335 55.8858 42.4942 55.5466 42.4942 55.1285V43.1761H40.665C40.374 43.1761 40.1083 43.0099 39.9824 42.7471ZM37.796 55.1291V48.263C37.796 47.8449 38.1353 47.5056 38.5534 47.5056C38.9714 47.5056 39.3107 47.8449 39.3107 48.263V55.1291C39.3107 55.5471 38.9714 55.8864 38.5534 55.8864C38.1353 55.8864 37.796 55.5471 37.796 55.1291ZM52.6921 55.1291V48.263C52.6921 47.8449 53.0314 47.5056 53.4495 47.5056C53.8675 47.5056 54.2068 47.8449 54.2068 48.263V55.1291C54.2068 55.5471 53.8675 55.8864 53.4495 55.8864C53.0314 55.8864 52.6921 55.5471 52.6921 55.1291Z" fill="white"/>
</svg>
