<svg width="60" height="60" viewBox="0 0 60 60" fill="none" xmlns="http://www.w3.org/2000/svg">
<path d="M15.81 19.3468C14.7467 19.3472 13.7073 19.6623 12.8234 20.2522C11.9395 20.8422 11.2507 21.6805 10.8441 22.6611C10.4374 23.6417 10.3313 24.7207 10.539 25.7615C10.7467 26.8024 11.2589 27.7584 12.011 28.5087C12.763 29.259 13.7211 29.7699 14.764 29.9767C15.8069 30.1836 16.8879 30.0772 17.8703 29.671C18.8526 29.2648 19.6922 28.5769 20.2829 27.6945C20.8736 26.812 21.1889 25.7745 21.1889 24.7132C21.1889 24.0083 21.0498 23.3103 20.7794 22.6591C20.5091 22.0079 20.1128 21.4162 19.6133 20.9178C19.1138 20.4195 18.5208 20.0242 17.8683 19.7547C17.2157 19.4851 16.5163 19.3465 15.81 19.3468ZM15.81 27.6956C15.2191 27.6951 14.6416 27.5199 14.1505 27.1919C13.6594 26.8639 13.2768 26.398 13.0509 25.853C12.8251 25.308 12.7662 24.7085 12.8818 24.1301C12.9973 23.5517 13.2821 23.0205 13.7001 22.6036C14.118 22.1868 14.6504 21.903 15.23 21.7881C15.8096 21.6732 16.4103 21.7323 16.9561 21.9581C17.502 22.1839 17.9686 22.5662 18.2968 23.0566C18.625 23.547 18.8002 24.1235 18.8002 24.7132C18.7996 25.5044 18.4843 26.263 17.9236 26.8222C17.3629 27.3814 16.6027 27.6956 15.81 27.6956Z" fill="#143274"/>
<path d="M19.5125 30.6606H11.81C10.9159 30.66 10.0304 30.8353 9.20425 31.1764C8.37805 31.5175 7.62729 32.0177 6.99486 32.6485C6.36244 33.2793 5.86075 34.0283 5.51846 34.8527C5.17618 35.6771 5 36.5608 5 37.4532V38.7276C5 39.2024 5.18898 39.6578 5.52536 39.9935C5.86175 40.3292 6.31799 40.5179 6.7937 40.5179H24.5201C24.7555 40.5179 24.9887 40.4715 25.2062 40.3815C25.4237 40.2915 25.6213 40.1596 25.7877 39.9934C25.954 39.8271 26.086 39.6297 26.1759 39.4125C26.2658 39.1953 26.3119 38.9626 26.3116 38.7276V37.4532C26.3116 35.6528 25.5955 33.926 24.3206 32.6524C23.0457 31.3787 21.3163 30.6623 19.5125 30.6606ZM24.3616 38.5672H6.9544V37.4532C6.95555 36.1693 7.46703 34.9384 8.37656 34.0307C9.2861 33.1229 10.5194 32.6124 11.8056 32.6112H19.5081C20.794 32.6129 22.0268 33.1237 22.9358 34.0314C23.8449 34.9392 24.3561 36.1697 24.3572 37.4532L24.3616 38.5672Z" fill="#143274"/>
<path d="M44.4918 19C43.4285 19.0004 42.3892 19.3155 41.5053 19.9055C40.6214 20.4954 39.9325 21.3337 39.5259 22.3143C39.1193 23.2949 39.0131 24.3739 39.2208 25.4147C39.4285 26.4556 39.9408 27.4116 40.6928 28.1619C41.4449 28.9122 42.4029 29.4231 43.4459 29.63C44.4888 29.8369 45.5698 29.7304 46.5521 29.3242C47.5345 28.918 48.3741 28.2301 48.9648 27.3477C49.5555 26.4652 49.8708 25.4278 49.8708 24.3665C49.8708 23.6615 49.7316 22.9635 49.4613 22.3123C49.191 21.6611 48.7947 21.0694 48.2952 20.571C47.7957 20.0727 47.2027 19.6774 46.5501 19.4079C45.8975 19.1383 45.1981 18.9997 44.4918 19ZM44.4918 27.3488C43.901 27.3484 43.3235 27.1731 42.8324 26.8451C42.3413 26.5172 41.9586 26.0512 41.7328 25.5062C41.507 24.9613 41.4481 24.3617 41.5636 23.7833C41.6792 23.2049 41.9639 22.6737 42.3819 22.2569C42.7999 21.84 43.3323 21.5562 43.9119 21.4413C44.4914 21.3264 45.0921 21.3856 45.638 21.6114C46.1839 21.8371 46.6504 22.2194 46.9786 22.7098C47.3069 23.2002 47.4821 23.7767 47.4821 24.3665C47.4815 25.1576 47.1662 25.9162 46.6055 26.4754C46.0448 27.0346 45.2845 27.3488 44.4918 27.3488Z" fill="#143274"/>
<path d="M48.1944 30.3138H40.4919C38.6876 30.3138 36.9573 31.0288 35.6811 32.3018C34.4049 33.5747 33.6874 35.3013 33.6862 37.102V38.3765C33.6862 38.8513 33.8752 39.3066 34.2116 39.6424C34.548 39.9781 35.0042 40.1667 35.4799 40.1667H53.2085C53.4439 40.1667 53.6771 40.1204 53.8946 40.0304C54.1121 39.9404 54.3097 39.8085 54.476 39.6422C54.6424 39.476 54.7743 39.2786 54.8643 39.0614C54.9542 38.8442 55.0003 38.6115 55 38.3765V37.102C54.9988 35.3013 54.2813 33.5747 53.0051 32.3018C51.729 31.0288 49.9986 30.3138 48.1944 30.3138ZM53.0434 38.2204H35.6406V37.102C35.6418 35.8182 36.1532 34.5873 37.0628 33.6795C37.9723 32.7717 39.2056 32.2612 40.4919 32.2601H48.1944C49.4803 32.2618 50.713 32.7726 51.622 33.6803C52.5311 34.588 53.0423 35.8186 53.0434 37.102V38.2204Z" fill="#143274"/>
<path d="M34.0619 23.8029V26.9782L29.9012 30.6281L25.9685 27.1797V24.0067L29.899 27.455L34.0619 23.8029Z" fill="#143274"/>
</svg>
