<svg width="60" height="60" viewBox="0 0 60 60" fill="none" xmlns="http://www.w3.org/2000/svg">
<path d="M9.22772 28.7941L9.44583 28.8658C9.44583 28.791 9.44583 28.7193 9.44583 28.6445L9.22772 28.7941ZM9.22772 28.7941L9.44583 28.8658C9.44583 28.791 9.44583 28.7193 9.44583 28.6445L9.22772 28.7941ZM8.19946 28.6477C8.19946 28.7193 8.19946 28.791 8.19946 28.8658L8.41446 28.7941L8.19946 28.6477Z" fill="#143274"/>
<path d="M32.7435 9.61114C32.4412 9.30611 32.0919 9.0515 31.709 8.85701C31.7495 8.81027 31.79 8.76352 31.8274 8.71366C32.094 8.36395 32.26 7.948 32.3073 7.51079C32.3172 7.42179 32.3224 7.33233 32.3229 7.24279C32.3346 6.91564 32.2802 6.5895 32.1631 6.28381C32.046 5.97812 31.8685 5.69917 31.6413 5.46359C31.414 5.22802 31.1416 5.04065 30.8403 4.91267C30.5391 4.7847 30.2151 4.71875 29.8878 4.71875C29.5604 4.71875 29.2365 4.7847 28.9352 4.91267C28.6339 5.04065 28.3615 5.22802 28.1343 5.46359C27.907 5.69917 27.7295 5.97812 27.6124 6.28381C27.4953 6.5895 27.441 6.91564 27.4527 7.24279C27.4531 7.33233 27.4583 7.42179 27.4683 7.51079C27.5182 7.94788 27.685 8.36343 27.9512 8.71366C27.987 8.76354 28.0255 8.8114 28.0665 8.85701C27.3966 9.19461 26.8336 9.71163 26.4402 10.3504C26.0469 10.9892 25.8386 11.7247 25.8386 12.475V12.8988H33.94V12.475C33.94 11.9422 33.8342 11.4147 33.6288 10.9231C33.4234 10.4315 33.1225 9.98558 32.7435 9.61114ZM26.5335 12.1914C26.5858 11.5363 26.8297 10.9111 27.2347 10.3935C27.6397 9.87599 28.1879 9.48903 28.8112 9.28082L29.4718 9.05956L28.9047 8.67938L28.8642 8.64822C28.6697 8.50693 28.5067 8.32678 28.3855 8.11918C28.2642 7.91158 28.1875 7.68106 28.16 7.44223C28.1552 7.37583 28.1552 7.30918 28.16 7.24279C28.15 7.00804 28.1877 6.7737 28.2707 6.55388C28.3537 6.33406 28.4802 6.1333 28.6428 5.96368C28.8054 5.79406 29.0006 5.65909 29.2167 5.56688C29.4328 5.47468 29.6653 5.42714 29.9002 5.42714C30.1352 5.42714 30.3677 5.47468 30.5838 5.56688C30.7999 5.65909 30.9951 5.79406 31.1576 5.96368C31.3202 6.1333 31.4468 6.33406 31.5298 6.55388C31.6128 6.7737 31.6504 7.00804 31.6405 7.24279C31.6452 7.30918 31.6452 7.37583 31.6405 7.44223C31.613 7.68106 31.5362 7.91158 31.415 8.11918C31.2938 8.32678 31.1308 8.50693 30.9363 8.64822L30.8958 8.67938L30.285 9.07515L30.9487 9.2964C31.5712 9.50547 32.1186 9.89275 32.523 10.4102C32.9273 10.9276 33.1709 11.5524 33.2234 12.207L26.5335 12.1914Z" fill="#143274"/>
<path d="M32.7435 50.8754C32.6464 50.7737 32.5422 50.679 32.4319 50.5918C32.211 50.4076 31.9695 50.2497 31.7121 50.1213C31.9989 49.7982 32.1947 49.4047 32.2794 48.981C32.3641 48.5574 32.3346 48.1189 32.1941 47.7103C32.0535 47.3018 31.8069 46.938 31.4794 46.6562C31.152 46.3744 30.7556 46.1847 30.3307 46.1066C29.9059 46.0285 29.4679 46.0647 29.0616 46.2116C28.6554 46.3584 28.2955 46.6107 28.0188 46.9425C27.7421 47.2742 27.5586 47.6736 27.487 48.0997C27.4155 48.5257 27.4585 48.9632 27.6116 49.3671C27.7173 49.6435 27.8713 49.8989 28.0665 50.1213C27.8069 50.2508 27.5624 50.4086 27.3374 50.5918C26.8691 50.9718 26.4915 51.4515 26.2322 51.996C25.9729 52.5406 25.8384 53.1361 25.8386 53.7392V54.1662H33.94V53.7392C33.9396 53.2065 33.8337 52.6791 33.6283 52.1876C33.4229 51.696 33.1222 51.25 32.7435 50.8754ZM26.5335 53.4712C26.5802 52.8778 26.7844 52.3075 27.1251 51.8194C27.4658 51.3313 27.9306 50.943 28.4716 50.6946C28.5819 50.642 28.6953 50.5962 28.8112 50.5575L29.4718 50.3394L28.9047 49.9436C28.7107 49.8127 28.5471 49.6416 28.4248 49.4419C28.2428 49.1642 28.1464 48.8391 28.1475 48.507C28.1376 48.2723 28.1752 48.0379 28.2582 47.8181C28.3412 47.5983 28.4678 47.3976 28.6304 47.2279C28.7929 47.0583 28.9881 46.9233 29.2042 46.8311C29.4203 46.7389 29.6528 46.6914 29.8878 46.6914C30.1227 46.6914 30.3552 46.7389 30.5713 46.8311C30.7874 46.9233 30.9826 47.0583 31.1452 47.2279C31.3078 47.3976 31.4343 47.5983 31.5173 47.8181C31.6003 48.0379 31.6379 48.2723 31.628 48.507C31.6291 48.8391 31.5327 49.1642 31.3507 49.4419C31.2285 49.6416 31.0648 49.8127 30.8708 49.9436L30.2944 50.3394L30.9581 50.5575C31.0751 50.5959 31.1896 50.6417 31.3008 50.6946C31.8402 50.9444 32.3034 51.3332 32.6429 51.8212C32.9824 52.3091 33.186 52.8786 33.2327 53.4712H26.5335Z" fill="#143274"/>
<path d="M53.3211 29.3326C53.0153 29.0275 52.663 28.7729 52.2773 28.5785C52.5891 28.2278 52.7929 27.7943 52.8641 27.3304C52.9353 26.8665 52.8709 26.3919 52.6786 25.9638C52.4863 25.5357 52.1743 25.1723 51.7803 24.9175C51.3862 24.6626 50.9268 24.5271 50.4576 24.5273C50.247 24.5273 50.0374 24.5556 49.8344 24.6115C49.4335 24.7183 49.0667 24.926 48.7688 25.2148C48.4709 25.5035 48.2519 25.8637 48.1326 26.261C48.0133 26.6584 47.9976 27.0797 48.0872 27.4848C48.1767 27.8899 48.3684 28.2653 48.6441 28.5754C47.9736 28.9125 47.41 29.4294 47.016 30.0682C46.6221 30.707 46.4133 31.4428 46.4131 32.1933V32.6203H54.5145V32.1933C54.5116 31.1192 54.0824 30.0903 53.3211 29.3326ZM47.1111 31.9284C47.1624 31.2735 47.4055 30.6481 47.81 30.1305C48.2145 29.6129 48.7626 29.2259 49.3857 29.0179L50.0494 28.7966L49.4698 28.3977C49.1945 28.213 48.9777 27.9533 48.8451 27.6494C48.7124 27.3455 48.6694 27.01 48.7212 26.6824C48.7729 26.3549 48.9172 26.0489 49.1371 25.8007C49.357 25.5525 49.6432 25.3724 49.9621 25.2815C50.3907 25.1541 50.8519 25.1977 51.249 25.403C51.5067 25.535 51.7273 25.7293 51.8907 25.9684C52.0541 26.2074 52.1551 26.4835 52.1846 26.7716C52.214 27.0597 52.1709 27.3505 52.0592 27.6177C51.9475 27.8848 51.7707 28.1198 51.545 28.3011C51.5108 28.3318 51.4743 28.3599 51.436 28.3853L50.8595 28.781L51.5232 29.0023H51.5575C52.1717 29.216 52.7106 29.6038 53.1083 30.1183C53.5061 30.6329 53.7457 31.2521 53.7978 31.9004L47.1111 31.9284Z" fill="#143274"/>
<path d="M50.4545 21.1388C50.3237 21.1388 50.1959 21.1388 50.0682 21.1388C48.94 18.2795 47.2204 15.6909 45.022 13.5427C42.8236 11.3946 40.196 9.73534 37.3116 8.6738C37.2717 6.72858 36.4711 4.87647 35.0815 3.51486C33.6919 2.15325 31.8239 1.39062 29.8785 1.39062C27.9331 1.39062 26.0652 2.15325 24.6756 3.51486C23.2859 4.87647 22.4853 6.72858 22.4455 8.6738C19.5533 9.73598 16.9192 11.3995 14.717 13.5546C12.5149 15.7097 10.7948 18.3074 9.67019 21.1762C9.38584 21.1422 9.09968 21.1256 8.81331 21.1263C6.86748 21.1662 5.01478 21.9672 3.65273 23.3576C2.29069 24.7479 1.52783 26.6168 1.52783 28.5633C1.52783 30.5097 2.29069 32.3786 3.65273 33.769C5.01478 35.1593 6.86748 35.9604 8.81331 36.0002C8.98365 36.0002 9.15503 35.994 9.32745 35.9815C10.3757 39.061 12.0999 41.8667 14.3735 44.193C16.6472 46.5192 19.4128 48.307 22.4673 49.425C22.4455 49.6494 22.4361 49.8769 22.4361 50.1044C22.476 52.0504 23.2769 53.9033 24.6671 55.2655C26.0574 56.6277 27.9261 57.3906 29.8723 57.3906C31.8185 57.3906 33.6872 56.6277 35.0775 55.2655C36.4677 53.9033 37.2686 52.0504 37.3084 50.1044C37.3084 49.8769 37.3084 49.6494 37.2773 49.425C40.3263 48.3086 43.0873 46.525 45.3585 44.2044C47.6297 41.8839 49.3538 39.0851 50.4047 36.0127H50.4421C51.4314 36.0329 52.4148 35.8555 53.3348 35.4909C54.2547 35.1263 55.0926 34.5817 55.7995 33.8891C56.5063 33.1965 57.0678 32.3698 57.4512 31.4575C57.8345 30.5451 58.032 29.5654 58.032 28.5757C58.032 27.5861 57.8345 26.6064 57.4512 25.694C57.0678 24.7817 56.5063 23.955 55.7995 23.2624C55.0926 22.5698 54.2547 22.0252 53.3348 21.6606C52.4148 21.2959 51.4314 21.1186 50.4421 21.1388H50.4545ZM23.3865 8.36217C23.5058 6.7217 24.2415 5.18719 25.4459 4.0671C26.6502 2.94701 28.2339 2.32439 29.8785 2.32439C31.5232 2.32439 33.1068 2.94701 34.3112 4.0671C35.5155 5.18719 36.2513 6.7217 36.3705 8.36217C36.3861 8.52422 36.3924 8.6738 36.3924 8.84831C36.3937 9.12032 36.3759 9.3921 36.3394 9.66165C36.1405 11.235 35.3745 12.6818 34.185 13.7305C32.9955 14.7792 31.4642 15.3578 29.8785 15.3578C28.2928 15.3578 26.7616 14.7792 25.5721 13.7305C24.3826 12.6818 23.6165 11.235 23.4177 9.66165C23.3827 9.39194 23.365 9.12027 23.3647 8.84831C23.3647 8.69249 23.3709 8.53045 23.3865 8.3684V8.36217ZM9.05324 35.0778C8.97535 35.0778 8.90056 35.0778 8.82266 35.0778C7.11975 35.0406 5.49914 34.3378 4.30795 33.1202C3.11677 31.9025 2.44974 30.2668 2.44974 28.5633C2.44974 26.8598 3.11677 25.224 4.30795 24.0064C5.49914 22.7887 7.11975 22.086 8.82266 22.0488C8.99851 22.0477 9.17429 22.056 9.34925 22.0737C9.77128 22.1038 10.189 22.178 10.5956 22.2949C11.986 22.6871 13.2065 23.5305 14.0651 24.6923C14.9237 25.8542 15.3717 27.2686 15.3385 28.713C15.3053 30.1574 14.7929 31.5497 13.8818 32.6709C12.9707 33.7921 11.7128 34.5785 10.3058 34.9064C9.89454 35.0089 9.47372 35.0684 9.05013 35.084L9.05324 35.0778ZM29.8832 56.6267C28.1557 56.625 26.4995 55.938 25.2779 54.7164C24.0564 53.4947 23.3695 51.8383 23.3678 50.1106C23.3678 49.986 23.3678 49.8582 23.3678 49.7367C23.3891 49.3156 23.4538 48.8979 23.561 48.4902C23.9201 47.0897 24.7348 45.8486 25.877 44.9623C27.0191 44.076 28.4236 43.5949 29.8692 43.5949C31.3148 43.5949 32.7193 44.076 33.8614 44.9623C35.0035 45.8486 35.8183 47.0897 36.1774 48.4902C36.2846 48.8979 36.3493 49.3156 36.3705 49.7367C36.3705 49.8582 36.3705 49.986 36.3705 50.1106C36.3706 51.835 35.6878 53.4893 34.4714 54.7116C33.2551 55.9339 31.6043 56.6247 29.8801 56.6329L29.8832 56.6267ZM37.0498 48.1816C36.6258 46.6012 35.6924 45.2047 34.3941 44.2088C33.0959 43.2128 31.5054 42.673 29.8692 42.673C28.233 42.673 26.6425 43.2128 25.3442 44.2088C24.046 45.2047 23.1125 46.6012 22.6885 48.1816C19.889 47.1246 17.3543 45.4682 15.2622 43.3284C13.17 41.1887 11.5709 38.6174 10.5769 35.7945C12.1667 35.4068 13.5842 34.5054 14.6096 33.2299C15.635 31.9545 16.211 30.3764 16.2483 28.7402C16.2856 27.1041 15.7821 25.5013 14.8158 24.1805C13.8496 22.8597 12.4746 21.8946 10.9041 21.4349C11.9556 18.8337 13.5287 16.4756 15.5266 14.5059C17.5244 12.5362 19.9046 10.9968 22.5203 9.98262C22.7936 11.7356 23.6844 13.3332 25.032 14.4871C26.3796 15.6409 28.0952 16.2751 29.8692 16.2751C31.6432 16.2751 33.3588 15.6409 34.7064 14.4871C36.0539 13.3332 36.9448 11.7356 37.2181 9.98262C39.8142 10.9896 42.1783 12.5142 44.1667 14.4637C46.1551 16.4132 47.7262 18.7468 48.7844 21.3227C47.1135 21.7037 45.6256 22.6506 44.5727 24.0031C43.5199 25.3555 42.9668 27.0303 43.0071 28.7438C43.0475 30.4574 43.6787 32.1043 44.794 33.4057C45.9094 34.7071 47.4401 35.5829 49.1271 35.8849C48.1283 38.6883 46.5316 41.2408 44.4477 43.3653C42.3638 45.4898 39.8426 47.1354 37.0592 48.1879L37.0498 48.1816ZM50.7163 35.084H50.4608C48.8468 35.0873 47.2891 34.4911 46.0898 33.411C44.8904 32.3309 44.1348 30.8439 43.9695 29.2382C43.8042 27.6326 44.2409 26.0227 45.195 24.7209C46.1491 23.419 47.5526 22.5178 49.1334 22.1921C49.5525 22.1036 49.9795 22.0576 50.4078 22.055H50.4608C52.1769 22.0379 53.8305 22.6991 55.0618 23.8947C56.2932 25.0903 57.0029 26.7238 57.0366 28.4399C57.0702 30.156 56.4252 31.816 55.2416 33.059C54.0581 34.302 52.4318 35.0275 50.7163 35.0778V35.084Z" fill="#143274"/>
<path d="M8.19946 28.6477C8.19946 28.7193 8.19946 28.791 8.19946 28.8658L8.41446 28.7941L8.19946 28.6477ZM9.22772 28.7941L9.44583 28.8658C9.44583 28.791 9.44583 28.7193 9.44583 28.6445L9.22772 28.7941Z" fill="#143274"/>
<path d="M11.6861 29.331C11.3804 29.0259 11.0281 28.7713 10.6423 28.5769C10.9542 28.2262 11.158 27.7928 11.2292 27.3289C11.3004 26.865 11.236 26.3904 11.0437 25.9622C10.8514 25.5341 10.5394 25.1707 10.1453 24.9159C9.75125 24.661 9.2919 24.5255 8.82261 24.5258C8.7728 24.5227 8.72286 24.5227 8.67305 24.5258C8.21564 24.5512 7.77471 24.7054 7.40114 24.9706C7.02757 25.2358 6.73656 25.6012 6.56165 26.0247C6.38675 26.4482 6.33508 26.9125 6.4126 27.364C6.49012 27.8156 6.69368 28.236 6.9998 28.5769C6.32931 28.9141 5.76567 29.4309 5.37173 30.0697C4.97779 30.7086 4.76905 31.4443 4.7688 32.1949V32.6218H12.8702V32.1949C12.8706 31.121 12.4447 30.091 11.6861 29.331ZM5.47611 31.9269C5.52741 31.2719 5.77051 30.6466 6.17504 30.1289C6.57958 29.6113 7.12761 29.2243 7.75073 29.0163L8.19943 28.8667C8.19943 28.7919 8.19943 28.7203 8.19943 28.6486L7.83799 28.3993C7.53083 28.1893 7.29898 27.8864 7.17643 27.535C7.05388 27.1836 7.04707 26.8022 7.15698 26.4467C7.26689 26.0912 7.48774 25.7802 7.7872 25.5593C8.08665 25.3385 8.44897 25.2193 8.82106 25.2193C9.19315 25.2193 9.55546 25.3385 9.85491 25.5593C10.1544 25.7802 10.3752 26.0912 10.4851 26.4467C10.595 26.8022 10.5882 27.1836 10.4657 27.535C10.3431 27.8864 10.1113 28.1893 9.80413 28.3993L9.44891 28.6455C9.44891 28.7202 9.44891 28.7919 9.44891 28.8667L9.89761 29.0194C10.5201 29.2285 11.0675 29.6158 11.4718 30.1332C11.8762 30.6506 12.1197 31.2754 12.1722 31.93L5.47611 31.9269Z" fill="#143274"/>
</svg>
