<svg width="56" height="55" viewBox="0 0 56 55" fill="none" xmlns="http://www.w3.org/2000/svg">
<path d="M53.4632 5H2.4122C2.03766 5 1.67846 5.14914 1.41362 5.4146C1.14878 5.68007 1 6.04012 1 6.41554C1 6.79096 1.14878 7.15101 1.41362 7.41648C1.67846 7.68194 2.03766 7.83108 2.4122 7.83108H7.47492V39.2136H20.5801L14.1829 49.9717H17.4945L23.8494 39.2419H32.1037L38.6774 50H41.7984L35.4011 39.2419H48.3722V7.83108H53.4349C53.8094 7.83108 54.1686 7.68194 54.4335 7.41648C54.6983 7.15101 54.8471 6.79096 54.8471 6.41554C54.8471 6.04012 54.6983 5.68007 54.4335 5.4146C54.1686 5.14914 53.8094 5 53.4349 5H53.4632ZM45.576 36.3825H10.2711V7.83108H45.576V36.3825Z" fill="#143274"/>
<path d="M20.4742 22.9066V29.5101C20.4742 29.8855 20.3254 30.2455 20.0606 30.511C19.7958 30.7765 19.4366 30.9256 19.062 30.9256C18.6875 30.9256 18.3283 30.7765 18.0634 30.511C17.7986 30.2455 17.6498 29.8855 17.6498 29.5101V22.9066C17.6498 22.5312 17.7986 22.1711 18.0634 21.9056C18.3283 21.6402 18.6875 21.491 19.062 21.491C19.4366 21.491 19.7958 21.6402 20.0606 21.9056C20.3254 22.1711 20.4742 22.5312 20.4742 22.9066Z" fill="#143274"/>
<path d="M29.3499 18.568V29.4959C29.3499 29.8713 29.2011 30.2314 28.9363 30.4969C28.6714 30.7623 28.3122 30.9115 27.9377 30.9115C27.5632 30.9115 27.204 30.7623 26.9391 30.4969C26.6743 30.2314 26.5255 29.8713 26.5255 29.4959V18.568C26.5255 18.1925 26.6743 17.8325 26.9391 17.567C27.204 17.3016 27.5632 17.1524 27.9377 17.1524C28.3122 17.1524 28.6714 17.3016 28.9363 17.567C29.2011 17.8325 29.3499 18.1925 29.3499 18.568Z" fill="#143274"/>
<path d="M38.3103 16.1898V29.4959C38.3103 29.8713 38.1615 30.2314 37.8967 30.4969C37.6318 30.7623 37.2726 30.9115 36.8981 30.9115C36.5236 30.9115 36.1644 30.7623 35.8995 30.4969C35.6347 30.2314 35.4859 29.8713 35.4859 29.4959V16.1898C35.4859 15.8144 35.6347 15.4544 35.8995 15.1889C36.1644 14.9234 36.5236 14.7743 36.8981 14.7743C37.2726 14.7743 37.6318 14.9234 37.8967 15.1889C38.1615 15.4544 38.3103 15.8144 38.3103 16.1898Z" fill="#143274"/>
</svg>
