<svg width="115" height="104" viewBox="0 0 115 104" fill="none" xmlns="http://www.w3.org/2000/svg">
<g id="Group 1261152854">
<g id="Group 54692">
<path id="Vector 16" d="M100.039 78.5265C92.8403 84.3123 51.9115 103.581 40.9091 103.581C-31.0748 99.9651 9.28758 8.01157 32.9394 1.03757C56.5913 -5.93643 52.2489 24.3876 68.7024 28.262C81.8652 31.3616 94.7256 34.1856 98.7533 35.9076C127.231 49.3706 109.037 71.2942 100.039 78.5265Z" fill="#CA256D"/>
</g>
<path id="path0" fill-rule="evenodd" clip-rule="evenodd" d="M59.1338 43.2185C59.1477 43.2408 59.1319 43.2474 59.0967 43.234C59.0628 43.2211 59.0354 43.2312 59.0354 43.2564C59.0354 43.2816 59.0151 43.2898 58.9904 43.2746C58.9655 43.2593 58.9112 43.2889 58.8684 43.341C58.8261 43.3928 58.8045 43.4087 58.8205 43.3762C58.8365 43.3438 58.7855 43.3776 58.707 43.4512C58.6285 43.5249 58.5739 43.6006 58.5854 43.6193C58.5971 43.638 58.592 43.6508 58.5741 43.6478C58.4989 43.6347 58.4427 43.6541 58.4427 43.6931C58.4427 43.716 58.4649 43.7223 58.4921 43.7074C58.5193 43.6924 58.373 43.8506 58.1669 44.0588C57.81 44.4198 57.736 44.4866 57.7908 44.3982C57.8042 44.3766 57.8052 44.3589 57.7931 44.3589C57.7517 44.3589 57.4746 44.6863 57.4856 44.7221C57.4915 44.7418 57.481 44.7484 57.4622 44.7368C57.4155 44.7081 57.1693 44.9658 57.2073 45.0036C57.224 45.0202 57.2184 45.0279 57.1949 45.0206C57.1713 45.0134 57.078 45.0739 56.9875 45.1548C56.8261 45.2992 56.7742 45.3731 56.8722 45.319C56.8994 45.304 56.7531 45.4622 56.547 45.6705C56.1901 46.0314 56.1161 46.0982 56.1709 46.0099C56.1843 45.9883 56.1765 45.9706 56.1535 45.9706C56.1144 45.9706 56.0949 46.0265 56.108 46.1013C56.1111 46.1191 56.0981 46.1241 56.0792 46.1125C56.0313 46.0831 55.827 46.3024 55.8641 46.3432C55.8807 46.3614 55.8751 46.3653 55.8515 46.352C55.7969 46.3211 55.4673 46.6519 55.5082 46.6966C55.525 46.715 55.5193 46.719 55.4954 46.7054C55.4421 46.6753 55.2296 46.888 55.2715 46.9298C55.2881 46.9463 55.2839 46.9562 55.2622 46.9519C55.1828 46.936 55.1239 46.9543 55.1239 46.995C55.1239 47.0178 55.143 47.0248 55.1664 47.0105C55.1897 46.9961 55.1853 47.0216 55.1568 47.0671C55.1283 47.1126 55.0914 47.1498 55.0749 47.1498C55.0584 47.1498 55.0449 47.1764 55.0449 47.2088C55.0449 47.2412 55.0716 47.2678 55.1042 47.2678C55.1368 47.2678 55.1634 47.2865 55.1634 47.3094C55.1634 47.3323 55.1843 47.3382 55.2096 47.3226C55.2414 47.3031 55.2474 47.3161 55.2289 47.364C55.2093 47.4151 55.2174 47.4278 55.2597 47.4117C55.3005 47.3962 55.3102 47.4084 55.2928 47.4535C55.2746 47.5007 55.2849 47.5109 55.3323 47.4928C55.3777 47.4755 55.3899 47.4851 55.3743 47.5257C55.3587 47.5663 55.3709 47.5759 55.4163 47.5586C55.4637 47.5406 55.474 47.5508 55.4558 47.5979C55.4369 47.6468 55.4477 47.6554 55.5013 47.635C55.5505 47.6161 55.5627 47.6224 55.5418 47.6559C55.505 47.7152 55.592 47.8264 55.6481 47.7919C55.6709 47.7779 55.6775 47.7854 55.6629 47.809C55.6485 47.8323 55.69 47.8892 55.7554 47.9355C55.8729 48.0187 55.9515 48.0142 55.9558 47.9238C55.957 47.8981 56.0148 47.8336 56.0842 47.7805L56.2104 47.6839L56.1324 47.7805C56.0332 47.9033 56.3274 47.6384 56.6521 47.3127C56.7891 47.1752 56.8912 47.0464 56.8788 47.0267C56.8666 47.0068 56.88 46.9955 56.9088 47.0014C56.9376 47.0074 56.9567 46.9901 56.9512 46.9631C56.9458 46.9361 56.9553 46.9184 56.9723 46.9238C57.0127 46.9367 57.7939 46.1595 57.7809 46.1193C57.7755 46.1024 57.7933 46.0929 57.8204 46.0983C57.8476 46.1037 57.865 46.0848 57.859 46.0561C57.853 46.0275 57.8645 46.0141 57.8844 46.0264C57.927 46.0525 58.5296 45.4648 58.5035 45.4226C58.4937 45.4069 58.5116 45.394 58.5433 45.394C58.621 45.394 58.643 48.4805 58.5659 48.583C58.549 48.6055 58.5318 48.7463 58.5278 48.8959C58.5236 49.0456 58.5061 49.1871 58.4888 49.2104C58.4716 49.2338 58.4541 49.3501 58.4499 49.469C58.4458 49.5879 58.4239 49.6914 58.4014 49.6989C58.3736 49.7081 58.3743 49.7291 58.4035 49.7641C58.4333 49.7999 58.4338 49.8237 58.4051 49.8413C58.3824 49.8553 58.3637 49.9188 58.3637 49.9824C58.3637 50.046 58.3459 50.098 58.3242 50.098C58.3025 50.098 58.2847 50.1167 58.2847 50.1396C58.2847 50.1625 58.2996 50.172 58.3178 50.1608C58.336 50.1496 58.3316 50.2017 58.3081 50.2764C58.2846 50.3512 58.2519 50.4124 58.2355 50.4124C58.2191 50.4124 58.2057 50.4312 58.2057 50.4541C58.2057 50.477 58.2234 50.4847 58.2452 50.4714C58.2669 50.458 58.2847 50.4658 58.2847 50.4887C58.2847 50.5116 58.265 50.5303 58.2409 50.5303C58.2169 50.5303 58.2066 50.5548 58.2182 50.5848C58.2298 50.6148 58.2121 50.6777 58.179 50.7248C58.1458 50.7719 58.1278 50.845 58.1389 50.8873C58.15 50.9295 58.1322 50.9909 58.0991 51.0238C58.0661 51.0566 58.0481 51.1176 58.0591 51.1593C58.07 51.2009 58.0532 51.2562 58.0219 51.2821C57.9759 51.3201 57.9748 51.3355 58.0161 51.3616C58.0575 51.3877 58.057 51.394 58.0137 51.3945C57.9828 51.3948 57.9696 51.4197 57.9825 51.453C57.9948 51.485 57.9745 51.5286 57.9373 51.5501C57.8989 51.5724 57.8911 51.5898 57.9192 51.5905C57.9464 51.5912 57.9686 51.6104 57.9686 51.6333C57.9686 51.6562 57.951 51.6641 57.9296 51.6509C57.9072 51.6372 57.9005 51.6529 57.9139 51.6876C57.9274 51.7227 57.9118 51.7579 57.8768 51.7713C57.8409 51.7851 57.8227 51.8277 57.8321 51.8762C57.841 51.922 57.818 51.9825 57.7798 52.0135C57.7385 52.0474 57.735 52.0574 57.771 52.0391C57.8215 52.0134 57.8225 52.0186 57.7776 52.0738C57.7485 52.1094 57.7355 52.1557 57.7485 52.1769C57.7617 52.1979 57.7515 52.228 57.7261 52.2436C57.6972 52.2614 57.6905 52.255 57.708 52.2267C57.7235 52.2017 57.7174 52.1813 57.6944 52.1813C57.6418 52.1813 57.6397 52.2473 57.6912 52.2791C57.7157 52.2941 57.7128 52.3301 57.6833 52.3771C57.6577 52.4179 57.6194 52.4407 57.5984 52.4279C57.5767 52.4144 57.5705 52.4313 57.5842 52.4668C57.5975 52.5012 57.5828 52.5504 57.5515 52.5762C57.5198 52.6024 57.5022 52.6645 57.5117 52.7167C57.5231 52.7796 57.5102 52.8102 57.4722 52.8102C57.4409 52.8102 57.4155 52.829 57.4155 52.8519C57.4155 52.8748 57.4377 52.8823 57.4648 52.8685C57.492 52.8547 57.4732 52.8795 57.4232 52.9233C57.3731 52.9673 57.3353 53.0261 57.339 53.0541C57.3517 53.1489 57.3366 53.2166 57.3089 53.1891C57.2792 53.1594 57.1389 53.4201 57.1389 53.5051C57.1389 53.5337 57.1211 53.5571 57.0994 53.5571C57.0777 53.5571 57.0599 53.5925 57.0599 53.6357C57.0599 53.6789 57.0421 53.7143 57.0204 53.7143C56.9986 53.7143 56.9809 53.7331 56.9809 53.756C56.9809 53.7789 57.0031 53.7863 57.0302 53.7726C57.0574 53.7588 57.0396 53.7828 56.9907 53.8258C56.9418 53.8687 56.9018 53.9319 56.9018 53.9663C56.9018 54.0007 56.8841 54.0288 56.8623 54.0288C56.8406 54.0288 56.8228 54.064 56.8228 54.1071C56.8228 54.1501 56.7873 54.2074 56.7438 54.2345C56.7003 54.2615 56.6648 54.3132 56.6648 54.3494C56.6648 54.3857 56.6462 54.4215 56.6235 54.429C56.6008 54.4365 56.5792 54.4822 56.5756 54.5306C56.5719 54.5789 56.5359 54.6288 56.4955 54.6416C56.4528 54.6551 56.431 54.6881 56.4434 54.7202C56.4563 54.7535 56.4398 54.7756 56.4021 54.7756C56.3593 54.7756 56.3459 54.8001 56.3598 54.8529C56.3718 54.8987 56.3616 54.9267 56.3348 54.9217C56.3099 54.9171 56.2917 54.9428 56.2944 54.9789C56.2974 55.0195 56.2787 55.0366 56.245 55.0239C56.2095 55.0103 56.1907 55.0317 56.1907 55.0859C56.1907 55.1315 56.171 55.1687 56.1469 55.1687C56.1229 55.1687 56.1138 55.1961 56.1268 55.2297C56.141 55.2668 56.1339 55.2807 56.1086 55.2651C56.0623 55.2366 55.9498 55.3665 55.9794 55.4142C55.9897 55.4308 55.9703 55.4551 55.9363 55.4681C55.9023 55.481 55.8746 55.5084 55.8746 55.529C55.8746 55.5496 55.8968 55.5551 55.924 55.5413C55.9511 55.5275 55.92 55.565 55.8548 55.6246C55.7896 55.6844 55.7408 55.7476 55.7462 55.7654C55.7516 55.7831 55.7367 55.7977 55.713 55.7977C55.6511 55.7977 55.5219 55.9624 55.5203 56.0433C55.5196 56.0812 55.5012 56.1121 55.4795 56.1121C55.4578 56.1121 55.44 56.1359 55.44 56.165C55.44 56.2253 55.3057 56.3584 55.2752 56.3281C55.2642 56.3172 55.2229 56.3436 55.1834 56.3871C55.0957 56.4835 55.1311 56.4924 55.2262 56.3978C55.2779 56.3464 55.2899 56.344 55.2753 56.388C55.2647 56.42 55.2129 56.4684 55.1603 56.4953C55.1077 56.5223 55.0691 56.5621 55.0745 56.5837C55.08 56.6054 55.0653 56.6231 55.042 56.6231C54.9836 56.6231 54.8851 56.7262 54.9151 56.756C54.9285 56.7695 54.9175 56.7804 54.8906 56.7804C54.8295 56.7804 54.7288 56.8778 54.7288 56.9371C54.7288 56.9616 54.7112 56.9707 54.6898 56.9575C54.6665 56.9432 54.6613 56.961 54.6769 57.0014C54.6967 57.0527 54.6874 57.0632 54.6389 57.0447C54.5915 57.0266 54.5812 57.0368 54.5994 57.084C54.6178 57.1318 54.6074 57.1414 54.5578 57.1225C54.5139 57.1057 54.4918 57.1173 54.4918 57.1573C54.4918 57.1903 54.4759 57.2076 54.4565 57.1957C54.437 57.1838 54.4099 57.2188 54.396 57.2736C54.3822 57.3284 54.3538 57.3627 54.3329 57.3498C54.2882 57.3223 54.0967 57.5019 54.0967 57.5712C54.0967 57.5975 54.0859 57.6082 54.0728 57.5951C54.0441 57.5667 53.8596 57.7426 53.8596 57.7983C53.8596 57.8466 53.8058 57.8807 53.6963 57.9016C53.5993 57.9202 53.5463 57.9596 53.6183 57.9596C53.645 57.9596 53.6562 57.9765 53.6434 57.9972C53.6305 58.0179 53.5908 58.0237 53.5552 58.01C53.5064 57.9915 53.4966 58.0016 53.5157 58.0511C53.5296 58.0873 53.5246 58.1168 53.5043 58.1168C53.4842 58.1168 53.4288 58.1566 53.3812 58.2053C53.3158 58.2723 53.3006 58.2772 53.3189 58.2255C53.3399 58.1664 53.3326 58.1637 53.2655 58.2055C53.2228 58.232 53.1866 58.2892 53.1848 58.3326C53.1831 58.3761 53.1731 58.3906 53.1627 58.365C53.1397 58.3092 52.9904 58.4217 52.9904 58.4948C52.9904 58.5498 52.88 58.5982 52.8278 58.5661C52.8075 58.5536 52.7958 58.5668 52.8017 58.5954C52.8082 58.626 52.7841 58.6427 52.7435 58.6359C52.68 58.6254 52.6544 58.6706 52.6718 58.7623C52.6757 58.7821 52.6477 58.7733 52.6099 58.7426C52.549 58.6933 52.5439 58.6946 52.5662 58.7536C52.5841 58.8013 52.5749 58.8142 52.5341 58.7986C52.4977 58.7847 52.4768 58.8014 52.4768 58.844C52.4768 58.8862 52.4557 58.9034 52.4204 58.8899C52.3548 58.8649 52.266 58.9539 52.3092 59.0014C52.3253 59.0191 52.3162 59.0207 52.2888 59.0051C52.2598 58.9885 52.2293 59.0022 52.2154 59.0381C52.2024 59.0719 52.1626 59.1001 52.1268 59.1008C52.0407 59.1025 51.9171 59.1979 51.9539 59.2345C51.9699 59.2503 51.9651 59.2597 51.9434 59.2554C51.8304 59.2327 51.7261 59.2628 51.7261 59.3181C51.7261 59.3518 51.7103 59.3697 51.691 59.3578C51.6718 59.3459 51.634 59.3626 51.6072 59.3948C51.5803 59.427 51.5314 59.4533 51.4984 59.4533C51.4654 59.4533 51.413 59.4843 51.3818 59.5221C51.3506 59.56 51.3373 59.5673 51.3521 59.5385C51.3915 59.4623 51.1343 59.5976 51.0347 59.7056C50.9912 59.7527 50.9712 59.7682 50.9901 59.7402C51.0348 59.6741 51.0143 59.6759 50.8629 59.751C50.7357 59.8142 50.6888 59.8737 50.7997 59.8314C50.837 59.8171 50.8509 59.8243 50.8351 59.8496C50.821 59.8724 50.7832 59.8811 50.7513 59.8689C50.7193 59.8566 50.6544 59.8681 50.6071 59.8943C50.5598 59.9205 50.5109 59.9425 50.4984 59.9433C50.4861 59.9441 50.4448 59.9756 50.4068 60.0135C50.3311 60.0887 50.2849 60.1052 50.3235 60.043C50.369 59.9697 50.3007 60.0032 50.1998 60.1035C50.1326 60.1704 50.0744 60.1955 50.0236 60.1795C49.9759 60.1643 49.9395 60.1769 49.9254 60.2133C49.9132 60.245 49.8688 60.28 49.8269 60.2909C49.7849 60.3018 49.7605 60.2947 49.7726 60.2752C49.7848 60.2555 49.776 60.2395 49.753 60.2395C49.73 60.2395 49.7111 60.2572 49.7111 60.2788C49.7111 60.3004 49.6766 60.3181 49.6345 60.3181C49.5923 60.3181 49.5467 60.3358 49.5333 60.3574C49.5199 60.379 49.4655 60.3967 49.4124 60.3967C49.3594 60.3967 49.316 60.4144 49.316 60.436C49.316 60.4577 49.2726 60.4753 49.2196 60.4753C49.1666 60.4753 49.1121 60.493 49.0987 60.5147C49.0853 60.5363 49.0385 60.554 48.9948 60.554C48.951 60.554 48.8876 60.5815 48.8537 60.6152C48.8199 60.6489 48.7647 60.666 48.7313 60.6531C48.6978 60.6403 48.6601 60.6464 48.6475 60.6665C48.6349 60.6866 48.5712 60.7088 48.5061 60.7157C48.4409 60.7226 48.3414 60.7591 48.2851 60.7966C48.2075 60.8484 48.1715 60.854 48.1369 60.8196C48.1023 60.7851 48.0912 60.7856 48.0912 60.8213C48.0912 60.8477 48.038 60.8684 47.9703 60.8684C47.8842 60.8684 47.858 60.8826 47.8791 60.9176C47.8993 60.951 47.8874 60.9494 47.842 60.9127C47.8053 60.8831 47.7751 60.8743 47.7751 60.8933C47.7751 60.9123 47.7129 60.9471 47.6369 60.9708C47.5364 61.0022 47.4984 61.0021 47.498 60.9706C47.4976 60.9422 47.4871 60.9434 47.4675 60.9743C47.451 61 47.349 61.0252 47.2409 61.0301C47.0414 61.0392 46.8612 61.0805 46.7409 61.1447C46.6967 61.1683 46.668 61.1641 46.655 61.1324C46.6444 61.1061 46.6342 61.1023 46.6325 61.1239C46.6307 61.1471 46.531 61.1577 46.3895 61.1498C46.1936 61.1388 46.1386 61.1496 46.0901 61.2087C46.0576 61.2485 46.0421 61.2591 46.0559 61.232C46.0696 61.205 46.0621 61.1829 46.0391 61.1829C46.0161 61.1829 45.9972 61.1996 45.9972 61.22C45.9972 61.2419 45.7635 61.2561 45.4342 61.2545C44.7779 61.2515 43.5404 61.3156 43.4745 61.3561C43.4495 61.3715 43.4291 61.3654 43.4291 61.3425C43.4291 61.283 43.1311 61.2908 43.0804 61.3515C43.0513 61.3864 42.939 61.4 42.72 61.3952C42.545 61.3912 42.4018 61.4021 42.4018 61.4193C42.4018 61.4366 42.4418 61.4431 42.4907 61.4339C42.5715 61.4186 42.5725 61.4202 42.501 61.4513C42.4578 61.4699 42.3563 61.4798 42.2754 61.4729C42.1945 61.4661 42.1178 61.4777 42.1047 61.4986C42.0918 61.5196 42.051 61.5364 42.0142 61.5361C41.9567 61.5356 41.9557 61.5302 42.0067 61.4974C42.0574 61.4648 42.0559 61.4591 41.9969 61.4586C41.9588 61.4583 41.9277 61.4807 41.9277 61.5084C41.9277 61.5434 41.8681 61.5564 41.7302 61.5514C41.6215 61.5475 41.5425 61.56 41.5545 61.5793C41.5664 61.5986 41.5486 61.6039 41.5149 61.591C41.4812 61.5781 41.4536 61.5842 41.4536 61.6046C41.4536 61.6248 41.4314 61.643 41.4042 61.6449C41.3771 61.6467 41.3143 61.6576 41.2648 61.669C41.2134 61.6809 41.1848 61.6739 41.1981 61.6525C41.2108 61.6321 41.2018 61.6153 41.1781 61.6153C41.1544 61.6153 41.1256 61.6398 41.114 61.6697C41.1003 61.7053 41.0464 61.7196 40.9583 61.7112C40.8841 61.704 40.8131 61.7149 40.8004 61.7354C40.7877 61.7558 40.7233 61.7725 40.6573 61.7725C40.5913 61.7725 40.4872 61.808 40.426 61.8514C40.3438 61.9096 40.3093 61.9174 40.2945 61.8809C40.2784 61.8415 40.2672 61.8414 40.2395 61.8804C40.2203 61.9073 40.1576 61.9333 40.1001 61.938C40.0425 61.9427 40.0038 61.9549 40.0141 61.965C40.0242 61.9752 39.9762 62.007 39.9074 62.0358C39.8386 62.0647 39.7731 62.0791 39.7619 62.0679C39.7506 62.0568 39.7653 62.0477 39.7942 62.0477C39.8231 62.0477 39.8355 62.0363 39.8215 62.0224C39.8075 62.0086 39.7735 62.0157 39.7458 62.0383C39.718 62.0609 39.6599 62.0856 39.6164 62.0931C39.5729 62.1005 39.5125 62.1301 39.4821 62.1588C39.4518 62.1875 39.394 62.2025 39.3537 62.192C39.3135 62.1815 39.2806 62.189 39.2806 62.2085C39.2806 62.2282 39.2361 62.2442 39.1818 62.2442C39.1275 62.2442 39.083 62.2619 39.083 62.2835C39.083 62.3051 39.0397 62.3228 38.9866 62.3228C38.9336 62.3228 38.8792 62.3405 38.8657 62.3621C38.8523 62.3838 38.8038 62.4015 38.7581 62.4015C38.7122 62.4015 38.6863 62.4129 38.7003 62.4269C38.7143 62.4409 38.6432 62.4939 38.5421 62.5448C38.3557 62.6387 38.2639 62.6674 38.3719 62.598C38.4233 62.5649 38.4225 62.5598 38.3662 62.5593C38.3305 62.559 38.2904 62.5871 38.2769 62.6218C38.2631 62.6577 38.2274 62.6751 38.1938 62.6623C38.1613 62.6499 38.1348 62.6569 38.1348 62.6779C38.1348 62.6988 38.0982 62.7159 38.0534 62.7159C38.0021 62.7159 37.9825 62.7326 38.0003 62.7613C38.0171 62.7882 38.0112 62.796 37.9859 62.7805C37.9286 62.7453 37.7372 62.8297 37.6474 62.9299C37.6074 62.9744 37.5863 62.9886 37.6003 62.9616C37.6436 62.8783 37.5552 62.9074 37.496 62.996C37.4627 63.0459 37.3985 63.0795 37.3363 63.0795C37.2573 63.0795 37.2378 63.0949 37.2552 63.1434C37.2679 63.1785 37.2636 63.1942 37.2459 63.1781C37.2282 63.1621 37.1863 63.1709 37.153 63.1977C37.1047 63.2368 37.0984 63.2367 37.1221 63.1974C37.1384 63.1704 37.1329 63.1483 37.1099 63.1483C37.0869 63.1483 37.068 63.1639 37.068 63.183C37.068 63.2022 37.0307 63.2275 36.9851 63.2393C36.9316 63.2533 36.9128 63.2782 36.9322 63.3096C36.9534 63.3435 36.9426 63.3506 36.8968 63.3332C36.8606 63.3193 36.831 63.3251 36.831 63.3461C36.831 63.3671 36.7954 63.3842 36.752 63.3842C36.7057 63.3842 36.6729 63.4104 36.6729 63.4473C36.6729 63.4828 36.6505 63.502 36.6219 63.491C36.5685 63.4706 36.4592 63.5332 36.4319 63.5997C36.4232 63.621 36.385 63.6332 36.347 63.6267C36.309 63.6203 36.2779 63.6349 36.2779 63.6591C36.2779 63.6834 36.2984 63.6907 36.3235 63.6752C36.351 63.6582 36.3584 63.6644 36.342 63.6909C36.327 63.7148 36.2859 63.7234 36.2504 63.7099C36.2072 63.6934 36.1954 63.7005 36.2144 63.7313C36.2331 63.7613 36.2111 63.7772 36.1506 63.7772C36.0998 63.7772 36.0326 63.8126 36.0013 63.8559C35.97 63.8991 35.926 63.9343 35.9037 63.9341C35.8813 63.9339 35.8126 63.9914 35.751 64.0618C35.6895 64.1323 35.6504 64.1679 35.6645 64.1408C35.6784 64.1138 35.6711 64.0917 35.6481 64.0917C35.6251 64.0917 35.6062 64.1178 35.6062 64.1497C35.6062 64.1815 35.5529 64.2351 35.4877 64.2686C35.4225 64.3021 35.3691 64.3468 35.3691 64.3679C35.3691 64.389 35.3503 64.4062 35.3273 64.4062C35.3042 64.4062 35.2982 64.3841 35.3139 64.357C35.3304 64.3285 35.3273 64.3217 35.3063 64.3406C35.2866 64.3587 35.27 64.3941 35.2695 64.4192C35.269 64.4445 35.2379 64.4599 35.2003 64.4535C35.1601 64.4468 35.1321 64.467 35.1321 64.5027C35.1321 64.5361 35.1187 64.5613 35.1024 64.5588C35.0318 64.5477 34.9805 64.5683 34.895 64.642C34.8449 64.6853 34.8255 64.7206 34.8518 64.7206C34.8781 64.7206 34.8881 64.7393 34.874 64.762C34.8599 64.7848 34.8277 64.7963 34.8025 64.7877C34.7774 64.779 34.7172 64.8139 34.6688 64.8651C34.6205 64.9164 34.5761 64.9568 34.5701 64.9549C34.5254 64.9407 34.4209 65.0152 34.4209 65.0612C34.4209 65.0927 34.4031 65.1074 34.3814 65.0941C34.3597 65.0807 34.3405 65.1106 34.3387 65.1605C34.337 65.2104 34.3268 65.2294 34.3158 65.2026C34.3008 65.1655 34.2819 65.1678 34.2374 65.2121C34.2052 65.2441 34.1916 65.2909 34.2072 65.3161C34.2228 65.3411 34.2195 65.3526 34.1998 65.3415C34.1562 65.3169 33.945 65.5312 33.9793 65.5653C33.9926 65.5786 33.9769 65.5794 33.9443 65.5669C33.8817 65.5431 33.3408 66.0701 33.384 66.113C33.3965 66.1255 33.3753 66.1357 33.3368 66.1357C33.2896 66.1357 33.2744 66.1558 33.2902 66.1968C33.3038 66.2319 33.2972 66.2476 33.2743 66.2335C33.2527 66.2203 33.2087 66.2356 33.1765 66.2676C33.1319 66.3119 33.1296 66.3307 33.1669 66.3456C33.194 66.3567 33.1831 66.3668 33.1421 66.3684C33.0454 66.3726 32.8353 66.6106 32.8627 66.6849C32.8746 66.7166 32.8725 66.731 32.8582 66.7167C32.8209 66.6796 32.7285 66.7751 32.7494 66.8292C32.759 66.8542 32.7479 66.8863 32.7247 66.9006C32.7014 66.9148 32.6825 66.9047 32.6825 66.8779C32.6825 66.8512 32.6306 66.8984 32.5673 66.983C32.5039 67.0675 32.4606 67.1504 32.471 67.1672C32.4814 67.1839 32.4621 67.2083 32.4281 67.2212C32.3942 67.2342 32.3664 67.2782 32.3664 67.3192C32.3664 67.3674 32.3386 67.3936 32.2874 67.3936C32.2347 67.3936 32.2084 67.4198 32.2084 67.4722C32.2084 67.5155 32.1906 67.5508 32.1689 67.5508C32.1471 67.5508 32.1294 67.585 32.1294 67.6268C32.1294 67.6686 32.0935 67.7141 32.0497 67.7279C32.006 67.7418 31.9804 67.7695 31.9928 67.7895C32.0053 67.8096 31.9856 67.826 31.9491 67.826C31.8934 67.826 31.8909 67.8359 31.9337 67.8872C31.9617 67.9208 31.9683 67.9453 31.9484 67.9415C31.8642 67.9255 31.8133 67.9475 31.8133 67.9996C31.8133 68.0302 31.7911 68.0642 31.7639 68.0751C31.725 68.0907 31.7249 68.0957 31.7635 68.098C31.7905 68.0998 31.7573 68.1537 31.6897 68.2179C31.6144 68.2895 31.5758 68.358 31.59 68.3948C31.6028 68.4279 31.5948 68.4549 31.5722 68.4549C31.5273 68.4549 31.4182 68.5521 31.4182 68.592C31.4182 68.6057 31.4377 68.6048 31.4616 68.5901C31.4918 68.5716 31.4912 68.5893 31.4597 68.6478C31.4347 68.6943 31.3973 68.7219 31.3767 68.7093C31.3561 68.6965 31.3392 68.7279 31.3392 68.7791C31.3392 68.8746 31.1703 69.1385 31.1328 69.1014C31.1214 69.09 31.112 69.1282 31.112 69.1865C31.112 69.2446 31.0771 69.3206 31.0344 69.3552C30.9493 69.4242 30.8255 69.6687 30.8255 69.7678C30.8255 69.8024 30.8078 69.8307 30.786 69.8307C30.7643 69.8307 30.7486 69.844 30.7512 69.8602C30.7698 69.9776 30.7423 70.0816 30.707 70.0273C30.6773 69.9815 30.6686 69.993 30.6681 70.0788C30.6678 70.1395 30.6519 70.1796 30.6329 70.1679C30.614 70.1562 30.5984 70.191 30.5984 70.2451C30.5984 70.2993 30.5605 70.3762 30.5144 70.4161C30.4682 70.4559 30.4304 70.5351 30.4304 70.592C30.4304 70.6489 30.4108 70.6955 30.3867 70.6955C30.3627 70.6955 30.3535 70.7227 30.3662 70.7559C30.3797 70.7906 30.3642 70.8261 30.3298 70.8393C30.2923 70.8536 30.2788 70.8895 30.2937 70.9362C30.3089 70.9839 30.2948 71.0189 30.2543 71.0344C30.2028 71.0541 30.2003 71.0701 30.2405 71.1227C30.2675 71.158 30.2741 71.1739 30.2552 71.158C30.2186 71.1271 30.1144 71.2971 30.1144 71.3879C30.1144 71.4179 30.0966 71.4424 30.0749 71.4424C30.0531 71.4424 30.0353 71.4611 30.0353 71.484C30.0353 71.5069 30.0531 71.5147 30.0749 71.5013C30.0966 71.488 30.1144 71.4957 30.1144 71.5186C30.1144 71.5415 30.0966 71.5603 30.0749 71.5603C30.0531 71.5603 30.0353 71.5868 30.0353 71.6193C30.0353 71.6517 30.0176 71.6782 29.9958 71.6782C29.9741 71.6782 29.9563 71.697 29.9563 71.7199C29.9563 71.7428 29.9741 71.7505 29.9958 71.7372C30.0176 71.7238 30.0353 71.7316 30.0353 71.7545C30.0353 71.7774 30.0157 71.7961 29.9916 71.7961C29.9676 71.7961 29.9575 71.8212 29.9694 71.8519C29.9812 71.8825 29.9632 71.9181 29.9296 71.931C29.8923 71.9452 29.8761 71.9839 29.8882 72.0299C29.8991 72.0715 29.8823 72.142 29.8509 72.1867C29.8058 72.2507 29.8047 72.2679 29.8454 72.2684C29.8809 72.2688 29.8833 72.2781 29.8533 72.2979C29.8292 72.3138 29.8143 72.3578 29.8201 72.3956C29.826 72.4336 29.8059 72.4644 29.7751 72.4644C29.7444 72.4644 29.7193 72.4831 29.7193 72.506C29.7193 72.5289 29.7383 72.5359 29.7617 72.5216C29.7877 72.5056 29.7853 72.5312 29.7555 72.588C29.6494 72.79 29.6356 72.8267 29.6572 72.8482C29.6697 72.8605 29.6798 72.8469 29.6798 72.8182C29.6798 72.7894 29.6898 72.7758 29.7023 72.7881C29.7549 72.8406 29.6163 72.9754 29.5099 72.9754C29.4486 72.9754 29.4071 72.9893 29.4178 73.0063C29.4284 73.0233 29.3894 73.0409 29.3312 73.0453C29.2498 73.0513 29.239 73.0444 29.2847 73.0149C29.3353 72.9822 29.334 72.9765 29.2748 72.976C29.2368 72.9757 29.2056 72.9931 29.2056 73.0147C29.2056 73.0363 29.1523 73.054 29.0871 73.054C29.019 73.054 28.9683 73.0748 28.968 73.1031C28.9675 73.1392 28.9597 73.1402 28.9383 73.1067C28.9169 73.0735 28.869 73.0805 28.7608 73.1329C28.6792 73.1724 28.6225 73.1884 28.6348 73.1687C28.6471 73.1488 28.6403 73.1326 28.6195 73.1326C28.5989 73.1326 28.5714 73.1599 28.5585 73.1935C28.5456 73.2269 28.5125 73.2513 28.4851 73.2477C28.3878 73.235 28.3321 73.251 28.3534 73.2854C28.3653 73.3046 28.3397 73.3295 28.2964 73.3407C28.2532 73.352 28.2278 73.3451 28.2399 73.3255C28.2521 73.3059 28.2433 73.2899 28.2203 73.2899C28.1973 73.2899 28.1784 73.3145 28.1784 73.3446C28.1784 73.3748 28.1508 73.4099 28.1171 73.4228C28.0819 73.4362 28.0661 73.4296 28.0799 73.4073C28.0932 73.386 28.0853 73.3685 28.0622 73.3685C28.0392 73.3685 28.0204 73.3944 28.0204 73.4262C28.0204 73.459 27.9969 73.475 27.9662 73.4632C27.9364 73.4519 27.9009 73.4713 27.8874 73.5062C27.874 73.5413 27.8449 73.559 27.8231 73.5456C27.8012 73.5321 27.7833 73.5506 27.7833 73.5865C27.7833 73.6265 27.7618 73.6438 27.7279 73.6309C27.694 73.618 27.664 73.6423 27.6504 73.6937C27.6383 73.7399 27.617 73.7664 27.603 73.7525C27.589 73.7387 27.5336 73.7748 27.4798 73.8329C27.4258 73.8909 27.3932 73.9163 27.4071 73.8893C27.421 73.8623 27.4212 73.8402 27.4075 73.8402C27.3592 73.8402 27.2697 73.9533 27.2697 74.0142C27.2697 74.0504 27.2359 74.076 27.1883 74.076C27.1435 74.076 27.118 74.0937 27.1314 74.1153C27.1448 74.1369 27.1357 74.1546 27.1111 74.1546C27.0457 74.1546 26.9448 74.266 26.9715 74.3088C26.9841 74.3292 26.9736 74.3585 26.9482 74.3742C26.9192 74.392 26.9125 74.3856 26.9301 74.3573C26.9456 74.3323 26.9395 74.3119 26.9165 74.3119C26.8934 74.3119 26.8746 74.3319 26.8746 74.3564C26.8746 74.3809 26.8435 74.4297 26.8054 74.4649C26.711 74.5523 26.6304 74.701 26.6555 74.7414C26.6669 74.7597 26.6497 74.7965 26.6174 74.8233C26.585 74.85 26.5585 74.8962 26.5585 74.926C26.5585 74.9557 26.5407 74.9801 26.519 74.9801C26.4973 74.9801 26.4795 75.0077 26.4795 75.0414C26.4795 75.0751 26.4613 75.0915 26.439 75.0778C26.4168 75.0641 26.4011 75.0675 26.4041 75.0853C26.4211 75.1824 26.3959 75.2571 26.3547 75.2318C26.3236 75.2126 26.3159 75.2299 26.3306 75.2859C26.344 75.3365 26.3307 75.3763 26.2964 75.3894C26.2612 75.4029 26.2473 75.4474 26.2586 75.5099C26.2706 75.5753 26.2588 75.609 26.224 75.609C26.1891 75.609 26.1726 75.6566 26.1753 75.7493C26.1774 75.8264 26.1605 75.9016 26.1378 75.9163C26.115 75.9311 26.0929 76.0537 26.0887 76.1888C26.0775 76.5511 26.0679 76.6256 26.035 76.6053C26.0187 76.5953 26.0054 76.6672 26.0054 76.7651C26.0054 76.8913 26.0197 76.9376 26.0548 76.9242C26.092 76.91 26.1041 76.9903 26.1041 77.2498C26.1041 77.4714 26.1192 77.5915 26.1461 77.5867C26.1719 77.5822 26.1835 77.6432 26.176 77.744C26.1673 77.8622 26.1747 77.892 26.2025 77.8496C26.2399 77.7927 26.2597 77.8947 26.2483 78.0855C26.2459 78.1251 26.2519 78.1283 26.2666 78.0953C26.298 78.0247 26.363 78.0345 26.3356 78.1056C26.3229 78.1383 26.3369 78.1947 26.3664 78.2311C26.4119 78.2869 26.4118 78.292 26.3657 78.2644C26.3352 78.2461 26.318 78.2471 26.3266 78.2667C26.4391 78.5222 26.5289 78.6736 26.5574 78.6561C26.5767 78.6442 26.6037 78.6525 26.6174 78.6744C26.631 78.6964 26.619 78.7149 26.5905 78.7156C26.5589 78.7164 26.5661 78.7326 26.6087 78.7573C26.6472 78.7797 26.67 78.8118 26.6595 78.8288C26.6489 78.8458 26.6752 78.8971 26.7179 78.9427C26.7606 78.9883 26.7956 79.0364 26.7956 79.0497C26.7956 79.0884 26.9048 79.1861 26.9481 79.1861C26.9699 79.1861 26.9991 79.2218 27.0131 79.2653C27.027 79.3088 27.0548 79.3343 27.075 79.3219C27.0951 79.3095 27.1116 79.3194 27.1116 79.3438C27.1116 79.4038 27.2146 79.5029 27.2452 79.4725C27.2587 79.4591 27.2697 79.4765 27.2697 79.511C27.2697 79.5456 27.3052 79.5851 27.3487 79.5988C27.3922 79.6126 27.4277 79.6416 27.4277 79.6633C27.4277 79.7155 27.5295 79.815 27.5829 79.815C27.6062 79.815 27.6253 79.8285 27.6253 79.8449C27.6253 79.8613 27.6627 79.898 27.7084 79.9264C27.7773 79.9692 27.787 79.9691 27.7646 79.9261C27.7499 79.8974 27.7724 79.913 27.8149 79.9608C27.8573 80.0085 27.9031 80.0365 27.9166 80.023C27.9303 80.0095 27.9413 80.0178 27.9413 80.0415C27.9413 80.1073 28.1819 80.212 28.2743 80.1863C28.333 80.1701 28.341 80.1741 28.3026 80.2006C28.2421 80.2423 28.3095 80.308 28.3728 80.269C28.3927 80.2568 28.4359 80.2734 28.4687 80.306C28.5385 80.3755 28.6306 80.3862 28.5895 80.32C28.5701 80.2888 28.5786 80.2856 28.6168 80.3095C28.6473 80.3288 28.7034 80.347 28.7414 80.35C28.8623 80.3596 28.8718 80.3701 28.7908 80.4045C28.7328 80.4292 28.7539 80.4353 28.8702 80.4275C28.9574 80.4215 29.0641 80.4321 29.1073 80.4507C29.1764 80.4808 29.1747 80.4828 29.093 80.4671C29.0421 80.4573 29.0124 80.4614 29.0273 80.4761C29.0421 80.4908 29.1661 80.5056 29.303 80.5089C29.4399 80.5122 29.5884 80.5343 29.633 80.5581C29.7641 80.6278 30.1449 80.6035 30.0982 80.5283C30.0895 80.5143 30.2229 80.5056 30.3947 80.5088C30.6234 80.5131 30.707 80.5013 30.707 80.4649C30.707 80.4308 30.7568 80.4193 30.865 80.4284C30.9906 80.4391 31.0231 80.4285 31.0231 80.3773C31.0231 80.342 31.0349 80.3248 31.0496 80.3392C31.0641 80.3537 31.1127 80.3345 31.1575 80.2967C31.235 80.2312 31.2363 80.2312 31.1855 80.2966C31.1486 80.3439 31.1462 80.3653 31.1776 80.3653C31.2026 80.3653 31.2336 80.3383 31.2463 80.3052C31.2616 80.2656 31.2966 80.2536 31.3487 80.2701C31.4015 80.2867 31.419 80.2805 31.401 80.2517C31.3769 80.2128 31.4547 80.1881 31.5495 80.2045C31.5674 80.2075 31.5708 80.1919 31.5571 80.1698C31.5339 80.1325 31.6215 80.1095 31.7145 80.1281C31.7362 80.1325 31.7416 80.1236 31.7263 80.1085C31.6845 80.0669 31.8068 79.9621 31.9048 79.9554C31.9523 79.9521 31.9868 79.9286 31.9817 79.9033C31.9763 79.8768 31.9978 79.8669 32.0323 79.8801C32.0665 79.8932 32.1232 79.8674 32.1648 79.8197C32.2047 79.7739 32.2576 79.7364 32.2822 79.7364C32.3067 79.7364 32.3269 79.7176 32.3269 79.6948C32.3269 79.6719 32.3064 79.6658 32.2813 79.6812C32.2537 79.6982 32.2464 79.692 32.2628 79.6656C32.2777 79.6416 32.316 79.6319 32.3479 79.644C32.3876 79.6592 32.4059 79.64 32.4059 79.5834C32.4059 79.5093 32.4459 79.482 32.5343 79.4959C32.5506 79.4985 32.564 79.4652 32.564 79.422C32.564 79.3766 32.5903 79.3433 32.6261 79.3433C32.6977 79.3433 32.801 79.2514 32.801 79.1875C32.801 79.1114 32.9265 78.9503 32.9857 78.9503C33.017 78.9503 33.0317 78.9325 33.0181 78.9106C33.0046 78.8889 33.0202 78.8609 33.0528 78.8484C33.0854 78.836 33.1025 78.8008 33.0906 78.7701C33.0776 78.7363 33.0941 78.7144 33.1326 78.7144C33.2078 78.7144 33.2174 78.6509 33.1467 78.6225C33.1196 78.6116 33.1373 78.6013 33.1862 78.5996C33.2351 78.5979 33.2751 78.5777 33.2751 78.5548C33.2751 78.5319 33.2575 78.5241 33.2361 78.5372C33.2137 78.551 33.2071 78.5353 33.2205 78.5003C33.2334 78.4667 33.2688 78.4392 33.2991 78.4392C33.3294 78.4392 33.3541 78.4205 33.3541 78.3976C33.3541 78.3747 33.338 78.3659 33.3183 78.378C33.2986 78.3901 33.2916 78.3652 33.3028 78.3228C33.3139 78.2802 33.3435 78.2493 33.3683 78.2539C33.3931 78.2585 33.4138 78.2195 33.4143 78.167C33.4147 78.1147 33.4369 78.0645 33.4637 78.0557C33.4904 78.0468 33.5122 78.0224 33.5122 78.0013C33.5122 77.9801 33.49 77.9762 33.4628 77.9924C33.4292 78.0125 33.4308 78.0007 33.4676 77.9555C33.4975 77.9189 33.5104 77.8889 33.4964 77.8889C33.4824 77.8889 33.4999 77.8447 33.5356 77.7907C33.5869 77.7127 33.5891 77.6923 33.5464 77.6918C33.5014 77.6913 33.5016 77.6854 33.5473 77.6566C33.5808 77.6355 33.5945 77.5826 33.5823 77.5197C33.5696 77.4533 33.5801 77.4172 33.6122 77.4172C33.6662 77.4172 33.6722 76.3448 33.6186 76.2914C33.6036 76.2764 33.5915 76.2362 33.5918 76.2019C33.5923 76.1474 33.5971 76.147 33.6307 76.1987C33.6518 76.2311 33.6693 76.2377 33.6696 76.2133C33.6699 76.1889 33.6464 76.1493 33.6173 76.1253C33.5854 76.0989 33.5684 76.0187 33.5744 75.9236C33.58 75.8356 33.5686 75.7756 33.5483 75.788C33.5129 75.8098 33.4965 75.7556 33.5092 75.6582C33.5128 75.6312 33.4926 75.6087 33.4646 75.6085C33.4239 75.608 33.4243 75.601 33.4662 75.5746C33.5082 75.548 33.5058 75.5364 33.4537 75.5165C33.418 75.5028 33.401 75.4719 33.416 75.4477C33.431 75.4235 33.4276 75.3925 33.4086 75.3786C33.3294 75.3214 33.2763 75.1829 33.3259 75.1629C33.3625 75.1482 33.3622 75.1428 33.3245 75.1405C33.2974 75.1387 33.2751 75.1038 33.2751 75.063C33.2751 75.022 33.2466 74.9777 33.2117 74.9643C33.1767 74.951 33.1582 74.9148 33.1702 74.8835C33.1841 74.8475 33.173 74.8342 33.1399 74.8469C33.1023 74.8612 33.0931 74.8386 33.107 74.7662C33.1189 74.7045 33.1084 74.6656 33.0799 74.6656C33.0543 74.6656 33.0461 74.6861 33.0616 74.711C33.0787 74.7385 33.0724 74.7457 33.0459 74.7294C33.0218 74.7146 33.013 74.672 33.0263 74.6349C33.0398 74.5977 33.0361 74.5804 33.0184 74.5966C33.0006 74.6126 32.9622 74.606 32.9331 74.5819C32.8683 74.5284 32.8621 74.4534 32.9257 74.4925C32.9532 74.5095 32.9605 74.5033 32.9441 74.4769C32.9292 74.4529 32.8953 74.4415 32.8688 74.4516C32.8423 74.4617 32.7964 74.43 32.7666 74.3812C32.7247 74.3119 32.7243 74.3031 32.7648 74.3414C32.8392 74.4116 32.8976 74.4024 32.8264 74.3315C32.7938 74.2991 32.7575 74.2726 32.7456 74.2726C32.7175 74.2726 32.3664 73.9232 32.3664 73.8953C32.3664 73.8835 32.3397 73.8473 32.3071 73.8149C32.2357 73.7439 32.2271 73.801 32.2973 73.8804C32.3244 73.9112 32.307 73.9035 32.2586 73.8634C32.2103 73.8232 32.1795 73.7763 32.1902 73.759C32.2009 73.7418 32.1888 73.7149 32.1634 73.6992C32.1345 73.6815 32.1278 73.6879 32.1454 73.7162C32.1847 73.7794 32.1093 73.7732 32.0555 73.7088C32.0313 73.6798 32.0247 73.6416 32.0408 73.6239C32.057 73.6063 32.0396 73.6026 32.0022 73.616C31.9649 73.6293 31.9221 73.6205 31.9072 73.5966C31.8908 73.5701 31.8981 73.5639 31.9257 73.5809C31.9508 73.5964 31.9713 73.5903 31.9713 73.5674C31.9713 73.5445 31.9258 73.5257 31.8702 73.5257C31.8137 73.5257 31.7797 73.5086 31.7932 73.4869C31.8067 73.4654 31.7923 73.4576 31.7611 73.4695C31.7302 73.4813 31.6944 73.4634 31.6813 73.4297C31.6684 73.396 31.623 73.3685 31.5808 73.3685C31.5384 73.3685 31.4948 73.3464 31.4839 73.3193C31.468 73.2802 31.4633 73.2803 31.4608 73.3196C31.4575 73.3717 31.3102 73.3118 31.2547 73.2357C31.2408 73.2167 31.2115 73.2122 31.1897 73.2256C31.1678 73.239 31.1402 73.2251 31.1285 73.1945C31.1158 73.1619 31.065 73.1436 31.0048 73.1502C30.8993 73.1617 30.8269 73.1037 30.8915 73.0594C30.9117 73.0457 30.9322 72.9731 30.9373 72.8983C30.9424 72.8235 30.9671 72.7497 30.9922 72.7342C31.0257 72.7137 31.0231 72.6872 30.9823 72.6344C30.9519 72.595 30.9424 72.5756 30.9613 72.5915C31.0015 72.6253 31.1021 72.4487 31.1021 72.3443C31.1021 72.3048 31.1177 72.2629 31.1367 72.2512C31.1556 72.2395 31.1712 72.1818 31.1712 72.1228C31.1712 72.0638 31.1902 72.0093 31.2135 72.0016C31.2367 71.9939 31.247 71.9651 31.2363 71.9375C31.2258 71.9099 31.2445 71.8646 31.2781 71.8369C31.3117 71.8092 31.3392 71.7444 31.3392 71.6931C31.3392 71.6417 31.3569 71.5996 31.3787 71.5996C31.4004 71.5996 31.4182 71.5465 31.4182 71.4817C31.4182 71.4168 31.437 71.3637 31.4601 71.3637C31.4831 71.3637 31.4918 71.3475 31.4794 71.3276C31.4671 71.3077 31.4838 71.2648 31.5166 71.2322C31.5494 71.1995 31.5762 71.1507 31.5762 71.1237C31.5762 71.0459 31.6682 70.8134 31.699 70.8134C31.7143 70.8134 31.7181 70.78 31.7074 70.7392C31.6966 70.6985 31.71 70.6515 31.7369 70.6349C31.7706 70.6142 31.7759 70.6208 31.754 70.6562C31.7339 70.6886 31.7375 70.6982 31.764 70.6818C31.787 70.6677 31.7958 70.618 31.7835 70.5714C31.7691 70.5165 31.7763 70.4959 31.804 70.5129C31.8293 70.5284 31.8914 70.447 31.9569 70.3126C32.0175 70.1881 32.0812 70.0803 32.0982 70.0732C32.1153 70.0659 32.1294 70.0261 32.1294 69.9847C32.1294 69.9432 32.1482 69.9093 32.1713 69.9093C32.1944 69.9093 32.2078 69.8695 32.201 69.8209C32.1928 69.7622 32.2069 69.7363 32.243 69.7439C32.2802 69.7518 32.2907 69.73 32.2764 69.6752C32.262 69.6204 32.2744 69.5949 32.315 69.5949C32.3529 69.5949 32.3662 69.5725 32.3513 69.5338C32.3384 69.5003 32.3423 69.4818 32.3601 69.4928C32.3779 69.5037 32.4287 69.4342 32.473 69.3384C32.5173 69.2427 32.5336 69.176 32.5093 69.1906C32.485 69.205 32.4894 69.1871 32.519 69.1508C32.5486 69.1144 32.5885 69.0943 32.6075 69.106C32.6265 69.1177 32.6315 69.0998 32.6186 69.0663C32.6033 69.0267 32.6174 69.0052 32.6585 69.0052C32.6934 69.0052 32.722 68.9787 32.722 68.9463C32.722 68.9139 32.7398 68.8873 32.7615 68.8873C32.7832 68.8873 32.801 68.8608 32.801 68.8284C32.801 68.7959 32.8182 68.7694 32.8392 68.7694C32.8604 68.7694 32.8673 68.7429 32.8548 68.7104C32.8423 68.678 32.8528 68.6515 32.8782 68.6515C32.9034 68.6515 32.9161 68.6382 32.9063 68.622C32.8807 68.5801 32.9839 68.4934 33.0204 68.5261C33.0371 68.541 33.0398 68.5228 33.0263 68.4857C33.013 68.4485 33.0218 68.406 33.0459 68.3912C33.0724 68.3748 33.0787 68.3821 33.0616 68.4095C33.0461 68.4345 33.0543 68.4549 33.0799 68.4549C33.1054 68.4549 33.1188 68.424 33.1095 68.3861C33.091 68.3107 33.2113 68.1704 33.2583 68.2125C33.2745 68.2269 33.2762 68.2069 33.2621 68.1679C33.2468 68.1253 33.2522 68.1068 33.2759 68.1213C33.3181 68.1472 33.3965 67.984 33.3663 67.9331C33.3564 67.9164 33.3629 67.9052 33.3808 67.9083C33.4608 67.9221 33.5149 67.9014 33.4924 67.8653C33.479 67.8437 33.4957 67.826 33.5296 67.826C33.5857 67.826 33.6067 67.7719 33.6019 67.6397C33.6009 67.6129 33.6174 67.6016 33.6386 67.6146C33.6852 67.6433 34.0718 67.2361 34.0524 67.1787C34.0383 67.1372 34.2568 66.9237 34.3146 66.9225C34.3322 66.9222 34.3356 66.9042 34.3221 66.8826C34.3087 66.861 34.3265 66.8433 34.3616 66.8433C34.3968 66.8433 34.417 66.8294 34.4064 66.8125C34.3959 66.7955 34.4392 66.7406 34.5026 66.6904C34.566 66.6402 34.6064 66.5805 34.5923 66.5578C34.5783 66.5352 34.5842 66.5274 34.6055 66.5405C34.6268 66.5537 34.7553 66.4503 34.8909 66.3108C35.0264 66.1712 35.1628 66.0571 35.194 66.0571C35.2251 66.0571 35.2506 66.0394 35.2506 66.0178C35.2506 65.9962 35.2773 65.9785 35.3099 65.9785C35.3425 65.9785 35.3691 65.9509 35.3691 65.9172C35.3691 65.8835 35.3849 65.8656 35.4042 65.8775C35.4511 65.9064 35.5344 65.8031 35.4972 65.7622C35.481 65.7445 35.4878 65.7413 35.5121 65.755C35.5363 65.7689 35.5879 65.7451 35.6268 65.7025C35.6657 65.6597 35.7148 65.6247 35.7361 65.6247C35.7977 65.6247 35.9232 65.4614 35.8956 65.4171C35.8818 65.3949 35.8866 65.3862 35.9063 65.3978C35.961 65.4302 36.1282 65.3555 36.1006 65.3111C36.0859 65.2876 36.1034 65.2823 36.144 65.2978C36.19 65.3153 36.2026 65.3088 36.1832 65.2776C36.166 65.25 36.1793 65.2316 36.2162 65.2316C36.2501 65.2316 36.2734 65.2095 36.268 65.1825C36.2619 65.1521 36.2922 65.1381 36.347 65.1457C36.4115 65.1546 36.4359 65.1381 36.4359 65.0855C36.4359 65.0189 36.6403 64.8971 36.7253 64.9131C36.7432 64.9164 36.7482 64.9036 36.7364 64.8846C36.7151 64.8504 36.9024 64.7399 36.9594 64.7531C36.9757 64.7569 36.989 64.734 36.989 64.7023C36.989 64.6671 37.0122 64.6533 37.0483 64.6671C37.0852 64.6812 37.1076 64.6668 37.1076 64.6289C37.1076 64.5954 37.1281 64.5555 37.1532 64.54C37.1814 64.5226 37.1881 64.5292 37.1706 64.5573C37.1551 64.5823 37.1612 64.6027 37.1842 64.6027C37.2072 64.6027 37.2261 64.585 37.2261 64.5634C37.2261 64.5418 37.2528 64.5241 37.2853 64.5241C37.3179 64.5241 37.3446 64.5064 37.3446 64.4848C37.3446 64.4632 37.3721 64.4455 37.4056 64.4455C37.464 64.4455 37.5088 64.4172 37.6541 64.2878C37.6908 64.2551 37.7519 64.2343 37.7897 64.2416C37.8275 64.2488 37.8688 64.228 37.8813 64.1954C37.894 64.1627 37.9294 64.1456 37.96 64.1573C37.9906 64.169 38.0265 64.1502 38.0399 64.1157C38.0531 64.0811 38.0795 64.0623 38.0983 64.0739C38.1171 64.0854 38.1719 64.0498 38.22 63.9947C38.2758 63.931 38.3328 63.9025 38.3768 63.9164C38.4452 63.938 38.564 63.8879 38.6978 63.781C38.7358 63.7506 38.767 63.7377 38.767 63.7524C38.767 63.7823 38.9542 63.6693 39.0394 63.5882C39.0851 63.5445 39.1008 63.5444 39.1313 63.5876C39.1602 63.6285 39.1724 63.6291 39.1881 63.5905C39.1991 63.5635 39.2432 63.5414 39.2862 63.5414C39.3292 63.5414 39.3533 63.5237 39.3398 63.5021C39.3254 63.4789 39.3692 63.4628 39.4465 63.4628C39.5348 63.4628 39.5938 63.4371 39.627 63.3842C39.658 63.3348 39.7191 63.3055 39.7912 63.3055C39.8545 63.3055 39.912 63.2881 39.9193 63.2665C39.9266 63.2451 39.9814 63.2236 40.0411 63.2187C40.1009 63.2138 40.1501 63.1915 40.1504 63.1692C40.1507 63.1469 40.1683 63.1552 40.1893 63.1876C40.2148 63.2269 40.2278 63.2302 40.2282 63.1974C40.2285 63.1704 40.2644 63.1483 40.3078 63.1483C40.3513 63.1483 40.3871 63.1262 40.3874 63.0992C40.3878 63.0665 40.4009 63.0697 40.4264 63.109C40.4518 63.1483 40.4649 63.1516 40.4653 63.1188C40.4657 63.0892 40.5193 63.0697 40.5999 63.0697C40.677 63.0697 40.7428 63.0468 40.7548 63.0157C40.7667 62.9848 40.8189 62.9666 40.8778 62.973C40.934 62.9792 40.9698 62.9681 40.9576 62.9483C40.9453 62.9286 41.0163 62.9125 41.1154 62.9125C41.2145 62.9125 41.2956 62.8948 41.2956 62.8732C41.2956 62.8515 41.372 62.8338 41.4655 62.8338C41.5589 62.8338 41.6522 62.817 41.6729 62.7965C41.6936 62.7759 41.8083 62.7497 41.9277 62.7383C42.1271 62.7194 42.2481 62.692 42.4611 62.618C42.5272 62.595 42.5304 62.5982 42.4809 62.6373C42.4303 62.6772 42.4323 62.6806 42.494 62.6607C42.5338 62.6478 42.6627 62.6373 42.7804 62.6373C42.9577 62.6373 42.9946 62.6255 42.9951 62.5685C42.9956 62.515 43.0032 62.5115 43.0296 62.5531C43.0533 62.5902 43.0718 62.5932 43.0907 62.5628C43.1093 62.5329 43.281 62.5253 43.6389 62.5384C43.9657 62.5504 44.1232 62.5445 44.0612 62.5227L43.9625 62.4879L44.0612 62.4833C44.1156 62.4808 44.56 62.4765 45.049 62.4739C45.574 62.4711 45.9585 62.453 45.9881 62.4299C46.0157 62.4082 46.1223 62.3867 46.2252 62.3819C46.328 62.3772 46.4476 62.3604 46.4911 62.3444C46.5543 62.3212 46.5582 62.3239 46.5108 62.3578C46.4207 62.4223 46.5529 62.4158 46.6816 62.3495C46.737 62.3209 46.8634 62.3022 46.9626 62.308C47.096 62.3159 47.143 62.3043 47.143 62.2636C47.143 62.2237 47.1805 62.2133 47.2793 62.2258C47.3542 62.2354 47.4264 62.2257 47.4396 62.2044C47.4528 62.1831 47.4938 62.1659 47.5306 62.1662C47.5882 62.1667 47.5891 62.1721 47.5381 62.2049C47.4966 62.2315 47.494 62.2432 47.5295 62.2436C47.5572 62.2439 47.5892 62.2203 47.6006 62.1911C47.613 62.1586 47.6587 62.1451 47.7178 62.1564C47.7822 62.1686 47.8148 62.1568 47.8152 62.1211C47.8157 62.0791 47.8243 62.0802 47.8547 62.1263C47.8835 62.1698 47.9016 62.1731 47.924 62.1387C47.9408 62.113 47.9986 62.0861 48.0524 62.0787C48.1063 62.0714 48.1755 62.0497 48.206 62.0308C48.2472 62.0051 48.2531 62.0104 48.2288 62.0514C48.2108 62.0818 48.2347 62.0729 48.2819 62.0318C48.3292 61.9906 48.3678 61.9706 48.3678 61.9874C48.3678 62.0042 48.3927 61.9974 48.4232 61.9722C48.4658 61.9371 48.4834 61.9383 48.4992 61.9772C48.5125 62.01 48.5313 62.0141 48.5525 61.9887C48.5918 61.9412 48.7499 61.8509 48.792 61.8517C48.8086 61.852 48.7955 61.8695 48.7629 61.8904C48.7116 61.9234 48.7125 61.9287 48.7695 61.9292C48.8056 61.9295 48.842 61.9098 48.8501 61.8855C48.8583 61.8612 48.9134 61.8413 48.9727 61.8413C49.0319 61.8413 49.09 61.8259 49.1018 61.8069C49.1135 61.788 49.1589 61.7725 49.2026 61.7725C49.2464 61.7725 49.3102 61.7446 49.3445 61.7105C49.3787 61.6764 49.4398 61.657 49.48 61.6676C49.5203 61.678 49.5432 61.6705 49.531 61.651C49.5114 61.6192 49.6 61.5997 49.7403 61.6047C49.7672 61.6057 49.7796 61.5907 49.7676 61.5716C49.7556 61.5524 49.779 61.5367 49.8194 61.5367C49.8598 61.5367 49.9167 61.5146 49.9461 61.4875C49.9887 61.4482 49.9937 61.4482 49.9714 61.4875C49.9561 61.5146 49.9623 61.5367 49.9853 61.5367C50.0083 61.5367 50.0272 61.519 50.0272 61.4974C50.0272 61.4757 50.0627 61.4581 50.1062 61.4581C50.1497 61.4581 50.1853 61.4448 50.1855 61.4286C50.1857 61.4124 50.2302 61.3786 50.2844 61.3536C50.3385 61.3286 50.374 61.3225 50.363 61.3401C50.352 61.3577 50.3875 61.3516 50.4416 61.3267C50.4959 61.3016 50.5403 61.2679 50.5405 61.2517C50.5407 61.2355 50.5842 61.2222 50.6372 61.2222C50.6902 61.2222 50.7447 61.2045 50.7581 61.1829C50.7715 61.1613 50.8151 61.1436 50.855 61.1436C50.8948 61.1436 50.9384 61.1152 50.9518 61.0805C50.9651 61.0459 50.9981 61.0259 51.0251 61.0361C51.1215 61.0725 51.285 60.9837 51.1927 60.9449C51.1316 60.9192 51.145 60.9135 51.252 60.9195C51.3489 60.925 51.387 60.9118 51.3794 60.8753C51.3721 60.8401 51.3935 60.8311 51.4452 60.8474C51.4874 60.8608 51.5351 60.8505 51.5511 60.8246C51.5707 60.793 51.5634 60.788 51.5285 60.8095C51.4937 60.8309 51.4864 60.826 51.506 60.7943C51.522 60.7685 51.5678 60.7576 51.6076 60.7702C51.6474 60.7827 51.6931 60.7718 51.7091 60.746C51.7288 60.7143 51.7214 60.7094 51.6866 60.7308C51.654 60.7509 51.6444 60.7473 51.6608 60.7209C51.675 60.698 51.7202 60.688 51.7612 60.6986C51.8021 60.7093 51.8494 60.6961 51.866 60.6692C51.8856 60.6378 51.8801 60.6304 51.8507 60.6485C51.8257 60.6639 51.8051 60.6673 51.8051 60.656C51.8051 60.6446 51.8428 60.6153 51.8889 60.5907C51.9567 60.5546 51.9667 60.5562 51.9414 60.5992C51.9101 60.6522 52.0789 60.5258 52.1266 60.4605C52.1405 60.4415 52.1717 60.4381 52.1958 60.4529C52.22 60.4679 52.2397 60.4613 52.2397 60.4384C52.2397 60.4155 52.2732 60.3967 52.3141 60.3967C52.3554 60.3967 52.3977 60.3616 52.4092 60.3179C52.423 60.2654 52.4509 60.2472 52.4929 60.2632C52.5282 60.2767 52.5558 60.2671 52.5558 60.2414C52.5558 60.2162 52.5736 60.2065 52.5953 60.2198C52.617 60.2332 52.6348 60.2172 52.6348 60.1843C52.6348 60.1149 52.7502 60.0454 52.8225 60.0712C52.8496 60.0809 52.8719 60.0697 52.8719 60.0462C52.8719 60.0228 52.9074 60.0036 52.9509 60.0036C52.9961 60.0036 53.0299 59.9774 53.0299 59.9423C53.0299 59.9086 53.0477 59.892 53.0694 59.9054C53.0911 59.9187 53.1089 59.911 53.1089 59.8881C53.1089 59.8652 53.1445 59.8464 53.1879 59.8464C53.2314 59.8464 53.267 59.8276 53.267 59.8047C53.267 59.7818 53.2464 59.7758 53.2213 59.7912C53.1938 59.8082 53.1865 59.802 53.2029 59.7756C53.2178 59.7516 53.2568 59.7421 53.2896 59.7547C53.3271 59.769 53.3449 59.7574 53.3377 59.7235C53.3312 59.6925 53.3558 59.6719 53.3954 59.675C53.4334 59.678 53.4645 59.6544 53.4645 59.6226C53.4645 59.5907 53.4867 59.5722 53.5139 59.5815C53.5634 59.5983 53.7016 59.4705 53.7016 59.408C53.7016 59.3896 53.7204 59.3747 53.7434 59.3747C53.7665 59.3747 53.774 59.3968 53.7602 59.4238C53.7465 59.4509 53.7607 59.442 53.7918 59.4042C53.8231 59.3664 53.8688 59.3354 53.8936 59.3354C53.9184 59.3354 53.9386 59.3078 53.9386 59.2741C53.9386 59.2404 53.9555 59.2233 53.9763 59.236C53.997 59.2487 54.0425 59.2099 54.0775 59.1499C54.1126 59.0897 54.1317 59.0715 54.1202 59.1094C54.1086 59.1472 54.1087 59.1782 54.1205 59.1782C54.149 59.1782 54.2771 59.0496 54.2646 59.0336C54.2591 59.0266 54.268 59.0178 54.2843 59.014C54.328 59.0035 54.4125 58.9136 54.4137 58.8764C54.4143 58.8586 54.4854 58.8116 54.5718 58.772C54.6714 58.7263 54.7288 58.6736 54.7288 58.628C54.7288 58.586 54.7773 58.5345 54.8445 58.5049C54.9081 58.4769 54.9515 58.44 54.941 58.423C54.9303 58.406 54.9494 58.392 54.9833 58.392C55.0171 58.392 55.0404 58.3699 55.035 58.3429C55.0296 58.3158 55.0474 58.2982 55.0745 58.3036C55.1017 58.309 55.1195 58.2928 55.114 58.2675C55.1086 58.2422 55.1441 58.2009 55.1929 58.1755C55.2415 58.1502 55.2697 58.1178 55.2554 58.1035C55.2411 58.0892 55.255 58.0775 55.2864 58.0775C55.3178 58.0775 55.3697 58.0387 55.4017 57.9914C55.4757 57.8814 55.5984 57.7593 55.7089 57.6856C55.7964 57.6273 55.8347 57.5378 55.7499 57.5899C55.7215 57.6074 55.7151 57.6007 55.733 57.5719C55.7487 57.5467 55.7782 57.5362 55.7986 57.5487C55.819 57.5613 55.862 57.5453 55.8942 57.5133C55.9324 57.4753 55.9377 57.4499 55.9095 57.4405C55.8838 57.432 55.895 57.4025 55.9371 57.3685C55.98 57.3339 55.9965 57.3306 55.9786 57.3602C55.9623 57.3872 55.9659 57.4093 55.9866 57.4093C56.0257 57.4093 56.0893 57.2935 56.0785 57.2422C56.075 57.226 56.091 57.2128 56.114 57.2128C56.137 57.2128 56.1456 57.1963 56.1332 57.1763C56.1207 57.1562 56.1466 57.1284 56.1907 57.1145C56.2347 57.1005 56.2606 57.0727 56.2482 57.0527C56.2357 57.0326 56.2552 57.0162 56.2913 57.0162C56.3316 57.0162 56.3489 56.9948 56.3359 56.961C56.3241 56.9305 56.352 56.873 56.3977 56.8332C56.4434 56.7933 56.4678 56.7828 56.4519 56.8098C56.436 56.8369 56.4419 56.859 56.4649 56.859C56.4879 56.859 56.5067 56.8275 56.5067 56.789C56.5067 56.7506 56.5419 56.6939 56.5849 56.663C56.6424 56.6219 56.6502 56.599 56.6145 56.5764C56.5826 56.5562 56.5949 56.5455 56.6507 56.5451C56.7249 56.5446 56.7891 56.4717 56.7996 56.376C56.8015 56.359 56.8276 56.3301 56.8575 56.3116C56.8897 56.2919 56.8992 56.2576 56.8807 56.2278C56.8584 56.1918 56.8683 56.1845 56.9151 56.2024C56.9512 56.2163 56.9809 56.2093 56.9809 56.1869C56.9809 56.1645 57.024 56.0899 57.0768 56.021C57.1295 55.9522 57.174 55.8827 57.1755 55.8664C57.1771 55.8502 57.1805 55.7972 57.1829 55.7485C57.1864 55.6821 57.192 55.6772 57.2057 55.7288C57.2306 55.8236 57.3364 55.7206 57.3364 55.6016C57.3364 55.5555 57.3523 55.5276 57.3718 55.5396C57.4089 55.5624 57.4566 55.4785 57.4818 55.3456C57.49 55.3024 57.514 55.2611 57.5352 55.2539C57.5562 55.2467 57.5735 55.2169 57.5735 55.1878C57.5735 55.1586 57.6099 55.1232 57.6545 55.1092C57.7092 55.0919 57.7315 55.056 57.7236 54.9984C57.7161 54.9443 57.7308 54.9171 57.7641 54.924C57.7929 54.9299 57.806 54.9181 57.7934 54.8977C57.7807 54.8773 57.7983 54.8327 57.8325 54.7987C57.8667 54.7647 57.8836 54.7191 57.87 54.6973C57.8565 54.6755 57.8653 54.6577 57.8896 54.6577C57.9139 54.6577 57.922 54.6388 57.9077 54.6158C57.8933 54.5927 57.9189 54.5641 57.9646 54.5522C58.0103 54.5404 58.0476 54.4988 58.0476 54.4599C58.0476 54.421 58.0611 54.3832 58.0774 54.376C58.1372 54.3497 58.3715 53.8373 58.3439 53.7929C58.3279 53.7672 58.3615 53.6995 58.4206 53.6382C58.4783 53.5782 58.5226 53.5134 58.519 53.494C58.5034 53.4108 58.5249 53.3579 58.5645 53.3822C58.59 53.3979 58.604 53.379 58.5994 53.3354C58.5831 53.1812 58.5976 53.1382 58.6439 53.2033C58.6768 53.2495 58.6822 53.2391 58.6688 53.1554C58.6594 53.0966 58.6663 53.0575 58.6843 53.0685C58.7273 53.095 58.7739 52.9062 58.7438 52.8279C58.7302 52.7928 58.7369 52.7771 58.7593 52.7909C58.7807 52.804 58.7983 52.7873 58.7983 52.7536C58.7983 52.7199 58.818 52.6923 58.8421 52.6923C58.8661 52.6923 58.8757 52.6663 58.8635 52.6345C58.8512 52.6027 58.867 52.5509 58.8988 52.5193C58.9305 52.4878 58.9563 52.4166 58.9563 52.361C58.9563 52.3054 58.9762 52.2599 59.0005 52.2599C59.0253 52.2599 59.0354 52.2252 59.0237 52.1806C59.0122 52.137 59.0296 52.0747 59.0624 52.042C59.0952 52.0094 59.1122 51.9571 59.1002 51.9259C59.0881 51.8946 59.1041 51.8433 59.1358 51.8118C59.1675 51.7802 59.1934 51.6913 59.1934 51.6142C59.1934 51.5369 59.2112 51.4737 59.2329 51.4737C59.2546 51.4737 59.2724 51.4207 59.2724 51.3558C59.2724 51.291 59.2902 51.2379 59.3119 51.2379C59.3336 51.2379 59.3514 51.1771 59.3514 51.1027C59.3514 51.0283 59.3686 50.9568 59.3897 50.9439C59.4107 50.9309 59.4255 50.8557 59.4226 50.7767C59.4195 50.6975 59.4378 50.6262 59.4632 50.6177C59.4887 50.6093 59.5095 50.5852 59.5095 50.564C59.5095 50.5429 59.4872 50.539 59.4601 50.5552C59.4229 50.5774 59.4212 50.5707 59.4531 50.5281C59.4764 50.4969 59.4978 50.4275 59.5007 50.3737C59.5036 50.3199 59.5245 50.2698 59.5472 50.2624C59.5699 50.2548 59.5885 50.2314 59.5885 50.2103C59.5885 50.1891 59.5707 50.1829 59.549 50.1962C59.5272 50.2096 59.5095 50.1919 59.5095 50.1569C59.5095 50.1219 59.5272 50.1042 59.549 50.1176C59.5734 50.1326 59.5885 50.0648 59.5885 49.9407C59.5885 49.8166 59.6036 49.7488 59.628 49.7638C59.6497 49.7772 59.6675 49.7694 59.6675 49.7465C59.6675 49.7236 59.6453 49.7046 59.6181 49.7043C59.5875 49.7039 59.5837 49.6927 59.6083 49.6748C59.6301 49.6589 59.6527 49.5663 59.6586 49.469C59.6645 49.3717 59.6868 49.2862 59.708 49.2791C59.7291 49.2718 59.7462 49.2364 59.7459 49.2004C59.7454 49.1437 59.7401 49.1429 59.707 49.1939C59.684 49.2293 59.6685 49.2342 59.6681 49.206C59.6678 49.1803 59.6819 49.1503 59.6996 49.1394C59.7173 49.1286 59.7347 49.0006 59.7383 48.8549C59.7419 48.7094 59.763 48.5721 59.7851 48.5501C59.8333 48.5021 59.84 48.3549 59.7927 48.384C59.7745 48.3951 59.7597 48.3785 59.7597 48.347C59.7597 48.3155 59.7718 48.2898 59.7865 48.2898C59.8013 48.2898 59.805 47.6053 59.7947 46.7687L59.7761 45.2476L59.9706 45.4421C60.0777 45.549 60.1999 45.6569 60.2423 45.682C60.2847 45.7069 60.315 45.7467 60.3095 45.7704C60.3041 45.794 60.3219 45.8089 60.349 45.8035C60.3762 45.7981 60.3936 45.8171 60.3876 45.8458C60.3816 45.8744 60.3918 45.8885 60.4104 45.8771C60.4571 45.8483 60.9412 46.3412 60.9033 46.3789C60.8864 46.3958 60.8977 46.4037 60.9286 46.3964C60.9594 46.3892 61.0054 46.423 61.0309 46.4716C61.0564 46.52 61.0889 46.548 61.1033 46.5338C61.1176 46.5195 61.1294 46.5288 61.1294 46.5543C61.1294 46.6004 61.6993 47.1891 61.7439 47.1891C61.788 47.1891 61.8762 47.2977 61.8518 47.322C61.8384 47.3355 61.858 47.3464 61.8955 47.3464C61.9331 47.3464 61.9527 47.3641 61.9393 47.3857C61.9259 47.4073 61.9404 47.425 61.9715 47.425C62.0026 47.425 62.1561 47.5591 62.3126 47.7229L62.597 48.021L62.7226 47.8877C62.7915 47.8144 62.8126 47.7998 62.7691 47.8551C62.6965 47.9477 62.7003 47.9467 62.8155 47.843C62.8931 47.7734 62.933 47.7059 62.9203 47.6661C62.9043 47.616 62.9083 47.6136 62.9381 47.6551C62.9678 47.6966 63.0254 47.6595 63.1986 47.4872C63.4011 47.2858 63.485 47.1105 63.379 47.1105C63.356 47.1105 63.3482 47.0928 63.3616 47.0712C63.3751 47.0496 63.3573 47.0319 63.3221 47.0319C63.287 47.0319 63.2658 47.0186 63.2751 47.0024C63.2973 46.9636 63.1199 46.7942 63.0891 46.8248C63.076 46.8378 63.0653 46.818 63.0653 46.7806C63.0653 46.7433 63.0475 46.7237 63.0258 46.7371C63.0041 46.7505 62.9863 46.7328 62.9863 46.6978C62.9863 46.6628 62.9685 46.6451 62.9468 46.6585C62.9251 46.6718 62.9068 46.6597 62.9061 46.6314C62.9054 46.603 62.8507 46.5356 62.7845 46.4816C62.6022 46.3329 62.1103 45.8461 61.9986 45.7039C61.9442 45.6348 61.8765 45.5781 61.848 45.5779C61.8196 45.5777 61.8073 45.5598 61.8208 45.5382C61.8342 45.5166 61.8164 45.4989 61.7813 45.4989C61.7461 45.4989 61.7283 45.4812 61.7418 45.4596C61.7552 45.4379 61.7374 45.4203 61.7022 45.4203C61.6671 45.4203 61.6493 45.4026 61.6627 45.381C61.6762 45.3593 61.6584 45.3416 61.6232 45.3416C61.5881 45.3416 61.5674 45.3284 61.5772 45.3122C61.6006 45.2737 61.5008 45.1819 61.4694 45.213C61.4562 45.2261 61.4454 45.2063 61.4454 45.169C61.4454 45.1316 61.4277 45.1121 61.4059 45.1254C61.3842 45.1388 61.3664 45.1211 61.3664 45.0861C61.3664 45.0512 61.3486 45.0335 61.3269 45.0468C61.3052 45.0602 61.2874 45.0425 61.2874 45.0075C61.2874 44.9725 61.2696 44.9549 61.2479 44.9682C61.2262 44.9816 61.2082 44.9694 61.208 44.9411C61.2078 44.9128 61.1508 44.8454 61.0814 44.7913C60.9384 44.6802 60.4491 44.1908 60.2997 44.0094C60.2453 43.9435 60.1776 43.8891 60.1491 43.8884C60.1207 43.8877 60.1084 43.8695 60.1219 43.8479C60.1353 43.8263 60.1175 43.8086 60.0824 43.8086C60.0472 43.8086 60.0294 43.7909 60.0429 43.7693C60.0563 43.7477 60.0385 43.73 60.0033 43.73C59.9682 43.73 59.947 43.7167 59.9563 43.7005C59.9785 43.6617 59.801 43.4923 59.7703 43.5229C59.7572 43.5359 59.7465 43.5176 59.7465 43.4823C59.7465 43.4411 59.7251 43.4262 59.6868 43.4408C59.6423 43.4578 59.634 43.4457 59.6542 43.3934C59.6749 43.3397 59.6662 43.329 59.6171 43.3477C59.5698 43.3658 59.5594 43.3556 59.5774 43.3089C59.5965 43.2594 59.5833 43.2505 59.5161 43.2679C59.469 43.2802 59.4305 43.2724 59.4305 43.2504C59.4305 43.2285 59.4029 43.2212 59.3691 43.234C59.3339 43.2474 59.3181 43.2408 59.332 43.2185C59.3459 43.1961 59.304 43.1797 59.2329 43.1797C59.1618 43.1797 59.1199 43.1961 59.1338 43.2185ZM58.0934 44.0308C57.9339 44.193 57.8104 44.3326 57.819 44.3411C57.8275 44.3496 57.9754 44.2156 58.1476 44.0433C58.3197 43.871 58.4432 43.7314 58.4221 43.7331C58.4008 43.7347 58.253 43.8688 58.0934 44.0308ZM56.4736 45.6425C56.314 45.8046 56.1905 45.9442 56.1991 45.9527C56.2077 45.9612 56.3555 45.8272 56.5277 45.6549C56.6998 45.4827 56.8233 45.343 56.8022 45.3447C56.7809 45.3464 56.6331 45.4804 56.4736 45.6425ZM60.6355 46.1278C60.7425 46.2359 60.839 46.3244 60.8498 46.3244C60.8607 46.3244 60.782 46.2359 60.675 46.1278C60.568 46.0197 60.4715 45.9313 60.4607 45.9313C60.4498 45.9313 60.5285 46.0197 60.6355 46.1278ZM55.7956 46.4153C55.7956 46.422 55.7378 46.4795 55.6672 46.543L55.5388 46.6585L55.6548 46.5307C55.763 46.4116 55.7956 46.3849 55.7956 46.4153ZM62.2554 47.7395C62.3624 47.8475 62.4589 47.936 62.4697 47.936C62.4806 47.936 62.4019 47.8475 62.2949 47.7395C62.1879 47.6314 62.0914 47.5429 62.0806 47.5429C62.0697 47.5429 62.1484 47.6314 62.2554 47.7395ZM37.1609 49.6165C37.1711 49.6327 37.0554 49.64 36.9041 49.6327C36.7527 49.6256 36.5987 49.6327 36.5619 49.6489C36.5252 49.6649 36.4818 49.6752 36.4655 49.6718C36.4492 49.6684 36.4359 49.6802 36.4359 49.6981C36.4359 49.716 36.3797 49.7224 36.3109 49.7123C36.23 49.7005 36.1708 49.7141 36.143 49.7511C36.0902 49.821 35.9448 49.882 35.985 49.8173C36.0016 49.7906 35.9907 49.781 35.9574 49.7931C35.9272 49.804 35.9064 49.8312 35.9112 49.8536C35.9162 49.8775 35.8713 49.8866 35.8017 49.8757C35.7198 49.8628 35.6868 49.8724 35.6943 49.9069C35.7001 49.9343 35.6694 49.9572 35.6259 49.9576C35.5825 49.9581 35.5232 49.9812 35.4944 50.0089C35.4654 50.0366 35.4273 50.0505 35.4096 50.0396C35.3919 50.0287 35.3665 50.048 35.3532 50.0826C35.3394 50.1184 35.3036 50.1358 35.2701 50.1229C35.2376 50.1105 35.2111 50.1175 35.2111 50.1385C35.2111 50.1595 35.1711 50.1769 35.1222 50.1772C35.054 50.1776 35.0464 50.186 35.0896 50.2132C35.1316 50.2397 35.1167 50.2519 35.0303 50.2618C34.9651 50.2691 34.9189 50.2959 34.9245 50.3233C34.9297 50.3499 34.8897 50.3828 34.8356 50.3963C34.7813 50.4099 34.7357 50.4411 34.7341 50.4658C34.7325 50.4905 34.6669 50.5638 34.588 50.6286C34.5092 50.6935 34.4582 50.7244 34.4746 50.6974C34.4911 50.6704 34.4934 50.6483 34.4797 50.6483C34.4381 50.6483 34.3419 50.7576 34.3419 50.805C34.3419 50.8295 34.3241 50.8385 34.3024 50.8252C34.2806 50.8118 34.2629 50.8295 34.2629 50.8645C34.2629 50.903 34.2447 50.9168 34.2166 50.8996C34.1844 50.8799 34.1791 50.8937 34.199 50.9452C34.2147 50.986 34.2156 51.0074 34.201 50.9929C34.1643 50.9563 34.0653 51.0614 34.0653 51.1368C34.0653 51.1723 34.0318 51.1986 33.9863 51.1986C33.9428 51.1986 33.9073 51.2186 33.9073 51.2431C33.9073 51.2676 33.8762 51.3162 33.838 51.3512C33.7361 51.4448 33.6413 51.5729 33.6999 51.5379C33.727 51.5217 33.7492 51.5259 33.7492 51.5473C33.7492 51.5689 33.7113 51.5983 33.665 51.613C33.606 51.6316 33.5954 51.6486 33.6295 51.6696C33.6651 51.6914 33.6558 51.7152 33.5955 51.7573C33.5499 51.789 33.524 51.8261 33.5379 51.8399C33.5517 51.8538 33.5332 51.8764 33.4969 51.8902C33.4556 51.9059 33.4391 51.9415 33.4529 51.9847C33.4663 52.0264 33.4509 52.0633 33.4146 52.0771C33.3813 52.0898 33.3541 52.1351 33.3541 52.1779C33.3541 52.2205 33.3167 52.3185 33.271 52.3956C33.2253 52.4727 33.1976 52.5608 33.2094 52.5915C33.2212 52.6221 33.2045 52.6691 33.1721 52.6957C33.127 52.7331 33.1246 52.7513 33.162 52.7743C33.2004 52.7978 33.1998 52.8175 33.1591 52.8662C33.1307 52.9002 33.1229 52.9284 33.1419 52.9287C33.1608 52.929 33.1497 52.9461 33.1171 52.9666C33.0752 52.9929 33.0561 53.0805 33.052 53.2646C33.0488 53.4081 33.0266 53.5449 33.0026 53.5688C32.9446 53.6265 32.9472 53.7654 33.0075 53.8254C33.0457 53.8634 33.0457 53.8897 33.0075 53.9507C32.9433 54.0528 32.9464 54.1463 33.0196 54.3205C33.0529 54.3998 33.0684 54.4835 33.054 54.5066C33.0397 54.5297 33.0525 54.5641 33.0824 54.5829C33.1123 54.6018 33.1173 54.6175 33.0935 54.6178C33.0297 54.6187 33.0339 54.8442 33.0982 54.8688C33.1284 54.8803 33.1458 54.9258 33.1372 54.9702C33.1286 55.0145 33.1384 55.0508 33.1589 55.0508C33.1793 55.0508 33.1961 55.0696 33.1961 55.0925C33.1961 55.1154 33.1783 55.1231 33.1566 55.1098C33.1349 55.0964 33.1171 55.1042 33.1171 55.1271C33.1171 55.15 33.132 55.1687 33.1503 55.1687C33.1685 55.1687 33.2042 55.214 33.2296 55.2695C33.2563 55.3278 33.2589 55.36 33.2359 55.3458C33.214 55.3323 33.1961 55.34 33.1961 55.3629C33.1961 55.3858 33.2139 55.4046 33.2356 55.4046C33.2573 55.4046 33.2751 55.4311 33.2751 55.4635C33.2751 55.496 33.2929 55.5225 33.3146 55.5225C33.3364 55.5225 33.3541 55.5413 33.3541 55.5642C33.3541 55.5871 33.3319 55.5929 33.3048 55.577C33.2776 55.5612 33.2865 55.5837 33.3246 55.6271C33.3626 55.6703 33.3824 55.7172 33.3684 55.731C33.3544 55.745 33.3855 55.7935 33.4374 55.8389C33.4895 55.8844 33.5114 55.9114 33.4862 55.8989C33.4516 55.8817 33.4516 55.9001 33.4862 55.9741C33.5114 56.0281 33.5571 56.0723 33.5879 56.0725C33.6187 56.0727 33.6321 56.0845 33.6178 56.0989C33.6034 56.1131 33.6352 56.1817 33.6885 56.2512C33.7417 56.3208 33.7735 56.3893 33.7591 56.4036C33.7447 56.4179 33.7722 56.44 33.8201 56.4524C33.8681 56.4648 33.9073 56.4973 33.9073 56.5247C33.9073 56.5519 33.9342 56.5965 33.9672 56.6237C34.0002 56.6509 34.0556 56.7327 34.0903 56.8054C34.125 56.8781 34.1701 56.9376 34.1907 56.9376C34.2112 56.9376 34.2154 56.9172 34.1998 56.8922C34.1828 56.8648 34.189 56.8575 34.2156 56.8738C34.2397 56.8887 34.2482 56.9298 34.2345 56.9653C34.216 57.0133 34.2261 57.0236 34.2737 57.0054C34.3189 56.9881 34.3313 56.9977 34.3159 57.0378C34.3038 57.0692 34.3103 57.0948 34.3302 57.0948C34.3502 57.0948 34.4027 57.1284 34.447 57.1694C34.4912 57.2104 34.5613 57.2509 34.6026 57.2592C34.6504 57.269 34.6731 57.3011 34.6649 57.3473C34.6557 57.3995 34.6694 57.4133 34.7138 57.3964C34.7482 57.3833 34.7714 57.3917 34.7661 57.4156C34.761 57.4392 34.7814 57.4674 34.8117 57.4783C34.8474 57.4912 34.8561 57.4813 34.8364 57.4498C34.805 57.3993 34.8849 57.4347 35.0135 57.5285C35.0605 57.5627 35.0523 57.5667 34.974 57.5481C34.8785 57.5252 34.8788 57.5263 34.9848 57.5865C35.0452 57.6207 35.1118 57.638 35.133 57.6249C35.1542 57.6118 35.1716 57.6266 35.1716 57.6575C35.1716 57.7032 35.3832 57.7845 35.4187 57.7525C35.4241 57.7476 35.4817 57.7797 35.5469 57.8236C35.7461 57.9578 35.9567 58.0416 36.1383 58.0587C36.2027 58.0648 36.262 58.0891 36.27 58.1129C36.278 58.1367 36.3018 58.1562 36.323 58.1562C36.3442 58.1562 36.3482 58.134 36.3319 58.107C36.3098 58.0705 36.3168 58.0683 36.3591 58.0987C36.3905 58.1211 36.4695 58.1448 36.5347 58.1512C36.5999 58.1576 36.6701 58.1791 36.6907 58.1988C36.7445 58.2503 36.8015 58.2433 36.768 58.1894C36.7486 58.1583 36.7573 58.1549 36.7952 58.1785C36.882 58.2322 36.989 58.2388 36.989 58.1905C36.989 58.1593 37.0053 58.16 37.0451 58.1929C37.1076 58.2444 37.8582 58.2384 37.8582 58.1863C37.8582 58.1697 37.8771 58.1562 37.9001 58.1562C37.9231 58.1562 37.9309 58.1738 37.9175 58.1955C37.9041 58.2171 37.9119 58.2348 37.9349 58.2348C37.9579 58.2348 37.9768 58.2171 37.9768 58.1955C37.9768 58.1738 38.029 58.1562 38.0929 58.1562C38.1568 58.1562 38.2201 58.1385 38.2336 58.1168C38.247 58.0952 38.338 58.0775 38.4358 58.0775C38.5675 58.0775 38.6059 58.0648 38.5839 58.0284C38.5638 57.995 38.5756 57.9966 38.6211 58.0332C38.6578 58.0629 38.688 58.0717 38.6882 58.0529C38.6884 58.034 38.7329 57.9981 38.7871 57.9731C38.8412 57.9481 38.8754 57.9441 38.863 57.964C38.8505 57.9841 38.9194 57.9566 39.0159 57.903C39.1125 57.8494 39.2036 57.8175 39.2185 57.8323C39.2333 57.847 39.2614 57.8332 39.2811 57.8016C39.3007 57.7699 39.3397 57.7422 39.3678 57.7399C39.4961 57.7294 39.5176 57.7211 39.5176 57.6821C39.5176 57.6592 39.4971 57.6531 39.472 57.6685C39.4429 57.6865 39.4371 57.6792 39.4563 57.6486C39.4727 57.6222 39.5147 57.6114 39.5496 57.6247C39.5892 57.6398 39.6411 57.615 39.6873 57.5587C39.7281 57.5089 39.7501 57.4902 39.7363 57.5169C39.7196 57.549 39.7319 57.5577 39.7722 57.5424C39.8058 57.5295 39.8235 57.5033 39.8117 57.4843C39.7998 57.4651 39.8198 57.4608 39.8559 57.4746C39.9105 57.4955 39.9167 57.4835 39.8918 57.4058C39.865 57.3216 39.8688 57.3174 39.9268 57.3653C39.9625 57.3948 39.9918 57.4011 39.9918 57.3794C39.9918 57.3576 40.0291 57.3301 40.0747 57.3183C40.1276 57.3045 40.1469 57.2792 40.1279 57.2486C40.1109 57.2213 40.1145 57.2107 40.1363 57.2241C40.1874 57.2555 40.4007 57.0704 40.3701 57.021C40.3569 56.9998 40.3641 56.9712 40.3862 56.9576C40.4083 56.9441 40.4269 56.9561 40.4275 56.9844C40.4289 57.0419 40.5225 56.9012 40.5241 56.8393C40.5246 56.8177 40.5442 56.8 40.5675 56.8C40.631 56.8 40.7424 56.6766 40.7424 56.6063C40.7424 56.5723 40.7602 56.5445 40.7819 56.5445C40.8037 56.5445 40.817 56.5231 40.8116 56.4969C40.8061 56.4706 40.8395 56.432 40.8857 56.411C40.9359 56.3882 40.9696 56.3365 40.9696 56.2822C40.9696 56.2324 41.0063 56.1605 41.051 56.1224C41.1562 56.033 41.2956 55.7787 41.2956 55.6762C41.2956 55.627 41.3127 55.607 41.3402 55.6239C41.3675 55.6407 41.3772 55.6302 41.3651 55.5968C41.3542 55.5667 41.3742 55.5082 41.4094 55.4666C41.4445 55.425 41.4511 55.404 41.424 55.4198C41.3968 55.4356 41.3746 55.4298 41.3746 55.4069C41.3746 55.384 41.3944 55.3653 41.4187 55.3653C41.4431 55.3653 41.4537 55.3308 41.4425 55.2881C41.4314 55.2457 41.4479 55.1898 41.4792 55.1639C41.5106 55.138 41.5273 55.0936 41.5163 55.0652C41.5055 55.0369 41.5183 54.9911 41.5451 54.9635C41.5718 54.9358 41.595 54.8401 41.5966 54.7508C41.5983 54.6614 41.6142 54.5553 41.6321 54.5149C41.6804 54.4061 41.6884 53.5178 41.6412 53.5178C41.618 53.5178 41.6202 53.4959 41.6467 53.4641C41.6804 53.4237 41.678 53.3845 41.6371 53.3061C41.6072 53.2487 41.5888 53.149 41.5964 53.0845C41.6041 53.0182 41.5771 52.9086 41.534 52.8323C41.4902 52.7547 41.4748 52.6918 41.4979 52.6841C41.5198 52.6769 41.5007 52.6284 41.4554 52.5763C41.3921 52.5038 41.3846 52.4744 41.4231 52.4501C41.4626 52.4251 41.4628 52.4182 41.424 52.4177C41.3955 52.4174 41.3746 52.367 41.3746 52.2992C41.3746 52.2344 41.3568 52.1813 41.3351 52.1813C41.3133 52.1813 41.2956 52.1501 41.2956 52.1121C41.2956 52.0741 41.26 52.0209 41.2165 51.9939C41.1662 51.9625 41.1375 51.9022 41.1375 51.8272C41.1375 51.7625 41.1227 51.7096 41.1047 51.7096C41.0867 51.7096 41.0471 51.6609 41.0166 51.6015C40.9862 51.542 40.9121 51.4476 40.8519 51.3916C40.7917 51.3357 40.7424 51.2683 40.7424 51.2419C40.7424 51.2155 40.7265 51.2037 40.7072 51.2157C40.6877 51.2276 40.6607 51.1933 40.6471 51.1393C40.6335 51.0855 40.5971 51.0413 40.5662 51.0413C40.5353 51.0413 40.4974 51.0209 40.4819 50.9959C40.4628 50.9654 40.4717 50.9612 40.5091 50.9831C40.5754 51.0219 40.4286 50.8391 40.3568 50.7935C40.3295 50.7761 40.2672 50.7222 40.2184 50.6737C40.1697 50.6252 40.0987 50.5737 40.0608 50.5591C40.0229 50.5447 39.9918 50.5057 39.9918 50.4727C39.9918 50.4395 39.9606 50.4127 39.9226 50.413C39.8635 50.4135 39.8621 50.4192 39.9127 50.4517C39.9542 50.4784 39.9568 50.4901 39.9213 50.4904C39.8936 50.4907 39.859 50.4601 39.8446 50.4222C39.8071 50.3239 39.7307 50.2552 39.6588 50.2552C39.6246 50.2552 39.5967 50.2364 39.5967 50.2135C39.5967 50.1906 39.5808 50.1817 39.5613 50.1937C39.5418 50.2057 39.5153 50.1879 39.5023 50.1542C39.4893 50.1206 39.4606 50.104 39.4386 50.1176C39.4166 50.1312 39.3878 50.1146 39.3748 50.0808C39.3618 50.0469 39.3342 50.0193 39.3136 50.0193C39.2928 50.0193 39.2887 50.0414 39.3044 50.0685C39.32 50.0955 39.2868 50.0759 39.2306 50.025C39.1744 49.9741 39.1113 49.943 39.0904 49.9559C39.0696 49.9686 39.0298 49.952 39.0021 49.9188C38.9745 49.8857 38.9293 49.8671 38.9018 49.8776C38.8742 49.8881 38.8295 49.8701 38.8022 49.8373C38.775 49.8046 38.7182 49.787 38.6757 49.798C38.6332 49.8091 38.5712 49.7909 38.5376 49.7574C38.4962 49.7163 38.4342 49.7037 38.3443 49.7181C38.2716 49.7299 38.2215 49.7243 38.2331 49.7058C38.2445 49.6872 38.2049 49.6622 38.145 49.6502C37.9606 49.6134 37.1414 49.5854 37.1609 49.6165ZM37.7341 50.8291C37.748 50.8447 37.7345 50.843 37.704 50.8254C37.6677 50.8044 37.6577 50.8084 37.6753 50.8366C37.69 50.8603 37.7811 50.8751 37.8775 50.8695C38.0005 50.8623 38.0593 50.876 38.0746 50.9155C38.0867 50.9468 38.1279 50.9634 38.168 50.953C38.2075 50.9427 38.2717 50.9575 38.3107 50.9858C38.3507 51.015 38.4291 51.028 38.4905 51.0158C38.5571 51.0025 38.6114 51.0135 38.6304 51.0441C38.6532 51.0808 38.6413 51.0865 38.5858 51.0653C38.5286 51.0437 38.5212 51.0478 38.5556 51.0822C38.5806 51.1073 38.6455 51.1305 38.6999 51.1337C38.7543 51.137 38.791 51.1524 38.7813 51.1679C38.7716 51.1835 38.8134 51.2067 38.874 51.2194C39.0256 51.2513 39.1049 51.3006 39.0919 51.3551C39.086 51.3803 39.0994 51.3897 39.1219 51.3759C39.1443 51.3621 39.1732 51.3784 39.1862 51.412C39.1992 51.4457 39.2258 51.4635 39.2452 51.4515C39.2647 51.4395 39.2806 51.4498 39.2806 51.4742C39.2806 51.5501 39.3894 51.6385 39.4125 51.5814C39.4235 51.5546 39.4338 51.5744 39.4355 51.6254C39.4376 51.6872 39.4567 51.7111 39.493 51.6972C39.5634 51.6704 39.6361 51.7427 39.6091 51.8127C39.5966 51.8451 39.6141 51.8668 39.653 51.8668C39.6885 51.8668 39.7291 51.8978 39.7431 51.9356C39.7572 51.9734 39.7878 52.017 39.8111 52.0324C39.8344 52.0478 39.8539 52.0832 39.8544 52.111C39.8549 52.1388 39.886 52.1564 39.9235 52.15C39.961 52.1438 39.9918 52.157 39.9918 52.1795C39.9918 52.2021 39.973 52.2206 39.9501 52.2206C39.9271 52.2206 39.9582 52.267 40.0192 52.3238C40.0802 52.3805 40.0959 52.4026 40.054 52.3729C39.9796 52.32 39.9795 52.3212 40.0486 52.427C40.0876 52.4864 40.1346 52.5351 40.153 52.5351C40.1716 52.5351 40.1759 52.5634 40.1625 52.598C40.1492 52.6326 40.1572 52.6725 40.1804 52.6868C40.2035 52.701 40.2283 52.7387 40.2355 52.7703C40.2427 52.8021 40.2692 52.8502 40.2944 52.8773C40.3197 52.9046 40.3309 52.9624 40.3195 53.0061C40.3077 53.0507 40.3179 53.0854 40.3427 53.0854C40.367 53.0854 40.3868 53.1384 40.3868 53.2033C40.3868 53.2682 40.4046 53.3212 40.4264 53.3212C40.4509 53.3212 40.4659 53.5308 40.4659 53.8715C40.4659 54.1742 40.4499 54.4219 40.4303 54.4219C40.4107 54.4219 40.3965 54.487 40.3988 54.5666C40.4011 54.6478 40.382 54.7183 40.3553 54.7271C40.3293 54.7357 40.3078 54.7945 40.3078 54.8575C40.3078 54.9206 40.289 54.9722 40.2658 54.9722C40.2427 54.9722 40.227 55.0031 40.2309 55.041C40.2425 55.1553 40.2305 55.2137 40.1992 55.1945C40.1829 55.1844 40.1669 55.2202 40.1636 55.2739C40.1605 55.3275 40.1203 55.4112 40.0744 55.4597C40.0285 55.5082 40.0012 55.5582 40.0138 55.5707C40.0263 55.583 40.0148 55.6066 39.9883 55.6229C39.9575 55.6419 39.9502 55.6362 39.9682 55.6072C39.9838 55.5822 39.9776 55.5618 39.9546 55.5618C39.9316 55.5618 39.9127 55.5972 39.9127 55.6404C39.9127 55.6837 39.895 55.719 39.8732 55.719C39.8515 55.719 39.8337 55.7467 39.8337 55.7804C39.8337 55.8171 39.8152 55.8303 39.7875 55.8132C39.7562 55.7939 39.7497 55.8064 39.7672 55.8522C39.7826 55.8921 39.7774 55.9099 39.7544 55.8957C39.7331 55.8826 39.6933 55.9206 39.666 55.9802C39.6039 56.1161 39.4639 56.2581 39.4099 56.2402C39.3874 56.2327 39.3049 56.2867 39.2266 56.3601C39.1484 56.4335 39.0756 56.4848 39.065 56.4741C39.0542 56.4633 39.0342 56.4836 39.0206 56.519C39.0069 56.5544 38.9798 56.5736 38.9604 56.5616C38.9409 56.5496 38.925 56.5658 38.925 56.5975C38.925 56.6361 38.8984 56.6482 38.8443 56.634C38.7892 56.6198 38.7673 56.6303 38.7752 56.6673C38.7831 56.7041 38.7551 56.7177 38.6879 56.7098C38.6098 56.7007 38.6016 56.7067 38.6484 56.7387C38.7101 56.7808 38.7152 56.7788 38.4986 56.7965C38.4705 56.7988 38.435 56.8188 38.4196 56.8408C38.4042 56.8629 38.3521 56.8784 38.3037 56.8754C38.2554 56.8723 38.2254 56.885 38.2369 56.9037C38.2485 56.9224 38.2303 56.9399 38.1964 56.9425C38.083 56.9516 38.0625 56.9571 38.0328 56.9867C37.9889 57.0304 37.9287 57.0225 37.957 56.9769C37.9704 56.9553 37.9641 56.9376 37.9429 56.9376C37.9216 56.9376 37.8982 56.9558 37.8908 56.9779C37.8801 57.0101 37.6165 57.0487 37.3644 57.0551C37.203 57.0592 36.8467 57.0083 36.8148 56.9765C36.7589 56.9209 36.7022 56.9284 36.7374 56.9867C36.7576 57.0201 36.7457 57.0186 36.7003 56.9819C36.6636 56.9522 36.6334 56.941 36.6334 56.957C36.6334 56.9729 36.5875 56.9561 36.5315 56.9195C36.4754 56.883 36.4036 56.8629 36.372 56.875C36.3403 56.8871 36.3042 56.8708 36.2919 56.8386C36.2601 56.7561 36.1967 56.7658 36.2235 56.8492C36.2423 56.907 36.2391 56.9085 36.2039 56.859C36.1809 56.8266 36.1303 56.7992 36.0915 56.7982C36.0527 56.7972 36.026 56.7737 36.0319 56.7461C36.0392 56.7122 36.0167 56.7041 35.9628 56.7211C35.9025 56.7401 35.8826 56.7287 35.8822 56.6749C35.8817 56.6144 35.8756 56.6125 35.8432 56.6624C35.8109 56.7122 35.8048 56.7099 35.8043 56.6484C35.8039 56.5997 35.784 56.5829 35.7445 56.5981C35.7119 56.6105 35.6852 56.6041 35.6852 56.5838C35.6852 56.5636 35.6593 56.5569 35.6276 56.569C35.5902 56.5832 35.5615 56.5588 35.5459 56.4989C35.5328 56.4483 35.4758 56.3729 35.4193 56.3315C35.3628 56.2899 35.3295 56.2766 35.3452 56.302C35.3609 56.3272 35.355 56.348 35.332 56.348C35.309 56.348 35.2901 56.3202 35.2901 56.2862C35.2901 56.2523 35.2647 56.1992 35.2337 56.1682C35.169 56.104 35.1155 56.0929 35.1518 56.1514C35.1653 56.173 35.1593 56.1907 35.1386 56.1907C35.118 56.1907 35.0904 56.1633 35.0775 56.1297C35.064 56.0947 35.0706 56.079 35.0931 56.0928C35.1658 56.1375 35.1326 56.0698 35.0333 55.971C34.979 55.917 34.9345 55.8822 34.9345 55.8938C34.9345 55.9054 34.9006 55.8858 34.859 55.8504C34.8174 55.815 34.7912 55.766 34.8007 55.7413C34.8102 55.7168 34.7819 55.6582 34.738 55.6112C34.6939 55.5643 34.658 55.5004 34.658 55.4694C34.658 55.4384 34.6287 55.4018 34.5931 55.3882C34.5573 55.3746 34.5397 55.3519 34.5539 55.3377C34.5681 55.3237 34.5395 55.2682 34.4904 55.2144C34.4414 55.1607 34.4234 55.1295 34.4505 55.145C34.4777 55.1607 34.4999 55.1547 34.4999 55.1318C34.4999 55.1089 34.4821 55.0901 34.4604 55.0901C34.4387 55.0901 34.4209 55.0547 34.4209 55.0115C34.4209 54.9683 34.4031 54.9329 34.3814 54.9329C34.3597 54.9329 34.3419 54.8724 34.3419 54.7985C34.3419 54.7247 34.323 54.658 34.3 54.6503C34.277 54.6428 34.2564 54.58 34.2545 54.5109C34.2522 54.4308 34.2352 54.3946 34.2076 54.4112C34.1837 54.4253 34.1908 54.4042 34.2234 54.3641C34.2686 54.3085 34.2709 54.2872 34.2332 54.2747C34.1757 54.2554 34.1612 53.5571 34.2183 53.5571C34.2373 53.5571 34.2545 53.4744 34.2565 53.3735C34.2586 53.2725 34.2812 53.177 34.3068 53.1612C34.3324 53.1455 34.3427 53.1048 34.3295 53.0708C34.3165 53.0368 34.3316 52.9833 34.3633 52.9517C34.4338 52.8816 34.4389 52.8341 34.3715 52.8744C34.317 52.907 34.4148 52.7702 34.4802 52.7224C34.5038 52.7051 34.4975 52.6933 34.4643 52.6929C34.4283 52.6925 34.4409 52.6647 34.4999 52.6137C34.55 52.5704 34.5705 52.5351 34.5455 52.5351C34.5205 52.5351 34.4999 52.5163 34.4999 52.4934C34.4999 52.4705 34.5177 52.4627 34.5394 52.4761C34.5612 52.4895 34.5789 52.4718 34.5789 52.4368C34.5789 52.4018 34.5947 52.3828 34.614 52.3947C34.6333 52.4065 34.6619 52.3767 34.6778 52.3283C34.6936 52.2799 34.7112 52.227 34.7168 52.2108C34.7225 52.1946 34.7294 52.1657 34.732 52.1466C34.7348 52.1274 34.7725 52.1026 34.816 52.0913C34.8641 52.0788 34.895 52.0376 34.895 51.9861C34.895 51.9395 34.9084 51.9091 34.9247 51.9183C34.941 51.9276 34.9937 51.8944 35.0418 51.8448C35.1015 51.7832 35.114 51.7484 35.0813 51.7351C35.0549 51.7245 35.0778 51.7141 35.1321 51.712C35.2108 51.7091 35.2188 51.7006 35.1716 51.6703C35.1134 51.6328 35.157 51.6107 35.2591 51.6259C35.2746 51.6281 35.2771 51.6036 35.2645 51.5711C35.2477 51.5274 35.26 51.5191 35.3119 51.5389C35.3533 51.5547 35.3724 51.5501 35.3584 51.5276C35.3454 51.5067 35.371 51.467 35.4154 51.4394C35.4815 51.3983 35.4911 51.3987 35.4691 51.4413C35.4544 51.47 35.4676 51.4627 35.4985 51.4252C35.5294 51.3878 35.5663 51.3686 35.5805 51.3826C35.5946 51.3967 35.6062 51.3876 35.6062 51.3624C35.6062 51.3371 35.6308 51.3165 35.6608 51.3165C35.6909 51.3165 35.7245 51.2823 35.7355 51.2404C35.7505 51.1835 35.7781 51.1703 35.845 51.1877C35.9071 51.2038 35.9259 51.1969 35.9064 51.1655C35.8774 51.1189 35.9232 51.1047 36.0562 51.1189C36.1062 51.1242 36.1238 51.1084 36.1093 51.0709C36.0934 51.0296 36.1202 51.016 36.2125 51.0184C36.288 51.0204 36.3337 51.0035 36.3282 50.9755C36.3225 50.9455 36.3632 50.9349 36.445 50.9452C36.5177 50.9544 36.5832 50.9407 36.6005 50.9127C36.6175 50.8855 36.7128 50.8645 36.8197 50.8645C36.9238 50.8645 37.0058 50.8468 37.0022 50.8252C36.9946 50.7801 37.6935 50.7839 37.7341 50.8291ZM48.5456 68.7118C48.3717 68.8934 48.2006 69.0518 48.1653 69.064C48.1287 69.0765 48.1011 69.129 48.1011 69.1856C48.1011 69.252 48.1185 69.2784 48.1534 69.2651C48.1886 69.2516 48.1977 69.266 48.1811 69.3089C48.1625 69.3572 48.1731 69.3664 48.2247 69.3466C48.2643 69.3315 48.283 69.3365 48.2693 69.3585C48.2386 69.408 48.7532 69.92 48.8029 69.8894C48.825 69.8757 48.83 69.8944 48.8148 69.9338C48.795 69.9851 48.8043 69.9956 48.8528 69.9771C48.9002 69.9591 48.9104 69.9693 48.8923 70.0165C48.8741 70.0636 48.8844 70.0738 48.9318 70.0558C48.9792 70.0377 48.9895 70.0479 48.9713 70.0951C48.9527 70.1433 48.9633 70.1526 49.0148 70.1328C49.0584 70.1162 49.0736 70.122 49.0568 70.149C49.0256 70.1992 49.2737 70.466 49.3232 70.4356C49.3421 70.424 49.3526 70.4379 49.3466 70.4665C49.3406 70.4952 49.3593 70.5138 49.3881 70.5078C49.4169 70.5019 49.4307 70.5127 49.4187 70.5319C49.3896 70.5789 49.6632 70.8233 49.7116 70.7935C49.7337 70.7798 49.7388 70.7984 49.7235 70.8379C49.7037 70.8892 49.713 70.8997 49.7615 70.8812C49.8089 70.8632 49.8192 70.8734 49.801 70.9205C49.7824 70.9688 49.793 70.978 49.8445 70.9583C49.8842 70.9431 49.9029 70.9482 49.8893 70.9701C49.8586 71.0195 50.4522 71.6101 50.5019 71.5795C50.5239 71.566 50.5289 71.5847 50.5137 71.6241C50.4939 71.6754 50.5032 71.6859 50.5517 71.6674C50.5991 71.6493 50.6094 71.6595 50.5912 71.7067C50.5726 71.755 50.5832 71.7642 50.6347 71.7444C50.6748 71.7291 50.6931 71.7342 50.6791 71.7567C50.666 71.7779 50.6917 71.8341 50.7364 71.8816C50.8361 71.9883 50.8364 72.0026 50.741 72.0886C50.6969 72.1284 50.6747 72.1834 50.6886 72.2194C50.7065 72.2659 50.6955 72.2749 50.6444 72.2555C50.6061 72.2408 50.5861 72.2454 50.599 72.2661C50.6286 72.3138 50.35 72.591 50.302 72.5616C50.2812 72.5488 50.2766 72.5686 50.2913 72.6068C50.3113 72.6584 50.302 72.6687 50.2525 72.6497C50.1797 72.622 48.9427 73.8192 48.9809 73.8806C49.0066 73.922 48.6522 74.2821 48.6108 74.2565C48.5947 74.2466 48.4711 74.3416 48.3363 74.4677C48.1048 74.6841 48.0524 74.7504 48.1208 74.7396C48.2064 74.7262 48.2146 74.7524 48.1478 74.8258C48.0925 74.8866 48.0884 74.904 48.1318 74.8946C48.1638 74.8875 48.1855 74.904 48.1801 74.931C48.1747 74.958 48.1925 74.9757 48.2196 74.9703C48.2468 74.9649 48.2646 74.9826 48.2591 75.0096C48.2537 75.0366 48.27 75.0543 48.2954 75.0489C48.3208 75.0435 48.3623 75.0788 48.3878 75.1273C48.4133 75.1758 48.4458 75.2038 48.4602 75.1895C48.4746 75.1753 48.4863 75.1925 48.4863 75.2279C48.4863 75.269 48.5077 75.284 48.5461 75.2693C48.5888 75.2529 48.5988 75.2645 48.5811 75.3103C48.563 75.3575 48.5732 75.3677 48.6206 75.3496C48.6698 75.3308 48.6784 75.3415 48.6577 75.3953C48.6369 75.4491 48.6456 75.4598 48.6947 75.441C48.7421 75.4229 48.7524 75.4331 48.7342 75.4803C48.7161 75.5275 48.7263 75.5377 48.7737 75.5196C48.8189 75.5023 48.8313 75.512 48.8159 75.552C48.8038 75.5834 48.8136 75.609 48.8376 75.609C48.8617 75.609 48.8814 75.5878 48.8814 75.5619C48.8814 75.527 48.893 75.5262 48.9257 75.5588C48.9759 75.6087 49.0902 75.5803 49.0566 75.5263C49.0446 75.5069 49.0635 75.4911 49.0987 75.4911C49.1339 75.4911 49.1516 75.4734 49.1382 75.4518C49.1248 75.4302 49.1426 75.4125 49.1777 75.4125C49.2129 75.4125 49.2307 75.3948 49.2172 75.3732C49.2038 75.3516 49.2143 75.3339 49.2404 75.3339C49.3026 75.3339 50.0667 74.5737 50.0667 74.5119C50.0667 74.4858 50.0845 74.4754 50.1062 74.4888C50.1279 74.5021 50.1457 74.4844 50.1457 74.4494C50.1457 74.4145 50.1635 74.3968 50.1852 74.4101C50.2069 74.4235 50.2247 74.4058 50.2247 74.3708C50.2247 74.3358 50.2381 74.3144 50.2544 74.3233C50.2935 74.3445 50.7788 73.8542 50.7485 73.8242C50.7357 73.8114 50.7558 73.8009 50.7934 73.8009C50.8309 73.8009 50.8506 73.7832 50.8371 73.7616C50.8237 73.7399 50.8356 73.7222 50.8638 73.7222C50.8918 73.7222 51.1048 73.5339 51.337 73.3036L51.7591 72.8849L51.9597 73.0898C52.07 73.2025 52.178 73.2839 52.1996 73.2706C52.223 73.2561 52.2283 73.2737 52.2126 73.3143C52.1928 73.3656 52.2021 73.3761 52.2506 73.3577C52.298 73.3396 52.3083 73.3498 52.2901 73.397C52.2715 73.4452 52.2821 73.4545 52.3336 73.4347C52.3768 73.4182 52.3923 73.424 52.3759 73.4504C52.3446 73.5008 52.5132 73.6894 52.5625 73.6592C52.5817 73.6474 52.5923 73.6612 52.5864 73.6898C52.5804 73.7185 52.5978 73.7375 52.6249 73.7321C52.6521 73.7267 52.6699 73.7444 52.6644 73.7714C52.659 73.7984 52.6781 73.8157 52.7069 73.8097C52.7357 73.8038 52.7496 73.8144 52.7377 73.8335C52.7073 73.8825 52.8969 74.0503 52.9475 74.0191C52.9741 74.0028 52.9799 74.0182 52.9633 74.0612C52.9435 74.1125 52.9528 74.123 53.0013 74.1045C53.0487 74.0864 53.0589 74.0967 53.0408 74.1438C53.0222 74.1921 53.0328 74.2013 53.0843 74.1816C53.1238 74.1665 53.1427 74.1714 53.1291 74.1933C53.0985 74.2426 53.8502 74.9905 53.8998 74.9601C53.9217 74.9465 53.9267 74.9653 53.9116 75.0046C53.8913 75.0572 53.9007 75.0665 53.9535 75.0463C53.9971 75.0297 54.0123 75.0355 53.9955 75.0626C53.9643 75.1128 54.2124 75.3796 54.2619 75.3491C54.2808 75.3375 54.2912 75.3515 54.2853 75.3801C54.2793 75.4088 54.298 75.4273 54.3268 75.4213C54.3555 75.4155 54.3691 75.4267 54.3568 75.4464C54.3234 75.5001 54.4503 75.5888 54.5669 75.5935C54.6765 75.5978 54.9802 75.3495 54.9416 75.2872C54.9299 75.2685 54.944 75.2582 54.9728 75.2641C55.0016 75.2701 55.0203 75.2515 55.0143 75.2228C55.0083 75.1942 55.0187 75.1802 55.0374 75.1917C55.056 75.2032 55.1498 75.133 55.2456 75.0358C55.3796 74.8999 55.4074 74.8515 55.3658 74.8258C55.336 74.8075 55.3116 74.7452 55.3116 74.6875C55.3116 74.6126 55.2954 74.5886 55.2552 74.6039C55.2242 74.6157 55.2085 74.6099 55.2202 74.5911C55.2484 74.5457 55.1448 74.4613 55.1071 74.4989C55.091 74.515 55.0837 74.5015 55.091 74.4691C55.0982 74.4367 55.0847 74.4137 55.0608 74.418C55.037 74.4222 54.9481 74.3533 54.8632 74.2648C54.7785 74.1763 54.7313 74.1163 54.7584 74.1315C54.8754 74.1973 54.7806 74.0873 54.3539 73.6629C53.9279 73.2389 53.8159 73.1433 53.8831 73.2604C53.8986 73.2874 53.8565 73.2588 53.7897 73.1969C53.7134 73.1263 53.6769 73.0614 53.6917 73.0231C53.709 72.978 53.6978 72.9684 53.6496 72.9868C53.6099 73.002 53.5877 72.9938 53.5934 72.966C53.5985 72.9407 53.5761 72.9192 53.5435 72.9182C53.5109 72.9172 53.4835 72.8899 53.4825 72.8575C53.4815 72.825 53.4599 72.8027 53.4345 72.8078C53.4065 72.8135 53.3982 72.7914 53.4135 72.7519C53.432 72.704 53.4223 72.6929 53.3771 72.7101C53.3386 72.7248 53.2733 72.6884 53.2024 72.6126C53.1401 72.546 53.1114 72.5042 53.1386 72.5196C53.2446 72.5798 53.1771 72.4914 52.9269 72.2425L52.6658 71.9829L53.0652 71.5842C53.2848 71.3649 53.4645 71.1627 53.4645 71.1348C53.4645 71.1068 53.4823 71.0949 53.504 71.1082C53.5257 71.1216 53.5435 71.1039 53.5435 71.0689C53.5435 71.0339 53.5569 71.0126 53.5732 71.0215C53.6123 71.0428 54.0187 70.631 53.9884 70.6009C53.9755 70.5881 53.9956 70.5776 54.0331 70.5776C54.0707 70.5776 54.0903 70.5599 54.0769 70.5383C54.0635 70.5167 54.0755 70.499 54.1036 70.499C54.1889 70.499 55.0843 69.5849 55.085 69.4972C55.0855 69.4316 55.0922 69.4282 55.1239 69.4769C55.1559 69.5263 55.1623 69.5236 55.1628 69.4605C55.1631 69.4192 55.1742 69.396 55.1873 69.409C55.2006 69.4221 55.2539 69.3906 55.306 69.3388C55.4029 69.2422 55.4152 69.0538 55.323 69.075C55.2972 69.0809 55.2866 69.0688 55.2995 69.048C55.3485 68.9692 54.7033 68.3763 54.5684 68.3763C54.4422 68.3763 53.8763 68.8973 53.9222 68.9712C53.948 69.0129 53.5867 69.3659 53.5446 69.3401C53.4999 69.3125 52.272 70.5341 52.2997 70.5787C52.3268 70.6224 51.9699 70.9794 51.926 70.9525C51.9079 70.9414 51.8708 70.959 51.8435 70.9916C51.8126 71.0287 51.7626 71.0417 51.7107 71.0261C51.6545 71.0093 51.6402 71.0141 51.6668 71.041C51.6886 71.063 51.7419 71.0875 51.7854 71.0956C51.8399 71.1056 51.8495 71.1194 51.8162 71.1403C51.7863 71.1589 51.7109 71.1159 51.6186 71.0278C51.5364 70.9492 51.4915 70.8965 51.5187 70.9105C51.6324 70.9692 51.5422 70.8655 51.0746 70.4003C50.6123 69.9404 50.4964 69.84 50.5643 69.9585C50.5798 69.9855 50.5377 69.9569 50.4709 69.895C50.3946 69.8244 50.3581 69.7595 50.3729 69.7212C50.3905 69.6755 50.3791 69.6665 50.3283 69.6859C50.2908 69.7002 50.2698 69.6964 50.2815 69.6775C50.3097 69.6321 50.2062 69.5478 50.1684 69.5853C50.1523 69.6015 50.145 69.588 50.1523 69.5556C50.1595 69.5231 50.146 69.5001 50.1221 69.5045C50.0983 69.5087 50.0094 69.4398 49.9246 69.3513C49.8398 69.2627 49.7926 69.2028 49.8198 69.218C49.935 69.2828 49.8451 69.177 49.4548 68.7886C48.9434 68.2798 48.958 68.2811 48.5456 68.7118ZM54.1757 68.7891C54.1248 68.8429 54.0755 68.8794 54.0662 68.8701C54.0449 68.8489 54.2289 68.6567 54.2515 68.6765C54.2607 68.6846 54.2265 68.7352 54.1757 68.7891ZM49.9675 69.3586C50.0297 69.4233 50.0883 69.4685 50.0976 69.4593C50.1182 69.4388 49.9241 69.2411 49.8833 69.2411C49.8674 69.2411 49.9053 69.294 49.9675 69.3586ZM53.425 69.5359C53.3513 69.6116 53.2761 69.6735 53.2581 69.6735C53.2139 69.6735 53.4741 69.4044 53.5216 69.401C53.5422 69.3995 53.4987 69.4602 53.425 69.5359ZM50.4422 69.8309C50.4817 69.8744 50.5221 69.9017 50.5321 69.8917C50.5534 69.8705 50.4408 69.7521 50.3993 69.7521C50.3835 69.7521 50.4028 69.7876 50.4422 69.8309ZM52.5163 70.44C52.4432 70.515 52.376 70.569 52.3669 70.5601C52.3459 70.5391 52.6094 70.2697 52.6321 70.2891C52.6415 70.297 52.5894 70.365 52.5163 70.44ZM50.8369 72.1108C50.7974 72.1542 50.7573 72.1819 50.7477 72.1724C50.7246 72.1494 50.8273 72.0354 50.8729 72.0335C50.8925 72.0327 50.8763 72.0675 50.8369 72.1108ZM53.2474 72.6218C53.2869 72.6652 53.3273 72.6926 53.3373 72.6826C53.3586 72.6614 53.246 72.543 53.2044 72.543C53.1886 72.543 53.208 72.5785 53.2474 72.6218ZM50.1457 72.7985C50.0946 72.8525 50.0376 72.8968 50.0189 72.8968C49.9742 72.8968 50.1544 72.7057 50.202 72.7026C50.2221 72.7013 50.1968 72.7445 50.1457 72.7985ZM53.761 73.1328C53.8005 73.1763 53.8409 73.2036 53.8509 73.1936C53.8722 73.1724 53.7596 73.054 53.7181 73.054C53.7023 73.054 53.7216 73.0895 53.761 73.1328ZM49.237 73.7026C49.1861 73.7564 49.1368 73.7929 49.1275 73.7837C49.1062 73.7624 49.2902 73.5702 49.3128 73.5901C49.322 73.5981 49.2879 73.6487 49.237 73.7026ZM30.3392 74.2004C30.4302 74.2051 30.4958 74.2233 30.4851 74.2408C30.4742 74.2583 30.5107 74.2726 30.5664 74.2726C30.622 74.2726 30.6675 74.2903 30.6675 74.3119C30.6675 74.3335 30.6995 74.3512 30.7386 74.3512C30.832 74.3512 31.0224 74.44 31.0228 74.4837C31.023 74.5026 31.0532 74.4938 31.09 74.4641C31.1267 74.4344 31.1447 74.4303 31.1299 74.4549C31.1144 74.4806 31.1362 74.5081 31.1815 74.5199C31.2248 74.5311 31.2601 74.565 31.2601 74.5951C31.2601 74.6253 31.3227 74.6723 31.399 74.6998C31.4755 74.7273 31.5277 74.7663 31.5153 74.7863C31.5027 74.8065 31.5213 74.8229 31.5565 74.8229C31.5916 74.8229 31.6095 74.8404 31.5963 74.8617C31.5829 74.8831 31.5969 74.8912 31.6271 74.8796C31.6968 74.8529 31.7902 74.9612 31.7513 75.0237C31.7328 75.0536 31.7388 75.0606 31.7676 75.0428C31.7927 75.0274 31.8133 75.0335 31.8133 75.0564C31.8133 75.0793 31.8488 75.1334 31.8923 75.1767C31.9358 75.2199 31.9713 75.2818 31.9713 75.3142C31.9713 75.3467 31.9969 75.3732 32.0282 75.3732C32.0595 75.3732 32.0978 75.3936 32.1134 75.4186C32.1314 75.4477 32.1241 75.4533 32.093 75.4341C32.0478 75.4063 32.1105 75.551 32.1689 75.609C32.2213 75.6612 32.2874 75.8126 32.2874 75.8804C32.2874 75.9221 32.3041 75.9621 32.3245 75.9694C32.3451 75.9766 32.3703 76.0295 32.3806 76.0871C32.3909 76.1447 32.415 76.2243 32.434 76.264C32.4883 76.3776 32.4637 77.2637 32.4052 77.2997C32.3784 77.3163 32.3665 77.3464 32.3791 77.3665C32.3916 77.3867 32.3761 77.4526 32.3447 77.5129C32.3132 77.5734 32.2874 77.6473 32.2874 77.6772C32.2874 77.7072 32.2696 77.7317 32.2479 77.7317C32.2262 77.7317 32.2084 77.7671 32.2084 77.8103C32.2084 77.8535 32.1885 77.8889 32.1642 77.8889C32.1394 77.8889 32.1293 77.9236 32.141 77.9682C32.1525 78.0119 32.1368 78.0725 32.106 78.103C32.0754 78.1335 32.0503 78.1775 32.0503 78.2005C32.0503 78.2237 32.037 78.2428 32.0207 78.243C32.0044 78.2431 31.9609 78.296 31.924 78.3604C31.8793 78.4387 31.8366 78.4699 31.7956 78.4543C31.7564 78.4392 31.7343 78.4528 31.7343 78.4918C31.7343 78.5253 31.6809 78.5841 31.6157 78.6224C31.5505 78.6607 31.4972 78.7158 31.4972 78.7449C31.4972 78.7739 31.4839 78.7896 31.4676 78.7799C31.4289 78.7566 31.3366 78.8559 31.3679 78.8871C31.381 78.9002 31.3465 78.9109 31.2911 78.9109C31.2263 78.9109 31.1835 78.9369 31.1712 78.9837C31.1581 79.0337 31.1004 79.0646 30.9869 79.0827C30.8959 79.0973 30.8325 79.1261 30.8455 79.1471C30.8593 79.1693 30.8408 79.1744 30.8013 79.1593C30.7598 79.1435 30.7433 79.1491 30.7586 79.1737C30.774 79.1985 30.7479 79.2072 30.691 79.1964C30.6397 79.1867 30.5744 79.2045 30.5443 79.2364C30.5077 79.2754 30.4425 79.2876 30.3418 79.2742C30.2322 79.2595 30.1934 79.2686 30.1935 79.3086C30.1936 79.3864 29.5992 79.386 29.5379 79.3083C29.5077 79.2698 29.4531 79.2614 29.3541 79.2799C29.2501 79.2993 29.1966 79.2894 29.1488 79.2419C29.1133 79.2065 29.0515 79.1862 29.0113 79.1967C28.9695 79.2075 28.9111 79.184 28.8748 79.1419C28.8399 79.1014 28.7756 79.0682 28.7319 79.0682C28.6883 79.0682 28.6525 79.0494 28.6525 79.0265C28.6525 79.0036 28.6362 78.995 28.6162 79.0072C28.5962 79.0195 28.5538 79.0037 28.5221 78.9722C28.4903 78.9405 28.4534 78.9257 28.4399 78.939C28.4264 78.9524 28.4155 78.9338 28.4155 78.8979C28.4155 78.8586 28.3838 78.8323 28.3364 78.8323C28.293 78.8323 28.2574 78.8146 28.2574 78.793C28.2574 78.7714 28.238 78.7581 28.2143 78.7635C28.1904 78.7689 28.1504 78.738 28.1254 78.6947C28.0653 78.5916 28.0138 78.557 27.963 78.5858C27.9403 78.5985 27.9341 78.5952 27.9495 78.5782C27.9649 78.5613 27.9383 78.5148 27.8903 78.475C27.8423 78.4351 27.8184 78.402 27.837 78.4012C27.8558 78.4005 27.8291 78.3632 27.7778 78.3184C27.7265 78.2735 27.7068 78.2479 27.7339 78.2617C27.7611 78.2754 27.7833 78.268 27.7833 78.2451C27.7833 78.2222 27.7555 78.2034 27.7217 78.2034C27.6878 78.2034 27.6699 78.1876 27.682 78.1682C27.694 78.1489 27.6754 78.1221 27.6407 78.109C27.6047 78.0952 27.5872 78.0596 27.6002 78.0262C27.6126 77.9939 27.6056 77.9675 27.5845 77.9675C27.5634 77.9675 27.5462 77.932 27.5462 77.8885C27.5462 77.8451 27.5129 77.7811 27.4722 77.7464C27.4298 77.7103 27.4062 77.6522 27.417 77.6106C27.4276 77.5706 27.4072 77.5091 27.3716 77.4737C27.3239 77.4263 27.3139 77.373 27.3335 77.2695C27.3521 77.1711 27.3436 77.1167 27.3049 77.0866C27.2268 77.0257 27.2264 76.4343 27.3045 76.4344C27.3454 76.4345 27.3537 76.395 27.3379 76.2773C27.3263 76.1908 27.332 76.1201 27.3506 76.1201C27.3872 76.1201 27.476 75.8406 27.4483 75.813C27.4391 75.8037 27.4573 75.7705 27.4889 75.7392C27.556 75.6723 27.5662 75.5921 27.5027 75.6313C27.4787 75.646 27.4886 75.6131 27.5248 75.5582C27.561 75.5033 27.6161 75.4487 27.6474 75.4367C27.6787 75.4248 27.7043 75.376 27.7043 75.3286C27.7043 75.281 27.715 75.2529 27.7283 75.266C27.7596 75.2971 27.8595 75.2052 27.836 75.1668C27.8263 75.1506 27.8458 75.1373 27.8797 75.1373C27.9136 75.1373 27.9413 75.115 27.9413 75.0878C27.9413 75.0605 27.9936 74.9952 28.0576 74.9427C28.1215 74.8902 28.1657 74.8341 28.1557 74.8181C28.1457 74.8021 28.1584 74.7762 28.1838 74.7606C28.2128 74.7428 28.2195 74.7492 28.2019 74.7775C28.1864 74.8024 28.1925 74.8229 28.2155 74.8229C28.2385 74.8229 28.2574 74.7973 28.2574 74.7662C28.2574 74.7349 28.3098 74.6786 28.3738 74.641C28.4378 74.6033 28.4833 74.5616 28.475 74.5482C28.4667 74.5347 28.5123 74.5042 28.5763 74.4801C28.6402 74.456 28.6825 74.4526 28.6702 74.4724C28.6579 74.4922 28.6666 74.5084 28.6897 74.5084C28.7127 74.5084 28.7315 74.4835 28.7315 74.4531C28.7315 74.4172 28.7592 74.405 28.8105 74.4184C28.8547 74.4299 28.8896 74.4196 28.8896 74.3951C28.8896 74.3709 28.9207 74.3506 28.9587 74.3499C28.9967 74.3492 29.0625 74.3226 29.1048 74.2907C29.1471 74.2589 29.2137 74.243 29.253 74.2554C29.2922 74.2677 29.3242 74.2598 29.3242 74.2378C29.3242 74.1947 29.7055 74.1622 29.9958 74.1805C30.0936 74.1867 30.2481 74.1956 30.3392 74.2004ZM54.9062 74.2722C54.9684 74.3368 55.027 74.382 55.0363 74.3728C55.0569 74.3524 54.8627 74.1546 54.822 74.1546C54.8061 74.1546 54.844 74.2075 54.9062 74.2722ZM48.4863 74.4494C48.4126 74.5251 48.3375 74.587 48.3194 74.587C48.2752 74.587 48.5354 74.318 48.5829 74.3145C48.6035 74.313 48.56 74.3738 48.4863 74.4494Z" fill="white"/>
</g>
</svg>
