<svg width="114" height="104" viewBox="0 0 114 104" fill="none" xmlns="http://www.w3.org/2000/svg">
<g id="Group 1261152879">
<path id="Vector 16" d="M99.9391 78.5265C92.7407 84.3123 51.8119 103.581 40.8095 103.581C-31.1744 99.9651 9.18797 8.01157 32.8398 1.03757C56.4917 -5.93643 52.1493 24.3876 68.6028 28.262C81.7656 31.3616 94.626 34.1856 98.6537 35.9076C127.131 49.3706 108.937 71.2942 99.9391 78.5265Z" fill="#CA256D"/>
<g id="Group 1261152964">
<path id="Vector" d="M72.4162 64.8592C71.2493 61.5667 69.1804 59.3121 65.5729 58.8184C65.1536 58.7593 65.1306 58.5456 65.0816 58.2252C64.9464 57.2937 64.6016 56.4052 64.0731 55.627C62.1109 52.7604 59.3188 51.418 55.9302 51.7297C54.3354 51.8741 53.3744 51.379 52.2694 50.3729C47.6044 46.1105 41.3027 45.8737 36.6161 49.7436C34.0545 51.8654 32.4942 54.5387 32.7997 58.013C32.8429 58.5124 32.5115 58.4778 32.2565 58.5254C31.5709 58.6293 30.9035 58.83 30.2741 59.1216C24.5314 61.9175 23.1628 70.5607 27.7399 75.1581C29.816 77.2395 32.3833 78.1416 35.2633 78.1691C39.3731 78.2085 43.4835 78.2052 47.5943 78.159H50.1991C52.3746 78.1878 54.5515 78.172 56.7269 78.172C58.1158 78.172 59.5061 78.1835 60.8963 78.1835C61.5908 78.1835 62.2852 78.1796 62.9796 78.172C64.9966 78.1402 66.9142 77.661 68.6358 76.5365C72.373 74.1174 73.9535 69.2039 72.4162 64.8592Z" stroke="white" stroke-width="2" stroke-miterlimit="10"/>
<path id="Vector_2" d="M44.2244 58.9109C43.7518 58.3725 43.625 58.1012 43.5112 57.3939C43.4714 57.1282 43.3356 56.8865 43.1295 56.7146C42.9235 56.5427 42.6616 56.4526 42.3936 56.4615C42.1256 56.4704 41.8702 56.5777 41.676 56.7629C41.4818 56.9481 41.3622 57.1983 41.3401 57.466C41.3221 57.6493 41.3192 57.8337 41.3314 58.0174C41.3454 58.1181 41.3289 58.2207 41.2839 58.3118C41.2389 58.4029 41.1677 58.4784 41.0793 58.5284C40.7575 58.7441 40.4935 59.0357 40.3105 59.3776C40.1276 59.7195 40.0313 60.1012 40.0301 60.4891C40.029 60.8771 40.123 61.2593 40.304 61.6023C40.4849 61.9453 40.7472 62.2384 41.0678 62.456C41.1551 62.5068 41.2264 62.5814 41.2733 62.671C41.3202 62.7606 41.3408 62.8617 41.3329 62.9626C41.3242 64.5822 41.3329 66.2002 41.3329 67.8183V72.4893C41.33 72.6367 41.3357 72.7842 41.3502 72.931C41.3828 73.1751 41.4966 73.4011 41.6733 73.5725C41.8499 73.7439 42.079 73.8506 42.3236 73.8755C42.5683 73.9003 42.8141 73.8419 43.0215 73.7095C43.2288 73.5772 43.3857 73.3787 43.4666 73.146C43.5196 72.9323 43.5423 72.7122 43.5343 72.4922C43.5343 69.3282 43.5343 66.1646 43.5343 63.0016C43.5253 62.8896 43.5474 62.7773 43.5983 62.6771C43.6492 62.577 43.7267 62.493 43.8224 62.4343C44.0961 62.2417 44.3259 61.9932 44.4967 61.7051C44.6675 61.4171 44.7755 61.096 44.8135 60.7631C44.8514 60.4302 44.8186 60.093 44.717 59.7738C44.6155 59.4545 44.4476 59.1604 44.2244 58.9109ZM42.435 62.0071C42.2369 62.0079 42.0406 61.9697 41.8573 61.8945C41.6739 61.8194 41.5072 61.7088 41.3665 61.569C41.0824 61.2868 40.9218 60.9031 40.9201 60.5023C40.9184 60.1015 41.0757 59.7164 41.3573 59.4318C41.639 59.1471 42.022 58.9863 42.4221 58.9845C42.8221 58.9828 43.2065 59.1404 43.4906 59.4226C43.7747 59.7048 43.9352 60.0885 43.937 60.4893C43.9387 60.8901 43.7814 61.2752 43.4997 61.5598C43.2181 61.8445 42.8351 62.0054 42.435 62.0071Z" fill="white"/>
<path id="Vector_3" d="M55.5359 58.8685C55.0748 58.4355 54.8674 58.0371 54.8832 57.4251C54.8962 56.8852 54.4049 56.4854 53.8661 56.4637C53.6008 56.4445 53.3379 56.5255 53.1293 56.6909C52.9208 56.8564 52.7816 57.0941 52.7395 57.3572C52.708 57.5756 52.6988 57.7966 52.7121 58.0169C52.7244 58.1175 52.7069 58.2196 52.6618 58.3105C52.6167 58.4013 52.5461 58.4769 52.4585 58.5278C52.1368 58.7436 51.873 59.0352 51.6903 59.3772C51.5076 59.7191 51.4116 60.1008 51.4107 60.4886C51.4099 60.8764 51.5042 61.2585 51.6854 61.6012C51.8666 61.944 52.1291 62.2368 52.4499 62.454C52.537 62.5048 52.608 62.5794 52.6544 62.6691C52.7008 62.7588 52.7208 62.8599 52.7121 62.9606C52.7034 64.5787 52.7121 66.1968 52.7121 67.8163C52.7121 69.3858 52.7121 70.9553 52.7121 72.5248C52.7087 72.6838 52.7198 72.8427 52.7452 72.9997C52.7929 73.2347 52.9163 73.4475 53.0963 73.6055C53.2764 73.7636 53.5033 73.858 53.7421 73.8744C53.9809 73.8908 54.2185 73.8282 54.4184 73.6963C54.6183 73.5643 54.7694 73.3703 54.8486 73.144C54.8995 72.9422 54.9208 72.7341 54.912 72.5262C54.912 69.3747 54.912 66.2237 54.912 63.0732C54.8993 62.9437 54.9228 62.8131 54.9798 62.6961C55.0367 62.5792 55.125 62.4803 55.2348 62.4107C56.3974 61.559 56.5789 59.8587 55.5359 58.8685ZM53.8243 61.9978C53.5249 61.9998 53.2317 61.9125 52.9821 61.747C52.7324 61.5816 52.5375 61.3454 52.4222 61.0686C52.3069 60.7918 52.2764 60.4868 52.3347 60.1926C52.3929 59.8984 52.5372 59.6282 52.7492 59.4164C52.9612 59.2046 53.2313 59.0608 53.5251 59.0034C53.819 58.9459 54.1232 58.9773 54.3992 59.0936C54.6751 59.2099 54.9103 59.4058 55.0748 59.6564C55.2392 59.9071 55.3255 60.2011 55.3226 60.501C55.3215 60.8989 55.1633 61.2802 54.8826 61.5617C54.6019 61.8432 54.2215 62.0021 53.8243 62.0036V61.9978Z" fill="white"/>
<path id="Vector_4" d="M49.4673 62.9425C49.3852 62.8961 49.3181 62.8272 49.2739 62.7438C49.2297 62.6604 49.2103 62.566 49.2181 62.4719C49.2281 60.9029 49.2181 59.3324 49.2181 57.7634C49.2242 57.6186 49.2155 57.4735 49.1921 57.3304C49.1354 57.0636 48.9807 56.8278 48.7587 56.6698C48.5367 56.5118 48.2636 56.4431 47.9934 56.4773C47.7221 56.5015 47.4701 56.6284 47.2888 56.8322C47.1076 57.0361 47.0108 57.3015 47.0181 57.5743C47.0094 59.217 47.0181 60.8596 47.0051 62.5022C47.0006 62.5801 46.9801 62.6561 46.9449 62.7257C46.9097 62.7952 46.8605 62.8567 46.8005 62.9064C45.3598 63.9168 45.3598 65.9087 46.7905 66.9249C46.8514 66.9735 46.9018 67.0341 46.9387 67.1028C46.9756 67.1715 46.9982 67.247 47.0051 67.3247C47.0239 68.2312 47.0152 69.1377 47.0152 70.0456C47.0152 70.9535 47.008 71.86 47.0152 72.7665C47.0099 72.9302 47.0416 73.093 47.1079 73.2427C47.1741 73.3925 47.2733 73.5253 47.3979 73.6313C47.5226 73.7373 47.6695 73.8138 47.8277 73.855C47.986 73.8962 48.1515 73.901 48.3118 73.8692C48.8536 73.787 49.2181 73.3279 49.2195 72.7145C49.2195 70.9492 49.2195 69.1839 49.2195 67.4185C49.2076 67.313 49.2261 67.2062 49.2729 67.1108C49.3196 67.0154 49.3925 66.9354 49.4831 66.8801C49.8053 66.6624 50.0689 66.3684 50.2506 66.0243C50.4323 65.6801 50.5266 65.2964 50.525 64.9071C50.5234 64.5177 50.4261 64.1348 50.2416 63.7921C50.0571 63.4494 49.7912 63.1576 49.4673 62.9425ZM48.113 66.424C47.8156 66.4206 47.5259 66.3292 47.2802 66.1613C47.0345 65.9933 46.8439 65.7564 46.7322 65.4802C46.6206 65.204 46.5929 64.9009 46.6527 64.609C46.7125 64.3171 46.8571 64.0495 47.0683 63.8397C47.2795 63.6299 47.5479 63.4873 47.8397 63.4299C48.1315 63.3725 48.4338 63.4028 48.7085 63.517C48.9832 63.6312 49.2181 63.8242 49.3836 64.0718C49.5491 64.3194 49.6379 64.6104 49.6387 64.9084C49.6384 65.1084 49.5985 65.3064 49.5216 65.491C49.4446 65.6755 49.332 65.843 49.1902 65.9839C49.0485 66.1247 48.8803 66.2361 48.6955 66.3116C48.5106 66.3872 48.3127 66.4254 48.113 66.424Z" fill="white"/>
</g>
</g>
</svg>
