<svg width="56" height="56" viewBox="0 0 56 56" fill="none" xmlns="http://www.w3.org/2000/svg">
<g id="svgg">
<path id="path0" fill-rule="evenodd" clip-rule="evenodd" d="M3.47692 0.464966C3.47692 0.497799 3.41552 0.524635 3.34042 0.524635C3.26532 0.524635 3.18826 0.551621 3.16924 0.584603C3.15022 0.617586 3.09694 0.644572 3.05078 0.644572C3.00463 0.644572 2.9824 0.617586 3.00142 0.584603C3.05442 0.492702 2.97596 0.513391 2.8796 0.616686C2.83038 0.669459 2.7487 0.693296 2.68787 0.672607C2.62899 0.652517 2.58186 0.664961 2.58186 0.700492C2.58186 0.735724 2.53151 0.764509 2.46997 0.764509C2.40844 0.764509 2.35809 0.791494 2.35809 0.824477C2.35809 0.857459 2.30774 0.884445 2.24621 0.884445C2.18467 0.884445 2.13433 0.924474 2.13433 0.973199C2.13433 1.02207 2.06538 1.08069 1.98105 1.10333C1.89671 1.12597 1.7942 1.18054 1.75322 1.22432C1.65896 1.32551 1.74945 1.32986 1.85476 1.22926C1.92147 1.16555 1.92203 1.16989 1.85909 1.25925C1.81826 1.31697 1.73616 1.36419 1.67658 1.36419C1.61701 1.36419 1.58386 1.39118 1.60288 1.42416C1.6219 1.45714 1.60288 1.48413 1.56065 1.48413C1.42974 1.48413 1.17423 1.81021 1.24542 1.88652C1.29045 1.93479 1.2808 1.95008 1.20989 1.94334C1.15451 1.93794 1.10556 1.98127 1.09633 2.04348C1.06738 2.23838 1.02067 2.32369 0.942633 2.32369C0.900677 2.32369 0.862078 2.36417 0.857043 2.41364C0.851869 2.46311 0.843477 2.54407 0.838303 2.59354C0.833268 2.64302 0.808094 2.6835 0.782361 2.6835C0.756768 2.6835 0.73579 2.73912 0.73579 2.80703C0.73579 2.87495 0.715931 2.91737 0.691736 2.90118C0.667542 2.88514 0.642088 2.94436 0.635235 3.03266C0.628522 3.12097 0.598034 3.20222 0.567546 3.21317C0.536918 3.22426 0.512025 3.41991 0.512025 3.64794C0.512025 3.88451 0.48797 4.06277 0.456083 4.06277C0.381401 4.06277 0.378185 51.57 0.452866 51.6507C0.481816 51.682 0.511185 51.8775 0.518038 52.085C0.524891 52.2927 0.551603 52.4765 0.577196 52.4934C0.602929 52.5103 0.623907 52.6037 0.623907 52.7007C0.623907 52.7977 0.649081 52.877 0.679849 52.877C0.710616 52.877 0.73579 52.9355 0.73579 53.007C0.73579 53.0784 0.752153 53.1193 0.772152 53.0979C0.832429 53.0333 0.955919 53.2553 0.957738 53.4318C0.958856 53.5345 0.989904 53.5967 1.04011 53.5967C1.08444 53.5967 1.13871 53.6279 1.16067 53.6659C1.18654 53.7109 1.17591 53.7187 1.13018 53.6886C1.0913 53.6628 1.10263 53.712 1.15563 53.7986C1.20836 53.885 1.27451 53.9401 1.30276 53.9215C1.33087 53.9028 1.35031 53.9099 1.34597 53.937C1.32471 54.068 1.35898 54.1293 1.43576 54.0979C1.49631 54.0728 1.51044 54.0905 1.4854 54.1604C1.46037 54.2302 1.4745 54.2479 1.53505 54.2229C1.58148 54.2038 1.63854 54.2212 1.66176 54.2616C1.68889 54.3083 1.68078 54.3194 1.63952 54.292C1.604 54.2685 1.57491 54.2749 1.57491 54.3064C1.57491 54.3743 1.74176 54.4602 1.84063 54.4431C1.87909 54.4364 1.91056 54.4742 1.91056 54.5271C1.91056 54.58 1.93573 54.6065 1.9665 54.5861C1.99727 54.5658 2.02244 54.5911 2.02244 54.6425C2.02244 54.7079 2.07726 54.7364 2.20425 54.737C2.34215 54.7377 2.36578 54.752 2.30215 54.796C2.236 54.8419 2.24845 54.8544 2.36159 54.8551C2.44032 54.8556 2.55892 54.91 2.62493 54.9759C2.69094 55.0419 2.77751 55.0954 2.81723 55.095C2.86856 55.0944 2.8652 55.0771 2.80562 55.0359C2.75947 55.004 2.74982 54.9773 2.78408 54.9768C2.81835 54.9764 2.90646 55.0248 2.97988 55.0845C3.07162 55.1593 3.22616 55.1969 3.47496 55.2053C3.67383 55.2121 3.86138 55.2441 3.89172 55.2767C3.97046 55.3611 51.8791 55.3579 51.9578 55.2735C51.9897 55.2394 52.1696 55.2074 52.3575 55.2025C52.5455 55.1977 52.6865 55.1717 52.6709 55.1448C52.6556 55.1179 52.7323 55.0959 52.8418 55.0959C52.9514 55.0959 53.041 55.0689 53.041 55.0359C53.041 55.0029 53.1165 54.9759 53.2088 54.9759C53.3011 54.9759 53.3766 54.949 53.3766 54.916C53.3766 54.883 53.4171 54.856 53.4664 54.856C53.5159 54.856 53.607 54.7869 53.6691 54.7025C53.731 54.6179 53.8103 54.5607 53.8452 54.5751C53.919 54.6053 54.0576 54.4665 54.0072 54.4127C53.9886 54.3926 54.0025 54.3763 54.0382 54.3763C54.127 54.3763 54.3858 54.1289 54.3544 54.0742C54.3404 54.0499 54.3711 53.9932 54.4229 53.9482C54.5028 53.8788 54.5099 53.8791 54.4696 53.9508C54.3812 54.1079 54.5418 53.9595 54.6717 53.764C54.7408 53.6601 54.7671 53.595 54.7303 53.6193C54.6934 53.6437 54.6633 53.637 54.6633 53.6043C54.6633 53.5715 54.7136 53.5277 54.7752 53.5067C54.8476 53.4821 54.8871 53.416 54.8871 53.3192C54.8871 53.2349 54.9114 53.1859 54.943 53.2069C54.976 53.2288 54.9994 53.1623 54.9998 53.0456C55.0005 52.8953 55.0139 52.869 55.0549 52.937C55.0988 53.0097 55.1093 53.0012 55.11 52.892C55.1104 52.8178 55.131 52.7571 55.1556 52.7571C55.1802 52.7571 55.2003 52.6577 55.2003 52.5363C55.2003 52.4147 55.2305 52.3045 55.2675 52.2913C55.3044 52.2781 55.3346 52.2411 55.3346 52.2089C55.3346 52.1766 55.3094 52.167 55.2787 52.1874C55.2479 52.2078 55.2227 52.196 55.2227 52.161C55.2227 52.1261 55.2542 52.097 55.2926 52.0966C55.3392 52.096 55.3346 52.0762 55.2787 52.0375C55.2231 51.9991 55.2184 51.979 55.2644 51.9784C55.3199 51.9777 55.334 47.0466 55.334 27.777C55.334 11.7386 55.3153 3.58872 55.2784 3.61316C55.2317 3.64419 55.187 3.21182 55.2175 3.02382C55.2219 2.99668 55.1996 2.99159 55.1682 3.01242C55.1156 3.04721 55.084 2.88574 55.1066 2.69849C55.1117 2.65726 55.0792 2.62353 55.0346 2.62353C54.981 2.62353 54.9634 2.58275 54.9827 2.50359C54.9994 2.43553 54.9844 2.38366 54.9483 2.38366C54.9134 2.38366 54.8546 2.30944 54.818 2.21874C54.7813 2.12804 54.6749 1.97557 54.5815 1.88007C54.4881 1.78442 54.4474 1.7282 54.491 1.75504C54.5397 1.78487 54.5289 1.74409 54.463 1.65009C54.404 1.56569 54.3369 1.50872 54.3141 1.52356C54.2913 1.5384 54.2284 1.52011 54.1742 1.48278C54.0812 1.41876 54.0812 1.41681 54.1738 1.4477C54.3279 1.49912 54.2881 1.39343 54.1179 1.29973C54.0333 1.25325 53.9263 1.17439 53.8801 1.12477C53.834 1.07499 53.7587 1.02552 53.7129 1.01458C53.667 1.00363 53.6166 0.974098 53.601 0.948911C53.5853 0.923575 53.505 0.885195 53.4225 0.863606C53.34 0.842018 53.2322 0.781 53.1828 0.727928C53.1333 0.675006 53.0446 0.645171 52.9858 0.661813C52.9267 0.678304 52.8693 0.662112 52.8579 0.625682C52.8467 0.589401 52.7389 0.55297 52.6184 0.544724C52.4978 0.536329 52.3905 0.501547 52.3799 0.467365C52.3533 0.38221 3.47692 0.379961 3.47692 0.464966ZM51.7543 1.96388C51.7543 2.04498 52.0178 2.04049 52.0651 1.95863C52.0921 1.9117 52.1196 1.9117 52.1634 1.95863C52.1968 1.99446 52.2696 2.02384 52.3249 2.02384C52.3803 2.02384 52.4256 2.05083 52.4256 2.08381C52.4256 2.1168 52.476 2.14378 52.5375 2.14378C52.5991 2.14378 52.6494 2.16987 52.6494 2.2018C52.6494 2.23388 52.6872 2.24438 52.7333 2.22549C52.7865 2.2036 52.8172 2.22624 52.8172 2.28726C52.8172 2.34363 52.8637 2.38366 52.9291 2.38366C52.9907 2.38366 53.041 2.41064 53.041 2.44362C53.041 2.47661 53.0599 2.50044 53.083 2.49655C53.2277 2.47196 53.2918 2.50614 53.2088 2.56356C53.1374 2.61303 53.1397 2.62188 53.2246 2.62263C53.2793 2.62308 53.3411 2.67075 53.3617 2.72847C53.3822 2.78619 53.4508 2.88274 53.5138 2.94286C53.5768 3.00313 53.5951 3.03401 53.5543 3.01167C53.4936 2.97809 53.493 2.99263 53.5516 3.09308C53.5908 3.1604 53.6429 3.20207 53.6675 3.18588C53.6922 3.16954 53.7123 3.23641 53.7123 3.3346C53.7123 3.4328 53.7386 3.52246 53.7706 3.53385C53.8028 3.54539 53.8363 3.6286 53.8453 3.71885C53.8542 3.80925 53.8784 3.90101 53.8989 3.92289C53.9542 3.98226 53.944 51.7376 53.8887 51.7376C53.8625 51.7376 53.8389 51.8248 53.8361 51.9313C53.8333 52.0379 53.8042 52.1346 53.7716 52.1462C53.739 52.1579 53.7123 52.1937 53.7123 52.2259C53.7123 52.2582 53.7438 52.2651 53.7822 52.2412C53.8207 52.2175 53.7892 52.2742 53.7123 52.3673C53.6354 52.4604 53.6022 52.5183 53.6386 52.496C53.6805 52.4702 53.6737 52.5216 53.6201 52.6367C53.5737 52.7366 53.5143 52.8042 53.488 52.7868C53.4618 52.7694 53.4245 52.7826 53.4052 52.816C53.3859 52.8496 53.3955 52.877 53.4266 52.877C53.5259 52.877 53.2084 53.1995 53.0901 53.2189C52.9588 53.2405 52.8062 53.385 52.8572 53.4396C52.8763 53.4601 52.8246 53.4767 52.7427 53.4767C52.6606 53.4767 52.5935 53.5037 52.5935 53.5367C52.5935 53.5697 52.5326 53.5967 52.4582 53.5967C52.384 53.5967 52.3147 53.6237 52.3044 53.6565C52.2785 53.7398 3.56824 53.7403 3.54223 53.6569C3.53202 53.6238 3.49902 53.5967 3.46895 53.5967C3.43888 53.5967 3.43147 53.6264 3.45244 53.6626C3.47986 53.7103 3.45846 53.7103 3.37497 53.6623C3.31133 53.6259 3.24322 53.5679 3.22336 53.5334C3.19875 53.491 3.16197 53.4934 3.10826 53.5412C3.04463 53.5979 3.02939 53.5868 3.02939 53.4841C3.02939 53.3968 2.99428 53.3568 2.9175 53.3568C2.85597 53.3568 2.80562 53.3298 2.80562 53.2968C2.80562 53.2638 2.76632 53.2369 2.71835 53.2369C2.66605 53.2369 2.64731 53.2088 2.67164 53.1667C2.69863 53.1199 2.68199 53.109 2.62185 53.1337C2.55766 53.1601 2.54088 53.145 2.56354 53.0814C2.58298 53.0273 2.56703 52.9989 2.5234 53.0096C2.48368 53.0192 2.41795 52.9595 2.37753 52.877C2.33543 52.7916 2.30313 52.7658 2.30215 52.8171C2.30075 52.8907 2.29166 52.8922 2.25222 52.8255C2.22565 52.7805 2.21642 52.6928 2.23166 52.6306C2.24677 52.5682 2.2311 52.5172 2.19684 52.5172C2.16244 52.5172 2.13433 52.4633 2.13433 52.3973C2.13433 52.3313 2.10915 52.2774 2.07838 52.2774C2.04762 52.2774 2.02244 52.2153 2.02244 52.1394C2.02244 52.0636 1.99727 51.9745 1.96636 51.9414C1.88273 51.8517 1.88902 3.74059 1.97265 3.71076C2.01391 3.69606 2.0093 3.67088 1.95881 3.6367C1.90301 3.59877 1.90133 3.58467 1.95252 3.58392C1.99098 3.58347 2.02244 3.54254 2.02244 3.49307C2.02244 3.4436 2.04468 3.40312 2.07181 3.40312C2.12188 3.40312 2.19922 3.20852 2.21488 3.04331C2.21964 2.99383 2.25278 2.9598 2.28872 2.9676C2.32467 2.97554 2.34061 2.94451 2.32425 2.89878C2.30788 2.85306 2.32536 2.79519 2.36299 2.7703C2.40662 2.74122 2.41697 2.74991 2.39138 2.79414C2.32313 2.91273 2.40242 2.87045 2.55472 2.70718C2.63486 2.62113 2.6894 2.53897 2.67584 2.52443C2.66227 2.50974 2.61039 2.54152 2.5606 2.59504C2.51067 2.64842 2.46997 2.66626 2.46997 2.63477C2.46997 2.60314 2.53291 2.53313 2.60983 2.47916C2.68828 2.42398 2.74968 2.40884 2.74968 2.44467C2.74968 2.48305 2.78059 2.47766 2.82772 2.43103C2.87065 2.38845 2.89597 2.33628 2.88394 2.31499C2.85387 2.26132 3.02785 2.19565 3.09036 2.23703C3.11833 2.25562 3.14127 2.24228 3.14127 2.20735C3.14127 2.17242 3.20155 2.14378 3.27511 2.14378C3.34881 2.14378 3.42196 2.1075 3.4379 2.06312C3.45748 2.00855 3.55006 1.98696 3.72362 1.99656C3.86487 2.00436 3.98039 1.98666 3.98039 1.95728C3.98039 1.92625 13.945 1.90391 27.8674 1.90391C43.7547 1.90391 51.7543 1.924 51.7543 1.96388ZM5.78646 6.02719C5.7666 6.08461 5.7045 6.17531 5.64856 6.22868C5.55053 6.32208 5.54675 7.11381 5.54675 27.8665C5.54675 49.9959 5.54451 49.7411 5.73583 49.5359C5.75499 49.5155 5.77052 49.5454 5.77052 49.6023C5.77052 49.6593 5.79569 49.6891 5.82646 49.6687C5.85723 49.6484 5.8824 49.6737 5.8824 49.7248C5.8824 49.8723 49.8788 49.8675 49.9316 49.72C49.9509 49.6659 49.9818 49.6377 50.0002 49.6573C50.0513 49.7122 50.1999 49.528 50.16 49.4588C50.1407 49.4254 50.1644 49.3818 50.2125 49.362C50.2606 49.3422 50.2999 49.3004 50.2999 49.2691C50.2999 49.2376 50.2747 49.2286 50.2439 49.249C50.2132 49.2693 50.188 49.2575 50.188 49.2226C50.188 49.1876 50.2182 49.159 50.2551 49.159C50.3073 49.159 50.3073 49.143 50.2551 49.087C50.2034 49.0316 50.1911 46.6255 50.2017 38.5476L50.2155 28.0801L50.2439 38.5746C50.2663 46.8537 50.2751 44.5656 50.2856 27.7353C50.2944 13.6711 50.28 6.40154 50.2434 6.40154C50.2129 6.40154 50.188 6.36106 50.188 6.31159C50.188 6.26211 50.1628 6.22163 50.132 6.22163C50.1013 6.22163 50.0757 6.17441 50.0753 6.11669C50.0746 6.03633 50.0634 6.03048 50.027 6.0918C49.9911 6.15267 49.9725 6.14172 49.9493 6.04653L49.9186 5.92134L27.8706 5.92209C6.96011 5.92269 5.82072 5.92809 5.78646 6.02719ZM50.2299 22.3681C50.222 25.2459 50.2154 22.8913 50.2154 17.1359C50.2154 11.3804 50.222 9.02591 50.2299 11.9036C50.2379 14.7814 50.2379 19.4904 50.2299 22.3681ZM48.8315 17.2558L48.8457 27.1206L38.7201 27.1053L28.5946 27.09V17.2254V7.36073L38.706 7.37587L48.8174 7.39102L48.8315 17.2558ZM27.1401 13.3879V19.3547L26.9498 19.3397C26.845 19.3315 26.7734 19.3003 26.7906 19.2705C26.8088 19.2388 26.6676 19.2333 26.4495 19.2573C26.2072 19.2838 26.0772 19.2766 26.0772 19.2364C26.0772 19.2025 26.0505 19.1748 26.0179 19.1748C25.9854 19.1748 25.9742 19.2015 25.9929 19.234C26.0125 19.2681 25.9901 19.2781 25.9406 19.2579C25.8931 19.2382 25.868 19.198 25.8851 19.1685C25.9021 19.139 25.8159 19.1148 25.6935 19.1148C25.5711 19.1148 25.4271 19.0967 25.3734 19.0747C25.306 19.0469 25.2885 19.0567 25.3169 19.1058C25.3433 19.1517 25.2763 19.1423 25.1295 19.0793C25.0039 19.0253 24.8391 18.9939 24.7636 19.0094C24.6879 19.0249 24.6394 19.0144 24.6558 18.9862C24.672 18.958 24.5882 18.9349 24.4695 18.9349C24.3507 18.9349 24.2197 18.9012 24.1782 18.86C24.1175 18.7996 24.1112 18.8008 24.1459 18.866C24.1803 18.9309 24.166 18.9339 24.0738 18.881C24.0105 18.8447 23.8957 18.815 23.8186 18.815C23.7414 18.815 23.6644 18.7906 23.6472 18.7607C23.6299 18.731 23.486 18.7056 23.3274 18.7042C23.1687 18.7029 23.024 18.6766 23.0056 18.6459C22.9875 18.6152 22.7848 18.5861 22.5555 18.5813C22.3261 18.5765 22.1247 18.5487 22.1079 18.5197C22.0679 18.4504 19.1965 18.4526 19.1965 18.5221C19.1965 18.5513 19.0721 18.5751 18.9201 18.5751C18.7681 18.5751 18.6274 18.6035 18.6074 18.6379C18.5824 18.6816 18.5485 18.6808 18.4976 18.6355C18.453 18.5958 18.4165 18.5928 18.4047 18.6279C18.3941 18.6595 18.2468 18.6925 18.0776 18.7012C17.9084 18.7098 17.7562 18.7382 17.7396 18.7643C17.7228 18.7906 17.5781 18.8169 17.4179 18.8229C17.2577 18.8291 17.1266 18.8567 17.1266 18.8844C17.1266 18.9123 17.007 18.9361 16.8609 18.9376C16.7148 18.939 16.5071 18.9735 16.3994 19.0142C16.2917 19.0549 16.0274 19.0962 15.812 19.106C15.5691 19.1169 15.3863 19.1568 15.3305 19.2108C15.2628 19.2763 15.1631 19.288 14.9259 19.2582C14.6953 19.2291 14.586 19.2408 14.5177 19.3016C14.4102 19.3971 12.3157 19.434 12.3157 19.3403C12.3157 19.3114 12.3447 19.3069 12.3803 19.3304C12.4225 19.3585 12.4295 19.3468 12.4005 19.2965C12.3682 19.2405 12.2622 19.2303 12.0055 19.2585C11.7698 19.2843 11.6476 19.2753 11.6339 19.2309C11.6128 19.1631 11.0105 19.063 10.7353 19.0814C10.6507 19.0871 10.5815 19.0715 10.5815 19.0469C10.5815 19.0223 10.4053 18.9835 10.1899 18.9609C9.97451 18.9381 9.7983 18.896 9.7983 18.8672C9.7983 18.8385 9.77158 18.815 9.739 18.815C9.70641 18.815 9.6976 18.8487 9.71928 18.89C9.75089 18.9499 9.74375 18.9499 9.68348 18.89C9.64194 18.8487 9.52656 18.815 9.42685 18.815C9.32713 18.815 9.23203 18.7916 9.21553 18.763C9.19902 18.7343 9.05274 18.7054 8.89051 18.6988C8.47976 18.682 8.35207 18.664 8.3076 18.6164C8.28648 18.5937 8.149 18.5751 8.00216 18.5751C7.85531 18.5751 7.71951 18.5481 7.70049 18.5152C7.68147 18.4822 7.63588 18.4556 7.59924 18.4561C7.55924 18.4567 7.56609 18.4802 7.61658 18.5152C7.66273 18.5471 7.67322 18.5738 7.63994 18.5742C7.60651 18.5747 7.56036 18.5549 7.53728 18.5301C7.49491 18.4846 7.43841 18.4762 7.08514 18.4627L6.88934 18.4552V12.9381V7.421H17.0147H27.1401V13.3879ZM18.4133 10.0861C18.4133 10.1395 18.3716 10.1641 18.3046 10.1502C18.2284 10.1344 18.2052 10.1536 18.227 10.2143C18.2495 10.2773 18.2309 10.2897 18.1586 10.2601C18.0905 10.232 18.072 10.2412 18.0997 10.2893C18.1234 10.3302 18.1073 10.3595 18.061 10.3595C17.999 10.3595 17.9834 10.4602 17.9885 10.8242C17.9936 11.1731 18.0136 11.2849 18.0685 11.2725C18.1089 11.2635 18.1277 11.2806 18.1103 11.3107C18.093 11.3407 18.1164 11.3987 18.1621 11.4395C18.2285 11.4984 18.2454 11.498 18.2454 11.4374C18.2454 11.3954 18.319 11.4437 18.4089 11.5446C18.4989 11.6455 18.587 11.7123 18.6047 11.6933C18.6225 11.6744 18.637 11.6923 18.637 11.733C18.637 11.8102 18.7707 11.9786 18.8321 11.9786C18.8516 11.9786 18.852 11.9519 18.8333 11.9194C18.8137 11.8853 18.8361 11.8753 18.8858 11.8957C18.9337 11.9153 18.9731 11.9757 18.9737 12.03C18.9742 12.0841 19.0377 12.1927 19.1149 12.2712C19.2099 12.3678 19.2443 12.4514 19.2211 12.5296C19.1985 12.6054 19.2269 12.6826 19.3036 12.7538C19.3825 12.8272 19.4234 12.9421 19.4294 13.1077C19.4352 13.2663 19.4598 13.3391 19.4992 13.3139C19.5327 13.2925 19.5273 13.3181 19.4875 13.3711C19.4385 13.4357 19.4341 13.4799 19.4735 13.506C19.5483 13.5556 19.5508 14.0775 19.4762 14.0775C19.4454 14.0775 19.4202 14.1061 19.4202 14.1411C19.4202 14.176 19.4517 14.1842 19.4901 14.1595C19.5441 14.1247 19.5454 14.1342 19.4957 14.2009C19.4002 14.3295 19.4248 15.2521 19.5233 15.2301C19.5647 15.2208 19.5879 15.2475 19.5748 15.2895C19.539 15.4047 19.689 15.5338 19.8173 15.4978C19.8858 15.4787 19.9426 15.4998 19.961 15.5514C19.996 15.649 20.1549 15.6647 20.2354 15.5784C20.2652 15.5464 20.3395 15.5116 20.4004 15.5011C20.5592 15.4737 20.6818 15.3829 20.7234 15.2619C20.7431 15.2041 20.7979 15.1569 20.8449 15.1569C20.892 15.1569 20.9306 15.119 20.9306 15.0725C20.9306 15.0178 20.9698 14.9992 21.0425 15.0196C21.1075 15.0379 21.1544 15.0214 21.1544 14.9805C21.1544 14.9416 21.1253 14.9292 21.0898 14.9527C21.0508 14.9787 21.0404 14.9692 21.0636 14.9289C21.0848 14.8923 21.1431 14.8793 21.1933 14.8998C21.2544 14.925 21.2712 14.9142 21.2442 14.8673C21.2171 14.8202 21.2552 14.7968 21.3608 14.7962C21.4829 14.7955 21.4993 14.7823 21.4341 14.7371C21.3529 14.6808 21.4556 14.6514 21.6998 14.6611C21.7383 14.6626 21.7698 14.6398 21.7698 14.6106C21.7698 14.5812 21.8342 14.5572 21.913 14.5572C22.0125 14.5572 22.0433 14.5345 22.0141 14.4823C21.9899 14.4391 22.016 14.4454 22.0758 14.4973C22.1549 14.5659 22.1851 14.5694 22.203 14.5123C22.2332 14.4162 22.8326 14.4081 22.8326 14.5037C22.8326 14.5442 22.8858 14.5559 22.9684 14.5337C23.0537 14.5108 23.1354 14.5306 23.1882 14.5872C23.2344 14.6367 23.2942 14.6772 23.321 14.6772C23.4052 14.6772 23.6709 14.825 23.6713 14.8721C23.6716 14.8968 23.6985 14.9171 23.7311 14.9171C23.7636 14.9171 23.7723 14.8859 23.7504 14.8478C23.7229 14.8004 23.7353 14.7952 23.789 14.8311C23.8918 14.8997 24.2312 14.9123 24.2312 14.8475C24.2312 14.8198 24.2881 14.7971 24.3576 14.7971C24.5517 14.7971 24.6779 14.5313 24.7086 14.0568C24.7242 13.8175 24.3071 13.2405 24.1797 13.3249C24.1515 13.3436 24.0903 13.3183 24.0439 13.2685C23.9975 13.2187 23.9249 13.178 23.8828 13.178C23.8406 13.178 23.7722 13.1442 23.7306 13.103C23.6695 13.0421 23.6637 13.0448 23.6997 13.118C23.7358 13.1912 23.7299 13.1939 23.6688 13.133C23.6273 13.0918 23.5371 13.058 23.4681 13.058C23.3992 13.058 23.3265 13.0297 23.3065 12.9952C23.2817 12.9522 23.2452 12.9544 23.1912 13.0026C23.1375 13.0504 23.1123 13.052 23.1123 13.0077C23.1123 12.9192 21.9374 12.9318 21.8289 13.0214C21.7675 13.0721 21.7583 13.0702 21.7903 13.0131C21.8134 12.9718 21.8057 12.9381 21.7731 12.9381C21.7405 12.9381 21.7138 12.9606 21.7138 12.988C21.7138 13.0155 21.6257 13.0669 21.5179 13.1024C21.4102 13.1378 21.3362 13.1423 21.3534 13.1125C21.3706 13.0825 21.3608 13.058 21.3315 13.058C21.3022 13.058 21.2633 13.0996 21.2453 13.1502C21.2036 13.2666 20.9046 13.2345 20.8997 13.1131C20.8958 13.017 20.8375 12.8415 20.7546 12.6769C20.7155 12.5993 20.7167 12.5777 20.7586 12.6056C20.7918 12.6275 20.8188 12.6033 20.8188 12.5519C20.8188 12.5005 20.7936 12.4583 20.7628 12.4583C20.732 12.4583 20.7069 12.4044 20.7069 12.3384C20.7069 12.2724 20.6754 12.218 20.6369 12.2176C20.5904 12.217 20.595 12.1972 20.6509 12.1585C20.7069 12.1198 20.7115 12.1 20.6649 12.0994C20.6265 12.099 20.595 12.0446 20.595 11.9786C20.595 11.9126 20.5698 11.8587 20.539 11.8587C20.5083 11.8587 20.4831 11.8162 20.4831 11.7644C20.4831 11.645 20.3428 11.4909 20.2849 11.5467C20.261 11.5699 20.2585 11.5569 20.2792 11.518C20.3 11.4791 20.2926 11.4309 20.2627 11.4111C20.2328 11.3914 20.2224 11.3354 20.2398 11.287C20.2613 11.2267 20.234 11.199 20.1535 11.199C20.0886 11.199 20.0356 11.1626 20.0356 11.1179C20.0356 11.0223 19.7243 10.6593 19.6422 10.6593C19.6108 10.6593 19.5613 10.5917 19.532 10.5089C19.5026 10.4262 19.4592 10.362 19.4355 10.366C19.3322 10.3842 19.2479 10.3557 19.2735 10.3115C19.2886 10.2851 19.2524 10.231 19.1928 10.1911C19.1311 10.1497 19.0846 10.1439 19.0846 10.1771C19.0846 10.2094 19.0469 10.2203 19.0009 10.2014C18.9551 10.1824 18.9302 10.1446 18.946 10.1175C18.9927 10.0364 18.8563 9.98045 18.7888 10.0529C18.7113 10.1359 18.4496 10.1421 18.4972 10.0596C18.5162 10.0266 18.5052 9.99964 18.4726 9.99964C18.44 9.99964 18.4133 10.0386 18.4133 10.0861ZM31.749 10.2136C31.768 10.2667 31.7584 10.29 31.7262 10.2687C31.6629 10.2268 31.5517 10.3311 31.4564 10.5217C31.3582 10.7182 31.3734 11.1353 31.4803 11.1792C31.5389 11.2034 31.5479 11.2296 31.5069 11.2567C31.4665 11.2836 31.4889 11.338 31.5712 11.4132C31.6964 11.5279 31.6968 11.5279 31.6145 11.4089C31.5377 11.2978 31.5388 11.2951 31.6294 11.3713C31.6833 11.4165 31.7273 11.4903 31.7273 11.5353C31.7273 11.6038 32.8562 11.6171 38.72 11.6183C43.0485 11.6192 45.7127 11.5982 45.7127 11.5633C45.7127 11.5323 45.763 11.4899 45.8246 11.4689C45.8861 11.4479 45.9364 11.3921 45.9364 11.3449C45.9364 11.2977 45.9609 11.259 45.9907 11.259C46.0556 11.259 46.0513 10.8659 45.9843 10.6708C45.9538 10.5818 45.9567 10.5457 45.9925 10.5695C46.0233 10.5897 46.0483 10.5779 46.0483 10.543C46.0483 10.508 46.0169 10.4792 45.9784 10.4792C45.9399 10.4791 45.8581 10.3986 45.7967 10.3002L45.685 10.1214H38.7004C32.4416 10.1214 31.7195 10.131 31.749 10.2136ZM10.7493 11.666C10.7493 11.6919 10.7996 11.7173 10.8612 11.7222C10.9227 11.7272 10.9731 11.7059 10.9731 11.675C10.9731 11.6441 10.9227 11.6188 10.8612 11.6188C10.7996 11.6188 10.7493 11.6401 10.7493 11.666ZM10.6374 11.7248C10.6374 11.7581 10.5949 11.7816 10.5427 11.7771C10.4907 11.7725 10.4192 11.8293 10.384 11.9033C10.3486 11.9772 10.3032 12.02 10.2827 11.9982C10.2625 11.9765 10.2458 12.0171 10.2458 12.0885C10.2458 12.16 10.2258 12.2185 10.2015 12.2185C10.1772 12.2185 10.1583 12.2994 10.1594 12.3984C10.1607 12.4973 10.1807 12.5783 10.2037 12.5783C10.2269 12.5783 10.2458 12.6457 10.2458 12.7282C10.2458 12.8107 10.271 12.8781 10.3018 12.8781C10.3325 12.8781 10.3577 12.9177 10.3577 12.966C10.3577 13.0666 10.5475 13.1945 10.6051 13.1327C10.6261 13.1102 10.6268 13.1381 10.6064 13.1948C10.5809 13.266 10.5974 13.2979 10.6594 13.2979C10.7089 13.2979 10.7497 13.3316 10.7501 13.3729C10.7507 13.4228 10.7692 13.4178 10.8052 13.3579C10.8546 13.276 10.8858 13.3156 10.8668 13.436C10.8561 13.5031 11.0077 13.6577 11.0842 13.6577C11.1191 13.6577 11.1319 13.6847 11.1129 13.7177C11.0939 13.7507 11.1049 13.7777 11.1375 13.7777C11.1701 13.7777 11.1968 13.8181 11.1968 13.8676C11.1968 13.9171 11.2235 13.9576 11.2561 13.9576C11.2887 13.9576 11.2974 13.9264 11.2754 13.8883C11.2512 13.8465 11.26 13.8354 11.2977 13.8603C11.3318 13.8829 11.344 13.9454 11.3248 13.9992C11.3013 14.0647 11.3114 14.0827 11.3551 14.0538C11.3967 14.0262 11.4206 14.0538 11.4206 14.1289C11.4206 14.1941 11.4434 14.2563 11.4712 14.2674C11.4991 14.2784 11.5295 14.3683 11.5391 14.4673C11.5486 14.5662 11.5792 14.6811 11.6074 14.7225C11.6859 14.838 11.6785 16.1638 11.5989 16.2491C11.5182 16.3356 11.5105 16.4378 11.5884 16.3863C11.6192 16.3659 11.6444 16.3929 11.6444 16.4462C11.6444 16.4996 11.6192 16.5266 11.5884 16.5062C11.5577 16.4858 11.5325 16.4962 11.5325 16.5292C11.5325 16.5621 11.5577 16.6058 11.5884 16.6262C11.6192 16.6465 11.6444 16.7008 11.6444 16.7468C11.6444 16.7929 11.7084 16.8993 11.7867 16.9833C11.9397 17.1473 12.0115 17.1822 11.9463 17.0609C11.9242 17.0197 11.9684 17.0467 12.0445 17.1209C12.187 17.2597 12.293 17.3021 12.2317 17.1959C12.1827 17.1107 12.279 17.1213 12.3674 17.2108C12.4267 17.2708 12.4467 17.2708 12.4671 17.2108C12.4812 17.1696 12.5425 17.1359 12.6033 17.1359C12.6642 17.1359 12.6983 17.1089 12.6793 17.0759C12.6603 17.0429 12.7 17.0159 12.7675 17.0159C12.8384 17.0159 12.96 16.9287 13.0548 16.8097C13.1517 16.6881 13.2518 16.6169 13.2988 16.6362C13.3531 16.6585 13.3785 16.6264 13.3785 16.5362C13.3785 16.4479 13.4044 16.414 13.4557 16.4352C13.5447 16.4717 13.9315 16.3414 13.9856 16.2567C14.0055 16.2256 14.11 16.2014 14.2177 16.2032C14.3254 16.2049 14.4094 16.1794 14.4047 16.1464C14.3995 16.1118 14.5592 16.0837 14.7823 16.0801C15.1014 16.075 15.1579 16.0881 15.106 16.1551C15.0564 16.2193 15.0688 16.2364 15.1652 16.2364C15.2323 16.2364 15.2717 16.2097 15.253 16.1771C15.2069 16.0971 15.404 16.1785 15.4763 16.2692C15.559 16.3732 15.7437 16.4335 15.6948 16.3406C15.6733 16.2998 15.7107 16.3271 15.778 16.4013C15.9071 16.5438 15.9844 16.5812 15.9204 16.4702C15.8941 16.4245 15.9191 16.4254 16.0025 16.4731C16.1451 16.5551 16.5805 16.5236 16.6099 16.4292C16.621 16.3929 16.6708 16.3797 16.7203 16.4001C16.7864 16.4272 16.8012 16.4115 16.776 16.3412C16.7571 16.2884 16.7777 16.2131 16.8216 16.174C16.8657 16.1349 16.8854 16.0747 16.8657 16.0404C16.8458 16.0061 16.856 15.9954 16.8883 16.0169C17.0219 16.1053 17.0626 15.634 16.9314 15.5173C16.8857 15.4766 16.862 15.419 16.8791 15.3896C16.9159 15.3257 16.7631 15.1469 16.7155 15.1979C16.6745 15.2419 16.4053 15.0581 16.2703 14.894C16.1847 14.7896 16.1614 14.7844 16.1174 14.859C16.0766 14.9281 16.0653 14.9295 16.0646 14.8656C16.0642 14.821 16.0289 14.7986 15.9863 14.8162C15.9436 14.8337 15.8492 14.8034 15.7765 14.7487C15.7037 14.6941 15.6379 14.6556 15.6302 14.6632C15.587 14.7063 15.391 14.668 15.4178 14.6219C15.4368 14.5889 15.1492 14.5707 14.7079 14.5769C14.2496 14.5833 13.9696 14.6102 13.9753 14.6472C13.9805 14.6802 13.8798 14.7072 13.7515 14.7072C13.6107 14.7072 13.5229 14.7335 13.5299 14.7739C13.5367 14.8142 13.4764 14.8326 13.3783 14.8204C13.2598 14.8057 13.1916 14.8361 13.129 14.9319C13.0471 15.0574 13.0429 15.0478 13.0429 14.7325C13.0429 14.5503 13.0114 14.365 12.973 14.3205C12.9167 14.2556 12.9176 14.2486 12.9772 14.2848C13.0359 14.3207 13.0387 14.3039 12.9912 14.2037C12.958 14.1343 12.9058 14.0238 12.8751 13.9583C12.8443 13.8928 12.8191 13.7714 12.8191 13.6884C12.8191 13.6055 12.794 13.5378 12.7632 13.5378C12.7324 13.5378 12.7072 13.4822 12.7072 13.4142C12.7072 13.3463 12.6849 13.3056 12.6576 13.3237C12.6303 13.3418 12.6114 13.3096 12.6156 13.2523C12.6198 13.1949 12.5944 13.1538 12.5591 13.1609C12.5197 13.1688 12.507 13.1246 12.5261 13.0459C12.5505 12.946 12.5376 12.9261 12.4674 12.9549C12.4042 12.981 12.3866 12.966 12.4084 12.9051C12.4277 12.8514 12.4052 12.8182 12.3496 12.8182C12.3001 12.8182 12.266 12.7925 12.2737 12.7613C12.2913 12.6897 12.0796 12.3389 12.0186 12.3386C11.9937 12.3386 11.9913 12.3696 12.0133 12.4077C12.0389 12.4519 12.0285 12.4606 11.9849 12.4317C11.9474 12.4068 11.9309 12.3711 11.9484 12.3522C11.994 12.3035 11.8092 12.0985 11.7196 12.0985C11.6782 12.0985 11.6444 12.0699 11.6444 12.035C11.6444 12 11.6192 11.9882 11.5884 12.0086C11.5577 12.029 11.5325 12.0036 11.5325 11.9522C11.5325 11.8987 11.4846 11.8587 11.4206 11.8587C11.3591 11.8587 11.3087 11.8347 11.3087 11.8054C11.3087 11.7761 11.1891 11.7603 11.043 11.7702C10.8968 11.7801 10.7458 11.7603 10.7073 11.7261C10.6611 11.6851 10.6374 11.6846 10.6374 11.7248ZM31.7982 14.422C31.7835 14.4629 31.7526 14.4841 31.7296 14.4688C31.7065 14.4535 31.6294 14.5075 31.5582 14.5886C31.4093 14.7586 31.3108 15.4575 31.4487 15.3661C31.4943 15.3359 31.5071 15.3421 31.4836 15.383C31.4321 15.4724 31.5605 15.7566 31.6524 15.7566C31.6936 15.7566 31.7273 15.783 31.7273 15.8152C31.7273 15.9418 45.7004 15.8927 45.7379 15.7662C45.7557 15.7055 45.8329 15.62 45.9094 15.5761C45.9858 15.5323 46.0483 15.4725 46.0483 15.4431C46.0483 15.4137 46.0192 15.4089 45.9837 15.4325C45.9394 15.4619 45.9348 15.449 45.9689 15.3911C46.0546 15.2458 46.0503 14.8136 45.9625 14.7353C45.918 14.6959 45.8955 14.6397 45.9124 14.6105C45.9293 14.5812 45.9023 14.5572 45.8525 14.5572C45.7977 14.5572 45.778 14.5297 45.8025 14.4871C45.8293 14.4405 45.8128 14.4292 45.7534 14.4538C45.7043 14.474 45.6559 14.4646 45.6461 14.433C45.6169 14.339 31.8319 14.328 31.7982 14.422ZM31.7817 18.7198C31.7347 18.8005 31.7006 18.8186 31.6856 18.7706C31.6243 18.5738 31.3917 19.0256 31.3917 19.3415C31.3917 19.6007 31.5389 19.9751 31.6198 19.9216C31.6482 19.9027 31.6714 19.9324 31.6714 19.9872C31.6714 20.0484 31.7019 20.0746 31.7498 20.0548C31.7931 20.0372 31.8749 20.0604 31.9317 20.1066C32.0603 20.2111 45.4009 20.2383 45.4609 20.1343C45.48 20.1013 45.5451 20.0743 45.6058 20.0743C45.6665 20.0743 45.73 20.0355 45.7471 19.9881C45.764 19.9408 45.8106 19.9154 45.8506 19.9319C45.8987 19.9517 45.935 19.8895 45.9578 19.7483C45.9769 19.6307 46.0082 19.4364 46.0273 19.3165C46.0521 19.1625 46.0438 19.1108 45.9994 19.1402C45.9605 19.166 45.9364 19.1346 45.9364 19.0585C45.9364 18.9906 45.9113 18.9349 45.8805 18.9349C45.8497 18.9349 45.8246 18.8781 45.8246 18.8085C45.8246 18.7195 45.7991 18.6927 45.7385 18.7175C45.6896 18.7378 45.6388 18.7147 45.6207 18.664C45.5847 18.5634 45.4016 18.5439 45.3491 18.6351C45.3089 18.7047 32.2182 18.7216 32.1535 18.6522C32.0672 18.5597 31.8524 18.5987 31.7817 18.7198ZM7.16905 20.0181C7.16905 20.0955 7.40428 20.0683 7.4619 19.9844C7.48848 19.9456 7.5033 19.9474 7.50386 19.9896C7.50428 20.0258 7.62218 20.0596 7.76762 20.0655C7.91223 20.0715 8.04439 20.0964 8.06132 20.1211C8.07824 20.1458 8.2125 20.1698 8.35962 20.1745C8.50689 20.1791 8.65793 20.2091 8.69527 20.2413C8.73275 20.2734 8.8389 20.2932 8.9312 20.2853C9.02351 20.2772 9.15483 20.3075 9.22294 20.3524C9.3744 20.4524 9.42629 20.4566 9.37342 20.3649C9.34587 20.3171 9.35776 20.3124 9.41202 20.3499C9.45524 20.3797 9.54097 20.4075 9.6025 20.4115C9.66404 20.4157 9.77256 20.4225 9.84361 20.4265C9.91465 20.4307 9.95717 20.4611 9.93815 20.4941C9.91913 20.5271 9.93018 20.5541 9.96276 20.5541C9.99535 20.5541 10.0225 20.5203 10.0229 20.4791C10.0236 20.4201 10.0331 20.4199 10.0675 20.4781C10.0916 20.5187 10.1664 20.5404 10.2338 20.5265C10.3012 20.5127 10.3904 20.5377 10.432 20.5823C10.4791 20.6328 10.6155 20.659 10.795 20.652C10.9792 20.6446 11.0919 20.6671 11.1089 20.7143C11.1272 20.7655 11.2558 20.7826 11.5277 20.7701C11.7435 20.7604 11.908 20.7733 11.8933 20.7988C11.8786 20.8244 11.9224 20.8643 11.9906 20.8875C12.0659 20.9131 12.1232 20.9032 12.1359 20.8623C12.1495 20.8187 12.1898 20.8137 12.2502 20.8485C12.3726 20.9187 14.5521 20.9148 14.6792 20.8442C14.742 20.8092 14.7771 20.8119 14.7771 20.8518C14.7771 20.886 14.8274 20.9139 14.889 20.9139C14.9505 20.9139 15.0008 20.8802 15.0008 20.8389C15.001 20.7904 15.0943 20.762 15.2666 20.7583C15.4127 20.7551 15.5826 20.7323 15.6442 20.7076C15.7335 20.6718 15.7391 20.6758 15.6721 20.7274C15.5989 20.7839 15.5998 20.7923 15.6801 20.7931C15.7307 20.7935 15.7849 20.7581 15.8005 20.7145C15.8186 20.6641 15.9023 20.6412 16.0285 20.6518C16.1383 20.6611 16.2429 20.6428 16.2611 20.6114C16.2792 20.5799 16.3241 20.5545 16.3608 20.555C16.4008 20.5556 16.3939 20.5791 16.3434 20.614C16.2709 20.6643 16.2721 20.6724 16.3528 20.6731C16.404 20.6736 16.4549 20.6455 16.4657 20.6106C16.4766 20.5757 16.5983 20.5412 16.7361 20.5338C16.8739 20.5266 17.0371 20.4911 17.0986 20.455C17.1602 20.419 17.2672 20.3994 17.3364 20.4114C17.4056 20.4235 17.4623 20.4066 17.4623 20.3737C17.4623 20.341 17.489 20.3142 17.5216 20.3142C17.5542 20.3142 17.5652 20.3412 17.5462 20.3742C17.5272 20.4072 17.5361 20.4341 17.5662 20.4341C17.5962 20.4341 17.6308 20.4021 17.643 20.3629C17.6557 20.3217 17.7739 20.2917 17.9241 20.2917C18.0666 20.2917 18.1705 20.2698 18.1551 20.243C18.1287 20.1973 18.2723 20.1787 18.665 20.1773C18.7573 20.1769 18.8477 20.1523 18.8658 20.1225C18.884 20.0926 19.0539 20.0674 19.2434 20.0664C19.4329 20.0655 19.588 20.0399 19.588 20.0096C19.588 19.9781 20.02 19.9544 20.595 19.9544C21.2289 19.9544 21.6019 19.9766 21.6019 20.0144C21.6019 20.0473 21.6286 20.0743 21.6612 20.0743C21.6938 20.0743 21.7049 20.0473 21.6858 20.0144C21.6668 19.9814 21.6765 19.9544 21.7072 19.9544C21.738 19.9544 21.7772 19.9788 21.7944 20.0087C21.8116 20.0384 21.9516 20.0638 22.1055 20.0652C22.2595 20.0664 22.4169 20.0886 22.4552 20.1145C22.4936 20.1404 22.6451 20.1662 22.7921 20.1718C22.9389 20.1773 23.0981 20.2168 23.1459 20.2592C23.2172 20.3228 23.2419 20.3211 23.2835 20.2503C23.3115 20.203 23.3349 20.1913 23.3353 20.2243C23.3358 20.2572 23.4546 20.2916 23.5992 20.3004C23.7439 20.3093 23.8761 20.3371 23.8929 20.3623C23.9098 20.3875 24.0084 20.4111 24.1122 20.4145C24.2159 20.418 24.3166 20.4481 24.3359 20.4817C24.3552 20.5153 24.4674 20.5356 24.5851 20.5272C24.7084 20.5184 24.8313 20.5463 24.8748 20.5929C24.9703 20.6953 25.0914 20.7 25.0349 20.5991C25.0018 20.5401 25.0106 20.5395 25.0762 20.5962C25.1219 20.6359 25.2378 20.6577 25.3338 20.6446C25.4501 20.6289 25.5187 20.6499 25.5394 20.7074C25.5563 20.755 25.6152 20.7935 25.6698 20.7931C25.7559 20.7923 25.758 20.7832 25.6857 20.7274C25.6182 20.6754 25.6237 20.671 25.7136 20.7051C25.7752 20.7284 25.9382 20.7587 26.076 20.7725C26.2139 20.7862 26.3511 20.8236 26.3809 20.8556C26.4568 20.937 26.6527 20.9302 26.6052 20.8479C26.5802 20.8043 26.6097 20.8064 26.6927 20.8539C26.7617 20.8935 26.8906 20.9104 26.9792 20.8914L27.1401 20.8569V23.9738V27.0906H17.0147H6.88934V23.5225V19.9544H7.0292C7.10612 19.9544 7.16905 19.983 7.16905 20.0181ZM31.9417 22.8311C31.9315 22.8632 31.869 22.8981 31.8027 22.9089C31.6261 22.9375 31.4919 23.0786 31.5224 23.2035C31.537 23.2635 31.5223 23.3302 31.4897 23.3518C31.4522 23.3766 31.4471 23.3621 31.4756 23.3126C31.5055 23.2608 31.4989 23.2486 31.4563 23.2769C31.3722 23.3326 31.3729 23.8027 31.4573 24.0012C31.5048 24.1129 31.5354 24.1343 31.5683 24.0789C31.5989 24.0272 31.614 24.0486 31.6146 24.1445C31.6153 24.2706 31.6266 24.2777 31.7133 24.2065C31.7672 24.1622 31.7936 24.1487 31.7719 24.1763C31.7504 24.2039 31.7675 24.2637 31.8098 24.3093C31.8968 24.4024 31.9744 24.4211 31.9262 24.3373C31.8903 24.275 32.0392 24.2867 32.0991 24.3508C32.1627 24.419 45.6008 24.3994 45.6008 24.3312C45.6008 24.2987 45.6404 24.2721 45.6888 24.2721C45.7991 24.2721 45.9539 24.1113 45.9127 24.0394C45.8956 24.0101 45.9192 23.9525 45.965 23.9117C46.0783 23.8111 46.0697 23.594 45.9413 23.3095C45.8826 23.179 45.8574 23.0874 45.8854 23.106C45.9135 23.1246 45.9364 23.1209 45.9364 23.0979C45.9364 23.0212 45.7423 22.8967 45.6194 22.8948C45.5528 22.8937 45.4854 22.8591 45.4699 22.8179C45.4514 22.7693 45.4253 22.7641 45.3952 22.8029C45.3407 22.8738 32.0028 22.8887 32.0437 22.8179C32.0579 22.7932 32.0451 22.7729 32.015 22.7729C31.9849 22.7729 31.9521 22.7991 31.9417 22.8311ZM48.8315 38.4696L48.8457 48.3195H47.3463C45.6945 48.3195 45.7127 48.3237 45.7127 47.9476C45.7127 47.8223 45.6875 47.7198 45.6567 47.7198C45.626 47.7198 45.6008 47.6006 45.6008 47.4549C45.6008 47.3093 45.5749 47.1808 45.5435 47.1696C45.5118 47.1583 45.477 47.0549 45.466 46.9397C45.4549 46.8244 45.4316 46.6898 45.4141 46.6403C45.3966 46.5909 45.3748 46.4964 45.3657 46.4304C45.3566 46.3645 45.3239 46.2907 45.2931 46.2664C45.2573 46.2383 45.2597 46.2221 45.2998 46.2215C45.3723 46.2204 45.2947 45.6623 45.2183 45.6344C45.1934 45.6254 45.1836 45.5408 45.1965 45.4464C45.2095 45.3521 45.1861 45.211 45.1447 45.133C45.1032 45.0551 45.0694 44.8968 45.0694 44.7813C45.0694 44.6597 45.0432 44.5765 45.0071 44.5837C44.9674 44.5915 44.9516 44.5098 44.9635 44.3588C44.9769 44.1905 44.9605 44.1217 44.9073 44.1217C44.8566 44.1217 44.8387 44.0623 44.8522 43.9388C44.864 43.829 44.8499 43.7704 44.8169 43.7923C44.7613 43.8292 44.7449 43.7722 44.7481 43.552C44.7489 43.486 44.7267 43.4166 44.6985 43.3977C44.6702 43.3787 44.6358 43.3002 44.6221 43.2233C44.6083 43.1464 44.5435 43.0224 44.4782 42.9479C44.3975 42.8559 44.3713 42.7725 44.3965 42.6875C44.4192 42.6114 44.409 42.5625 44.3705 42.5625C44.336 42.5625 44.3235 42.5962 44.3429 42.6374C44.3624 42.6787 44.3388 42.6601 44.2904 42.5961C44.1897 42.4629 44.173 42.3562 44.2624 42.4153C44.2954 42.4371 44.2899 42.3994 44.2502 42.3313C44.1986 42.2426 44.1659 42.228 44.1351 42.28C44.0879 42.3596 44.0683 42.2658 44.0888 42.0593C44.0967 41.9797 44.0744 41.9565 44.0142 41.9814C43.9551 42.0057 43.9379 41.9895 43.9593 41.9298C43.979 41.8746 43.9553 41.8429 43.8946 41.8429C43.8419 41.8429 43.809 41.8091 43.8217 41.7679C43.847 41.6851 43.6129 41.4151 43.5626 41.4691C43.5452 41.4879 43.531 41.4742 43.531 41.4391C43.531 41.4039 43.4429 41.2807 43.3352 41.1652C43.2275 41.0498 43.1394 40.9681 43.1394 40.9837C43.1394 40.9991 43.1016 40.9714 43.0555 40.9219C43.0093 40.8724 42.9715 40.8015 42.9715 40.7642C42.9715 40.7268 42.9464 40.7131 42.9156 40.7334C42.8848 40.7538 42.8597 40.7255 42.8597 40.6706C42.8597 40.6065 42.8296 40.5831 42.7758 40.6053C42.7247 40.6263 42.6918 40.6053 42.6918 40.5516C42.6918 40.5032 42.673 40.4667 42.6499 40.4706C42.4828 40.499 42.3348 40.4571 42.4121 40.4036C42.4839 40.354 42.4818 40.3453 42.3981 40.3446C42.3443 40.3441 42.3003 40.3167 42.3003 40.2837C42.3003 40.2507 42.2161 40.2237 42.1131 40.2237C41.9961 40.2237 41.8875 40.1781 41.8232 40.102C41.7506 40.0161 41.6729 39.9882 41.5593 40.0072C41.4553 40.0249 41.3878 40.0053 41.3687 39.9519C41.3332 39.8524 36.3938 39.8285 36.2828 39.9273C36.2478 39.9584 36.1463 39.9886 36.0572 39.9946C35.968 40.0006 35.8586 40.0344 35.8143 40.0697C35.7537 40.1179 35.7441 40.1152 35.7757 40.0588C35.7987 40.0176 35.7931 39.9838 35.7631 39.9838C35.733 39.9838 35.7001 40.0101 35.6898 40.042C35.6796 40.0741 35.6111 40.1101 35.5374 40.1221C35.4638 40.1339 35.373 40.1888 35.3354 40.2437C35.263 40.3501 35.1652 40.385 35.2237 40.2837C35.2427 40.2507 35.2343 40.2237 35.2049 40.2237C35.1757 40.2237 35.1367 40.2658 35.1182 40.3174C35.0998 40.369 35.0631 40.397 35.0367 40.3795C35.0104 40.3621 34.9357 40.4008 34.8708 40.4657C34.8059 40.5305 34.7248 40.5835 34.6905 40.5835C34.6059 40.5835 34.4654 40.74 34.5084 40.7862C34.5275 40.8068 34.5103 40.8234 34.4703 40.8234C34.4303 40.8234 34.338 40.8976 34.2652 40.9883C34.1925 41.079 34.1329 41.127 34.1328 41.0949C34.1328 41.0205 33.9388 41.3127 33.9349 41.3931C33.9332 41.4261 33.9016 41.4463 33.8646 41.4381C33.8275 41.4298 33.7972 41.4636 33.7972 41.513C33.7972 41.5625 33.7552 41.603 33.7039 41.603C33.6527 41.603 33.6271 41.6205 33.6471 41.642C33.6671 41.6636 33.6398 41.7195 33.5865 41.7664C33.5331 41.8133 33.5209 41.8346 33.5594 41.8138C33.5979 41.7929 33.6293 41.8043 33.6293 41.8393C33.6293 41.8742 33.6081 41.9028 33.5819 41.9028C33.4937 41.9028 33.2937 42.1262 33.2937 42.2247C33.2937 42.2785 33.2622 42.3231 33.2238 42.3235C33.1772 42.3241 33.1818 42.3439 33.2377 42.3826C33.2937 42.4213 33.2983 42.441 33.2517 42.4416C33.2133 42.4421 33.1818 42.4847 33.1818 42.5361C33.1818 42.5875 33.1566 42.6129 33.1259 42.5925C33.0929 42.5706 33.0695 42.637 33.0691 42.7538C33.0684 42.904 33.055 42.9304 33.014 42.8623C32.9719 42.7925 32.9596 42.81 32.9589 42.9409C32.9585 43.0364 32.9341 43.0934 32.9028 43.0727C32.8723 43.0524 32.8608 43.0736 32.8773 43.1194C32.8937 43.1653 32.8709 43.2352 32.8264 43.2748C32.7821 43.3142 32.7586 43.3992 32.7744 43.4635C32.7923 43.5368 32.7692 43.5944 32.7126 43.6176C32.6629 43.638 32.6228 43.699 32.6232 43.7533C32.6239 43.8388 32.6312 43.84 32.6783 43.7619C32.7144 43.7019 32.7329 43.6969 32.7334 43.7469C32.7338 43.7881 32.6859 43.8737 32.6269 43.937C32.5624 44.0061 32.5259 44.1155 32.5355 44.2104C32.5445 44.2975 32.5174 44.4056 32.4753 44.4507C32.3863 44.5461 32.3727 44.6257 32.4546 44.5714C32.4853 44.551 32.5105 44.5629 32.5105 44.5978C32.5105 44.6327 32.4867 44.6614 32.4578 44.6614C32.4288 44.6614 32.4147 44.715 32.4265 44.7806C32.4382 44.8462 32.4116 44.9387 32.3673 44.9863C32.2751 45.0849 32.2592 45.1665 32.3427 45.1111C32.3734 45.0908 32.3986 45.1026 32.3986 45.1375C32.3986 45.1725 32.3748 45.2011 32.3459 45.2011C32.3169 45.2011 32.3031 45.2564 32.3153 45.324C32.3279 45.3939 32.3023 45.4614 32.2561 45.4804C32.2114 45.4987 32.1768 45.5581 32.1793 45.6123C32.1821 45.6745 32.1942 45.6832 32.2119 45.6359C32.2274 45.5946 32.2672 45.5609 32.3 45.5609C32.3332 45.5609 32.3218 45.608 32.2749 45.6658C32.228 45.7236 32.1947 45.8303 32.2007 45.9032C32.2067 45.976 32.1782 46.0495 32.1374 46.0663C32.0964 46.0831 32.0634 46.1315 32.0638 46.1736C32.0644 46.2275 32.081 46.2236 32.1189 46.1606C32.1515 46.1065 32.1735 46.0991 32.174 46.142C32.1744 46.1813 32.148 46.2313 32.1151 46.2531C32.0823 46.2748 32.0686 46.3297 32.0848 46.3748C32.1009 46.42 32.0792 46.4943 32.0365 46.54C31.9884 46.5918 31.9641 46.7262 31.9725 46.8953C31.9824 47.0973 31.9672 47.16 31.9136 47.1379C31.8602 47.1159 31.8463 47.1712 31.8606 47.3508C31.8732 47.5099 31.8549 47.6036 31.8075 47.6231C31.7591 47.643 31.7389 47.7538 31.7469 47.9575C31.7557 48.1844 31.7405 48.2547 31.687 48.2328C31.6477 48.2166 31.6154 48.2293 31.6154 48.2614C31.6154 48.2974 31.0422 48.3195 30.1053 48.3195H28.5953L28.5809 38.4545L28.5666 28.5895L38.692 28.6047L48.8174 28.6198L48.8315 38.4696ZM27.1961 38.4846V48.3195H17.0707H6.94529V38.4846V28.6498H17.0707H27.1961V38.4846ZM37.797 29.9691C37.831 30.028 37.7816 30.0459 37.5872 30.0451C37.5333 30.0448 37.4893 30.0682 37.4893 30.0969C37.4893 30.1255 37.4626 30.149 37.43 30.149C37.3974 30.149 37.3894 30.1168 37.4122 30.0772C37.4349 30.0378 37.3759 30.0648 37.2809 30.1372C37.1861 30.2097 37.0721 30.269 37.0278 30.269C36.8924 30.269 36.6074 30.4457 36.5688 30.5537C36.5374 30.6411 36.5249 30.6429 36.4802 30.5672C36.445 30.5073 36.4278 30.5031 36.4272 30.5538C36.4268 30.595 36.4014 30.6288 36.3709 30.6288C36.2831 30.6288 36.0355 30.8812 36.068 30.9376C36.0842 30.9656 36.0706 30.9886 36.038 30.9886C35.9691 30.9886 35.5873 31.4087 35.5873 31.4844C35.5873 31.5124 35.5621 31.5187 35.5313 31.4983C35.481 31.465 35.4512 31.5437 35.4688 31.6632C35.4725 31.688 35.4565 31.7051 35.4334 31.7012C35.3217 31.6821 35.2486 31.7143 35.2799 31.7686C35.299 31.8018 35.2769 31.8445 35.2308 31.8635C35.1846 31.8826 35.1592 31.9328 35.1744 31.9752C35.1897 32.0178 35.1613 32.0694 35.1115 32.0899C35.0616 32.1103 35.0349 32.1515 35.0519 32.1812C35.0691 32.211 35.0427 32.252 34.9932 32.2724C34.9363 32.2957 34.9139 32.353 34.9323 32.4286C34.9519 32.5089 34.9337 32.5478 34.8763 32.5478C34.8156 32.5478 34.7988 32.5908 34.8178 32.6977C34.8357 32.7983 34.8195 32.8476 34.7684 32.8476C34.7265 32.8476 34.6922 32.8762 34.6922 32.9112C34.6922 32.9461 34.7237 32.9543 34.7621 32.9296C34.8156 32.8953 34.815 32.9071 34.7602 32.9797C34.7206 33.032 34.6922 33.098 34.6968 33.1262C34.7171 33.2468 34.6889 33.3923 34.6503 33.3666C34.5402 33.2938 34.558 35.1588 34.6684 35.2852C34.7016 35.3229 34.7212 35.457 34.7119 35.5828C34.6995 35.7513 34.7268 35.8477 34.8153 35.9487C34.8975 36.0426 34.9112 36.0859 34.8586 36.0859C34.7988 36.0859 34.7967 36.1019 34.8489 36.1579C34.8858 36.1974 34.916 36.2784 34.916 36.3378C34.916 36.3971 34.9412 36.4457 34.9719 36.4457C35.0027 36.4457 35.0279 36.4815 35.0279 36.5252C35.0279 36.5689 35.089 36.6662 35.1637 36.7415C35.2383 36.8168 35.286 36.9159 35.2695 36.9619C35.2532 37.0078 35.2709 37.0454 35.3091 37.0454C35.3474 37.0454 35.4369 37.1129 35.5083 37.1953C35.5796 37.2778 35.6255 37.3452 35.6104 37.3452C35.5953 37.3452 35.6154 37.3829 35.655 37.4289C35.6947 37.4749 35.746 37.5003 35.7691 37.4853C35.7922 37.4704 35.811 37.5001 35.811 37.5515C35.811 37.6029 35.8461 37.6451 35.8889 37.6451C35.9319 37.6451 35.9819 37.6872 36.0004 37.7388C36.0201 37.7936 36.0632 37.8145 36.1043 37.7892C36.1431 37.7653 36.158 37.7656 36.1377 37.7899C36.079 37.8604 36.453 38.2358 36.571 38.2248C36.6337 38.219 36.6717 38.2478 36.6628 38.2942C36.6544 38.3379 36.6703 38.3584 36.6984 38.3398C36.7264 38.3212 36.7805 38.3463 36.8186 38.3953C36.8566 38.4445 36.916 38.4842 36.9507 38.4837C36.9854 38.4833 36.976 38.4566 36.9299 38.4247C36.8837 38.3927 36.8732 38.366 36.9065 38.3656C36.9399 38.3651 36.9861 38.3849 37.0092 38.4097C37.0322 38.4344 37.0742 38.4581 37.1023 38.4621C37.2273 38.4804 37.2328 38.49 37.1536 38.5512C37.0837 38.605 37.0868 38.61 37.1718 38.5804C37.2294 38.5603 37.3121 38.586 37.3616 38.6391C37.4146 38.6959 37.4991 38.7199 37.5749 38.6995C37.6458 38.6803 37.7265 38.6996 37.7609 38.744C37.8438 38.8512 39.6804 38.8444 39.7138 38.7367C39.7276 38.6923 39.7892 38.6789 39.8745 38.702C39.9748 38.729 40.0529 38.7001 40.1587 38.5969C40.2388 38.5187 40.2862 38.4884 40.2641 38.5296C40.2076 38.6349 40.3141 38.6235 40.3977 38.5152C40.4357 38.4662 40.4858 38.4386 40.509 38.4539C40.5322 38.4692 40.5961 38.4284 40.6512 38.3633C40.7062 38.2981 40.8144 38.2448 40.8918 38.2448C40.969 38.2448 41.0175 38.229 40.9996 38.2098C40.9412 38.1472 41.1507 37.9671 41.2514 37.9933C41.323 38.0121 41.3504 37.9807 41.3537 37.877C41.3561 37.7989 41.3706 37.7685 41.3862 37.8094C41.4196 37.8981 41.5276 37.8023 41.5884 37.6301C41.6088 37.5724 41.6531 37.5251 41.6871 37.5251C41.7655 37.5251 41.8761 37.4061 41.924 37.2703C41.9445 37.2126 41.9997 37.1653 42.0467 37.1653C42.0942 37.1653 42.1324 37.1135 42.1324 37.049C42.1324 36.985 42.1565 36.9166 42.186 36.8971C42.2154 36.8776 42.2232 36.8153 42.2035 36.7586C42.1713 36.6665 42.178 36.6649 42.2672 36.7427C42.3584 36.8223 42.3654 36.8172 42.3477 36.6827C42.3347 36.5848 42.353 36.5412 42.4023 36.5522C42.443 36.5611 42.4622 36.5441 42.4449 36.5139C42.4275 36.4839 42.4506 36.4262 42.496 36.3857C42.5415 36.3453 42.5667 36.2913 42.552 36.2658C42.5373 36.2403 42.5614 36.1874 42.6054 36.1481C42.6521 36.1064 42.6769 36.0046 42.665 35.903C42.6518 35.7927 42.6683 35.734 42.71 35.7426C42.752 35.7511 42.7704 35.684 42.7611 35.5571C42.7517 35.43 42.7675 35.3723 42.8053 35.3973C42.844 35.4229 42.8523 35.3781 42.8295 35.2664C42.8029 35.1363 42.8086 35.1176 42.8543 35.1864C42.8976 35.2516 42.9141 35.0267 42.9148 34.3662C42.9155 33.6665 42.8976 33.4365 42.8376 33.3722C42.791 33.3223 42.7702 33.2178 42.786 33.1131C42.8025 33.004 42.7941 32.9653 42.7639 33.0109C42.7296 33.0623 42.6965 33.031 42.6523 32.9055C42.6177 32.8073 42.6124 32.7421 42.6407 32.7608C42.6688 32.7794 42.6918 32.7556 42.6918 32.7076C42.6918 32.6598 42.6545 32.6052 42.6089 32.5864C42.5614 32.567 42.5401 32.5127 42.5591 32.4595C42.5829 32.393 42.5674 32.3769 42.5051 32.4025C42.4356 32.431 42.4235 32.4049 42.4453 32.2758C42.4661 32.1523 42.4535 32.1211 42.3928 32.1461C42.337 32.1691 42.3209 32.1461 42.3394 32.0703C42.354 32.0106 42.3347 31.9409 42.2965 31.9155C42.2488 31.8841 42.2412 31.8941 42.2723 31.9481C42.3032 32.0016 42.2958 32.0121 42.2492 31.9812C42.2116 31.9563 42.1942 31.8982 42.2107 31.8521C42.2272 31.806 42.2165 31.7682 42.1866 31.7682C42.1568 31.7682 42.1324 31.7248 42.1324 31.6718C42.1324 31.6117 42.1015 31.5881 42.0503 31.6093C42.0052 31.6278 41.9533 31.6172 41.9351 31.5857C41.9169 31.5541 41.935 31.5275 41.9752 31.5265C42.0155 31.5255 41.9982 31.4934 41.9366 31.4553C41.8751 31.4171 41.7348 31.2826 41.625 31.1565C41.5151 31.0303 41.406 30.9477 41.3827 30.9728C41.3592 30.998 41.3451 30.9916 41.3512 30.9586C41.381 30.8003 41.3432 30.7364 41.2374 30.7661C41.1646 30.7865 41.1255 30.7679 41.1255 30.7132C41.1255 30.6667 41.0751 30.6288 41.0136 30.6288C40.9521 30.6288 40.9017 30.6042 40.9017 30.5742C40.9017 30.5441 40.7884 30.4607 40.65 30.3889C40.5115 30.3171 40.3978 30.227 40.3974 30.1886C40.3968 30.1493 40.3729 30.1582 40.3423 30.209C40.3125 30.2585 40.2875 30.272 40.2868 30.239C40.2861 30.206 40.2227 30.1478 40.1459 30.1096C40.0405 30.0571 40.0159 30.0571 40.0452 30.1096C40.0671 30.1486 40.0436 30.1439 39.9918 30.099C39.9412 30.0549 39.8732 30.0363 39.8409 30.0577C39.8086 30.0792 39.7669 30.0544 39.7485 30.0029C39.7086 29.8915 39.5595 29.8766 39.5583 29.9841C39.5576 30.0387 39.5463 30.0403 39.5163 29.9901C39.4614 29.8979 37.9821 29.9017 37.9237 29.994C37.8957 30.0382 37.8823 30.0351 37.8817 29.9841C37.8813 29.9429 37.8542 29.9092 37.8216 29.9092C37.789 29.9092 37.7779 29.9361 37.797 29.9691ZM10.1339 31.4022C10.1339 31.4308 10.0811 31.4692 10.0165 31.4872C9.95172 31.5054 9.91549 31.549 9.93577 31.5842C9.95605 31.6194 9.93354 31.6482 9.88557 31.6482C9.7604 31.6482 9.7569 32.5346 9.88193 32.5858C9.9278 32.6049 9.95381 32.6404 9.93969 32.665C9.83955 32.8386 10.4123 32.8521 17.2105 32.835C23.0076 32.8203 24.0888 32.8047 24.0751 32.7353C24.0653 32.686 24.0902 32.6659 24.1369 32.6851C24.1868 32.7056 24.2487 32.6416 24.308 32.5085C24.3591 32.3935 24.3768 32.3155 24.3474 32.335C24.318 32.3545 24.2976 32.3178 24.3021 32.2533C24.3067 32.189 24.3303 32.1496 24.3547 32.1656C24.427 32.2136 24.405 31.9791 24.3291 31.8913C24.2727 31.8263 24.2737 31.8194 24.3337 31.8559C24.3894 31.8898 24.3859 31.855 24.3203 31.719C24.272 31.6189 24.1818 31.5196 24.1199 31.4985C24.058 31.4775 24.0074 31.4349 24.0074 31.4039C24.0074 31.3689 21.3631 31.3481 17.0707 31.3488C13.186 31.3496 10.1339 31.3731 10.1339 31.4022ZM38.7848 31.4983C39.1654 31.4983 39.3696 31.4766 39.3499 31.4383C39.3328 31.4054 39.3528 31.4121 39.3942 31.4533C39.4358 31.4946 39.5219 31.5283 39.586 31.5283C39.6499 31.5283 39.7386 31.5823 39.7829 31.6482C39.8634 31.7682 39.9881 31.8215 39.9227 31.7082C39.9037 31.6752 39.9171 31.6482 39.9527 31.6482C39.9881 31.6482 40.0303 31.7022 40.0464 31.7682C40.0626 31.8346 40.1227 31.8881 40.181 31.8881C40.2389 31.8881 40.2864 31.9151 40.2864 31.9481C40.2864 31.9811 40.325 32.008 40.3721 32.008C40.4191 32.008 40.474 32.0536 40.4939 32.1092C40.5139 32.1649 40.6138 32.3055 40.716 32.4215C40.8181 32.5377 40.9017 32.6541 40.9017 32.6801C40.9017 32.7064 40.9284 32.7277 40.961 32.7277C40.9936 32.7277 41.0024 32.6939 40.9807 32.6527C40.9539 32.6016 40.96 32.5969 41.0002 32.6377C41.068 32.707 41.2933 33.1317 41.2933 33.1908C41.2933 33.2125 41.2564 33.178 41.2112 33.1139C41.166 33.0498 41.1283 33.0298 41.1273 33.069C41.1263 33.1085 41.1814 33.1827 41.2498 33.2339C41.3182 33.2854 41.3434 33.3274 41.3058 33.3274C41.2681 33.3274 41.2374 33.3572 41.2374 33.3938C41.2374 33.4302 41.2722 33.4458 41.3147 33.4282C41.3739 33.404 41.3876 33.4479 41.3725 33.6144C41.3617 33.7342 41.3772 33.8485 41.4071 33.8683C41.5029 33.9318 41.5013 34.7859 41.4052 34.8703C41.3306 34.936 41.3306 34.9508 41.4052 35.0044C41.4652 35.0474 41.4685 35.0648 41.4167 35.0655C41.3769 35.066 41.3484 35.1002 41.3534 35.1414C41.3727 35.3014 41.3469 35.3718 41.2838 35.33C41.2404 35.3012 41.2298 35.3188 41.2525 35.382C41.2714 35.4345 41.2493 35.5108 41.2035 35.5514C41.1578 35.5921 41.1333 35.6615 41.1491 35.7057C41.1658 35.752 41.1403 35.7861 41.0893 35.7861C41.0281 35.7861 41.0097 35.8232 41.0298 35.906C41.0465 35.9744 41.0312 36.0267 40.9944 36.0279C40.9588 36.0288 40.8813 36.1007 40.8223 36.1875C40.7631 36.2745 40.7461 36.3247 40.7844 36.2994C40.8364 36.2649 40.8353 36.2853 40.7802 36.38C40.7395 36.4498 40.6981 36.4803 40.688 36.448C40.6779 36.4156 40.6026 36.4557 40.5206 36.5373C40.4385 36.6189 40.3522 36.6856 40.3289 36.6856C40.3055 36.6856 40.2864 36.7252 40.2864 36.7736C40.2864 36.8244 40.2532 36.8481 40.208 36.8295C40.1651 36.8118 40.1108 36.8304 40.0876 36.8707C40.0588 36.9207 40.0686 36.9286 40.1185 36.8955C40.1679 36.8628 40.1783 36.8703 40.1504 36.9186C40.1278 36.958 40.063 36.9746 40.0067 36.9554C39.9388 36.9324 39.8744 36.9664 39.8156 37.0563C39.7668 37.131 39.7269 37.159 39.7269 37.1187C39.7269 37.0784 39.6991 37.0454 39.665 37.0454C39.631 37.0454 39.617 37.0845 39.6342 37.1323C39.6551 37.1907 39.6384 37.2081 39.5836 37.1856C39.5386 37.167 39.4625 37.1868 39.4146 37.2295C39.2931 37.3376 38.2287 37.3458 38.1904 37.2389C38.1746 37.1946 38.1056 37.1737 38.0262 37.1892C37.9405 37.2058 37.8778 37.1835 37.8584 37.1292C37.8388 37.074 37.7764 37.0524 37.6872 37.0698C37.6101 37.0848 37.5301 37.0677 37.5096 37.0321C37.4872 36.9931 37.4981 36.9841 37.5366 37.0097C37.5721 37.0332 37.6012 37.038 37.6012 37.0205C37.6012 36.9652 37.2964 36.8208 37.232 36.8457C37.1981 36.8587 37.138 36.8276 37.0981 36.7761C37.0364 36.6964 37.0413 36.688 37.1317 36.7187C37.2296 36.7519 37.2301 36.7494 37.1392 36.6869C37.0851 36.6496 37.0162 36.6355 36.986 36.6554C36.9548 36.6761 36.9455 36.6517 36.9644 36.5988C36.9858 36.539 36.9664 36.5057 36.9099 36.5057C36.8615 36.5057 36.7946 36.451 36.7612 36.3841C36.7278 36.3172 36.6783 36.2772 36.6513 36.295C36.6242 36.313 36.5837 36.2961 36.5615 36.2576C36.5362 36.2136 36.5453 36.2034 36.5856 36.2301C36.6974 36.3042 36.6556 36.1764 36.5383 36.0859C36.4767 36.0384 36.4264 35.9634 36.4264 35.9195C36.4264 35.8756 36.351 35.7532 36.2589 35.6478C36.1667 35.5424 36.0916 35.4292 36.0919 35.3963C36.0922 35.3633 36.1169 35.3768 36.1467 35.4262C36.1852 35.4901 36.2012 35.4937 36.2018 35.4387C36.2022 35.3961 36.1521 35.3032 36.0905 35.2321C36.0282 35.1606 35.9996 35.0802 36.0261 35.0517C36.0526 35.0234 36.048 34.8789 36.0158 34.7281C35.9509 34.4243 36.0468 33.493 36.1467 33.4573C36.1775 33.4462 36.2026 33.411 36.2026 33.3788C36.2026 33.3465 36.1775 33.3369 36.1467 33.3573C36.1159 33.3777 36.0908 33.3681 36.0908 33.3359C36.0908 33.3037 36.1096 33.2684 36.1327 33.2573C36.2112 33.22 36.4264 32.8529 36.4264 32.7566C36.4264 32.7038 36.4467 32.6741 36.4716 32.6905C36.4965 32.707 36.5657 32.6491 36.6254 32.5617C36.7627 32.3611 36.8679 32.2485 37.0563 32.1002C37.1618 32.0172 37.1858 31.9689 37.1377 31.9362C37.0974 31.9088 37.1412 31.8896 37.2455 31.889C37.3528 31.8884 37.4345 31.8515 37.4549 31.7944C37.4733 31.7428 37.5112 31.7157 37.5389 31.734C37.5668 31.7524 37.6037 31.7275 37.6212 31.6788C37.6402 31.6257 37.6896 31.6054 37.7445 31.628C37.795 31.6487 37.8526 31.6392 37.8725 31.6069C37.9286 31.516 38.1279 31.4127 38.1599 31.458C38.1757 31.4802 38.4568 31.4983 38.7848 31.4983ZM10.1205 35.6322C10.0672 35.6739 10.0402 35.7255 10.0602 35.7471C10.0802 35.7685 10.0608 35.7861 10.0169 35.7861C9.88319 35.7861 9.81732 35.9762 9.80361 36.4007C9.79088 36.7947 9.81088 36.8412 9.98011 36.8126C10.0032 36.8087 10.0191 36.8258 10.0155 36.8505C9.9864 37.0472 9.92277 37.0454 16.9834 37.0454C22.0117 37.0454 23.9555 37.027 23.9831 36.979C24.0098 36.9328 24.0359 36.9373 24.0695 36.994C24.1066 37.0568 24.1178 37.0506 24.1185 36.9668C24.1189 36.9072 24.1417 36.8733 24.1691 36.8914C24.1965 36.9096 24.2594 36.8328 24.3089 36.721C24.4187 36.4728 24.43 36.2387 24.3291 36.3037C24.279 36.336 24.2803 36.3208 24.3337 36.2502C24.3747 36.1959 24.3928 36.0995 24.374 36.036C24.3368 35.9102 24.1193 35.6184 24.1193 35.6943C24.1193 35.7198 24.0845 35.7097 24.0418 35.6718C23.9393 35.5807 10.3022 35.5453 10.3009 35.6361C10.3005 35.6691 10.2814 35.6646 10.2586 35.6262C10.2274 35.5736 10.1932 35.5751 10.1205 35.6322ZM10.1759 39.8769C10.1221 39.9491 10.078 39.9747 10.078 39.9338C10.078 39.8756 10.0608 39.8762 9.99996 39.9365C9.95703 39.979 9.93339 40.0341 9.94738 40.0588C9.96123 40.0835 9.93969 40.1038 9.89913 40.1038C9.7955 40.1038 9.76683 40.7397 9.86473 40.8693C9.91885 40.9408 9.91969 40.9546 9.86822 40.9213C9.82347 40.8925 9.7983 40.9123 9.7983 40.9762C9.7983 41.0388 9.8285 41.0637 9.87941 41.0427C9.93353 41.0205 9.95004 41.0382 9.92934 41.0963C9.90766 41.157 9.93815 41.1835 10.03 41.1841C10.1388 41.1849 10.1472 41.1963 10.078 41.2493C10.0106 41.3009 10.0188 41.3078 10.12 41.284C10.1937 41.2667 10.2462 41.2832 10.2467 41.3237C10.2472 41.3625 10.2709 41.3537 10.3002 41.3036C10.3453 41.2274 10.3637 41.2265 10.4253 41.2975C10.4848 41.366 10.4837 41.3723 10.419 41.3327C10.3664 41.3004 10.3537 41.3075 10.3804 41.3538C10.4227 41.4274 23.5153 41.4583 23.7691 41.3855C23.8379 41.3657 23.8787 41.3226 23.8599 41.29C23.8393 41.2541 23.8688 41.2451 23.9337 41.2672C24.0733 41.3145 24.3737 40.9957 24.3231 40.8538C24.3039 40.8008 24.3092 40.7711 24.3347 40.7879C24.3603 40.8048 24.3845 40.7212 24.3887 40.602C24.398 40.3363 24.2443 39.9656 24.1424 40.0075C24.0929 40.0279 24.0801 40.0045 24.1031 39.9359C24.1218 39.8798 24.1162 39.8543 24.0908 39.879C24.0652 39.9039 23.9829 39.8811 23.908 39.8285C23.8094 39.7593 23.7548 39.7509 23.7105 39.7984C23.6285 39.8862 10.5482 39.8918 10.4976 39.8039C10.4391 39.7024 10.2788 39.7389 10.1759 39.8769ZM41.2386 41.543C41.2677 41.5925 41.292 41.6096 41.2925 41.5811C41.2929 41.5526 41.3544 41.5721 41.429 41.6246C41.5309 41.6961 41.5718 41.7015 41.593 41.6465C41.6097 41.6034 41.6372 41.6288 41.6597 41.7079C41.6807 41.7821 41.7217 41.8429 41.7506 41.8429C41.7797 41.8429 41.7842 41.8091 41.7606 41.7679C41.7371 41.7267 41.8004 41.7672 41.9014 41.8579C42.0025 41.9486 42.1098 42.0228 42.14 42.0228C42.1702 42.0228 42.1796 42.0495 42.1607 42.0823C42.1418 42.115 42.1895 42.2094 42.2667 42.2922C42.4179 42.4541 42.4963 42.4884 42.4393 42.3676C42.4198 42.3264 42.4435 42.3449 42.4919 42.409C42.5404 42.4731 42.58 42.5542 42.58 42.5896C42.58 42.6249 42.6555 42.7206 42.7478 42.8024C42.8401 42.8841 42.9156 42.9899 42.9156 43.0374C42.9156 43.1724 43.1524 43.7004 43.1991 43.6694C43.222 43.6542 43.2283 43.6927 43.2132 43.755C43.198 43.8173 43.2169 43.889 43.255 43.9143C43.3027 43.9458 43.3103 43.9358 43.2792 43.8818C43.2482 43.8278 43.2557 43.8178 43.3034 43.8493C43.3416 43.8746 43.3594 43.9506 43.3429 44.0182C43.3265 44.0858 43.3416 44.1974 43.3766 44.2663C43.4115 44.3352 43.444 44.4413 43.4486 44.502C43.4533 44.5627 43.483 44.6302 43.5147 44.6519C43.5465 44.6737 43.5642 44.772 43.554 44.8707C43.5408 45.0013 43.5501 45.0257 43.5884 44.9606C43.6301 44.89 43.6431 44.9026 43.6505 45.0212C43.6651 45.2552 43.6711 45.2864 43.7146 45.3609C43.7371 45.3993 43.7254 45.4414 43.6886 45.4546C43.64 45.472 43.6456 45.5149 43.7087 45.6114C43.7565 45.6846 43.7872 45.8221 43.7768 45.9168C43.7651 46.0254 43.7876 46.1014 43.8377 46.1219C43.8849 46.1414 43.9074 46.2087 43.8932 46.288C43.88 46.3615 43.9002 46.4625 43.9378 46.5125C43.9923 46.5846 43.9921 46.5942 43.9365 46.5583C43.8981 46.5336 43.8666 46.5418 43.8666 46.5768C43.8666 46.6117 43.8918 46.6403 43.9226 46.6403C43.9533 46.6403 43.9785 46.7213 43.9785 46.8202C43.9785 46.9192 44.0037 47.0001 44.0344 47.0001C44.0652 47.0001 44.0904 47.0288 44.0904 47.0637C44.0904 47.0986 44.0625 47.1087 44.0287 47.0862C43.9947 47.0637 44.0045 47.1094 44.0504 47.1877C44.0964 47.266 44.1263 47.3772 44.1171 47.4349C44.1079 47.4926 44.1232 47.5399 44.1512 47.5399C44.1793 47.5399 44.2023 47.5685 44.2023 47.6034C44.2023 47.6384 44.1771 47.6502 44.1463 47.6298C44.1155 47.6094 44.0904 47.619 44.0904 47.6513C44.0904 47.6835 44.1169 47.7193 44.1494 47.7309C44.1818 47.7424 44.214 47.7919 44.2209 47.8408C44.2277 47.8896 44.256 47.9685 44.2836 48.016C44.3165 48.0724 44.3102 48.1109 44.2658 48.1268C44.2137 48.1454 44.2129 48.171 44.2627 48.2353C44.3182 48.307 44.1772 48.3195 43.3111 48.3195H42.2942L42.3023 46.3555C42.3116 44.1118 42.2949 44.0092 41.9226 44.0037C41.8534 44.0026 41.7968 43.9747 41.7968 43.9418C41.7968 43.9088 41.7213 43.8818 41.629 43.8818C41.5366 43.8818 41.4611 43.9088 41.4611 43.9418C41.4611 43.9747 41.3916 44.0017 41.3066 44.0017C40.9563 44.0017 40.9455 44.0723 40.9547 46.3074L40.963 48.3195H38.7506H36.5383V46.317C36.5383 44.5561 36.5278 44.3101 36.4509 44.2785C36.4028 44.2587 36.379 44.2152 36.3982 44.1821C36.4177 44.1482 36.3762 44.1212 36.3039 44.1208C36.2 44.12 36.191 44.1085 36.2586 44.0617C36.3187 44.02 36.2555 44.0016 36.0348 43.9966C35.7958 43.9914 35.7583 43.9791 35.867 43.9418L36.0068 43.8938L35.853 43.8878C35.7684 43.8845 35.6992 43.9088 35.6992 43.9418C35.6992 43.9747 35.6221 44.0017 35.528 44.0017C35.4283 44.0017 35.3713 44.0268 35.3915 44.0617C35.4105 44.0947 35.3958 44.1217 35.359 44.1217C35.16 44.1217 35.1434 44.2912 35.1416 46.3255L35.1397 48.3195H34.1641C33.2081 48.3195 33.0428 48.2881 33.2103 48.1389C33.2562 48.0982 33.2933 48.021 33.2928 47.9673C33.2921 47.8824 33.2849 47.8814 33.2377 47.9596C33.1435 48.116 33.1773 47.9686 33.2997 47.6893C33.3646 47.5414 33.4026 47.3784 33.3843 47.3271C33.366 47.2757 33.3902 47.1696 33.4382 47.091C33.5025 46.9856 33.5154 46.8763 33.4871 46.6744C33.4563 46.4541 33.465 46.4005 33.5314 46.4005C33.6138 46.4005 33.6853 46.0619 33.6853 45.6724C33.6853 45.5781 33.7135 45.5009 33.7481 45.5009C33.789 45.5009 33.7841 45.4656 33.7341 45.3994C33.6819 45.3305 33.6797 45.3125 33.7272 45.3431C33.777 45.3751 33.7972 45.3354 33.7972 45.2047C33.7972 45.1038 33.8223 45.0212 33.8531 45.0212C33.8839 45.0212 33.909 44.9926 33.909 44.9576C33.909 44.9227 33.8776 44.9132 33.8391 44.9365C33.7832 44.9704 33.7832 44.9627 33.8391 44.8981C33.8776 44.8536 33.909 44.7282 33.909 44.6194C33.909 44.5106 33.9342 44.4215 33.965 44.4215C33.9957 44.4215 34.0209 44.3405 34.0209 44.2416C34.0209 44.1427 34.0461 44.0617 34.0769 44.0617C34.1076 44.0617 34.1328 44.0212 34.1328 43.9717C34.1328 43.9223 34.158 43.8818 34.1887 43.8818C34.2195 43.8818 34.2447 43.8278 34.2447 43.7619C34.2447 43.6959 34.2762 43.6398 34.3146 43.6371C34.3682 43.6335 34.3676 43.6251 34.3124 43.6014C34.2601 43.5789 34.2724 43.5403 34.357 43.4616C34.4283 43.3953 34.4513 43.3377 34.4159 43.3143C34.377 43.2886 34.3806 43.2491 34.4271 43.1953C34.4652 43.1511 34.5196 43.1299 34.5479 43.1484C34.5761 43.1668 34.5848 43.1412 34.567 43.0916C34.5493 43.0419 34.5599 42.9634 34.5908 42.9169C34.6352 42.8499 34.6403 42.8542 34.6153 42.9373C34.598 42.995 34.6082 43.0422 34.6381 43.0422C34.6679 43.0422 34.6922 42.9883 34.6922 42.9223C34.6922 42.8563 34.7174 42.8024 34.7482 42.8024C34.7789 42.8024 34.8041 42.7737 34.8041 42.7388C34.8041 42.7039 34.775 42.6946 34.7395 42.7181C34.7005 42.744 34.6901 42.7346 34.7133 42.6943C34.7345 42.6577 34.7931 42.6446 34.8435 42.6655C34.9121 42.6937 34.9265 42.6782 34.9002 42.6048C34.8807 42.5506 34.8929 42.4878 34.927 42.4652C34.9647 42.4403 34.9735 42.4514 34.9493 42.4932C34.9273 42.5313 34.9356 42.5625 34.9676 42.5625C34.9996 42.5625 35.0413 42.4959 35.0603 42.4147C35.0793 42.3334 35.1399 42.2517 35.1947 42.233C35.2497 42.2144 35.3727 42.1189 35.4684 42.021C35.5639 41.9231 35.6676 41.8429 35.6986 41.8429C35.7297 41.8429 35.7552 41.8226 35.7555 41.7979C35.7561 41.7441 36.027 41.603 36.1299 41.603C36.1699 41.603 36.2026 41.576 36.2026 41.543C36.2026 41.51 36.2656 41.4831 36.3425 41.4831C36.4194 41.4831 36.4823 41.4628 36.4823 41.4381C36.4822 41.3418 41.1811 41.4456 41.2386 41.543ZM10.0221 44.1516C9.94514 44.1987 9.91368 44.2383 9.95214 44.2395C9.99059 44.2407 10.0221 44.2677 10.0221 44.2996C10.0221 44.3317 9.98682 44.3432 9.94374 44.3256C9.90081 44.3079 9.84655 44.3265 9.82333 44.3668C9.7962 44.4136 9.80431 44.4247 9.84557 44.3972C9.88109 44.3737 9.91018 44.383 9.91018 44.4179C9.91018 44.4528 9.885 44.4815 9.85424 44.4815C9.82249 44.4815 9.7983 44.6548 9.7983 44.8813C9.7983 45.1011 9.81284 45.2656 9.83046 45.2465C9.84822 45.2275 9.95269 45.3057 10.0628 45.4203C10.2141 45.5778 10.2741 45.6093 10.3093 45.5498C10.3448 45.4898 10.3562 45.4889 10.3569 45.5459C10.3576 45.6054 11.7358 45.6209 17.0595 45.6209C22.3434 45.6209 23.7772 45.605 23.8367 45.5459C23.8969 45.4859 23.9041 45.4859 23.8725 45.5459C23.8069 45.6706 24.0524 45.568 24.2011 45.4087C24.3505 45.2485 24.4018 45.0788 24.3387 44.9527C24.2941 44.8632 24.2937 44.8386 24.3375 44.8675C24.3717 44.8903 24.399 44.8686 24.399 44.8183C24.399 44.7689 24.3738 44.7118 24.3431 44.6914C24.3123 44.671 24.2871 44.6273 24.2871 44.5944C24.2871 44.5614 24.3123 44.551 24.3431 44.5714C24.4417 44.6368 24.4029 44.5503 24.2731 44.4151C24.2039 44.3429 24.185 44.3058 24.2312 44.3325C24.2773 44.3591 24.2541 44.3091 24.1794 44.2214L24.0439 44.0617L17.1028 44.0638C11.1912 44.0656 10.1412 44.0786 10.0221 44.1516Z" fill="#143474"/>
<path id="path1" fill-rule="evenodd" clip-rule="evenodd" d="M3.00019 0.583406C2.98117 0.616388 3.00341 0.643374 3.04956 0.643374C3.09571 0.643374 3.149 0.616388 3.16802 0.583406C3.18704 0.550423 3.1648 0.523438 3.11865 0.523438C3.0725 0.523438 3.01921 0.550423 3.00019 0.583406ZM2.59462 2.48635C2.52539 2.53613 2.46875 2.60254 2.46875 2.63388C2.46875 2.66521 2.50609 2.65082 2.55168 2.60194C2.59728 2.55307 2.6665 2.5009 2.70552 2.4859C2.74454 2.47106 2.76384 2.44468 2.74846 2.42713C2.73307 2.40974 2.66385 2.43643 2.59462 2.48635ZM50.2142 17.1347C50.2142 22.8902 50.2207 25.2447 50.2287 22.3669C50.2367 19.4892 50.2367 14.7802 50.2287 11.9024C50.2207 9.02471 50.2142 11.3792 50.2142 17.1347ZM38.6767 7.40466L48.7879 7.4201L48.8024 17.2848L48.8168 27.1494L48.8165 17.2696L48.8162 7.38982L38.6908 7.38952L28.5654 7.38937L38.6767 7.40466ZM6.91497 12.9369C6.91497 15.9878 6.92169 17.2359 6.93008 15.7104C6.93833 14.185 6.93833 11.6888 6.93008 10.1634C6.92169 8.63791 6.91497 9.88601 6.91497 12.9369ZM18.4947 10.0607C18.472 10.0999 18.5312 10.1176 18.6555 10.1086C18.7638 10.1008 18.8399 10.0728 18.8248 10.0464C18.7846 9.97686 18.5368 9.9875 18.4947 10.0607ZM10.7183 11.7344C10.7303 11.7552 10.8355 11.7794 10.9518 11.7878C11.0682 11.7962 11.1469 11.7854 11.1268 11.7638C11.0791 11.7126 10.6896 11.6846 10.7183 11.7344ZM18.8603 11.9788C18.9296 12.1177 18.9715 12.1309 18.9715 12.0138C18.9715 11.9678 18.9331 11.9144 18.8863 11.8952C18.8168 11.8666 18.8119 11.8821 18.8603 11.9788ZM35.3483 14.3611C37.2021 14.3698 40.2355 14.3698 42.0892 14.3611C43.943 14.3523 42.4263 14.3453 38.7188 14.3453C35.0113 14.3453 33.4945 14.3523 35.3483 14.3611ZM16.3422 14.9623C16.3422 15.0163 16.6748 15.2391 16.7057 15.2058C16.7167 15.194 16.6395 15.1236 16.534 15.0496C16.4285 14.9754 16.3422 14.9361 16.3422 14.9623ZM32.1459 18.6343C32.169 18.6744 34.4275 18.6942 38.8483 18.6928C43.1303 18.6916 45.4856 18.6703 45.4317 18.6333C45.3134 18.5522 32.0991 18.5532 32.1459 18.6343ZM13.1696 19.3979C13.3477 19.4099 13.6246 19.4097 13.785 19.3976C13.9454 19.3856 13.7997 19.3759 13.4612 19.376C13.1228 19.3762 12.9916 19.3859 13.1696 19.3979ZM6.91441 23.5213C6.91441 25.5003 6.92141 26.3012 6.93008 25.301C6.93861 24.3011 6.93861 22.6819 6.93008 21.7029C6.92141 20.7241 6.91441 21.5424 6.91441 23.5213ZM32.0424 22.8167C32.0282 22.8414 35.0223 22.8617 38.6961 22.8617C42.3699 22.8617 45.3758 22.8414 45.3758 22.8167C45.3758 22.792 42.3817 22.7717 38.7221 22.7717C35.0626 22.7717 32.0567 22.792 32.0424 22.8167ZM50.2003 38.5548C50.1929 44.3166 50.2056 49.0433 50.2287 49.0586C50.2666 49.0838 50.2665 41.8946 50.2283 31.8569C50.2203 29.779 50.2077 32.793 50.2003 38.5548ZM38.6487 28.6335L48.7879 28.6489L48.8024 38.4836L48.8168 48.3183L48.8165 38.4685L48.8162 28.6186L38.6628 28.6183L28.5095 28.6182L38.6487 28.6335ZM27.1662 38.4834C27.1662 43.9091 27.1728 46.1287 27.1809 43.4158C27.189 40.703 27.189 36.2639 27.1809 33.551C27.1728 30.8382 27.1662 33.0578 27.1662 38.4834ZM41.0975 32.8917C41.1837 33.065 41.264 33.1963 41.2759 33.1836C41.3019 33.1557 41.0824 32.7217 40.9992 32.6365C40.9671 32.6035 41.0113 32.7184 41.0975 32.8917ZM13.7786 35.59C15.5838 35.5987 18.5543 35.5987 20.3796 35.59C22.205 35.5811 20.728 35.5741 17.0974 35.5741C13.4668 35.5739 11.9733 35.5811 13.7786 35.59ZM37.0405 36.7082C37.0405 36.7235 37.1223 36.7977 37.2223 36.8728C37.3513 36.9698 37.3811 36.9788 37.3249 36.9037C37.2447 36.7968 37.0405 36.6564 37.0405 36.7082ZM38.5385 38.8272C38.67 38.84 38.8714 38.8398 38.986 38.8269C39.1006 38.814 38.9929 38.8037 38.7467 38.8038C38.5006 38.8041 38.4069 38.8146 38.5385 38.8272ZM10.4966 39.8032C10.5197 39.8432 12.7782 39.863 17.199 39.8617C21.481 39.8605 23.8363 39.8392 23.7824 39.8021C23.6641 39.721 10.4498 39.7221 10.4966 39.8032ZM44.201 42.4096C44.201 42.465 44.4374 42.9223 44.481 42.9512C44.5055 42.9676 44.463 42.846 44.3863 42.6811C44.2623 42.4142 44.201 42.3246 44.201 42.4096ZM40.9255 46.3993C40.9255 47.4712 40.9331 47.9097 40.9423 47.3738C40.9517 46.8378 40.9517 45.9608 40.9423 45.4248C40.9331 44.8888 40.9255 45.3273 40.9255 46.3993ZM42.3239 46.4592C42.3239 47.4982 42.3316 47.9232 42.3408 47.4037C42.3502 46.8843 42.3502 46.0342 42.3408 45.5147C42.3316 44.9953 42.3239 45.4203 42.3239 46.4592ZM33.4642 46.5642C33.4677 46.7104 33.4736 46.7155 33.5162 46.6092C33.5818 46.4453 33.5818 46.3993 33.5162 46.3993C33.4855 46.3993 33.4621 46.4735 33.4642 46.5642Z" fill="#183474"/>
<path id="path2" fill-rule="evenodd" clip-rule="evenodd" d="M3.00019 0.583406C2.98117 0.616388 3.00341 0.643374 3.04956 0.643374C3.09571 0.643374 3.149 0.616388 3.16802 0.583406C3.18704 0.550423 3.1648 0.523438 3.11865 0.523438C3.0725 0.523438 3.01921 0.550423 3.00019 0.583406ZM2.59462 2.48635C2.52539 2.53613 2.46875 2.60254 2.46875 2.63388C2.46875 2.66521 2.50609 2.65082 2.55168 2.60194C2.59728 2.55307 2.6665 2.5009 2.70552 2.4859C2.74454 2.47106 2.76384 2.44468 2.74846 2.42713C2.73307 2.40974 2.66385 2.43643 2.59462 2.48635ZM50.2142 17.1347C50.2142 22.8902 50.2207 25.2447 50.2287 22.3669C50.2367 19.4892 50.2367 14.7802 50.2287 11.9024C50.2207 9.02471 50.2142 11.3792 50.2142 17.1347ZM38.6767 7.40466L48.7879 7.4201L48.8024 17.2848L48.8168 27.1494L48.8165 17.2696L48.8162 7.38982L38.6908 7.38952L28.5654 7.38937L38.6767 7.40466ZM6.91497 12.9369C6.91497 15.9878 6.92169 17.2359 6.93008 15.7104C6.93833 14.185 6.93833 11.6888 6.93008 10.1634C6.92169 8.63791 6.91497 9.88601 6.91497 12.9369ZM18.4947 10.0607C18.472 10.0999 18.5312 10.1176 18.6555 10.1086C18.7638 10.1008 18.8399 10.0728 18.8248 10.0464C18.7846 9.97686 18.5368 9.9875 18.4947 10.0607ZM10.7183 11.7344C10.7303 11.7552 10.8355 11.7794 10.9518 11.7878C11.0682 11.7962 11.1469 11.7854 11.1268 11.7638C11.0791 11.7126 10.6896 11.6846 10.7183 11.7344ZM18.8603 11.9788C18.9296 12.1177 18.9715 12.1309 18.9715 12.0138C18.9715 11.9678 18.9331 11.9144 18.8863 11.8952C18.8168 11.8666 18.8119 11.8821 18.8603 11.9788ZM35.3483 14.3611C37.2021 14.3698 40.2355 14.3698 42.0892 14.3611C43.943 14.3523 42.4263 14.3453 38.7188 14.3453C35.0113 14.3453 33.4945 14.3523 35.3483 14.3611ZM16.3422 14.9623C16.3422 15.0163 16.6748 15.2391 16.7057 15.2058C16.7167 15.194 16.6395 15.1236 16.534 15.0496C16.4285 14.9754 16.3422 14.9361 16.3422 14.9623ZM32.1459 18.6343C32.169 18.6744 34.4275 18.6942 38.8483 18.6928C43.1303 18.6916 45.4856 18.6703 45.4317 18.6333C45.3134 18.5522 32.0991 18.5532 32.1459 18.6343ZM13.1696 19.3979C13.3477 19.4099 13.6246 19.4097 13.785 19.3976C13.9454 19.3856 13.7997 19.3759 13.4612 19.376C13.1228 19.3762 12.9916 19.3859 13.1696 19.3979ZM6.91441 23.5213C6.91441 25.5003 6.92141 26.3012 6.93008 25.301C6.93861 24.3011 6.93861 22.6819 6.93008 21.7029C6.92141 20.7241 6.91441 21.5424 6.91441 23.5213ZM32.0424 22.8167C32.0282 22.8414 35.0223 22.8617 38.6961 22.8617C42.3699 22.8617 45.3758 22.8414 45.3758 22.8167C45.3758 22.792 42.3817 22.7717 38.7221 22.7717C35.0626 22.7717 32.0567 22.792 32.0424 22.8167ZM50.2003 38.5548C50.1929 44.3166 50.2056 49.0433 50.2287 49.0586C50.2666 49.0838 50.2665 41.8946 50.2283 31.8569C50.2203 29.779 50.2077 32.793 50.2003 38.5548ZM38.6487 28.6335L48.7879 28.6489L48.8024 38.4836L48.8168 48.3183L48.8165 38.4685L48.8162 28.6186L38.6628 28.6183L28.5095 28.6182L38.6487 28.6335ZM27.1662 38.4834C27.1662 43.9091 27.1728 46.1287 27.1809 43.4158C27.189 40.703 27.189 36.2639 27.1809 33.551C27.1728 30.8382 27.1662 33.0578 27.1662 38.4834ZM41.0975 32.8917C41.1837 33.065 41.264 33.1963 41.2759 33.1836C41.3019 33.1557 41.0824 32.7217 40.9992 32.6365C40.9671 32.6035 41.0113 32.7184 41.0975 32.8917ZM13.7786 35.59C15.5838 35.5987 18.5543 35.5987 20.3796 35.59C22.205 35.5811 20.728 35.5741 17.0974 35.5741C13.4668 35.5739 11.9733 35.5811 13.7786 35.59ZM37.0405 36.7082C37.0405 36.7235 37.1223 36.7977 37.2223 36.8728C37.3513 36.9698 37.3811 36.9788 37.3249 36.9037C37.2447 36.7968 37.0405 36.6564 37.0405 36.7082ZM38.5385 38.8272C38.67 38.84 38.8714 38.8398 38.986 38.8269C39.1006 38.814 38.9929 38.8037 38.7467 38.8038C38.5006 38.8041 38.4069 38.8146 38.5385 38.8272ZM10.4966 39.8032C10.5197 39.8432 12.7782 39.863 17.199 39.8617C21.481 39.8605 23.8363 39.8392 23.7824 39.8021C23.6641 39.721 10.4498 39.7221 10.4966 39.8032ZM44.201 42.4096C44.201 42.465 44.4374 42.9223 44.481 42.9512C44.5055 42.9676 44.463 42.846 44.3863 42.6811C44.2623 42.4142 44.201 42.3246 44.201 42.4096ZM40.9255 46.3993C40.9255 47.4712 40.9331 47.9097 40.9423 47.3738C40.9517 46.8378 40.9517 45.9608 40.9423 45.4248C40.9331 44.8888 40.9255 45.3273 40.9255 46.3993ZM42.3239 46.4592C42.3239 47.4982 42.3316 47.9232 42.3408 47.4037C42.3502 46.8843 42.3502 46.0342 42.3408 45.5147C42.3316 44.9953 42.3239 45.4203 42.3239 46.4592ZM33.4642 46.5642C33.4677 46.7104 33.4736 46.7155 33.5162 46.6092C33.5818 46.4453 33.5818 46.3993 33.5162 46.3993C33.4855 46.3993 33.4621 46.4735 33.4642 46.5642Z" fill="#183474"/>
<path id="path3" fill-rule="evenodd" clip-rule="evenodd" d="M3.00019 0.583406C2.98117 0.616388 3.00341 0.643374 3.04956 0.643374C3.09571 0.643374 3.149 0.616388 3.16802 0.583406C3.18704 0.550423 3.1648 0.523438 3.11865 0.523438C3.0725 0.523438 3.01921 0.550423 3.00019 0.583406ZM2.59462 2.48635C2.52539 2.53613 2.46875 2.60254 2.46875 2.63388C2.46875 2.66521 2.50609 2.65082 2.55168 2.60194C2.59728 2.55307 2.6665 2.5009 2.70552 2.4859C2.74454 2.47106 2.76384 2.44468 2.74846 2.42713C2.73307 2.40974 2.66385 2.43643 2.59462 2.48635ZM50.2142 17.1347C50.2142 22.8902 50.2207 25.2447 50.2287 22.3669C50.2367 19.4892 50.2367 14.7802 50.2287 11.9024C50.2207 9.02471 50.2142 11.3792 50.2142 17.1347ZM38.6767 7.40466L48.7879 7.4201L48.8024 17.2848L48.8168 27.1494L48.8165 17.2696L48.8162 7.38982L38.6908 7.38952L28.5654 7.38937L38.6767 7.40466ZM6.91497 12.9369C6.91497 15.9878 6.92169 17.2359 6.93008 15.7104C6.93833 14.185 6.93833 11.6888 6.93008 10.1634C6.92169 8.63791 6.91497 9.88601 6.91497 12.9369ZM18.4947 10.0607C18.472 10.0999 18.5312 10.1176 18.6555 10.1086C18.7638 10.1008 18.8399 10.0728 18.8248 10.0464C18.7846 9.97686 18.5368 9.9875 18.4947 10.0607ZM10.7183 11.7344C10.7303 11.7552 10.8355 11.7794 10.9518 11.7878C11.0682 11.7962 11.1469 11.7854 11.1268 11.7638C11.0791 11.7126 10.6896 11.6846 10.7183 11.7344ZM18.8603 11.9788C18.9296 12.1177 18.9715 12.1309 18.9715 12.0138C18.9715 11.9678 18.9331 11.9144 18.8863 11.8952C18.8168 11.8666 18.8119 11.8821 18.8603 11.9788ZM35.3483 14.3611C37.2021 14.3698 40.2355 14.3698 42.0892 14.3611C43.943 14.3523 42.4263 14.3453 38.7188 14.3453C35.0113 14.3453 33.4945 14.3523 35.3483 14.3611ZM16.3422 14.9623C16.3422 15.0163 16.6748 15.2391 16.7057 15.2058C16.7167 15.194 16.6395 15.1236 16.534 15.0496C16.4285 14.9754 16.3422 14.9361 16.3422 14.9623ZM32.1459 18.6343C32.169 18.6744 34.4275 18.6942 38.8483 18.6928C43.1303 18.6916 45.4856 18.6703 45.4317 18.6333C45.3134 18.5522 32.0991 18.5532 32.1459 18.6343ZM13.1696 19.3979C13.3477 19.4099 13.6246 19.4097 13.785 19.3976C13.9454 19.3856 13.7997 19.3759 13.4612 19.376C13.1228 19.3762 12.9916 19.3859 13.1696 19.3979ZM6.91441 23.5213C6.91441 25.5003 6.92141 26.3012 6.93008 25.301C6.93861 24.3011 6.93861 22.6819 6.93008 21.7029C6.92141 20.7241 6.91441 21.5424 6.91441 23.5213ZM32.0424 22.8167C32.0282 22.8414 35.0223 22.8617 38.6961 22.8617C42.3699 22.8617 45.3758 22.8414 45.3758 22.8167C45.3758 22.792 42.3817 22.7717 38.7221 22.7717C35.0626 22.7717 32.0567 22.792 32.0424 22.8167ZM50.2003 38.5548C50.1929 44.3166 50.2056 49.0433 50.2287 49.0586C50.2666 49.0838 50.2665 41.8946 50.2283 31.8569C50.2203 29.779 50.2077 32.793 50.2003 38.5548ZM38.6487 28.6335L48.7879 28.6489L48.8024 38.4836L48.8168 48.3183L48.8165 38.4685L48.8162 28.6186L38.6628 28.6183L28.5095 28.6182L38.6487 28.6335ZM27.1662 38.4834C27.1662 43.9091 27.1728 46.1287 27.1809 43.4158C27.189 40.703 27.189 36.2639 27.1809 33.551C27.1728 30.8382 27.1662 33.0578 27.1662 38.4834ZM41.0975 32.8917C41.1837 33.065 41.264 33.1963 41.2759 33.1836C41.3019 33.1557 41.0824 32.7217 40.9992 32.6365C40.9671 32.6035 41.0113 32.7184 41.0975 32.8917ZM13.7786 35.59C15.5838 35.5987 18.5543 35.5987 20.3796 35.59C22.205 35.5811 20.728 35.5741 17.0974 35.5741C13.4668 35.5739 11.9733 35.5811 13.7786 35.59ZM37.0405 36.7082C37.0405 36.7235 37.1223 36.7977 37.2223 36.8728C37.3513 36.9698 37.3811 36.9788 37.3249 36.9037C37.2447 36.7968 37.0405 36.6564 37.0405 36.7082ZM38.5385 38.8272C38.67 38.84 38.8714 38.8398 38.986 38.8269C39.1006 38.814 38.9929 38.8037 38.7467 38.8038C38.5006 38.8041 38.4069 38.8146 38.5385 38.8272ZM10.4966 39.8032C10.5197 39.8432 12.7782 39.863 17.199 39.8617C21.481 39.8605 23.8363 39.8392 23.7824 39.8021C23.6641 39.721 10.4498 39.7221 10.4966 39.8032ZM44.201 42.4096C44.201 42.465 44.4374 42.9223 44.481 42.9512C44.5055 42.9676 44.463 42.846 44.3863 42.6811C44.2623 42.4142 44.201 42.3246 44.201 42.4096ZM40.9255 46.3993C40.9255 47.4712 40.9331 47.9097 40.9423 47.3738C40.9517 46.8378 40.9517 45.9608 40.9423 45.4248C40.9331 44.8888 40.9255 45.3273 40.9255 46.3993ZM42.3239 46.4592C42.3239 47.4982 42.3316 47.9232 42.3408 47.4037C42.3502 46.8843 42.3502 46.0342 42.3408 45.5147C42.3316 44.9953 42.3239 45.4203 42.3239 46.4592ZM33.4642 46.5642C33.4677 46.7104 33.4736 46.7155 33.5162 46.6092C33.5818 46.4453 33.5818 46.3993 33.5162 46.3993C33.4855 46.3993 33.4621 46.4735 33.4642 46.5642Z" fill="#183474"/>
<path id="path4" fill-rule="evenodd" clip-rule="evenodd" d="M3.00019 0.583406C2.98117 0.616388 3.00341 0.643374 3.04956 0.643374C3.09571 0.643374 3.149 0.616388 3.16802 0.583406C3.18704 0.550423 3.1648 0.523438 3.11865 0.523438C3.0725 0.523438 3.01921 0.550423 3.00019 0.583406ZM2.59462 2.48635C2.52539 2.53613 2.46875 2.60254 2.46875 2.63388C2.46875 2.66521 2.50609 2.65082 2.55168 2.60194C2.59728 2.55307 2.6665 2.5009 2.70552 2.4859C2.74454 2.47106 2.76384 2.44468 2.74846 2.42713C2.73307 2.40974 2.66385 2.43643 2.59462 2.48635ZM50.2142 17.1347C50.2142 22.8902 50.2207 25.2447 50.2287 22.3669C50.2367 19.4892 50.2367 14.7802 50.2287 11.9024C50.2207 9.02471 50.2142 11.3792 50.2142 17.1347ZM38.6767 7.40466L48.7879 7.4201L48.8024 17.2848L48.8168 27.1494L48.8165 17.2696L48.8162 7.38982L38.6908 7.38952L28.5654 7.38937L38.6767 7.40466ZM6.91497 12.9369C6.91497 15.9878 6.92169 17.2359 6.93008 15.7104C6.93833 14.185 6.93833 11.6888 6.93008 10.1634C6.92169 8.63791 6.91497 9.88601 6.91497 12.9369ZM18.4947 10.0607C18.472 10.0999 18.5312 10.1176 18.6555 10.1086C18.7638 10.1008 18.8399 10.0728 18.8248 10.0464C18.7846 9.97686 18.5368 9.9875 18.4947 10.0607ZM10.7183 11.7344C10.7303 11.7552 10.8355 11.7794 10.9518 11.7878C11.0682 11.7962 11.1469 11.7854 11.1268 11.7638C11.0791 11.7126 10.6896 11.6846 10.7183 11.7344ZM18.8603 11.9788C18.9296 12.1177 18.9715 12.1309 18.9715 12.0138C18.9715 11.9678 18.9331 11.9144 18.8863 11.8952C18.8168 11.8666 18.8119 11.8821 18.8603 11.9788ZM35.3483 14.3611C37.2021 14.3698 40.2355 14.3698 42.0892 14.3611C43.943 14.3523 42.4263 14.3453 38.7188 14.3453C35.0113 14.3453 33.4945 14.3523 35.3483 14.3611ZM16.3422 14.9623C16.3422 15.0163 16.6748 15.2391 16.7057 15.2058C16.7167 15.194 16.6395 15.1236 16.534 15.0496C16.4285 14.9754 16.3422 14.9361 16.3422 14.9623ZM32.1459 18.6343C32.169 18.6744 34.4275 18.6942 38.8483 18.6928C43.1303 18.6916 45.4856 18.6703 45.4317 18.6333C45.3134 18.5522 32.0991 18.5532 32.1459 18.6343ZM13.1696 19.3979C13.3477 19.4099 13.6246 19.4097 13.785 19.3976C13.9454 19.3856 13.7997 19.3759 13.4612 19.376C13.1228 19.3762 12.9916 19.3859 13.1696 19.3979ZM6.91441 23.5213C6.91441 25.5003 6.92141 26.3012 6.93008 25.301C6.93861 24.3011 6.93861 22.6819 6.93008 21.7029C6.92141 20.7241 6.91441 21.5424 6.91441 23.5213ZM32.0424 22.8167C32.0282 22.8414 35.0223 22.8617 38.6961 22.8617C42.3699 22.8617 45.3758 22.8414 45.3758 22.8167C45.3758 22.792 42.3817 22.7717 38.7221 22.7717C35.0626 22.7717 32.0567 22.792 32.0424 22.8167ZM50.2003 38.5548C50.1929 44.3166 50.2056 49.0433 50.2287 49.0586C50.2666 49.0838 50.2665 41.8946 50.2283 31.8569C50.2203 29.779 50.2077 32.793 50.2003 38.5548ZM38.6487 28.6335L48.7879 28.6489L48.8024 38.4836L48.8168 48.3183L48.8165 38.4685L48.8162 28.6186L38.6628 28.6183L28.5095 28.6182L38.6487 28.6335ZM27.1662 38.4834C27.1662 43.9091 27.1728 46.1287 27.1809 43.4158C27.189 40.703 27.189 36.2639 27.1809 33.551C27.1728 30.8382 27.1662 33.0578 27.1662 38.4834ZM41.0975 32.8917C41.1837 33.065 41.264 33.1963 41.2759 33.1836C41.3019 33.1557 41.0824 32.7217 40.9992 32.6365C40.9671 32.6035 41.0113 32.7184 41.0975 32.8917ZM13.7786 35.59C15.5838 35.5987 18.5543 35.5987 20.3796 35.59C22.205 35.5811 20.728 35.5741 17.0974 35.5741C13.4668 35.5739 11.9733 35.5811 13.7786 35.59ZM37.0405 36.7082C37.0405 36.7235 37.1223 36.7977 37.2223 36.8728C37.3513 36.9698 37.3811 36.9788 37.3249 36.9037C37.2447 36.7968 37.0405 36.6564 37.0405 36.7082ZM38.5385 38.8272C38.67 38.84 38.8714 38.8398 38.986 38.8269C39.1006 38.814 38.9929 38.8037 38.7467 38.8038C38.5006 38.8041 38.4069 38.8146 38.5385 38.8272ZM10.4966 39.8032C10.5197 39.8432 12.7782 39.863 17.199 39.8617C21.481 39.8605 23.8363 39.8392 23.7824 39.8021C23.6641 39.721 10.4498 39.7221 10.4966 39.8032ZM44.201 42.4096C44.201 42.465 44.4374 42.9223 44.481 42.9512C44.5055 42.9676 44.463 42.846 44.3863 42.6811C44.2623 42.4142 44.201 42.3246 44.201 42.4096ZM40.9255 46.3993C40.9255 47.4712 40.9331 47.9097 40.9423 47.3738C40.9517 46.8378 40.9517 45.9608 40.9423 45.4248C40.9331 44.8888 40.9255 45.3273 40.9255 46.3993ZM42.3239 46.4592C42.3239 47.4982 42.3316 47.9232 42.3408 47.4037C42.3502 46.8843 42.3502 46.0342 42.3408 45.5147C42.3316 44.9953 42.3239 45.4203 42.3239 46.4592ZM33.4642 46.5642C33.4677 46.7104 33.4736 46.7155 33.5162 46.6092C33.5818 46.4453 33.5818 46.3993 33.5162 46.3993C33.4855 46.3993 33.4621 46.4735 33.4642 46.5642Z" fill="#183474"/>
</g>
</svg>
