<svg width="114" height="104" viewBox="0 0 114 104" fill="none" xmlns="http://www.w3.org/2000/svg">
<g id="Group 1261152879">
<path id="Vector 16" d="M99.9391 78.5265C92.7407 84.3123 51.8119 103.581 40.8095 103.581C-31.1744 99.9651 9.18797 8.01157 32.8398 1.03757C56.4917 -5.93643 52.1493 24.3876 68.6028 28.262C81.7656 31.3616 94.626 34.1856 98.6537 35.9076C127.131 49.3706 108.937 71.2942 99.9391 78.5265Z" fill="#CA256D"/>
<path id="Vector" fill-rule="evenodd" clip-rule="evenodd" d="M34.2057 70.6839L41.1062 77.5844C41.9827 76.3653 43.2178 75.8983 44.7234 75.8983H56.9487C60.7794 75.5743 63.2686 72.1025 66.4058 67.7253C66.5748 67.4862 68.3749 64.9881 68.3879 64.9976C69.2835 63.7755 69.421 62.9124 68.4354 61.9274C68.0348 61.5298 67.4933 61.3066 66.9288 61.3066C66.3644 61.3066 65.8228 61.5298 65.4222 61.9274L59.6194 67.7318C59.7343 68.1976 59.7418 68.6835 59.6415 69.1527C59.5412 69.6219 59.3355 70.0622 59.0401 70.4403C58.7447 70.8184 58.3672 71.1244 57.9362 71.3353C57.5052 71.5461 57.032 71.6563 56.5522 71.6575H50.2458C50.1119 71.6533 49.9849 71.5972 49.8916 71.501C49.7984 71.4049 49.7463 71.2762 49.7463 71.1422C49.7463 71.0083 49.7984 70.8796 49.8916 70.7834C49.9849 70.6872 50.1119 70.6311 50.2458 70.6269H56.5522C57.1117 70.6184 57.6453 70.3901 58.038 69.9914C58.4306 69.5927 58.6507 69.0556 58.6507 68.4961C58.6507 67.9365 58.4306 67.3994 58.038 67.0007C57.6453 66.602 57.1117 66.3737 56.5522 66.3652H46.6115C46.5522 66.3653 46.4934 66.3551 46.4375 66.3352C43.3993 65.5581 40.8492 65.5611 38.787 66.3442C36.7631 67.1546 35.1242 68.7067 34.2057 70.6839ZM37.846 84.8489L27.1508 74.1527C27.0542 74.0559 27 73.9248 27 73.7881C27 73.6515 27.0542 73.5204 27.1508 73.4236L30.0175 70.5574C30.4512 70.1259 31.011 69.8437 31.6158 69.7515C32.2207 69.6594 32.8391 69.7621 33.3817 70.0449C34.4206 67.9154 36.219 66.252 38.423 65.3821C40.6785 64.5261 43.426 64.5102 46.6655 65.3346H56.5522C57.0686 65.3354 57.5771 65.4625 58.0331 65.705C58.4892 65.9475 58.8789 66.2979 59.1683 66.7257L64.6932 61.2008C65.2871 60.6099 66.0908 60.2782 66.9286 60.2782C67.7664 60.2782 68.5701 60.6099 69.164 61.2008C70.5141 62.5509 70.418 64.0105 69.214 65.6151C69.214 65.6151 67.4139 68.0893 67.2468 68.3218C63.9466 72.9221 61.333 76.5723 57.0112 76.9223H56.9712H44.7269C43.4538 76.9223 42.4953 77.2969 41.8132 78.3724C42.1739 78.925 42.3339 79.5846 42.2666 80.2411C42.1992 80.8975 41.9086 81.5109 41.4432 81.9787L38.573 84.8489C38.5252 84.8968 38.4684 84.9348 38.4059 84.9607C38.3434 84.9867 38.2764 85 38.2087 85C38.1411 85 38.074 84.9867 38.0115 84.9607C37.949 84.9348 37.8923 84.8968 37.8445 84.8489H37.846ZM28.2438 73.7881L30.7465 71.288C31.0929 70.9449 31.5608 70.7525 32.0483 70.7525C32.5359 70.7525 33.0037 70.9449 33.3502 71.288C34.4587 72.3966 40.3481 78.3229 40.9167 78.8935C41.1631 79.2491 41.2776 79.6796 41.2403 80.1106C41.2031 80.5416 41.0164 80.9461 40.7126 81.2541L38.2125 83.7543L28.2438 73.7881ZM60.8144 58.9402L59.3478 57.8971C59.2512 57.8281 59.1337 57.7947 59.0152 57.8024C58.8968 57.8102 58.7846 57.8586 58.6978 57.9396C57.9229 58.6566 57.0202 59.2216 56.0366 59.6052C55.9264 59.6479 55.8343 59.7272 55.7757 59.8299C55.7172 59.9325 55.6958 60.0522 55.7151 60.1688L56.0151 61.9454L53.4255 62.3809L53.1254 60.6058C53.1052 60.4846 53.0422 60.3747 52.9479 60.2959C52.8536 60.2171 52.7343 60.1747 52.6114 60.1763C51.5648 60.1332 50.5354 59.8949 49.5762 59.4737C49.4634 59.4239 49.3363 59.4164 49.2184 59.4525C49.1004 59.4885 48.9994 59.5658 48.9337 59.6702L47.9086 61.1118L45.769 59.5882L46.8125 58.1221C46.8817 58.0256 46.9153 57.9081 46.9076 57.7896C46.9 57.6711 46.8515 57.5589 46.7705 57.4721C46.0535 56.6973 45.4884 55.7945 45.1049 54.8109C45.0623 54.7007 44.983 54.6085 44.8804 54.5499C44.7777 54.4913 44.658 54.47 44.5414 54.4894L42.7648 54.7894L42.3292 52.2003L44.1039 51.9002C44.2252 51.88 44.3352 51.8169 44.4141 51.7225C44.493 51.6282 44.5355 51.5087 44.5339 51.3857C44.5763 50.3391 44.8146 49.3098 45.2364 48.351C45.2861 48.2381 45.2937 48.111 45.2576 47.993C45.2215 47.875 45.1443 47.7738 45.0399 47.708L43.5973 46.6809L45.1234 44.5428L46.5895 45.5868C46.6861 45.6559 46.8036 45.6895 46.9221 45.6817C47.0406 45.674 47.1528 45.6254 47.2396 45.5443C48.0143 44.8273 48.9171 44.2625 49.9007 43.8792C50.0109 43.8366 50.1031 43.7572 50.1616 43.6546C50.2202 43.552 50.2416 43.4323 50.2223 43.3157L49.9222 41.5391L52.5114 41.103L52.8114 42.8782C52.8316 42.9994 52.8946 43.1094 52.9889 43.1882C53.0832 43.267 53.2026 43.3094 53.3254 43.3077C54.3722 43.3507 55.4016 43.5891 56.3606 44.0107C56.4737 44.0603 56.6007 44.0677 56.7187 44.0315C56.8367 43.9954 56.9378 43.9181 57.0037 43.8137L58.0243 42.3716L60.1644 43.8947L59.1243 45.3613C59.0552 45.4579 59.0217 45.5754 59.0295 45.6939C59.0372 45.8124 59.0857 45.9246 59.1668 46.0114C59.8837 46.7863 60.4485 47.689 60.8319 48.6725C60.8746 48.7827 60.9539 48.8749 61.0566 48.9334C61.1592 48.992 61.2789 49.0134 61.3955 48.9941L63.1721 48.694L63.6076 51.2837L61.833 51.5837C61.7117 51.6039 61.6017 51.6668 61.5228 51.7611C61.4439 51.8554 61.4014 51.9748 61.403 52.0978C61.3605 53.1445 61.1222 54.174 60.7004 55.1329C60.6507 55.2458 60.6432 55.3728 60.6793 55.4907C60.7154 55.6087 60.7926 55.7097 60.8969 55.7755L62.3395 56.8026L60.8144 58.9402ZM63.4746 56.9781L61.355 59.9548C61.3159 60.0098 61.2663 60.0566 61.2092 60.0924C61.152 60.1283 61.0883 60.1526 61.0218 60.1638C60.9552 60.175 60.8871 60.173 60.8213 60.1579C60.7556 60.1428 60.6934 60.1149 60.6384 60.0758L59.0883 58.9707C58.3991 59.5552 57.6289 60.0369 56.8017 60.4008L57.1182 62.2814C57.1405 62.4159 57.1085 62.5538 57.0293 62.6648C56.9501 62.7757 56.8301 62.8508 56.6957 62.8734L53.0889 63.4795C52.9544 63.5018 52.8166 63.4698 52.7056 63.3906C52.5946 63.3114 52.5196 63.1914 52.4969 63.057L52.1809 61.1778C51.2804 61.1048 50.3952 60.9027 49.5522 60.5778L48.4476 62.1279C48.3686 62.2388 48.2487 62.3139 48.1143 62.3365C47.9799 62.3591 47.8421 62.3274 47.7311 62.2484L44.7544 60.1293C44.6994 60.0902 44.6526 60.0407 44.6167 59.9835C44.5809 59.9263 44.5566 59.8626 44.5454 59.7961C44.5341 59.7295 44.5361 59.6614 44.5512 59.5956C44.5663 59.5299 44.5942 59.4677 44.6334 59.4127L45.7385 57.8626C45.1539 57.1736 44.6723 56.4035 44.3084 55.5765L42.4278 55.893C42.2932 55.9153 42.1552 55.8832 42.0442 55.8039C41.9333 55.7246 41.8583 55.6045 41.8357 55.47L41.2297 51.8662C41.2185 51.7996 41.2206 51.7315 41.2358 51.6657C41.251 51.5999 41.279 51.5378 41.3183 51.4828C41.3575 51.4279 41.4072 51.3812 41.4645 51.3455C41.5218 51.3098 41.5856 51.2857 41.6522 51.2747L43.5313 50.9582C43.6049 50.0576 43.8079 49.1723 44.1339 48.3295L42.5838 47.2254C42.4728 47.1464 42.3978 47.0265 42.3752 46.8921C42.3526 46.7578 42.3843 46.6199 42.4633 46.5089L44.5824 43.5317C44.6615 43.4208 44.7814 43.3457 44.9157 43.3231C45.0501 43.3006 45.1879 43.3322 45.2989 43.4112L46.849 44.5158C47.538 43.9313 48.3081 43.4498 49.1352 43.0862L48.8187 41.2051C48.8076 41.1384 48.8097 41.0703 48.825 41.0045C48.8402 40.9387 48.8683 40.8766 48.9076 40.8216C48.9469 40.7667 48.9966 40.72 49.0539 40.6843C49.1113 40.6486 49.1751 40.6246 49.2417 40.6135L52.8454 40.007C52.912 39.9959 52.9802 39.998 53.046 40.0133C53.1118 40.0286 53.1739 40.0566 53.2288 40.0959C53.2838 40.1352 53.3304 40.1849 53.3661 40.2423C53.4019 40.2996 53.4259 40.3634 53.437 40.43L53.753 42.3091C54.6536 42.3826 55.5389 42.5856 56.3816 42.9117L57.4862 41.3616C57.5253 41.3065 57.5748 41.2598 57.632 41.2239C57.6892 41.188 57.7529 41.1638 57.8194 41.1525C57.886 41.1413 57.9541 41.1433 58.0198 41.1584C58.0856 41.1735 58.1478 41.2014 58.2028 41.2406L61.18 43.3602C61.2909 43.4393 61.3659 43.5592 61.3885 43.6935C61.4111 43.8279 61.3794 43.9657 61.3005 44.0767L60.1959 45.6268C60.7795 46.3153 61.2607 47.0845 61.6245 47.9105L63.5051 47.594C63.5717 47.5828 63.6399 47.5849 63.7057 47.6001C63.7715 47.6153 63.8337 47.6433 63.8887 47.6825C63.9437 47.7218 63.9904 47.7715 64.0262 47.8288C64.0619 47.8861 64.086 47.9499 64.0971 48.0165L64.7037 51.6202C64.726 51.7548 64.6939 51.8927 64.6146 52.0037C64.5353 52.1147 64.4152 52.1897 64.2807 52.2123L62.4015 52.5283C62.3287 53.4288 62.1266 54.3141 61.8015 55.157L63.3516 56.261C63.4066 56.3001 63.4534 56.3497 63.4893 56.4069C63.5252 56.4642 63.5494 56.5279 63.5607 56.5945C63.5719 56.6611 63.5699 56.7292 63.5548 56.795C63.5397 56.8609 63.5118 56.923 63.4726 56.9781H63.4746ZM57.6682 50.9497C57.5117 50.02 57.0829 49.1576 56.4362 48.4716C55.7895 47.7856 54.954 47.3068 54.0351 47.0956C53.1163 46.8845 52.1555 46.9506 51.2742 47.2855C50.393 47.6204 49.6308 48.2091 49.0841 48.9772C48.5374 49.7453 48.2307 50.6582 48.2029 51.6006C48.1751 52.543 48.4273 53.4724 48.9277 54.2714C49.4281 55.0704 50.1541 55.7031 51.0141 56.0895C51.8741 56.4759 52.8293 56.5985 53.759 56.442C55.0054 56.2315 56.1173 55.5348 56.8503 54.5049C57.5833 53.4751 57.8775 52.1963 57.6682 50.9497ZM56.3281 47.0209C55.3945 46.3564 54.2848 45.9836 53.1393 45.9498C51.9938 45.9159 50.864 46.2225 49.8928 46.8307C48.9215 47.4389 48.1524 48.3215 47.6828 49.3668C47.2131 50.4121 47.0639 51.5732 47.2541 52.7033C47.4443 53.8333 47.9653 54.8817 48.7513 55.7156C49.5372 56.5496 50.5528 57.1318 51.6697 57.3886C52.7865 57.6454 53.9544 57.5653 55.0257 57.1584C56.097 56.7514 57.0235 56.036 57.6882 55.1024C58.1318 54.4833 58.4485 53.7826 58.6202 53.0405C58.792 52.2985 58.8153 51.5299 58.6889 50.7788C58.5625 50.0278 58.2889 49.3091 57.8837 48.6642C57.4786 48.0193 56.9499 47.4608 56.3281 47.0209ZM53.3635 50.7467L52.9674 49.8051L52.5889 50.7052C52.5573 50.8021 52.4977 50.8875 52.4176 50.9506C52.3375 51.0137 52.2405 51.0517 52.1389 51.0597L51.1248 51.1447L51.8739 51.7882C51.9528 51.8485 52.0127 51.9303 52.0463 52.0238C52.08 52.1173 52.0859 52.2185 52.0634 52.3153L51.8304 53.3088L52.6949 52.7853C52.7755 52.7346 52.8686 52.7073 52.9638 52.7065C53.059 52.7057 53.1525 52.7314 53.2339 52.7808L54.1055 53.3088L53.874 52.3148C53.8527 52.2236 53.8567 52.1284 53.8856 52.0394C53.9146 51.9504 53.9672 51.871 54.038 51.8097L54.808 51.1467L53.794 51.0597C53.7005 51.0521 53.611 51.019 53.535 50.9639C53.4591 50.9089 53.3998 50.8341 53.3635 50.7477V50.7467ZM53.4405 48.2815C53.401 48.1887 53.3351 48.1096 53.251 48.0539C53.1669 47.9983 53.0683 47.9687 52.9674 47.9687C52.8666 47.9687 52.768 47.9983 52.6839 48.0539C52.5998 48.1096 52.5339 48.1887 52.4944 48.2815L51.7443 50.0601L49.8237 50.2216C49.7231 50.2301 49.6272 50.2681 49.548 50.3308C49.4688 50.3935 49.4098 50.4782 49.3784 50.5742C49.3471 50.6702 49.3447 50.7734 49.3716 50.8707C49.3985 50.9681 49.4535 51.0554 49.5297 51.1217L50.9908 52.3833L50.5513 54.2644C50.5286 54.3626 50.5354 54.4654 50.5707 54.5598C50.606 54.6542 50.6683 54.7361 50.7499 54.7954C50.8315 54.8546 50.9287 54.8885 51.0294 54.8929C51.1301 54.8973 51.2299 54.8719 51.3163 54.8199L52.9664 53.8199L54.5845 54.7969C54.6695 54.8575 54.7709 54.8907 54.8752 54.8923C54.9796 54.8939 55.0819 54.8637 55.1687 54.8058C55.2555 54.7479 55.3226 54.6649 55.3612 54.568C55.3997 54.471 55.4079 54.3646 55.3846 54.2629L54.9431 52.3818L56.3791 51.1467C56.4628 51.084 56.5254 50.9974 56.5587 50.8983C56.592 50.7992 56.5943 50.6924 56.5654 50.5919C56.5364 50.4915 56.4776 50.4022 56.3968 50.336C56.3159 50.2698 56.2168 50.2297 56.1126 50.2211L54.1885 50.0596L53.4405 48.2815Z" fill="white"/>
</g>
</svg>
