<svg width="114" height="104" viewBox="0 0 114 104" fill="none" xmlns="http://www.w3.org/2000/svg">
<g id="Group 1261152879">
<path id="Vector 16" d="M99.9391 78.5265C92.7407 84.3123 51.8119 103.581 40.8095 103.581C-31.1744 99.9651 9.18797 8.01157 32.8398 1.03757C56.4917 -5.93643 52.1493 24.3876 68.6028 28.262C81.7656 31.3616 94.626 34.1856 98.6537 35.9076C127.131 49.3706 108.937 71.2942 99.9391 78.5265Z" fill="#CA256D"/>
<g id="Vector">
<path d="M69.1957 69.2942L65.6823 68.3315C65.3059 68.2274 64.9036 68.276 64.5629 68.4668C64.2221 68.6576 63.9704 68.9751 63.8624 69.3504L63.7007 69.9547L56.7863 68.1066C56.2438 67.9549 55.6764 67.9134 55.1176 67.9846C54.5588 68.0558 54.02 68.2383 53.5329 68.5212L49.9352 70.552C49.6542 70.7151 49.3435 70.8203 49.0212 70.8613C48.699 70.9024 48.3718 70.8784 48.059 70.7909L42.6764 69.3293C42.0094 69.1511 41.3009 69.2124 40.6744 69.5025C40.0478 69.7927 39.5429 70.2933 39.2473 70.9174L31.4475 66.7013C30.8967 66.3645 30.2386 66.2492 29.6061 66.3786C28.9735 66.508 28.4136 66.8724 28.0392 67.3983C27.6647 67.9243 27.5037 68.5727 27.5885 69.2127C27.6734 69.8528 27.9977 70.4368 28.4962 70.8471L39.0365 79.8485C40.1477 80.8016 41.4411 81.5188 42.838 81.9565C43.8911 82.2864 44.988 82.4546 46.0915 82.4555C46.4498 82.4555 46.7942 82.4555 47.1666 82.3992L60.63 81.0712L60.37 82.1603C60.3172 82.3471 60.3037 82.5429 60.3303 82.7351C60.3569 82.9274 60.4231 83.1121 60.5246 83.2776C60.621 83.4481 60.75 83.5979 60.9044 83.7185C61.0587 83.8391 61.2353 83.928 61.424 83.9803L64.9375 84.943C65.0683 84.9766 65.2029 84.9932 65.338 84.9921C65.5836 84.9893 65.8248 84.9266 66.0407 84.8094C66.2127 84.7185 66.364 84.5929 66.485 84.4405C66.6059 84.2881 66.6939 84.1122 66.7434 83.9241L70.2568 71.1071C70.3075 70.9184 70.3202 70.7214 70.2942 70.5278C70.2682 70.3341 70.2039 70.1475 70.1052 69.9788C70.0065 69.8102 69.8753 69.6628 69.7192 69.5453C69.563 69.4277 69.3851 69.3424 69.1957 69.2942ZM47.0963 81.3663C45.7798 81.4945 44.451 81.3559 43.1894 80.9587C41.9268 80.5668 40.7576 79.9212 39.7533 79.0615L29.213 70.0671C28.9183 69.8267 28.7262 69.4832 28.6757 69.1063C28.6252 68.7293 28.72 68.3473 28.941 68.0378C29.162 67.7283 29.4924 67.5145 29.8653 67.4398C30.2382 67.3652 30.6255 67.4353 30.9486 67.6358L38.9733 71.9433C38.9277 72.6231 39.1181 73.2978 39.5124 73.8535C39.9067 74.4091 40.4808 74.8116 41.1375 74.9929L48.7265 77.0588H48.8671C48.9982 77.0642 49.1266 77.0204 49.2272 76.9361C49.3278 76.8517 49.3933 76.7329 49.4109 76.6028C49.4284 76.4728 49.3968 76.3408 49.3223 76.2328C49.2477 76.1248 49.1355 76.0485 49.0076 76.0189L41.4186 73.96C41.1783 73.8964 40.9531 73.7852 40.7564 73.6332C40.5596 73.4811 40.3954 73.2912 40.2732 73.0746C40.1515 72.864 40.0726 72.6314 40.0412 72.3902C40.0099 72.149 40.0266 71.904 40.0905 71.6692C40.1549 71.4301 40.2658 71.206 40.4169 71.0098C40.5679 70.8135 40.7562 70.649 40.971 70.5257C41.1857 70.4023 41.4227 70.3225 41.6683 70.2909C41.9139 70.2592 42.1634 70.2763 42.4024 70.3412L47.792 71.8098C48.2389 71.9317 48.7055 71.9641 49.165 71.905C49.6244 71.8459 50.0677 71.6965 50.4692 71.4655L54.0669 69.3996C54.435 69.1886 54.8413 69.0526 55.2622 68.9996C55.6831 68.9465 56.1104 68.9774 56.5193 69.0904L63.4197 70.9666L60.9603 79.9961L47.0963 81.3663ZM69.2309 70.826L65.7174 83.643C65.7037 83.6936 65.6798 83.7409 65.6472 83.782C65.6145 83.823 65.5739 83.857 65.5277 83.8819C65.4743 83.9043 65.417 83.9159 65.3591 83.9159C65.3012 83.9159 65.2438 83.9043 65.1904 83.8819L61.677 82.9263C61.6205 82.9133 61.5672 82.8893 61.5202 82.8555C61.4731 82.8217 61.4333 82.7789 61.403 82.7295C61.3517 82.6376 61.3366 82.5298 61.3608 82.4273L64.8461 69.6104C64.872 69.5245 64.925 69.4493 64.9972 69.3961C65.0694 69.3428 65.1569 69.3145 65.2466 69.3153C65.2885 69.3086 65.3312 69.3086 65.3731 69.3153L68.8866 70.2709C68.948 70.277 69.0073 70.2969 69.0599 70.3293C69.1126 70.3617 69.1572 70.4056 69.1903 70.4577C69.2235 70.5098 69.2444 70.5688 69.2514 70.6302C69.2584 70.6915 69.2514 70.7537 69.2309 70.812V70.826Z" fill="white"/>
<path d="M38.2144 43.6884H48.9514C49.0912 43.6884 49.2252 43.6328 49.324 43.534C49.4229 43.4352 49.4784 43.3011 49.4784 43.1613C49.4784 43.0216 49.4229 42.8875 49.324 42.7887C49.2252 42.6899 49.0912 42.6343 48.9514 42.6343H38.2144C38.0746 42.6343 37.9406 42.6899 37.8417 42.7887C37.7429 42.8875 37.6874 43.0216 37.6874 43.1613C37.6874 43.3011 37.7429 43.4352 37.8417 43.534C37.9406 43.6328 38.0746 43.6884 38.2144 43.6884Z" fill="white"/>
<path d="M38.2144 45.8737H48.9514C49.0912 45.8737 49.2252 45.8182 49.324 45.7193C49.4229 45.6205 49.4784 45.4865 49.4784 45.3467C49.4784 45.2069 49.4229 45.0729 49.324 44.974C49.2252 44.8752 49.0912 44.8197 48.9514 44.8197H38.2144C38.0746 44.8197 37.9406 44.8752 37.8417 44.974C37.7429 45.0729 37.6874 45.2069 37.6874 45.3467C37.6874 45.4865 37.7429 45.6205 37.8417 45.7193C37.9406 45.8182 38.0746 45.8737 38.2144 45.8737Z" fill="white"/>
<path d="M38.2144 48.0591H48.9514C49.0705 48.0349 49.1776 47.9702 49.2546 47.8761C49.3315 47.782 49.3735 47.6641 49.3735 47.5426C49.3735 47.421 49.3315 47.3032 49.2546 47.2091C49.1776 47.1149 49.0705 47.0503 48.9514 47.0261H38.2144C38.0746 47.0261 37.9406 47.0816 37.8417 47.1805C37.7429 47.2793 37.6874 47.4133 37.6874 47.5531C37.6874 47.6929 37.7429 47.8269 37.8417 47.9258C37.9406 48.0246 38.0746 48.0801 38.2144 48.0801V48.0591Z" fill="white"/>
<path d="M38.2144 50.2444H48.9514C49.0816 50.2294 49.2017 50.167 49.2889 50.0692C49.3761 49.9714 49.4243 49.8449 49.4243 49.7139C49.4243 49.5828 49.3761 49.4564 49.2889 49.3585C49.2017 49.2607 49.0816 49.1984 48.9514 49.1833H38.2144C38.0842 49.1984 37.9641 49.2607 37.8769 49.3585C37.7897 49.4564 37.7415 49.5828 37.7415 49.7139C37.7415 49.8449 37.7897 49.9714 37.8769 50.0692C37.9641 50.167 38.0842 50.2294 38.2144 50.2444Z" fill="white"/>
<path d="M38.2144 52.4297H48.9514C49.0816 52.4147 49.2017 52.3524 49.2889 52.2546C49.3761 52.1567 49.4243 52.0303 49.4243 51.8992C49.4243 51.7682 49.3761 51.6417 49.2889 51.5439C49.2017 51.4461 49.0816 51.3837 48.9514 51.3687H38.2144C38.0842 51.3837 37.9641 51.4461 37.8769 51.5439C37.7897 51.6417 37.7415 51.7682 37.7415 51.8992C37.7415 52.0303 37.7897 52.1567 37.8769 52.2546C37.9641 52.3524 38.0842 52.4147 38.2144 52.4297Z" fill="white"/>
<path d="M38.2144 54.6151H48.9514C49.0816 54.6001 49.2017 54.5377 49.2889 54.4399C49.3761 54.3421 49.4243 54.2156 49.4243 54.0846C49.4243 53.9535 49.3761 53.8271 49.2889 53.7292C49.2017 53.6314 49.0816 53.5691 48.9514 53.554H38.2144C38.0842 53.5691 37.9641 53.6314 37.8769 53.7292C37.7897 53.8271 37.7415 53.9535 37.7415 54.0846C37.7415 54.2156 37.7897 54.3421 37.8769 54.4399C37.9641 54.5377 38.0842 54.6001 38.2144 54.6151Z" fill="white"/>
<path d="M38.2144 56.7934H43.604C43.7437 56.7934 43.8778 56.7379 43.9766 56.6391C44.0755 56.5402 44.131 56.4062 44.131 56.2664C44.131 56.1266 44.0755 55.9926 43.9766 55.8938C43.8778 55.7949 43.7437 55.7394 43.604 55.7394H38.2144C38.0746 55.7394 37.9406 55.7949 37.8417 55.8938C37.7429 55.9926 37.6874 56.1266 37.6874 56.2664C37.6874 56.4062 37.7429 56.5402 37.8417 56.6391C37.9406 56.7379 38.0746 56.7934 38.2144 56.7934Z" fill="white"/>
<path d="M48.326 59.4706C48.555 59.4693 48.7785 59.4001 48.9682 59.2718C49.158 59.1436 49.3055 58.962 49.3922 58.7501C49.4788 58.5381 49.5008 58.3052 49.4553 58.0807C49.4097 57.8563 49.2988 57.6504 49.1363 57.4889C48.9739 57.3275 48.7673 57.2177 48.5426 57.1736C48.3179 57.1294 48.0851 57.1528 47.8737 57.2407C47.6622 57.3287 47.4816 57.4773 47.3545 57.6678C47.2274 57.8583 47.1596 58.0822 47.1595 58.3112C47.1526 58.379 47.1526 58.4472 47.1595 58.515L45.8174 59.5198C45.6605 59.4408 45.4872 59.3999 45.3115 59.4004C45.1512 59.3879 44.99 59.4087 44.8381 59.4615C44.6862 59.5143 44.5469 59.5979 44.4288 59.7071C44.3108 59.8163 44.2166 59.9488 44.1522 60.0961C44.0878 60.2435 44.0546 60.4025 44.0546 60.5633C44.0546 60.7241 44.0878 60.8832 44.1522 61.0305C44.2166 61.1779 44.3108 61.3103 44.4288 61.4195C44.5469 61.5287 44.6862 61.6123 44.8381 61.6651C44.99 61.7179 45.1512 61.7387 45.3115 61.7263C45.4863 61.7256 45.6588 61.6872 45.8174 61.6138L47.1595 62.6187C47.1526 62.6864 47.1526 62.7547 47.1595 62.8225C47.1595 63.0532 47.228 63.2787 47.3561 63.4705C47.4843 63.6623 47.6665 63.8118 47.8796 63.9001C48.0928 63.9884 48.3273 64.0115 48.5536 63.9665C48.7798 63.9215 48.9877 63.8104 49.1508 63.6473C49.3139 63.4841 49.425 63.2763 49.47 63.05C49.5151 62.8237 49.492 62.5892 49.4037 62.3761C49.3154 62.1629 49.1659 61.9808 48.9741 61.8526C48.7822 61.7244 48.5567 61.656 48.326 61.656C48.1481 61.6554 47.9724 61.6963 47.813 61.7755L46.4779 60.7636C46.4817 60.6981 46.4817 60.6324 46.4779 60.5668C46.4814 60.499 46.4814 60.4309 46.4779 60.3631L47.813 59.3582C47.9741 59.4318 48.149 59.4701 48.326 59.4706Z" fill="white"/>
<path d="M34.0193 60.0117C34.0161 60.0256 34.0161 60.04 34.0193 60.0539C34.0193 60.0539 34.0193 60.0539 34.0193 60.096V60.1804L34.195 60.3771L39.9359 66.118L39.9781 66.1532H52.3383C52.4788 66.1532 52.6135 66.0979 52.7135 65.9993C52.8134 65.9006 52.8705 65.7666 52.8724 65.6262V40.5192C52.8724 40.4494 52.8585 40.3803 52.8316 40.3159C52.8047 40.2515 52.7652 40.1931 52.7155 40.1441C52.6659 40.0951 52.6069 40.0564 52.5422 40.0303C52.4774 40.0042 52.4081 39.9913 52.3383 39.9922H34.5464C34.4066 39.9922 34.2725 40.0478 34.1737 40.1466C34.0749 40.2454 34.0193 40.3795 34.0193 40.5192V60.0117ZM35.8252 60.4966H39.7603V64.4316L35.8252 60.4966ZM51.8113 41.0463V65.1835H40.8213V59.9696C40.8213 59.8291 40.766 59.6943 40.6674 59.5944C40.5688 59.4944 40.4347 59.4374 40.2943 59.4355H35.0804V41.0463H51.8113Z" fill="white"/>
</g>
</g>
</svg>
