<svg width="114" height="105" viewBox="0 0 114 105" fill="none" xmlns="http://www.w3.org/2000/svg">
<g id="Group 1261152862">
<g id="Group 54707">
<path id="Vector 16" d="M99.9391 79.4405C92.7407 85.2264 51.8119 104.495 40.8095 104.495C-31.1744 100.879 9.18797 8.92563 32.8398 1.95163C56.4917 -5.02237 52.1493 25.3017 68.6028 29.1761C81.7656 32.2757 94.626 35.0997 98.6537 36.8216C127.131 50.2847 108.937 72.2082 99.9391 79.4405Z" fill="#CA256D"/>
</g>
<g id="svgg">
<path id="path0" fill-rule="evenodd" clip-rule="evenodd" d="M30.7371 38.1883C30.6822 38.1988 30.6373 38.2285 30.6373 38.2542C30.6373 38.2827 30.6108 38.2789 30.5694 38.2446C30.5134 38.198 30.4914 38.2021 30.4432 38.268C30.4066 38.3181 30.3633 38.3345 30.3269 38.312C30.2887 38.2884 30.2797 38.2936 30.3006 38.3275C30.3216 38.3615 30.2904 38.3789 30.2078 38.3793C30.1357 38.3798 30.1051 38.3939 30.1353 38.4131C30.1701 38.4353 30.1517 38.463 30.0799 38.4969C29.9989 38.5351 29.972 38.535 29.9711 38.4963C29.9703 38.4682 29.9471 38.485 29.9194 38.5338C29.8545 38.6483 29.7869 38.6932 29.7175 38.6677C29.687 38.6566 29.6621 38.6779 29.6621 38.7151C29.6621 38.7523 29.6421 38.7705 29.6177 38.7555C29.5934 38.7404 29.5734 38.7471 29.5734 38.7705C29.5734 38.8259 29.2671 39.1323 29.2117 39.1323C29.1883 39.1323 29.1815 39.1522 29.1966 39.1766C29.2117 39.201 29.1935 39.2209 29.1563 39.2209C29.119 39.2209 29.0978 39.2458 29.1088 39.2763C29.1343 39.3457 29.0894 39.4133 28.975 39.4782C28.9262 39.5059 28.9094 39.5291 28.9375 39.5299C28.9762 39.5309 28.9763 39.5577 28.9381 39.6387C28.9042 39.7105 28.8764 39.7289 28.8543 39.6941C28.8351 39.664 28.8209 39.6946 28.8205 39.7666C28.82 39.8493 28.8026 39.8804 28.7686 39.8595C28.7348 39.8385 28.7296 39.8475 28.7532 39.8857C28.7757 39.9221 28.7593 39.9654 28.7092 40.002C28.6458 40.0483 28.6403 40.0736 28.6821 40.124C28.7232 40.1734 28.7222 40.1917 28.6776 40.2066C28.5944 40.2344 28.5925 80.4085 28.6757 80.4362C28.7062 80.4464 28.7312 80.4841 28.7312 80.5201C28.7312 80.5561 28.7112 80.5732 28.6868 80.5581C28.6624 80.543 28.6425 80.5497 28.6425 80.573C28.6425 80.5961 28.6745 80.6274 28.7136 80.6424C28.7554 80.6585 28.7739 80.6978 28.7584 80.7381C28.7435 80.7772 28.7509 80.7949 28.776 80.7794C28.8009 80.7641 28.8201 80.8062 28.8205 80.8768C28.8209 80.9489 28.8351 80.9795 28.8543 80.9493C28.8764 80.9145 28.9042 80.9329 28.9381 81.0047C28.9763 81.0857 28.9762 81.1126 28.9375 81.1136C28.9094 81.1143 28.9262 81.1375 28.975 81.1652C29.0894 81.2301 29.1343 81.2977 29.1088 81.3671C29.0978 81.3976 29.119 81.4225 29.1563 81.4225C29.1935 81.4225 29.2117 81.4425 29.1966 81.4669C29.1815 81.4912 29.1883 81.5112 29.2117 81.5112C29.2671 81.5112 29.5734 81.8175 29.5734 81.8729C29.5734 81.8963 29.5934 81.9031 29.6177 81.888C29.6421 81.8729 29.6621 81.8917 29.6621 81.9297C29.6621 81.9733 29.7018 81.9988 29.7699 81.9988C29.8411 81.9988 29.8879 82.031 29.9078 82.0934C29.9243 82.1453 29.9505 82.169 29.9662 82.146C29.9835 82.1205 30.0351 82.1249 30.0983 82.1573C30.1703 82.1942 30.1838 82.2177 30.1426 82.2341C30.1099 82.2472 30.1393 82.2594 30.2078 82.2612C30.29 82.2636 30.3215 82.2822 30.3006 82.316C30.2805 82.3486 30.2886 82.3551 30.3229 82.3338C30.3535 82.315 30.4176 82.3361 30.4704 82.3824C30.5218 82.4274 30.5493 82.4393 30.5315 82.4089C30.5136 82.3784 30.5185 82.3535 30.5423 82.3535C30.5662 82.3535 30.5939 82.3784 30.6041 82.4089C30.6346 82.5002 61.4907 82.4892 61.6031 82.3978C61.6501 82.3597 61.6708 82.3549 61.6516 82.3867C61.6334 82.4172 61.6373 82.4421 61.6606 82.4421C61.6838 82.4421 61.715 82.4101 61.7301 82.371C61.7462 82.3292 61.7854 82.3107 61.8257 82.3262C61.8649 82.3412 61.8826 82.3337 61.8671 82.3086C61.8519 82.284 61.8909 82.2648 61.9561 82.2648C62.0199 82.2648 62.0622 82.2488 62.0502 82.2293C62.0382 82.2098 62.0669 82.1698 62.1141 82.1403C62.1818 82.098 62.2 82.0985 62.2005 82.1426C62.201 82.1799 62.212 82.1827 62.2338 82.1508C62.2518 82.1246 62.3025 82.0898 62.3467 82.0735C62.3909 82.0571 62.4155 82.0251 62.4015 82.0021C62.3873 81.9793 62.396 81.9481 62.4208 81.9328C62.4456 81.9175 62.4659 81.927 62.4659 81.9539C62.4659 81.9809 62.5157 81.9529 62.5767 81.892C62.6376 81.831 62.6875 81.7592 62.6875 81.7323C62.6875 81.7054 62.706 81.6947 62.7286 81.7087C62.7512 81.7226 62.7825 81.6939 62.7981 81.6449C62.8137 81.5958 62.842 81.5555 62.8611 81.5555C62.88 81.5555 62.9416 81.5156 62.9978 81.4669C63.054 81.4181 63.077 81.3782 63.0489 81.3782C63.0209 81.3782 62.9978 81.3583 62.9978 81.3339C62.9978 81.3095 63.04 81.2896 63.0917 81.2896C63.1631 81.2896 63.18 81.2687 63.1627 81.2026C63.1502 81.1547 63.1678 81.0924 63.2018 81.0641C63.236 81.0359 63.2641 80.9802 63.2645 80.9406C63.265 80.8778 63.2708 80.8771 63.3081 80.9349C63.3415 80.9866 63.3512 80.9736 63.3518 80.8768C63.3521 80.8036 63.3711 80.7639 63.3978 80.7803C63.4257 80.7976 63.4388 80.7534 63.432 80.6644C63.4257 80.5814 63.4441 80.5128 63.4755 80.5024C63.5053 80.4924 63.5298 80.4249 63.5298 80.3523C63.5298 80.2774 63.5485 80.2321 63.5732 80.2473C63.6016 80.2648 63.6172 77.2653 63.618 71.624L63.6193 62.9737L63.7992 62.8008C63.8981 62.7059 63.968 62.6101 63.9543 62.5882C63.9408 62.5661 63.9644 62.5509 64.0068 62.5543C64.0548 62.558 64.0816 62.5313 64.0778 62.4832C64.0745 62.4409 64.0888 62.4167 64.1096 62.4296C64.1676 62.4654 65.7992 60.8148 65.7633 60.7567C65.7449 60.7271 65.7524 60.7194 65.7819 60.7375C65.8479 60.7782 67.8429 58.7832 67.8022 58.7172C67.7841 58.6877 67.7918 58.6802 67.8214 58.6986C67.8795 58.7345 69.5301 57.1029 69.4943 57.0449C69.4814 57.0241 69.5056 57.0098 69.5479 57.0131C69.596 57.0169 69.6227 56.9901 69.619 56.942C69.6156 56.8997 69.6299 56.8756 69.6509 56.8884C69.7087 56.9242 71.0744 55.5397 71.0385 55.4816C71.0199 55.4514 71.0278 55.4442 71.0586 55.4632C71.125 55.5042 71.3462 55.283 71.3051 55.2166C71.286 55.1857 71.2933 55.178 71.3238 55.1967C71.3826 55.2331 72.174 54.4513 72.174 54.3566C72.174 54.3221 72.2139 54.2688 72.2627 54.2383C72.3114 54.2078 72.3513 54.1526 72.3513 54.1156C72.3513 54.0786 72.392 54.0228 72.4418 53.9918C72.4914 53.9608 72.5201 53.9161 72.5056 53.8925C72.491 53.8689 72.5051 53.8495 72.5371 53.8493C72.569 53.8491 72.6182 53.7992 72.6465 53.7384C72.6852 53.6548 72.6852 53.635 72.6465 53.6572C72.6182 53.6734 72.6415 53.6356 72.6981 53.5735C72.7693 53.4951 72.7839 53.4544 72.7452 53.4416C72.7065 53.4287 72.7191 53.3931 72.7863 53.326C72.8423 53.27 72.8598 53.2287 72.8279 53.2283C72.7877 53.2278 72.7893 53.2169 72.8335 53.189C72.8671 53.1677 72.8817 53.1295 72.8661 53.104C72.8504 53.0786 72.8578 53.0453 72.8825 53.03C72.9626 52.9805 72.9406 51.4764 72.8575 51.3158C72.8189 51.2412 72.8089 51.1934 72.8353 51.2098C72.8617 51.2261 72.8833 51.2105 72.8833 51.175C72.8833 51.1397 72.8537 51.0993 72.8176 51.0855C72.779 51.0707 72.763 51.031 72.7788 50.9898C72.7948 50.948 72.7629 50.8722 72.7005 50.8036C72.6426 50.74 72.6201 50.7023 72.6505 50.7199C72.681 50.7375 72.706 50.7307 72.706 50.7049C72.706 50.6791 72.686 50.6579 72.6616 50.6579C72.6372 50.6579 72.6173 50.628 72.6173 50.5914C72.6173 50.5548 72.5886 50.5249 72.5535 50.5249C72.5183 50.5249 72.4753 50.5019 72.4579 50.4737C72.4383 50.442 72.4457 50.4346 72.4774 50.4542C72.5056 50.4716 72.5286 50.4647 72.5286 50.4389C72.5286 50.4131 72.4966 50.3919 72.4574 50.3919C72.4123 50.3919 72.3955 50.3675 72.4117 50.3254C72.4257 50.2889 72.4207 50.2589 72.4004 50.2589C72.3802 50.2589 72.2897 50.1891 72.1992 50.1038C72.1087 50.0185 72.0469 49.9486 72.0617 49.9486C72.0767 49.9486 72.0677 49.9237 72.0419 49.8932C72.0162 49.8627 71.9606 49.7969 71.9183 49.747C71.822 49.6332 71.5243 49.4223 71.5745 49.5035C71.5993 49.5437 71.5946 49.553 71.5603 49.5317C71.5321 49.5143 71.5091 49.4713 71.5091 49.4362C71.5091 49.4011 71.4742 49.3727 71.4315 49.373C71.3652 49.3736 71.3636 49.38 71.4204 49.4167C71.457 49.4403 71.4644 49.46 71.4369 49.4603C71.365 49.4613 71.2822 49.3491 71.321 49.3032C71.3392 49.2819 71.3208 49.2897 71.2803 49.3206C71.2297 49.3592 71.1975 49.3619 71.1775 49.3295C71.1614 49.3035 71.1297 49.2938 71.107 49.3077C71.0844 49.3218 71.0658 49.3055 71.0658 49.2716C71.0658 49.1928 70.8688 49.0859 70.8011 49.1278C70.7726 49.1454 70.7214 49.1229 70.6869 49.0776C70.6323 49.0063 70.6184 49.0042 70.5797 49.062C70.5542 49.1001 70.5349 49.1065 70.5345 49.077C70.5341 49.0487 70.4989 49.0311 70.4562 49.038C70.4136 49.0448 70.3238 49.0226 70.2568 48.9886C70.1897 48.9545 70.1348 48.9462 70.1348 48.97C70.1348 48.9977 70.0913 48.9981 70.0129 48.9711C69.8611 48.9186 69.3893 48.9386 69.2704 49.0024C69.2217 49.0287 69.1562 49.0409 69.1249 49.0297C69.0936 49.0185 69.0387 49.0336 69.003 49.0633C68.9518 49.1058 68.938 49.1055 68.938 49.062C68.938 49.0212 68.9227 49.0196 68.8791 49.0557C68.8466 49.0827 68.7796 49.1108 68.7301 49.1183C68.6805 49.1259 68.6058 49.1662 68.5642 49.2079C68.5 49.2721 68.4256 49.2922 68.2927 49.2817C68.2792 49.2807 68.2279 49.3256 68.1786 49.3814C68.1293 49.4374 68.1016 49.4582 68.1171 49.4278C68.1667 49.33 68.0984 49.3683 67.9583 49.5164C67.8835 49.5957 67.835 49.6356 67.8508 49.6051C67.8664 49.5746 67.8667 49.5497 67.8513 49.5497C67.8164 49.5497 67.6967 49.6674 67.6967 49.7016C67.6967 49.7454 67.4989 49.927 67.464 49.9154C67.4457 49.9093 67.4308 49.9258 67.4308 49.9521C67.4308 50.0186 67.1817 50.2612 67.148 50.2274C67.1329 50.2123 67.1205 50.2325 67.1205 50.2724C67.1205 50.3188 67.0964 50.3356 67.0534 50.3191C67.0054 50.3006 66.9942 50.3137 67.0141 50.3653C67.0345 50.4185 67.0229 50.4301 66.9697 50.4097C66.9165 50.3893 66.905 50.4008 66.9254 50.454C66.9466 50.5092 66.9345 50.5188 66.8739 50.4956C66.8111 50.4715 66.8011 50.4816 66.8251 50.5443C66.8484 50.6049 66.8387 50.617 66.7835 50.5958C66.7304 50.5755 66.7188 50.587 66.7392 50.6402C66.7596 50.6934 66.7481 50.7049 66.6949 50.6845C66.6432 50.6647 66.6302 50.6759 66.6487 50.7238C66.6649 50.7661 66.6487 50.7909 66.6051 50.7909C66.567 50.7909 66.5254 50.8306 66.5128 50.8791C66.5002 50.9275 66.4721 50.9562 66.4505 50.9429C66.4289 50.9295 66.4112 50.9509 66.4112 50.9904C66.4112 51.0298 66.3912 51.0498 66.3668 51.0347C66.3425 51.0196 66.3225 51.0417 66.3225 51.0838C66.3225 51.1259 66.3104 51.1482 66.2956 51.1335C66.2605 51.0983 66.1484 51.2019 66.1747 51.2453C66.1857 51.2636 66.1625 51.2785 66.123 51.2785C66.0836 51.2785 66.0636 51.2985 66.0787 51.3228C66.0938 51.3472 66.0738 51.3672 66.0344 51.3672C65.9949 51.3672 65.975 51.3871 65.99 51.4115C66.0051 51.4359 65.9864 51.4558 65.9484 51.4558C65.9104 51.4558 65.8792 51.487 65.8792 51.525C65.8792 51.563 65.8593 51.5817 65.8349 51.5667C65.8105 51.5516 65.7906 51.5715 65.7906 51.611C65.7906 51.6504 65.7706 51.6704 65.7462 51.6553C65.7219 51.6402 65.7019 51.6602 65.7019 51.6996C65.7019 51.7391 65.682 51.759 65.6576 51.744C65.6332 51.7289 65.6133 51.7489 65.6133 51.7883C65.6133 51.8278 65.5933 51.8477 65.5689 51.8326C65.5445 51.8176 65.5246 51.8282 65.5246 51.8561C65.5246 51.941 65.293 52.1586 65.2289 52.1339C65.1881 52.1182 65.1778 52.134 65.1966 52.1828C65.2169 52.236 65.2054 52.2476 65.1522 52.2272C65.099 52.2068 65.0875 52.2183 65.1079 52.2715C65.1283 52.3247 65.1168 52.3362 65.0636 52.3158C65.0084 52.2947 64.9987 52.3067 65.022 52.3674C65.0461 52.4301 65.036 52.4402 64.9732 52.4161C64.9126 52.3928 64.9005 52.4025 64.9217 52.4577C64.9421 52.5109 64.9306 52.5224 64.8774 52.502C64.8242 52.4816 64.8127 52.4931 64.833 52.5463C64.8534 52.5995 64.8419 52.6111 64.7887 52.5907C64.7371 52.5708 64.724 52.582 64.7425 52.63C64.759 52.673 64.7422 52.6971 64.6957 52.6971C64.6558 52.6971 64.6349 52.7087 64.6491 52.723C64.6861 52.76 64.5411 52.9187 64.4703 52.9187C64.4377 52.9187 64.4234 52.9387 64.4385 52.963C64.4536 52.9874 64.4336 53.0074 64.3942 53.0074C64.3547 53.0074 64.3348 53.0273 64.3499 53.0517C64.3649 53.0761 64.345 53.096 64.3055 53.096C64.2661 53.096 64.2461 53.116 64.2612 53.1404C64.2763 53.1647 64.2563 53.1847 64.2169 53.1847C64.1774 53.1847 64.1575 53.2046 64.1725 53.229C64.1876 53.2534 64.1689 53.2733 64.1309 53.2733C64.0929 53.2733 64.0617 53.3045 64.0617 53.3425C64.0617 53.3805 64.0418 53.3992 64.0174 53.3842C63.993 53.3691 63.9731 53.389 63.9731 53.4285C63.9731 53.4679 63.9531 53.4879 63.9287 53.4728C63.9044 53.4578 63.8844 53.4777 63.8844 53.5172C63.8844 53.5566 63.8645 53.5766 63.8401 53.5615C63.8157 53.5464 63.7957 53.5664 63.7957 53.6058C63.7957 53.6453 63.778 53.6667 63.7564 53.6532C63.7348 53.6399 63.7058 53.6728 63.6917 53.7263C63.6263 53.9766 63.6194 53.3575 63.6179 47.0732C63.6168 42.7285 63.601 40.379 63.573 40.3963C63.5493 40.411 63.5298 40.3831 63.5298 40.3344C63.5298 40.2856 63.5098 40.2334 63.4854 40.2183C63.4611 40.2033 63.4411 40.161 63.4411 40.1245C63.4411 40.0879 63.4611 40.0703 63.4854 40.0853C63.5098 40.1004 63.5298 40.0917 63.5298 40.0658C63.5298 40.04 63.5098 40.0188 63.4854 40.0188C63.4611 40.0188 63.4411 39.9777 63.4411 39.9275C63.4411 39.8773 63.4212 39.8486 63.3968 39.8637C63.3715 39.8793 63.3509 39.8376 63.3489 39.7666C63.347 39.6981 63.3348 39.6687 63.3218 39.7014C63.3053 39.7427 63.2819 39.7291 63.2449 39.6571C63.2079 39.5849 63.2061 39.5435 63.2389 39.5208C63.2676 39.501 63.2576 39.488 63.2135 39.4876C63.1165 39.4867 62.9785 39.2805 63.0543 39.2498C63.0843 39.2378 63.0588 39.226 62.9978 39.2237C62.9232 39.2209 62.9055 39.2078 62.9436 39.1836C62.9847 39.1575 62.9696 39.1336 62.8882 39.0966C62.8266 39.0685 62.7762 39.014 62.7762 38.9754C62.7762 38.9369 62.7562 38.9177 62.7318 38.9328C62.7075 38.9478 62.6875 38.9376 62.6875 38.9101C62.6875 38.8424 62.572 38.7306 62.5377 38.765C62.5225 38.7801 62.5086 38.7541 62.5066 38.7075C62.5048 38.6607 62.4932 38.6473 62.4809 38.6775C62.4492 38.7561 62.3025 38.6698 62.2645 38.5502C62.2435 38.4839 62.2244 38.472 62.2007 38.5103C62.1762 38.5501 62.1487 38.539 62.1004 38.47C62.0637 38.4177 62.0163 38.3781 61.995 38.3821C61.8992 38.3996 61.8426 38.3744 61.8716 38.3275C61.8926 38.2936 61.8836 38.2884 61.8454 38.312C61.809 38.3345 61.7657 38.3181 61.7291 38.268C61.6828 38.2047 61.6575 38.1991 61.6071 38.2409C61.5577 38.282 61.5394 38.281 61.5245 38.2365C61.5061 38.1813 31.0201 38.1335 30.7371 38.1883ZM31.4574 39.9745C31.4423 39.9989 31.4611 40.0188 31.4991 40.0188C31.5371 40.0188 31.5682 39.9989 31.5682 39.9745C31.5682 39.9454 32.7726 39.9302 35.0924 39.9302H38.6166V40.7503V41.5704L35.6798 41.5766C34.0645 41.5801 32.6901 41.5802 32.6256 41.5769C32.5379 41.5725 32.4453 41.6339 32.26 41.8192L32.012 42.0672V60.3217V78.5763L32.2597 78.8239L32.5074 79.0716L37.7674 79.0705C43.056 79.0694 43.2907 79.063 43.1523 78.9246C43.1365 78.9087 43.1438 78.8958 43.1687 78.8958C43.2649 78.8958 43.4449 78.6813 43.4269 78.5881C43.4167 78.5354 43.4275 78.506 43.4515 78.5208C43.4751 78.5354 43.4809 78.5689 43.4646 78.5953C43.4482 78.6218 43.4546 78.6312 43.4788 78.6164C43.559 78.5667 43.5392 77.8662 43.4555 77.7968C43.3876 77.7405 43.3879 77.7378 43.4596 77.7604C43.5023 77.7738 43.5372 77.7655 43.5372 77.7418C43.5372 77.7182 43.5158 77.6989 43.4896 77.6989C43.4409 77.6989 43.2846 77.5613 43.3045 77.5358C43.3423 77.4872 43.3029 77.4329 43.2299 77.4329C43.1828 77.4329 43.1316 77.393 43.1161 77.3442C43.0881 77.2563 43.049 77.2556 38.4585 77.2556H33.829V60.3217V43.3879L36.2117 43.3882L38.5945 43.3885L38.6499 43.5079C38.7167 43.6519 38.7208 43.713 38.661 43.676C38.6366 43.6609 38.6166 43.6697 38.6166 43.6955C38.6166 43.7213 38.6366 43.7425 38.661 43.7425C38.6853 43.7425 38.7053 43.8385 38.7053 43.9557C38.7053 44.0729 38.733 44.2068 38.7669 44.2531C38.8007 44.2994 38.8172 44.3663 38.8037 44.4018C38.7887 44.4408 38.7978 44.4547 38.8266 44.4368C38.8574 44.4178 38.8655 44.441 38.8494 44.503C38.8329 44.5655 38.841 44.5883 38.8725 44.5688C38.8991 44.5524 38.9334 44.5593 38.9486 44.584C38.9639 44.6088 38.9557 44.6291 38.9303 44.6291C38.8519 44.6291 39.0166 44.919 39.1421 45.0021C39.2066 45.0447 39.2248 45.0687 39.1825 45.0554C39.1168 45.0348 39.1132 45.0436 39.1581 45.1155C39.187 45.1618 39.2226 45.1923 39.2371 45.1833C39.2518 45.1742 39.2926 45.1852 39.328 45.2076C39.3752 45.2375 39.3771 45.2485 39.335 45.2491C39.248 45.25 39.4863 45.4708 39.5788 45.4749C39.6246 45.4769 39.635 45.4878 39.6034 45.5006C39.5438 45.5247 39.57 45.5599 39.7472 45.693C39.8293 45.7546 39.8312 45.7539 39.7748 45.6819C39.7414 45.6393 39.732 45.6043 39.7539 45.6043C39.8091 45.6043 39.9448 45.7685 39.9147 45.7987C39.9012 45.8121 39.9323 45.8151 39.984 45.8052C40.04 45.7943 40.0736 45.8083 40.0675 45.8398C40.0619 45.8688 40.0873 45.8925 40.1238 45.8925C40.1604 45.8925 40.2167 45.9224 40.2491 45.959C40.2813 45.9956 40.2963 46.0024 40.2822 45.9742C40.263 45.9355 40.283 45.9354 40.3638 45.9735C40.4227 46.0013 40.4616 46.039 40.4503 46.0574C40.4389 46.0758 40.4905 46.0837 40.5649 46.075C40.6445 46.0657 40.7001 46.0797 40.7001 46.1088C40.7001 46.1452 42.1437 46.1585 46.0861 46.1585C50.0286 46.1585 51.4722 46.1452 51.4722 46.1088C51.4722 46.0797 51.5278 46.0657 51.6074 46.075C51.6885 46.0844 51.7318 46.0732 51.7156 46.0471C51.6926 46.0099 51.7256 45.9993 51.8494 46.0042C51.9242 46.0072 52.1351 45.8587 52.1112 45.8199C52.0938 45.7918 52.1153 45.78 52.1651 45.7905C52.2147 45.801 52.2695 45.7715 52.3018 45.7172C52.3314 45.6673 52.3563 45.6527 52.3572 45.6846C52.3581 45.7165 52.379 45.73 52.4039 45.7147C52.4286 45.6994 52.439 45.671 52.427 45.6516C52.415 45.6321 52.4481 45.5786 52.5004 45.5326C52.5528 45.4868 52.5811 45.4741 52.5632 45.5046C52.5454 45.5351 52.5434 45.56 52.5588 45.56C52.6074 45.56 52.7134 45.4356 52.7134 45.3785C52.7134 45.3483 52.7255 45.3357 52.7403 45.3505C52.7797 45.3899 52.8828 45.2809 52.8608 45.2232C52.8504 45.1963 52.9113 45.1133 52.9961 45.0388C53.0809 44.9643 53.1384 44.8915 53.1239 44.8771C53.1095 44.8626 53.1187 44.8508 53.1446 44.8508C53.1704 44.8508 53.2034 44.8198 53.218 44.7819C53.2344 44.739 53.2262 44.7244 53.1961 44.7429C53.1657 44.7618 53.1681 44.7339 53.2026 44.6677C53.2728 44.5329 53.3121 44.4952 53.275 44.5982C53.2566 44.6494 53.2634 44.6674 53.294 44.6486C53.3203 44.6323 53.3322 44.5828 53.3206 44.5383C53.3084 44.4918 53.3278 44.4467 53.3661 44.4319C53.4094 44.4153 53.4254 44.3682 53.412 44.2976C53.4006 44.2378 53.411 44.1823 53.4352 44.1743C53.5102 44.1492 53.565 43.6079 53.5005 43.5283C53.4562 43.4737 53.4562 43.4663 53.5002 43.4928C53.5351 43.5138 53.5556 43.5005 53.5556 43.457C53.5556 43.3952 53.8109 43.3879 55.9494 43.3879H58.3432V51.259C58.3432 56.4951 58.3284 59.1208 58.2989 59.1027C58.2745 59.0876 58.2546 59.1075 58.2546 59.147C58.2546 59.1864 58.2346 59.2064 58.2102 59.1913C58.1859 59.1763 58.1659 59.1913 58.1659 59.2248C58.1659 59.2855 57.933 59.5354 57.8968 59.5134C57.8864 59.5069 57.8827 59.5099 57.889 59.5202C57.916 59.5651 57.7524 59.6928 57.6958 59.671C57.652 59.6542 57.6414 59.6688 57.6605 59.7188C57.6817 59.774 57.6696 59.7837 57.609 59.7604C57.5494 59.7375 57.5364 59.747 57.5564 59.7992C57.5821 59.866 57.377 60.1086 57.2945 60.1088C57.274 60.1089 57.2621 60.1269 57.2682 60.1488C57.2743 60.1708 57.2494 60.1887 57.2128 60.1887C57.1763 60.1887 57.1463 60.2274 57.1463 60.2747C57.1463 60.3221 57.125 60.374 57.099 60.3901C57.073 60.4062 57.063 60.4491 57.077 60.4854C57.1044 60.557 56.9747 60.8093 56.9104 60.8093C56.8887 60.8093 56.8827 60.84 56.897 60.8775C56.9119 60.9163 56.8949 60.9565 56.8574 60.9709C56.8213 60.9848 56.7917 61.0339 56.7917 61.0801C56.7917 61.1262 56.7694 61.164 56.7422 61.164C56.714 61.164 56.703 61.2033 56.7166 61.2553C56.7312 61.3113 56.716 61.3562 56.6774 61.3709C56.6427 61.3842 56.6144 61.4328 56.6144 61.4791C56.6144 61.5252 56.5894 61.5633 56.559 61.5636C56.5221 61.5641 56.5257 61.5787 56.57 61.6073C56.6184 61.6385 56.6207 61.6504 56.5785 61.6509C56.5465 61.6513 56.5328 61.6716 56.5479 61.6959C56.563 61.7203 56.5442 61.7403 56.5062 61.7403C56.4682 61.7403 56.4371 61.7614 56.4371 61.7873C56.4371 61.8131 56.462 61.8198 56.4925 61.8022C56.5229 61.7847 56.503 61.8197 56.4481 61.88C56.3933 61.9404 56.3484 62.0334 56.3484 62.0867C56.3484 62.14 56.3261 62.1836 56.2989 62.1836C56.2702 62.1836 56.2582 62.2294 56.2703 62.2929C56.2853 62.3717 56.262 62.4244 56.1868 62.4808C56.0892 62.5542 56.0345 62.6617 56.1227 62.6072C56.1447 62.5936 56.1526 62.6216 56.14 62.6695C56.1275 62.7175 56.0952 62.7524 56.0682 62.7472C56.0412 62.742 56.0168 62.7975 56.014 62.8707C56.0109 62.9519 55.9876 62.9989 55.9538 62.9915C55.9234 62.9848 55.9102 62.9981 55.9244 63.0212C55.9386 63.0442 55.9182 63.0951 55.8791 63.1342C55.8398 63.1733 55.819 63.2346 55.8327 63.2702C55.8469 63.3072 55.8345 63.3306 55.8038 63.3245C55.7742 63.3187 55.7496 63.3462 55.7493 63.3856C55.749 63.4249 55.7232 63.4876 55.6923 63.525C55.6614 63.5622 55.6391 63.6099 55.6428 63.6307C55.66 63.726 55.6347 63.782 55.5878 63.7529C55.5529 63.7313 55.5443 63.7508 55.5608 63.814C55.5747 63.8673 55.5614 63.9157 55.5295 63.9279C55.499 63.9397 55.4632 63.9909 55.45 64.0417C55.4367 64.0926 55.4439 64.123 55.4659 64.1093C55.5468 64.0594 55.5035 64.1608 55.4175 64.2227C55.3315 64.2847 55.2881 64.3861 55.369 64.3361C55.3911 64.3225 55.3861 64.361 55.358 64.4218C55.3297 64.4826 55.2917 64.5325 55.2734 64.5327C55.2551 64.5329 55.2402 64.5717 55.2402 64.619C55.2402 64.6663 55.2202 64.7174 55.1958 64.7325C55.1715 64.7476 55.1515 64.8074 55.1515 64.8656C55.1515 64.9246 55.1079 65.0018 55.053 65.0403C54.9988 65.0783 54.977 65.1093 55.0044 65.1093C55.0415 65.1093 55.0413 65.1371 55.004 65.2164C54.9762 65.2752 54.9348 65.3119 54.912 65.2977C54.8886 65.2833 54.8831 65.3051 54.8994 65.3476C54.9173 65.3942 54.9034 65.4326 54.8629 65.4481C54.8269 65.4619 54.8103 65.4941 54.826 65.5197C54.8419 65.5452 54.8193 65.5919 54.7759 65.6236C54.7309 65.6566 54.7084 65.7107 54.7234 65.75C54.7398 65.7928 54.7252 65.8186 54.6846 65.8186C54.6488 65.8186 54.6195 65.8397 54.6195 65.8656C54.6195 65.8914 54.6379 65.9011 54.6604 65.8872C54.6829 65.8732 54.658 65.9469 54.605 66.0508C54.5521 66.1547 54.4938 66.2464 54.4755 66.2544C54.4572 66.2626 54.4422 66.2887 54.4422 66.3125C54.4422 66.3363 54.4622 66.3434 54.4866 66.3284C54.5109 66.3133 54.5309 66.3332 54.5309 66.3727C54.5309 66.4121 54.5129 66.4333 54.491 66.4197C54.4689 66.4062 54.453 66.4648 54.4554 66.5501C54.4579 66.6353 54.4808 66.7055 54.5064 66.7058C54.5321 66.7062 54.5231 66.7277 54.4866 66.7536C54.4365 66.7889 54.4338 66.8061 54.4755 66.8231C54.506 66.8354 54.5309 66.8738 54.5309 66.9083C54.5309 66.9429 54.5508 66.9711 54.5752 66.9711C54.5996 66.9711 54.6195 67.0231 54.6195 67.0867C54.6195 67.1747 54.6365 67.1958 54.691 67.1748C54.7413 67.1556 54.7551 67.1666 54.7376 67.2122C54.7215 67.254 54.7339 67.2688 54.7725 67.254C54.8053 67.2414 54.8456 67.2526 54.8619 67.2791C54.9634 67.4435 55.6021 67.5187 55.8415 67.3945C55.9095 67.3592 55.9818 67.3405 56.002 67.353C56.0221 67.3656 56.0502 67.3458 56.0642 67.3093C56.0783 67.2727 56.119 67.254 56.1547 67.2676C56.1905 67.2813 56.2456 67.2571 56.2774 67.2137C56.3091 67.1704 56.3579 67.1491 56.386 67.1664C56.4141 67.1838 56.4371 67.1769 56.4371 67.1511C56.4371 67.1253 56.4819 67.1038 56.5368 67.1035C56.6175 67.1029 56.6238 67.0946 56.57 67.0598C56.5206 67.0279 56.5461 67.0167 56.6698 67.0161C56.7877 67.0157 56.836 66.9962 56.836 66.949C56.836 66.9124 56.8443 66.8825 56.8545 66.8825C56.8647 66.8825 56.9079 66.8691 56.9505 66.8528C56.9978 66.8346 57.0171 66.8406 57 66.8681C56.9847 66.8929 57.0646 66.8663 57.1776 66.8091C57.2906 66.7519 57.4207 66.7052 57.4667 66.7052C57.5128 66.7052 57.5383 66.6854 57.5235 66.6614C57.5074 66.6353 57.5272 66.6294 57.5724 66.6468C57.621 66.6654 57.6378 66.6586 57.619 66.6281C57.6003 66.5979 57.6216 66.5889 57.6777 66.6035C57.7318 66.6176 57.7757 66.6009 57.7914 66.56C57.8059 66.522 57.8513 66.5022 57.8967 66.5141C57.9429 66.5263 57.9875 66.5059 58.003 66.4657C58.0188 66.4244 58.0578 66.4073 58.0995 66.4232C58.144 66.4403 58.1648 66.4287 58.1566 66.3912C58.1494 66.3581 58.1824 66.3315 58.2324 66.3304C58.3205 66.3284 58.3212 66.3609 58.3324 71.792L58.3436 77.2556L53.7664 77.2608C51.249 77.2637 49.1643 77.2629 49.1338 77.2589C49.0838 77.2524 49.059 77.31 49.0732 77.3996C49.076 77.4179 49.0298 77.4329 48.9705 77.4329C48.8699 77.4329 48.7767 77.5654 48.8047 77.6689C48.8102 77.689 48.7955 77.6937 48.7723 77.6792C48.6917 77.6295 48.6581 77.7669 48.6509 78.175L48.6437 78.5845L48.8873 78.828L49.1309 79.0716L54.3909 79.0705C59.6795 79.0694 59.9143 79.063 59.7758 78.9246C59.76 78.9087 59.7673 78.8958 59.7922 78.8958C59.8884 78.8958 60.0684 78.6813 60.0505 78.5881C60.0403 78.5354 60.051 78.506 60.0751 78.5208C60.0987 78.5354 60.1043 78.5708 60.0878 78.5996C60.0706 78.6297 60.075 78.6362 60.0982 78.615C60.1544 78.5635 60.1508 78.9941 60.156 71.9028C60.1603 66.0809 60.1674 65.4639 60.2304 65.4639C60.3199 65.4639 60.432 65.3528 60.3914 65.3045C60.3742 65.2841 60.3928 65.2922 60.4326 65.3224C60.4915 65.3673 60.5098 65.3651 60.5307 65.3107C60.5448 65.2739 60.5827 65.2539 60.615 65.2663C60.6472 65.2786 60.7178 65.2476 60.7718 65.1973C60.8362 65.1373 60.8712 65.1255 60.8735 65.1629C60.8762 65.2075 60.882 65.2079 60.8994 65.1647C60.9117 65.1342 60.9527 65.1093 60.9904 65.1093C61.0281 65.1093 61.092 65.0713 61.1323 65.0249C61.1725 64.9785 61.2846 64.9281 61.3813 64.913C61.6294 64.8742 61.717 64.8426 61.6912 64.8009C61.6789 64.7809 61.7036 64.7375 61.7459 64.7042C61.8158 64.6496 61.8173 64.6513 61.7622 64.7214C61.7225 64.7722 61.7186 64.799 61.7512 64.799C61.7877 64.799 61.8009 66.7463 61.8009 72.1577C61.8009 77.0339 61.786 79.5164 61.7566 79.5164C61.7322 79.5164 61.7123 79.5563 61.7123 79.605C61.7123 79.6538 61.7372 79.694 61.7677 79.6944C61.8063 79.6948 61.8082 79.7049 61.774 79.7276C61.7469 79.7456 61.73 79.7938 61.7363 79.8347C61.7426 79.8757 61.7155 79.9217 61.6759 79.9368C61.6136 79.9608 61.6126 79.9701 61.6692 80.0064C61.7231 80.041 61.718 80.0529 61.6402 80.0743C61.5884 80.0884 61.5194 80.1496 61.4871 80.21C61.4548 80.2704 61.374 80.352 61.3078 80.3911C61.2414 80.4303 61.167 80.5039 61.1424 80.5546C61.1178 80.6053 61.0963 80.6214 61.0946 80.5904C61.0924 80.5486 61.0628 80.5528 60.9808 80.6065C60.9199 80.6464 60.8697 80.6618 60.8693 80.6408C60.869 80.6197 60.8493 80.6324 60.8257 80.6689C60.7971 80.7133 60.7825 80.7169 60.782 80.68C60.7817 80.6495 60.7414 80.6246 60.6927 80.6246C60.6439 80.6246 60.604 80.6446 60.604 80.6689C60.604 80.6984 55.7352 80.7133 46.0861 80.7133C36.4371 80.7133 31.5682 80.6984 31.5682 80.6689C31.5682 80.6446 31.5371 80.6246 31.4991 80.6246C31.4611 80.6246 31.4423 80.6446 31.4574 80.6689C31.4725 80.6933 31.4538 80.7133 31.4157 80.7133C31.3777 80.7133 31.3466 80.69 31.3466 80.6615C31.3466 80.6331 31.3332 80.6232 31.3169 80.6396C31.3005 80.6559 31.2406 80.6388 31.1839 80.6016C31.1059 80.5505 31.0803 80.5477 31.0791 80.5904C31.0782 80.6214 31.0489 80.5969 31.0141 80.5359C30.9743 80.4664 30.9492 80.4498 30.9464 80.4916C30.9439 80.53 30.9246 80.5147 30.9009 80.4555C30.8783 80.3991 30.8391 80.3657 30.8139 80.3812C30.7887 80.3969 30.7736 80.3831 30.7803 80.3509C30.787 80.3185 30.7661 80.2976 30.7337 80.3043C30.7015 80.311 30.6877 80.2959 30.7034 80.2707C30.7189 80.2455 30.6855 80.2064 30.6291 80.1838C30.5699 80.16 30.5546 80.1408 30.593 80.1382C30.6348 80.1354 30.6183 80.1103 30.5487 80.0705C30.4877 80.0357 30.4632 80.0064 30.4942 80.0056C30.5369 80.0043 30.5341 79.9787 30.4831 79.9007C30.4458 79.844 30.4288 79.7841 30.445 79.7677C30.4614 79.7514 30.4515 79.738 30.4231 79.738C30.3946 79.738 30.3713 79.7069 30.3713 79.6689C30.3713 79.6309 30.3913 79.6121 30.4157 79.6272C30.4401 79.6423 30.46 79.6235 30.46 79.5855C30.46 79.5475 30.4401 79.5164 30.4157 79.5164C30.3862 79.5164 30.3713 73.0886 30.3713 60.3217C30.3713 47.5548 30.3862 41.1271 30.4157 41.1271C30.4401 41.1271 30.46 41.0959 30.46 41.0579C30.46 41.0199 30.4401 41.0012 30.4157 41.0163C30.3913 41.0313 30.3713 41.0126 30.3713 40.9746C30.3713 40.9366 30.3946 40.9054 30.4231 40.9054C30.4515 40.9054 30.4614 40.892 30.445 40.8757C30.4288 40.8593 30.4458 40.7995 30.4831 40.7427C30.5341 40.6647 30.5369 40.6391 30.4942 40.6379C30.4632 40.637 30.4877 40.6078 30.5487 40.573C30.6183 40.5332 30.6348 40.508 30.593 40.5052C30.5546 40.5027 30.5699 40.4834 30.6291 40.4597C30.6855 40.4371 30.7189 40.398 30.7034 40.3727C30.6877 40.3475 30.7015 40.3325 30.7337 40.3391C30.7661 40.3459 30.787 40.3249 30.7803 40.2926C30.7736 40.2603 30.7887 40.2466 30.8139 40.2622C30.8391 40.2777 30.8783 40.2444 30.9009 40.188C30.9246 40.1288 30.9439 40.1135 30.9464 40.1518C30.9492 40.1936 30.9743 40.1771 31.0141 40.1075C31.0489 40.0465 31.0782 40.0221 31.0791 40.0531C31.0803 40.0958 31.1059 40.093 31.1839 40.0419C31.2406 40.0047 31.3005 39.9876 31.3169 40.0039C31.3332 40.0203 31.3466 40.0103 31.3466 39.9819C31.3466 39.9535 31.3777 39.9302 31.4157 39.9302C31.4538 39.9302 31.4725 39.9501 31.4574 39.9745ZM51.6938 41.7007C51.6938 42.9278 51.6791 43.4804 51.6456 43.5011C51.6191 43.5174 51.6076 43.5697 51.62 43.6173C51.6333 43.668 51.6167 43.7136 51.5795 43.7278C51.5449 43.7411 51.5165 43.7897 51.5165 43.8359C51.5165 43.882 51.4965 43.9198 51.4722 43.9198C51.4478 43.9198 51.4278 43.9597 51.4278 44.0085C51.4278 44.0573 51.4042 44.0971 51.3753 44.0971C51.3464 44.0971 51.2733 44.142 51.2129 44.1969C51.1527 44.2517 51.1176 44.2717 51.1351 44.2412C51.1528 44.2107 51.146 44.1858 51.1202 44.1858C51.0944 44.1858 51.0732 44.2058 51.0732 44.2301C51.0732 44.2545 51.0433 44.2745 51.0067 44.2745C50.9701 44.2745 50.9402 44.2901 50.9402 44.3093C50.9402 44.3284 50.9017 44.3442 50.8548 44.3442C50.8079 44.3442 50.7791 44.3284 50.7909 44.3093C50.8028 44.2901 50.7914 44.2745 50.7655 44.2745C50.7397 44.2745 50.7186 44.2944 50.7186 44.3188C50.7186 44.3481 49.1449 44.3631 46.0861 44.3631C43.0274 44.3631 41.4537 44.3481 41.4537 44.3188C41.4537 44.2944 41.4325 44.2745 41.4067 44.2745C41.3809 44.2745 41.374 44.2975 41.3914 44.3257C41.4131 44.3607 41.4034 44.3646 41.3608 44.338C41.3266 44.3167 41.2587 44.2931 41.2099 44.2855C41.1611 44.278 41.1146 44.2525 41.1065 44.2288C41.0983 44.2052 41.0723 44.1858 41.0484 44.1858C41.0246 44.1858 41.0195 44.2107 41.0371 44.2412C41.0546 44.2717 41.0196 44.2517 40.9593 44.1969C40.8989 44.142 40.8259 44.0971 40.797 44.0971C40.768 44.0971 40.7444 44.0573 40.7444 44.0085C40.7444 43.9597 40.7245 43.9198 40.7001 43.9198C40.6757 43.9198 40.6558 43.882 40.6558 43.8359C40.6558 43.7897 40.6245 43.74 40.5862 43.7253C40.5383 43.7069 40.526 43.6693 40.5466 43.6042C40.5631 43.5522 40.5595 43.5203 40.5386 43.5333C40.5177 43.5462 40.5061 42.7431 40.5127 41.7435L40.5247 39.9302H46.1093H51.6938V41.7007ZM60.604 39.9745C60.604 39.9989 60.6439 40.0188 60.6927 40.0188C60.7414 40.0188 60.7817 39.9939 60.782 39.9634C60.7825 39.9265 60.7971 39.9302 60.8257 39.9745C60.8493 40.0111 60.869 40.0237 60.8693 40.0027C60.8697 39.9816 60.9184 39.996 60.9775 40.0348C61.0583 40.0877 61.0906 40.0917 61.1075 40.051C61.1211 40.018 61.1411 40.0328 61.1584 40.0888C61.1739 40.1393 61.241 40.2129 61.3074 40.2521C61.3739 40.2915 61.4548 40.373 61.4871 40.4334C61.5194 40.4938 61.5884 40.555 61.6402 40.5692C61.718 40.5906 61.7231 40.6024 61.6692 40.637C61.6126 40.6734 61.6136 40.6827 61.6759 40.7066C61.7155 40.7218 61.7426 40.7678 61.7363 40.8088C61.73 40.8497 61.7469 40.8979 61.774 40.9158C61.8082 40.9386 61.8063 40.9487 61.7677 40.9491C61.7372 40.9494 61.7123 40.9897 61.7123 41.0384C61.7123 41.0872 61.7322 41.1271 61.7566 41.1271C61.8507 41.1271 61.814 55.6415 61.7198 55.7269C61.6751 55.7672 61.6203 55.7853 61.5979 55.767C61.5754 55.7486 61.5724 55.7522 61.591 55.7749C61.6418 55.8368 61.4049 56.0644 61.3227 56.0329C61.2705 56.0129 61.261 56.0259 61.2839 56.0855C61.3072 56.1461 61.2976 56.1582 61.2424 56.137C61.1892 56.1166 61.1776 56.1282 61.198 56.1814C61.2184 56.2346 61.2069 56.2461 61.1537 56.2257C61.1021 56.2058 61.089 56.217 61.1075 56.265C61.124 56.308 61.1072 56.3321 61.0607 56.3321C61.0208 56.3321 61 56.3439 61.0145 56.3583C61.0524 56.3962 60.8226 56.6424 60.7492 56.6424C60.7153 56.6424 60.6998 56.6623 60.7148 56.6867C60.7299 56.7111 60.71 56.731 60.6705 56.731C60.6311 56.731 60.6111 56.751 60.6262 56.7754C60.6413 56.7998 60.6213 56.8197 60.5819 56.8197C60.5424 56.8197 60.5225 56.8396 60.5375 56.864C60.5526 56.8884 60.5327 56.9084 60.4932 56.9084C60.4537 56.9084 60.4338 56.9283 60.4489 56.9527C60.4639 56.9771 60.4452 56.997 60.4072 56.997C60.3692 56.997 60.338 57.0282 60.338 57.0662C60.338 57.1042 60.3181 57.1229 60.2937 57.1078C60.2693 57.0928 60.2494 57.1155 60.2494 57.1584C60.2494 57.2098 60.2344 57.2214 60.2055 57.1925C60.177 57.164 60.1612 54.5179 60.1603 49.6054C60.1592 44.0374 60.1457 42.0539 60.1085 42.031C60.0789 42.0127 60.0705 42.0197 60.0881 42.0481C60.1044 42.0745 60.0987 42.1081 60.0751 42.1226C60.051 42.1375 60.0403 42.1081 60.0505 42.0553C60.0679 41.9646 59.8893 41.7477 59.797 41.7477C59.7747 41.7477 59.7675 41.7298 59.781 41.708C59.8611 41.5787 59.9554 41.5825 56.4925 41.5759L53.5556 41.5704V40.7503V39.9302H57.0798C59.3997 39.9302 60.604 39.9454 60.604 39.9745ZM36.6218 48.5529C36.5608 48.5874 36.5309 48.6175 36.5553 48.62C36.5797 48.6224 36.5539 48.6428 36.4978 48.6652C36.4418 48.6877 36.3752 48.7657 36.3498 48.8384C36.3245 48.9112 36.2806 48.9664 36.2522 48.961C36.2135 48.9537 36.1977 49.7555 36.1886 52.1762L36.1764 55.4012L36.2772 55.4018C36.3562 55.4024 36.3639 55.4114 36.3133 55.4435C36.232 55.4948 36.4631 55.7312 36.5473 55.6829C36.576 55.6665 36.5857 55.6685 36.5685 55.6874C36.5514 55.7065 36.5652 55.7498 36.5991 55.7837C36.6969 55.8816 43.0939 55.8723 43.0939 55.7742C43.0939 55.7368 43.1117 55.7172 43.1336 55.7307C43.1554 55.7443 43.1848 55.7253 43.1988 55.6886C43.2129 55.652 43.2499 55.6271 43.2811 55.6334C43.3122 55.6398 43.3327 55.62 43.3266 55.5896C43.3205 55.5591 43.3505 55.5338 43.3931 55.5335C43.4484 55.533 43.4548 55.5227 43.4153 55.4976C43.3722 55.4702 43.3754 55.4434 43.4297 55.3763C43.468 55.329 43.4868 55.3153 43.4714 55.3457C43.456 55.3762 43.4642 55.4012 43.4896 55.4012C43.5648 55.4012 43.5509 49.0185 43.4756 48.9186C43.4438 48.8764 43.4046 48.8548 43.3887 48.8707C43.3728 48.8865 43.3599 48.8699 43.3599 48.8336C43.3599 48.765 43.2089 48.6154 43.0585 48.535C42.9115 48.4562 36.7624 48.4734 36.6218 48.5529ZM52.9636 49.3494C52.9492 49.3869 52.909 49.4039 52.8702 49.389C52.8327 49.3747 52.802 49.3847 52.802 49.4113C52.802 49.4378 52.6585 49.5946 52.4832 49.7596C52.1218 50.0996 51.8011 50.42 51.0842 51.1574C50.8098 51.4395 50.4766 51.7653 50.3438 51.8812C50.2109 51.997 50.1143 52.1115 50.1291 52.1353C50.1439 52.1592 50.1357 52.1663 50.1109 52.1509C50.0862 52.1356 49.9329 52.2699 49.7704 52.4494L49.4749 52.7757L49.1258 52.4261C48.8056 52.1055 48.6698 51.9975 48.7501 52.1276C48.7698 52.1596 48.7623 52.1668 48.7298 52.1467C48.7013 52.1291 48.6893 52.0964 48.703 52.0741C48.735 52.0224 48.4251 51.7094 48.3734 51.7413C48.3267 51.7702 48.2257 51.6584 48.2639 51.6201C48.3006 51.5834 48.1686 51.4558 48.094 51.4558C48.0611 51.4558 47.9899 51.4248 47.9356 51.3868C47.8814 51.3488 47.814 51.3319 47.7858 51.3493C47.7571 51.3671 47.7467 51.3615 47.7621 51.3367C47.8036 51.2697 47.3516 51.2662 47.2692 51.3329C47.2151 51.3767 47.207 51.3769 47.2328 51.3339C47.2788 51.2574 47.195 51.264 47.1302 51.3421C47.1012 51.3772 47.0189 51.4186 46.9475 51.4343C46.8761 51.4501 46.8176 51.4824 46.8176 51.5063C46.8176 51.5302 46.8375 51.5374 46.8619 51.5223C46.934 51.4778 46.9124 51.5286 46.8312 51.5945C46.7802 51.6358 46.7669 51.6376 46.7895 51.5999C46.8078 51.5694 46.8017 51.5445 46.7759 51.5445C46.7501 51.5445 46.7289 51.5844 46.7289 51.6332C46.7289 51.6819 46.7096 51.7218 46.686 51.7218C46.6623 51.7218 46.6544 51.7515 46.6684 51.788C46.6825 51.8245 46.6643 51.8653 46.6277 51.8794C46.5377 51.9139 46.5283 52.5641 46.6178 52.5641C46.6543 52.5641 46.6694 52.6014 46.6578 52.6638C46.6476 52.7187 46.6511 52.7385 46.6657 52.7079C46.7042 52.6269 46.7745 52.6865 46.7417 52.7722C46.7229 52.8209 46.731 52.834 46.766 52.8123C46.798 52.7926 46.8344 52.8201 46.8595 52.8826C46.8821 52.939 46.9019 52.9675 46.9035 52.9457C46.9063 52.905 47.0683 53.0712 47.3673 53.4222C47.4623 53.5337 47.5571 53.6146 47.5778 53.6017C47.5985 53.5889 47.6155 53.6095 47.6155 53.6475C47.6155 53.6855 47.6466 53.7166 47.6847 53.7166C47.7227 53.7166 47.7414 53.7366 47.7263 53.761C47.7113 53.7853 47.7265 53.8053 47.7603 53.8053C47.8349 53.8053 48.0145 53.9892 48.0145 54.0656C48.0145 54.096 48.0344 54.1085 48.0588 54.0934C48.0832 54.0784 48.1031 54.0971 48.1031 54.1351C48.1031 54.1731 48.1343 54.2043 48.1723 54.2043C48.2103 54.2043 48.229 54.2242 48.2139 54.2486C48.1989 54.273 48.2209 54.2929 48.263 54.2929C48.3052 54.2929 48.3268 54.3057 48.3111 54.3213C48.2811 54.3513 48.5831 54.6476 48.6437 54.6476C48.6633 54.6476 48.6794 54.6787 48.6794 54.7167C48.6794 54.7547 48.6979 54.7743 48.7205 54.7604C48.7431 54.7464 48.7744 54.7751 48.79 54.8242C48.807 54.8774 48.8575 54.9138 48.9151 54.9142C48.9938 54.9148 48.9995 54.923 48.9454 54.9579C48.8916 54.9927 48.8979 55.001 48.9786 55.0015C49.0335 55.0019 49.0784 55.0195 49.0784 55.0408C49.0784 55.0619 49.228 55.0769 49.4108 55.074C49.5936 55.071 49.7432 55.0537 49.7433 55.0354C49.7433 55.0172 49.7739 55.0022 49.8112 55.0022C49.8485 55.0022 49.89 54.9735 49.9036 54.9385C49.917 54.9034 49.955 54.8852 49.988 54.8978C50.0566 54.9242 54.0279 50.9743 54.1284 50.7797C54.163 50.7128 54.2035 50.6579 54.2184 50.6579C54.2333 50.6579 54.2482 50.4684 54.2513 50.2368C54.2555 49.9154 54.2431 49.8156 54.1985 49.8156C54.1605 49.8156 54.149 49.7822 54.1654 49.7196C54.1858 49.6412 54.1759 49.629 54.112 49.6535C54.0538 49.6758 54.0401 49.6664 54.0589 49.6172C54.0737 49.5786 54.0619 49.5552 54.0306 49.5613C54.001 49.5671 53.9822 49.5455 53.989 49.5131C53.9956 49.4808 53.983 49.4657 53.9607 49.4794C53.9385 49.4932 53.8956 49.4746 53.8655 49.4384C53.8354 49.4021 53.7733 49.3724 53.7275 49.3724C53.6818 49.3724 53.6443 49.3538 53.6443 49.3311C53.6443 49.2803 53.158 49.294 53.0722 49.3473C53.0297 49.3738 53.02 49.3699 53.0416 49.3349C53.059 49.3067 53.0543 49.2837 53.031 49.2837C53.0078 49.2837 52.9775 49.3133 52.9636 49.3494ZM41.7197 52.1651V54.0269H39.8578H37.996V52.1651V50.3033H39.8578H41.7197V52.1651ZM70.0462 50.8752C70.0462 50.8915 70.0861 50.9087 70.1348 50.9134C70.3277 50.9318 70.3565 50.9402 70.3565 50.9782C70.3565 51 70.3764 51.0054 70.4008 50.9904C70.4252 50.9753 70.4452 50.9867 70.4452 51.0159C70.4452 51.0999 70.6729 51.2729 70.751 51.2483C70.7978 51.2334 70.8043 51.2386 70.7703 51.2636C70.7063 51.3103 70.8141 51.4797 70.8814 51.4381C70.9063 51.4226 70.9147 51.4489 70.9013 51.5001C70.8883 51.5497 70.9 51.5888 70.9276 51.5888C70.9548 51.5888 70.9771 51.6266 70.9771 51.6727C70.9771 51.7189 71.0055 51.7676 71.0401 51.7808C71.0747 51.7941 71.0975 51.8412 71.0907 51.8853C71.0839 51.9295 71.1005 51.9806 71.1275 51.9989C71.1622 52.0224 71.1592 52.0433 71.1172 52.0705C71.053 52.1118 71.0564 52.3722 71.1223 52.4619C71.1477 52.4965 71.1293 52.5347 71.0691 52.5723C71.0186 52.6039 70.9771 52.6657 70.9771 52.7097C70.9771 52.7537 70.9272 52.8396 70.8663 52.9005C70.8053 52.9615 70.7555 53.0493 70.7555 53.0956C70.7555 53.1432 70.7025 53.2063 70.6336 53.2407C70.5665 53.2741 70.5171 53.3265 70.5238 53.3571C70.5305 53.3878 70.5179 53.4017 70.4956 53.3879C70.4734 53.3742 70.428 53.3965 70.3947 53.4375C70.3428 53.5016 70.3436 53.5065 70.4008 53.4728C70.4569 53.4398 70.4583 53.4447 70.41 53.5044C70.3173 53.6189 70.0462 53.4791 70.0462 53.3169C70.0462 53.2901 70.0262 53.2804 70.0019 53.2955C69.9775 53.3106 69.9575 53.2919 69.9575 53.2538C69.9575 53.2158 69.9264 53.1847 69.8884 53.1847C69.8504 53.1847 69.8316 53.1647 69.8467 53.1404C69.8618 53.116 69.8418 53.096 69.8024 53.096C69.7629 53.096 69.743 53.0761 69.7581 53.0517C69.7731 53.0273 69.7511 53.0074 69.709 53.0074C69.6668 53.0074 69.6442 52.9955 69.6588 52.9811C69.6928 52.9471 69.2367 52.4827 69.1929 52.5068C69.1746 52.5168 69.1596 52.4927 69.1596 52.4532C69.1596 52.4138 69.1397 52.3938 69.1153 52.4089C69.0909 52.424 69.0709 52.404 69.0709 52.3646C69.0709 52.3251 69.051 52.3052 69.0266 52.3203C69.0022 52.3353 68.9823 52.3166 68.9823 52.2786C68.9823 52.2406 68.9511 52.2094 68.9131 52.2094C68.8751 52.2094 68.8564 52.1895 68.8715 52.1651C68.8865 52.1407 68.8728 52.1199 68.8409 52.1188C68.809 52.1177 68.6958 52.031 68.5894 51.9263L68.3961 51.7358L68.5118 51.62C68.6316 51.5002 68.666 51.4269 68.5765 51.4822C68.5455 51.5014 68.5373 51.4944 68.5557 51.4646C68.5725 51.4376 68.6189 51.4279 68.6589 51.4433C68.7143 51.4646 68.7246 51.453 68.7023 51.3948C68.6847 51.3489 68.6907 51.3292 68.7172 51.3456C68.7737 51.3805 68.8936 51.2619 68.8936 51.1709C68.8936 51.1326 68.9236 51.1012 68.9601 51.1012C68.9967 51.1012 69.0266 51.0855 69.0266 51.0663C69.0266 51.0471 69.0712 51.0281 69.1257 51.024C69.1802 51.0199 69.2318 50.9957 69.2402 50.9702C69.2487 50.9447 69.2939 50.9239 69.3406 50.9239C69.3873 50.9239 69.4259 50.8989 69.4262 50.8685C69.4267 50.8316 69.4413 50.8352 69.4699 50.8796C69.4956 50.9195 69.5131 50.9249 69.5136 50.8933C69.5139 50.8643 69.589 50.8343 69.6805 50.8268C69.8756 50.8106 70.0462 50.8332 70.0462 50.8752ZM67.26 53.3157C67.3865 53.4364 67.5072 53.5247 67.5281 53.5118C67.5489 53.499 67.5604 53.5148 67.5538 53.5471C67.547 53.5794 67.5665 53.6008 67.597 53.5947C67.6275 53.5886 67.6474 53.6086 67.6413 53.6391C67.6352 53.6695 67.6602 53.6878 67.6967 53.6797C67.7333 53.6715 67.7497 53.6784 67.7333 53.6949C67.7002 53.7279 68.247 54.2929 68.3121 54.2929C68.3345 54.2929 68.4226 54.3627 68.508 54.4481C68.6808 54.621 68.6739 54.6582 68.4975 54.5036C68.4074 54.4248 68.4115 54.4352 68.5168 54.554C68.7796 54.8504 68.8599 54.919 68.9185 54.8965C68.957 54.8817 68.9689 54.8968 68.9524 54.9399C68.9384 54.9763 68.9178 54.9968 68.9065 54.9856C68.8697 54.9487 68.6743 55.1474 68.7025 55.193C68.7176 55.2175 68.7092 55.2247 68.6838 55.209C68.6585 55.1934 68.6105 55.214 68.5772 55.255C68.5252 55.3191 68.5261 55.324 68.5833 55.2903C68.6405 55.2566 68.6414 55.2615 68.5894 55.3257C68.5562 55.3667 68.5113 55.3893 68.4897 55.3759C68.4681 55.3625 68.4503 55.3839 68.4503 55.4233C68.4503 55.4628 68.4304 55.4827 68.406 55.4676C68.3816 55.4526 68.3617 55.4623 68.3617 55.4893C68.3617 55.5528 68.1586 55.7558 68.0951 55.7558C68.0682 55.7558 68.0585 55.7757 68.0735 55.8001C68.0886 55.8245 68.0687 55.8445 68.0292 55.8445C67.9897 55.8445 67.9684 55.8622 67.9818 55.8838C67.9952 55.9054 67.9726 55.9503 67.9316 55.9835C67.8674 56.0355 67.8625 56.0346 67.8962 55.9774C67.9299 55.9203 67.925 55.9194 67.8609 55.9713C67.8199 56.0046 67.7992 56.0526 67.8149 56.078C67.8306 56.1033 67.8234 56.1118 67.7989 56.0966C67.7489 56.0658 67.5563 56.2656 67.5969 56.3061C67.6112 56.3204 67.5885 56.3321 67.5463 56.3321C67.5042 56.3321 67.4822 56.352 67.4972 56.3764C67.5123 56.4008 67.5026 56.4207 67.4756 56.4207C67.4121 56.4207 67.2091 56.6238 67.2091 56.6873C67.2091 56.7142 67.1892 56.7239 67.1648 56.7089C67.1404 56.6938 67.1205 56.7159 67.1205 56.758C67.1205 56.8001 67.1088 56.8228 67.0945 56.8085C67.054 56.7679 66.8541 56.9606 66.885 57.0105C66.9001 57.035 66.8924 57.0426 66.8678 57.0274C66.8432 57.0122 66.7752 57.0539 66.7168 57.1199L66.6107 57.2402L66.7215 57.1522L66.8323 57.0642L66.7261 57.1844C66.6677 57.2505 66.6029 57.294 66.5821 57.2812C66.5612 57.2683 66.5442 57.29 66.5442 57.3295C66.5442 57.3689 66.5242 57.3889 66.4998 57.3738C66.4755 57.3587 66.4555 57.3689 66.4555 57.3965C66.4555 57.4613 66.3435 57.5733 66.2787 57.5733C66.2512 57.5733 66.241 57.5932 66.256 57.6176C66.2711 57.642 66.2511 57.662 66.2117 57.662C66.1722 57.662 66.1509 57.6797 66.1643 57.7013C66.1777 57.7229 66.1551 57.7678 66.1141 57.801C66.0499 57.853 66.045 57.8521 66.0787 57.7949C66.1124 57.7378 66.1075 57.7369 66.0434 57.7889C66.0024 57.8221 65.9801 57.8675 65.9938 57.8897C66.0076 57.912 65.9936 57.9246 65.9629 57.918C65.9321 57.9112 65.8758 57.9676 65.8377 58.0433C65.7961 58.1258 65.7438 58.1723 65.7068 58.1594C65.6693 58.1465 65.6574 58.1577 65.6762 58.1881C65.6933 58.2157 65.6854 58.2382 65.6587 58.2382C65.5957 58.2382 65.3029 58.531 65.3029 58.594C65.3029 58.6207 65.2804 58.6286 65.2528 58.6115C65.2224 58.5927 65.2112 58.6046 65.2241 58.6421C65.237 58.6791 65.1905 58.7314 65.108 58.773C65.0323 58.8111 64.9759 58.8674 64.9827 58.8982C64.9893 58.9289 64.9767 58.9429 64.9544 58.9291C64.9322 58.9154 64.8868 58.9376 64.8536 58.9787C64.8016 59.0428 64.8025 59.0477 64.8596 59.014C64.9168 58.9803 64.9177 58.9852 64.8657 59.0494C64.8325 59.0904 64.7876 59.113 64.766 59.0996C64.7444 59.0862 64.7267 59.1075 64.7267 59.147C64.7267 59.1864 64.7067 59.2064 64.6823 59.1913C64.658 59.1763 64.638 59.1864 64.638 59.214C64.638 59.2788 64.526 59.3908 64.4612 59.3908C64.4336 59.3908 64.4234 59.4108 64.4385 59.4351C64.4536 59.4595 64.4336 59.4795 64.3942 59.4795C64.3547 59.4795 64.333 59.4965 64.3459 59.5174C64.3587 59.5382 64.3152 59.603 64.2491 59.6614L64.1289 59.7676L64.2169 59.6568L64.3049 59.546L64.1846 59.6521C64.1186 59.7105 64.0769 59.7785 64.0921 59.8031C64.1073 59.8277 64.0997 59.8354 64.0752 59.8202C64.0253 59.7894 63.8326 59.9893 63.8732 60.0298C63.8875 60.0441 63.8648 60.0557 63.8227 60.0557C63.7806 60.0557 63.7585 60.0757 63.7736 60.1001C63.7887 60.1245 63.7789 60.1444 63.752 60.1444C63.6885 60.1444 63.4854 60.3474 63.4854 60.4109C63.4854 60.4379 63.4655 60.4476 63.4411 60.4325C63.4167 60.4175 63.3968 60.4395 63.3968 60.4816C63.3968 60.5238 63.3851 60.5465 63.3708 60.5322C63.3303 60.4916 63.1305 60.6842 63.1613 60.7342C63.1765 60.7587 63.168 60.7659 63.1427 60.7502C63.1173 60.7345 63.0693 60.7552 63.036 60.7962C62.9841 60.8603 62.985 60.8652 63.0421 60.8315C63.0993 60.7978 63.1002 60.8027 63.0482 60.8669C63.015 60.9079 62.9701 60.9305 62.9485 60.9171C62.9269 60.9037 62.9092 60.925 62.9092 60.9645C62.9092 61.004 62.8892 61.0239 62.8648 61.0088C62.8404 60.9938 62.8205 61.0035 62.8205 61.0304C62.8205 61.0939 62.6175 61.297 62.554 61.297C62.527 61.297 62.5173 61.3169 62.5324 61.3413C62.5474 61.3657 62.5275 61.3856 62.488 61.3856C62.4486 61.3856 62.4272 61.4034 62.4406 61.425C62.454 61.4466 62.4314 61.4915 62.3904 61.5247C62.3262 61.5767 62.3213 61.5758 62.355 61.5186C62.3887 61.4614 62.3839 61.4605 62.3197 61.5125C62.2787 61.5458 62.2581 61.5938 62.2737 61.6191C62.2894 61.6445 62.2822 61.6529 62.2577 61.6378C62.2077 61.6069 62.0151 61.8068 62.0557 61.8473C62.07 61.8616 62.0473 61.8733 62.0052 61.8733C61.9631 61.8733 61.941 61.8932 61.9561 61.9176C61.9711 61.942 61.9614 61.9619 61.9345 61.9619C61.871 61.9619 61.6679 62.1649 61.6679 62.2284C61.6679 62.2554 61.648 62.2651 61.6236 62.2501C61.5992 62.235 61.5793 62.2549 61.5793 62.2944C61.5793 62.3338 61.5643 62.357 61.546 62.346C61.4999 62.3181 61.4002 62.433 61.4379 62.4707C61.4547 62.4874 61.4385 62.4946 61.402 62.4864C61.3654 62.4784 61.3398 62.4946 61.345 62.5226C61.3509 62.5538 61.3183 62.5639 61.2605 62.5488C61.1887 62.5301 61.1749 62.539 61.2018 62.5866C61.2213 62.621 61.1355 62.5509 61.0113 62.431C60.8871 62.3111 60.7955 62.1964 60.808 62.1762C60.8412 62.1226 60.467 61.7375 60.4137 61.7704C60.3889 61.7858 60.3812 61.7781 60.3966 61.7532C60.4283 61.7019 60.0454 61.3251 59.9939 61.357C59.9754 61.3685 59.9305 61.3536 59.8943 61.324C59.7743 61.2263 59.3394 60.7518 59.4025 60.7875C59.4512 60.8151 59.4582 60.7979 59.4352 60.7063C59.411 60.6098 59.4187 60.5949 59.4804 60.6186C59.5305 60.6378 59.5442 60.6301 59.5226 60.5952C59.5032 60.5638 59.5188 60.5434 59.5623 60.5434C59.6017 60.5434 59.6217 60.5234 59.6066 60.499C59.5915 60.4747 59.6007 60.4547 59.6271 60.4547C59.6895 60.4547 60.1607 59.9835 60.1607 59.9211C60.1607 59.8947 60.1807 59.8855 60.2051 59.9006C60.2294 59.9157 60.2494 59.8957 60.2494 59.8563C60.2494 59.8128 60.2698 59.7972 60.3013 59.8166C60.3368 59.8385 60.3436 59.8239 60.3229 59.7699C60.2998 59.7098 60.3096 59.6977 60.3646 59.7188C60.4178 59.7392 60.4294 59.7277 60.409 59.6745C60.3888 59.622 60.4002 59.6098 60.4513 59.6294C60.5068 59.6507 60.5147 59.6359 60.4897 59.5572C60.4606 59.4656 60.4645 59.4631 60.5394 59.5241C60.6133 59.5843 60.6179 59.5829 60.5896 59.5077C60.5659 59.4444 60.575 59.4315 60.6286 59.4521C60.6824 59.4727 60.692 59.4586 60.6705 59.3908C60.6481 59.3203 60.658 59.3086 60.7196 59.3323C60.7782 59.3548 60.7901 59.3446 60.7691 59.29C60.7488 59.2368 60.7603 59.2252 60.8135 59.2456C60.8681 59.2666 60.8783 59.2547 60.8558 59.1961C60.8321 59.1345 60.8438 59.1246 60.9143 59.147C60.9822 59.1685 60.9962 59.1589 60.9756 59.1051C60.955 59.0515 60.968 59.0424 61.0312 59.0661C61.1064 59.0944 61.1078 59.0898 61.0476 59.0159C60.9866 58.941 60.9891 58.9371 61.0807 58.9661C61.1595 58.9912 61.1742 58.9833 61.1529 58.9278C61.1333 58.8767 61.1455 58.8653 61.198 58.8855C61.2512 58.9058 61.2628 58.8943 61.2424 58.8411C61.2212 58.786 61.2333 58.7763 61.2935 58.7993C61.3474 58.8201 61.3621 58.8133 61.3401 58.7777C61.3207 58.7463 61.3363 58.7259 61.3798 58.7259C61.4192 58.7259 61.4392 58.7059 61.4241 58.6815C61.409 58.6572 61.4182 58.6372 61.4446 58.6372C61.5099 58.6372 61.9782 58.1647 61.9782 58.0988C61.9782 58.0699 61.9905 58.0585 62.0057 58.0736C62.0453 58.1132 62.1661 57.9809 62.1355 57.9314C62.1213 57.9084 62.1332 57.8753 62.1617 57.8577C62.1941 57.8376 62.2017 57.8448 62.1819 57.8767C62.1045 58.0021 62.229 57.9071 62.4488 57.673C62.5805 57.5328 62.6791 57.3942 62.6679 57.365C62.656 57.3338 62.6733 57.3217 62.7096 57.3356C62.7844 57.3643 63.078 57.0826 63.0527 57.0064C63.0409 56.9712 63.0616 56.963 63.1126 56.9825C63.1734 57.0059 63.1841 56.9956 63.1612 56.936C63.1435 56.8901 63.1495 56.8703 63.176 56.8867C63.2325 56.9217 63.3524 56.8031 63.3524 56.7121C63.3524 56.6737 63.3828 56.6424 63.4199 56.6424C63.5089 56.6424 63.9847 56.1651 63.9506 56.1099C63.9352 56.085 63.9561 56.0794 64.0007 56.0965C64.0588 56.1187 64.0705 56.1084 64.0492 56.053C64.0338 56.013 64.0434 55.9666 64.0705 55.9498C64.1003 55.9314 64.1073 55.9396 64.0881 55.9706C64.011 56.0955 64.132 55.9915 64.5471 55.5763C64.9624 55.1611 65.0663 55.0401 64.9414 55.1172C64.9105 55.1364 64.9023 55.1294 64.9207 55.0996C64.9374 55.0726 64.9839 55.0629 65.0239 55.0783C65.0793 55.0996 65.0896 55.088 65.0673 55.0298C65.0503 54.9853 65.0559 54.9643 65.0806 54.9796C65.1364 55.014 65.8024 54.348 65.768 54.2923C65.7527 54.2675 65.7737 54.2619 65.8182 54.279C65.8763 54.3012 65.888 54.2909 65.8667 54.2355C65.8513 54.1955 65.8609 54.1491 65.888 54.1323C65.9178 54.1139 65.9248 54.1221 65.9056 54.1531C65.8285 54.278 65.9495 54.174 66.3646 53.7588C66.7799 53.3436 66.8838 53.2226 66.7589 53.2997C66.728 53.3189 66.7198 53.3119 66.7382 53.2821C66.755 53.2551 66.8014 53.2454 66.8414 53.2608C66.8955 53.2815 66.9071 53.2702 66.8866 53.2168C66.8671 53.1662 66.878 53.1522 66.9232 53.1695C66.9585 53.1831 66.9875 53.1721 66.9875 53.1451C66.9875 53.0657 67.0177 53.0846 67.26 53.3157ZM36.6011 58.0875C36.5645 58.1142 36.5483 58.1499 36.5652 58.1668C36.582 58.1836 36.5518 58.209 36.498 58.2231C36.4441 58.237 36.4001 58.2641 36.4001 58.2831C36.4001 58.3021 36.3513 58.3646 36.2915 58.422L36.183 58.5264L36.1797 61.7091C36.1767 64.5048 36.1846 64.9001 36.2439 64.9594C36.2811 64.9966 36.3135 65.0106 36.3159 64.9906C36.3184 64.9706 36.3341 65.004 36.3509 65.065C36.3704 65.1352 36.4193 65.1812 36.4847 65.1906C36.5413 65.1989 36.5976 65.2432 36.6096 65.2893C36.6452 65.4252 43.0427 65.423 43.1276 65.2872C43.1583 65.2381 43.2111 65.198 43.2451 65.198C43.2791 65.198 43.3277 65.1381 43.3532 65.065C43.3787 64.9918 43.4306 64.932 43.4684 64.932C43.5063 64.932 43.5372 64.9108 43.5372 64.885C43.5372 64.8592 43.5172 64.8504 43.4929 64.8655C43.4685 64.8806 43.4485 64.8729 43.4485 64.8485C43.4485 64.8242 43.4681 64.7921 43.4922 64.7773C43.5523 64.7402 43.5523 58.5929 43.4923 58.5929C43.4683 58.5929 43.4485 58.5717 43.4485 58.5459C43.4485 58.5201 43.4735 58.514 43.5039 58.5323C43.5364 58.5518 43.5319 58.5307 43.4929 58.4814C43.3748 58.332 43.2723 58.2382 43.2269 58.2382C43.2025 58.2382 43.1826 58.209 43.1826 58.1732C43.1826 58.1333 43.1566 58.118 43.1155 58.1337C43.0786 58.1479 43.0211 58.1368 42.9876 58.109C42.9025 58.0384 36.6969 58.0174 36.6011 58.0875ZM52.9488 58.878C52.9197 58.9111 52.9098 58.9545 52.9266 58.9746C52.9435 58.9946 52.9173 58.9824 52.8685 58.9475C52.8198 58.9126 52.7932 58.9 52.8095 58.9195C52.8468 58.9642 52.7104 59.1283 52.6612 59.0978C52.6411 59.0854 52.6247 59.0973 52.6247 59.1243C52.6247 59.202 52.2194 59.5917 52.1536 59.5774C52.116 59.5693 52.1039 59.5898 52.1206 59.6333C52.1404 59.6852 52.1275 59.6946 52.0678 59.6717C52.0072 59.6485 51.9951 59.6582 52.0163 59.7133C52.0363 59.7652 52.0251 59.778 51.9764 59.7593C51.9286 59.741 51.913 59.7572 51.9232 59.8145C51.9322 59.8654 51.8963 59.917 51.8268 59.9529C51.7658 59.9844 51.7319 60.0104 51.7513 60.0108C51.7908 60.0115 51.3581 60.4547 51.318 60.4547C51.2715 60.4547 50.8959 60.8505 50.8959 60.8994C50.8959 60.9259 50.8759 60.9352 50.8515 60.9202C50.8272 60.9051 50.8072 60.9163 50.8072 60.9449C50.8072 61.0158 50.4724 61.3463 50.4367 61.3107C50.4211 61.295 50.4083 61.3148 50.4083 61.3547C50.4083 61.4011 50.3842 61.418 50.3412 61.4015C50.2932 61.383 50.282 61.396 50.3019 61.4477C50.323 61.5029 50.3109 61.5125 50.2503 61.4893C50.19 61.4661 50.1776 61.4757 50.1985 61.5298C50.2314 61.6157 50.1232 61.7168 50.0481 61.6703C50.011 61.6474 50.003 61.66 50.0225 61.7108C50.0413 61.7598 50.028 61.7846 49.9831 61.7846C49.9459 61.7846 49.9261 61.8018 49.939 61.8228C49.9664 61.867 49.6385 62.1836 49.5653 62.1836C49.5384 62.1836 49.5288 62.2035 49.5438 62.2279C49.5941 62.3093 49.4479 62.2734 49.3675 62.1846C49.3238 62.1365 49.2678 62.1095 49.2429 62.1249C49.218 62.1403 49.21 62.133 49.2251 62.1086C49.2588 62.054 48.1683 60.9867 48.0789 60.9867C48.0434 60.9867 48.0145 60.9667 48.0145 60.9423C48.0145 60.918 47.9845 60.898 47.948 60.898C47.9114 60.898 47.8815 60.8808 47.8815 60.8599C47.8815 60.7688 47.1973 60.8016 47.0941 60.8977C47.0395 60.9485 46.9949 60.9756 46.9949 60.9577C46.9949 60.94 46.9635 60.9641 46.9251 61.0115C46.8867 61.0588 46.868 61.0726 46.8834 61.0421C46.8988 61.0116 46.8989 60.9867 46.8835 60.9867C46.8293 60.9867 46.7289 61.1142 46.7289 61.1829C46.7289 61.2213 46.709 61.2526 46.6846 61.2526C46.6602 61.2526 46.6403 61.2738 46.6403 61.2996C46.6403 61.3255 46.6652 61.3337 46.6957 61.3179C46.7261 61.3022 46.7082 61.3259 46.6559 61.3707C46.535 61.4741 46.5096 62.0693 46.6242 62.1133C46.6605 62.1273 46.6779 62.1585 46.6629 62.1829C46.6322 62.2325 46.8308 62.4495 46.9068 62.4495C46.9337 62.4495 46.9435 62.4695 46.9284 62.4939C46.9133 62.5182 46.9333 62.5382 46.9727 62.5382C47.0122 62.5382 47.0321 62.5581 47.017 62.5825C47.002 62.6069 47.0219 62.6269 47.0614 62.6269C47.1008 62.6269 47.1222 62.6446 47.1088 62.6662C47.0955 62.6878 47.1242 62.7158 47.1726 62.7285C47.2212 62.7411 47.2609 62.7846 47.2609 62.8248C47.2609 62.8651 47.2808 62.8857 47.3052 62.8707C47.3296 62.8556 47.3495 62.87 47.3495 62.9026C47.3495 62.9353 47.3919 62.9912 47.4436 63.0272C47.4954 63.0629 47.5637 63.1173 47.5956 63.1477C47.6275 63.1782 47.676 63.2031 47.7036 63.2031C47.7312 63.2031 47.7446 63.2181 47.7336 63.2364C47.7074 63.2797 47.8194 63.3833 47.8545 63.3482C47.8694 63.3335 47.8815 63.3461 47.8815 63.3762C47.8815 63.4064 47.9064 63.4571 47.9369 63.4891C47.9674 63.5209 48.0217 63.5892 48.0575 63.641C48.0934 63.6928 48.1493 63.7351 48.182 63.7351C48.2146 63.7351 48.2305 63.7528 48.217 63.7744C48.2038 63.796 48.2325 63.8241 48.2809 63.8367C48.3294 63.8493 48.3691 63.8928 48.3691 63.933C48.3691 63.9734 48.389 63.994 48.4134 63.9789C48.4378 63.9638 48.4578 63.9838 48.4578 64.0232C48.4578 64.0627 48.4777 64.0826 48.5021 64.0676C48.5265 64.0525 48.5464 64.0724 48.5464 64.1119C48.5464 64.1513 48.5664 64.1713 48.5907 64.1562C48.6151 64.1411 48.6351 64.1599 48.6351 64.1979C48.6351 64.2359 48.6662 64.267 48.7042 64.267C48.7422 64.267 48.7642 64.282 48.7532 64.3003C48.7269 64.3436 48.839 64.4472 48.8741 64.4121C48.889 64.3974 48.9011 64.4206 48.9011 64.4639C48.9011 64.5125 48.9244 64.5336 48.9621 64.5191C48.9957 64.5062 49.0466 64.5189 49.0752 64.5475C49.1044 64.5768 49.2613 64.6004 49.4343 64.6015C49.6032 64.6027 49.7198 64.5902 49.6933 64.5738C49.6304 64.5349 49.6955 64.5033 49.8188 64.5131C49.8725 64.5173 49.9124 64.4986 49.9074 64.4714C49.9025 64.4441 49.9428 64.4284 49.9982 64.4361C50.0531 64.4437 50.0979 64.4275 50.0979 64.4003C50.0979 64.3729 50.073 64.3648 50.0425 64.3824C50.0121 64.3999 50.0354 64.3612 50.0946 64.2964C50.2031 64.1773 50.2593 64.141 50.2088 64.2227C50.1334 64.3447 50.2713 64.2278 50.6526 63.8465C51.0489 63.4502 51.1462 63.3331 51.0178 63.4072C50.9873 63.4247 51.0107 63.386 51.0699 63.3212C51.1784 63.202 51.2346 63.1658 51.184 63.2475C51.1146 63.3596 51.23 63.264 51.5587 62.9365C51.8984 62.5983 51.9827 62.4942 51.86 62.5649C51.8296 62.5824 51.8529 62.5437 51.9121 62.4789C52.0206 62.3598 52.0768 62.3235 52.0263 62.4052C51.9509 62.5272 52.0888 62.4103 52.4701 62.029C52.8664 61.6327 52.9637 61.5156 52.8353 61.5897C52.8048 61.6072 52.8282 61.5685 52.8874 61.5037C52.9959 61.3845 53.0521 61.3483 53.0015 61.43C52.9299 61.5458 53.0529 61.4437 53.3777 61.1175C53.7187 60.7753 53.7969 60.6786 53.6775 60.7474C53.6471 60.7649 53.6705 60.7262 53.7296 60.6614C53.8381 60.5423 53.8943 60.506 53.8438 60.5877C53.7939 60.6683 53.8683 60.6338 53.9757 60.5263C54.0338 60.4682 54.0877 60.3835 54.0956 60.3379C54.1033 60.2925 54.1497 60.221 54.1984 60.1791C54.2635 60.1234 54.2699 60.1026 54.2228 60.1015C54.1728 60.1004 54.1704 60.0882 54.2117 60.0469C54.2769 59.9817 54.285 59.3465 54.2206 59.3465C54.1962 59.3465 54.1763 59.3066 54.1763 59.2578C54.1763 59.2027 54.1467 59.1692 54.0982 59.1692C54.0552 59.1692 53.9707 59.1093 53.9103 59.0362C53.8499 58.963 53.7653 58.9032 53.7223 58.9032C53.6794 58.9032 53.6443 58.8858 53.6443 58.8645C53.6443 58.8079 53.2389 58.809 53.1705 58.8657C53.1284 58.9007 53.1123 58.9003 53.1123 58.8643C53.1123 58.7962 53.0133 58.8046 52.9488 58.878ZM41.7197 61.7181V63.6021H39.8578H37.996V61.7181V59.8341H39.8578H41.7197V61.7181ZM59.6942 61.0742C59.8382 61.2198 59.9642 61.331 59.974 61.3212C59.9964 61.2989 59.5095 60.8093 59.4649 60.8093C59.4468 60.8093 59.55 60.9285 59.6942 61.0742ZM49.1392 62.0466C49.1166 62.0724 48.9454 61.9118 48.9454 61.8648C48.9454 61.8433 48.9926 61.8714 49.0502 61.9271C49.108 61.9829 49.148 62.0366 49.1392 62.0466ZM60.98 62.3601C61.0748 62.4572 61.1607 62.5283 61.1708 62.5181C61.1935 62.4954 60.8855 62.1836 60.8403 62.1836C60.8223 62.1836 60.8852 62.263 60.98 62.3601ZM58.6378 62.7017C58.69 62.7551 58.7448 62.7867 58.7597 62.7719C58.7744 62.7572 58.7865 62.7795 58.7865 62.8216C58.7865 62.8637 58.8065 62.8857 58.8308 62.8707C58.8552 62.8556 58.8752 62.8643 58.8752 62.8902C58.8752 62.916 58.955 63.017 59.0525 63.1145C59.15 63.212 59.251 63.2918 59.2768 63.2918C59.3026 63.2918 59.3114 63.3117 59.2963 63.3361C59.2812 63.3605 59.3033 63.3805 59.3454 63.3805C59.3875 63.3805 59.409 63.3934 59.3932 63.4092C59.3773 63.425 59.4058 63.4739 59.4564 63.5178L59.5485 63.5977L59.4368 63.7095C59.3601 63.7862 59.317 63.8042 59.2996 63.7671C59.2797 63.7248 59.2685 63.7251 59.2483 63.7683C59.234 63.7988 59.183 63.8238 59.1348 63.8238C59.0866 63.8238 59.0583 63.8416 59.0718 63.8634C59.1013 63.9111 58.9728 63.9675 58.9155 63.9321C58.8934 63.9184 58.8752 63.9283 58.8752 63.9541C58.8752 63.9799 58.8538 64.0011 58.8276 64.0011C58.8016 64.0011 58.7488 64.0324 58.7105 64.0708C58.6668 64.1144 58.6019 64.1307 58.5363 64.1142C58.4778 64.0996 58.4319 64.1079 58.4319 64.1332C58.4319 64.1581 58.3967 64.1784 58.3539 64.1784C58.311 64.1784 58.251 64.2183 58.2205 64.267C58.1839 64.3258 58.1166 64.3559 58.0215 64.3564C57.9123 64.3569 57.8938 64.3675 57.9443 64.4C58.0093 64.442 57.8948 64.4683 57.7351 64.448C57.7053 64.4443 57.6557 64.4817 57.6246 64.5314C57.5937 64.581 57.5519 64.6217 57.532 64.6217C57.512 64.6217 57.5094 64.5996 57.526 64.5728C57.5426 64.5459 57.5033 64.5585 57.4386 64.601C57.3738 64.6433 57.3082 64.6653 57.2927 64.6498C57.2772 64.6343 57.289 64.6217 57.3189 64.6217C57.3488 64.6217 57.3619 64.6034 57.348 64.5809C57.3342 64.5585 57.3549 64.5081 57.394 64.469C57.4332 64.4298 57.4542 64.3689 57.4406 64.3335C57.427 64.2983 57.4401 64.2539 57.4696 64.235C57.499 64.2161 57.5251 64.1756 57.5276 64.1451C57.53 64.1147 57.5353 64.0448 57.5393 63.99C57.5453 63.9086 57.5546 63.9024 57.5896 63.9567C57.623 64.0084 57.6327 63.9954 57.6333 63.8987C57.6337 63.816 57.6511 63.7849 57.6852 63.8058C57.719 63.8267 57.7242 63.8178 57.7006 63.7795C57.6782 63.7433 57.6942 63.7001 57.7436 63.6641C57.7869 63.6322 57.8112 63.5772 57.7974 63.5414C57.7838 63.5057 57.7966 63.4672 57.8261 63.4559C57.8556 63.4446 57.8844 63.3781 57.8902 63.3082C57.8959 63.2382 57.9205 63.1743 57.9449 63.1661C57.9692 63.1579 57.9777 63.1329 57.9639 63.1104C57.95 63.0879 57.9697 63.0576 58.0076 63.043C58.0457 63.0285 58.0667 63.0003 58.0544 62.9804C58.0421 62.9605 58.0622 62.9142 58.099 62.8774C58.1358 62.8406 58.1659 62.7803 58.1659 62.7434C58.1659 62.7065 58.1872 62.6632 58.2132 62.6471C58.2393 62.6311 58.2496 62.5892 58.2362 62.5542C58.1712 62.3848 58.3089 62.3215 58.4281 62.4658C58.4912 62.5422 58.5855 62.6482 58.6378 62.7017ZM36.6378 67.6136C36.6512 67.6488 36.6401 67.6913 36.613 67.708C36.5815 67.7275 36.5754 67.7161 36.5961 67.6762C36.6138 67.642 36.5987 67.6502 36.5626 67.6945C36.5265 67.7387 36.485 67.7736 36.4706 67.7721C36.3769 67.7614 36.3558 67.7813 36.3558 67.8799C36.3558 67.9607 36.3321 67.9907 36.2683 67.9907C36.1477 67.9907 36.1248 74.4327 36.2451 74.4789C36.2823 74.4932 36.332 74.5552 36.3554 74.6169C36.3788 74.6784 36.4282 74.7288 36.4652 74.7288C36.5021 74.7288 36.5574 74.7689 36.5881 74.818C36.675 74.9572 43.0939 74.9557 43.0939 74.8163C43.0939 74.7525 43.1239 74.7288 43.2047 74.7288C43.3015 74.7288 43.3345 74.6903 43.3229 74.591C43.3212 74.5763 43.3687 74.538 43.4285 74.506C43.4883 74.474 43.5372 74.4281 43.5372 74.4041C43.5372 74.38 43.4944 74.3984 43.4421 74.4449C43.3475 74.5289 43.3472 74.5288 43.3993 74.4296C43.4281 74.3747 43.4708 74.3298 43.4943 74.3298C43.5212 74.3298 43.5364 73.1713 43.5354 71.189L43.534 68.0482L43.4358 67.9551C43.312 67.8378 43.2465 67.7722 43.129 67.6484L43.0356 67.5498H39.8244C37.0451 67.5496 36.6165 67.5583 36.6378 67.6136ZM48.0699 68.4056C48.015 68.4328 47.9701 68.4703 47.9701 68.4889C47.9701 68.5075 47.9302 68.5227 47.8815 68.5227C47.8327 68.5227 47.7928 68.5389 47.7928 68.5587C47.7928 68.5784 47.7521 68.6383 47.7024 68.6917C47.6527 68.745 47.6251 68.7886 47.641 68.7886C47.6569 68.7886 47.6358 68.841 47.5939 68.9049C47.5436 68.9816 47.538 69.0089 47.5777 68.985C47.6246 68.9569 47.6268 68.9629 47.5879 69.0128C47.5304 69.0868 47.5222 69.4536 47.578 69.4536C47.5987 69.4536 47.6155 69.4847 47.6155 69.5227C47.6155 69.5608 47.5955 69.5795 47.5712 69.5644C47.5468 69.5493 47.5268 69.556 47.5268 69.5793C47.5268 69.6024 47.5584 69.6336 47.597 69.6483C47.6357 69.6632 47.6602 69.6964 47.6515 69.7222C47.6349 69.7722 48.1376 70.3019 48.6683 70.7936C48.8451 70.9574 48.9897 71.1118 48.9897 71.1369C48.9897 71.1619 49.0097 71.1824 49.034 71.1824C49.1549 71.1824 49.0161 71.3425 48.4261 71.8825C48.3477 71.9543 48.2962 72.0256 48.3116 72.041C48.327 72.0564 48.3063 72.069 48.2657 72.069C48.225 72.069 48.1968 72.094 48.2029 72.1244C48.209 72.1549 48.189 72.1749 48.1585 72.1688C48.1281 72.1627 48.1031 72.1888 48.1031 72.2268C48.1031 72.2649 48.0832 72.2836 48.0588 72.2685C48.0344 72.2534 48.0145 72.2722 48.0145 72.3102C48.0145 72.3482 47.9833 72.3793 47.9453 72.3793C47.9073 72.3793 47.8886 72.3993 47.9036 72.4237C47.9187 72.448 47.8988 72.468 47.8593 72.468C47.8199 72.468 47.7999 72.4879 47.815 72.5123C47.8301 72.5367 47.8199 72.5566 47.7923 72.5566C47.7229 72.5566 47.6155 72.6706 47.6155 72.7441C47.6155 72.7775 47.5906 72.8317 47.5601 72.8646C47.515 72.9132 47.5171 72.9174 47.5712 72.8871C47.624 72.8575 47.6276 72.863 47.5886 72.9138C47.5301 72.99 47.5195 73.3989 47.5762 73.3989C47.5978 73.3989 47.6155 73.4201 47.6155 73.4459C47.6155 73.4717 47.5955 73.4805 47.5712 73.4654C47.5037 73.4237 47.5183 73.4854 47.5938 73.5608C47.6306 73.5976 47.6493 73.646 47.6354 73.6684C47.6216 73.6909 47.6408 73.7092 47.678 73.7092C47.72 73.7092 47.736 73.7345 47.7202 73.7757C47.7038 73.8184 47.7211 73.8422 47.7685 73.8422C47.8091 73.8422 47.8301 73.8622 47.815 73.8865C47.7884 73.9295 47.8461 73.9487 47.9584 73.9343C47.9919 73.93 48.0022 73.9556 47.985 74.0006C47.9613 74.0623 47.9781 74.0692 48.0923 74.0441C48.1796 74.0248 48.2394 74.0335 48.2609 74.0681C48.2834 74.1046 48.2755 74.1104 48.2361 74.086C48.1978 74.0623 48.1888 74.0675 48.2097 74.1013C48.2484 74.164 48.7237 74.1704 48.7237 74.1082C48.7237 74.0838 48.7387 74.0662 48.757 74.0691C48.8808 74.0887 48.9524 74.0574 48.9282 73.9945C48.9081 73.9421 48.9221 73.9316 48.9858 73.9518C49.0499 73.9721 49.1712 73.8787 49.4953 73.5594C49.8918 73.1685 49.999 73.0396 49.8652 73.1143C49.8347 73.1313 49.9389 73.0128 50.0966 72.8509C50.3719 72.5686 50.4453 72.5052 50.3861 72.601C50.371 72.6254 50.3798 72.6453 50.4056 72.6453C50.4314 72.6453 50.4526 72.6235 50.4526 72.5968C50.4526 72.5701 50.5201 72.629 50.6024 72.7276C50.6849 72.8263 50.7647 72.8947 50.7797 72.8796C50.7949 72.8645 50.8072 72.8866 50.8072 72.9287C50.8072 72.9708 50.8272 72.9929 50.8515 72.9778C50.8759 72.9627 50.8959 72.9768 50.8959 73.009C50.8959 73.0412 50.9408 73.0873 50.9956 73.1113C51.0505 73.1354 51.0954 73.175 51.0954 73.1994C51.0954 73.2238 51.1652 73.3036 51.2505 73.3767C51.4562 73.5531 51.4641 73.5613 51.6898 73.8344C51.8293 74.0032 51.9084 74.0644 51.9668 74.0492C52.0118 74.0374 52.0388 74.0436 52.0268 74.063C51.969 74.1565 52.5063 74.1838 52.7001 74.0971C52.7682 74.0666 52.8714 73.9918 52.9294 73.9309C52.9873 73.8699 53.0074 73.8596 52.9738 73.9081C52.9147 73.9936 52.9163 73.9941 53.0237 73.9253C53.0855 73.8856 53.1407 73.8029 53.1485 73.7379C53.1562 73.6739 53.1968 73.5964 53.2387 73.5656C53.3279 73.5001 53.3433 72.8364 53.2552 72.8549C53.2265 72.8609 53.2156 72.8185 53.2282 72.7496C53.245 72.6565 53.235 72.6398 53.1757 72.6625C53.1247 72.6821 53.1097 72.6719 53.1262 72.6287C53.1494 72.5684 52.8923 72.2463 52.821 72.2463C52.8015 72.2463 52.8428 72.3062 52.9129 72.3793C52.9829 72.4525 53.0251 72.5123 53.0066 72.5123C52.9881 72.5123 52.9495 72.4863 52.9207 72.4546C52.6664 72.1732 52.6102 72.1039 52.658 72.1313C52.7859 72.2042 52.6897 72.0885 52.2928 71.6917C51.8951 71.2938 51.7817 71.1998 51.8526 71.3265C51.8697 71.357 51.8463 71.3467 51.8008 71.3037C51.7205 71.228 51.7303 71.2134 52.1105 70.8382C52.3265 70.6252 52.4894 70.4759 52.4727 70.5064C52.4046 70.63 52.5139 70.545 52.8273 70.2306C53.009 70.0484 53.1524 69.8738 53.146 69.8427C53.1397 69.8116 53.1619 69.7918 53.1954 69.7989C53.2346 69.8072 53.2467 69.7871 53.2294 69.7418C53.2146 69.7034 53.2283 69.662 53.2597 69.65C53.3312 69.6225 53.3288 69 53.2569 68.9133C53.2303 68.8813 53.2019 68.8352 53.1937 68.8108C53.1855 68.7864 53.1689 68.7696 53.1567 68.7735C53.1445 68.7772 53.0962 68.7291 53.0494 68.6664C53.0025 68.6037 52.9876 68.5669 53.0162 68.5845C53.0446 68.6021 53.068 68.5955 53.068 68.5697C53.068 68.5438 53.0281 68.5227 52.9794 68.5227C52.9306 68.5227 52.8907 68.5027 52.8907 68.4783C52.8907 68.454 52.8396 68.434 52.7772 68.434C52.7148 68.434 52.673 68.4191 52.6842 68.4008C52.7193 68.3439 52.1676 68.3461 52.0971 68.4031C52.0456 68.4448 52.0386 68.4443 52.0647 68.4008C52.083 68.3703 52.0783 68.3454 52.0541 68.3454C52.0298 68.3454 51.9975 68.3853 51.9819 68.434C51.9525 68.5269 51.8711 68.5571 51.8711 68.4751C51.8711 68.4491 51.8412 68.4576 51.8046 68.4942C51.7681 68.5308 51.7381 68.5821 51.7381 68.6081C51.7381 68.6343 51.707 68.6557 51.669 68.6557C51.631 68.6557 51.6122 68.6756 51.6273 68.7C51.6424 68.7244 51.6237 68.7443 51.5856 68.7443C51.5476 68.7443 51.5215 68.7693 51.5276 68.7997C51.5337 68.8302 51.5137 68.8502 51.4832 68.8441C51.4528 68.838 51.4328 68.8571 51.4389 68.8867C51.445 68.9163 51.4051 68.961 51.3503 68.9859C51.2954 69.0108 51.2505 69.0443 51.2505 69.0602C51.2505 69.076 51.074 69.2657 50.8581 69.4818L50.4657 69.8747L50.3151 69.7105C50.168 69.5502 50.0612 69.4869 50.1243 69.5977C50.1417 69.6281 50.0895 69.5932 50.0083 69.5201C49.7211 69.2614 49.5634 69.099 49.5998 69.099C49.6201 69.099 49.7142 69.1784 49.809 69.2755C49.9038 69.3726 49.9888 69.4446 49.9978 69.4355C50.0068 69.4264 49.8099 69.2174 49.5601 68.9708C49.1548 68.5709 49.0548 68.4984 48.9343 68.5175C48.916 68.5203 48.9011 68.5027 48.9011 68.4783C48.9011 68.454 48.8699 68.434 48.8319 68.434C48.7939 68.434 48.7721 68.4191 48.7832 68.4008C48.8163 68.3472 48.1793 68.3516 48.0699 68.4056ZM49.3687 68.8677C49.3457 68.8908 49.1227 68.6729 49.1227 68.6272C49.1227 68.6093 49.1823 68.6519 49.2552 68.7217C49.3282 68.7915 49.3791 68.8572 49.3687 68.8677ZM41.7197 71.2268V73.0886H39.8578H37.996V71.2268V69.3649H39.8578H41.7197V71.2268ZM52.1014 70.8855C51.926 71.0622 51.7825 71.2214 51.7825 71.2396C51.7825 71.2577 51.9338 71.121 52.119 70.936C52.3041 70.7509 52.4476 70.5916 52.438 70.582C52.4283 70.5724 52.2768 70.7089 52.1014 70.8855ZM50.1191 72.868C49.9995 72.9893 49.9165 73.0886 49.9346 73.0886C49.9794 73.0886 50.377 72.6879 50.3544 72.6654C50.3445 72.6555 50.2386 72.7466 50.1191 72.868ZM49.3217 73.6653C49.2519 73.7383 49.178 73.7979 49.1575 73.7979C49.137 73.7979 49.1855 73.7309 49.2656 73.6491C49.3455 73.5674 49.4194 73.5077 49.4298 73.5166C49.4402 73.5256 49.3916 73.5924 49.3217 73.6653ZM45.5867 77.3442C45.5562 77.393 45.5004 77.4329 45.4629 77.4329C45.4252 77.4329 45.3735 77.4927 45.348 77.5659C45.3226 77.639 45.2737 77.6989 45.2395 77.6989C45.2053 77.6989 45.1774 77.7188 45.1774 77.7432C45.1774 77.7676 45.1998 77.7875 45.2271 77.7875C45.2628 77.7875 45.262 77.8054 45.2247 77.8504C45.1237 77.9722 45.1743 78.5668 45.2946 78.6713C45.352 78.7213 45.399 78.7835 45.399 78.8094C45.399 78.8354 45.414 78.8476 45.4323 78.8366C45.4506 78.8255 45.4912 78.8442 45.5227 78.8783C45.5541 78.9123 45.5646 78.9401 45.5461 78.9401C45.5275 78.9401 45.5516 78.9671 45.5997 79.0002C45.6997 79.0689 46.3168 79.0859 46.3568 79.0211C46.3717 78.9969 46.4062 79 46.4408 79.0287C46.4847 79.0652 46.5142 79.0573 46.5593 78.9976C46.5924 78.9538 46.659 78.8958 46.7074 78.8687C46.7558 78.8417 46.7954 78.7918 46.7954 78.7579C46.7954 78.724 46.8403 78.6766 46.8951 78.6525C46.95 78.6285 46.9949 78.5923 46.9949 78.5724C46.9949 78.5523 46.975 78.5482 46.9507 78.5632C46.9216 78.5811 46.9219 78.55 46.9513 78.4725C47.0301 78.2653 46.9964 77.7304 46.9004 77.6632C46.8548 77.6313 46.8176 77.5759 46.8176 77.5401C46.8176 77.5043 46.7671 77.4558 46.7056 77.4324C46.644 77.4091 46.5821 77.3596 46.5679 77.3227C46.5237 77.2076 45.6601 77.2265 45.5867 77.3442Z" fill="white"/>
<path id="path1" fill-rule="evenodd" clip-rule="evenodd" d="M62.2887 38.6009C62.2887 38.6246 62.3286 38.6654 62.3773 38.6914C62.4261 38.7174 62.466 38.723 62.466 38.7036C62.466 38.6842 62.4261 38.6435 62.3773 38.6131C62.3282 38.5824 62.2887 38.5769 62.2887 38.6009ZM63.0694 39.3798C63.1099 39.4416 63.1516 39.4835 63.1622 39.4728C63.1885 39.4466 63.0738 39.2677 63.0306 39.2677C63.0115 39.2677 63.029 39.3182 63.0694 39.3798ZM63.4412 40.1269C63.4412 40.1635 63.4612 40.2057 63.4856 40.2208C63.51 40.2358 63.5299 40.2182 63.5299 40.1816C63.5299 40.1451 63.51 40.1029 63.4856 40.0878C63.4612 40.0727 63.4412 40.0903 63.4412 40.1269ZM38.6375 43.5277C38.6213 43.5789 38.6286 43.6416 38.6539 43.6668C38.6856 43.6985 38.6987 43.6697 38.6959 43.5737C38.6912 43.4107 38.6779 43.4002 38.6375 43.5277ZM52.9353 45.0968C52.8782 45.1577 52.8412 45.2173 52.8532 45.2293C52.8651 45.2413 52.919 45.1914 52.9728 45.1186C53.0922 44.9573 53.0755 44.9476 52.9353 45.0968ZM52.4697 45.5625C52.4256 45.6112 52.4119 45.6511 52.4391 45.6511C52.4664 45.6511 52.5102 45.6112 52.5362 45.5625C52.5622 45.5137 52.5761 45.4738 52.5668 45.4738C52.5575 45.4738 52.5138 45.5137 52.4697 45.5625ZM43.6336 46.172C44.9666 46.1785 47.1609 46.1785 48.5099 46.172C49.8588 46.1655 48.7682 46.1601 46.0863 46.1601C43.4043 46.1601 42.3006 46.1655 43.6336 46.172ZM71.0659 49.2662C71.0659 49.3044 71.0845 49.3243 71.1071 49.3102C71.1299 49.2962 71.1612 49.3053 71.1767 49.3305C71.1922 49.3556 71.2213 49.3662 71.2412 49.3539C71.2612 49.3416 71.3022 49.3612 71.3323 49.3974C71.3625 49.4338 71.4072 49.4635 71.432 49.4635C71.4798 49.4635 71.3299 49.3449 71.1653 49.2526C71.0809 49.2051 71.0659 49.2072 71.0659 49.2662ZM68.4505 54.4505C68.5331 54.5359 68.6149 54.6057 68.632 54.6057C68.6492 54.6057 68.5934 54.5359 68.5081 54.4505C68.4228 54.3652 68.3411 54.2954 68.3266 54.2954C68.3119 54.2954 68.3678 54.3652 68.4505 54.4505ZM49.3556 55.0796C49.3982 55.0906 49.4681 55.0906 49.5107 55.0796C49.5534 55.0684 49.5185 55.0593 49.4331 55.0593C49.3478 55.0593 49.3129 55.0684 49.3556 55.0796ZM61.5419 55.8312C61.436 55.9409 61.3574 56.0386 61.3673 56.0485C61.3772 56.0585 61.4831 55.9673 61.6026 55.8459C61.7221 55.7245 61.8007 55.6267 61.7772 55.6285C61.7537 55.6302 61.6479 55.7214 61.5419 55.8312ZM60.8325 56.5387C60.7994 56.5759 60.7814 56.6151 60.792 56.6259C60.8028 56.6366 60.8478 56.6054 60.8921 56.5564C60.9363 56.5075 60.9545 56.4683 60.9324 56.4692C60.9104 56.4702 60.8654 56.5013 60.8325 56.5387ZM38.4284 58.0523C39.2147 58.059 40.5013 58.059 41.2876 58.0523C42.0739 58.0455 41.4306 58.04 39.858 58.04C38.2854 58.04 37.6421 58.0455 38.4284 58.0523ZM53.9445 59.0829C53.9969 59.1317 54.0536 59.1716 54.0706 59.1716C54.0876 59.1716 54.0653 59.1317 54.0212 59.0829C53.9771 59.0342 53.9204 58.9943 53.8952 58.9943C53.87 58.9943 53.8922 59.0342 53.9445 59.0829ZM57.9069 59.4662C57.801 59.5759 57.7224 59.6736 57.7323 59.6835C57.7421 59.6935 57.8481 59.6023 57.9676 59.4809C58.0871 59.3596 58.1657 59.2617 58.1422 59.2635C58.1187 59.2653 58.0129 59.3565 57.9069 59.4662ZM57.4191 59.953C57.3618 60.0141 57.3233 60.0725 57.3336 60.0828C57.344 60.0931 57.4096 60.042 57.4794 59.9691C57.5492 59.8962 57.5877 59.8378 57.5648 59.8392C57.542 59.8408 57.4764 59.892 57.4191 59.953ZM59.5887 61.025C59.7205 61.1667 59.8683 61.3085 59.9171 61.3401C59.9658 61.3718 59.8666 61.2559 59.6966 61.0825C59.3243 60.703 59.254 60.6655 59.5887 61.025ZM50.5924 61.1489C50.5593 61.1862 50.5413 61.2254 50.5519 61.2361C50.5627 61.2469 50.6076 61.2156 50.652 61.1667C50.6962 61.1178 50.7144 61.0785 50.6923 61.0794C50.6703 61.0804 50.6253 61.1116 50.5924 61.1489ZM48.9455 61.8673C48.9455 61.9143 49.1167 62.0749 49.1393 62.049C49.1481 62.0391 49.1081 61.9853 49.0504 61.9296C48.9927 61.8738 48.9455 61.8458 48.9455 61.8673ZM49.7944 61.9478C49.7371 62.0089 49.6987 62.0673 49.709 62.0776C49.7193 62.0879 49.7849 62.0368 49.8547 61.9639C49.9245 61.891 49.963 61.8326 49.9402 61.834C49.9173 61.8356 49.8517 61.8868 49.7944 61.9478ZM60.981 62.4077C61.101 62.5296 61.2093 62.6293 61.2214 62.6293C61.2336 62.6293 61.1453 62.5296 61.0253 62.4077C60.9053 62.2857 60.797 62.186 60.7848 62.186C60.7726 62.186 60.8609 62.2857 60.981 62.4077ZM58.2653 62.4071C58.2351 62.4555 58.2109 62.5104 58.2117 62.529C58.2125 62.5476 58.2336 62.5275 58.2588 62.4843C58.284 62.4411 58.323 62.4172 58.3456 62.4311C58.3682 62.4451 58.3748 62.4256 58.3603 62.3878C58.3274 62.3023 58.3313 62.3014 58.2653 62.4071ZM38.916 63.5935C39.4341 63.6006 40.2819 63.6006 40.8 63.5935C41.3181 63.5864 40.8942 63.5805 39.858 63.5805C38.8218 63.5805 38.3979 63.5864 38.916 63.5935ZM49.6105 64.5644C49.5494 64.5966 49.5294 64.6228 49.5661 64.6228C49.6426 64.6228 49.7734 64.5488 49.7421 64.5232C49.7307 64.5137 49.6714 64.5323 49.6105 64.5644ZM54.7083 67.1905C54.7083 67.2119 54.7582 67.2621 54.8192 67.302C54.8801 67.342 54.93 67.3678 54.93 67.3594C54.93 67.3511 54.8801 67.3009 54.8192 67.2479C54.7582 67.1949 54.7083 67.169 54.7083 67.1905ZM49.1228 68.6296C49.1228 68.6754 49.3458 68.8933 49.3689 68.8701C49.3793 68.8597 49.3283 68.794 49.2554 68.7242C49.1825 68.6543 49.1228 68.6118 49.1228 68.6296ZM49.712 69.2455C50.0344 69.5577 50.1503 69.6392 49.9 69.3778C49.7544 69.2257 49.6191 69.1014 49.5993 69.1014C49.5794 69.1014 49.6301 69.1662 49.712 69.2455ZM53.3019 69.2787C53.3019 69.3884 53.3105 69.4333 53.3211 69.3785C53.3317 69.3236 53.3317 69.2338 53.3211 69.179C53.3105 69.1241 53.3019 69.169 53.3019 69.2787ZM52.0932 70.8521C51.7285 71.2188 51.7209 71.2307 51.8037 71.3065C51.8849 71.381 51.886 71.3809 51.828 71.3042C51.7734 71.232 51.804 71.1874 52.1398 70.8499C52.3446 70.6441 52.5021 70.4756 52.4899 70.4756C52.4777 70.4756 52.2993 70.6451 52.0932 70.8521ZM52.7361 72.2465C52.9562 72.5 52.9829 72.5261 53.0029 72.5062C53.0134 72.4957 52.9279 72.3985 52.8127 72.2904C52.6605 72.1472 52.6396 72.1352 52.7361 72.2465ZM50.0968 72.8583L49.8099 73.1575L50.1092 72.8707C50.3871 72.6042 50.4287 72.5591 50.396 72.5591C50.3892 72.5591 50.2546 72.6937 50.0968 72.8583ZM53.3019 73.1797C53.3019 73.2894 53.3105 73.3343 53.3211 73.2794C53.3317 73.2246 53.3317 73.1348 53.3211 73.08C53.3105 73.0251 53.3019 73.07 53.3019 73.1797ZM49.2657 73.6516C49.1857 73.7334 49.1371 73.8003 49.1576 73.8003C49.2045 73.8003 49.4555 73.541 49.4299 73.5191C49.4195 73.5102 49.3456 73.5698 49.2657 73.6516ZM43.4058 74.4183C43.3722 74.481 43.3747 74.5128 43.4153 74.5362C43.4459 74.5537 43.4559 74.5516 43.4375 74.5314C43.4192 74.5111 43.4373 74.4581 43.4776 74.4134C43.519 74.3677 43.5293 74.3323 43.5014 74.3323C43.4742 74.3323 43.431 74.371 43.4058 74.4183Z" fill="white"/>
<path id="path2" fill-rule="evenodd" clip-rule="evenodd" d="M62.2887 38.6009C62.2887 38.6246 62.3286 38.6654 62.3773 38.6914C62.4261 38.7174 62.466 38.723 62.466 38.7036C62.466 38.6842 62.4261 38.6435 62.3773 38.6131C62.3282 38.5824 62.2887 38.5769 62.2887 38.6009ZM63.0694 39.3798C63.1099 39.4416 63.1516 39.4835 63.1622 39.4728C63.1885 39.4466 63.0738 39.2677 63.0306 39.2677C63.0115 39.2677 63.029 39.3182 63.0694 39.3798ZM63.4412 40.1269C63.4412 40.1635 63.4612 40.2057 63.4856 40.2208C63.51 40.2358 63.5299 40.2182 63.5299 40.1816C63.5299 40.1451 63.51 40.1029 63.4856 40.0878C63.4612 40.0727 63.4412 40.0903 63.4412 40.1269ZM38.6375 43.5277C38.6213 43.5789 38.6286 43.6416 38.6539 43.6668C38.6856 43.6985 38.6987 43.6697 38.6959 43.5737C38.6912 43.4107 38.6779 43.4002 38.6375 43.5277ZM52.9353 45.0968C52.8782 45.1577 52.8412 45.2173 52.8532 45.2293C52.8651 45.2413 52.919 45.1914 52.9728 45.1186C53.0922 44.9573 53.0755 44.9476 52.9353 45.0968ZM52.4697 45.5625C52.4256 45.6112 52.4119 45.6511 52.4391 45.6511C52.4664 45.6511 52.5102 45.6112 52.5362 45.5625C52.5622 45.5137 52.5761 45.4738 52.5668 45.4738C52.5575 45.4738 52.5138 45.5137 52.4697 45.5625ZM43.6336 46.172C44.9666 46.1785 47.1609 46.1785 48.5099 46.172C49.8588 46.1655 48.7682 46.1601 46.0863 46.1601C43.4043 46.1601 42.3006 46.1655 43.6336 46.172ZM71.0659 49.2662C71.0659 49.3044 71.0845 49.3243 71.1071 49.3102C71.1299 49.2962 71.1612 49.3053 71.1767 49.3305C71.1922 49.3556 71.2213 49.3662 71.2412 49.3539C71.2612 49.3416 71.3022 49.3612 71.3323 49.3974C71.3625 49.4338 71.4072 49.4635 71.432 49.4635C71.4798 49.4635 71.3299 49.3449 71.1653 49.2526C71.0809 49.2051 71.0659 49.2072 71.0659 49.2662ZM68.4505 54.4505C68.5331 54.5359 68.6149 54.6057 68.632 54.6057C68.6492 54.6057 68.5934 54.5359 68.5081 54.4505C68.4228 54.3652 68.3411 54.2954 68.3266 54.2954C68.3119 54.2954 68.3678 54.3652 68.4505 54.4505ZM49.3556 55.0796C49.3982 55.0906 49.4681 55.0906 49.5107 55.0796C49.5534 55.0684 49.5185 55.0593 49.4331 55.0593C49.3478 55.0593 49.3129 55.0684 49.3556 55.0796ZM61.5419 55.8312C61.436 55.9409 61.3574 56.0386 61.3673 56.0485C61.3772 56.0585 61.4831 55.9673 61.6026 55.8459C61.7221 55.7245 61.8007 55.6267 61.7772 55.6285C61.7537 55.6302 61.6479 55.7214 61.5419 55.8312ZM60.8325 56.5387C60.7994 56.5759 60.7814 56.6151 60.792 56.6259C60.8028 56.6366 60.8478 56.6054 60.8921 56.5564C60.9363 56.5075 60.9545 56.4683 60.9324 56.4692C60.9104 56.4702 60.8654 56.5013 60.8325 56.5387ZM38.4284 58.0523C39.2147 58.059 40.5013 58.059 41.2876 58.0523C42.0739 58.0455 41.4306 58.04 39.858 58.04C38.2854 58.04 37.6421 58.0455 38.4284 58.0523ZM53.9445 59.0829C53.9969 59.1317 54.0536 59.1716 54.0706 59.1716C54.0876 59.1716 54.0653 59.1317 54.0212 59.0829C53.9771 59.0342 53.9204 58.9943 53.8952 58.9943C53.87 58.9943 53.8922 59.0342 53.9445 59.0829ZM57.9069 59.4662C57.801 59.5759 57.7224 59.6736 57.7323 59.6835C57.7421 59.6935 57.8481 59.6023 57.9676 59.4809C58.0871 59.3596 58.1657 59.2617 58.1422 59.2635C58.1187 59.2653 58.0129 59.3565 57.9069 59.4662ZM57.4191 59.953C57.3618 60.0141 57.3233 60.0725 57.3336 60.0828C57.344 60.0931 57.4096 60.042 57.4794 59.9691C57.5492 59.8962 57.5877 59.8378 57.5648 59.8392C57.542 59.8408 57.4764 59.892 57.4191 59.953ZM59.5887 61.025C59.7205 61.1667 59.8683 61.3085 59.9171 61.3401C59.9658 61.3718 59.8666 61.2559 59.6966 61.0825C59.3243 60.703 59.254 60.6655 59.5887 61.025ZM50.5924 61.1489C50.5593 61.1862 50.5413 61.2254 50.5519 61.2361C50.5627 61.2469 50.6076 61.2156 50.652 61.1667C50.6962 61.1178 50.7144 61.0785 50.6923 61.0794C50.6703 61.0804 50.6253 61.1116 50.5924 61.1489ZM48.9455 61.8673C48.9455 61.9143 49.1167 62.0749 49.1393 62.049C49.1481 62.0391 49.1081 61.9853 49.0504 61.9296C48.9927 61.8738 48.9455 61.8458 48.9455 61.8673ZM49.7944 61.9478C49.7371 62.0089 49.6987 62.0673 49.709 62.0776C49.7193 62.0879 49.7849 62.0368 49.8547 61.9639C49.9245 61.891 49.963 61.8326 49.9402 61.834C49.9173 61.8356 49.8517 61.8868 49.7944 61.9478ZM60.981 62.4077C61.101 62.5296 61.2093 62.6293 61.2214 62.6293C61.2336 62.6293 61.1453 62.5296 61.0253 62.4077C60.9053 62.2857 60.797 62.186 60.7848 62.186C60.7726 62.186 60.8609 62.2857 60.981 62.4077ZM58.2653 62.4071C58.2351 62.4555 58.2109 62.5104 58.2117 62.529C58.2125 62.5476 58.2336 62.5275 58.2588 62.4843C58.284 62.4411 58.323 62.4172 58.3456 62.4311C58.3682 62.4451 58.3748 62.4256 58.3603 62.3878C58.3274 62.3023 58.3313 62.3014 58.2653 62.4071ZM38.916 63.5935C39.4341 63.6006 40.2819 63.6006 40.8 63.5935C41.3181 63.5864 40.8942 63.5805 39.858 63.5805C38.8218 63.5805 38.3979 63.5864 38.916 63.5935ZM49.6105 64.5644C49.5494 64.5966 49.5294 64.6228 49.5661 64.6228C49.6426 64.6228 49.7734 64.5488 49.7421 64.5232C49.7307 64.5137 49.6714 64.5323 49.6105 64.5644ZM54.7083 67.1905C54.7083 67.2119 54.7582 67.2621 54.8192 67.302C54.8801 67.342 54.93 67.3678 54.93 67.3594C54.93 67.3511 54.8801 67.3009 54.8192 67.2479C54.7582 67.1949 54.7083 67.169 54.7083 67.1905ZM49.1228 68.6296C49.1228 68.6754 49.3458 68.8933 49.3689 68.8701C49.3793 68.8597 49.3283 68.794 49.2554 68.7242C49.1825 68.6543 49.1228 68.6118 49.1228 68.6296ZM49.712 69.2455C50.0344 69.5577 50.1503 69.6392 49.9 69.3778C49.7544 69.2257 49.6191 69.1014 49.5993 69.1014C49.5794 69.1014 49.6301 69.1662 49.712 69.2455ZM53.3019 69.2787C53.3019 69.3884 53.3105 69.4333 53.3211 69.3785C53.3317 69.3236 53.3317 69.2338 53.3211 69.179C53.3105 69.1241 53.3019 69.169 53.3019 69.2787ZM52.0932 70.8521C51.7285 71.2188 51.7209 71.2307 51.8037 71.3065C51.8849 71.381 51.886 71.3809 51.828 71.3042C51.7734 71.232 51.804 71.1874 52.1398 70.8499C52.3446 70.6441 52.5021 70.4756 52.4899 70.4756C52.4777 70.4756 52.2993 70.6451 52.0932 70.8521ZM52.7361 72.2465C52.9562 72.5 52.9829 72.5261 53.0029 72.5062C53.0134 72.4957 52.9279 72.3985 52.8127 72.2904C52.6605 72.1472 52.6396 72.1352 52.7361 72.2465ZM50.0968 72.8583L49.8099 73.1575L50.1092 72.8707C50.3871 72.6042 50.4287 72.5591 50.396 72.5591C50.3892 72.5591 50.2546 72.6937 50.0968 72.8583ZM53.3019 73.1797C53.3019 73.2894 53.3105 73.3343 53.3211 73.2794C53.3317 73.2246 53.3317 73.1348 53.3211 73.08C53.3105 73.0251 53.3019 73.07 53.3019 73.1797ZM49.2657 73.6516C49.1857 73.7334 49.1371 73.8003 49.1576 73.8003C49.2045 73.8003 49.4555 73.541 49.4299 73.5191C49.4195 73.5102 49.3456 73.5698 49.2657 73.6516ZM43.4058 74.4183C43.3722 74.481 43.3747 74.5128 43.4153 74.5362C43.4459 74.5537 43.4559 74.5516 43.4375 74.5314C43.4192 74.5111 43.4373 74.4581 43.4776 74.4134C43.519 74.3677 43.5293 74.3323 43.5014 74.3323C43.4742 74.3323 43.431 74.371 43.4058 74.4183Z" fill="white"/>
<path id="path3" fill-rule="evenodd" clip-rule="evenodd" d="M62.2887 38.6009C62.2887 38.6246 62.3286 38.6654 62.3773 38.6914C62.4261 38.7174 62.466 38.723 62.466 38.7036C62.466 38.6842 62.4261 38.6435 62.3773 38.6131C62.3282 38.5824 62.2887 38.5769 62.2887 38.6009ZM63.0694 39.3798C63.1099 39.4416 63.1516 39.4835 63.1622 39.4728C63.1885 39.4466 63.0738 39.2677 63.0306 39.2677C63.0115 39.2677 63.029 39.3182 63.0694 39.3798ZM63.4412 40.1269C63.4412 40.1635 63.4612 40.2057 63.4856 40.2208C63.51 40.2358 63.5299 40.2182 63.5299 40.1816C63.5299 40.1451 63.51 40.1029 63.4856 40.0878C63.4612 40.0727 63.4412 40.0903 63.4412 40.1269ZM38.6375 43.5277C38.6213 43.5789 38.6286 43.6416 38.6539 43.6668C38.6856 43.6985 38.6987 43.6697 38.6959 43.5737C38.6912 43.4107 38.6779 43.4002 38.6375 43.5277ZM52.9353 45.0968C52.8782 45.1577 52.8412 45.2173 52.8532 45.2293C52.8651 45.2413 52.919 45.1914 52.9728 45.1186C53.0922 44.9573 53.0755 44.9476 52.9353 45.0968ZM52.4697 45.5625C52.4256 45.6112 52.4119 45.6511 52.4391 45.6511C52.4664 45.6511 52.5102 45.6112 52.5362 45.5625C52.5622 45.5137 52.5761 45.4738 52.5668 45.4738C52.5575 45.4738 52.5138 45.5137 52.4697 45.5625ZM43.6336 46.172C44.9666 46.1785 47.1609 46.1785 48.5099 46.172C49.8588 46.1655 48.7682 46.1601 46.0863 46.1601C43.4043 46.1601 42.3006 46.1655 43.6336 46.172ZM71.0659 49.2662C71.0659 49.3044 71.0845 49.3243 71.1071 49.3102C71.1299 49.2962 71.1612 49.3053 71.1767 49.3305C71.1922 49.3556 71.2213 49.3662 71.2412 49.3539C71.2612 49.3416 71.3022 49.3612 71.3323 49.3974C71.3625 49.4338 71.4072 49.4635 71.432 49.4635C71.4798 49.4635 71.3299 49.3449 71.1653 49.2526C71.0809 49.2051 71.0659 49.2072 71.0659 49.2662ZM68.4505 54.4505C68.5331 54.5359 68.6149 54.6057 68.632 54.6057C68.6492 54.6057 68.5934 54.5359 68.5081 54.4505C68.4228 54.3652 68.3411 54.2954 68.3266 54.2954C68.3119 54.2954 68.3678 54.3652 68.4505 54.4505ZM49.3556 55.0796C49.3982 55.0906 49.4681 55.0906 49.5107 55.0796C49.5534 55.0684 49.5185 55.0593 49.4331 55.0593C49.3478 55.0593 49.3129 55.0684 49.3556 55.0796ZM61.5419 55.8312C61.436 55.9409 61.3574 56.0386 61.3673 56.0485C61.3772 56.0585 61.4831 55.9673 61.6026 55.8459C61.7221 55.7245 61.8007 55.6267 61.7772 55.6285C61.7537 55.6302 61.6479 55.7214 61.5419 55.8312ZM60.8325 56.5387C60.7994 56.5759 60.7814 56.6151 60.792 56.6259C60.8028 56.6366 60.8478 56.6054 60.8921 56.5564C60.9363 56.5075 60.9545 56.4683 60.9324 56.4692C60.9104 56.4702 60.8654 56.5013 60.8325 56.5387ZM38.4284 58.0523C39.2147 58.059 40.5013 58.059 41.2876 58.0523C42.0739 58.0455 41.4306 58.04 39.858 58.04C38.2854 58.04 37.6421 58.0455 38.4284 58.0523ZM53.9445 59.0829C53.9969 59.1317 54.0536 59.1716 54.0706 59.1716C54.0876 59.1716 54.0653 59.1317 54.0212 59.0829C53.9771 59.0342 53.9204 58.9943 53.8952 58.9943C53.87 58.9943 53.8922 59.0342 53.9445 59.0829ZM57.9069 59.4662C57.801 59.5759 57.7224 59.6736 57.7323 59.6835C57.7421 59.6935 57.8481 59.6023 57.9676 59.4809C58.0871 59.3596 58.1657 59.2617 58.1422 59.2635C58.1187 59.2653 58.0129 59.3565 57.9069 59.4662ZM57.4191 59.953C57.3618 60.0141 57.3233 60.0725 57.3336 60.0828C57.344 60.0931 57.4096 60.042 57.4794 59.9691C57.5492 59.8962 57.5877 59.8378 57.5648 59.8392C57.542 59.8408 57.4764 59.892 57.4191 59.953ZM59.5887 61.025C59.7205 61.1667 59.8683 61.3085 59.9171 61.3401C59.9658 61.3718 59.8666 61.2559 59.6966 61.0825C59.3243 60.703 59.254 60.6655 59.5887 61.025ZM50.5924 61.1489C50.5593 61.1862 50.5413 61.2254 50.5519 61.2361C50.5627 61.2469 50.6076 61.2156 50.652 61.1667C50.6962 61.1178 50.7144 61.0785 50.6923 61.0794C50.6703 61.0804 50.6253 61.1116 50.5924 61.1489ZM48.9455 61.8673C48.9455 61.9143 49.1167 62.0749 49.1393 62.049C49.1481 62.0391 49.1081 61.9853 49.0504 61.9296C48.9927 61.8738 48.9455 61.8458 48.9455 61.8673ZM49.7944 61.9478C49.7371 62.0089 49.6987 62.0673 49.709 62.0776C49.7193 62.0879 49.7849 62.0368 49.8547 61.9639C49.9245 61.891 49.963 61.8326 49.9402 61.834C49.9173 61.8356 49.8517 61.8868 49.7944 61.9478ZM60.981 62.4077C61.101 62.5296 61.2093 62.6293 61.2214 62.6293C61.2336 62.6293 61.1453 62.5296 61.0253 62.4077C60.9053 62.2857 60.797 62.186 60.7848 62.186C60.7726 62.186 60.8609 62.2857 60.981 62.4077ZM58.2653 62.4071C58.2351 62.4555 58.2109 62.5104 58.2117 62.529C58.2125 62.5476 58.2336 62.5275 58.2588 62.4843C58.284 62.4411 58.323 62.4172 58.3456 62.4311C58.3682 62.4451 58.3748 62.4256 58.3603 62.3878C58.3274 62.3023 58.3313 62.3014 58.2653 62.4071ZM38.916 63.5935C39.4341 63.6006 40.2819 63.6006 40.8 63.5935C41.3181 63.5864 40.8942 63.5805 39.858 63.5805C38.8218 63.5805 38.3979 63.5864 38.916 63.5935ZM49.6105 64.5644C49.5494 64.5966 49.5294 64.6228 49.5661 64.6228C49.6426 64.6228 49.7734 64.5488 49.7421 64.5232C49.7307 64.5137 49.6714 64.5323 49.6105 64.5644ZM54.7083 67.1905C54.7083 67.2119 54.7582 67.2621 54.8192 67.302C54.8801 67.342 54.93 67.3678 54.93 67.3594C54.93 67.3511 54.8801 67.3009 54.8192 67.2479C54.7582 67.1949 54.7083 67.169 54.7083 67.1905ZM49.1228 68.6296C49.1228 68.6754 49.3458 68.8933 49.3689 68.8701C49.3793 68.8597 49.3283 68.794 49.2554 68.7242C49.1825 68.6543 49.1228 68.6118 49.1228 68.6296ZM49.712 69.2455C50.0344 69.5577 50.1503 69.6392 49.9 69.3778C49.7544 69.2257 49.6191 69.1014 49.5993 69.1014C49.5794 69.1014 49.6301 69.1662 49.712 69.2455ZM53.3019 69.2787C53.3019 69.3884 53.3105 69.4333 53.3211 69.3785C53.3317 69.3236 53.3317 69.2338 53.3211 69.179C53.3105 69.1241 53.3019 69.169 53.3019 69.2787ZM52.0932 70.8521C51.7285 71.2188 51.7209 71.2307 51.8037 71.3065C51.8849 71.381 51.886 71.3809 51.828 71.3042C51.7734 71.232 51.804 71.1874 52.1398 70.8499C52.3446 70.6441 52.5021 70.4756 52.4899 70.4756C52.4777 70.4756 52.2993 70.6451 52.0932 70.8521ZM52.7361 72.2465C52.9562 72.5 52.9829 72.5261 53.0029 72.5062C53.0134 72.4957 52.9279 72.3985 52.8127 72.2904C52.6605 72.1472 52.6396 72.1352 52.7361 72.2465ZM50.0968 72.8583L49.8099 73.1575L50.1092 72.8707C50.3871 72.6042 50.4287 72.5591 50.396 72.5591C50.3892 72.5591 50.2546 72.6937 50.0968 72.8583ZM53.3019 73.1797C53.3019 73.2894 53.3105 73.3343 53.3211 73.2794C53.3317 73.2246 53.3317 73.1348 53.3211 73.08C53.3105 73.0251 53.3019 73.07 53.3019 73.1797ZM49.2657 73.6516C49.1857 73.7334 49.1371 73.8003 49.1576 73.8003C49.2045 73.8003 49.4555 73.541 49.4299 73.5191C49.4195 73.5102 49.3456 73.5698 49.2657 73.6516ZM43.4058 74.4183C43.3722 74.481 43.3747 74.5128 43.4153 74.5362C43.4459 74.5537 43.4559 74.5516 43.4375 74.5314C43.4192 74.5111 43.4373 74.4581 43.4776 74.4134C43.519 74.3677 43.5293 74.3323 43.5014 74.3323C43.4742 74.3323 43.431 74.371 43.4058 74.4183Z" fill="white"/>
<path id="path4" fill-rule="evenodd" clip-rule="evenodd" d="M62.2887 38.6009C62.2887 38.6246 62.3286 38.6654 62.3773 38.6914C62.4261 38.7174 62.466 38.723 62.466 38.7036C62.466 38.6842 62.4261 38.6435 62.3773 38.6131C62.3282 38.5824 62.2887 38.5769 62.2887 38.6009ZM63.0694 39.3798C63.1099 39.4416 63.1516 39.4835 63.1622 39.4728C63.1885 39.4466 63.0738 39.2677 63.0306 39.2677C63.0115 39.2677 63.029 39.3182 63.0694 39.3798ZM63.4412 40.1269C63.4412 40.1635 63.4612 40.2057 63.4856 40.2208C63.51 40.2358 63.5299 40.2182 63.5299 40.1816C63.5299 40.1451 63.51 40.1029 63.4856 40.0878C63.4612 40.0727 63.4412 40.0903 63.4412 40.1269ZM38.6375 43.5277C38.6213 43.5789 38.6286 43.6416 38.6539 43.6668C38.6856 43.6985 38.6987 43.6697 38.6959 43.5737C38.6912 43.4107 38.6779 43.4002 38.6375 43.5277ZM52.9353 45.0968C52.8782 45.1577 52.8412 45.2173 52.8532 45.2293C52.8651 45.2413 52.919 45.1914 52.9728 45.1186C53.0922 44.9573 53.0755 44.9476 52.9353 45.0968ZM52.4697 45.5625C52.4256 45.6112 52.4119 45.6511 52.4391 45.6511C52.4664 45.6511 52.5102 45.6112 52.5362 45.5625C52.5622 45.5137 52.5761 45.4738 52.5668 45.4738C52.5575 45.4738 52.5138 45.5137 52.4697 45.5625ZM43.6336 46.172C44.9666 46.1785 47.1609 46.1785 48.5099 46.172C49.8588 46.1655 48.7682 46.1601 46.0863 46.1601C43.4043 46.1601 42.3006 46.1655 43.6336 46.172ZM71.0659 49.2662C71.0659 49.3044 71.0845 49.3243 71.1071 49.3102C71.1299 49.2962 71.1612 49.3053 71.1767 49.3305C71.1922 49.3556 71.2213 49.3662 71.2412 49.3539C71.2612 49.3416 71.3022 49.3612 71.3323 49.3974C71.3625 49.4338 71.4072 49.4635 71.432 49.4635C71.4798 49.4635 71.3299 49.3449 71.1653 49.2526C71.0809 49.2051 71.0659 49.2072 71.0659 49.2662ZM68.4505 54.4505C68.5331 54.5359 68.6149 54.6057 68.632 54.6057C68.6492 54.6057 68.5934 54.5359 68.5081 54.4505C68.4228 54.3652 68.3411 54.2954 68.3266 54.2954C68.3119 54.2954 68.3678 54.3652 68.4505 54.4505ZM49.3556 55.0796C49.3982 55.0906 49.4681 55.0906 49.5107 55.0796C49.5534 55.0684 49.5185 55.0593 49.4331 55.0593C49.3478 55.0593 49.3129 55.0684 49.3556 55.0796ZM61.5419 55.8312C61.436 55.9409 61.3574 56.0386 61.3673 56.0485C61.3772 56.0585 61.4831 55.9673 61.6026 55.8459C61.7221 55.7245 61.8007 55.6267 61.7772 55.6285C61.7537 55.6302 61.6479 55.7214 61.5419 55.8312ZM60.8325 56.5387C60.7994 56.5759 60.7814 56.6151 60.792 56.6259C60.8028 56.6366 60.8478 56.6054 60.8921 56.5564C60.9363 56.5075 60.9545 56.4683 60.9324 56.4692C60.9104 56.4702 60.8654 56.5013 60.8325 56.5387ZM38.4284 58.0523C39.2147 58.059 40.5013 58.059 41.2876 58.0523C42.0739 58.0455 41.4306 58.04 39.858 58.04C38.2854 58.04 37.6421 58.0455 38.4284 58.0523ZM53.9445 59.0829C53.9969 59.1317 54.0536 59.1716 54.0706 59.1716C54.0876 59.1716 54.0653 59.1317 54.0212 59.0829C53.9771 59.0342 53.9204 58.9943 53.8952 58.9943C53.87 58.9943 53.8922 59.0342 53.9445 59.0829ZM57.9069 59.4662C57.801 59.5759 57.7224 59.6736 57.7323 59.6835C57.7421 59.6935 57.8481 59.6023 57.9676 59.4809C58.0871 59.3596 58.1657 59.2617 58.1422 59.2635C58.1187 59.2653 58.0129 59.3565 57.9069 59.4662ZM57.4191 59.953C57.3618 60.0141 57.3233 60.0725 57.3336 60.0828C57.344 60.0931 57.4096 60.042 57.4794 59.9691C57.5492 59.8962 57.5877 59.8378 57.5648 59.8392C57.542 59.8408 57.4764 59.892 57.4191 59.953ZM59.5887 61.025C59.7205 61.1667 59.8683 61.3085 59.9171 61.3401C59.9658 61.3718 59.8666 61.2559 59.6966 61.0825C59.3243 60.703 59.254 60.6655 59.5887 61.025ZM50.5924 61.1489C50.5593 61.1862 50.5413 61.2254 50.5519 61.2361C50.5627 61.2469 50.6076 61.2156 50.652 61.1667C50.6962 61.1178 50.7144 61.0785 50.6923 61.0794C50.6703 61.0804 50.6253 61.1116 50.5924 61.1489ZM48.9455 61.8673C48.9455 61.9143 49.1167 62.0749 49.1393 62.049C49.1481 62.0391 49.1081 61.9853 49.0504 61.9296C48.9927 61.8738 48.9455 61.8458 48.9455 61.8673ZM49.7944 61.9478C49.7371 62.0089 49.6987 62.0673 49.709 62.0776C49.7193 62.0879 49.7849 62.0368 49.8547 61.9639C49.9245 61.891 49.963 61.8326 49.9402 61.834C49.9173 61.8356 49.8517 61.8868 49.7944 61.9478ZM60.981 62.4077C61.101 62.5296 61.2093 62.6293 61.2214 62.6293C61.2336 62.6293 61.1453 62.5296 61.0253 62.4077C60.9053 62.2857 60.797 62.186 60.7848 62.186C60.7726 62.186 60.8609 62.2857 60.981 62.4077ZM58.2653 62.4071C58.2351 62.4555 58.2109 62.5104 58.2117 62.529C58.2125 62.5476 58.2336 62.5275 58.2588 62.4843C58.284 62.4411 58.323 62.4172 58.3456 62.4311C58.3682 62.4451 58.3748 62.4256 58.3603 62.3878C58.3274 62.3023 58.3313 62.3014 58.2653 62.4071ZM38.916 63.5935C39.4341 63.6006 40.2819 63.6006 40.8 63.5935C41.3181 63.5864 40.8942 63.5805 39.858 63.5805C38.8218 63.5805 38.3979 63.5864 38.916 63.5935ZM49.6105 64.5644C49.5494 64.5966 49.5294 64.6228 49.5661 64.6228C49.6426 64.6228 49.7734 64.5488 49.7421 64.5232C49.7307 64.5137 49.6714 64.5323 49.6105 64.5644ZM54.7083 67.1905C54.7083 67.2119 54.7582 67.2621 54.8192 67.302C54.8801 67.342 54.93 67.3678 54.93 67.3594C54.93 67.3511 54.8801 67.3009 54.8192 67.2479C54.7582 67.1949 54.7083 67.169 54.7083 67.1905ZM49.1228 68.6296C49.1228 68.6754 49.3458 68.8933 49.3689 68.8701C49.3793 68.8597 49.3283 68.794 49.2554 68.7242C49.1825 68.6543 49.1228 68.6118 49.1228 68.6296ZM49.712 69.2455C50.0344 69.5577 50.1503 69.6392 49.9 69.3778C49.7544 69.2257 49.6191 69.1014 49.5993 69.1014C49.5794 69.1014 49.6301 69.1662 49.712 69.2455ZM53.3019 69.2787C53.3019 69.3884 53.3105 69.4333 53.3211 69.3785C53.3317 69.3236 53.3317 69.2338 53.3211 69.179C53.3105 69.1241 53.3019 69.169 53.3019 69.2787ZM52.0932 70.8521C51.7285 71.2188 51.7209 71.2307 51.8037 71.3065C51.8849 71.381 51.886 71.3809 51.828 71.3042C51.7734 71.232 51.804 71.1874 52.1398 70.8499C52.3446 70.6441 52.5021 70.4756 52.4899 70.4756C52.4777 70.4756 52.2993 70.6451 52.0932 70.8521ZM52.7361 72.2465C52.9562 72.5 52.9829 72.5261 53.0029 72.5062C53.0134 72.4957 52.9279 72.3985 52.8127 72.2904C52.6605 72.1472 52.6396 72.1352 52.7361 72.2465ZM50.0968 72.8583L49.8099 73.1575L50.1092 72.8707C50.3871 72.6042 50.4287 72.5591 50.396 72.5591C50.3892 72.5591 50.2546 72.6937 50.0968 72.8583ZM53.3019 73.1797C53.3019 73.2894 53.3105 73.3343 53.3211 73.2794C53.3317 73.2246 53.3317 73.1348 53.3211 73.08C53.3105 73.0251 53.3019 73.07 53.3019 73.1797ZM49.2657 73.6516C49.1857 73.7334 49.1371 73.8003 49.1576 73.8003C49.2045 73.8003 49.4555 73.541 49.4299 73.5191C49.4195 73.5102 49.3456 73.5698 49.2657 73.6516ZM43.4058 74.4183C43.3722 74.481 43.3747 74.5128 43.4153 74.5362C43.4459 74.5537 43.4559 74.5516 43.4375 74.5314C43.4192 74.5111 43.4373 74.4581 43.4776 74.4134C43.519 74.3677 43.5293 74.3323 43.5014 74.3323C43.4742 74.3323 43.431 74.371 43.4058 74.4183Z" fill="white"/>
</g>
</g>
</svg>
