<svg width="364" height="114" viewBox="0 0 364 114" fill="none" xmlns="http://www.w3.org/2000/svg">
<path d="M24.552 83.3294L26.088 66.8174H70.504L71.912 83.3294H24.552ZM47.976 43.9054L35.432 72.8334L36.456 77.5694L25.32 100.609H0.872L47.976 5.37737L95.208 100.609H70.632L59.88 78.4654L60.648 72.9614L47.976 43.9054ZM121.877 0.769371V100.609H102.549V0.769371H121.877ZM170.005 71.1694C170.005 77.74 168.64 83.3294 165.909 87.9374C163.264 92.46 159.808 95.916 155.541 98.3054C151.36 100.695 146.837 101.889 141.973 101.889C137.109 101.889 132.757 100.652 128.917 98.1774C125.077 95.7027 122.048 92.1614 119.829 87.5534C117.61 82.9454 116.501 77.484 116.501 71.1694C116.501 64.7694 117.61 59.308 119.829 54.7854C122.048 50.1774 125.077 46.636 128.917 44.1614C132.757 41.6867 137.109 40.4494 141.973 40.4494C146.837 40.4494 151.36 41.644 155.541 44.0334C159.808 46.4227 163.264 49.8787 165.909 54.4014C168.64 58.924 170.005 64.5134 170.005 71.1694ZM149.653 71.1694C149.653 68.0974 149.013 65.452 147.733 63.2334C146.453 60.9294 144.746 59.18 142.613 57.9854C140.48 56.7054 138.133 56.0654 135.573 56.0654C133.354 56.0654 131.178 56.6627 129.045 57.8574C126.997 59.052 125.29 60.8014 123.925 63.1054C122.56 65.324 121.877 68.012 121.877 71.1694C121.877 74.3267 122.56 77.0574 123.925 79.3614C125.29 81.58 126.997 83.2867 129.045 84.4814C131.178 85.676 133.354 86.2734 135.573 86.2734C138.133 86.2734 140.48 85.676 142.613 84.4814C144.746 83.2014 146.453 81.452 147.733 79.2334C149.013 76.9294 149.653 74.2414 149.653 71.1694ZM178.221 71.1694C178.221 64.94 179.672 59.5214 182.573 54.9134C185.474 50.3054 189.485 46.7214 194.605 44.1614C199.725 41.6014 205.485 40.3214 211.885 40.3214C218.285 40.3214 224.002 41.6014 229.037 44.1614C234.157 46.7214 238.168 50.3054 241.069 54.9134C244.056 59.5214 245.549 64.94 245.549 71.1694C245.549 77.3134 244.056 82.6894 241.069 87.2974C238.168 91.9054 234.157 95.4894 229.037 98.0494C224.002 100.609 218.285 101.889 211.885 101.889C205.485 101.889 199.725 100.609 194.605 98.0494C189.485 95.4894 185.474 91.9054 182.573 87.2974C179.672 82.6894 178.221 77.3134 178.221 71.1694ZM198.061 71.1694C198.061 74.2414 198.701 76.8867 199.981 79.1054C201.261 81.2387 202.925 82.9027 204.973 84.0974C207.021 85.292 209.325 85.8894 211.885 85.8894C214.36 85.8894 216.621 85.292 218.669 84.0974C220.802 82.9027 222.466 81.2387 223.661 79.1054C224.941 76.8867 225.581 74.2414 225.581 71.1694C225.581 68.0974 224.941 65.452 223.661 63.2334C222.466 61.0147 220.802 59.308 218.669 58.1134C216.621 56.9187 214.36 56.3214 211.885 56.3214C209.325 56.3214 207.021 56.9187 204.973 58.1134C202.925 59.308 201.261 61.0147 199.981 63.2334C198.701 65.452 198.061 68.0974 198.061 71.1694ZM277.401 77.5694C277.401 80.9827 278.041 83.6707 279.321 85.6334C280.601 87.5107 282.82 88.4494 285.977 88.4494C288.11 88.4494 289.902 88.0227 291.353 87.1694C292.889 86.316 294.084 85.0787 294.937 83.4574C295.79 81.836 296.217 79.8734 296.217 77.5694V41.7294H315.545V100.609H296.217V91.7774C294.425 94.9347 292.078 97.452 289.177 99.3294C286.276 101.121 282.649 102.017 278.297 102.017C270.958 102.017 265.582 100.055 262.169 96.1294C258.841 92.1187 257.177 86.6147 257.177 79.6174V41.7294H277.401V77.5694ZM323.89 41.7294H363.314V57.7294H323.89V41.7294ZM334.258 21.2494H352.818V100.609H334.258V21.2494Z" fill="#F0F0F0"/>
<path d="M122.832 94.1294L123.408 87.9374H140.064L140.592 94.1294H122.832ZM131.616 79.3454L126.912 90.1934L127.296 91.9694L123.12 100.609H113.952L131.616 64.8974L149.328 100.609H140.112L136.08 92.3054L136.368 90.2414L131.616 79.3454ZM159.329 63.1694V100.609H152.081V63.1694H159.329ZM177.377 89.5694C177.377 92.0334 176.865 94.1294 175.841 95.8574C174.849 97.5534 173.553 98.8494 171.953 99.7454C170.385 100.641 168.689 101.089 166.865 101.089C165.041 101.089 163.409 100.625 161.969 99.6974C160.529 98.7694 159.393 97.4414 158.561 95.7134C157.729 93.9854 157.313 91.9374 157.313 89.5694C157.313 87.1694 157.729 85.1214 158.561 83.4254C159.393 81.6974 160.529 80.3694 161.969 79.4414C163.409 78.5134 165.041 78.0494 166.865 78.0494C168.689 78.0494 170.385 78.4974 171.953 79.3934C173.553 80.2894 174.849 81.5854 175.841 83.2814C176.865 84.9774 177.377 87.0734 177.377 89.5694ZM169.745 89.5694C169.745 88.4174 169.505 87.4254 169.025 86.5934C168.545 85.7294 167.905 85.0734 167.105 84.6254C166.305 84.1454 165.425 83.9054 164.465 83.9054C163.633 83.9054 162.817 84.1294 162.017 84.5774C161.249 85.0254 160.609 85.6814 160.097 86.5454C159.585 87.3774 159.329 88.3854 159.329 89.5694C159.329 90.7534 159.585 91.7774 160.097 92.6414C160.609 93.4734 161.249 94.1134 162.017 94.5614C162.817 95.0094 163.633 95.2334 164.465 95.2334C165.425 95.2334 166.305 95.0094 167.105 94.5614C167.905 94.0814 168.545 93.4254 169.025 92.5934C169.505 91.7294 169.745 90.7214 169.745 89.5694ZM180.458 89.5694C180.458 87.2334 181.002 85.2014 182.09 83.4734C183.178 81.7454 184.682 80.4014 186.602 79.4414C188.522 78.4814 190.682 78.0014 193.082 78.0014C195.482 78.0014 197.626 78.4814 199.514 79.4414C201.434 80.4014 202.938 81.7454 204.026 83.4734C205.146 85.2014 205.706 87.2334 205.706 89.5694C205.706 91.8734 205.146 93.8894 204.026 95.6174C202.938 97.3454 201.434 98.6894 199.514 99.6494C197.626 100.609 195.482 101.089 193.082 101.089C190.682 101.089 188.522 100.609 186.602 99.6494C184.682 98.6894 183.178 97.3454 182.09 95.6174C181.002 93.8894 180.458 91.8734 180.458 89.5694ZM187.898 89.5694C187.898 90.7214 188.138 91.7134 188.618 92.5454C189.098 93.3454 189.722 93.9694 190.49 94.4174C191.258 94.8654 192.122 95.0894 193.082 95.0894C194.01 95.0894 194.858 94.8654 195.626 94.4174C196.426 93.9694 197.05 93.3454 197.498 92.5454C197.978 91.7134 198.218 90.7214 198.218 89.5694C198.218 88.4174 197.978 87.4254 197.498 86.5934C197.05 85.7614 196.426 85.1214 195.626 84.6734C194.858 84.2254 194.01 84.0014 193.082 84.0014C192.122 84.0014 191.258 84.2254 190.49 84.6734C189.722 85.1214 189.098 85.7614 188.618 86.5934C188.138 87.4254 187.898 88.4174 187.898 89.5694ZM217.65 91.9694C217.65 93.2494 217.89 94.2574 218.37 94.9934C218.85 95.6974 219.682 96.0494 220.866 96.0494C221.666 96.0494 222.338 95.8894 222.882 95.5694C223.458 95.2494 223.906 94.7854 224.226 94.1774C224.546 93.5694 224.706 92.8334 224.706 91.9694V78.5294H231.954V100.609H224.706V97.2974C224.034 98.4814 223.154 99.4254 222.066 100.129C220.978 100.801 219.618 101.137 217.986 101.137C215.234 101.137 213.218 100.401 211.938 98.9294C210.69 97.4254 210.066 95.3614 210.066 92.7374V78.5294H217.65V91.9694ZM235.084 78.5294H249.868V84.5294H235.084V78.5294ZM238.972 70.8494H245.932V100.609H238.972V70.8494Z" fill="#143274"/>
</svg>
