<svg width="468" height="105" viewBox="0 0 468 105" fill="none" xmlns="http://www.w3.org/2000/svg">
<path d="M27.904 47.2C27.904 52.6613 29.1413 57.3973 31.616 61.408C34.0907 65.3333 37.3333 68.32 41.344 70.368C45.44 72.416 49.92 73.44 54.784 73.44C59.0507 73.44 62.8053 72.8853 66.048 71.776C69.2907 70.6667 72.192 69.216 74.752 67.424C77.312 65.632 79.5733 63.712 81.536 61.664V84.96C77.952 87.776 74.0267 89.9947 69.76 91.616C65.4933 93.2373 60.0747 94.048 53.504 94.048C46.336 94.048 39.7227 92.9387 33.664 90.72C27.6053 88.5013 22.4 85.3013 18.048 81.12C13.696 76.9387 10.3253 71.9893 7.936 66.272C5.54667 60.5547 4.352 54.1973 4.352 47.2C4.352 40.2027 5.54667 33.8453 7.936 28.128C10.3253 22.4107 13.696 17.4613 18.048 13.28C22.4 9.09866 27.6053 5.89866 33.664 3.67999C39.7227 1.46133 46.336 0.351997 53.504 0.351997C60.0747 0.351997 65.4933 1.16266 69.76 2.784C74.0267 4.40533 77.952 6.624 81.536 9.43999V32.736C79.5733 30.688 77.312 28.768 74.752 26.976C72.192 25.0987 69.2907 23.648 66.048 22.624C62.8053 21.5147 59.0507 20.96 54.784 20.96C49.92 20.96 45.44 21.984 41.344 24.032C37.3333 26.08 34.0907 29.0667 31.616 32.992C29.1413 36.9173 27.904 41.6533 27.904 47.2ZM112.278 73.568C112.278 75.104 112.662 76.4267 113.43 77.536C114.198 78.56 115.222 79.3707 116.502 79.968C117.782 80.48 119.19 80.736 120.726 80.736C122.945 80.736 124.993 80.2667 126.87 79.328C128.747 78.3893 130.283 76.9813 131.478 75.104C132.673 73.2267 133.27 70.9227 133.27 68.192L135.318 75.872C135.318 79.6267 134.294 82.8267 132.246 85.472C130.198 88.032 127.553 89.9947 124.31 91.36C121.067 92.64 117.569 93.28 113.814 93.28C110.059 93.28 106.561 92.5973 103.318 91.232C100.161 89.7813 97.6007 87.648 95.638 84.832C93.7607 82.016 92.822 78.6027 92.822 74.592C92.822 68.96 94.8273 64.5227 98.838 61.28C102.849 57.952 108.523 56.288 115.862 56.288C119.446 56.288 122.646 56.6293 125.462 57.312C128.363 57.9947 130.838 58.848 132.886 59.872C134.934 60.896 136.47 61.9627 137.494 63.072V71.648C135.446 70.112 133.057 68.96 130.326 68.192C127.681 67.3387 124.865 66.912 121.878 66.912C119.574 66.912 117.739 67.168 116.374 67.68C115.009 68.192 113.985 68.96 113.302 69.984C112.619 70.9227 112.278 72.1173 112.278 73.568ZM103.702 51.168L97.174 38.24C100.502 36.6187 104.513 35.0827 109.206 33.632C113.899 32.1813 119.019 31.456 124.566 31.456C129.771 31.456 134.422 32.224 138.518 33.76C142.614 35.2107 145.857 37.344 148.246 40.16C150.635 42.976 151.83 46.432 151.83 50.528V92H133.27V54.88C133.27 53.4293 133.014 52.192 132.502 51.168C132.075 50.0587 131.393 49.12 130.454 48.352C129.515 47.584 128.321 47.0293 126.87 46.688C125.505 46.3467 123.926 46.176 122.134 46.176C119.489 46.176 116.886 46.4747 114.326 47.072C111.851 47.6693 109.675 48.3947 107.798 49.248C105.921 50.016 104.555 50.656 103.702 51.168ZM185.374 33.12V92H166.302V33.12H185.374ZM202.398 53.088C201.374 52.064 200.265 51.2533 199.07 50.656C197.961 50.0587 196.553 49.76 194.846 49.76C192.969 49.76 191.305 50.272 189.854 51.296C188.403 52.32 187.294 53.8133 186.526 55.776C185.758 57.7387 185.374 60.128 185.374 62.944L180.766 56.16C180.766 51.4667 181.662 47.2853 183.454 43.616C185.331 39.9467 187.763 37.0453 190.75 34.912C193.737 32.7787 196.851 31.712 200.094 31.712C202.227 31.712 204.275 32.1387 206.238 32.992C208.201 33.8453 209.694 35.04 210.718 36.576L202.398 53.088ZM247.004 93.28C240.177 93.28 234.247 92.0427 229.212 89.568C224.263 87.008 220.423 83.424 217.692 78.816C214.961 74.208 213.596 68.7893 213.596 62.56C213.596 56.2453 214.919 50.784 217.564 46.176C220.209 41.568 224.007 38.0267 228.956 35.552C233.991 33.0773 239.921 31.84 246.748 31.84C253.575 31.84 259.335 33.0347 264.028 35.424C268.721 37.728 272.305 41.0987 274.78 45.536C277.255 49.9733 278.492 55.3493 278.492 61.664C278.492 62.6027 278.492 63.5413 278.492 64.48C278.492 65.3333 278.407 66.0587 278.236 66.656H224.476V55.904H260.828L256.22 61.792C256.647 61.1947 256.988 60.4693 257.244 59.616C257.585 58.6773 257.756 57.9093 257.756 57.312C257.756 54.752 257.287 52.5333 256.348 50.656C255.409 48.7787 254.087 47.328 252.38 46.304C250.673 45.28 248.668 44.768 246.364 44.768C243.463 44.768 241.031 45.408 239.068 46.688C237.105 47.968 235.612 49.9307 234.588 52.576C233.649 55.136 233.137 58.3787 233.052 62.304C233.052 65.888 233.564 68.96 234.588 71.52C235.612 74.08 237.148 76.0427 239.196 77.408C241.244 78.688 243.761 79.328 246.748 79.328C250.161 79.328 253.063 78.688 255.452 77.408C257.927 76.128 259.889 74.208 261.34 71.648L278.62 75.872C275.548 81.6747 271.367 86.0267 266.076 88.928C260.871 91.8293 254.513 93.28 247.004 93.28ZM320.379 93.28C313.552 93.28 307.622 92.0427 302.587 89.568C297.638 87.008 293.798 83.424 291.067 78.816C288.336 74.208 286.971 68.7893 286.971 62.56C286.971 56.2453 288.294 50.784 290.939 46.176C293.584 41.568 297.382 38.0267 302.331 35.552C307.366 33.0773 313.296 31.84 320.123 31.84C326.95 31.84 332.71 33.0347 337.403 35.424C342.096 37.728 345.68 41.0987 348.155 45.536C350.63 49.9733 351.867 55.3493 351.867 61.664C351.867 62.6027 351.867 63.5413 351.867 64.48C351.867 65.3333 351.782 66.0587 351.611 66.656H297.851V55.904H334.203L329.595 61.792C330.022 61.1947 330.363 60.4693 330.619 59.616C330.96 58.6773 331.131 57.9093 331.131 57.312C331.131 54.752 330.662 52.5333 329.723 50.656C328.784 48.7787 327.462 47.328 325.755 46.304C324.048 45.28 322.043 44.768 319.739 44.768C316.838 44.768 314.406 45.408 312.443 46.688C310.48 47.968 308.987 49.9307 307.963 52.576C307.024 55.136 306.512 58.3787 306.427 62.304C306.427 65.888 306.939 68.96 307.963 71.52C308.987 74.08 310.523 76.0427 312.571 77.408C314.619 78.688 317.136 79.328 320.123 79.328C323.536 79.328 326.438 78.688 328.827 77.408C331.302 76.128 333.264 74.208 334.715 71.648L351.995 75.872C348.923 81.6747 344.742 86.0267 339.451 88.928C334.246 91.8293 327.888 93.28 320.379 93.28ZM382.874 33.12V92H363.802V33.12H382.874ZM399.898 53.088C398.874 52.064 397.765 51.2533 396.57 50.656C395.461 50.0587 394.053 49.76 392.346 49.76C390.469 49.76 388.805 50.272 387.354 51.296C385.903 52.32 384.794 53.8133 384.026 55.776C383.258 57.7387 382.874 60.128 382.874 62.944L378.266 56.16C378.266 51.4667 379.162 47.2853 380.954 43.616C382.831 39.9467 385.263 37.0453 388.25 34.912C391.237 32.7787 394.351 31.712 397.594 31.712C399.727 31.712 401.775 32.1387 403.738 32.992C405.701 33.8453 407.194 35.04 408.218 36.576L399.898 53.088ZM419.627 70.624C422.614 73.0987 425.302 75.0613 427.691 76.512C430.166 77.8773 432.342 78.8587 434.219 79.456C436.096 79.968 437.718 80.224 439.083 80.224C441.046 80.224 442.496 79.7973 443.435 78.944C444.374 78.0907 444.843 76.9813 444.843 75.616C444.843 74.336 444.459 73.2693 443.691 72.416C442.923 71.4773 441.6 70.5813 439.723 69.728C437.931 68.8747 435.456 67.9787 432.299 67.04C429.483 66.016 426.795 64.8213 424.235 63.456C421.76 62.0053 419.712 60.0853 418.091 57.696C416.47 55.3067 415.659 52.2347 415.659 48.48C415.659 44.896 416.598 41.8667 418.475 39.392C420.438 36.9173 423.04 35.04 426.283 33.76C429.611 32.48 433.408 31.84 437.675 31.84C441.088 31.84 444.246 32.224 447.147 32.992C450.134 33.76 452.907 34.784 455.467 36.064C458.112 37.344 460.587 38.8373 462.891 40.544L455.979 53.088C453.504 50.784 450.688 48.9067 447.531 47.456C444.374 45.92 441.472 45.152 438.827 45.152C437.035 45.152 435.67 45.4933 434.731 46.176C433.878 46.8587 433.451 47.7547 433.451 48.864C433.451 50.144 433.963 51.2107 434.987 52.064C436.096 52.9173 437.632 53.728 439.595 54.496C441.643 55.1787 444.118 56.0747 447.019 57.184C450.091 58.2933 452.907 59.5733 455.467 61.024C458.112 62.4747 460.203 64.3093 461.739 66.528C463.36 68.7467 464.171 71.6907 464.171 75.36C464.171 81.6747 462.208 86.4533 458.283 89.696C454.443 92.8533 449.024 94.432 442.027 94.432C437.76 94.432 433.792 93.92 430.123 92.896C426.539 91.9573 423.211 90.6773 420.139 89.056C417.067 87.3493 414.208 85.472 411.563 83.424L419.627 70.624Z" fill="#F0F0F0"/>
<path d="M156.464 75.2C156.464 77.248 156.928 79.024 157.856 80.528C158.784 82 160 83.12 161.504 83.888C163.04 84.656 164.72 85.04 166.544 85.04C168.144 85.04 169.552 84.832 170.768 84.416C171.984 84 173.072 83.456 174.032 82.784C174.992 82.112 175.84 81.392 176.576 80.624V89.36C175.232 90.416 173.76 91.248 172.16 91.856C170.56 92.464 168.528 92.768 166.064 92.768C163.376 92.768 160.896 92.352 158.624 91.52C156.352 90.688 154.4 89.488 152.768 87.92C151.136 86.352 149.872 84.496 148.976 82.352C148.08 80.208 147.632 77.824 147.632 75.2C147.632 72.576 148.08 70.192 148.976 68.048C149.872 65.904 151.136 64.048 152.768 62.48C154.4 60.912 156.352 59.712 158.624 58.88C160.896 58.048 163.376 57.632 166.064 57.632C168.528 57.632 170.56 57.936 172.16 58.544C173.76 59.152 175.232 59.984 176.576 61.04V69.776C175.84 69.008 174.992 68.288 174.032 67.616C173.072 66.912 171.984 66.368 170.768 65.984C169.552 65.568 168.144 65.36 166.544 65.36C164.72 65.36 163.04 65.744 161.504 66.512C160 67.28 158.784 68.4 157.856 69.872C156.928 71.344 156.464 73.12 156.464 75.2ZM188.104 85.088C188.104 85.664 188.248 86.16 188.536 86.576C188.824 86.96 189.208 87.264 189.688 87.488C190.168 87.68 190.696 87.776 191.272 87.776C192.104 87.776 192.872 87.6 193.576 87.248C194.28 86.896 194.856 86.368 195.304 85.664C195.752 84.96 195.976 84.096 195.976 83.072L196.744 85.952C196.744 87.36 196.36 88.56 195.592 89.552C194.824 90.512 193.832 91.248 192.616 91.76C191.4 92.24 190.088 92.48 188.68 92.48C187.272 92.48 185.96 92.224 184.744 91.712C183.56 91.168 182.6 90.368 181.864 89.312C181.16 88.256 180.808 86.976 180.808 85.472C180.808 83.36 181.56 81.696 183.064 80.48C184.568 79.232 186.696 78.608 189.448 78.608C190.792 78.608 191.992 78.736 193.048 78.992C194.136 79.248 195.064 79.568 195.832 79.952C196.6 80.336 197.176 80.736 197.56 81.152V84.368C196.792 83.792 195.896 83.36 194.872 83.072C193.88 82.752 192.824 82.592 191.704 82.592C190.84 82.592 190.152 82.688 189.64 82.88C189.128 83.072 188.744 83.36 188.488 83.744C188.232 84.096 188.104 84.544 188.104 85.088ZM184.888 76.688L182.44 71.84C183.688 71.232 185.192 70.656 186.952 70.112C188.712 69.568 190.632 69.296 192.712 69.296C194.664 69.296 196.408 69.584 197.944 70.16C199.48 70.704 200.696 71.504 201.592 72.56C202.488 73.616 202.936 74.912 202.936 76.448V92H195.976V78.08C195.976 77.536 195.88 77.072 195.688 76.688C195.528 76.272 195.272 75.92 194.92 75.632C194.568 75.344 194.12 75.136 193.576 75.008C193.064 74.88 192.472 74.816 191.8 74.816C190.808 74.816 189.832 74.928 188.872 75.152C187.944 75.376 187.128 75.648 186.424 75.968C185.72 76.256 185.208 76.496 184.888 76.688ZM215.515 69.92V92H208.363V69.92H215.515ZM221.899 77.408C221.515 77.024 221.099 76.72 220.651 76.496C220.235 76.272 219.707 76.16 219.067 76.16C218.363 76.16 217.739 76.352 217.195 76.736C216.651 77.12 216.235 77.68 215.947 78.416C215.659 79.152 215.515 80.048 215.515 81.104L213.787 78.56C213.787 76.8 214.123 75.232 214.795 73.856C215.499 72.48 216.411 71.392 217.531 70.592C218.651 69.792 219.819 69.392 221.035 69.392C221.835 69.392 222.603 69.552 223.339 69.872C224.075 70.192 224.635 70.64 225.019 71.216L221.899 77.408ZM238.627 92.48C236.067 92.48 233.843 92.016 231.955 91.088C230.099 90.128 228.659 88.784 227.635 87.056C226.611 85.328 226.099 83.296 226.099 80.96C226.099 78.592 226.595 76.544 227.587 74.816C228.579 73.088 230.003 71.76 231.859 70.832C233.747 69.904 235.971 69.44 238.531 69.44C241.091 69.44 243.251 69.888 245.011 70.784C246.771 71.648 248.115 72.912 249.043 74.576C249.971 76.24 250.435 78.256 250.435 80.624C250.435 80.976 250.435 81.328 250.435 81.68C250.435 82 250.403 82.272 250.339 82.496H230.179V78.464H243.811L242.083 80.672C242.243 80.448 242.371 80.176 242.467 79.856C242.595 79.504 242.659 79.216 242.659 78.992C242.659 78.032 242.483 77.2 242.131 76.496C241.779 75.792 241.283 75.248 240.643 74.864C240.003 74.48 239.251 74.288 238.387 74.288C237.299 74.288 236.387 74.528 235.651 75.008C234.915 75.488 234.355 76.224 233.971 77.216C233.619 78.176 233.427 79.392 233.395 80.864C233.395 82.208 233.587 83.36 233.971 84.32C234.355 85.28 234.931 86.016 235.699 86.528C236.467 87.008 237.411 87.248 238.531 87.248C239.811 87.248 240.899 87.008 241.795 86.528C242.723 86.048 243.459 85.328 244.003 84.368L250.483 85.952C249.331 88.128 247.763 89.76 245.779 90.848C243.827 91.936 241.443 92.48 238.627 92.48ZM266.142 92.48C263.582 92.48 261.358 92.016 259.47 91.088C257.614 90.128 256.174 88.784 255.15 87.056C254.126 85.328 253.614 83.296 253.614 80.96C253.614 78.592 254.11 76.544 255.102 74.816C256.094 73.088 257.518 71.76 259.374 70.832C261.262 69.904 263.486 69.44 266.046 69.44C268.606 69.44 270.766 69.888 272.526 70.784C274.286 71.648 275.63 72.912 276.558 74.576C277.486 76.24 277.95 78.256 277.95 80.624C277.95 80.976 277.95 81.328 277.95 81.68C277.95 82 277.918 82.272 277.854 82.496H257.694V78.464H271.326L269.598 80.672C269.758 80.448 269.886 80.176 269.982 79.856C270.11 79.504 270.174 79.216 270.174 78.992C270.174 78.032 269.998 77.2 269.646 76.496C269.294 75.792 268.798 75.248 268.158 74.864C267.518 74.48 266.766 74.288 265.902 74.288C264.814 74.288 263.902 74.528 263.166 75.008C262.43 75.488 261.87 76.224 261.486 77.216C261.134 78.176 260.942 79.392 260.91 80.864C260.91 82.208 261.102 83.36 261.486 84.32C261.87 85.28 262.446 86.016 263.214 86.528C263.982 87.008 264.926 87.248 266.046 87.248C267.326 87.248 268.414 87.008 269.31 86.528C270.238 86.048 270.974 85.328 271.518 84.368L277.998 85.952C276.846 88.128 275.278 89.76 273.294 90.848C271.342 91.936 268.958 92.48 266.142 92.48ZM289.578 69.92V92H282.426V69.92H289.578ZM295.962 77.408C295.578 77.024 295.162 76.72 294.714 76.496C294.298 76.272 293.77 76.16 293.13 76.16C292.426 76.16 291.802 76.352 291.258 76.736C290.714 77.12 290.298 77.68 290.01 78.416C289.722 79.152 289.578 80.048 289.578 81.104L287.85 78.56C287.85 76.8 288.186 75.232 288.858 73.856C289.562 72.48 290.474 71.392 291.594 70.592C292.714 69.792 293.882 69.392 295.098 69.392C295.898 69.392 296.666 69.552 297.402 69.872C298.138 70.192 298.698 70.64 299.082 71.216L295.962 77.408ZM303.36 83.984C304.48 84.912 305.488 85.648 306.384 86.192C307.312 86.704 308.128 87.072 308.832 87.296C309.536 87.488 310.144 87.584 310.656 87.584C311.392 87.584 311.936 87.424 312.288 87.104C312.64 86.784 312.816 86.368 312.816 85.856C312.816 85.376 312.672 84.976 312.384 84.656C312.096 84.304 311.6 83.968 310.896 83.648C310.224 83.328 309.296 82.992 308.112 82.64C307.056 82.256 306.048 81.808 305.088 81.296C304.16 80.752 303.392 80.032 302.784 79.136C302.176 78.24 301.872 77.088 301.872 75.68C301.872 74.336 302.224 73.2 302.928 72.272C303.664 71.344 304.64 70.64 305.856 70.16C307.104 69.68 308.528 69.44 310.128 69.44C311.408 69.44 312.592 69.584 313.68 69.872C314.8 70.16 315.84 70.544 316.8 71.024C317.792 71.504 318.72 72.064 319.584 72.704L316.992 77.408C316.064 76.544 315.008 75.84 313.824 75.296C312.64 74.72 311.552 74.432 310.56 74.432C309.888 74.432 309.376 74.56 309.024 74.816C308.704 75.072 308.544 75.408 308.544 75.824C308.544 76.304 308.736 76.704 309.12 77.024C309.536 77.344 310.112 77.648 310.848 77.936C311.616 78.192 312.544 78.528 313.632 78.944C314.784 79.36 315.84 79.84 316.8 80.384C317.792 80.928 318.576 81.616 319.152 82.448C319.76 83.28 320.064 84.384 320.064 85.76C320.064 88.128 319.328 89.92 317.856 91.136C316.416 92.32 314.384 92.912 311.76 92.912C310.16 92.912 308.672 92.72 307.296 92.336C305.952 91.984 304.704 91.504 303.552 90.896C302.4 90.256 301.328 89.552 300.336 88.784L303.36 83.984Z" fill="#143274"/>
</svg>
