<svg width="620" height="74" viewBox="0 0 620 74" fill="none" xmlns="http://www.w3.org/2000/svg">
<path d="M2.612 29.472C2.612 25.0347 3.572 21.088 5.492 17.632C7.412 14.1333 10.0787 11.424 13.492 9.504C16.948 7.54133 20.852 6.56 25.204 6.56C30.5373 6.56 35.1027 7.968 38.9 10.784C42.6973 13.6 45.236 17.44 46.516 22.304H34.484C33.588 20.4267 32.308 18.9973 30.644 18.016C29.0227 17.0347 27.1667 16.544 25.076 16.544C21.7053 16.544 18.9747 17.7173 16.884 20.064C14.7933 22.4107 13.748 25.5467 13.748 29.472C13.748 33.3973 14.7933 36.5333 16.884 38.88C18.9747 41.2267 21.7053 42.4 25.076 42.4C27.1667 42.4 29.0227 41.9093 30.644 40.928C32.308 39.9467 33.588 38.5173 34.484 36.64H46.516C45.236 41.504 42.6973 45.344 38.9 48.16C35.1027 50.9333 30.5373 52.32 25.204 52.32C20.852 52.32 16.948 51.36 13.492 49.44C10.0787 47.4773 7.412 44.768 5.492 41.312C3.572 37.856 2.612 33.9093 2.612 29.472ZM69.474 52.512C65.9753 52.512 62.818 51.7653 60.002 50.272C57.2287 48.7787 55.0313 46.6453 53.41 43.872C51.8313 41.0987 51.042 37.856 51.042 34.144C51.042 30.4747 51.8527 27.2533 53.474 24.48C55.0953 21.664 57.314 19.5093 60.13 18.016C62.946 16.5227 66.1033 15.776 69.602 15.776C73.1007 15.776 76.258 16.5227 79.074 18.016C81.89 19.5093 84.1087 21.664 85.73 24.48C87.3513 27.2533 88.162 30.4747 88.162 34.144C88.162 37.8133 87.33 41.056 85.666 43.872C84.0447 46.6453 81.8047 48.7787 78.946 50.272C76.13 51.7653 72.9727 52.512 69.474 52.512ZM69.474 43.04C71.5647 43.04 73.3353 42.272 74.786 40.736C76.2793 39.2 77.026 37.0027 77.026 34.144C77.026 31.2853 76.3007 29.088 74.85 27.552C73.442 26.016 71.6927 25.248 69.602 25.248C67.4687 25.248 65.698 26.016 64.29 27.552C62.882 29.0453 62.178 31.2427 62.178 34.144C62.178 37.0027 62.8607 39.2 64.226 40.736C65.634 42.272 67.3833 43.04 69.474 43.04ZM115.728 15.904C119.909 15.904 123.237 17.2693 125.712 20C128.229 22.688 129.488 26.4 129.488 31.136V52H118.608V32.608C118.608 30.2187 117.989 28.3627 116.752 27.04C115.515 25.7173 113.851 25.056 111.76 25.056C109.669 25.056 108.005 25.7173 106.768 27.04C105.531 28.3627 104.912 30.2187 104.912 32.608V52H93.968V16.288H104.912V21.024C106.021 19.4453 107.515 18.208 109.392 17.312C111.269 16.3733 113.381 15.904 115.728 15.904ZM151.621 52.512C148.506 52.512 145.733 51.9787 143.301 50.912C140.869 49.8453 138.949 48.3947 137.541 46.56C136.133 44.6827 135.344 42.592 135.173 40.288H145.989C146.117 41.5253 146.693 42.528 147.717 43.296C148.741 44.064 150 44.448 151.493 44.448C152.858 44.448 153.904 44.192 154.629 43.68C155.397 43.1253 155.781 42.4213 155.781 41.568C155.781 40.544 155.248 39.7973 154.181 39.328C153.114 38.816 151.386 38.2613 148.997 37.664C146.437 37.0667 144.304 36.448 142.597 35.808C140.89 35.1253 139.418 34.08 138.181 32.672C136.944 31.2213 136.325 29.28 136.325 26.848C136.325 24.8 136.88 22.944 137.989 21.28C139.141 19.5733 140.805 18.2293 142.981 17.248C145.2 16.2667 147.824 15.776 150.853 15.776C155.333 15.776 158.853 16.8853 161.413 19.104C164.016 21.3227 165.509 24.2667 165.893 27.936H155.781C155.61 26.6987 155.056 25.7173 154.117 24.992C153.221 24.2667 152.026 23.904 150.533 23.904C149.253 23.904 148.272 24.16 147.589 24.672C146.906 25.1413 146.565 25.8027 146.565 26.656C146.565 27.68 147.098 28.448 148.165 28.96C149.274 29.472 150.981 29.984 153.285 30.496C155.93 31.1787 158.085 31.8613 159.749 32.544C161.413 33.184 162.864 34.2507 164.101 35.744C165.381 37.1947 166.042 39.1573 166.085 41.632C166.085 43.7227 165.488 45.6 164.293 47.264C163.141 48.8853 161.456 50.1653 159.237 51.104C157.061 52.0427 154.522 52.512 151.621 52.512ZM208.045 16.288V52H197.101V47.136C195.991 48.7147 194.477 49.9947 192.557 50.976C190.679 51.9147 188.589 52.384 186.285 52.384C183.554 52.384 181.143 51.7867 179.053 50.592C176.962 49.3547 175.341 47.584 174.189 45.28C173.037 42.976 172.461 40.2667 172.461 37.152V16.288H183.341V35.68C183.341 38.0693 183.959 39.9253 185.197 41.248C186.434 42.5707 188.098 43.232 190.189 43.232C192.322 43.232 194.007 42.5707 195.245 41.248C196.482 39.9253 197.101 38.0693 197.101 35.68V16.288H208.045ZM226.85 4.64V52H215.906V4.64H226.85ZM254.685 42.72V52H249.117C245.149 52 242.055 51.04 239.837 49.12C237.618 47.1573 236.509 43.9787 236.509 39.584V25.376H232.157V16.288H236.509V7.584H247.453V16.288H254.621V25.376H247.453V39.712C247.453 40.7787 247.709 41.5467 248.221 42.016C248.733 42.4853 249.586 42.72 250.781 42.72H254.685ZM266.285 12.576C264.365 12.576 262.786 12.0213 261.549 10.912C260.354 9.76 259.757 8.352 259.757 6.688C259.757 4.98133 260.354 3.57333 261.549 2.464C262.786 1.312 264.365 0.735996 266.285 0.735996C268.162 0.735996 269.698 1.312 270.893 2.464C272.13 3.57333 272.749 4.98133 272.749 6.688C272.749 8.352 272.13 9.76 270.893 10.912C269.698 12.0213 268.162 12.576 266.285 12.576ZM271.725 16.288V52H260.781V16.288H271.725ZM301.416 15.904C305.597 15.904 308.925 17.2693 311.4 20C313.917 22.688 315.176 26.4 315.176 31.136V52H304.296V32.608C304.296 30.2187 303.677 28.3627 302.44 27.04C301.202 25.7173 299.538 25.056 297.448 25.056C295.357 25.056 293.693 25.7173 292.456 27.04C291.218 28.3627 290.6 30.2187 290.6 32.608V52H279.656V16.288H290.6V21.024C291.709 19.4453 293.202 18.208 295.08 17.312C296.957 16.3733 299.069 15.904 301.416 15.904ZM336.349 15.776C338.866 15.776 341.063 16.288 342.941 17.312C344.861 18.336 346.333 19.68 347.357 21.344V16.288H358.301V51.936C358.301 55.2213 357.639 58.1867 356.317 60.832C355.037 63.52 353.053 65.6533 350.365 67.232C347.719 68.8107 344.413 69.6 340.445 69.6C335.154 69.6 330.866 68.3413 327.581 65.824C324.295 63.3493 322.418 59.9787 321.949 55.712H332.765C333.106 57.0773 333.917 58.144 335.197 58.912C336.477 59.7227 338.055 60.128 339.933 60.128C342.194 60.128 343.986 59.4667 345.309 58.144C346.674 56.864 347.357 54.7947 347.357 51.936V46.88C346.29 48.544 344.818 49.9093 342.941 50.976C341.063 52 338.866 52.512 336.349 52.512C333.405 52.512 330.738 51.7653 328.349 50.272C325.959 48.736 324.061 46.5813 322.653 43.808C321.287 40.992 320.605 37.7493 320.605 34.08C320.605 30.4107 321.287 27.1893 322.653 24.416C324.061 21.6427 325.959 19.5093 328.349 18.016C330.738 16.5227 333.405 15.776 336.349 15.776ZM347.357 34.144C347.357 31.4133 346.589 29.2587 345.053 27.68C343.559 26.1013 341.725 25.312 339.549 25.312C337.373 25.312 335.517 26.1013 333.981 27.68C332.487 29.216 331.741 31.3493 331.741 34.08C331.741 36.8107 332.487 38.9867 333.981 40.608C335.517 42.1867 337.373 42.976 339.549 42.976C341.725 42.976 343.559 42.1867 345.053 40.608C346.589 39.0293 347.357 36.8747 347.357 34.144ZM396.037 52.448C392.751 52.448 389.807 51.9147 387.205 50.848C384.602 49.7813 382.511 48.2027 380.933 46.112C379.397 44.0213 378.586 41.504 378.501 38.56H390.149C390.319 40.224 390.895 41.504 391.877 42.4C392.858 43.2533 394.138 43.68 395.717 43.68C397.338 43.68 398.618 43.3173 399.557 42.592C400.495 41.824 400.965 40.7787 400.965 39.456C400.965 38.3467 400.581 37.4293 399.813 36.704C399.087 35.9787 398.17 35.3813 397.061 34.912C395.994 34.4427 394.458 33.9093 392.453 33.312C389.551 32.416 387.183 31.52 385.349 30.624C383.514 29.728 381.935 28.4053 380.613 26.656C379.29 24.9067 378.629 22.624 378.629 19.808C378.629 15.6267 380.143 12.3627 383.173 10.016C386.202 7.62667 390.149 6.432 395.013 6.432C399.962 6.432 403.951 7.62667 406.981 10.016C410.01 12.3627 411.631 15.648 411.845 19.872H400.005C399.919 18.4213 399.386 17.2907 398.405 16.48C397.423 15.6267 396.165 15.2 394.628 15.2C393.306 15.2 392.239 15.5627 391.429 16.288C390.618 16.9707 390.213 17.9733 390.213 19.296C390.213 20.7467 390.895 21.8773 392.26 22.688C393.626 23.4987 395.759 24.3733 398.661 25.312C401.562 26.2933 403.909 27.232 405.701 28.128C407.535 29.024 409.114 30.3253 410.437 32.032C411.759 33.7387 412.421 35.936 412.421 38.624C412.421 41.184 411.759 43.5093 410.437 45.6C409.157 47.6907 407.279 49.3547 404.805 50.592C402.33 51.8293 399.407 52.448 396.037 52.448ZM452.819 33.568C452.819 34.592 452.756 35.6587 452.628 36.768H427.86C428.03 38.9867 428.734 40.6933 429.972 41.888C431.252 43.04 432.809 43.616 434.644 43.616C437.374 43.616 439.273 42.464 440.34 40.16H451.988C451.39 42.5067 450.302 44.6187 448.724 46.496C447.188 48.3733 445.246 49.8453 442.9 50.912C440.553 51.9787 437.929 52.512 435.028 52.512C431.529 52.512 428.414 51.7653 425.684 50.272C422.953 48.7787 420.82 46.6453 419.284 43.872C417.748 41.0987 416.98 37.856 416.98 34.144C416.98 30.432 417.726 27.1893 419.22 24.416C420.756 21.6427 422.889 19.5093 425.62 18.016C428.35 16.5227 431.486 15.776 435.028 15.776C438.484 15.776 441.556 16.5013 444.244 17.952C446.932 19.4027 449.022 21.472 450.516 24.16C452.052 26.848 452.819 29.984 452.819 33.568ZM441.62 30.688C441.62 28.8107 440.98 27.3173 439.7 26.208C438.42 25.0987 436.82 24.544 434.9 24.544C433.065 24.544 431.508 25.0773 430.228 26.144C428.99 27.2107 428.222 28.7253 427.924 30.688H441.62ZM469.537 22.24C470.817 20.2773 472.417 18.7413 474.337 17.632C476.257 16.48 478.39 15.904 480.737 15.904V27.488H477.729C474.998 27.488 472.95 28.0853 471.585 29.28C470.22 30.432 469.537 32.48 469.537 35.424V52H458.593V16.288H469.537V22.24ZM502.032 41.76L509.776 16.288H521.424L508.752 52H495.248L482.576 16.288H494.288L502.032 41.76ZM531.535 12.576C529.615 12.576 528.036 12.0213 526.799 10.912C525.604 9.76 525.007 8.352 525.007 6.688C525.007 4.98133 525.604 3.57333 526.799 2.464C528.036 1.312 529.615 0.735996 531.535 0.735996C533.412 0.735996 534.948 1.312 536.143 2.464C537.38 3.57333 537.999 4.98133 537.999 6.688C537.999 8.352 537.38 9.76 536.143 10.912C534.948 12.0213 533.412 12.576 531.535 12.576ZM536.975 16.288V52H526.031V16.288H536.975ZM542.73 34.144C542.73 30.432 543.476 27.1893 544.97 24.416C546.506 21.6427 548.618 19.5093 551.306 18.016C554.036 16.5227 557.151 15.776 560.65 15.776C565.13 15.776 568.863 16.9493 571.85 19.296C574.879 21.6427 576.863 24.9493 577.802 29.216H566.154C565.172 26.4853 563.274 25.12 560.458 25.12C558.452 25.12 556.852 25.9093 555.658 27.488C554.463 29.024 553.866 31.2427 553.866 34.144C553.866 37.0453 554.463 39.2853 555.658 40.864C556.852 42.4 558.452 43.168 560.458 43.168C563.274 43.168 565.172 41.8027 566.154 39.072H577.802C576.863 43.2533 574.879 46.5387 571.85 48.928C568.82 51.3173 565.087 52.512 560.65 52.512C557.151 52.512 554.036 51.7653 551.306 50.272C548.618 48.7787 546.506 46.6453 544.97 43.872C543.476 41.0987 542.73 37.856 542.73 34.144ZM617.319 33.568C617.319 34.592 617.256 35.6587 617.128 36.768H592.36C592.53 38.9867 593.234 40.6933 594.472 41.888C595.752 43.04 597.309 43.616 599.144 43.616C601.874 43.616 603.773 42.464 604.84 40.16H616.488C615.89 42.5067 614.802 44.6187 613.224 46.496C611.688 48.3733 609.746 49.8453 607.4 50.912C605.053 51.9787 602.429 52.512 599.528 52.512C596.029 52.512 592.914 51.7653 590.184 50.272C587.453 48.7787 585.32 46.6453 583.784 43.872C582.248 41.0987 581.48 37.856 581.48 34.144C581.48 30.432 582.226 27.1893 583.72 24.416C585.256 21.6427 587.389 19.5093 590.12 18.016C592.85 16.5227 595.986 15.776 599.528 15.776C602.984 15.776 606.056 16.5013 608.744 17.952C611.432 19.4027 613.522 21.472 615.016 24.16C616.552 26.848 617.319 29.984 617.319 33.568ZM606.12 30.688C606.12 28.8107 605.48 27.3173 604.2 26.208C602.92 25.0987 601.32 24.544 599.4 24.544C597.565 24.544 596.008 25.0773 594.728 26.144C593.49 27.2107 592.722 28.7253 592.424 30.688H606.12Z" fill="#F0F0F0"/>
<path d="M72.084 43.104C72.084 39.776 72.804 36.816 74.244 34.224C75.684 31.6 77.684 29.568 80.244 28.128C82.836 26.656 85.764 25.92 89.028 25.92C93.028 25.92 96.452 26.976 99.3 29.088C102.148 31.2 104.052 34.08 105.012 37.728H95.988C95.316 36.32 94.356 35.248 93.108 34.512C91.892 33.776 90.5 33.408 88.932 33.408C86.404 33.408 84.356 34.288 82.788 36.048C81.22 37.808 80.436 40.16 80.436 43.104C80.436 46.048 81.22 48.4 82.788 50.16C84.356 51.92 86.404 52.8 88.932 52.8C90.5 52.8 91.892 52.432 93.108 51.696C94.356 50.96 95.316 49.888 95.988 48.48H105.012C104.052 52.128 102.148 55.008 99.3 57.12C96.452 59.2 93.028 60.24 89.028 60.24C85.764 60.24 82.836 59.52 80.244 58.08C77.684 56.608 75.684 54.576 74.244 51.984C72.804 49.392 72.084 46.432 72.084 43.104ZM122.231 60.384C119.607 60.384 117.239 59.824 115.127 58.704C113.047 57.584 111.399 55.984 110.183 53.904C108.999 51.824 108.407 49.392 108.407 46.608C108.407 43.856 109.015 41.44 110.23 39.36C111.447 37.248 113.111 35.632 115.223 34.512C117.335 33.392 119.703 32.832 122.327 32.832C124.951 32.832 127.319 33.392 129.431 34.512C131.543 35.632 133.207 37.248 134.423 39.36C135.639 41.44 136.247 43.856 136.247 46.608C136.247 49.36 135.623 51.792 134.375 53.904C133.159 55.984 131.479 57.584 129.335 58.704C127.223 59.824 124.855 60.384 122.231 60.384ZM122.231 53.28C123.799 53.28 125.127 52.704 126.215 51.552C127.335 50.4 127.895 48.752 127.895 46.608C127.895 44.464 127.351 42.816 126.263 41.664C125.207 40.512 123.895 39.936 122.327 39.936C120.727 39.936 119.399 40.512 118.343 41.664C117.287 42.784 116.759 44.432 116.759 46.608C116.759 48.752 117.271 50.4 118.295 51.552C119.351 52.704 120.663 53.28 122.231 53.28ZM156.921 32.928C160.057 32.928 162.553 33.952 164.409 36C166.297 38.016 167.241 40.8 167.241 44.352V60H159.081V45.456C159.081 43.664 158.617 42.272 157.689 41.28C156.761 40.288 155.513 39.792 153.945 39.792C152.377 39.792 151.129 40.288 150.201 41.28C149.273 42.272 148.809 43.664 148.809 45.456V60H140.601V33.216H148.809V36.768C149.641 35.584 150.761 34.656 152.169 33.984C153.577 33.28 155.161 32.928 156.921 32.928ZM183.841 60.384C181.505 60.384 179.425 59.984 177.601 59.184C175.777 58.384 174.337 57.296 173.281 55.92C172.225 54.512 171.633 52.944 171.505 51.216H179.617C179.713 52.144 180.145 52.896 180.913 53.472C181.681 54.048 182.625 54.336 183.745 54.336C184.769 54.336 185.553 54.144 186.097 53.76C186.673 53.344 186.961 52.816 186.961 52.176C186.961 51.408 186.561 50.848 185.761 50.496C184.961 50.112 183.665 49.696 181.873 49.248C179.953 48.8 178.353 48.336 177.073 47.856C175.793 47.344 174.689 46.56 173.761 45.504C172.833 44.416 172.369 42.96 172.369 41.136C172.369 39.6 172.785 38.208 173.617 36.96C174.481 35.68 175.729 34.672 177.361 33.936C179.025 33.2 180.993 32.832 183.265 32.832C186.625 32.832 189.265 33.664 191.185 35.328C193.137 36.992 194.257 39.2 194.545 41.952H186.961C186.833 41.024 186.417 40.288 185.713 39.744C185.041 39.2 184.145 38.928 183.025 38.928C182.065 38.928 181.329 39.12 180.817 39.504C180.305 39.856 180.049 40.352 180.049 40.992C180.049 41.76 180.449 42.336 181.249 42.72C182.081 43.104 183.361 43.488 185.089 43.872C187.073 44.384 188.689 44.896 189.937 45.408C191.185 45.888 192.273 46.688 193.201 47.808C194.161 48.896 194.657 50.368 194.689 52.224C194.689 53.792 194.241 55.2 193.345 56.448C192.481 57.664 191.217 58.624 189.553 59.328C187.921 60.032 186.017 60.384 183.841 60.384ZM226.158 33.216V60H217.95V56.352C217.118 57.536 215.982 58.496 214.542 59.232C213.134 59.936 211.566 60.288 209.838 60.288C207.79 60.288 205.982 59.84 204.414 58.944C202.846 58.016 201.63 56.688 200.766 54.96C199.902 53.232 199.47 51.2 199.47 48.864V33.216H207.63V47.76C207.63 49.552 208.094 50.944 209.022 51.936C209.95 52.928 211.198 53.424 212.766 53.424C214.366 53.424 215.63 52.928 216.558 51.936C217.486 50.944 217.95 49.552 217.95 47.76V33.216H226.158ZM240.262 24.48V60H232.054V24.48H240.262ZM261.138 53.04V60H256.962C253.986 60 251.666 59.28 250.002 57.84C248.338 56.368 247.506 53.984 247.506 50.688V40.032H244.242V33.216H247.506V26.688H255.714V33.216H261.09V40.032H255.714V50.784C255.714 51.584 255.906 52.16 256.29 52.512C256.674 52.864 257.314 53.04 258.21 53.04H261.138ZM269.838 30.432C268.398 30.432 267.214 30.016 266.286 29.184C265.39 28.32 264.942 27.264 264.942 26.016C264.942 24.736 265.39 23.68 266.286 22.848C267.214 21.984 268.398 21.552 269.838 21.552C271.246 21.552 272.398 21.984 273.294 22.848C274.222 23.68 274.686 24.736 274.686 26.016C274.686 27.264 274.222 28.32 273.294 29.184C272.398 30.016 271.246 30.432 269.838 30.432ZM273.918 33.216V60H265.71V33.216H273.918ZM296.187 32.928C299.323 32.928 301.819 33.952 303.675 36C305.563 38.016 306.507 40.8 306.507 44.352V60H298.347V45.456C298.347 43.664 297.883 42.272 296.955 41.28C296.027 40.288 294.779 39.792 293.211 39.792C291.643 39.792 290.395 40.288 289.467 41.28C288.539 42.272 288.075 43.664 288.075 45.456V60H279.867V33.216H288.075V36.768C288.907 35.584 290.027 34.656 291.435 33.984C292.843 33.28 294.427 32.928 296.187 32.928ZM322.386 32.832C324.274 32.832 325.922 33.216 327.33 33.984C328.77 34.752 329.874 35.76 330.642 37.008V33.216H338.85V59.952C338.85 62.416 338.354 64.64 337.362 66.624C336.402 68.64 334.914 70.24 332.898 71.424C330.914 72.608 328.434 73.2 325.458 73.2C321.49 73.2 318.274 72.256 315.81 70.368C313.346 68.512 311.938 65.984 311.586 62.784H319.698C319.954 63.808 320.562 64.608 321.522 65.184C322.482 65.792 323.666 66.096 325.074 66.096C326.77 66.096 328.114 65.6 329.106 64.608C330.13 63.648 330.642 62.096 330.642 59.952V56.16C329.842 57.408 328.738 58.432 327.33 59.232C325.922 60 324.274 60.384 322.386 60.384C320.178 60.384 318.178 59.824 316.386 58.704C314.594 57.552 313.17 55.936 312.114 53.856C311.09 51.744 310.578 49.312 310.578 46.56C310.578 43.808 311.09 41.392 312.114 39.312C313.17 37.232 314.594 35.632 316.386 34.512C318.178 33.392 320.178 32.832 322.386 32.832ZM330.642 46.608C330.642 44.56 330.066 42.944 328.914 41.76C327.794 40.576 326.418 39.984 324.786 39.984C323.154 39.984 321.762 40.576 320.61 41.76C319.49 42.912 318.93 44.512 318.93 46.56C318.93 48.608 319.49 50.24 320.61 51.456C321.762 52.64 323.154 53.232 324.786 53.232C326.418 53.232 327.794 52.64 328.914 51.456C330.066 50.272 330.642 48.656 330.642 46.608ZM367.152 60.336C364.688 60.336 362.48 59.936 360.528 59.136C358.576 58.336 357.008 57.152 355.824 55.584C354.672 54.016 354.064 52.128 354 49.92H362.736C362.864 51.168 363.296 52.128 364.032 52.8C364.768 53.44 365.728 53.76 366.912 53.76C368.128 53.76 369.088 53.488 369.792 52.944C370.496 52.368 370.848 51.584 370.848 50.592C370.848 49.76 370.56 49.072 369.984 48.528C369.44 47.984 368.752 47.536 367.92 47.184C367.12 46.832 365.968 46.432 364.464 45.984C362.288 45.312 360.512 44.64 359.136 43.968C357.76 43.296 356.576 42.304 355.584 40.992C354.592 39.68 354.096 37.968 354.096 35.856C354.096 32.72 355.232 30.272 357.504 28.512C359.776 26.72 362.736 25.824 366.384 25.824C370.096 25.824 373.088 26.72 375.36 28.512C377.632 30.272 378.848 32.736 379.008 35.904H370.128C370.064 34.816 369.664 33.968 368.928 33.36C368.192 32.72 367.248 32.4 366.096 32.4C365.104 32.4 364.304 32.672 363.696 33.216C363.088 33.728 362.784 34.48 362.784 35.472C362.784 36.56 363.296 37.408 364.32 38.016C365.344 38.624 366.944 39.28 369.12 39.984C371.296 40.72 373.056 41.424 374.4 42.096C375.776 42.768 376.96 43.744 377.952 45.024C378.944 46.304 379.44 47.952 379.44 49.968C379.44 51.888 378.944 53.632 377.952 55.2C376.992 56.768 375.584 58.016 373.728 58.944C371.872 59.872 369.68 60.336 367.152 60.336ZM409.74 46.176C409.74 46.944 409.692 47.744 409.596 48.576H391.02C391.148 50.24 391.676 51.52 392.604 52.416C393.564 53.28 394.732 53.712 396.108 53.712C398.156 53.712 399.58 52.848 400.38 51.12H409.116C408.668 52.88 407.852 54.464 406.668 55.872C405.516 57.28 404.06 58.384 402.3 59.184C400.54 59.984 398.572 60.384 396.396 60.384C393.772 60.384 391.436 59.824 389.388 58.704C387.34 57.584 385.74 55.984 384.588 53.904C383.436 51.824 382.86 49.392 382.86 46.608C382.86 43.824 383.42 41.392 384.54 39.312C385.692 37.232 387.292 35.632 389.34 34.512C391.388 33.392 393.74 32.832 396.396 32.832C398.988 32.832 401.292 33.376 403.308 34.464C405.324 35.552 406.892 37.104 408.012 39.12C409.164 41.136 409.74 43.488 409.74 46.176ZM401.34 44.016C401.34 42.608 400.86 41.488 399.9 40.656C398.94 39.824 397.74 39.408 396.3 39.408C394.924 39.408 393.756 39.808 392.796 40.608C391.868 41.408 391.292 42.544 391.068 44.016H401.34ZM422.278 37.68C423.238 36.208 424.438 35.056 425.878 34.224C427.318 33.36 428.918 32.928 430.678 32.928V41.616H428.422C426.374 41.616 424.838 42.064 423.814 42.96C422.79 43.824 422.278 45.36 422.278 47.568V60H414.07V33.216H422.278V37.68ZM446.649 52.32L452.457 33.216H461.193L451.689 60H441.561L432.057 33.216H440.841L446.649 52.32ZM468.776 30.432C467.336 30.432 466.152 30.016 465.224 29.184C464.328 28.32 463.88 27.264 463.88 26.016C463.88 24.736 464.328 23.68 465.224 22.848C466.152 21.984 467.336 21.552 468.776 21.552C470.184 21.552 471.336 21.984 472.232 22.848C473.16 23.68 473.624 24.736 473.624 26.016C473.624 27.264 473.16 28.32 472.232 29.184C471.336 30.016 470.184 30.432 468.776 30.432ZM472.856 33.216V60H464.648V33.216H472.856ZM477.172 46.608C477.172 43.824 477.732 41.392 478.852 39.312C480.004 37.232 481.588 35.632 483.604 34.512C485.652 33.392 487.988 32.832 490.612 32.832C493.972 32.832 496.772 33.712 499.012 35.472C501.284 37.232 502.772 39.712 503.476 42.912H494.74C494.004 40.864 492.58 39.84 490.468 39.84C488.964 39.84 487.764 40.432 486.868 41.616C485.972 42.768 485.524 44.432 485.524 46.608C485.524 48.784 485.972 50.464 486.868 51.648C487.764 52.8 488.964 53.376 490.468 53.376C492.58 53.376 494.004 52.352 494.74 50.304H503.476C502.772 53.44 501.284 55.904 499.012 57.696C496.74 59.488 493.94 60.384 490.612 60.384C487.988 60.384 485.652 59.824 483.604 58.704C481.588 57.584 480.004 55.984 478.852 53.904C477.732 51.824 477.172 49.392 477.172 46.608ZM533.115 46.176C533.115 46.944 533.067 47.744 532.971 48.576H514.395C514.523 50.24 515.051 51.52 515.979 52.416C516.939 53.28 518.107 53.712 519.483 53.712C521.531 53.712 522.955 52.848 523.755 51.12H532.491C532.043 52.88 531.227 54.464 530.043 55.872C528.891 57.28 527.435 58.384 525.675 59.184C523.915 59.984 521.947 60.384 519.771 60.384C517.147 60.384 514.811 59.824 512.763 58.704C510.715 57.584 509.115 55.984 507.963 53.904C506.811 51.824 506.235 49.392 506.235 46.608C506.235 43.824 506.795 41.392 507.915 39.312C509.067 37.232 510.667 35.632 512.715 34.512C514.763 33.392 517.115 32.832 519.771 32.832C522.363 32.832 524.667 33.376 526.683 34.464C528.699 35.552 530.267 37.104 531.387 39.12C532.539 41.136 533.115 43.488 533.115 46.176ZM524.715 44.016C524.715 42.608 524.235 41.488 523.275 40.656C522.315 39.824 521.115 39.408 519.675 39.408C518.299 39.408 517.131 39.808 516.171 40.608C515.243 41.408 514.667 42.544 514.443 44.016H524.715Z" fill="#143274"/>
</svg>
