<svg width="523" height="73" viewBox="0 0 523 73" fill="none" xmlns="http://www.w3.org/2000/svg">
<path d="M13.952 29.6C13.952 32.3307 14.5707 34.6987 15.808 36.704C17.0453 38.6667 18.6667 40.16 20.672 41.184C22.72 42.208 24.96 42.72 27.392 42.72C29.5253 42.72 31.4027 42.4427 33.024 41.888C34.6453 41.3333 36.096 40.608 37.376 39.712C38.656 38.816 39.7867 37.856 40.768 36.832V48.48C38.976 49.888 37.0133 50.9973 34.88 51.808C32.7467 52.6187 30.0373 53.024 26.752 53.024C23.168 53.024 19.8613 52.4693 16.832 51.36C13.8027 50.2507 11.2 48.6507 9.024 46.56C6.848 44.4693 5.16267 41.9947 3.968 39.136C2.77333 36.2773 2.176 33.0987 2.176 29.6C2.176 26.1013 2.77333 22.9227 3.968 20.064C5.16267 17.2053 6.848 14.7307 9.024 12.64C11.2 10.5493 13.8027 8.94933 16.832 7.84C19.8613 6.73066 23.168 6.176 26.752 6.176C30.0373 6.176 32.7467 6.58133 34.88 7.392C37.0133 8.20266 38.976 9.312 40.768 10.72V22.368C39.7867 21.344 38.656 20.384 37.376 19.488C36.096 18.5493 34.6453 17.824 33.024 17.312C31.4027 16.7573 29.5253 16.48 27.392 16.48C24.96 16.48 22.72 16.992 20.672 18.016C18.6667 19.04 17.0453 20.5333 15.808 22.496C14.5707 24.4587 13.952 26.8267 13.952 29.6ZM58.187 22.56V52H48.651V22.56H58.187ZM66.699 32.544C66.187 32.032 65.6323 31.6267 65.035 31.328C64.4803 31.0293 63.7763 30.88 62.923 30.88C61.9843 30.88 61.1523 31.136 60.427 31.648C59.7017 32.16 59.147 32.9067 58.763 33.888C58.379 34.8693 58.187 36.064 58.187 37.472L55.883 34.08C55.883 31.7333 56.331 29.6427 57.227 27.808C58.1657 25.9733 59.3817 24.5227 60.875 23.456C62.3683 22.3893 63.9257 21.856 65.547 21.856C66.6137 21.856 67.6377 22.0693 68.619 22.496C69.6003 22.9227 70.347 23.52 70.859 24.288L66.699 32.544ZM89.002 52.64C85.5887 52.64 82.6233 52.0213 80.106 50.784C77.6313 49.504 75.7113 47.712 74.346 45.408C72.9807 43.104 72.298 40.3947 72.298 37.28C72.298 34.1227 72.9593 31.392 74.282 29.088C75.6047 26.784 77.5033 25.0133 79.978 23.776C82.4953 22.5387 85.4607 21.92 88.874 21.92C92.2873 21.92 95.1673 22.5173 97.514 23.712C99.8607 24.864 101.653 26.5493 102.89 28.768C104.127 30.9867 104.746 33.6747 104.746 36.832C104.746 37.3013 104.746 37.7707 104.746 38.24C104.746 38.6667 104.703 39.0293 104.618 39.328H77.738V33.952H95.914L93.61 36.896C93.8233 36.5973 93.994 36.2347 94.122 35.808C94.2927 35.3387 94.378 34.9547 94.378 34.656C94.378 33.376 94.1433 32.2667 93.674 31.328C93.2047 30.3893 92.5433 29.664 91.69 29.152C90.8367 28.64 89.834 28.384 88.682 28.384C87.2313 28.384 86.0153 28.704 85.034 29.344C84.0527 29.984 83.306 30.9653 82.794 32.288C82.3247 33.568 82.0687 35.1893 82.026 37.152C82.026 38.944 82.282 40.48 82.794 41.76C83.306 43.04 84.074 44.0213 85.098 44.704C86.122 45.344 87.3807 45.664 88.874 45.664C90.5807 45.664 92.0313 45.344 93.226 44.704C94.4633 44.064 95.4447 43.104 96.17 41.824L104.81 43.936C103.274 46.8373 101.183 49.0133 98.538 50.464C95.9353 51.9147 92.7567 52.64 89.002 52.64ZM118.202 42.784C118.202 43.552 118.394 44.2133 118.778 44.768C119.162 45.28 119.674 45.6853 120.314 45.984C120.954 46.24 121.658 46.368 122.426 46.368C123.535 46.368 124.559 46.1333 125.498 45.664C126.436 45.1947 127.204 44.4907 127.802 43.552C128.399 42.6133 128.698 41.4613 128.698 40.096L129.722 43.936C129.722 45.8133 129.21 47.4133 128.186 48.736C127.162 50.016 125.839 50.9973 124.218 51.68C122.596 52.32 120.847 52.64 118.97 52.64C117.092 52.64 115.343 52.2987 113.722 51.616C112.143 50.8907 110.863 49.824 109.882 48.416C108.943 47.008 108.474 45.3013 108.474 43.296C108.474 40.48 109.476 38.2613 111.482 36.64C113.487 34.976 116.324 34.144 119.994 34.144C121.786 34.144 123.386 34.3147 124.794 34.656C126.244 34.9973 127.482 35.424 128.506 35.936C129.53 36.448 130.298 36.9813 130.81 37.536V41.824C129.786 41.056 128.591 40.48 127.226 40.096C125.903 39.6693 124.495 39.456 123.002 39.456C121.85 39.456 120.932 39.584 120.25 39.84C119.567 40.096 119.055 40.48 118.714 40.992C118.372 41.4613 118.202 42.0587 118.202 42.784ZM113.914 31.584L110.65 25.12C112.314 24.3093 114.319 23.5413 116.666 22.816C119.012 22.0907 121.572 21.728 124.346 21.728C126.948 21.728 129.274 22.112 131.322 22.88C133.37 23.6053 134.991 24.672 136.186 26.08C137.38 27.488 137.978 29.216 137.978 31.264V52H128.698V33.44C128.698 32.7147 128.57 32.096 128.314 31.584C128.1 31.0293 127.759 30.56 127.29 30.176C126.82 29.792 126.223 29.5147 125.498 29.344C124.815 29.1733 124.026 29.088 123.13 29.088C121.807 29.088 120.506 29.2373 119.226 29.536C117.988 29.8347 116.9 30.1973 115.962 30.624C115.023 31.008 114.34 31.328 113.914 31.584ZM141.758 22.56H161.47V30.56H141.758V22.56ZM146.942 12.32H156.222V52H146.942V12.32ZM165.013 11.488C165.013 9.952 165.567 8.71466 166.677 7.776C167.786 6.79466 169.109 6.304 170.645 6.304C172.223 6.304 173.546 6.79466 174.613 7.776C175.722 8.71466 176.277 9.952 176.277 11.488C176.277 13.024 175.722 14.2827 174.613 15.264C173.546 16.2453 172.223 16.736 170.645 16.736C169.109 16.736 167.786 16.2453 166.677 15.264C165.567 14.2827 165.013 13.024 165.013 11.488ZM165.973 22.56H175.317V52H165.973V22.56ZM179.308 22.56H189.612L196.396 38.88L203.116 22.56H213.42L196.396 55.456L179.308 22.56ZM231.065 52.64C227.651 52.64 224.686 52.0213 222.169 50.784C219.694 49.504 217.774 47.712 216.409 45.408C215.043 43.104 214.361 40.3947 214.361 37.28C214.361 34.1227 215.022 31.392 216.345 29.088C217.667 26.784 219.566 25.0133 222.041 23.776C224.558 22.5387 227.523 21.92 230.937 21.92C234.35 21.92 237.23 22.5173 239.577 23.712C241.923 24.864 243.715 26.5493 244.953 28.768C246.19 30.9867 246.809 33.6747 246.809 36.832C246.809 37.3013 246.809 37.7707 246.809 38.24C246.809 38.6667 246.766 39.0293 246.681 39.328H219.801V33.952H237.977L235.673 36.896C235.886 36.5973 236.057 36.2347 236.185 35.808C236.355 35.3387 236.441 34.9547 236.441 34.656C236.441 33.376 236.206 32.2667 235.737 31.328C235.267 30.3893 234.606 29.664 233.753 29.152C232.899 28.64 231.897 28.384 230.745 28.384C229.294 28.384 228.078 28.704 227.097 29.344C226.115 29.984 225.369 30.9653 224.857 32.288C224.387 33.568 224.131 35.1893 224.089 37.152C224.089 38.944 224.345 40.48 224.857 41.76C225.369 43.04 226.137 44.0213 227.161 44.704C228.185 45.344 229.443 45.664 230.937 45.664C232.643 45.664 234.094 45.344 235.289 44.704C236.526 44.064 237.507 43.104 238.233 41.824L246.873 43.936C245.337 46.8373 243.246 49.0133 240.601 50.464C237.998 51.9147 234.819 52.64 231.065 52.64ZM277.852 36.256C278.748 37.8773 279.75 39.2853 280.86 40.48C282.012 41.6747 283.249 42.592 284.572 43.232C285.937 43.872 287.366 44.192 288.86 44.192C290.438 44.192 291.74 43.808 292.764 43.04C293.788 42.2293 294.3 41.1413 294.3 39.776C294.3 38.624 294.001 37.7067 293.404 37.024C292.806 36.2987 291.846 35.616 290.524 34.976C289.201 34.336 287.452 33.6107 285.276 32.8C284.209 32.416 282.972 31.8827 281.564 31.2C280.198 30.5173 278.897 29.6427 277.66 28.576C276.422 27.4667 275.398 26.144 274.588 24.608C273.777 23.0293 273.372 21.1307 273.372 18.912C273.372 16.2667 274.054 13.984 275.42 12.064C276.828 10.144 278.705 8.69333 281.052 7.712C283.441 6.688 286.086 6.176 288.988 6.176C291.974 6.176 294.556 6.66667 296.732 7.648C298.95 8.62933 300.785 9.86666 302.236 11.36C303.686 12.8533 304.796 14.368 305.564 15.904L297.308 20.512C296.668 19.4453 295.921 18.528 295.068 17.76C294.257 16.9493 293.34 16.3307 292.316 15.904C291.334 15.4347 290.268 15.2 289.116 15.2C287.58 15.2 286.406 15.5413 285.596 16.224C284.785 16.864 284.38 17.6747 284.38 18.656C284.38 19.68 284.764 20.576 285.532 21.344C286.342 22.112 287.473 22.816 288.924 23.456C290.417 24.096 292.209 24.7787 294.3 25.504C295.878 26.1013 297.35 26.8053 298.716 27.616C300.081 28.384 301.276 29.3227 302.3 30.432C303.366 31.5413 304.198 32.8213 304.796 34.272C305.393 35.7227 305.692 37.3867 305.692 39.264C305.692 41.5253 305.222 43.552 304.284 45.344C303.388 47.0933 302.15 48.5653 300.572 49.76C299.036 50.9547 297.265 51.8507 295.26 52.448C293.297 53.088 291.27 53.408 289.18 53.408C286.278 53.408 283.569 52.896 281.052 51.872C278.577 50.8053 276.422 49.376 274.588 47.584C272.753 45.792 271.324 43.8293 270.299 41.696L277.852 36.256ZM326.94 52.64C323.526 52.64 320.561 52.0213 318.044 50.784C315.569 49.504 313.649 47.712 312.284 45.408C310.918 43.104 310.236 40.3947 310.236 37.28C310.236 34.1227 310.897 31.392 312.22 29.088C313.542 26.784 315.441 25.0133 317.916 23.776C320.433 22.5387 323.398 21.92 326.812 21.92C330.225 21.92 333.105 22.5173 335.452 23.712C337.798 24.864 339.59 26.5493 340.828 28.768C342.065 30.9867 342.684 33.6747 342.684 36.832C342.684 37.3013 342.684 37.7707 342.684 38.24C342.684 38.6667 342.641 39.0293 342.556 39.328H315.676V33.952H333.852L331.548 36.896C331.761 36.5973 331.932 36.2347 332.06 35.808C332.23 35.3387 332.316 34.9547 332.316 34.656C332.316 33.376 332.081 32.2667 331.612 31.328C331.142 30.3893 330.481 29.664 329.628 29.152C328.774 28.64 327.772 28.384 326.62 28.384C325.169 28.384 323.953 28.704 322.972 29.344C321.99 29.984 321.244 30.9653 320.732 32.288C320.262 33.568 320.006 35.1893 319.964 37.152C319.964 38.944 320.22 40.48 320.732 41.76C321.244 43.04 322.012 44.0213 323.036 44.704C324.06 45.344 325.318 45.664 326.812 45.664C328.518 45.664 329.969 45.344 331.164 44.704C332.401 44.064 333.382 43.104 334.108 41.824L342.748 43.936C341.212 46.8373 339.121 49.0133 336.476 50.464C333.873 51.9147 330.694 52.64 326.94 52.64ZM358.187 22.56V52H348.651V22.56H358.187ZM366.699 32.544C366.187 32.032 365.632 31.6267 365.035 31.328C364.48 31.0293 363.776 30.88 362.923 30.88C361.984 30.88 361.152 31.136 360.427 31.648C359.702 32.16 359.147 32.9067 358.763 33.888C358.379 34.8693 358.187 36.064 358.187 37.472L355.883 34.08C355.883 31.7333 356.331 29.6427 357.227 27.808C358.166 25.9733 359.382 24.5227 360.875 23.456C362.368 22.3893 363.926 21.856 365.547 21.856C366.614 21.856 367.638 22.0693 368.619 22.496C369.6 22.9227 370.347 23.52 370.859 24.288L366.699 32.544ZM372.933 22.56H383.237L390.021 38.88L396.741 22.56H407.045L390.021 55.456L372.933 22.56ZM410.075 11.488C410.075 9.952 410.63 8.71466 411.739 7.776C412.848 6.79466 414.171 6.304 415.707 6.304C417.286 6.304 418.608 6.79466 419.675 7.776C420.784 8.71466 421.339 9.952 421.339 11.488C421.339 13.024 420.784 14.2827 419.675 15.264C418.608 16.2453 417.286 16.736 415.707 16.736C414.171 16.736 412.848 16.2453 411.739 15.264C410.63 14.2827 410.075 13.024 410.075 11.488ZM411.035 22.56H420.379V52H411.035V22.56ZM436.467 37.28C436.467 38.8587 436.808 40.224 437.491 41.376C438.173 42.4853 439.112 43.36 440.307 44C441.544 44.64 442.867 44.96 444.275 44.96C445.469 44.96 446.6 44.7893 447.667 44.448C448.776 44.064 449.779 43.552 450.675 42.912C451.613 42.272 452.381 41.4827 452.979 40.544V49.952C451.955 50.7627 450.675 51.424 449.139 51.936C447.603 52.4053 445.725 52.64 443.507 52.64C440.264 52.64 437.341 52 434.739 50.72C432.179 49.44 430.152 47.648 428.659 45.344C427.208 43.04 426.483 40.352 426.483 37.28C426.483 34.1653 427.208 31.4773 428.659 29.216C430.152 26.912 432.179 25.12 434.739 23.84C437.341 22.56 440.264 21.92 443.507 21.92C445.725 21.92 447.603 22.176 449.139 22.688C450.675 23.1573 451.955 23.7547 452.979 24.48V33.952C452.381 33.0133 451.592 32.224 450.611 31.584C449.672 30.944 448.648 30.4533 447.539 30.112C446.429 29.7707 445.341 29.6 444.275 29.6C442.867 29.6 441.544 29.9413 440.307 30.624C439.112 31.3067 438.173 32.224 437.491 33.376C436.808 34.528 436.467 35.8293 436.467 37.28ZM474.94 52.64C471.526 52.64 468.561 52.0213 466.044 50.784C463.569 49.504 461.649 47.712 460.284 45.408C458.918 43.104 458.236 40.3947 458.236 37.28C458.236 34.1227 458.897 31.392 460.22 29.088C461.542 26.784 463.441 25.0133 465.916 23.776C468.433 22.5387 471.398 21.92 474.812 21.92C478.225 21.92 481.105 22.5173 483.452 23.712C485.798 24.864 487.59 26.5493 488.828 28.768C490.065 30.9867 490.684 33.6747 490.684 36.832C490.684 37.3013 490.684 37.7707 490.684 38.24C490.684 38.6667 490.641 39.0293 490.556 39.328H463.676V33.952H481.852L479.548 36.896C479.761 36.5973 479.932 36.2347 480.06 35.808C480.23 35.3387 480.316 34.9547 480.316 34.656C480.316 33.376 480.081 32.2667 479.612 31.328C479.142 30.3893 478.481 29.664 477.628 29.152C476.774 28.64 475.772 28.384 474.62 28.384C473.169 28.384 471.953 28.704 470.972 29.344C469.99 29.984 469.244 30.9653 468.732 32.288C468.262 33.568 468.006 35.1893 467.964 37.152C467.964 38.944 468.22 40.48 468.732 41.76C469.244 43.04 470.012 44.0213 471.036 44.704C472.06 45.344 473.318 45.664 474.812 45.664C476.518 45.664 477.969 45.344 479.164 44.704C480.401 44.064 481.382 43.104 482.108 41.824L490.748 43.936C489.212 46.8373 487.121 49.0133 484.476 50.464C481.873 51.9147 478.694 52.64 474.94 52.64ZM498.251 41.312C499.744 42.5493 501.088 43.5307 502.283 44.256C503.52 44.9387 504.608 45.4293 505.547 45.728C506.486 45.984 507.296 46.112 507.979 46.112C508.96 46.112 509.686 45.8987 510.155 45.472C510.624 45.0453 510.859 44.4907 510.859 43.808C510.859 43.168 510.667 42.6347 510.283 42.208C509.899 41.7387 509.238 41.2907 508.299 40.864C507.403 40.4373 506.166 39.9893 504.587 39.52C503.179 39.008 501.835 38.4107 500.555 37.728C499.318 37.0027 498.294 36.0427 497.483 34.848C496.672 33.6533 496.267 32.1173 496.267 30.24C496.267 28.448 496.736 26.9333 497.675 25.696C498.656 24.4587 499.958 23.52 501.579 22.88C503.243 22.24 505.142 21.92 507.275 21.92C508.982 21.92 510.56 22.112 512.011 22.496C513.504 22.88 514.891 23.392 516.171 24.032C517.494 24.672 518.731 25.4187 519.883 26.272L516.427 32.544C515.19 31.392 513.782 30.4533 512.203 29.728C510.624 28.96 509.174 28.576 507.851 28.576C506.955 28.576 506.272 28.7467 505.803 29.088C505.376 29.4293 505.163 29.8773 505.163 30.432C505.163 31.072 505.419 31.6053 505.931 32.032C506.486 32.4587 507.254 32.864 508.235 33.248C509.259 33.5893 510.496 34.0373 511.947 34.592C513.483 35.1467 514.891 35.7867 516.171 36.512C517.494 37.2373 518.539 38.1547 519.307 39.264C520.118 40.3733 520.523 41.8453 520.523 43.68C520.523 46.8373 519.542 49.2267 517.579 50.848C515.659 52.4267 512.95 53.216 509.451 53.216C507.318 53.216 505.334 52.96 503.499 52.448C501.707 51.9787 500.043 51.3387 498.507 50.528C496.971 49.6747 495.542 48.736 494.219 47.712L498.251 41.312Z" fill="#F0F0F0"/>
<path d="M76.464 43.2C76.464 45.248 76.928 47.024 77.856 48.528C78.784 50 80 51.12 81.504 51.888C83.04 52.656 84.72 53.04 86.544 53.04C88.144 53.04 89.552 52.832 90.768 52.416C91.984 52 93.072 51.456 94.032 50.784C94.992 50.112 95.84 49.392 96.576 48.624V57.36C95.232 58.416 93.76 59.248 92.16 59.856C90.56 60.464 88.528 60.768 86.064 60.768C83.376 60.768 80.896 60.352 78.624 59.52C76.352 58.688 74.4 57.488 72.768 55.92C71.136 54.352 69.872 52.496 68.976 50.352C68.08 48.208 67.632 45.824 67.632 43.2C67.632 40.576 68.08 38.192 68.976 36.048C69.872 33.904 71.136 32.048 72.768 30.48C74.4 28.912 76.352 27.712 78.624 26.88C80.896 26.048 83.376 25.632 86.064 25.632C88.528 25.632 90.56 25.936 92.16 26.544C93.76 27.152 95.232 27.984 96.576 29.04V37.776C95.84 37.008 94.992 36.288 94.032 35.616C93.072 34.912 91.984 34.368 90.768 33.984C89.552 33.568 88.144 33.36 86.544 33.36C84.72 33.36 83.04 33.744 81.504 34.512C80 35.28 78.784 36.4 77.856 37.872C76.928 39.344 76.464 41.12 76.464 43.2ZM109.64 37.92V60H102.488V37.92H109.64ZM116.024 45.408C115.64 45.024 115.224 44.72 114.776 44.496C114.36 44.272 113.832 44.16 113.192 44.16C112.488 44.16 111.864 44.352 111.32 44.736C110.776 45.12 110.36 45.68 110.072 46.416C109.784 47.152 109.64 48.048 109.64 49.104L107.912 46.56C107.912 44.8 108.248 43.232 108.92 41.856C109.624 40.48 110.536 39.392 111.656 38.592C112.776 37.792 113.944 37.392 115.16 37.392C115.96 37.392 116.728 37.552 117.464 37.872C118.2 38.192 118.76 38.64 119.144 39.216L116.024 45.408ZM132.752 60.48C130.192 60.48 127.968 60.016 126.08 59.088C124.224 58.128 122.784 56.784 121.76 55.056C120.736 53.328 120.224 51.296 120.224 48.96C120.224 46.592 120.72 44.544 121.712 42.816C122.704 41.088 124.128 39.76 125.984 38.832C127.872 37.904 130.096 37.44 132.656 37.44C135.216 37.44 137.376 37.888 139.136 38.784C140.896 39.648 142.24 40.912 143.168 42.576C144.096 44.24 144.56 46.256 144.56 48.624C144.56 48.976 144.56 49.328 144.56 49.68C144.56 50 144.528 50.272 144.464 50.496H124.304V46.464H137.936L136.208 48.672C136.368 48.448 136.496 48.176 136.592 47.856C136.72 47.504 136.784 47.216 136.784 46.992C136.784 46.032 136.608 45.2 136.256 44.496C135.904 43.792 135.408 43.248 134.768 42.864C134.128 42.48 133.376 42.288 132.512 42.288C131.424 42.288 130.512 42.528 129.776 43.008C129.04 43.488 128.48 44.224 128.096 45.216C127.744 46.176 127.552 47.392 127.52 48.864C127.52 50.208 127.712 51.36 128.096 52.32C128.48 53.28 129.056 54.016 129.824 54.528C130.592 55.008 131.536 55.248 132.656 55.248C133.936 55.248 135.024 55.008 135.92 54.528C136.848 54.048 137.584 53.328 138.128 52.368L144.608 53.952C143.456 56.128 141.888 57.76 139.904 58.848C137.952 59.936 135.568 60.48 132.752 60.48ZM154.651 53.088C154.651 53.664 154.795 54.16 155.083 54.576C155.371 54.96 155.755 55.264 156.235 55.488C156.715 55.68 157.243 55.776 157.819 55.776C158.651 55.776 159.419 55.6 160.123 55.248C160.827 54.896 161.403 54.368 161.851 53.664C162.299 52.96 162.523 52.096 162.523 51.072L163.291 53.952C163.291 55.36 162.907 56.56 162.139 57.552C161.371 58.512 160.379 59.248 159.163 59.76C157.947 60.24 156.635 60.48 155.227 60.48C153.819 60.48 152.507 60.224 151.291 59.712C150.107 59.168 149.147 58.368 148.411 57.312C147.707 56.256 147.355 54.976 147.355 53.472C147.355 51.36 148.107 49.696 149.611 48.48C151.115 47.232 153.243 46.608 155.995 46.608C157.339 46.608 158.539 46.736 159.595 46.992C160.683 47.248 161.611 47.568 162.379 47.952C163.147 48.336 163.723 48.736 164.107 49.152V52.368C163.339 51.792 162.443 51.36 161.419 51.072C160.427 50.752 159.371 50.592 158.251 50.592C157.387 50.592 156.699 50.688 156.187 50.88C155.675 51.072 155.291 51.36 155.035 51.744C154.779 52.096 154.651 52.544 154.651 53.088ZM151.435 44.688L148.987 39.84C150.235 39.232 151.739 38.656 153.499 38.112C155.259 37.568 157.179 37.296 159.259 37.296C161.211 37.296 162.955 37.584 164.491 38.16C166.027 38.704 167.243 39.504 168.139 40.56C169.035 41.616 169.483 42.912 169.483 44.448V60H162.523V46.08C162.523 45.536 162.427 45.072 162.235 44.688C162.075 44.272 161.819 43.92 161.467 43.632C161.115 43.344 160.667 43.136 160.123 43.008C159.611 42.88 159.019 42.816 158.347 42.816C157.355 42.816 156.379 42.928 155.419 43.152C154.491 43.376 153.675 43.648 152.971 43.968C152.267 44.256 151.755 44.496 151.435 44.688ZM172.318 37.92H187.102V43.92H172.318V37.92ZM176.206 30.24H183.166V60H176.206V30.24ZM189.759 29.616C189.759 28.464 190.175 27.536 191.007 26.832C191.839 26.096 192.831 25.728 193.983 25.728C195.167 25.728 196.159 26.096 196.959 26.832C197.791 27.536 198.207 28.464 198.207 29.616C198.207 30.768 197.791 31.712 196.959 32.448C196.159 33.184 195.167 33.552 193.983 33.552C192.831 33.552 191.839 33.184 191.007 32.448C190.175 31.712 189.759 30.768 189.759 29.616ZM190.479 37.92H197.487V60H190.479V37.92ZM200.481 37.92H208.209L213.297 50.16L218.337 37.92H226.065L213.297 62.592L200.481 37.92ZM239.298 60.48C236.738 60.48 234.514 60.016 232.626 59.088C230.77 58.128 229.33 56.784 228.306 55.056C227.282 53.328 226.77 51.296 226.77 48.96C226.77 46.592 227.266 44.544 228.258 42.816C229.25 41.088 230.674 39.76 232.53 38.832C234.418 37.904 236.642 37.44 239.202 37.44C241.762 37.44 243.922 37.888 245.682 38.784C247.442 39.648 248.786 40.912 249.714 42.576C250.642 44.24 251.106 46.256 251.106 48.624C251.106 48.976 251.106 49.328 251.106 49.68C251.106 50 251.074 50.272 251.01 50.496H230.85V46.464H244.482L242.754 48.672C242.914 48.448 243.042 48.176 243.138 47.856C243.266 47.504 243.33 47.216 243.33 46.992C243.33 46.032 243.154 45.2 242.802 44.496C242.45 43.792 241.954 43.248 241.314 42.864C240.674 42.48 239.922 42.288 239.058 42.288C237.97 42.288 237.058 42.528 236.322 43.008C235.586 43.488 235.026 44.224 234.642 45.216C234.29 46.176 234.098 47.392 234.066 48.864C234.066 50.208 234.258 51.36 234.642 52.32C235.026 53.28 235.602 54.016 236.37 54.528C237.138 55.008 238.082 55.248 239.202 55.248C240.482 55.248 241.57 55.008 242.466 54.528C243.394 54.048 244.13 53.328 244.674 52.368L251.154 53.952C250.002 56.128 248.434 57.76 246.45 58.848C244.498 59.936 242.114 60.48 239.298 60.48ZM274.389 48.192C275.061 49.408 275.813 50.464 276.645 51.36C277.509 52.256 278.437 52.944 279.429 53.424C280.453 53.904 281.525 54.144 282.645 54.144C283.829 54.144 284.805 53.856 285.573 53.28C286.341 52.672 286.725 51.856 286.725 50.832C286.725 49.968 286.501 49.28 286.053 48.768C285.605 48.224 284.885 47.712 283.893 47.232C282.901 46.752 281.589 46.208 279.957 45.6C279.157 45.312 278.229 44.912 277.173 44.4C276.149 43.888 275.173 43.232 274.245 42.432C273.317 41.6 272.549 40.608 271.941 39.456C271.333 38.272 271.029 36.848 271.029 35.184C271.029 33.2 271.541 31.488 272.565 30.048C273.621 28.608 275.029 27.52 276.789 26.784C278.581 26.016 280.565 25.632 282.741 25.632C284.981 25.632 286.917 26 288.549 26.736C290.213 27.472 291.589 28.4 292.677 29.52C293.765 30.64 294.597 31.776 295.173 32.928L288.981 36.384C288.501 35.584 287.941 34.896 287.301 34.32C286.693 33.712 286.005 33.248 285.237 32.928C284.501 32.576 283.701 32.4 282.837 32.4C281.685 32.4 280.805 32.656 280.197 33.168C279.589 33.648 279.285 34.256 279.285 34.992C279.285 35.76 279.573 36.432 280.149 37.008C280.757 37.584 281.605 38.112 282.693 38.592C283.813 39.072 285.157 39.584 286.725 40.128C287.909 40.576 289.013 41.104 290.037 41.712C291.061 42.288 291.957 42.992 292.725 43.824C293.525 44.656 294.149 45.616 294.597 46.704C295.045 47.792 295.269 49.04 295.269 50.448C295.269 52.144 294.917 53.664 294.213 55.008C293.541 56.32 292.613 57.424 291.429 58.32C290.277 59.216 288.949 59.888 287.445 60.336C285.973 60.816 284.453 61.056 282.885 61.056C280.709 61.056 278.677 60.672 276.789 59.904C274.933 59.104 273.317 58.032 271.941 56.688C270.565 55.344 269.493 53.872 268.725 52.272L274.389 48.192ZM311.205 60.48C308.645 60.48 306.421 60.016 304.533 59.088C302.677 58.128 301.237 56.784 300.213 55.056C299.189 53.328 298.677 51.296 298.677 48.96C298.677 46.592 299.173 44.544 300.165 42.816C301.157 41.088 302.581 39.76 304.437 38.832C306.325 37.904 308.549 37.44 311.109 37.44C313.669 37.44 315.829 37.888 317.589 38.784C319.349 39.648 320.693 40.912 321.621 42.576C322.549 44.24 323.013 46.256 323.013 48.624C323.013 48.976 323.013 49.328 323.013 49.68C323.013 50 322.981 50.272 322.917 50.496H302.757V46.464H316.389L314.661 48.672C314.821 48.448 314.949 48.176 315.045 47.856C315.173 47.504 315.237 47.216 315.237 46.992C315.237 46.032 315.061 45.2 314.709 44.496C314.357 43.792 313.861 43.248 313.221 42.864C312.581 42.48 311.829 42.288 310.965 42.288C309.877 42.288 308.965 42.528 308.229 43.008C307.493 43.488 306.933 44.224 306.549 45.216C306.197 46.176 306.005 47.392 305.973 48.864C305.973 50.208 306.165 51.36 306.549 52.32C306.933 53.28 307.509 54.016 308.277 54.528C309.045 55.008 309.989 55.248 311.109 55.248C312.389 55.248 313.477 55.008 314.373 54.528C315.301 54.048 316.037 53.328 316.581 52.368L323.061 53.952C321.909 56.128 320.341 57.76 318.357 58.848C316.405 59.936 314.021 60.48 311.205 60.48ZM334.64 37.92V60H327.488V37.92H334.64ZM341.024 45.408C340.64 45.024 340.224 44.72 339.776 44.496C339.36 44.272 338.832 44.16 338.192 44.16C337.488 44.16 336.864 44.352 336.32 44.736C335.776 45.12 335.36 45.68 335.072 46.416C334.784 47.152 334.64 48.048 334.64 49.104L332.912 46.56C332.912 44.8 333.248 43.232 333.92 41.856C334.624 40.48 335.536 39.392 336.656 38.592C337.776 37.792 338.944 37.392 340.16 37.392C340.96 37.392 341.728 37.552 342.464 37.872C343.2 38.192 343.76 38.64 344.144 39.216L341.024 45.408ZM345.7 37.92H353.428L358.516 50.16L363.556 37.92H371.284L358.516 62.592L345.7 37.92ZM373.556 29.616C373.556 28.464 373.972 27.536 374.804 26.832C375.636 26.096 376.628 25.728 377.78 25.728C378.964 25.728 379.956 26.096 380.756 26.832C381.588 27.536 382.004 28.464 382.004 29.616C382.004 30.768 381.588 31.712 380.756 32.448C379.956 33.184 378.964 33.552 377.78 33.552C376.628 33.552 375.636 33.184 374.804 32.448C373.972 31.712 373.556 30.768 373.556 29.616ZM374.276 37.92H381.284V60H374.276V37.92ZM393.35 48.96C393.35 50.144 393.606 51.168 394.118 52.032C394.63 52.864 395.334 53.52 396.23 54C397.158 54.48 398.15 54.72 399.206 54.72C400.102 54.72 400.95 54.592 401.75 54.336C402.582 54.048 403.334 53.664 404.006 53.184C404.71 52.704 405.286 52.112 405.734 51.408V58.464C404.966 59.072 404.006 59.568 402.854 59.952C401.702 60.304 400.294 60.48 398.63 60.48C396.198 60.48 394.006 60 392.054 59.04C390.134 58.08 388.614 56.736 387.494 55.008C386.406 53.28 385.862 51.264 385.862 48.96C385.862 46.624 386.406 44.608 387.494 42.912C388.614 41.184 390.134 39.84 392.054 38.88C394.006 37.92 396.198 37.44 398.63 37.44C400.294 37.44 401.702 37.632 402.854 38.016C404.006 38.368 404.966 38.816 405.734 39.36V46.464C405.286 45.76 404.694 45.168 403.958 44.688C403.254 44.208 402.486 43.84 401.654 43.584C400.822 43.328 400.006 43.2 399.206 43.2C398.15 43.2 397.158 43.456 396.23 43.968C395.334 44.48 394.63 45.168 394.118 46.032C393.606 46.896 393.35 47.872 393.35 48.96ZM422.205 60.48C419.645 60.48 417.421 60.016 415.533 59.088C413.677 58.128 412.237 56.784 411.213 55.056C410.189 53.328 409.677 51.296 409.677 48.96C409.677 46.592 410.173 44.544 411.165 42.816C412.157 41.088 413.581 39.76 415.437 38.832C417.325 37.904 419.549 37.44 422.109 37.44C424.669 37.44 426.829 37.888 428.589 38.784C430.349 39.648 431.693 40.912 432.621 42.576C433.549 44.24 434.013 46.256 434.013 48.624C434.013 48.976 434.013 49.328 434.013 49.68C434.013 50 433.981 50.272 433.917 50.496H413.757V46.464H427.389L425.661 48.672C425.821 48.448 425.949 48.176 426.045 47.856C426.173 47.504 426.237 47.216 426.237 46.992C426.237 46.032 426.061 45.2 425.709 44.496C425.357 43.792 424.861 43.248 424.221 42.864C423.581 42.48 422.829 42.288 421.965 42.288C420.877 42.288 419.965 42.528 419.229 43.008C418.493 43.488 417.933 44.224 417.549 45.216C417.197 46.176 417.005 47.392 416.973 48.864C416.973 50.208 417.165 51.36 417.549 52.32C417.933 53.28 418.509 54.016 419.277 54.528C420.045 55.008 420.989 55.248 422.109 55.248C423.389 55.248 424.477 55.008 425.373 54.528C426.301 54.048 427.037 53.328 427.581 52.368L434.061 53.952C432.909 56.128 431.341 57.76 429.357 58.848C427.405 59.936 425.021 60.48 422.205 60.48ZM439.688 51.984C440.808 52.912 441.816 53.648 442.712 54.192C443.64 54.704 444.456 55.072 445.16 55.296C445.864 55.488 446.472 55.584 446.984 55.584C447.72 55.584 448.264 55.424 448.616 55.104C448.968 54.784 449.144 54.368 449.144 53.856C449.144 53.376 449 52.976 448.712 52.656C448.424 52.304 447.928 51.968 447.224 51.648C446.552 51.328 445.624 50.992 444.44 50.64C443.384 50.256 442.376 49.808 441.416 49.296C440.488 48.752 439.72 48.032 439.112 47.136C438.504 46.24 438.2 45.088 438.2 43.68C438.2 42.336 438.552 41.2 439.256 40.272C439.992 39.344 440.968 38.64 442.184 38.16C443.432 37.68 444.856 37.44 446.456 37.44C447.736 37.44 448.92 37.584 450.008 37.872C451.128 38.16 452.168 38.544 453.128 39.024C454.12 39.504 455.048 40.064 455.912 40.704L453.32 45.408C452.392 44.544 451.336 43.84 450.152 43.296C448.968 42.72 447.88 42.432 446.888 42.432C446.216 42.432 445.704 42.56 445.352 42.816C445.032 43.072 444.872 43.408 444.872 43.824C444.872 44.304 445.064 44.704 445.448 45.024C445.864 45.344 446.44 45.648 447.176 45.936C447.944 46.192 448.872 46.528 449.96 46.944C451.112 47.36 452.168 47.84 453.128 48.384C454.12 48.928 454.904 49.616 455.48 50.448C456.088 51.28 456.392 52.384 456.392 53.76C456.392 56.128 455.656 57.92 454.184 59.136C452.744 60.32 450.712 60.912 448.088 60.912C446.488 60.912 445 60.72 443.624 60.336C442.28 59.984 441.032 59.504 439.88 58.896C438.728 58.256 437.656 57.552 436.664 56.784L439.688 51.984Z" fill="#143274"/>
</svg>
