<svg width="445" height="73" viewBox="0 0 445 73" fill="none" xmlns="http://www.w3.org/2000/svg">
<path d="M20.8 7.072C25.536 7.072 29.6747 8.01066 33.216 9.888C36.7573 11.7653 39.488 14.4107 41.408 17.824C43.3707 21.1947 44.352 25.0987 44.352 29.536C44.352 33.9307 43.3707 37.8347 41.408 41.248C39.488 44.6613 36.736 47.3067 33.152 49.184C29.6107 51.0613 25.4933 52 20.8 52H3.968V7.072H20.8ZM20.096 42.528C24.2347 42.528 27.456 41.3973 29.76 39.136C32.064 36.8747 33.216 33.6747 33.216 29.536C33.216 25.3973 32.064 22.176 29.76 19.872C27.456 17.568 24.2347 16.416 20.096 16.416H14.912V42.528H20.096ZM84.132 33.568C84.132 34.592 84.068 35.6587 83.94 36.768H59.172C59.3427 38.9867 60.0467 40.6933 61.284 41.888C62.564 43.04 64.1213 43.616 65.956 43.616C68.6867 43.616 70.5853 42.464 71.652 40.16H83.3C82.7027 42.5067 81.6147 44.6187 80.036 46.496C78.5 48.3733 76.5587 49.8453 74.212 50.912C71.8653 51.9787 69.2413 52.512 66.34 52.512C62.8413 52.512 59.7267 51.7653 56.996 50.272C54.2653 48.7787 52.132 46.6453 50.596 43.872C49.06 41.0987 48.292 37.856 48.292 34.144C48.292 30.432 49.0387 27.1893 50.532 24.416C52.068 21.6427 54.2013 19.5093 56.932 18.016C59.6627 16.5227 62.7987 15.776 66.34 15.776C69.796 15.776 72.868 16.5013 75.556 17.952C78.244 19.4027 80.3347 21.472 81.828 24.16C83.364 26.848 84.132 29.984 84.132 33.568ZM72.932 30.688C72.932 28.8107 72.292 27.3173 71.012 26.208C69.732 25.0987 68.132 24.544 66.212 24.544C64.3773 24.544 62.82 25.0773 61.54 26.144C60.3027 27.2107 59.5347 28.7253 59.236 30.688H72.932ZM105.97 41.76L113.714 16.288H125.362L112.69 52H99.1855L86.5135 16.288H98.2255L105.97 41.76ZM163.632 33.568C163.632 34.592 163.568 35.6587 163.44 36.768H138.672C138.843 38.9867 139.547 40.6933 140.784 41.888C142.064 43.04 143.621 43.616 145.456 43.616C148.187 43.616 150.085 42.464 151.152 40.16H162.8C162.203 42.5067 161.115 44.6187 159.536 46.496C158 48.3733 156.059 49.8453 153.712 50.912C151.365 51.9787 148.741 52.512 145.84 52.512C142.341 52.512 139.227 51.7653 136.496 50.272C133.765 48.7787 131.632 46.6453 130.096 43.872C128.56 41.0987 127.792 37.856 127.792 34.144C127.792 30.432 128.539 27.1893 130.032 24.416C131.568 21.6427 133.701 19.5093 136.432 18.016C139.163 16.5227 142.299 15.776 145.84 15.776C149.296 15.776 152.368 16.5013 155.056 17.952C157.744 19.4027 159.835 21.472 161.328 24.16C162.864 26.848 163.632 29.984 163.632 33.568ZM152.432 30.688C152.432 28.8107 151.792 27.3173 150.512 26.208C149.232 25.0987 147.632 24.544 145.712 24.544C143.877 24.544 142.32 25.0773 141.04 26.144C139.803 27.2107 139.035 28.7253 138.736 30.688H152.432ZM180.35 4.64V52H169.406V4.64H180.35ZM204.537 52.512C201.038 52.512 197.881 51.7653 195.065 50.272C192.291 48.7787 190.094 46.6453 188.473 43.872C186.894 41.0987 186.105 37.856 186.105 34.144C186.105 30.4747 186.915 27.2533 188.536 24.48C190.158 21.664 192.377 19.5093 195.193 18.016C198.009 16.5227 201.166 15.776 204.665 15.776C208.163 15.776 211.321 16.5227 214.137 18.016C216.953 19.5093 219.171 21.664 220.793 24.48C222.414 27.2533 223.225 30.4747 223.225 34.144C223.225 37.8133 222.393 41.056 220.729 43.872C219.107 46.6453 216.867 48.7787 214.009 50.272C211.193 51.7653 208.035 52.512 204.537 52.512ZM204.537 43.04C206.627 43.04 208.398 42.272 209.849 40.736C211.342 39.2 212.089 37.0027 212.089 34.144C212.089 31.2853 211.363 29.088 209.913 27.552C208.505 26.016 206.755 25.248 204.665 25.248C202.531 25.248 200.761 26.016 199.353 27.552C197.945 29.0453 197.241 31.2427 197.241 34.144C197.241 37.0027 197.923 39.2 199.289 40.736C200.697 42.272 202.446 43.04 204.537 43.04ZM239.975 21.344C241.041 19.68 242.513 18.336 244.391 17.312C246.268 16.288 248.465 15.776 250.983 15.776C253.927 15.776 256.593 16.5227 258.983 18.016C261.372 19.5093 263.249 21.6427 264.615 24.416C266.023 27.1893 266.727 30.4107 266.727 34.08C266.727 37.7493 266.023 40.992 264.615 43.808C263.249 46.5813 261.372 48.736 258.983 50.272C256.593 51.7653 253.927 52.512 250.983 52.512C248.508 52.512 246.311 52 244.391 50.976C242.513 49.952 241.041 48.6293 239.975 47.008V69.024H229.031V16.288H239.975V21.344ZM255.591 34.08C255.591 31.3493 254.823 29.216 253.287 27.68C251.793 26.1013 249.937 25.312 247.719 25.312C245.543 25.312 243.687 26.1013 242.151 27.68C240.657 29.2587 239.911 31.4133 239.911 34.144C239.911 36.8747 240.657 39.0293 242.151 40.608C243.687 42.1867 245.543 42.976 247.719 42.976C249.895 42.976 251.751 42.1867 253.287 40.608C254.823 38.9867 255.591 36.8107 255.591 34.08ZM318.036 15.904C322.473 15.904 325.993 17.248 328.596 19.936C331.241 22.624 332.564 26.3573 332.564 31.136V52H321.684V32.608C321.684 30.304 321.065 28.5333 319.828 27.296C318.633 26.016 316.969 25.376 314.836 25.376C312.703 25.376 311.017 26.016 309.78 27.296C308.585 28.5333 307.988 30.304 307.988 32.608V52H297.108V32.608C297.108 30.304 296.489 28.5333 295.252 27.296C294.057 26.016 292.393 25.376 290.26 25.376C288.127 25.376 286.441 26.016 285.204 27.296C284.009 28.5333 283.412 30.304 283.412 32.608V52H272.468V16.288H283.412V20.768C284.521 19.2747 285.972 18.1013 287.764 17.248C289.556 16.352 291.583 15.904 293.844 15.904C296.532 15.904 298.921 16.48 301.012 17.632C303.145 18.784 304.809 20.4267 306.004 22.56C307.241 20.5973 308.927 18.9973 311.06 17.76C313.193 16.5227 315.519 15.904 318.036 15.904ZM373.882 33.568C373.882 34.592 373.818 35.6587 373.69 36.768H348.922C349.093 38.9867 349.797 40.6933 351.034 41.888C352.314 43.04 353.871 43.616 355.706 43.616C358.437 43.616 360.335 42.464 361.402 40.16H373.05C372.453 42.5067 371.365 44.6187 369.786 46.496C368.25 48.3733 366.309 49.8453 363.962 50.912C361.615 51.9787 358.991 52.512 356.09 52.512C352.591 52.512 349.477 51.7653 346.746 50.272C344.015 48.7787 341.882 46.6453 340.346 43.872C338.81 41.0987 338.042 37.856 338.042 34.144C338.042 30.432 338.789 27.1893 340.282 24.416C341.818 21.6427 343.951 19.5093 346.682 18.016C349.413 16.5227 352.549 15.776 356.09 15.776C359.546 15.776 362.618 16.5013 365.306 17.952C367.994 19.4027 370.085 21.472 371.578 24.16C373.114 26.848 373.882 29.984 373.882 33.568ZM362.682 30.688C362.682 28.8107 362.042 27.3173 360.762 26.208C359.482 25.0987 357.882 24.544 355.962 24.544C354.127 24.544 352.57 25.0773 351.29 26.144C350.053 27.2107 349.285 28.7253 348.986 30.688H362.682ZM401.416 15.904C405.597 15.904 408.925 17.2693 411.4 20C413.917 22.688 415.176 26.4 415.176 31.136V52H404.296V32.608C404.296 30.2187 403.677 28.3627 402.44 27.04C401.202 25.7173 399.538 25.056 397.448 25.056C395.357 25.056 393.693 25.7173 392.456 27.04C391.218 28.3627 390.6 30.2187 390.6 32.608V52H379.656V16.288H390.6V21.024C391.709 19.4453 393.202 18.208 395.08 17.312C396.957 16.3733 399.069 15.904 401.416 15.904ZM442.685 42.72V52H437.117C433.149 52 430.055 51.04 427.837 49.12C425.618 47.1573 424.509 43.9787 424.509 39.584V25.376H420.157V16.288H424.509V7.584H435.453V16.288H442.621V25.376H435.453V39.712C435.453 40.7787 435.709 41.5467 436.221 42.016C436.733 42.4853 437.586 42.72 438.781 42.72H442.685Z" fill="#F0F0F0"/>
<path d="M64.6 26.304C68.152 26.304 71.256 27.008 73.912 28.416C76.568 29.824 78.616 31.808 80.056 34.368C81.528 36.896 82.264 39.824 82.264 43.152C82.264 46.448 81.528 49.376 80.056 51.936C78.616 54.496 76.552 56.48 73.864 57.888C71.208 59.296 68.12 60 64.6 60H51.976V26.304H64.6ZM64.072 52.896C67.176 52.896 69.592 52.048 71.32 50.352C73.048 48.656 73.912 46.256 73.912 43.152C73.912 40.048 73.048 37.632 71.32 35.904C69.592 34.176 67.176 33.312 64.072 33.312H60.184V52.896H64.072ZM112.099 46.176C112.099 46.944 112.051 47.744 111.955 48.576H93.379C93.507 50.24 94.035 51.52 94.963 52.416C95.923 53.28 97.091 53.712 98.467 53.712C100.515 53.712 101.939 52.848 102.739 51.12H111.475C111.027 52.88 110.211 54.464 109.027 55.872C107.875 57.28 106.419 58.384 104.659 59.184C102.899 59.984 100.931 60.384 98.755 60.384C96.131 60.384 93.795 59.824 91.747 58.704C89.699 57.584 88.099 55.984 86.947 53.904C85.795 51.824 85.219 49.392 85.219 46.608C85.219 43.824 85.779 41.392 86.899 39.312C88.051 37.232 89.651 35.632 91.699 34.512C93.747 33.392 96.099 32.832 98.755 32.832C101.347 32.832 103.651 33.376 105.667 34.464C107.683 35.552 109.251 37.104 110.371 39.12C111.523 41.136 112.099 43.488 112.099 46.176ZM103.699 44.016C103.699 42.608 103.219 41.488 102.259 40.656C101.299 39.824 100.099 39.408 98.659 39.408C97.283 39.408 96.115 39.808 95.155 40.608C94.227 41.408 93.651 42.544 93.427 44.016H103.699ZM128.477 52.32L134.285 33.216H143.021L133.517 60H123.389L113.885 33.216H122.669L128.477 52.32ZM171.724 46.176C171.724 46.944 171.676 47.744 171.58 48.576H153.004C153.132 50.24 153.66 51.52 154.588 52.416C155.548 53.28 156.716 53.712 158.092 53.712C160.14 53.712 161.564 52.848 162.364 51.12H171.1C170.652 52.88 169.836 54.464 168.652 55.872C167.5 57.28 166.044 58.384 164.284 59.184C162.524 59.984 160.556 60.384 158.38 60.384C155.756 60.384 153.42 59.824 151.372 58.704C149.324 57.584 147.724 55.984 146.572 53.904C145.42 51.824 144.844 49.392 144.844 46.608C144.844 43.824 145.404 41.392 146.524 39.312C147.676 37.232 149.276 35.632 151.324 34.512C153.372 33.392 155.724 32.832 158.38 32.832C160.972 32.832 163.276 33.376 165.292 34.464C167.308 35.552 168.876 37.104 169.996 39.12C171.148 41.136 171.724 43.488 171.724 46.176ZM163.324 44.016C163.324 42.608 162.844 41.488 161.884 40.656C160.924 39.824 159.724 39.408 158.284 39.408C156.908 39.408 155.74 39.808 154.78 40.608C153.852 41.408 153.276 42.544 153.052 44.016H163.324ZM184.262 24.48V60H176.054V24.48H184.262ZM202.402 60.384C199.778 60.384 197.41 59.824 195.298 58.704C193.218 57.584 191.57 55.984 190.354 53.904C189.17 51.824 188.578 49.392 188.578 46.608C188.578 43.856 189.186 41.44 190.402 39.36C191.618 37.248 193.282 35.632 195.394 34.512C197.506 33.392 199.874 32.832 202.498 32.832C205.122 32.832 207.49 33.392 209.602 34.512C211.714 35.632 213.378 37.248 214.594 39.36C215.81 41.44 216.418 43.856 216.418 46.608C216.418 49.36 215.794 51.792 214.546 53.904C213.33 55.984 211.65 57.584 209.506 58.704C207.394 59.824 205.026 60.384 202.402 60.384ZM202.402 53.28C203.97 53.28 205.298 52.704 206.386 51.552C207.506 50.4 208.066 48.752 208.066 46.608C208.066 44.464 207.522 42.816 206.434 41.664C205.378 40.512 204.066 39.936 202.498 39.936C200.898 39.936 199.57 40.512 198.514 41.664C197.458 42.784 196.93 44.432 196.93 46.608C196.93 48.752 197.442 50.4 198.466 51.552C199.522 52.704 200.834 53.28 202.402 53.28ZM228.981 37.008C229.781 35.76 230.885 34.752 232.293 33.984C233.701 33.216 235.349 32.832 237.237 32.832C239.445 32.832 241.445 33.392 243.237 34.512C245.029 35.632 246.437 37.232 247.461 39.312C248.517 41.392 249.045 43.808 249.045 46.56C249.045 49.312 248.517 51.744 247.461 53.856C246.437 55.936 245.029 57.552 243.237 58.704C241.445 59.824 239.445 60.384 237.237 60.384C235.381 60.384 233.733 60 232.293 59.232C230.885 58.464 229.781 57.472 228.981 56.256V72.768H220.773V33.216H228.981V37.008ZM240.693 46.56C240.693 44.512 240.117 42.912 238.965 41.76C237.845 40.576 236.453 39.984 234.789 39.984C233.157 39.984 231.765 40.576 230.613 41.76C229.493 42.944 228.933 44.56 228.933 46.608C228.933 48.656 229.493 50.272 230.613 51.456C231.765 52.64 233.157 53.232 234.789 53.232C236.421 53.232 237.813 52.64 238.965 51.456C240.117 50.24 240.693 48.608 240.693 46.56ZM287.527 32.928C290.855 32.928 293.495 33.936 295.447 35.952C297.431 37.968 298.423 40.768 298.423 44.352V60H290.263V45.456C290.263 43.728 289.799 42.4 288.871 41.472C287.975 40.512 286.727 40.032 285.127 40.032C283.527 40.032 282.263 40.512 281.335 41.472C280.439 42.4 279.991 43.728 279.991 45.456V60H271.831V45.456C271.831 43.728 271.367 42.4 270.439 41.472C269.543 40.512 268.295 40.032 266.695 40.032C265.095 40.032 263.831 40.512 262.903 41.472C262.007 42.4 261.559 43.728 261.559 45.456V60H253.351V33.216H261.559V36.576C262.391 35.456 263.479 34.576 264.823 33.936C266.167 33.264 267.687 32.928 269.383 32.928C271.399 32.928 273.191 33.36 274.759 34.224C276.359 35.088 277.607 36.32 278.503 37.92C279.431 36.448 280.695 35.248 282.295 34.32C283.895 33.392 285.639 32.928 287.527 32.928ZM329.411 46.176C329.411 46.944 329.364 47.744 329.268 48.576H310.692C310.82 50.24 311.348 51.52 312.276 52.416C313.236 53.28 314.404 53.712 315.78 53.712C317.828 53.712 319.252 52.848 320.052 51.12H328.788C328.34 52.88 327.524 54.464 326.34 55.872C325.188 57.28 323.732 58.384 321.972 59.184C320.212 59.984 318.244 60.384 316.068 60.384C313.444 60.384 311.108 59.824 309.06 58.704C307.012 57.584 305.412 55.984 304.26 53.904C303.108 51.824 302.532 49.392 302.532 46.608C302.532 43.824 303.092 41.392 304.212 39.312C305.364 37.232 306.964 35.632 309.012 34.512C311.06 33.392 313.412 32.832 316.068 32.832C318.66 32.832 320.964 33.376 322.98 34.464C324.996 35.552 326.564 37.104 327.684 39.12C328.836 41.136 329.411 43.488 329.411 46.176ZM321.012 44.016C321.012 42.608 320.532 41.488 319.572 40.656C318.612 39.824 317.412 39.408 315.972 39.408C314.596 39.408 313.428 39.808 312.468 40.608C311.54 41.408 310.964 42.544 310.74 44.016H321.012ZM350.062 32.928C353.198 32.928 355.694 33.952 357.55 36C359.438 38.016 360.382 40.8 360.382 44.352V60H352.222V45.456C352.222 43.664 351.758 42.272 350.83 41.28C349.902 40.288 348.654 39.792 347.086 39.792C345.518 39.792 344.27 40.288 343.342 41.28C342.414 42.272 341.95 43.664 341.95 45.456V60H333.742V33.216H341.95V36.768C342.782 35.584 343.902 34.656 345.31 33.984C346.718 33.28 348.302 32.928 350.062 32.928ZM381.013 53.04V60H376.837C373.861 60 371.541 59.28 369.877 57.84C368.213 56.368 367.381 53.984 367.381 50.688V40.032H364.117V33.216H367.381V26.688H375.589V33.216H380.965V40.032H375.589V50.784C375.589 51.584 375.781 52.16 376.165 52.512C376.549 52.864 377.189 53.04 378.085 53.04H381.013Z" fill="#143274"/>
</svg>
