<svg width="767" height="73" viewBox="0 0 767 73" fill="none" xmlns="http://www.w3.org/2000/svg">
<path d="M3.726 11.2H12.852V35.932C12.852 37.84 13.356 39.388 14.364 40.576C15.372 41.764 16.884 42.358 18.9 42.358C20.952 42.358 22.482 41.764 23.49 40.576C24.498 39.388 25.002 37.84 25.002 35.932V11.2H34.128V36.58C34.128 38.956 33.732 41.026 32.94 42.79C32.184 44.554 31.104 46.012 29.7 47.164C28.332 48.28 26.712 49.126 24.84 49.702C23.004 50.278 21.024 50.566 18.9 50.566C16.776 50.566 14.796 50.278 12.96 49.702C11.124 49.126 9.504 48.28 8.1 47.164C6.732 46.012 5.652 44.554 4.86 42.79C4.104 41.026 3.726 38.956 3.726 36.58V11.2ZM42.3993 39.982C43.6593 41.026 44.7933 41.854 45.8013 42.466C46.8453 43.042 47.7633 43.456 48.5553 43.708C49.3473 43.924 50.0313 44.032 50.6073 44.032C51.4353 44.032 52.0473 43.852 52.4433 43.492C52.8393 43.132 53.0373 42.664 53.0373 42.088C53.0373 41.548 52.8753 41.098 52.5513 40.738C52.2273 40.342 51.6693 39.964 50.8773 39.604C50.1213 39.244 49.0773 38.866 47.7453 38.47C46.5573 38.038 45.4233 37.534 44.3433 36.958C43.2993 36.346 42.4353 35.536 41.7513 34.528C41.0673 33.52 40.7253 32.224 40.7253 30.64C40.7253 29.128 41.1213 27.85 41.9133 26.806C42.7413 25.762 43.8393 24.97 45.2073 24.43C46.6113 23.89 48.2133 23.62 50.0133 23.62C51.4533 23.62 52.7853 23.782 54.0093 24.106C55.2693 24.43 56.4393 24.862 57.5193 25.402C58.6353 25.942 59.6793 26.572 60.6513 27.292L57.7353 32.584C56.6913 31.612 55.5033 30.82 54.1713 30.208C52.8393 29.56 51.6153 29.236 50.4993 29.236C49.7433 29.236 49.1673 29.38 48.7713 29.668C48.4113 29.956 48.2313 30.334 48.2313 30.802C48.2313 31.342 48.4473 31.792 48.8793 32.152C49.3473 32.512 49.9953 32.854 50.8233 33.178C51.6873 33.466 52.7313 33.844 53.9553 34.312C55.2513 34.78 56.4393 35.32 57.5193 35.932C58.6353 36.544 59.5173 37.318 60.1653 38.254C60.8493 39.19 61.1913 40.432 61.1913 41.98C61.1913 44.644 60.3633 46.66 58.7073 48.028C57.0873 49.36 54.8013 50.026 51.8493 50.026C50.0493 50.026 48.3753 49.81 46.8273 49.378C45.3153 48.982 43.9113 48.442 42.6153 47.758C41.3193 47.038 40.1133 46.246 38.9973 45.382L42.3993 39.982ZM78.3122 49.54C75.4322 49.54 72.9302 49.018 70.8062 47.974C68.7182 46.894 67.0982 45.382 65.9462 43.438C64.7942 41.494 64.2182 39.208 64.2182 36.58C64.2182 33.916 64.7762 31.612 65.8922 29.668C67.0082 27.724 68.6102 26.23 70.6982 25.186C72.8222 24.142 75.3242 23.62 78.2042 23.62C81.0842 23.62 83.5142 24.124 85.4942 25.132C87.4742 26.104 88.9862 27.526 90.0302 29.398C91.0742 31.27 91.5962 33.538 91.5962 36.202C91.5962 36.598 91.5962 36.994 91.5962 37.39C91.5962 37.75 91.5602 38.056 91.4882 38.308H68.8082V33.772H84.1442L82.2002 36.256C82.3802 36.004 82.5242 35.698 82.6322 35.338C82.7762 34.942 82.8482 34.618 82.8482 34.366C82.8482 33.286 82.6502 32.35 82.2542 31.558C81.8582 30.766 81.3002 30.154 80.5802 29.722C79.8602 29.29 79.0142 29.074 78.0422 29.074C76.8182 29.074 75.7922 29.344 74.9642 29.884C74.1362 30.424 73.5062 31.252 73.0742 32.368C72.6782 33.448 72.4622 34.816 72.4262 36.472C72.4262 37.984 72.6422 39.28 73.0742 40.36C73.5062 41.44 74.1542 42.268 75.0182 42.844C75.8822 43.384 76.9442 43.654 78.2042 43.654C79.6442 43.654 80.8682 43.384 81.8762 42.844C82.9202 42.304 83.7482 41.494 84.3602 40.414L91.6502 42.196C90.3542 44.644 88.5902 46.48 86.3582 47.704C84.1622 48.928 81.4802 49.54 78.3122 49.54ZM104.677 24.16V49H96.6313V24.16H104.677ZM111.859 32.584C111.427 32.152 110.959 31.81 110.455 31.558C109.987 31.306 109.393 31.18 108.673 31.18C107.881 31.18 107.179 31.396 106.567 31.828C105.955 32.26 105.487 32.89 105.163 33.718C104.839 34.546 104.677 35.554 104.677 36.742L102.733 33.88C102.733 31.9 103.111 30.136 103.867 28.588C104.659 27.04 105.685 25.816 106.945 24.916C108.205 24.016 109.519 23.566 110.887 23.566C111.787 23.566 112.651 23.746 113.479 24.106C114.307 24.466 114.937 24.97 115.369 25.618L111.859 32.584ZM141.88 49V41.494H160.942V49H141.88ZM141.88 18.706V11.2H160.942V18.706H141.88ZM141.88 32.8V25.456H159.862V32.8H141.88ZM135.832 11.2H144.58V49H135.832V11.2ZM183.489 24.16H192.561L183.057 36.256L193.101 49H184.029L178.845 41.764L173.769 49H164.373L174.579 36.256L164.913 24.16H174.309L178.845 30.694L183.489 24.16ZM204.399 60.88H196.245V24.16H204.399V60.88ZM224.703 36.58C224.703 39.46 224.127 41.89 222.975 43.87C221.859 45.85 220.401 47.344 218.601 48.352C216.837 49.36 214.929 49.864 212.877 49.864C210.717 49.864 208.845 49.324 207.261 48.244C205.713 47.128 204.525 45.58 203.697 43.6C202.869 41.584 202.455 39.244 202.455 36.58C202.455 33.88 202.869 31.54 203.697 29.56C204.525 27.58 205.713 26.05 207.261 24.97C208.845 23.854 210.717 23.296 212.877 23.296C214.929 23.296 216.837 23.8 218.601 24.808C220.401 25.816 221.859 27.31 222.975 29.29C224.127 31.234 224.703 33.664 224.703 36.58ZM216.117 36.58C216.117 35.284 215.847 34.186 215.307 33.286C214.767 32.386 214.047 31.702 213.147 31.234C212.247 30.766 211.257 30.532 210.177 30.532C209.241 30.532 208.323 30.766 207.423 31.234C206.559 31.666 205.839 32.332 205.263 33.232C204.687 34.132 204.399 35.248 204.399 36.58C204.399 37.912 204.687 39.028 205.263 39.928C205.839 40.828 206.559 41.512 207.423 41.98C208.323 42.412 209.241 42.628 210.177 42.628C211.257 42.628 212.247 42.394 213.147 41.926C214.047 41.458 214.767 40.774 215.307 39.874C215.847 38.974 216.117 37.876 216.117 36.58ZM242.263 49.54C239.383 49.54 236.881 49.018 234.757 47.974C232.669 46.894 231.049 45.382 229.897 43.438C228.745 41.494 228.169 39.208 228.169 36.58C228.169 33.916 228.727 31.612 229.843 29.668C230.959 27.724 232.561 26.23 234.649 25.186C236.773 24.142 239.275 23.62 242.155 23.62C245.035 23.62 247.465 24.124 249.445 25.132C251.425 26.104 252.937 27.526 253.981 29.398C255.025 31.27 255.547 33.538 255.547 36.202C255.547 36.598 255.547 36.994 255.547 37.39C255.547 37.75 255.511 38.056 255.439 38.308H232.759V33.772H248.095L246.151 36.256C246.331 36.004 246.475 35.698 246.583 35.338C246.727 34.942 246.799 34.618 246.799 34.366C246.799 33.286 246.601 32.35 246.205 31.558C245.809 30.766 245.251 30.154 244.531 29.722C243.811 29.29 242.965 29.074 241.993 29.074C240.769 29.074 239.743 29.344 238.915 29.884C238.087 30.424 237.457 31.252 237.025 32.368C236.629 33.448 236.413 34.816 236.377 36.472C236.377 37.984 236.593 39.28 237.025 40.36C237.457 41.44 238.105 42.268 238.969 42.844C239.833 43.384 240.895 43.654 242.155 43.654C243.595 43.654 244.819 43.384 245.827 42.844C246.871 42.304 247.699 41.494 248.311 40.414L255.601 42.196C254.305 44.644 252.541 46.48 250.309 47.704C248.113 48.928 245.431 49.54 242.263 49.54ZM268.628 24.16V49H260.582V24.16H268.628ZM275.81 32.584C275.378 32.152 274.91 31.81 274.406 31.558C273.938 31.306 273.344 31.18 272.624 31.18C271.832 31.18 271.13 31.396 270.518 31.828C269.906 32.26 269.438 32.89 269.114 33.718C268.79 34.546 268.628 35.554 268.628 36.742L266.684 33.88C266.684 31.9 267.062 30.136 267.818 28.588C268.61 27.04 269.636 25.816 270.896 24.916C272.156 24.016 273.47 23.566 274.838 23.566C275.738 23.566 276.602 23.746 277.43 24.106C278.258 24.466 278.888 24.97 279.32 25.618L275.81 32.584ZM282.298 14.818C282.298 13.522 282.766 12.478 283.702 11.686C284.638 10.858 285.754 10.444 287.05 10.444C288.382 10.444 289.498 10.858 290.398 11.686C291.334 12.478 291.802 13.522 291.802 14.818C291.802 16.114 291.334 17.176 290.398 18.004C289.498 18.832 288.382 19.246 287.05 19.246C285.754 19.246 284.638 18.832 283.702 18.004C282.766 17.176 282.298 16.114 282.298 14.818ZM283.108 24.16H290.992V49H283.108V24.16ZM310.343 49.54C307.463 49.54 304.961 49.018 302.837 47.974C300.749 46.894 299.129 45.382 297.977 43.438C296.825 41.494 296.249 39.208 296.249 36.58C296.249 33.916 296.807 31.612 297.923 29.668C299.039 27.724 300.641 26.23 302.729 25.186C304.853 24.142 307.355 23.62 310.235 23.62C313.115 23.62 315.545 24.124 317.525 25.132C319.505 26.104 321.017 27.526 322.061 29.398C323.105 31.27 323.627 33.538 323.627 36.202C323.627 36.598 323.627 36.994 323.627 37.39C323.627 37.75 323.591 38.056 323.519 38.308H300.839V33.772H316.175L314.231 36.256C314.411 36.004 314.555 35.698 314.663 35.338C314.807 34.942 314.879 34.618 314.879 34.366C314.879 33.286 314.681 32.35 314.285 31.558C313.889 30.766 313.331 30.154 312.611 29.722C311.891 29.29 311.045 29.074 310.073 29.074C308.849 29.074 307.823 29.344 306.995 29.884C306.167 30.424 305.537 31.252 305.105 32.368C304.709 33.448 304.493 34.816 304.457 36.472C304.457 37.984 304.673 39.28 305.105 40.36C305.537 41.44 306.185 42.268 307.049 42.844C307.913 43.384 308.975 43.654 310.235 43.654C311.675 43.654 312.899 43.384 313.907 42.844C314.951 42.304 315.779 41.494 316.391 40.414L323.681 42.196C322.385 44.644 320.621 46.48 318.389 47.704C316.193 48.928 313.511 49.54 310.343 49.54ZM344.809 33.88C344.809 32.404 344.521 31.27 343.945 30.478C343.405 29.686 342.487 29.29 341.191 29.29C340.327 29.29 339.571 29.47 338.923 29.83C338.275 30.19 337.771 30.712 337.411 31.396C337.051 32.08 336.871 32.908 336.871 33.88V49H328.663V24.16H336.871V27.886C337.591 26.518 338.563 25.456 339.787 24.7C341.047 23.944 342.595 23.566 344.431 23.566C347.527 23.566 349.777 24.394 351.181 26.05C352.585 27.706 353.287 30.028 353.287 33.016V49H344.809V33.88ZM366.581 36.58C366.581 37.912 366.869 39.064 367.445 40.036C368.021 40.972 368.813 41.71 369.821 42.25C370.865 42.79 371.981 43.06 373.169 43.06C374.177 43.06 375.131 42.916 376.031 42.628C376.967 42.304 377.813 41.872 378.569 41.332C379.361 40.792 380.009 40.126 380.513 39.334V47.272C379.649 47.956 378.569 48.514 377.273 48.946C375.977 49.342 374.393 49.54 372.521 49.54C369.785 49.54 367.319 49 365.123 47.92C362.963 46.84 361.253 45.328 359.993 43.384C358.769 41.44 358.157 39.172 358.157 36.58C358.157 33.952 358.769 31.684 359.993 29.776C361.253 27.832 362.963 26.32 365.123 25.24C367.319 24.16 369.785 23.62 372.521 23.62C374.393 23.62 375.977 23.836 377.273 24.268C378.569 24.664 379.649 25.168 380.513 25.78V33.772C380.009 32.98 379.343 32.314 378.515 31.774C377.723 31.234 376.859 30.82 375.923 30.532C374.987 30.244 374.069 30.1 373.169 30.1C371.981 30.1 370.865 30.388 369.821 30.964C368.813 31.54 368.021 32.314 367.445 33.286C366.869 34.258 366.581 35.356 366.581 36.58ZM399.043 49.54C396.163 49.54 393.661 49.018 391.537 47.974C389.449 46.894 387.829 45.382 386.677 43.438C385.525 41.494 384.949 39.208 384.949 36.58C384.949 33.916 385.507 31.612 386.623 29.668C387.739 27.724 389.341 26.23 391.429 25.186C393.553 24.142 396.055 23.62 398.935 23.62C401.815 23.62 404.245 24.124 406.225 25.132C408.205 26.104 409.717 27.526 410.761 29.398C411.805 31.27 412.327 33.538 412.327 36.202C412.327 36.598 412.327 36.994 412.327 37.39C412.327 37.75 412.291 38.056 412.219 38.308H389.539V33.772H404.875L402.931 36.256C403.111 36.004 403.255 35.698 403.363 35.338C403.507 34.942 403.579 34.618 403.579 34.366C403.579 33.286 403.381 32.35 402.985 31.558C402.589 30.766 402.031 30.154 401.311 29.722C400.591 29.29 399.745 29.074 398.773 29.074C397.549 29.074 396.523 29.344 395.695 29.884C394.867 30.424 394.237 31.252 393.805 32.368C393.409 33.448 393.193 34.816 393.157 36.472C393.157 37.984 393.373 39.28 393.805 40.36C394.237 41.44 394.885 42.268 395.749 42.844C396.613 43.384 397.675 43.654 398.935 43.654C400.375 43.654 401.599 43.384 402.607 42.844C403.651 42.304 404.479 41.494 405.091 40.414L412.381 42.196C411.085 44.644 409.321 46.48 407.089 47.704C404.893 48.928 402.211 49.54 399.043 49.54ZM440.409 49V41.494H459.471V49H440.409ZM440.409 18.706V11.2H459.471V18.706H440.409ZM440.409 32.8V25.456H458.391V32.8H440.409ZM434.361 11.2H443.109V49H434.361V11.2ZM482.234 33.88C482.234 32.404 481.946 31.27 481.37 30.478C480.83 29.686 479.912 29.29 478.616 29.29C477.752 29.29 476.996 29.47 476.348 29.83C475.7 30.19 475.196 30.712 474.836 31.396C474.476 32.08 474.296 32.908 474.296 33.88V49H466.088V24.16H474.296V27.886C475.016 26.518 475.988 25.456 477.212 24.7C478.472 23.944 480.02 23.566 481.856 23.566C484.952 23.566 487.202 24.394 488.606 26.05C490.01 27.706 490.712 30.028 490.712 33.016V49H482.234V33.88ZM505.357 6.88V49H497.149V6.88H505.357ZM513.295 33.88C513.295 32.404 513.025 31.27 512.485 30.478C511.945 29.686 511.009 29.29 509.677 29.29C508.813 29.29 508.057 29.488 507.409 29.884C506.761 30.244 506.257 30.766 505.897 31.45C505.537 32.098 505.357 32.908 505.357 33.88H503.953C503.953 31.9 504.277 30.118 504.925 28.534C505.573 26.914 506.545 25.636 507.841 24.7C509.173 23.728 510.865 23.242 512.917 23.242C514.969 23.242 516.607 23.602 517.831 24.322C519.091 25.042 520.009 26.104 520.585 27.508C521.161 28.912 521.449 30.64 521.449 32.692V49H513.295V33.88ZM534.211 41.224C534.211 41.872 534.373 42.43 534.697 42.898C535.021 43.33 535.453 43.672 535.993 43.924C536.533 44.14 537.127 44.248 537.775 44.248C538.711 44.248 539.575 44.05 540.367 43.654C541.159 43.258 541.807 42.664 542.311 41.872C542.815 41.08 543.067 40.108 543.067 38.956L543.931 42.196C543.931 43.78 543.499 45.13 542.635 46.246C541.771 47.326 540.655 48.154 539.287 48.73C537.919 49.27 536.443 49.54 534.859 49.54C533.275 49.54 531.799 49.252 530.431 48.676C529.099 48.064 528.019 47.164 527.191 45.976C526.399 44.788 526.003 43.348 526.003 41.656C526.003 39.28 526.849 37.408 528.541 36.04C530.233 34.636 532.627 33.934 535.723 33.934C537.235 33.934 538.585 34.078 539.773 34.366C540.997 34.654 542.041 35.014 542.905 35.446C543.769 35.878 544.417 36.328 544.849 36.796V40.414C543.985 39.766 542.977 39.28 541.825 38.956C540.709 38.596 539.521 38.416 538.261 38.416C537.289 38.416 536.515 38.524 535.939 38.74C535.363 38.956 534.931 39.28 534.643 39.712C534.355 40.108 534.211 40.612 534.211 41.224ZM530.593 31.774L527.839 26.32C529.243 25.636 530.935 24.988 532.915 24.376C534.895 23.764 537.055 23.458 539.395 23.458C541.591 23.458 543.553 23.782 545.281 24.43C547.009 25.042 548.377 25.942 549.385 27.13C550.393 28.318 550.897 29.776 550.897 31.504V49H543.067V33.34C543.067 32.728 542.959 32.206 542.743 31.774C542.563 31.306 542.275 30.91 541.879 30.586C541.483 30.262 540.979 30.028 540.367 29.884C539.791 29.74 539.125 29.668 538.369 29.668C537.253 29.668 536.155 29.794 535.075 30.046C534.031 30.298 533.113 30.604 532.321 30.964C531.529 31.288 530.953 31.558 530.593 31.774ZM573.148 33.88C573.148 32.404 572.86 31.27 572.284 30.478C571.744 29.686 570.826 29.29 569.53 29.29C568.666 29.29 567.91 29.47 567.262 29.83C566.614 30.19 566.11 30.712 565.75 31.396C565.39 32.08 565.21 32.908 565.21 33.88V49H557.002V24.16H565.21V27.886C565.93 26.518 566.902 25.456 568.126 24.7C569.386 23.944 570.934 23.566 572.77 23.566C575.866 23.566 578.116 24.394 579.52 26.05C580.924 27.706 581.626 30.028 581.626 33.016V49H573.148V33.88ZM594.921 36.58C594.921 37.912 595.209 39.064 595.785 40.036C596.361 40.972 597.153 41.71 598.161 42.25C599.205 42.79 600.321 43.06 601.509 43.06C602.517 43.06 603.471 42.916 604.371 42.628C605.307 42.304 606.153 41.872 606.909 41.332C607.701 40.792 608.349 40.126 608.853 39.334V47.272C607.989 47.956 606.909 48.514 605.613 48.946C604.317 49.342 602.733 49.54 600.861 49.54C598.125 49.54 595.659 49 593.463 47.92C591.303 46.84 589.593 45.328 588.333 43.384C587.109 41.44 586.497 39.172 586.497 36.58C586.497 33.952 587.109 31.684 588.333 29.776C589.593 27.832 591.303 26.32 593.463 25.24C595.659 24.16 598.125 23.62 600.861 23.62C602.733 23.62 604.317 23.836 605.613 24.268C606.909 24.664 607.989 25.168 608.853 25.78V33.772C608.349 32.98 607.683 32.314 606.855 31.774C606.063 31.234 605.199 30.82 604.263 30.532C603.327 30.244 602.409 30.1 601.509 30.1C600.321 30.1 599.205 30.388 598.161 30.964C597.153 31.54 596.361 32.314 595.785 33.286C595.209 34.258 594.921 35.356 594.921 36.58ZM627.383 49.54C624.503 49.54 622.001 49.018 619.877 47.974C617.789 46.894 616.169 45.382 615.017 43.438C613.865 41.494 613.289 39.208 613.289 36.58C613.289 33.916 613.847 31.612 614.963 29.668C616.079 27.724 617.681 26.23 619.769 25.186C621.893 24.142 624.395 23.62 627.275 23.62C630.155 23.62 632.585 24.124 634.565 25.132C636.545 26.104 638.057 27.526 639.101 29.398C640.145 31.27 640.667 33.538 640.667 36.202C640.667 36.598 640.667 36.994 640.667 37.39C640.667 37.75 640.631 38.056 640.559 38.308H617.879V33.772H633.215L631.271 36.256C631.451 36.004 631.595 35.698 631.703 35.338C631.847 34.942 631.919 34.618 631.919 34.366C631.919 33.286 631.721 32.35 631.325 31.558C630.929 30.766 630.371 30.154 629.651 29.722C628.931 29.29 628.085 29.074 627.113 29.074C625.889 29.074 624.863 29.344 624.035 29.884C623.207 30.424 622.577 31.252 622.145 32.368C621.749 33.448 621.533 34.816 621.497 36.472C621.497 37.984 621.713 39.28 622.145 40.36C622.577 41.44 623.225 42.268 624.089 42.844C624.953 43.384 626.015 43.654 627.275 43.654C628.715 43.654 629.939 43.384 630.947 42.844C631.991 42.304 632.819 41.494 633.431 40.414L640.721 42.196C639.425 44.644 637.661 46.48 635.429 47.704C633.233 48.928 630.551 49.54 627.383 49.54ZM683.61 33.016V49H675.402V33.88C675.402 32.368 675.15 31.234 674.646 30.478C674.178 29.686 673.386 29.29 672.27 29.29C671.55 29.29 670.902 29.47 670.326 29.83C669.786 30.154 669.354 30.658 669.03 31.342C668.742 32.026 668.598 32.872 668.598 33.88V49H660.39V33.88C660.39 32.368 660.138 31.234 659.634 30.478C659.166 29.686 658.374 29.29 657.258 29.29C656.538 29.29 655.89 29.47 655.314 29.83C654.774 30.154 654.342 30.658 654.018 31.342C653.73 32.026 653.586 32.872 653.586 33.88V49H645.702V24.16H653.586V27.832C654.27 26.5 655.206 25.456 656.394 24.7C657.618 23.944 659.076 23.566 660.768 23.566C662.712 23.566 664.26 23.926 665.412 24.646C666.564 25.33 667.392 26.338 667.896 27.67C668.796 26.374 669.912 25.366 671.244 24.646C672.576 23.926 674.088 23.566 675.78 23.566C677.724 23.566 679.254 23.944 680.37 24.7C681.522 25.42 682.35 26.482 682.854 27.886C683.358 29.29 683.61 31 683.61 33.016ZM702.635 49.54C699.755 49.54 697.253 49.018 695.129 47.974C693.041 46.894 691.421 45.382 690.269 43.438C689.117 41.494 688.541 39.208 688.541 36.58C688.541 33.916 689.099 31.612 690.215 29.668C691.331 27.724 692.933 26.23 695.021 25.186C697.145 24.142 699.647 23.62 702.527 23.62C705.407 23.62 707.837 24.124 709.817 25.132C711.797 26.104 713.309 27.526 714.353 29.398C715.397 31.27 715.919 33.538 715.919 36.202C715.919 36.598 715.919 36.994 715.919 37.39C715.919 37.75 715.883 38.056 715.811 38.308H693.131V33.772H708.467L706.523 36.256C706.703 36.004 706.847 35.698 706.955 35.338C707.099 34.942 707.171 34.618 707.171 34.366C707.171 33.286 706.973 32.35 706.577 31.558C706.181 30.766 705.623 30.154 704.903 29.722C704.183 29.29 703.337 29.074 702.365 29.074C701.141 29.074 700.115 29.344 699.287 29.884C698.459 30.424 697.829 31.252 697.397 32.368C697.001 33.448 696.785 34.816 696.749 36.472C696.749 37.984 696.965 39.28 697.397 40.36C697.829 41.44 698.477 42.268 699.341 42.844C700.205 43.384 701.267 43.654 702.527 43.654C703.967 43.654 705.191 43.384 706.199 42.844C707.243 42.304 708.071 41.494 708.683 40.414L715.973 42.196C714.677 44.644 712.913 46.48 710.681 47.704C708.485 48.928 705.803 49.54 702.635 49.54ZM737.1 33.88C737.1 32.404 736.812 31.27 736.236 30.478C735.696 29.686 734.778 29.29 733.482 29.29C732.618 29.29 731.862 29.47 731.214 29.83C730.566 30.19 730.062 30.712 729.702 31.396C729.342 32.08 729.162 32.908 729.162 33.88V49H720.954V24.16H729.162V27.886C729.882 26.518 730.854 25.456 732.078 24.7C733.338 23.944 734.886 23.566 736.722 23.566C739.818 23.566 742.068 24.394 743.472 26.05C744.876 27.706 745.578 30.028 745.578 33.016V49H737.1V33.88ZM749.098 24.16H765.73V30.91H749.098V24.16ZM753.472 15.52H761.302V49H753.472V15.52Z" fill="#F0F0F0"/>
<path d="M46.312 26.4H54.424V48.384C54.424 50.08 54.872 51.456 55.768 52.512C56.664 53.568 58.008 54.096 59.8 54.096C61.624 54.096 62.984 53.568 63.88 52.512C64.776 51.456 65.224 50.08 65.224 48.384V26.4H73.336V48.96C73.336 51.072 72.984 52.912 72.28 54.48C71.608 56.048 70.648 57.344 69.4 58.368C68.184 59.36 66.744 60.112 65.08 60.624C63.448 61.136 61.688 61.392 59.8 61.392C57.912 61.392 56.152 61.136 54.52 60.624C52.888 60.112 51.448 59.36 50.2 58.368C48.984 57.344 48.024 56.048 47.32 54.48C46.648 52.912 46.312 51.072 46.312 48.96V26.4ZM80.6883 51.984C81.8083 52.912 82.8163 53.648 83.7122 54.192C84.6403 54.704 85.4563 55.072 86.1603 55.296C86.8643 55.488 87.4723 55.584 87.9843 55.584C88.7203 55.584 89.2643 55.424 89.6163 55.104C89.9683 54.784 90.1443 54.368 90.1443 53.856C90.1443 53.376 90.0003 52.976 89.7123 52.656C89.4243 52.304 88.9283 51.968 88.2243 51.648C87.5523 51.328 86.6243 50.992 85.4403 50.64C84.3843 50.256 83.3763 49.808 82.4163 49.296C81.4883 48.752 80.7203 48.032 80.1123 47.136C79.5043 46.24 79.2003 45.088 79.2003 43.68C79.2003 42.336 79.5523 41.2 80.2563 40.272C80.9923 39.344 81.9683 38.64 83.1843 38.16C84.4323 37.68 85.8563 37.44 87.4563 37.44C88.7363 37.44 89.9203 37.584 91.0083 37.872C92.1283 38.16 93.1683 38.544 94.1283 39.024C95.1203 39.504 96.0483 40.064 96.9123 40.704L94.3203 45.408C93.3923 44.544 92.3363 43.84 91.1523 43.296C89.9683 42.72 88.8803 42.432 87.8883 42.432C87.2163 42.432 86.7043 42.56 86.3523 42.816C86.0323 43.072 85.8723 43.408 85.8723 43.824C85.8723 44.304 86.0643 44.704 86.4483 45.024C86.8643 45.344 87.4403 45.648 88.1763 45.936C88.9443 46.192 89.8723 46.528 90.9603 46.944C92.1123 47.36 93.1683 47.84 94.1283 48.384C95.1203 48.928 95.9043 49.616 96.4803 50.448C97.0883 51.28 97.3923 52.384 97.3923 53.76C97.3923 56.128 96.6563 57.92 95.1843 59.136C93.7443 60.32 91.7123 60.912 89.0883 60.912C87.4883 60.912 86.0003 60.72 84.6243 60.336C83.2803 59.984 82.0323 59.504 80.8803 58.896C79.7283 58.256 78.6563 57.552 77.6643 56.784L80.6883 51.984ZM112.611 60.48C110.051 60.48 107.827 60.016 105.939 59.088C104.083 58.128 102.643 56.784 101.619 55.056C100.595 53.328 100.083 51.296 100.083 48.96C100.083 46.592 100.579 44.544 101.571 42.816C102.563 41.088 103.987 39.76 105.843 38.832C107.731 37.904 109.955 37.44 112.515 37.44C115.075 37.44 117.235 37.888 118.995 38.784C120.755 39.648 122.099 40.912 123.027 42.576C123.955 44.24 124.419 46.256 124.419 48.624C124.419 48.976 124.419 49.328 124.419 49.68C124.419 50 124.387 50.272 124.323 50.496H104.163V46.464H117.795L116.067 48.672C116.227 48.448 116.355 48.176 116.451 47.856C116.579 47.504 116.643 47.216 116.643 46.992C116.643 46.032 116.467 45.2 116.115 44.496C115.763 43.792 115.267 43.248 114.627 42.864C113.987 42.48 113.235 42.288 112.371 42.288C111.283 42.288 110.371 42.528 109.635 43.008C108.899 43.488 108.339 44.224 107.955 45.216C107.603 46.176 107.411 47.392 107.379 48.864C107.379 50.208 107.571 51.36 107.955 52.32C108.339 53.28 108.915 54.016 109.683 54.528C110.451 55.008 111.395 55.248 112.515 55.248C113.795 55.248 114.883 55.008 115.779 54.528C116.707 54.048 117.443 53.328 117.987 52.368L124.467 53.952C123.315 56.128 121.747 57.76 119.763 58.848C117.811 59.936 115.427 60.48 112.611 60.48ZM136.047 37.92V60H128.895V37.92H136.047ZM142.431 45.408C142.047 45.024 141.631 44.72 141.183 44.496C140.767 44.272 140.239 44.16 139.599 44.16C138.895 44.16 138.271 44.352 137.727 44.736C137.183 45.12 136.767 45.68 136.479 46.416C136.191 47.152 136.047 48.048 136.047 49.104L134.319 46.56C134.319 44.8 134.655 43.232 135.327 41.856C136.031 40.48 136.943 39.392 138.062 38.592C139.183 37.792 140.351 37.392 141.567 37.392C142.367 37.392 143.135 37.552 143.871 37.872C144.607 38.192 145.167 38.64 145.551 39.216L142.431 45.408ZM169.116 60V53.328H186.06V60H169.116ZM169.116 33.072V26.4H186.06V33.072H169.116ZM169.116 45.6V39.072H185.1V45.6H169.116ZM163.74 26.4H171.516V60H163.74V26.4ZM206.101 37.92H214.165L205.717 48.672L214.645 60H206.581L201.973 53.568L197.461 60H189.109L198.181 48.672L189.589 37.92H197.941L201.973 43.728L206.101 37.92ZM224.688 70.56H217.44V37.92H224.688V70.56ZM242.736 48.96C242.736 51.52 242.224 53.68 241.2 55.44C240.208 57.2 238.912 58.528 237.312 59.424C235.744 60.32 234.048 60.768 232.224 60.768C230.304 60.768 228.64 60.288 227.232 59.328C225.856 58.336 224.8 56.96 224.064 55.2C223.328 53.408 222.96 51.328 222.96 48.96C222.96 46.56 223.328 44.48 224.064 42.72C224.8 40.96 225.856 39.6 227.232 38.64C228.64 37.648 230.304 37.152 232.224 37.152C234.048 37.152 235.744 37.6 237.312 38.496C238.912 39.392 240.208 40.72 241.2 42.48C242.224 44.208 242.736 46.368 242.736 48.96ZM235.104 48.96C235.104 47.808 234.864 46.832 234.384 46.032C233.904 45.232 233.264 44.624 232.464 44.208C231.664 43.792 230.784 43.584 229.824 43.584C228.992 43.584 228.176 43.792 227.376 44.208C226.608 44.592 225.968 45.184 225.456 45.984C224.944 46.784 224.688 47.776 224.688 48.96C224.688 50.144 224.944 51.136 225.456 51.936C225.968 52.736 226.608 53.344 227.376 53.76C228.176 54.144 228.992 54.336 229.824 54.336C230.784 54.336 231.664 54.128 232.464 53.712C233.264 53.296 233.904 52.688 234.384 51.888C234.864 51.088 235.104 50.112 235.104 48.96ZM258.345 60.48C255.785 60.48 253.561 60.016 251.673 59.088C249.817 58.128 248.377 56.784 247.353 55.056C246.329 53.328 245.817 51.296 245.817 48.96C245.817 46.592 246.313 44.544 247.305 42.816C248.297 41.088 249.721 39.76 251.577 38.832C253.465 37.904 255.689 37.44 258.249 37.44C260.809 37.44 262.969 37.888 264.729 38.784C266.489 39.648 267.833 40.912 268.761 42.576C269.689 44.24 270.153 46.256 270.153 48.624C270.153 48.976 270.153 49.328 270.153 49.68C270.153 50 270.121 50.272 270.057 50.496H249.897V46.464H263.529L261.801 48.672C261.961 48.448 262.089 48.176 262.185 47.856C262.313 47.504 262.377 47.216 262.377 46.992C262.377 46.032 262.201 45.2 261.849 44.496C261.497 43.792 261.001 43.248 260.361 42.864C259.721 42.48 258.969 42.288 258.105 42.288C257.017 42.288 256.105 42.528 255.369 43.008C254.633 43.488 254.073 44.224 253.689 45.216C253.337 46.176 253.145 47.392 253.113 48.864C253.113 50.208 253.305 51.36 253.689 52.32C254.073 53.28 254.649 54.016 255.417 54.528C256.185 55.008 257.129 55.248 258.249 55.248C259.529 55.248 260.617 55.008 261.513 54.528C262.441 54.048 263.177 53.328 263.721 52.368L270.201 53.952C269.049 56.128 267.481 57.76 265.497 58.848C263.545 59.936 261.161 60.48 258.345 60.48ZM281.781 37.92V60H274.629V37.92H281.781ZM288.165 45.408C287.781 45.024 287.365 44.72 286.917 44.496C286.501 44.272 285.973 44.16 285.333 44.16C284.629 44.16 284.005 44.352 283.461 44.736C282.917 45.12 282.501 45.68 282.213 46.416C281.925 47.152 281.781 48.048 281.781 49.104L280.053 46.56C280.053 44.8 280.389 43.232 281.061 41.856C281.765 40.48 282.677 39.392 283.797 38.592C284.917 37.792 286.085 37.392 287.301 37.392C288.101 37.392 288.869 37.552 289.605 37.872C290.341 38.192 290.901 38.64 291.285 39.216L288.165 45.408ZM293.931 29.616C293.931 28.464 294.347 27.536 295.179 26.832C296.011 26.096 297.003 25.728 298.155 25.728C299.339 25.728 300.331 26.096 301.131 26.832C301.963 27.536 302.379 28.464 302.379 29.616C302.379 30.768 301.963 31.712 301.131 32.448C300.331 33.184 299.339 33.552 298.155 33.552C297.003 33.552 296.011 33.184 295.179 32.448C294.347 31.712 293.931 30.768 293.931 29.616ZM294.651 37.92H301.659V60H294.651V37.92ZM318.861 60.48C316.301 60.48 314.077 60.016 312.189 59.088C310.333 58.128 308.893 56.784 307.869 55.056C306.845 53.328 306.333 51.296 306.333 48.96C306.333 46.592 306.829 44.544 307.821 42.816C308.813 41.088 310.237 39.76 312.093 38.832C313.981 37.904 316.205 37.44 318.765 37.44C321.325 37.44 323.485 37.888 325.245 38.784C327.005 39.648 328.349 40.912 329.277 42.576C330.205 44.24 330.669 46.256 330.669 48.624C330.669 48.976 330.669 49.328 330.669 49.68C330.669 50 330.637 50.272 330.573 50.496H310.413V46.464H324.045L322.317 48.672C322.477 48.448 322.605 48.176 322.701 47.856C322.829 47.504 322.893 47.216 322.893 46.992C322.893 46.032 322.717 45.2 322.365 44.496C322.013 43.792 321.517 43.248 320.877 42.864C320.237 42.48 319.485 42.288 318.621 42.288C317.533 42.288 316.621 42.528 315.885 43.008C315.149 43.488 314.589 44.224 314.205 45.216C313.853 46.176 313.661 47.392 313.629 48.864C313.629 50.208 313.821 51.36 314.205 52.32C314.589 53.28 315.165 54.016 315.933 54.528C316.701 55.008 317.645 55.248 318.765 55.248C320.045 55.248 321.133 55.008 322.029 54.528C322.957 54.048 323.693 53.328 324.237 52.368L330.717 53.952C329.565 56.128 327.997 57.76 326.013 58.848C324.061 59.936 321.677 60.48 318.861 60.48ZM349.497 46.56C349.497 45.248 349.241 44.24 348.729 43.536C348.249 42.832 347.433 42.48 346.281 42.48C345.513 42.48 344.841 42.64 344.265 42.96C343.689 43.28 343.241 43.744 342.921 44.352C342.601 44.96 342.441 45.696 342.441 46.56V60H335.145V37.92H342.441V41.232C343.081 40.016 343.945 39.072 345.033 38.4C346.153 37.728 347.529 37.392 349.161 37.392C351.913 37.392 353.913 38.128 355.161 39.6C356.409 41.072 357.033 43.136 357.033 45.792V60H349.497V46.56ZM368.85 48.96C368.85 50.144 369.106 51.168 369.618 52.032C370.13 52.864 370.834 53.52 371.73 54C372.658 54.48 373.65 54.72 374.706 54.72C375.602 54.72 376.45 54.592 377.25 54.336C378.082 54.048 378.834 53.664 379.506 53.184C380.21 52.704 380.786 52.112 381.234 51.408V58.464C380.466 59.072 379.506 59.568 378.354 59.952C377.202 60.304 375.794 60.48 374.13 60.48C371.698 60.48 369.506 60 367.554 59.04C365.634 58.08 364.114 56.736 362.994 55.008C361.906 53.28 361.362 51.264 361.362 48.96C361.362 46.624 361.906 44.608 362.994 42.912C364.114 41.184 365.634 39.84 367.554 38.88C369.506 37.92 371.698 37.44 374.13 37.44C375.794 37.44 377.202 37.632 378.354 38.016C379.506 38.368 380.466 38.816 381.234 39.36V46.464C380.786 45.76 380.194 45.168 379.458 44.688C378.754 44.208 377.986 43.84 377.154 43.584C376.322 43.328 375.506 43.2 374.706 43.2C373.65 43.2 372.658 43.456 371.73 43.968C370.834 44.48 370.13 45.168 369.618 46.032C369.106 46.896 368.85 47.872 368.85 48.96ZM397.705 60.48C395.145 60.48 392.921 60.016 391.033 59.088C389.177 58.128 387.737 56.784 386.713 55.056C385.689 53.328 385.177 51.296 385.177 48.96C385.177 46.592 385.673 44.544 386.665 42.816C387.657 41.088 389.081 39.76 390.937 38.832C392.825 37.904 395.049 37.44 397.609 37.44C400.169 37.44 402.329 37.888 404.089 38.784C405.849 39.648 407.193 40.912 408.121 42.576C409.049 44.24 409.513 46.256 409.513 48.624C409.513 48.976 409.513 49.328 409.513 49.68C409.513 50 409.481 50.272 409.417 50.496H389.257V46.464H402.889L401.161 48.672C401.321 48.448 401.449 48.176 401.545 47.856C401.673 47.504 401.737 47.216 401.737 46.992C401.737 46.032 401.561 45.2 401.209 44.496C400.857 43.792 400.361 43.248 399.721 42.864C399.081 42.48 398.329 42.288 397.465 42.288C396.377 42.288 395.465 42.528 394.729 43.008C393.993 43.488 393.433 44.224 393.049 45.216C392.697 46.176 392.505 47.392 392.473 48.864C392.473 50.208 392.665 51.36 393.049 52.32C393.433 53.28 394.009 54.016 394.777 54.528C395.545 55.008 396.489 55.248 397.609 55.248C398.889 55.248 399.977 55.008 400.873 54.528C401.801 54.048 402.537 53.328 403.081 52.368L409.561 53.952C408.409 56.128 406.841 57.76 404.857 58.848C402.905 59.936 400.521 60.48 397.705 60.48ZM434.475 60V53.328H451.419V60H434.475ZM434.475 33.072V26.4H451.419V33.072H434.475ZM434.475 45.6V39.072H450.459V45.6H434.475ZM429.099 26.4H436.875V60H429.099V26.4ZM471.653 46.56C471.653 45.248 471.397 44.24 470.885 43.536C470.405 42.832 469.589 42.48 468.437 42.48C467.669 42.48 466.997 42.64 466.421 42.96C465.845 43.28 465.397 43.744 465.077 44.352C464.757 44.96 464.597 45.696 464.597 46.56V60H457.301V37.92H464.597V41.232C465.237 40.016 466.101 39.072 467.189 38.4C468.309 37.728 469.685 37.392 471.317 37.392C474.069 37.392 476.069 38.128 477.317 39.6C478.565 41.072 479.189 43.136 479.189 45.792V60H471.653V46.56ZM492.206 22.56V60H484.91V22.56H492.206ZM499.262 46.56C499.262 45.248 499.022 44.24 498.542 43.536C498.062 42.832 497.23 42.48 496.046 42.48C495.278 42.48 494.606 42.656 494.03 43.008C493.454 43.328 493.006 43.792 492.686 44.4C492.366 44.976 492.206 45.696 492.206 46.56H490.958C490.958 44.8 491.246 43.216 491.822 41.808C492.398 40.368 493.262 39.232 494.414 38.4C495.598 37.536 497.102 37.104 498.926 37.104C500.75 37.104 502.206 37.424 503.294 38.064C504.414 38.704 505.23 39.648 505.742 40.896C506.254 42.144 506.51 43.68 506.51 45.504V60H499.262V46.56ZM517.854 53.088C517.854 53.664 517.998 54.16 518.286 54.576C518.574 54.96 518.958 55.264 519.438 55.488C519.918 55.68 520.446 55.776 521.022 55.776C521.854 55.776 522.622 55.6 523.326 55.248C524.03 54.896 524.606 54.368 525.054 53.664C525.502 52.96 525.726 52.096 525.726 51.072L526.494 53.952C526.494 55.36 526.11 56.56 525.342 57.552C524.574 58.512 523.582 59.248 522.366 59.76C521.15 60.24 519.838 60.48 518.43 60.48C517.022 60.48 515.71 60.224 514.494 59.712C513.31 59.168 512.35 58.368 511.614 57.312C510.91 56.256 510.558 54.976 510.558 53.472C510.558 51.36 511.31 49.696 512.814 48.48C514.318 47.232 516.446 46.608 519.198 46.608C520.542 46.608 521.742 46.736 522.798 46.992C523.886 47.248 524.814 47.568 525.582 47.952C526.35 48.336 526.926 48.736 527.31 49.152V52.368C526.542 51.792 525.646 51.36 524.622 51.072C523.63 50.752 522.574 50.592 521.454 50.592C520.59 50.592 519.902 50.688 519.39 50.88C518.878 51.072 518.494 51.36 518.238 51.744C517.982 52.096 517.854 52.544 517.854 53.088ZM514.638 44.688L512.19 39.84C513.438 39.232 514.942 38.656 516.702 38.112C518.462 37.568 520.382 37.296 522.462 37.296C524.414 37.296 526.158 37.584 527.694 38.16C529.23 38.704 530.446 39.504 531.342 40.56C532.238 41.616 532.686 42.912 532.686 44.448V60H525.726V46.08C525.726 45.536 525.63 45.072 525.438 44.688C525.278 44.272 525.022 43.92 524.67 43.632C524.318 43.344 523.87 43.136 523.326 43.008C522.814 42.88 522.222 42.816 521.55 42.816C520.558 42.816 519.582 42.928 518.622 43.152C517.694 43.376 516.878 43.648 516.174 43.968C515.47 44.256 514.958 44.496 514.638 44.688ZM552.465 46.56C552.465 45.248 552.209 44.24 551.697 43.536C551.217 42.832 550.401 42.48 549.249 42.48C548.481 42.48 547.809 42.64 547.233 42.96C546.657 43.28 546.209 43.744 545.889 44.352C545.569 44.96 545.409 45.696 545.409 46.56V60H538.113V37.92H545.409V41.232C546.049 40.016 546.913 39.072 548.001 38.4C549.121 37.728 550.497 37.392 552.129 37.392C554.881 37.392 556.881 38.128 558.129 39.6C559.377 41.072 560.001 43.136 560.001 45.792V60H552.465V46.56ZM571.819 48.96C571.819 50.144 572.075 51.168 572.587 52.032C573.099 52.864 573.803 53.52 574.699 54C575.627 54.48 576.619 54.72 577.675 54.72C578.571 54.72 579.419 54.592 580.219 54.336C581.051 54.048 581.803 53.664 582.475 53.184C583.179 52.704 583.755 52.112 584.203 51.408V58.464C583.435 59.072 582.475 59.568 581.323 59.952C580.171 60.304 578.763 60.48 577.099 60.48C574.667 60.48 572.475 60 570.523 59.04C568.603 58.08 567.083 56.736 565.963 55.008C564.875 53.28 564.331 51.264 564.331 48.96C564.331 46.624 564.875 44.608 565.963 42.912C567.083 41.184 568.603 39.84 570.523 38.88C572.475 37.92 574.667 37.44 577.099 37.44C578.763 37.44 580.171 37.632 581.323 38.016C582.475 38.368 583.435 38.816 584.203 39.36V46.464C583.755 45.76 583.163 45.168 582.427 44.688C581.723 44.208 580.955 43.84 580.123 43.584C579.291 43.328 578.475 43.2 577.675 43.2C576.619 43.2 575.627 43.456 574.699 43.968C573.803 44.48 573.099 45.168 572.587 46.032C572.075 46.896 571.819 47.872 571.819 48.96ZM600.673 60.48C598.113 60.48 595.889 60.016 594.001 59.088C592.145 58.128 590.705 56.784 589.681 55.056C588.657 53.328 588.145 51.296 588.145 48.96C588.145 46.592 588.641 44.544 589.633 42.816C590.625 41.088 592.049 39.76 593.905 38.832C595.793 37.904 598.017 37.44 600.577 37.44C603.137 37.44 605.297 37.888 607.057 38.784C608.817 39.648 610.161 40.912 611.089 42.576C612.017 44.24 612.481 46.256 612.481 48.624C612.481 48.976 612.481 49.328 612.481 49.68C612.481 50 612.449 50.272 612.385 50.496H592.225V46.464H605.857L604.129 48.672C604.289 48.448 604.417 48.176 604.513 47.856C604.641 47.504 604.705 47.216 604.705 46.992C604.705 46.032 604.529 45.2 604.177 44.496C603.825 43.792 603.329 43.248 602.689 42.864C602.049 42.48 601.297 42.288 600.433 42.288C599.345 42.288 598.433 42.528 597.697 43.008C596.961 43.488 596.401 44.224 596.017 45.216C595.665 46.176 595.473 47.392 595.441 48.864C595.441 50.208 595.633 51.36 596.017 52.32C596.401 53.28 596.977 54.016 597.745 54.528C598.513 55.008 599.457 55.248 600.577 55.248C601.857 55.248 602.945 55.008 603.841 54.528C604.769 54.048 605.505 53.328 606.049 52.368L612.529 53.952C611.377 56.128 609.809 57.76 607.825 58.848C605.873 59.936 603.489 60.48 600.673 60.48ZM650.653 45.792V60H643.357V46.56C643.357 45.216 643.133 44.208 642.685 43.536C642.269 42.832 641.565 42.48 640.573 42.48C639.933 42.48 639.357 42.64 638.845 42.96C638.365 43.248 637.981 43.696 637.693 44.304C637.437 44.912 637.309 45.664 637.309 46.56V60H630.013V46.56C630.013 45.216 629.789 44.208 629.341 43.536C628.925 42.832 628.221 42.48 627.229 42.48C626.589 42.48 626.013 42.64 625.501 42.96C625.021 43.248 624.637 43.696 624.349 44.304C624.093 44.912 623.965 45.664 623.965 46.56V60H616.957V37.92H623.965V41.184C624.573 40 625.405 39.072 626.461 38.4C627.549 37.728 628.845 37.392 630.349 37.392C632.077 37.392 633.453 37.712 634.477 38.352C635.501 38.96 636.237 39.856 636.685 41.04C637.485 39.888 638.477 38.992 639.661 38.352C640.845 37.712 642.189 37.392 643.693 37.392C645.421 37.392 646.781 37.728 647.773 38.4C648.797 39.04 649.533 39.984 649.981 41.232C650.429 42.48 650.653 44 650.653 45.792ZM667.564 60.48C665.004 60.48 662.78 60.016 660.892 59.088C659.036 58.128 657.596 56.784 656.572 55.056C655.548 53.328 655.036 51.296 655.036 48.96C655.036 46.592 655.532 44.544 656.524 42.816C657.516 41.088 658.94 39.76 660.796 38.832C662.684 37.904 664.908 37.44 667.468 37.44C670.028 37.44 672.188 37.888 673.948 38.784C675.708 39.648 677.052 40.912 677.98 42.576C678.908 44.24 679.372 46.256 679.372 48.624C679.372 48.976 679.372 49.328 679.372 49.68C679.372 50 679.34 50.272 679.276 50.496H659.116V46.464H672.748L671.02 48.672C671.18 48.448 671.308 48.176 671.404 47.856C671.532 47.504 671.596 47.216 671.596 46.992C671.596 46.032 671.42 45.2 671.068 44.496C670.716 43.792 670.22 43.248 669.58 42.864C668.94 42.48 668.188 42.288 667.324 42.288C666.236 42.288 665.324 42.528 664.588 43.008C663.852 43.488 663.292 44.224 662.908 45.216C662.556 46.176 662.364 47.392 662.332 48.864C662.332 50.208 662.524 51.36 662.908 52.32C663.292 53.28 663.868 54.016 664.636 54.528C665.404 55.008 666.348 55.248 667.468 55.248C668.748 55.248 669.836 55.008 670.732 54.528C671.66 54.048 672.396 53.328 672.94 52.368L679.42 53.952C678.268 56.128 676.7 57.76 674.716 58.848C672.764 59.936 670.38 60.48 667.564 60.48ZM698.2 46.56C698.2 45.248 697.944 44.24 697.432 43.536C696.952 42.832 696.136 42.48 694.984 42.48C694.216 42.48 693.544 42.64 692.968 42.96C692.392 43.28 691.944 43.744 691.624 44.352C691.304 44.96 691.144 45.696 691.144 46.56V60H683.848V37.92H691.144V41.232C691.784 40.016 692.648 39.072 693.736 38.4C694.856 37.728 696.232 37.392 697.864 37.392C700.616 37.392 702.616 38.128 703.864 39.6C705.112 41.072 705.736 43.136 705.736 45.792V60H698.2V46.56ZM708.865 37.92H723.649V43.92H708.865V37.92ZM712.753 30.24H719.713V60H712.753V30.24Z" fill="#143274"/>
</svg>
