<svg width="464" height="73" viewBox="0 0 464 73" fill="none" xmlns="http://www.w3.org/2000/svg">
<path d="M26.944 35.808V27.488H49.6C49.8133 31.072 49.4507 34.4213 48.512 37.536C47.5733 40.6507 46.1227 43.4027 44.16 45.792C42.1973 48.1813 39.744 50.0587 36.8 51.424C33.856 52.7467 30.4853 53.408 26.688 53.408C23.104 53.408 19.8187 52.8533 16.832 51.744C13.8453 50.592 11.264 48.9707 9.088 46.88C6.912 44.7467 5.20533 42.2293 3.968 39.328C2.77333 36.384 2.176 33.1413 2.176 29.6C2.176 26.0587 2.79467 22.8587 4.032 20C5.26933 17.0987 7.01867 14.624 9.28 12.576C11.5413 10.528 14.1867 8.94933 17.216 7.84C20.2453 6.73066 23.5307 6.176 27.072 6.176C30.2293 6.176 33.0667 6.624 35.584 7.52C38.1013 8.416 40.32 9.67466 42.24 11.296C44.2027 12.8747 45.888 14.7093 47.296 16.8L37.696 21.792C36.672 20 35.2853 18.528 33.536 17.376C31.8293 16.1813 29.6747 15.584 27.072 15.584C24.5973 15.584 22.3147 16.1387 20.224 17.248C18.176 18.3573 16.5333 19.9573 15.296 22.048C14.1013 24.096 13.504 26.6133 13.504 29.6C13.504 32.544 14.08 35.104 15.232 37.28C16.4267 39.4133 18.0267 41.0773 20.032 42.272C22.08 43.424 24.4267 44 27.072 44C28.6933 44 30.1653 43.808 31.488 43.424C32.8107 42.9973 33.9413 42.4213 34.88 41.696C35.8187 40.928 36.608 40.0533 37.248 39.072C37.9307 38.048 38.464 36.96 38.848 35.808H26.944ZM65.437 22.56V52H55.901V22.56H65.437ZM73.949 32.544C73.437 32.032 72.8823 31.6267 72.285 31.328C71.7303 31.0293 71.0263 30.88 70.173 30.88C69.2343 30.88 68.4023 31.136 67.677 31.648C66.9517 32.16 66.397 32.9067 66.013 33.888C65.629 34.8693 65.437 36.064 65.437 37.472L63.133 34.08C63.133 31.7333 63.581 29.6427 64.477 27.808C65.4157 25.9733 66.6317 24.5227 68.125 23.456C69.6183 22.3893 71.1757 21.856 72.797 21.856C73.8637 21.856 74.8877 22.0693 75.869 22.496C76.8503 22.9227 77.597 23.52 78.109 24.288L73.949 32.544ZM89.7015 42.784C89.7015 43.552 89.8935 44.2133 90.2775 44.768C90.6615 45.28 91.1735 45.6853 91.8135 45.984C92.4535 46.24 93.1575 46.368 93.9255 46.368C95.0348 46.368 96.0588 46.1333 96.9975 45.664C97.9362 45.1947 98.7042 44.4907 99.3015 43.552C99.8988 42.6133 100.198 41.4613 100.198 40.096L101.222 43.936C101.222 45.8133 100.71 47.4133 99.6855 48.736C98.6615 50.016 97.3388 50.9973 95.7175 51.68C94.0962 52.32 92.3468 52.64 90.4695 52.64C88.5922 52.64 86.8428 52.2987 85.2215 51.616C83.6428 50.8907 82.3628 49.824 81.3815 48.416C80.4428 47.008 79.9735 45.3013 79.9735 43.296C79.9735 40.48 80.9762 38.2613 82.9815 36.64C84.9868 34.976 87.8242 34.144 91.4935 34.144C93.2855 34.144 94.8855 34.3147 96.2935 34.656C97.7442 34.9973 98.9815 35.424 100.006 35.936C101.03 36.448 101.798 36.9813 102.31 37.536V41.824C101.286 41.056 100.091 40.48 98.7255 40.096C97.4028 39.6693 95.9948 39.456 94.5015 39.456C93.3495 39.456 92.4322 39.584 91.7495 39.84C91.0668 40.096 90.5548 40.48 90.2135 40.992C89.8722 41.4613 89.7015 42.0587 89.7015 42.784ZM85.4135 31.584L82.1495 25.12C83.8135 24.3093 85.8188 23.5413 88.1655 22.816C90.5122 22.0907 93.0722 21.728 95.8455 21.728C98.4482 21.728 100.774 22.112 102.822 22.88C104.87 23.6053 106.491 24.672 107.686 26.08C108.88 27.488 109.478 29.216 109.478 31.264V52H100.198V33.44C100.198 32.7147 100.07 32.096 99.8135 31.584C99.6002 31.0293 99.2588 30.56 98.7895 30.176C98.3202 29.792 97.7228 29.5147 96.9975 29.344C96.3148 29.1733 95.5255 29.088 94.6295 29.088C93.3068 29.088 92.0055 29.2373 90.7255 29.536C89.4882 29.8347 88.4002 30.1973 87.4615 30.624C86.5228 31.008 85.8402 31.328 85.4135 31.584ZM126.314 66.08H116.65V22.56H126.314V66.08ZM150.378 37.28C150.378 40.6933 149.695 43.5733 148.33 45.92C147.007 48.2667 145.279 50.0373 143.146 51.232C141.055 52.4267 138.794 53.024 136.362 53.024C133.802 53.024 131.583 52.384 129.706 51.104C127.871 49.7813 126.463 47.9467 125.482 45.6C124.5 43.2107 124.01 40.4373 124.01 37.28C124.01 34.08 124.5 31.3067 125.482 28.96C126.463 26.6133 127.871 24.8 129.706 23.52C131.583 22.1973 133.802 21.536 136.362 21.536C138.794 21.536 141.055 22.1333 143.146 23.328C145.279 24.5227 147.007 26.2933 148.33 28.64C149.695 30.944 150.378 33.824 150.378 37.28ZM140.202 37.28C140.202 35.744 139.882 34.4427 139.242 33.376C138.602 32.3093 137.748 31.4987 136.682 30.944C135.615 30.3893 134.442 30.112 133.162 30.112C132.052 30.112 130.964 30.3893 129.898 30.944C128.874 31.456 128.02 32.2453 127.338 33.312C126.655 34.3787 126.314 35.7013 126.314 37.28C126.314 38.8587 126.655 40.1813 127.338 41.248C128.02 42.3147 128.874 43.1253 129.898 43.68C130.964 44.192 132.052 44.448 133.162 44.448C134.442 44.448 135.615 44.1707 136.682 43.616C137.748 43.0613 138.602 42.2507 139.242 41.184C139.882 40.1173 140.202 38.816 140.202 37.28ZM165.942 2.08V52H156.214V2.08H165.942ZM175.35 34.08C175.35 32.3307 175.03 30.9867 174.39 30.048C173.75 29.1093 172.64 28.64 171.062 28.64C170.038 28.64 169.142 28.8747 168.374 29.344C167.606 29.7707 167.008 30.3893 166.582 31.2C166.155 31.968 165.942 32.928 165.942 34.08H164.278C164.278 31.7333 164.662 29.6213 165.43 27.744C166.198 25.824 167.35 24.3093 168.885 23.2C170.464 22.048 172.47 21.472 174.902 21.472C177.334 21.472 179.275 21.8987 180.726 22.752C182.219 23.6053 183.307 24.864 183.99 26.528C184.672 28.192 185.014 30.24 185.014 32.672V52H175.35V34.08ZM192.075 11.488C192.075 9.952 192.63 8.71466 193.739 7.776C194.848 6.79466 196.171 6.304 197.707 6.304C199.286 6.304 200.608 6.79466 201.675 7.776C202.784 8.71466 203.339 9.952 203.339 11.488C203.339 13.024 202.784 14.2827 201.675 15.264C200.608 16.2453 199.286 16.736 197.707 16.736C196.171 16.736 194.848 16.2453 193.739 15.264C192.63 14.2827 192.075 13.024 192.075 11.488ZM193.035 22.56H202.379V52H193.035V22.56ZM218.467 37.28C218.467 38.8587 218.808 40.224 219.491 41.376C220.173 42.4853 221.112 43.36 222.307 44C223.544 44.64 224.867 44.96 226.275 44.96C227.469 44.96 228.6 44.7893 229.667 44.448C230.776 44.064 231.779 43.552 232.675 42.912C233.613 42.272 234.381 41.4827 234.979 40.544V49.952C233.955 50.7627 232.675 51.424 231.139 51.936C229.603 52.4053 227.725 52.64 225.507 52.64C222.264 52.64 219.341 52 216.739 50.72C214.179 49.44 212.152 47.648 210.659 45.344C209.208 43.04 208.483 40.352 208.483 37.28C208.483 34.1653 209.208 31.4773 210.659 29.216C212.152 26.912 214.179 25.12 216.739 23.84C219.341 22.56 222.264 21.92 225.507 21.92C227.725 21.92 229.603 22.176 231.139 22.688C232.675 23.1573 233.955 23.7547 234.979 24.48V33.952C234.381 33.0133 233.592 32.224 232.611 31.584C231.672 30.944 230.648 30.4533 229.539 30.112C228.429 29.7707 227.341 29.6 226.275 29.6C224.867 29.6 223.544 29.9413 222.307 30.624C221.112 31.3067 220.173 32.224 219.491 33.376C218.808 34.528 218.467 35.8293 218.467 37.28ZM262.111 7.2H273.247V52H262.111V7.2ZM278.111 52H269.279V42.4H277.727C279.434 42.4 281.076 42.1867 282.655 41.76C284.276 41.3333 285.684 40.6293 286.879 39.648C288.116 38.6667 289.098 37.3653 289.823 35.744C290.548 34.08 290.911 32.032 290.911 29.6C290.911 27.168 290.548 25.1413 289.823 23.52C289.098 21.856 288.116 20.5333 286.879 19.552C285.684 18.5707 284.276 17.8667 282.655 17.44C281.076 17.0133 279.434 16.8 277.727 16.8H269.279V7.2H278.111C283.018 7.2 287.263 8.11733 290.847 9.952C294.431 11.7867 297.204 14.368 299.167 17.696C301.13 21.024 302.111 24.992 302.111 29.6C302.111 34.1653 301.13 38.1333 299.167 41.504C297.204 44.832 294.431 47.4133 290.847 49.248C287.263 51.0827 283.018 52 278.111 52ZM323.065 52.64C319.651 52.64 316.686 52.0213 314.169 50.784C311.694 49.504 309.774 47.712 308.409 45.408C307.043 43.104 306.361 40.3947 306.361 37.28C306.361 34.1227 307.022 31.392 308.345 29.088C309.667 26.784 311.566 25.0133 314.041 23.776C316.558 22.5387 319.523 21.92 322.937 21.92C326.35 21.92 329.23 22.5173 331.577 23.712C333.923 24.864 335.715 26.5493 336.953 28.768C338.19 30.9867 338.809 33.6747 338.809 36.832C338.809 37.3013 338.809 37.7707 338.809 38.24C338.809 38.6667 338.766 39.0293 338.681 39.328H311.801V33.952H329.977L327.673 36.896C327.886 36.5973 328.057 36.2347 328.185 35.808C328.355 35.3387 328.441 34.9547 328.441 34.656C328.441 33.376 328.206 32.2667 327.737 31.328C327.267 30.3893 326.606 29.664 325.753 29.152C324.899 28.64 323.897 28.384 322.745 28.384C321.294 28.384 320.078 28.704 319.097 29.344C318.115 29.984 317.369 30.9653 316.857 32.288C316.387 33.568 316.131 35.1893 316.089 37.152C316.089 38.944 316.345 40.48 316.857 41.76C317.369 43.04 318.137 44.0213 319.161 44.704C320.185 45.344 321.443 45.664 322.937 45.664C324.643 45.664 326.094 45.344 327.289 44.704C328.526 44.064 329.507 43.104 330.233 41.824L338.873 43.936C337.337 46.8373 335.246 49.0133 332.601 50.464C329.998 51.9147 326.819 52.64 323.065 52.64ZM346.376 41.312C347.869 42.5493 349.213 43.5307 350.408 44.256C351.645 44.9387 352.733 45.4293 353.672 45.728C354.611 45.984 355.421 46.112 356.104 46.112C357.085 46.112 357.811 45.8987 358.28 45.472C358.749 45.0453 358.984 44.4907 358.984 43.808C358.984 43.168 358.792 42.6347 358.408 42.208C358.024 41.7387 357.363 41.2907 356.424 40.864C355.528 40.4373 354.291 39.9893 352.712 39.52C351.304 39.008 349.96 38.4107 348.68 37.728C347.443 37.0027 346.419 36.0427 345.608 34.848C344.797 33.6533 344.392 32.1173 344.392 30.24C344.392 28.448 344.861 26.9333 345.8 25.696C346.781 24.4587 348.083 23.52 349.704 22.88C351.368 22.24 353.267 21.92 355.4 21.92C357.107 21.92 358.685 22.112 360.136 22.496C361.629 22.88 363.016 23.392 364.296 24.032C365.619 24.672 366.856 25.4187 368.008 26.272L364.552 32.544C363.315 31.392 361.907 30.4533 360.328 29.728C358.749 28.96 357.299 28.576 355.976 28.576C355.08 28.576 354.397 28.7467 353.928 29.088C353.501 29.4293 353.288 29.8773 353.288 30.432C353.288 31.072 353.544 31.6053 354.056 32.032C354.611 32.4587 355.379 32.864 356.36 33.248C357.384 33.5893 358.621 34.0373 360.072 34.592C361.608 35.1467 363.016 35.7867 364.296 36.512C365.619 37.2373 366.664 38.1547 367.432 39.264C368.243 40.3733 368.648 41.8453 368.648 43.68C368.648 46.8373 367.667 49.2267 365.704 50.848C363.784 52.4267 361.075 53.216 357.576 53.216C355.443 53.216 353.459 52.96 351.624 52.448C349.832 51.9787 348.168 51.3387 346.632 50.528C345.096 49.6747 343.667 48.736 342.344 47.712L346.376 41.312ZM373.388 11.488C373.388 9.952 373.942 8.71466 375.052 7.776C376.161 6.79466 377.484 6.304 379.02 6.304C380.598 6.304 381.921 6.79466 382.988 7.776C384.097 8.71466 384.652 9.952 384.652 11.488C384.652 13.024 384.097 14.2827 382.988 15.264C381.921 16.2453 380.598 16.736 379.02 16.736C377.484 16.736 376.161 16.2453 375.052 15.264C373.942 14.2827 373.388 13.024 373.388 11.488ZM374.348 22.56H383.692V52H374.348V22.56ZM390.563 54.112H399.907C400.035 55.3067 400.376 56.3093 400.931 57.12C401.528 57.9307 402.318 58.528 403.299 58.912C404.28 59.3387 405.39 59.552 406.627 59.552C407.992 59.552 409.23 59.232 410.339 58.592C411.448 57.9947 412.323 57.0773 412.963 55.84C413.646 54.6453 413.987 53.152 413.987 51.36V22.56H423.267V51.36C423.267 55.1147 422.52 58.1653 421.027 60.512C419.576 62.8587 417.635 64.5653 415.203 65.632C412.771 66.7413 410.04 67.296 407.011 67.296C403.384 67.296 400.376 66.7413 397.987 65.632C395.64 64.5227 393.87 62.9653 392.675 60.96C391.48 58.9973 390.776 56.7147 390.563 54.112ZM389.923 36.896C389.923 33.568 390.584 30.7947 391.907 28.576C393.272 26.3573 395.022 24.6933 397.155 23.584C399.288 22.4747 401.55 21.92 403.939 21.92C406.414 21.92 408.59 22.5173 410.467 23.712C412.387 24.864 413.902 26.5493 415.011 28.768C416.12 30.9867 416.675 33.696 416.675 36.896C416.675 40.0533 416.12 42.7627 415.011 45.024C413.902 47.2427 412.387 48.9493 410.467 50.144C408.59 51.296 406.414 51.872 403.939 51.872C401.55 51.872 399.288 51.3173 397.155 50.208C395.022 49.056 393.272 47.3707 391.907 45.152C390.584 42.9333 389.923 40.1813 389.923 36.896ZM400.099 36.896C400.099 38.3893 400.419 39.6907 401.059 40.8C401.699 41.8667 402.552 42.6773 403.619 43.232C404.686 43.7867 405.859 44.064 407.139 44.064C408.248 44.064 409.315 43.808 410.339 43.296C411.406 42.7413 412.28 41.9307 412.963 40.864C413.646 39.7973 413.987 38.4747 413.987 36.896C413.987 35.7013 413.774 34.656 413.347 33.76C412.963 32.864 412.43 32.1173 411.747 31.52C411.107 30.9227 410.382 30.4747 409.571 30.176C408.76 29.8773 407.95 29.728 407.139 29.728C405.859 29.728 404.686 30.0053 403.619 30.56C402.552 31.1147 401.699 31.9253 401.059 32.992C400.419 34.0587 400.099 35.36 400.099 36.896ZM449.85 34.08C449.85 32.3307 449.508 30.9867 448.826 30.048C448.186 29.1093 447.098 28.64 445.562 28.64C444.538 28.64 443.642 28.8533 442.874 29.28C442.106 29.7067 441.508 30.3253 441.082 31.136C440.655 31.9467 440.442 32.928 440.442 34.08V52H430.714V22.56H440.442V26.976C441.295 25.3547 442.447 24.096 443.898 23.2C445.391 22.304 447.226 21.856 449.402 21.856C453.071 21.856 455.738 22.8373 457.402 24.8C459.066 26.7627 459.898 29.5147 459.898 33.056V52H449.85V34.08Z" fill="#F0F0F0"/>
<path d="M78.208 47.856V41.616H95.2C95.36 44.304 95.088 46.816 94.384 49.152C93.68 51.488 92.592 53.552 91.12 55.344C89.648 57.136 87.808 58.544 85.6 59.568C83.392 60.56 80.864 61.056 78.016 61.056C75.328 61.056 72.864 60.64 70.624 59.808C68.384 58.944 66.448 57.728 64.816 56.16C63.184 54.56 61.904 52.672 60.976 50.496C60.08 48.288 59.632 45.856 59.632 43.2C59.632 40.544 60.096 38.144 61.024 36C61.952 33.824 63.264 31.968 64.96 30.432C66.656 28.896 68.64 27.712 70.912 26.88C73.184 26.048 75.648 25.632 78.304 25.632C80.672 25.632 82.8 25.968 84.688 26.64C86.576 27.312 88.24 28.256 89.68 29.472C91.152 30.656 92.416 32.032 93.472 33.6L86.272 37.344C85.504 36 84.464 34.896 83.152 34.032C81.872 33.136 80.256 32.688 78.304 32.688C76.448 32.688 74.736 33.104 73.168 33.936C71.632 34.768 70.4 35.968 69.472 37.536C68.576 39.072 68.128 40.96 68.128 43.2C68.128 45.408 68.56 47.328 69.424 48.96C70.32 50.56 71.52 51.808 73.024 52.704C74.56 53.568 76.32 54 78.304 54C79.52 54 80.624 53.856 81.616 53.568C82.608 53.248 83.456 52.816 84.16 52.272C84.864 51.696 85.456 51.04 85.936 50.304C86.448 49.536 86.848 48.72 87.136 47.856H78.208ZM107.078 37.92V60H99.9258V37.92H107.078ZM113.462 45.408C113.078 45.024 112.662 44.72 112.214 44.496C111.798 44.272 111.27 44.16 110.63 44.16C109.926 44.16 109.302 44.352 108.758 44.736C108.214 45.12 107.798 45.68 107.51 46.416C107.222 47.152 107.078 48.048 107.078 49.104L105.35 46.56C105.35 44.8 105.686 43.232 106.358 41.856C107.062 40.48 107.974 39.392 109.094 38.592C110.214 37.792 111.382 37.392 112.598 37.392C113.398 37.392 114.166 37.552 114.902 37.872C115.638 38.192 116.198 38.64 116.582 39.216L113.462 45.408ZM125.276 53.088C125.276 53.664 125.42 54.16 125.708 54.576C125.996 54.96 126.38 55.264 126.86 55.488C127.34 55.68 127.868 55.776 128.444 55.776C129.276 55.776 130.044 55.6 130.748 55.248C131.452 54.896 132.028 54.368 132.476 53.664C132.924 52.96 133.148 52.096 133.148 51.072L133.916 53.952C133.916 55.36 133.532 56.56 132.764 57.552C131.996 58.512 131.004 59.248 129.788 59.76C128.572 60.24 127.26 60.48 125.852 60.48C124.444 60.48 123.132 60.224 121.916 59.712C120.732 59.168 119.772 58.368 119.036 57.312C118.332 56.256 117.98 54.976 117.98 53.472C117.98 51.36 118.732 49.696 120.236 48.48C121.74 47.232 123.868 46.608 126.62 46.608C127.964 46.608 129.164 46.736 130.22 46.992C131.308 47.248 132.236 47.568 133.004 47.952C133.772 48.336 134.348 48.736 134.732 49.152V52.368C133.964 51.792 133.068 51.36 132.044 51.072C131.052 50.752 129.996 50.592 128.876 50.592C128.012 50.592 127.324 50.688 126.812 50.88C126.3 51.072 125.916 51.36 125.66 51.744C125.404 52.096 125.276 52.544 125.276 53.088ZM122.06 44.688L119.612 39.84C120.86 39.232 122.364 38.656 124.124 38.112C125.884 37.568 127.804 37.296 129.884 37.296C131.836 37.296 133.58 37.584 135.116 38.16C136.652 38.704 137.868 39.504 138.764 40.56C139.66 41.616 140.108 42.912 140.108 44.448V60H133.148V46.08C133.148 45.536 133.052 45.072 132.86 44.688C132.7 44.272 132.444 43.92 132.092 43.632C131.74 43.344 131.292 43.136 130.748 43.008C130.236 42.88 129.644 42.816 128.972 42.816C127.98 42.816 127.004 42.928 126.044 43.152C125.116 43.376 124.3 43.648 123.596 43.968C122.892 44.256 122.38 44.496 122.06 44.688ZM152.735 70.56H145.487V37.92H152.735V70.56ZM170.783 48.96C170.783 51.52 170.271 53.68 169.247 55.44C168.255 57.2 166.959 58.528 165.359 59.424C163.791 60.32 162.095 60.768 160.271 60.768C158.351 60.768 156.687 60.288 155.279 59.328C153.903 58.336 152.847 56.96 152.111 55.2C151.375 53.408 151.007 51.328 151.007 48.96C151.007 46.56 151.375 44.48 152.111 42.72C152.847 40.96 153.903 39.6 155.279 38.64C156.687 37.648 158.351 37.152 160.271 37.152C162.095 37.152 163.791 37.6 165.359 38.496C166.959 39.392 168.255 40.72 169.247 42.48C170.271 44.208 170.783 46.368 170.783 48.96ZM163.151 48.96C163.151 47.808 162.911 46.832 162.431 46.032C161.951 45.232 161.311 44.624 160.511 44.208C159.711 43.792 158.831 43.584 157.871 43.584C157.039 43.584 156.223 43.792 155.423 44.208C154.655 44.592 154.015 45.184 153.503 45.984C152.991 46.784 152.735 47.776 152.735 48.96C152.735 50.144 152.991 51.136 153.503 51.936C154.015 52.736 154.655 53.344 155.423 53.76C156.223 54.144 157.039 54.336 157.871 54.336C158.831 54.336 159.711 54.128 160.511 53.712C161.311 53.296 161.951 52.688 162.431 51.888C162.911 51.088 163.151 50.112 163.151 48.96ZM182.456 22.56V60H175.16V22.56H182.456ZM189.512 46.56C189.512 45.248 189.272 44.24 188.792 43.536C188.312 42.832 187.48 42.48 186.296 42.48C185.528 42.48 184.856 42.656 184.28 43.008C183.704 43.328 183.256 43.792 182.936 44.4C182.616 44.976 182.456 45.696 182.456 46.56H181.208C181.208 44.8 181.496 43.216 182.072 41.808C182.648 40.368 183.512 39.232 184.664 38.4C185.848 37.536 187.352 37.104 189.176 37.104C191 37.104 192.456 37.424 193.544 38.064C194.664 38.704 195.48 39.648 195.992 40.896C196.504 42.144 196.76 43.68 196.76 45.504V60H189.512V46.56ZM202.056 29.616C202.056 28.464 202.472 27.536 203.304 26.832C204.136 26.096 205.128 25.728 206.28 25.728C207.464 25.728 208.456 26.096 209.256 26.832C210.088 27.536 210.504 28.464 210.504 29.616C210.504 30.768 210.088 31.712 209.256 32.448C208.456 33.184 207.464 33.552 206.28 33.552C205.128 33.552 204.136 33.184 203.304 32.448C202.472 31.712 202.056 30.768 202.056 29.616ZM202.776 37.92H209.784V60H202.776V37.92ZM221.85 48.96C221.85 50.144 222.106 51.168 222.618 52.032C223.13 52.864 223.834 53.52 224.73 54C225.658 54.48 226.65 54.72 227.706 54.72C228.602 54.72 229.45 54.592 230.25 54.336C231.082 54.048 231.834 53.664 232.506 53.184C233.21 52.704 233.786 52.112 234.234 51.408V58.464C233.466 59.072 232.506 59.568 231.354 59.952C230.202 60.304 228.794 60.48 227.13 60.48C224.698 60.48 222.506 60 220.554 59.04C218.634 58.08 217.114 56.736 215.994 55.008C214.906 53.28 214.362 51.264 214.362 48.96C214.362 46.624 214.906 44.608 215.994 42.912C217.114 41.184 218.634 39.84 220.554 38.88C222.506 37.92 224.698 37.44 227.13 37.44C228.794 37.44 230.202 37.632 231.354 38.016C232.506 38.368 233.466 38.816 234.234 39.36V46.464C233.786 45.76 233.194 45.168 232.458 44.688C231.754 44.208 230.986 43.84 230.154 43.584C229.322 43.328 228.506 43.2 227.706 43.2C226.65 43.2 225.658 43.456 224.73 43.968C223.834 44.48 223.13 45.168 222.618 46.032C222.106 46.896 221.85 47.872 221.85 48.96ZM254.583 26.4H262.935V60H254.583V26.4ZM266.583 60H259.959V52.8H266.295C267.575 52.8 268.807 52.64 269.991 52.32C271.207 52 272.263 51.472 273.159 50.736C274.087 50 274.823 49.024 275.367 47.808C275.911 46.56 276.183 45.024 276.183 43.2C276.183 41.376 275.911 39.856 275.367 38.64C274.823 37.392 274.087 36.4 273.159 35.664C272.263 34.928 271.207 34.4 269.991 34.08C268.807 33.76 267.575 33.6 266.295 33.6H259.959V26.4H266.583C270.263 26.4 273.447 27.088 276.135 28.464C278.823 29.84 280.903 31.776 282.375 34.272C283.847 36.768 284.583 39.744 284.583 43.2C284.583 46.624 283.847 49.6 282.375 52.128C280.903 54.624 278.823 56.56 276.135 57.936C273.447 59.312 270.263 60 266.583 60ZM300.298 60.48C297.738 60.48 295.514 60.016 293.626 59.088C291.77 58.128 290.33 56.784 289.306 55.056C288.282 53.328 287.77 51.296 287.77 48.96C287.77 46.592 288.266 44.544 289.258 42.816C290.25 41.088 291.674 39.76 293.53 38.832C295.418 37.904 297.642 37.44 300.202 37.44C302.762 37.44 304.922 37.888 306.682 38.784C308.442 39.648 309.786 40.912 310.714 42.576C311.642 44.24 312.106 46.256 312.106 48.624C312.106 48.976 312.106 49.328 312.106 49.68C312.106 50 312.074 50.272 312.01 50.496H291.85V46.464H305.482L303.754 48.672C303.914 48.448 304.042 48.176 304.138 47.856C304.266 47.504 304.33 47.216 304.33 46.992C304.33 46.032 304.154 45.2 303.802 44.496C303.45 43.792 302.954 43.248 302.314 42.864C301.674 42.48 300.922 42.288 300.058 42.288C298.97 42.288 298.058 42.528 297.322 43.008C296.586 43.488 296.026 44.224 295.642 45.216C295.29 46.176 295.098 47.392 295.066 48.864C295.066 50.208 295.258 51.36 295.642 52.32C296.026 53.28 296.602 54.016 297.37 54.528C298.138 55.008 299.082 55.248 300.202 55.248C301.482 55.248 302.57 55.008 303.466 54.528C304.394 54.048 305.13 53.328 305.674 52.368L312.154 53.952C311.002 56.128 309.434 57.76 307.45 58.848C305.498 59.936 303.114 60.48 300.298 60.48ZM317.782 51.984C318.902 52.912 319.91 53.648 320.806 54.192C321.734 54.704 322.55 55.072 323.254 55.296C323.958 55.488 324.566 55.584 325.078 55.584C325.814 55.584 326.358 55.424 326.71 55.104C327.062 54.784 327.238 54.368 327.238 53.856C327.238 53.376 327.094 52.976 326.806 52.656C326.518 52.304 326.022 51.968 325.318 51.648C324.646 51.328 323.718 50.992 322.534 50.64C321.478 50.256 320.47 49.808 319.51 49.296C318.582 48.752 317.814 48.032 317.206 47.136C316.598 46.24 316.294 45.088 316.294 43.68C316.294 42.336 316.646 41.2 317.35 40.272C318.086 39.344 319.062 38.64 320.278 38.16C321.526 37.68 322.95 37.44 324.55 37.44C325.83 37.44 327.014 37.584 328.102 37.872C329.222 38.16 330.262 38.544 331.222 39.024C332.214 39.504 333.142 40.064 334.006 40.704L331.414 45.408C330.486 44.544 329.43 43.84 328.246 43.296C327.062 42.72 325.974 42.432 324.982 42.432C324.31 42.432 323.798 42.56 323.446 42.816C323.126 43.072 322.966 43.408 322.966 43.824C322.966 44.304 323.158 44.704 323.542 45.024C323.958 45.344 324.534 45.648 325.27 45.936C326.038 46.192 326.966 46.528 328.054 46.944C329.206 47.36 330.262 47.84 331.222 48.384C332.214 48.928 332.998 49.616 333.574 50.448C334.182 51.28 334.486 52.384 334.486 53.76C334.486 56.128 333.75 57.92 332.278 59.136C330.838 60.32 328.806 60.912 326.182 60.912C324.582 60.912 323.094 60.72 321.718 60.336C320.374 59.984 319.126 59.504 317.974 58.896C316.822 58.256 315.75 57.552 314.758 56.784L317.782 51.984ZM338.041 29.616C338.041 28.464 338.457 27.536 339.289 26.832C340.121 26.096 341.113 25.728 342.265 25.728C343.449 25.728 344.441 26.096 345.241 26.832C346.073 27.536 346.489 28.464 346.489 29.616C346.489 30.768 346.073 31.712 345.241 32.448C344.441 33.184 343.449 33.552 342.265 33.552C341.113 33.552 340.121 33.184 339.289 32.448C338.457 31.712 338.041 30.768 338.041 29.616ZM338.761 37.92H345.769V60H338.761V37.92ZM350.922 61.584H357.93C358.026 62.48 358.282 63.232 358.698 63.84C359.146 64.448 359.738 64.896 360.474 65.184C361.21 65.504 362.042 65.664 362.97 65.664C363.994 65.664 364.922 65.424 365.754 64.944C366.586 64.496 367.242 63.808 367.722 62.88C368.234 61.984 368.49 60.864 368.49 59.52V37.92H375.45V59.52C375.45 62.336 374.89 64.624 373.77 66.384C372.682 68.144 371.226 69.424 369.402 70.224C367.578 71.056 365.53 71.472 363.258 71.472C360.538 71.472 358.282 71.056 356.49 70.224C354.73 69.392 353.402 68.224 352.506 66.72C351.61 65.248 351.082 63.536 350.922 61.584ZM350.442 48.672C350.442 46.176 350.938 44.096 351.93 42.432C352.954 40.768 354.266 39.52 355.866 38.688C357.466 37.856 359.162 37.44 360.954 37.44C362.81 37.44 364.442 37.888 365.85 38.784C367.29 39.648 368.426 40.912 369.258 42.576C370.09 44.24 370.506 46.272 370.506 48.672C370.506 51.04 370.09 53.072 369.258 54.768C368.426 56.432 367.29 57.712 365.85 58.608C364.442 59.472 362.81 59.904 360.954 59.904C359.162 59.904 357.466 59.488 355.866 58.656C354.266 57.792 352.954 56.528 351.93 54.864C350.938 53.2 350.442 51.136 350.442 48.672ZM358.074 48.672C358.074 49.792 358.314 50.768 358.794 51.6C359.274 52.4 359.914 53.008 360.714 53.424C361.514 53.84 362.394 54.048 363.354 54.048C364.186 54.048 364.986 53.856 365.754 53.472C366.554 53.056 367.21 52.448 367.722 51.648C368.234 50.848 368.49 49.856 368.49 48.672C368.49 47.776 368.33 46.992 368.01 46.32C367.722 45.648 367.322 45.088 366.81 44.64C366.33 44.192 365.786 43.856 365.178 43.632C364.57 43.408 363.962 43.296 363.354 43.296C362.394 43.296 361.514 43.504 360.714 43.92C359.914 44.336 359.274 44.944 358.794 45.744C358.314 46.544 358.074 47.52 358.074 48.672ZM395.387 46.56C395.387 45.248 395.131 44.24 394.619 43.536C394.139 42.832 393.323 42.48 392.171 42.48C391.403 42.48 390.731 42.64 390.155 42.96C389.579 43.28 389.131 43.744 388.811 44.352C388.491 44.96 388.331 45.696 388.331 46.56V60H381.035V37.92H388.331V41.232C388.971 40.016 389.835 39.072 390.923 38.4C392.043 37.728 393.419 37.392 395.051 37.392C397.803 37.392 399.803 38.128 401.051 39.6C402.299 41.072 402.923 43.136 402.923 45.792V60H395.387V46.56Z" fill="#143274"/>
</svg>
