<svg width="51" height="51" viewBox="0 0 51 51" fill="none" xmlns="http://www.w3.org/2000/svg">
<g id="Vector">
<path d="M44.2862 13.6498H40.008L29.5115 24.1417C29.873 25.0631 29.9063 26.0808 29.6056 27.0238C29.305 27.9668 28.6889 28.7775 27.8608 29.3197C27.0327 29.8618 26.0433 30.1022 25.0587 30.0006C24.0742 29.899 23.1547 29.4614 22.4549 28.7616C21.755 28.0617 21.3175 27.1422 21.2159 26.1577C21.1142 25.1732 21.3547 24.1837 21.8968 23.3557C22.4389 22.5276 23.2496 21.9114 24.1926 21.6108C25.1356 21.3102 26.1534 21.3434 27.0747 21.705L37.569 11.2107V6.93255C37.5692 6.36009 37.7966 5.81111 38.2011 5.40612L42.1782 1.42911C42.2516 1.35482 42.344 1.30205 42.4453 1.27652C42.5466 1.25099 42.653 1.25367 42.7529 1.28428C42.9575 1.34405 43.1092 1.51416 43.1506 1.72336L44.208 7.01301L49.4954 8.07048C49.7023 8.11186 49.8724 8.26359 49.9322 8.46818C49.9624 8.56757 49.9651 8.67328 49.94 8.77407C49.9149 8.87487 49.8629 8.96697 49.7897 9.0406L45.8103 13.0176C45.6103 13.218 45.3727 13.377 45.1112 13.4854C44.8497 13.5939 44.5693 13.6498 44.2862 13.6498Z" fill="#444444"/>
<path d="M3.94828 25.7188C3.94828 31.4346 6.2189 36.9164 10.2606 40.9581C14.3024 44.9999 19.7841 47.2705 25.5 47.2705C28.3302 47.2705 31.1327 46.713 33.7475 45.63C36.3623 44.5469 38.7381 42.9594 40.7394 40.9581C42.7406 38.9569 44.3281 36.581 45.4112 33.9662C46.4943 31.3515 47.0517 28.549 47.0517 25.7188C47.0517 23.6544 46.7621 21.659 46.2218 19.7716C46.1145 19.3383 46.1794 18.8802 46.4029 18.4937C46.6264 18.1072 46.9912 17.8225 47.4203 17.6995C47.8495 17.5765 48.3097 17.6248 48.704 17.8342C49.0983 18.0436 49.396 18.3978 49.5345 18.8222C50.1644 21.0153 50.5 23.328 50.5 25.7188C50.5 39.5257 39.3069 50.7188 25.5 50.7188C11.6931 50.7188 0.5 39.5257 0.5 25.7188C0.5 11.9119 11.6931 0.718762 25.5 0.718762C27.8333 0.716463 30.1529 1.0406 32.3966 1.68198C32.6153 1.74335 32.8198 1.84735 32.9982 1.988C33.1767 2.12866 33.3255 2.3032 33.4363 2.50158C33.5471 2.69997 33.6175 2.91829 33.6436 3.14399C33.6697 3.3697 33.6509 3.59834 33.5884 3.81676C33.5258 4.03519 33.4207 4.2391 33.2791 4.41676C33.1374 4.59443 32.9621 4.74235 32.7631 4.85202C32.5641 4.96169 32.3454 5.03095 32.1196 5.05582C31.8937 5.08069 31.6652 5.06067 31.4471 4.99692C29.5131 4.44457 27.5114 4.16524 25.5 4.16704C19.7841 4.16704 14.3024 6.43766 10.2606 10.4794C6.2189 14.5211 3.94828 20.0029 3.94828 25.7188Z" fill="#444444"/>
<path d="M14.2931 25.7188C14.2995 27.2413 14.6162 28.7466 15.2238 30.1428C15.8314 31.5389 16.7171 32.7965 17.827 33.8388C18.9369 34.8812 20.2475 35.6864 21.679 36.2053C23.1104 36.7243 24.6326 36.946 26.1526 36.857C27.6726 36.768 29.1585 36.3701 30.5196 35.6877C31.8807 35.0052 33.0884 34.0525 34.069 32.8878C35.0496 31.723 35.7826 30.3706 36.2231 28.9131C36.6635 27.4556 36.8024 25.9236 36.631 24.4107C36.5828 24.1043 36.6183 23.7905 36.7338 23.5027C36.8493 23.2148 37.0406 22.9635 37.2873 22.7755C37.534 22.5875 37.8269 22.4697 38.1351 22.4346C38.4433 22.3995 38.7553 22.4485 39.0379 22.5762C39.6149 22.8337 40.0034 23.3831 40.054 24.013C40.411 27.0366 39.8171 30.0962 38.3549 32.7667C36.8927 35.4371 34.6349 37.5857 31.8953 38.9138C29.1557 40.2419 26.0704 40.6835 23.0683 40.1772C20.0661 39.671 17.2962 38.242 15.1437 36.0889C12.9917 33.9381 11.5624 31.171 11.0539 28.1713C10.5453 25.1717 10.9829 22.0881 12.3058 19.3483C13.6287 16.6085 15.7714 14.3482 18.4368 12.881C21.1021 11.4138 24.1579 10.8124 27.1805 11.1601C27.409 11.1813 27.6309 11.2479 27.8333 11.356C28.0358 11.4641 28.2146 11.6116 28.3593 11.7896C28.504 11.9677 28.6117 12.1729 28.6761 12.3932C28.7404 12.6135 28.7602 12.8444 28.7342 13.0723C28.7082 13.3003 28.6369 13.5209 28.5246 13.721C28.4122 13.9211 28.2611 14.0967 28.08 14.2376C27.8989 14.3786 27.6915 14.4819 27.4699 14.5416C27.2483 14.6013 27.0171 14.6162 26.7897 14.5854C25.2196 14.4039 23.6289 14.5565 22.122 15.0331C20.6151 15.5097 19.226 16.2996 18.0459 17.351C16.8658 18.4024 15.9213 19.6914 15.2746 21.1335C14.6278 22.5757 14.2933 24.1382 14.2931 25.7188Z" fill="#444444"/>
</g>
</svg>
