<svg width="469" height="73" viewBox="0 0 469 73" fill="none" xmlns="http://www.w3.org/2000/svg">
<path d="M16.256 29.152L13.568 52H2.176L9.408 4.96L28.48 32.288L47.616 4.96L54.848 52H43.456L40.768 29.152L28.48 47.84L16.256 29.152ZM68.264 42.784C68.264 43.552 68.456 44.2133 68.84 44.768C69.224 45.28 69.736 45.6853 70.376 45.984C71.016 46.24 71.72 46.368 72.488 46.368C73.5973 46.368 74.6213 46.1333 75.56 45.664C76.4987 45.1947 77.2667 44.4907 77.864 43.552C78.4613 42.6133 78.76 41.4613 78.76 40.096L79.784 43.936C79.784 45.8133 79.272 47.4133 78.248 48.736C77.224 50.016 75.9013 50.9973 74.28 51.68C72.6587 52.32 70.9093 52.64 69.032 52.64C67.1547 52.64 65.4053 52.2987 63.784 51.616C62.2053 50.8907 60.9253 49.824 59.944 48.416C59.0053 47.008 58.536 45.3013 58.536 43.296C58.536 40.48 59.5387 38.2613 61.544 36.64C63.5493 34.976 66.3867 34.144 70.056 34.144C71.848 34.144 73.448 34.3147 74.856 34.656C76.3067 34.9973 77.544 35.424 78.568 35.936C79.592 36.448 80.36 36.9813 80.872 37.536V41.824C79.848 41.056 78.6533 40.48 77.288 40.096C75.9653 39.6693 74.5573 39.456 73.064 39.456C71.912 39.456 70.9947 39.584 70.312 39.84C69.6293 40.096 69.1173 40.48 68.776 40.992C68.4347 41.4613 68.264 42.0587 68.264 42.784ZM63.976 31.584L60.712 25.12C62.376 24.3093 64.3813 23.5413 66.728 22.816C69.0747 22.0907 71.6347 21.728 74.408 21.728C77.0107 21.728 79.336 22.112 81.384 22.88C83.432 23.6053 85.0533 24.672 86.248 26.08C87.4427 27.488 88.04 29.216 88.04 31.264V52H78.76V33.44C78.76 32.7147 78.632 32.096 78.376 31.584C78.1627 31.0293 77.8213 30.56 77.352 30.176C76.8827 29.792 76.2853 29.5147 75.56 29.344C74.8773 29.1733 74.088 29.088 73.192 29.088C71.8693 29.088 70.568 29.2373 69.288 29.536C68.0507 29.8347 66.9627 30.1973 66.024 30.624C65.0853 31.008 64.4027 31.328 63.976 31.584ZM96.876 41.312C98.3693 42.5493 99.7133 43.5307 100.908 44.256C102.145 44.9387 103.233 45.4293 104.172 45.728C105.111 45.984 105.921 46.112 106.604 46.112C107.585 46.112 108.311 45.8987 108.78 45.472C109.249 45.0453 109.484 44.4907 109.484 43.808C109.484 43.168 109.292 42.6347 108.908 42.208C108.524 41.7387 107.863 41.2907 106.924 40.864C106.028 40.4373 104.791 39.9893 103.212 39.52C101.804 39.008 100.46 38.4107 99.18 37.728C97.9427 37.0027 96.9187 36.0427 96.108 34.848C95.2973 33.6533 94.892 32.1173 94.892 30.24C94.892 28.448 95.3613 26.9333 96.3 25.696C97.2813 24.4587 98.5827 23.52 100.204 22.88C101.868 22.24 103.767 21.92 105.9 21.92C107.607 21.92 109.185 22.112 110.636 22.496C112.129 22.88 113.516 23.392 114.796 24.032C116.119 24.672 117.356 25.4187 118.508 26.272L115.052 32.544C113.815 31.392 112.407 30.4533 110.828 29.728C109.249 28.96 107.799 28.576 106.476 28.576C105.58 28.576 104.897 28.7467 104.428 29.088C104.001 29.4293 103.788 29.8773 103.788 30.432C103.788 31.072 104.044 31.6053 104.556 32.032C105.111 32.4587 105.879 32.864 106.86 33.248C107.884 33.5893 109.121 34.0373 110.572 34.592C112.108 35.1467 113.516 35.7867 114.796 36.512C116.119 37.2373 117.164 38.1547 117.932 39.264C118.743 40.3733 119.148 41.8453 119.148 43.68C119.148 46.8373 118.167 49.2267 116.204 50.848C114.284 52.4267 111.575 53.216 108.076 53.216C105.943 53.216 103.959 52.96 102.124 52.448C100.332 51.9787 98.668 51.3387 97.132 50.528C95.596 49.6747 94.1667 48.736 92.844 47.712L96.876 41.312ZM122.736 37.28C122.736 34.1653 123.461 31.456 124.911 29.152C126.362 26.848 128.368 25.056 130.928 23.776C133.488 22.496 136.368 21.856 139.568 21.856C142.768 21.856 145.626 22.496 148.144 23.776C150.704 25.056 152.709 26.848 154.16 29.152C155.653 31.456 156.4 34.1653 156.4 37.28C156.4 40.352 155.653 43.04 154.16 45.344C152.709 47.648 150.704 49.44 148.144 50.72C145.626 52 142.768 52.64 139.568 52.64C136.368 52.64 133.488 52 130.928 50.72C128.368 49.44 126.362 47.648 124.911 45.344C123.461 43.04 122.736 40.352 122.736 37.28ZM132.656 37.28C132.656 38.816 132.976 40.1387 133.616 41.248C134.256 42.3147 135.088 43.1467 136.112 43.744C137.136 44.3413 138.288 44.64 139.568 44.64C140.805 44.64 141.936 44.3413 142.96 43.744C144.026 43.1467 144.858 42.3147 145.456 41.248C146.096 40.1387 146.416 38.816 146.416 37.28C146.416 35.744 146.096 34.4213 145.456 33.312C144.858 32.2027 144.026 31.3493 142.96 30.752C141.936 30.1547 140.805 29.856 139.568 29.856C138.288 29.856 137.136 30.1547 136.112 30.752C135.088 31.3493 134.256 32.2027 133.616 33.312C132.976 34.4213 132.656 35.744 132.656 37.28ZM181.35 34.08C181.35 32.3307 181.008 30.9867 180.326 30.048C179.686 29.1093 178.598 28.64 177.062 28.64C176.038 28.64 175.142 28.8533 174.374 29.28C173.606 29.7067 173.008 30.3253 172.582 31.136C172.155 31.9467 171.942 32.928 171.942 34.08V52H162.214V22.56H171.942V26.976C172.795 25.3547 173.947 24.096 175.398 23.2C176.891 22.304 178.726 21.856 180.902 21.856C184.571 21.856 187.238 22.8373 188.902 24.8C190.566 26.7627 191.398 29.5147 191.398 33.056V52H181.35V34.08ZM224.102 36.256C224.998 37.8773 226 39.2853 227.11 40.48C228.262 41.6747 229.499 42.592 230.822 43.232C232.187 43.872 233.616 44.192 235.11 44.192C236.688 44.192 237.99 43.808 239.014 43.04C240.038 42.2293 240.55 41.1413 240.55 39.776C240.55 38.624 240.251 37.7067 239.654 37.024C239.056 36.2987 238.096 35.616 236.774 34.976C235.451 34.336 233.702 33.6107 231.526 32.8C230.459 32.416 229.222 31.8827 227.814 31.2C226.448 30.5173 225.147 29.6427 223.91 28.576C222.672 27.4667 221.648 26.144 220.838 24.608C220.027 23.0293 219.622 21.1307 219.622 18.912C219.622 16.2667 220.304 13.984 221.67 12.064C223.078 10.144 224.955 8.69333 227.302 7.712C229.691 6.688 232.336 6.176 235.238 6.176C238.224 6.176 240.806 6.66667 242.982 7.648C245.2 8.62933 247.035 9.86666 248.486 11.36C249.936 12.8533 251.046 14.368 251.814 15.904L243.558 20.512C242.918 19.4453 242.171 18.528 241.318 17.76C240.507 16.9493 239.59 16.3307 238.566 15.904C237.584 15.4347 236.518 15.2 235.366 15.2C233.83 15.2 232.656 15.5413 231.846 16.224C231.035 16.864 230.63 17.6747 230.63 18.656C230.63 19.68 231.014 20.576 231.782 21.344C232.592 22.112 233.723 22.816 235.174 23.456C236.667 24.096 238.459 24.7787 240.55 25.504C242.128 26.1013 243.6 26.8053 244.966 27.616C246.331 28.384 247.526 29.3227 248.55 30.432C249.616 31.5413 250.448 32.8213 251.046 34.272C251.643 35.7227 251.942 37.3867 251.942 39.264C251.942 41.5253 251.472 43.552 250.534 45.344C249.638 47.0933 248.4 48.5653 246.822 49.76C245.286 50.9547 243.515 51.8507 241.51 52.448C239.547 53.088 237.52 53.408 235.43 53.408C232.528 53.408 229.819 52.896 227.302 51.872C224.827 50.8053 222.672 49.376 220.838 47.584C219.003 45.792 217.574 43.8293 216.549 41.696L224.102 36.256ZM273.19 52.64C269.776 52.64 266.811 52.0213 264.294 50.784C261.819 49.504 259.899 47.712 258.534 45.408C257.168 43.104 256.486 40.3947 256.486 37.28C256.486 34.1227 257.147 31.392 258.47 29.088C259.792 26.784 261.691 25.0133 264.166 23.776C266.683 22.5387 269.648 21.92 273.062 21.92C276.475 21.92 279.355 22.5173 281.702 23.712C284.048 24.864 285.84 26.5493 287.078 28.768C288.315 30.9867 288.934 33.6747 288.934 36.832C288.934 37.3013 288.934 37.7707 288.934 38.24C288.934 38.6667 288.891 39.0293 288.806 39.328H261.926V33.952H280.102L277.798 36.896C278.011 36.5973 278.182 36.2347 278.31 35.808C278.48 35.3387 278.566 34.9547 278.566 34.656C278.566 33.376 278.331 32.2667 277.862 31.328C277.392 30.3893 276.731 29.664 275.878 29.152C275.024 28.64 274.022 28.384 272.87 28.384C271.419 28.384 270.203 28.704 269.222 29.344C268.24 29.984 267.494 30.9653 266.982 32.288C266.512 33.568 266.256 35.1893 266.214 37.152C266.214 38.944 266.47 40.48 266.982 41.76C267.494 43.04 268.262 44.0213 269.286 44.704C270.31 45.344 271.568 45.664 273.062 45.664C274.768 45.664 276.219 45.344 277.414 44.704C278.651 44.064 279.632 43.104 280.358 41.824L288.998 43.936C287.462 46.8373 285.371 49.0133 282.726 50.464C280.123 51.9147 276.944 52.64 273.19 52.64ZM304.437 22.56V52H294.901V22.56H304.437ZM312.949 32.544C312.437 32.032 311.882 31.6267 311.285 31.328C310.73 31.0293 310.026 30.88 309.173 30.88C308.234 30.88 307.402 31.136 306.677 31.648C305.952 32.16 305.397 32.9067 305.013 33.888C304.629 34.8693 304.437 36.064 304.437 37.472L302.133 34.08C302.133 31.7333 302.581 29.6427 303.477 27.808C304.416 25.9733 305.632 24.5227 307.125 23.456C308.618 22.3893 310.176 21.856 311.797 21.856C312.864 21.856 313.888 22.0693 314.869 22.496C315.85 22.9227 316.597 23.52 317.109 24.288L312.949 32.544ZM319.183 22.56H329.487L336.271 38.88L342.991 22.56H353.295L336.271 55.456L319.183 22.56ZM356.325 11.488C356.325 9.952 356.88 8.71466 357.989 7.776C359.098 6.79466 360.421 6.304 361.957 6.304C363.536 6.304 364.858 6.79466 365.925 7.776C367.034 8.71466 367.589 9.952 367.589 11.488C367.589 13.024 367.034 14.2827 365.925 15.264C364.858 16.2453 363.536 16.736 361.957 16.736C360.421 16.736 359.098 16.2453 357.989 15.264C356.88 14.2827 356.325 13.024 356.325 11.488ZM357.285 22.56H366.629V52H357.285V22.56ZM382.717 37.28C382.717 38.8587 383.058 40.224 383.741 41.376C384.423 42.4853 385.362 43.36 386.557 44C387.794 44.64 389.117 44.96 390.525 44.96C391.719 44.96 392.85 44.7893 393.917 44.448C395.026 44.064 396.029 43.552 396.925 42.912C397.863 42.272 398.631 41.4827 399.229 40.544V49.952C398.205 50.7627 396.925 51.424 395.389 51.936C393.853 52.4053 391.975 52.64 389.757 52.64C386.514 52.64 383.591 52 380.989 50.72C378.429 49.44 376.402 47.648 374.909 45.344C373.458 43.04 372.733 40.352 372.733 37.28C372.733 34.1653 373.458 31.4773 374.909 29.216C376.402 26.912 378.429 25.12 380.989 23.84C383.591 22.56 386.514 21.92 389.757 21.92C391.975 21.92 393.853 22.176 395.389 22.688C396.925 23.1573 398.205 23.7547 399.229 24.48V33.952C398.631 33.0133 397.842 32.224 396.861 31.584C395.922 30.944 394.898 30.4533 393.789 30.112C392.679 29.7707 391.591 29.6 390.525 29.6C389.117 29.6 387.794 29.9413 386.557 30.624C385.362 31.3067 384.423 32.224 383.741 33.376C383.058 34.528 382.717 35.8293 382.717 37.28ZM421.19 52.64C417.776 52.64 414.811 52.0213 412.294 50.784C409.819 49.504 407.899 47.712 406.534 45.408C405.168 43.104 404.486 40.3947 404.486 37.28C404.486 34.1227 405.147 31.392 406.47 29.088C407.792 26.784 409.691 25.0133 412.166 23.776C414.683 22.5387 417.648 21.92 421.062 21.92C424.475 21.92 427.355 22.5173 429.702 23.712C432.048 24.864 433.84 26.5493 435.078 28.768C436.315 30.9867 436.934 33.6747 436.934 36.832C436.934 37.3013 436.934 37.7707 436.934 38.24C436.934 38.6667 436.891 39.0293 436.806 39.328H409.926V33.952H428.102L425.798 36.896C426.011 36.5973 426.182 36.2347 426.31 35.808C426.48 35.3387 426.566 34.9547 426.566 34.656C426.566 33.376 426.331 32.2667 425.862 31.328C425.392 30.3893 424.731 29.664 423.878 29.152C423.024 28.64 422.022 28.384 420.87 28.384C419.419 28.384 418.203 28.704 417.222 29.344C416.24 29.984 415.494 30.9653 414.982 32.288C414.512 33.568 414.256 35.1893 414.214 37.152C414.214 38.944 414.47 40.48 414.982 41.76C415.494 43.04 416.262 44.0213 417.286 44.704C418.31 45.344 419.568 45.664 421.062 45.664C422.768 45.664 424.219 45.344 425.414 44.704C426.651 44.064 427.632 43.104 428.358 41.824L436.998 43.936C435.462 46.8373 433.371 49.0133 430.726 50.464C428.123 51.9147 424.944 52.64 421.19 52.64ZM444.501 41.312C445.994 42.5493 447.338 43.5307 448.533 44.256C449.77 44.9387 450.858 45.4293 451.797 45.728C452.736 45.984 453.546 46.112 454.229 46.112C455.21 46.112 455.936 45.8987 456.405 45.472C456.874 45.0453 457.109 44.4907 457.109 43.808C457.109 43.168 456.917 42.6347 456.533 42.208C456.149 41.7387 455.488 41.2907 454.549 40.864C453.653 40.4373 452.416 39.9893 450.837 39.52C449.429 39.008 448.085 38.4107 446.805 37.728C445.568 37.0027 444.544 36.0427 443.733 34.848C442.922 33.6533 442.517 32.1173 442.517 30.24C442.517 28.448 442.986 26.9333 443.925 25.696C444.906 24.4587 446.208 23.52 447.829 22.88C449.493 22.24 451.392 21.92 453.525 21.92C455.232 21.92 456.81 22.112 458.261 22.496C459.754 22.88 461.141 23.392 462.421 24.032C463.744 24.672 464.981 25.4187 466.133 26.272L462.677 32.544C461.44 31.392 460.032 30.4533 458.453 29.728C456.874 28.96 455.424 28.576 454.101 28.576C453.205 28.576 452.522 28.7467 452.053 29.088C451.626 29.4293 451.413 29.8773 451.413 30.432C451.413 31.072 451.669 31.6053 452.181 32.032C452.736 32.4587 453.504 32.864 454.485 33.248C455.509 33.5893 456.746 34.0373 458.197 34.592C459.733 35.1467 461.141 35.7867 462.421 36.512C463.744 37.2373 464.789 38.1547 465.557 39.264C466.368 40.3733 466.773 41.8453 466.773 43.68C466.773 46.8373 465.792 49.2267 463.829 50.848C461.909 52.4267 459.2 53.216 455.701 53.216C453.568 53.216 451.584 52.96 449.749 52.448C447.957 51.9787 446.293 51.3387 444.757 50.528C443.221 49.6747 441.792 48.736 440.469 47.712L444.501 41.312Z" fill="#F0F0F0"/>
<path d="M71.192 42.864L69.176 60H60.632L66.056 24.72L80.36 45.216L94.712 24.72L100.136 60H91.592L89.576 42.864L80.36 56.88L71.192 42.864ZM110.198 53.088C110.198 53.664 110.342 54.16 110.63 54.576C110.918 54.96 111.302 55.264 111.782 55.488C112.262 55.68 112.79 55.776 113.366 55.776C114.198 55.776 114.966 55.6 115.67 55.248C116.374 54.896 116.95 54.368 117.398 53.664C117.846 52.96 118.07 52.096 118.07 51.072L118.838 53.952C118.838 55.36 118.454 56.56 117.686 57.552C116.918 58.512 115.926 59.248 114.71 59.76C113.494 60.24 112.182 60.48 110.774 60.48C109.366 60.48 108.054 60.224 106.838 59.712C105.654 59.168 104.694 58.368 103.958 57.312C103.254 56.256 102.902 54.976 102.902 53.472C102.902 51.36 103.654 49.696 105.158 48.48C106.662 47.232 108.79 46.608 111.542 46.608C112.886 46.608 114.086 46.736 115.142 46.992C116.23 47.248 117.158 47.568 117.926 47.952C118.694 48.336 119.27 48.736 119.654 49.152V52.368C118.886 51.792 117.99 51.36 116.966 51.072C115.974 50.752 114.918 50.592 113.798 50.592C112.934 50.592 112.246 50.688 111.734 50.88C111.222 51.072 110.838 51.36 110.582 51.744C110.326 52.096 110.198 52.544 110.198 53.088ZM106.982 44.688L104.534 39.84C105.782 39.232 107.286 38.656 109.046 38.112C110.806 37.568 112.726 37.296 114.806 37.296C116.758 37.296 118.502 37.584 120.038 38.16C121.574 38.704 122.79 39.504 123.686 40.56C124.582 41.616 125.03 42.912 125.03 44.448V60H118.07V46.08C118.07 45.536 117.974 45.072 117.782 44.688C117.622 44.272 117.366 43.92 117.014 43.632C116.662 43.344 116.214 43.136 115.67 43.008C115.158 42.88 114.566 42.816 113.894 42.816C112.902 42.816 111.926 42.928 110.966 43.152C110.038 43.376 109.222 43.648 108.518 43.968C107.814 44.256 107.302 44.496 106.982 44.688ZM131.657 51.984C132.777 52.912 133.785 53.648 134.681 54.192C135.609 54.704 136.425 55.072 137.129 55.296C137.833 55.488 138.441 55.584 138.953 55.584C139.689 55.584 140.233 55.424 140.585 55.104C140.937 54.784 141.113 54.368 141.113 53.856C141.113 53.376 140.969 52.976 140.681 52.656C140.393 52.304 139.897 51.968 139.193 51.648C138.521 51.328 137.593 50.992 136.409 50.64C135.353 50.256 134.345 49.808 133.385 49.296C132.457 48.752 131.689 48.032 131.081 47.136C130.473 46.24 130.169 45.088 130.169 43.68C130.169 42.336 130.521 41.2 131.225 40.272C131.961 39.344 132.937 38.64 134.153 38.16C135.401 37.68 136.825 37.44 138.425 37.44C139.705 37.44 140.889 37.584 141.977 37.872C143.097 38.16 144.137 38.544 145.097 39.024C146.089 39.504 147.017 40.064 147.881 40.704L145.289 45.408C144.361 44.544 143.305 43.84 142.121 43.296C140.937 42.72 139.849 42.432 138.857 42.432C138.185 42.432 137.673 42.56 137.321 42.816C137.001 43.072 136.841 43.408 136.841 43.824C136.841 44.304 137.033 44.704 137.417 45.024C137.833 45.344 138.409 45.648 139.145 45.936C139.913 46.192 140.841 46.528 141.929 46.944C143.081 47.36 144.137 47.84 145.097 48.384C146.089 48.928 146.873 49.616 147.449 50.448C148.057 51.28 148.361 52.384 148.361 53.76C148.361 56.128 147.625 57.92 146.153 59.136C144.713 60.32 142.681 60.912 140.057 60.912C138.457 60.912 136.969 60.72 135.593 60.336C134.249 59.984 133.001 59.504 131.849 58.896C130.697 58.256 129.625 57.552 128.633 56.784L131.657 51.984ZM151.052 48.96C151.052 46.624 151.596 44.592 152.684 42.864C153.772 41.136 155.276 39.792 157.196 38.832C159.116 37.872 161.276 37.392 163.676 37.392C166.076 37.392 168.22 37.872 170.108 38.832C172.028 39.792 173.532 41.136 174.62 42.864C175.74 44.592 176.3 46.624 176.3 48.96C176.3 51.264 175.74 53.28 174.62 55.008C173.532 56.736 172.028 58.08 170.108 59.04C168.22 60 166.076 60.48 163.676 60.48C161.276 60.48 159.116 60 157.196 59.04C155.276 58.08 153.772 56.736 152.684 55.008C151.596 53.28 151.052 51.264 151.052 48.96ZM158.492 48.96C158.492 50.112 158.732 51.104 159.212 51.936C159.692 52.736 160.316 53.36 161.084 53.808C161.852 54.256 162.716 54.48 163.676 54.48C164.604 54.48 165.452 54.256 166.22 53.808C167.02 53.36 167.644 52.736 168.092 51.936C168.572 51.104 168.812 50.112 168.812 48.96C168.812 47.808 168.572 46.816 168.092 45.984C167.644 45.152 167.02 44.512 166.22 44.064C165.452 43.616 164.604 43.392 163.676 43.392C162.716 43.392 161.852 43.616 161.084 44.064C160.316 44.512 159.692 45.152 159.212 45.984C158.732 46.816 158.492 47.808 158.492 48.96ZM195.012 46.56C195.012 45.248 194.756 44.24 194.244 43.536C193.764 42.832 192.948 42.48 191.796 42.48C191.028 42.48 190.356 42.64 189.78 42.96C189.204 43.28 188.756 43.744 188.436 44.352C188.116 44.96 187.956 45.696 187.956 46.56V60H180.66V37.92H187.956V41.232C188.596 40.016 189.46 39.072 190.548 38.4C191.668 37.728 193.044 37.392 194.676 37.392C197.428 37.392 199.428 38.128 200.676 39.6C201.924 41.072 202.548 43.136 202.548 45.792V60H195.012V46.56ZM227.076 48.192C227.748 49.408 228.5 50.464 229.332 51.36C230.196 52.256 231.124 52.944 232.116 53.424C233.14 53.904 234.212 54.144 235.332 54.144C236.516 54.144 237.492 53.856 238.26 53.28C239.028 52.672 239.412 51.856 239.412 50.832C239.412 49.968 239.188 49.28 238.74 48.768C238.292 48.224 237.572 47.712 236.58 47.232C235.588 46.752 234.276 46.208 232.644 45.6C231.844 45.312 230.916 44.912 229.86 44.4C228.836 43.888 227.86 43.232 226.932 42.432C226.004 41.6 225.236 40.608 224.628 39.456C224.02 38.272 223.716 36.848 223.716 35.184C223.716 33.2 224.228 31.488 225.252 30.048C226.308 28.608 227.716 27.52 229.476 26.784C231.268 26.016 233.252 25.632 235.428 25.632C237.668 25.632 239.604 26 241.236 26.736C242.9 27.472 244.276 28.4 245.364 29.52C246.452 30.64 247.284 31.776 247.86 32.928L241.668 36.384C241.188 35.584 240.628 34.896 239.988 34.32C239.38 33.712 238.692 33.248 237.924 32.928C237.188 32.576 236.388 32.4 235.524 32.4C234.372 32.4 233.492 32.656 232.884 33.168C232.276 33.648 231.972 34.256 231.972 34.992C231.972 35.76 232.26 36.432 232.836 37.008C233.444 37.584 234.292 38.112 235.38 38.592C236.5 39.072 237.844 39.584 239.412 40.128C240.596 40.576 241.7 41.104 242.724 41.712C243.748 42.288 244.644 42.992 245.412 43.824C246.212 44.656 246.836 45.616 247.284 46.704C247.732 47.792 247.956 49.04 247.956 50.448C247.956 52.144 247.604 53.664 246.9 55.008C246.228 56.32 245.3 57.424 244.116 58.32C242.964 59.216 241.636 59.888 240.132 60.336C238.66 60.816 237.14 61.056 235.572 61.056C233.396 61.056 231.364 60.672 229.476 59.904C227.62 59.104 226.004 58.032 224.628 56.688C223.252 55.344 222.18 53.872 221.412 52.272L227.076 48.192ZM263.892 60.48C261.332 60.48 259.108 60.016 257.22 59.088C255.364 58.128 253.924 56.784 252.9 55.056C251.876 53.328 251.364 51.296 251.364 48.96C251.364 46.592 251.86 44.544 252.852 42.816C253.844 41.088 255.268 39.76 257.124 38.832C259.012 37.904 261.236 37.44 263.796 37.44C266.356 37.44 268.516 37.888 270.276 38.784C272.036 39.648 273.38 40.912 274.308 42.576C275.236 44.24 275.7 46.256 275.7 48.624C275.7 48.976 275.7 49.328 275.7 49.68C275.7 50 275.668 50.272 275.604 50.496H255.444V46.464H269.076L267.348 48.672C267.508 48.448 267.636 48.176 267.732 47.856C267.86 47.504 267.924 47.216 267.924 46.992C267.924 46.032 267.748 45.2 267.396 44.496C267.044 43.792 266.548 43.248 265.908 42.864C265.268 42.48 264.516 42.288 263.652 42.288C262.564 42.288 261.652 42.528 260.916 43.008C260.18 43.488 259.62 44.224 259.236 45.216C258.884 46.176 258.692 47.392 258.66 48.864C258.66 50.208 258.852 51.36 259.236 52.32C259.62 53.28 260.196 54.016 260.964 54.528C261.732 55.008 262.676 55.248 263.796 55.248C265.076 55.248 266.164 55.008 267.06 54.528C267.988 54.048 268.724 53.328 269.268 52.368L275.748 53.952C274.596 56.128 273.028 57.76 271.044 58.848C269.092 59.936 266.708 60.48 263.892 60.48ZM287.328 37.92V60H280.176V37.92H287.328ZM293.712 45.408C293.328 45.024 292.912 44.72 292.464 44.496C292.048 44.272 291.52 44.16 290.88 44.16C290.176 44.16 289.552 44.352 289.008 44.736C288.464 45.12 288.048 45.68 287.76 46.416C287.472 47.152 287.328 48.048 287.328 49.104L285.6 46.56C285.6 44.8 285.936 43.232 286.608 41.856C287.312 40.48 288.224 39.392 289.344 38.592C290.464 37.792 291.632 37.392 292.848 37.392C293.648 37.392 294.416 37.552 295.152 37.872C295.888 38.192 296.448 38.64 296.832 39.216L293.712 45.408ZM298.387 37.92H306.115L311.203 50.16L316.243 37.92H323.971L311.203 62.592L298.387 37.92ZM326.244 29.616C326.244 28.464 326.66 27.536 327.492 26.832C328.324 26.096 329.316 25.728 330.468 25.728C331.652 25.728 332.644 26.096 333.444 26.832C334.276 27.536 334.692 28.464 334.692 29.616C334.692 30.768 334.276 31.712 333.444 32.448C332.644 33.184 331.652 33.552 330.468 33.552C329.316 33.552 328.324 33.184 327.492 32.448C326.66 31.712 326.244 30.768 326.244 29.616ZM326.964 37.92H333.972V60H326.964V37.92ZM346.037 48.96C346.037 50.144 346.293 51.168 346.805 52.032C347.317 52.864 348.021 53.52 348.917 54C349.845 54.48 350.837 54.72 351.893 54.72C352.789 54.72 353.637 54.592 354.437 54.336C355.269 54.048 356.021 53.664 356.693 53.184C357.397 52.704 357.973 52.112 358.421 51.408V58.464C357.653 59.072 356.693 59.568 355.541 59.952C354.389 60.304 352.981 60.48 351.317 60.48C348.885 60.48 346.693 60 344.741 59.04C342.821 58.08 341.301 56.736 340.181 55.008C339.093 53.28 338.549 51.264 338.549 48.96C338.549 46.624 339.093 44.608 340.181 42.912C341.301 41.184 342.821 39.84 344.741 38.88C346.693 37.92 348.885 37.44 351.317 37.44C352.981 37.44 354.389 37.632 355.541 38.016C356.693 38.368 357.653 38.816 358.421 39.36V46.464C357.973 45.76 357.381 45.168 356.645 44.688C355.941 44.208 355.173 43.84 354.341 43.584C353.509 43.328 352.693 43.2 351.893 43.2C350.837 43.2 349.845 43.456 348.917 43.968C348.021 44.48 347.317 45.168 346.805 46.032C346.293 46.896 346.037 47.872 346.037 48.96ZM374.892 60.48C372.332 60.48 370.108 60.016 368.22 59.088C366.364 58.128 364.924 56.784 363.9 55.056C362.876 53.328 362.364 51.296 362.364 48.96C362.364 46.592 362.86 44.544 363.852 42.816C364.844 41.088 366.268 39.76 368.124 38.832C370.012 37.904 372.236 37.44 374.796 37.44C377.356 37.44 379.516 37.888 381.276 38.784C383.036 39.648 384.38 40.912 385.308 42.576C386.236 44.24 386.7 46.256 386.7 48.624C386.7 48.976 386.7 49.328 386.7 49.68C386.7 50 386.668 50.272 386.604 50.496H366.444V46.464H380.076L378.348 48.672C378.508 48.448 378.636 48.176 378.732 47.856C378.86 47.504 378.924 47.216 378.924 46.992C378.924 46.032 378.748 45.2 378.396 44.496C378.044 43.792 377.548 43.248 376.908 42.864C376.268 42.48 375.516 42.288 374.652 42.288C373.564 42.288 372.652 42.528 371.916 43.008C371.18 43.488 370.62 44.224 370.236 45.216C369.884 46.176 369.692 47.392 369.66 48.864C369.66 50.208 369.852 51.36 370.236 52.32C370.62 53.28 371.196 54.016 371.964 54.528C372.732 55.008 373.676 55.248 374.796 55.248C376.076 55.248 377.164 55.008 378.06 54.528C378.988 54.048 379.724 53.328 380.268 52.368L386.748 53.952C385.596 56.128 384.028 57.76 382.044 58.848C380.092 59.936 377.708 60.48 374.892 60.48ZM392.376 51.984C393.496 52.912 394.504 53.648 395.4 54.192C396.328 54.704 397.144 55.072 397.848 55.296C398.552 55.488 399.16 55.584 399.672 55.584C400.408 55.584 400.952 55.424 401.304 55.104C401.656 54.784 401.832 54.368 401.832 53.856C401.832 53.376 401.688 52.976 401.4 52.656C401.112 52.304 400.616 51.968 399.912 51.648C399.24 51.328 398.312 50.992 397.128 50.64C396.072 50.256 395.064 49.808 394.104 49.296C393.176 48.752 392.408 48.032 391.8 47.136C391.192 46.24 390.888 45.088 390.888 43.68C390.888 42.336 391.24 41.2 391.944 40.272C392.68 39.344 393.656 38.64 394.872 38.16C396.12 37.68 397.544 37.44 399.144 37.44C400.424 37.44 401.608 37.584 402.696 37.872C403.816 38.16 404.856 38.544 405.816 39.024C406.808 39.504 407.736 40.064 408.6 40.704L406.008 45.408C405.08 44.544 404.024 43.84 402.84 43.296C401.656 42.72 400.568 42.432 399.576 42.432C398.904 42.432 398.392 42.56 398.04 42.816C397.72 43.072 397.56 43.408 397.56 43.824C397.56 44.304 397.752 44.704 398.136 45.024C398.552 45.344 399.128 45.648 399.864 45.936C400.632 46.192 401.56 46.528 402.648 46.944C403.8 47.36 404.856 47.84 405.816 48.384C406.808 48.928 407.592 49.616 408.168 50.448C408.776 51.28 409.08 52.384 409.08 53.76C409.08 56.128 408.344 57.92 406.872 59.136C405.432 60.32 403.4 60.912 400.776 60.912C399.176 60.912 397.688 60.72 396.312 60.336C394.968 59.984 393.72 59.504 392.568 58.896C391.416 58.256 390.344 57.552 389.352 56.784L392.376 51.984Z" fill="#143274"/>
</svg>
