<svg width="310" height="73" viewBox="0 0 310 73" fill="none" xmlns="http://www.w3.org/2000/svg">
<path d="M16.256 29.152L13.568 52H2.176L9.408 4.96L28.48 32.288L47.616 4.96L54.848 52H43.456L40.768 29.152L28.48 47.84L16.256 29.152ZM75.752 52.64C72.3387 52.64 69.3733 52.0213 66.856 50.784C64.3813 49.504 62.4613 47.712 61.096 45.408C59.7307 43.104 59.048 40.3947 59.048 37.28C59.048 34.1227 59.7093 31.392 61.032 29.088C62.3547 26.784 64.2533 25.0133 66.728 23.776C69.2453 22.5387 72.2107 21.92 75.624 21.92C79.0373 21.92 81.9173 22.5173 84.264 23.712C86.6107 24.864 88.4027 26.5493 89.64 28.768C90.8773 30.9867 91.496 33.6747 91.496 36.832C91.496 37.3013 91.496 37.7707 91.496 38.24C91.496 38.6667 91.4533 39.0293 91.368 39.328H64.488V33.952H82.664L80.36 36.896C80.5733 36.5973 80.744 36.2347 80.872 35.808C81.0427 35.3387 81.128 34.9547 81.128 34.656C81.128 33.376 80.8933 32.2667 80.424 31.328C79.9547 30.3893 79.2933 29.664 78.44 29.152C77.5867 28.64 76.584 28.384 75.432 28.384C73.9813 28.384 72.7653 28.704 71.784 29.344C70.8027 29.984 70.056 30.9653 69.544 32.288C69.0747 33.568 68.8187 35.1893 68.776 37.152C68.776 38.944 69.032 40.48 69.544 41.76C70.056 43.04 70.824 44.0213 71.848 44.704C72.872 45.344 74.1307 45.664 75.624 45.664C77.3307 45.664 78.7813 45.344 79.976 44.704C81.2133 44.064 82.1947 43.104 82.92 41.824L91.56 43.936C90.024 46.8373 87.9333 49.0133 85.288 50.464C82.6853 51.9147 79.5067 52.64 75.752 52.64ZM94.0075 22.56H113.72V30.56H94.0075V22.56ZM99.1915 12.32H108.472V52H99.1915V12.32ZM125.327 42.784C125.327 43.552 125.519 44.2133 125.903 44.768C126.287 45.28 126.799 45.6853 127.439 45.984C128.079 46.24 128.783 46.368 129.551 46.368C130.66 46.368 131.684 46.1333 132.623 45.664C133.561 45.1947 134.329 44.4907 134.927 43.552C135.524 42.6133 135.823 41.4613 135.823 40.096L136.847 43.936C136.847 45.8133 136.335 47.4133 135.311 48.736C134.287 50.016 132.964 50.9973 131.343 51.68C129.721 52.32 127.972 52.64 126.095 52.64C124.217 52.64 122.468 52.2987 120.847 51.616C119.268 50.8907 117.988 49.824 117.007 48.416C116.068 47.008 115.599 45.3013 115.599 43.296C115.599 40.48 116.601 38.2613 118.607 36.64C120.612 34.976 123.449 34.144 127.119 34.144C128.911 34.144 130.511 34.3147 131.919 34.656C133.369 34.9973 134.607 35.424 135.631 35.936C136.655 36.448 137.423 36.9813 137.935 37.536V41.824C136.911 41.056 135.716 40.48 134.351 40.096C133.028 39.6693 131.62 39.456 130.127 39.456C128.975 39.456 128.057 39.584 127.375 39.84C126.692 40.096 126.18 40.48 125.839 40.992C125.497 41.4613 125.327 42.0587 125.327 42.784ZM121.039 31.584L117.775 25.12C119.439 24.3093 121.444 23.5413 123.791 22.816C126.137 22.0907 128.697 21.728 131.471 21.728C134.073 21.728 136.399 22.112 138.447 22.88C140.495 23.6053 142.116 24.672 143.311 26.08C144.505 27.488 145.103 29.216 145.103 31.264V52H135.823V33.44C135.823 32.7147 135.695 32.096 135.439 31.584C135.225 31.0293 134.884 30.56 134.415 30.176C133.945 29.792 133.348 29.5147 132.623 29.344C131.94 29.1733 131.151 29.088 130.255 29.088C128.932 29.088 127.631 29.2373 126.351 29.536C125.113 29.8347 124.025 30.1973 123.087 30.624C122.148 31.008 121.465 31.328 121.039 31.584ZM148.058 22.56H158.362L165.146 38.88L171.866 22.56H182.17L165.146 55.456L148.058 22.56ZM199.815 52.64C196.401 52.64 193.436 52.0213 190.919 50.784C188.444 49.504 186.524 47.712 185.159 45.408C183.793 43.104 183.111 40.3947 183.111 37.28C183.111 34.1227 183.772 31.392 185.095 29.088C186.417 26.784 188.316 25.0133 190.791 23.776C193.308 22.5387 196.273 21.92 199.687 21.92C203.1 21.92 205.98 22.5173 208.327 23.712C210.673 24.864 212.465 26.5493 213.703 28.768C214.94 30.9867 215.559 33.6747 215.559 36.832C215.559 37.3013 215.559 37.7707 215.559 38.24C215.559 38.6667 215.516 39.0293 215.431 39.328H188.551V33.952H206.727L204.423 36.896C204.636 36.5973 204.807 36.2347 204.935 35.808C205.105 35.3387 205.191 34.9547 205.191 34.656C205.191 33.376 204.956 32.2667 204.487 31.328C204.017 30.3893 203.356 29.664 202.503 29.152C201.649 28.64 200.647 28.384 199.495 28.384C198.044 28.384 196.828 28.704 195.847 29.344C194.865 29.984 194.119 30.9653 193.607 32.288C193.137 33.568 192.881 35.1893 192.839 37.152C192.839 38.944 193.095 40.48 193.607 41.76C194.119 43.04 194.887 44.0213 195.911 44.704C196.935 45.344 198.193 45.664 199.687 45.664C201.393 45.664 202.844 45.344 204.039 44.704C205.276 44.064 206.257 43.104 206.983 41.824L215.623 43.936C214.087 46.8373 211.996 49.0133 209.351 50.464C206.748 51.9147 203.569 52.64 199.815 52.64ZM231.062 22.56V52H221.526V22.56H231.062ZM239.574 32.544C239.062 32.032 238.507 31.6267 237.91 31.328C237.355 31.0293 236.651 30.88 235.798 30.88C234.859 30.88 234.027 31.136 233.302 31.648C232.577 32.16 232.022 32.9067 231.638 33.888C231.254 34.8693 231.062 36.064 231.062 37.472L228.758 34.08C228.758 31.7333 229.206 29.6427 230.102 27.808C231.041 25.9733 232.257 24.5227 233.75 23.456C235.243 22.3893 236.801 21.856 238.422 21.856C239.489 21.856 240.513 22.0693 241.494 22.496C242.475 22.9227 243.222 23.52 243.734 24.288L239.574 32.544ZM249.439 41.312C250.932 42.5493 252.276 43.5307 253.47 44.256C254.708 44.9387 255.796 45.4293 256.735 45.728C257.673 45.984 258.484 46.112 259.167 46.112C260.148 46.112 260.873 45.8987 261.343 45.472C261.812 45.0453 262.047 44.4907 262.047 43.808C262.047 43.168 261.855 42.6347 261.471 42.208C261.087 41.7387 260.425 41.2907 259.487 40.864C258.591 40.4373 257.353 39.9893 255.775 39.52C254.367 39.008 253.023 38.4107 251.743 37.728C250.505 37.0027 249.481 36.0427 248.671 34.848C247.86 33.6533 247.455 32.1173 247.455 30.24C247.455 28.448 247.924 26.9333 248.863 25.696C249.844 24.4587 251.145 23.52 252.767 22.88C254.431 22.24 256.329 21.92 258.463 21.92C260.169 21.92 261.748 22.112 263.199 22.496C264.692 22.88 266.079 23.392 267.359 24.032C268.681 24.672 269.919 25.4187 271.071 26.272L267.615 32.544C266.377 31.392 264.969 30.4533 263.391 29.728C261.812 28.96 260.361 28.576 259.039 28.576C258.143 28.576 257.46 28.7467 256.991 29.088C256.564 29.4293 256.351 29.8773 256.351 30.432C256.351 31.072 256.607 31.6053 257.119 32.032C257.673 32.4587 258.441 32.864 259.423 33.248C260.447 33.5893 261.684 34.0373 263.135 34.592C264.671 35.1467 266.079 35.7867 267.359 36.512C268.681 37.2373 269.727 38.1547 270.495 39.264C271.305 40.3733 271.711 41.8453 271.711 43.68C271.711 46.8373 270.729 49.2267 268.767 50.848C266.847 52.4267 264.137 53.216 260.639 53.216C258.505 53.216 256.521 52.96 254.687 52.448C252.895 51.9787 251.231 51.3387 249.695 50.528C248.159 49.6747 246.729 48.736 245.407 47.712L249.439 41.312ZM292.002 52.64C288.589 52.64 285.623 52.0213 283.106 50.784C280.631 49.504 278.711 47.712 277.346 45.408C275.981 43.104 275.298 40.3947 275.298 37.28C275.298 34.1227 275.959 31.392 277.282 29.088C278.605 26.784 280.503 25.0133 282.978 23.776C285.495 22.5387 288.461 21.92 291.874 21.92C295.287 21.92 298.167 22.5173 300.514 23.712C302.861 24.864 304.653 26.5493 305.89 28.768C307.127 30.9867 307.746 33.6747 307.746 36.832C307.746 37.3013 307.746 37.7707 307.746 38.24C307.746 38.6667 307.703 39.0293 307.618 39.328H280.738V33.952H298.914L296.61 36.896C296.823 36.5973 296.994 36.2347 297.122 35.808C297.293 35.3387 297.378 34.9547 297.378 34.656C297.378 33.376 297.143 32.2667 296.674 31.328C296.205 30.3893 295.543 29.664 294.69 29.152C293.837 28.64 292.834 28.384 291.682 28.384C290.231 28.384 289.015 28.704 288.034 29.344C287.053 29.984 286.306 30.9653 285.794 32.288C285.325 33.568 285.069 35.1893 285.026 37.152C285.026 38.944 285.282 40.48 285.794 41.76C286.306 43.04 287.074 44.0213 288.098 44.704C289.122 45.344 290.381 45.664 291.874 45.664C293.581 45.664 295.031 45.344 296.226 44.704C297.463 44.064 298.445 43.104 299.17 41.824L307.81 43.936C306.274 46.8373 304.183 49.0133 301.538 50.464C298.935 51.9147 295.757 52.64 292.002 52.64Z" fill="#F0F0F0"/>
<path d="M51.192 42.864L49.176 60H40.632L46.056 24.72L60.36 45.216L74.712 24.72L80.136 60H71.592L69.576 42.864L60.36 56.88L51.192 42.864ZM95.814 60.48C93.254 60.48 91.03 60.016 89.142 59.088C87.286 58.128 85.846 56.784 84.822 55.056C83.798 53.328 83.286 51.296 83.286 48.96C83.286 46.592 83.782 44.544 84.774 42.816C85.766 41.088 87.19 39.76 89.046 38.832C90.934 37.904 93.158 37.44 95.718 37.44C98.278 37.44 100.438 37.888 102.198 38.784C103.958 39.648 105.302 40.912 106.23 42.576C107.158 44.24 107.622 46.256 107.622 48.624C107.622 48.976 107.622 49.328 107.622 49.68C107.622 50 107.59 50.272 107.526 50.496H87.366V46.464H100.998L99.27 48.672C99.43 48.448 99.558 48.176 99.654 47.856C99.782 47.504 99.846 47.216 99.846 46.992C99.846 46.032 99.67 45.2 99.318 44.496C98.966 43.792 98.47 43.248 97.83 42.864C97.19 42.48 96.438 42.288 95.574 42.288C94.486 42.288 93.574 42.528 92.838 43.008C92.102 43.488 91.542 44.224 91.158 45.216C90.806 46.176 90.614 47.392 90.582 48.864C90.582 50.208 90.774 51.36 91.158 52.32C91.542 53.28 92.118 54.016 92.886 54.528C93.654 55.008 94.598 55.248 95.718 55.248C96.998 55.248 98.086 55.008 98.982 54.528C99.91 54.048 100.646 53.328 101.19 52.368L107.67 53.952C106.518 56.128 104.95 57.76 102.966 58.848C101.014 59.936 98.63 60.48 95.814 60.48ZM109.506 37.92H124.29V43.92H109.506V37.92ZM113.394 30.24H120.354V60H113.394V30.24ZM132.995 53.088C132.995 53.664 133.139 54.16 133.427 54.576C133.715 54.96 134.099 55.264 134.579 55.488C135.059 55.68 135.587 55.776 136.163 55.776C136.995 55.776 137.763 55.6 138.467 55.248C139.171 54.896 139.747 54.368 140.195 53.664C140.643 52.96 140.867 52.096 140.867 51.072L141.635 53.952C141.635 55.36 141.251 56.56 140.483 57.552C139.715 58.512 138.723 59.248 137.507 59.76C136.291 60.24 134.979 60.48 133.571 60.48C132.163 60.48 130.851 60.224 129.635 59.712C128.451 59.168 127.491 58.368 126.755 57.312C126.051 56.256 125.699 54.976 125.699 53.472C125.699 51.36 126.451 49.696 127.955 48.48C129.459 47.232 131.587 46.608 134.339 46.608C135.683 46.608 136.883 46.736 137.939 46.992C139.027 47.248 139.955 47.568 140.723 47.952C141.491 48.336 142.067 48.736 142.451 49.152V52.368C141.683 51.792 140.787 51.36 139.763 51.072C138.771 50.752 137.715 50.592 136.595 50.592C135.731 50.592 135.043 50.688 134.531 50.88C134.019 51.072 133.635 51.36 133.379 51.744C133.123 52.096 132.995 52.544 132.995 53.088ZM129.779 44.688L127.331 39.84C128.579 39.232 130.083 38.656 131.843 38.112C133.603 37.568 135.523 37.296 137.603 37.296C139.555 37.296 141.299 37.584 142.835 38.16C144.371 38.704 145.587 39.504 146.483 40.56C147.379 41.616 147.827 42.912 147.827 44.448V60H140.867V46.08C140.867 45.536 140.771 45.072 140.579 44.688C140.419 44.272 140.163 43.92 139.811 43.632C139.459 43.344 139.011 43.136 138.467 43.008C137.955 42.88 137.363 42.816 136.691 42.816C135.699 42.816 134.723 42.928 133.763 43.152C132.835 43.376 132.019 43.648 131.315 43.968C130.611 44.256 130.099 44.496 129.779 44.688ZM150.043 37.92H157.772L162.859 50.16L167.9 37.92H175.628L162.859 62.592L150.043 37.92ZM188.861 60.48C186.301 60.48 184.077 60.016 182.189 59.088C180.333 58.128 178.893 56.784 177.869 55.056C176.845 53.328 176.333 51.296 176.333 48.96C176.333 46.592 176.829 44.544 177.821 42.816C178.813 41.088 180.237 39.76 182.093 38.832C183.981 37.904 186.205 37.44 188.765 37.44C191.325 37.44 193.485 37.888 195.245 38.784C197.005 39.648 198.349 40.912 199.277 42.576C200.205 44.24 200.669 46.256 200.669 48.624C200.669 48.976 200.669 49.328 200.669 49.68C200.669 50 200.637 50.272 200.573 50.496H180.413V46.464H194.045L192.317 48.672C192.477 48.448 192.605 48.176 192.701 47.856C192.829 47.504 192.893 47.216 192.893 46.992C192.893 46.032 192.717 45.2 192.365 44.496C192.013 43.792 191.517 43.248 190.877 42.864C190.237 42.48 189.485 42.288 188.621 42.288C187.533 42.288 186.621 42.528 185.885 43.008C185.149 43.488 184.589 44.224 184.205 45.216C183.853 46.176 183.661 47.392 183.629 48.864C183.629 50.208 183.821 51.36 184.205 52.32C184.589 53.28 185.165 54.016 185.933 54.528C186.701 55.008 187.645 55.248 188.765 55.248C190.045 55.248 191.133 55.008 192.029 54.528C192.957 54.048 193.693 53.328 194.237 52.368L200.717 53.952C199.565 56.128 197.997 57.76 196.013 58.848C194.061 59.936 191.677 60.48 188.861 60.48ZM212.297 37.92V60H205.145V37.92H212.297ZM218.681 45.408C218.297 45.024 217.881 44.72 217.433 44.496C217.017 44.272 216.489 44.16 215.849 44.16C215.145 44.16 214.521 44.352 213.977 44.736C213.433 45.12 213.017 45.68 212.729 46.416C212.441 47.152 212.297 48.048 212.297 49.104L210.569 46.56C210.569 44.8 210.905 43.232 211.577 41.856C212.281 40.48 213.193 39.392 214.312 38.592C215.433 37.792 216.601 37.392 217.817 37.392C218.617 37.392 219.385 37.552 220.121 37.872C220.857 38.192 221.417 38.64 221.801 39.216L218.681 45.408ZM226.079 51.984C227.199 52.912 228.207 53.648 229.103 54.192C230.031 54.704 230.847 55.072 231.551 55.296C232.255 55.488 232.863 55.584 233.375 55.584C234.111 55.584 234.655 55.424 235.007 55.104C235.359 54.784 235.535 54.368 235.535 53.856C235.535 53.376 235.391 52.976 235.103 52.656C234.815 52.304 234.319 51.968 233.615 51.648C232.943 51.328 232.015 50.992 230.831 50.64C229.775 50.256 228.767 49.808 227.807 49.296C226.879 48.752 226.111 48.032 225.503 47.136C224.895 46.24 224.591 45.088 224.591 43.68C224.591 42.336 224.943 41.2 225.647 40.272C226.383 39.344 227.359 38.64 228.575 38.16C229.823 37.68 231.247 37.44 232.847 37.44C234.127 37.44 235.311 37.584 236.399 37.872C237.519 38.16 238.559 38.544 239.519 39.024C240.511 39.504 241.439 40.064 242.303 40.704L239.711 45.408C238.783 44.544 237.727 43.84 236.543 43.296C235.359 42.72 234.271 42.432 233.279 42.432C232.607 42.432 232.095 42.56 231.743 42.816C231.423 43.072 231.263 43.408 231.263 43.824C231.263 44.304 231.455 44.704 231.839 45.024C232.255 45.344 232.831 45.648 233.567 45.936C234.335 46.192 235.263 46.528 236.351 46.944C237.503 47.36 238.559 47.84 239.519 48.384C240.511 48.928 241.295 49.616 241.871 50.448C242.479 51.28 242.783 52.384 242.783 53.76C242.783 56.128 242.047 57.92 240.575 59.136C239.135 60.32 237.103 60.912 234.479 60.912C232.879 60.912 231.391 60.72 230.015 60.336C228.671 59.984 227.423 59.504 226.271 58.896C225.119 58.256 224.047 57.552 223.055 56.784L226.079 51.984ZM258.002 60.48C255.442 60.48 253.218 60.016 251.33 59.088C249.474 58.128 248.034 56.784 247.01 55.056C245.986 53.328 245.474 51.296 245.474 48.96C245.474 46.592 245.97 44.544 246.962 42.816C247.954 41.088 249.378 39.76 251.234 38.832C253.122 37.904 255.346 37.44 257.906 37.44C260.466 37.44 262.626 37.888 264.386 38.784C266.146 39.648 267.49 40.912 268.418 42.576C269.346 44.24 269.81 46.256 269.81 48.624C269.81 48.976 269.81 49.328 269.81 49.68C269.81 50 269.778 50.272 269.714 50.496H249.554V46.464H263.186L261.458 48.672C261.618 48.448 261.746 48.176 261.842 47.856C261.97 47.504 262.034 47.216 262.034 46.992C262.034 46.032 261.858 45.2 261.506 44.496C261.154 43.792 260.658 43.248 260.018 42.864C259.378 42.48 258.626 42.288 257.762 42.288C256.674 42.288 255.762 42.528 255.026 43.008C254.29 43.488 253.73 44.224 253.346 45.216C252.994 46.176 252.802 47.392 252.77 48.864C252.77 50.208 252.962 51.36 253.346 52.32C253.73 53.28 254.306 54.016 255.074 54.528C255.842 55.008 256.786 55.248 257.906 55.248C259.186 55.248 260.274 55.008 261.17 54.528C262.098 54.048 262.834 53.328 263.378 52.368L269.858 53.952C268.706 56.128 267.138 57.76 265.154 58.848C263.202 59.936 260.818 60.48 258.002 60.48Z" fill="#143274"/>
</svg>
