<svg width="60" height="60" viewBox="0 0 60 60" fill="none" xmlns="http://www.w3.org/2000/svg">
<path d="M50.566 46.7503H49.5584L52.024 34.4406C52.0823 34.151 52.0827 33.8527 52.0254 33.5629C51.9681 33.2731 51.854 32.9974 51.6898 32.7516C51.5256 32.5059 51.3145 32.2948 51.0685 32.1306C50.8226 31.9663 50.5466 31.8521 50.2563 31.7945C50.1107 31.7651 49.9625 31.7503 49.814 31.7503H28.7781C28.2285 31.7469 27.6971 31.9467 27.2863 32.3112C26.8755 32.6757 26.6143 33.179 26.5532 33.7243C25.1753 32.9233 23.6096 32.5007 22.0151 32.4993V31.1828C23.4578 30.6184 24.7129 29.6612 25.6377 28.4201C26.5624 27.1789 27.1198 25.7037 27.2462 24.162C27.897 23.9998 28.4748 23.6253 28.8879 23.0979C29.3011 22.5705 29.5259 21.9205 29.5268 21.251V15.2507C29.5258 14.0276 29.0976 12.8431 28.3159 11.9013C27.5342 10.9595 26.4479 10.3193 25.2442 10.0909C25.497 9.83654 25.6686 9.5131 25.7375 9.16144C25.8063 8.80977 25.7692 8.44563 25.631 8.11497C25.4927 7.78432 25.2594 7.50195 24.9605 7.30352C24.6616 7.10508 24.3106 6.99947 23.9516 7H16.7611C14.57 7.00303 12.4697 7.87332 10.9206 9.42001C9.37143 10.9667 8.50002 13.0635 8.49742 15.2507V21.251C8.49825 21.9205 8.7231 22.5705 9.13626 23.0979C9.54942 23.6253 10.1272 23.9998 10.7779 24.162C10.9046 25.7038 11.4621 27.1793 12.3872 28.4204C13.3123 29.6616 14.5677 30.6187 16.0107 31.1828V32.4993C13.6209 32.4993 11.329 33.447 9.63918 35.1339C7.94934 36.8207 7 39.1086 7 41.4941V48.999C6.99979 49.393 7.07734 49.7832 7.22825 50.1473C7.37915 50.5114 7.60044 50.8422 7.87947 51.1209C8.1585 51.3996 8.4898 51.6207 8.85445 51.7715C9.2191 51.9224 9.60995 52 10.0047 52H28.0261C28.3886 51.9918 28.7469 51.9198 29.0844 51.7874C29.4687 51.9233 29.8727 51.9951 30.2804 52H48.3116C49.307 51.997 50.2608 51.6009 50.9646 50.8983C51.6685 50.1957 52.0653 49.2436 52.0683 48.25C52.0683 47.8523 51.91 47.4708 51.6283 47.1896C51.3465 46.9083 50.9644 46.7503 50.566 46.7503ZM28.1981 33.5248C28.2685 33.4391 28.357 33.37 28.4572 33.3225C28.5575 33.275 28.6671 33.2502 28.7781 33.25H49.814C49.9126 33.2498 50.0104 33.269 50.1016 33.3065C50.1928 33.3441 50.2758 33.3992 50.3456 33.4688C50.4155 33.5384 50.4709 33.621 50.5087 33.712C50.5465 33.803 50.566 33.9005 50.566 33.999C50.566 34.0495 50.5611 34.0999 50.5512 34.1495L48.0266 46.7503H30.5655L28.0408 34.1495C28.0185 34.0402 28.021 33.9274 28.0482 33.8192C28.0755 33.7111 28.1267 33.6105 28.1981 33.5248ZM16.7611 8.49967H23.9532C24.0361 8.49923 24.1158 8.53145 24.175 8.58933C24.2342 8.6472 24.2681 8.72606 24.2694 8.80877C24.2704 8.85065 24.2628 8.8923 24.247 8.93112C24.2313 8.96994 24.2076 9.00512 24.1777 9.03446L22.9866 10.2201C22.8817 10.3252 22.8104 10.4589 22.7816 10.6045C22.7528 10.75 22.7678 10.9008 22.8248 11.0378C22.8817 11.1748 22.9781 11.2919 23.1017 11.3742C23.2252 11.4566 23.3705 11.5006 23.5191 11.5007H24.2694C25.2648 11.5037 26.2186 11.8997 26.9224 12.6023C27.6263 13.3049 28.0231 14.257 28.0261 15.2507V16.8861C27.683 16.7588 27.3135 16.7189 26.9511 16.77C26.5886 16.8211 26.2447 16.9616 25.9503 17.1788C25.7011 16.8187 25.3799 16.5141 25.0068 16.2841C24.6337 16.0541 24.217 15.9038 23.7829 15.8427C22.4159 15.7489 21.1019 15.2785 19.9869 14.4836C19.7182 14.2422 19.3695 14.1086 19.008 14.1086C18.6465 14.1086 18.2978 14.2422 18.0291 14.4836C16.9144 15.2778 15.601 15.7482 14.2348 15.8427C13.8006 15.9038 13.3839 16.0541 13.0108 16.2841C12.6378 16.5141 12.3165 16.8187 12.0673 17.1788C11.7732 16.9623 11.4299 16.8222 11.0681 16.7711C10.7063 16.72 10.3375 16.7595 9.99483 16.8861V15.2507C9.99657 13.4601 10.7101 11.7435 11.9787 10.4777C13.2474 9.21197 14.9674 8.50054 16.7611 8.49967ZM12.2541 23.4997C12.2536 23.3009 12.1742 23.1104 12.0332 22.9699C11.8923 22.8295 11.7012 22.7507 11.5021 22.7507C11.1038 22.7502 10.7219 22.5921 10.4402 22.3109C10.1586 22.0298 10.0002 21.6486 9.99975 21.251V19.0007C9.995 18.8992 10.0109 18.7979 10.0465 18.7028C10.0821 18.6077 10.1367 18.5208 10.2069 18.4474C10.2771 18.3739 10.3615 18.3155 10.4551 18.2755C10.5486 18.2356 10.6492 18.215 10.7509 18.215C10.8526 18.215 10.9533 18.2356 11.0468 18.2755C11.1403 18.3155 11.2247 18.3739 11.2949 18.4474C11.3651 18.5208 11.4197 18.6077 11.4553 18.7028C11.4909 18.7979 11.5068 18.8992 11.5021 19.0007C11.5111 19.1935 11.5942 19.3754 11.7341 19.5087C11.8739 19.6419 12.0599 19.7163 12.2532 19.7163C12.4466 19.7163 12.6325 19.6419 12.7724 19.5087C12.9123 19.3754 12.9954 19.1935 13.0044 19.0007C13.0051 18.5957 13.1513 18.2045 13.4165 17.8981C13.6817 17.5917 14.0482 17.3904 14.4494 17.3309C16.103 17.2079 17.6871 16.6161 19.0154 15.6252C20.3436 16.6161 21.9277 17.2079 23.5813 17.3309C23.9826 17.3904 24.3491 17.5917 24.6142 17.8981C24.8794 18.2045 25.0256 18.5957 25.0263 19.0007C25.0354 19.1935 25.1184 19.3754 25.2583 19.5087C25.3982 19.6419 25.5841 19.7163 25.7775 19.7163C25.9709 19.7163 26.1568 19.6419 26.2967 19.5087C26.4366 19.3754 26.5196 19.1935 26.5287 19.0007C26.5239 18.8992 26.5398 18.7979 26.5754 18.7028C26.611 18.6077 26.6656 18.5208 26.7358 18.4474C26.806 18.3739 26.8905 18.3155 26.984 18.2755C27.0775 18.2356 27.1781 18.215 27.2798 18.215C27.3815 18.215 27.4822 18.2356 27.5757 18.2755C27.6692 18.3155 27.7536 18.3739 27.8238 18.4474C27.894 18.5208 27.9486 18.6077 27.9842 18.7028C28.0198 18.7979 28.0357 18.8992 28.031 19.0007V21.251C28.0306 21.6486 27.8721 22.0298 27.5905 22.3109C27.3088 22.5921 26.927 22.7502 26.5287 22.7507C26.3295 22.7507 26.1385 22.8295 25.9975 22.9699C25.8565 23.1104 25.7771 23.3009 25.7767 23.4997C25.7767 25.2897 25.0643 27.0064 23.7963 28.2722C22.5283 29.5379 20.8086 30.249 19.0154 30.249C17.2222 30.249 15.5024 29.5379 14.2344 28.2722C12.9664 27.0064 12.2541 25.2897 12.2541 23.4997ZM19.0105 31.7454C19.5145 31.7445 20.0174 31.6974 20.5128 31.6048V33.2402C20.5128 33.6379 20.3545 34.0194 20.0728 34.3006C19.791 34.5819 19.4089 34.7399 19.0105 34.7399C18.612 34.7399 18.2299 34.5819 17.9481 34.3006C17.6664 34.0194 17.5081 33.6379 17.5081 33.2402V31.6048C18.0035 31.6974 18.5064 31.7445 19.0105 31.7454ZM8.4925 48.999V41.5007C8.49164 40.5165 8.68501 39.5417 9.06157 38.6322C9.43812 37.7226 9.99049 36.8959 10.6871 36.1995C11.3837 35.503 12.211 34.9504 13.1216 34.5731C14.0322 34.1958 15.0084 34.0013 15.9943 34.0007H16.1057C16.2692 34.6442 16.643 35.2149 17.1679 35.6226C17.6928 36.0303 18.3388 36.2516 19.0039 36.2516C19.669 36.2516 20.315 36.0303 20.8399 35.6226C21.3648 35.2149 21.7386 34.6442 21.9021 34.0007H22.0086C23.7681 33.999 25.4721 34.6156 26.8219 35.7424L29.0271 46.7503H28.0195C27.6211 46.7503 27.239 46.9083 26.9572 47.1896C26.6755 47.4708 26.5172 47.8523 26.5172 48.25C26.5203 49.064 26.7908 49.8545 27.2872 50.5003H9.99483C9.7974 50.5003 9.60191 50.4615 9.41954 50.386C9.23716 50.3105 9.07147 50.1999 8.93194 50.0605C8.79242 49.9211 8.68179 49.7556 8.60639 49.5734C8.53099 49.3913 8.49229 49.1961 8.4925 48.999ZM48.3116 50.5003H30.2804C29.6825 50.5003 29.1091 50.2632 28.6864 49.8412C28.2636 49.4192 28.0261 48.8468 28.0261 48.25H50.566C50.566 48.8468 50.3284 49.4192 49.9057 49.8412C49.4829 50.2632 48.9095 50.5003 48.3116 50.5003Z" fill="#143274"/>
<path d="M22.6164 26.1997C22.6805 26.1213 22.7281 26.0308 22.7563 25.9336C22.7845 25.8364 22.7927 25.7344 22.7804 25.634C22.7681 25.5335 22.7356 25.4366 22.6848 25.349C22.634 25.2614 22.566 25.1849 22.4849 25.1242C22.4037 25.0635 22.3111 25.0198 22.2126 24.9958C22.1141 24.9717 22.0118 24.9678 21.9118 24.9843C21.8117 25.0007 21.716 25.0372 21.6305 25.0915C21.5449 25.1458 21.4712 25.2168 21.4139 25.3003C21.134 25.673 20.771 25.9755 20.3537 26.1838C19.9364 26.3922 19.4762 26.5007 19.0096 26.5007C18.543 26.5007 18.0829 26.3922 17.6655 26.1838C17.2482 25.9755 16.8853 25.673 16.6054 25.3003C16.5462 25.2216 16.4721 25.1552 16.3873 25.1051C16.3025 25.055 16.2086 25.0221 16.111 25.0082C16.0134 24.9943 15.914 24.9997 15.8185 25.0241C15.723 25.0486 15.6333 25.0916 15.5544 25.1506C15.4756 25.2097 15.4092 25.2837 15.359 25.3684C15.3087 25.453 15.2757 25.5468 15.2618 25.6442C15.2479 25.7416 15.2533 25.8408 15.2778 25.9361C15.3023 26.0315 15.3454 26.121 15.4045 26.1997C15.824 26.7586 16.3681 27.2122 16.9937 27.5247C17.6193 27.8371 18.3093 27.9998 19.0088 27.9998C19.7084 27.9998 20.3983 27.8371 21.0239 27.5247C21.6495 27.2122 22.1936 26.7586 22.6131 26.1997H22.6164Z" fill="#143274"/>
<path d="M36.6895 37.193H37.2809C37.3335 37.1953 37.3855 37.1806 37.4292 37.1512C37.4728 37.1217 37.5058 37.079 37.5234 37.0294C37.6593 36.7416 37.8117 36.4603 37.9477 36.1725C37.9698 36.1221 38.0034 36.0776 38.0458 36.0424C38.0882 36.0072 38.1381 35.9823 38.1918 35.9697C39.1431 35.708 40.0939 35.4431 41.0441 35.1749C41.493 35.049 41.9386 34.9165 42.3859 34.7873C42.6398 34.7137 42.7004 34.7399 42.7643 34.9999C43.0395 36.1201 43.382 37.2208 43.6818 38.3329C43.7539 38.6076 43.8309 38.8791 43.9144 39.1506C43.9319 39.2027 43.9376 39.258 43.9311 39.3126C43.9246 39.3672 43.906 39.4197 43.8767 39.4662C43.7211 39.7393 43.5835 40.0206 43.4196 40.2839C43.3796 40.3412 43.3581 40.4095 43.3581 40.4793C43.3581 40.5492 43.3796 40.6174 43.4196 40.6748C43.5835 40.9675 43.7276 41.2668 43.8833 41.5628C43.9056 41.6019 43.9196 41.6452 43.9244 41.6899C43.9292 41.7347 43.9247 41.7799 43.9111 41.8228C43.5999 43.0058 43.2913 44.1893 42.9855 45.3733C42.9347 45.5728 42.9052 45.7789 42.8643 45.9817C42.8167 46.2123 42.7168 46.2679 42.5022 46.1959C41.8469 45.9768 41.1833 45.8067 40.5215 45.6219C39.7875 45.4158 39.0519 45.2136 38.3147 45.0152C38.2666 45.0008 38.222 44.9766 38.1836 44.9443C38.1453 44.9119 38.1141 44.872 38.0919 44.8271C37.928 44.5474 37.7544 44.2759 37.6004 43.9897C37.5716 43.9288 37.5247 43.8781 37.4661 43.8448C37.4074 43.8114 37.3399 43.7969 37.2727 43.8033C36.9729 43.8033 36.6747 43.7902 36.3765 43.8033C36.3115 43.8061 36.2466 43.7944 36.1866 43.7693C36.1265 43.7441 36.0728 43.706 36.0292 43.6578C35.0217 42.6405 34.0272 41.6086 32.9951 40.6159C32.905 40.5276 32.9082 40.472 32.9951 40.3837C33.9699 39.4139 34.9021 38.3999 35.8506 37.4039C35.9045 37.3349 35.9749 37.2805 36.0554 37.2456C36.1358 37.2108 36.2237 37.1966 36.311 37.2044C36.4376 37.211 36.5645 37.211 36.6911 37.2044L36.6895 37.193ZM35.428 39.8881C35.5115 39.8881 35.5574 39.9012 35.6016 39.9012C36.0816 39.9012 36.5633 39.9143 37.0433 39.9094C37.6561 39.9012 38.2688 39.9617 38.8799 39.9094C38.9246 39.9101 38.9686 39.8982 39.0069 39.8751C39.0452 39.8519 39.0761 39.8185 39.0961 39.7786C39.6499 38.7908 40.2064 37.8046 40.7656 36.8201C40.7869 36.7825 40.8327 36.7383 40.8082 36.6974C40.7836 36.6566 40.7148 36.6893 40.6706 36.6974C39.7777 36.9215 38.8864 37.1488 37.9919 37.3696C37.8495 37.4043 37.721 37.4813 37.6233 37.5904C37.2727 37.9616 36.9172 38.3296 36.5649 38.6976L35.428 39.8881ZM42.8905 40.5766C42.879 40.5292 42.8708 40.4851 42.8577 40.4425C42.6611 39.7546 42.4634 39.0655 42.2646 38.3754C42.1794 38.0794 42.1008 37.7834 42.0123 37.489C42.0025 37.4546 41.9959 37.4121 41.9566 37.4056C41.9173 37.399 41.9026 37.4448 41.8862 37.4726C41.8321 37.5642 41.783 37.6591 41.7305 37.7507C41.239 38.606 40.7869 39.4826 40.2675 40.3199C40.2277 40.3708 40.206 40.4335 40.206 40.4981C40.206 40.5627 40.2277 40.6255 40.2675 40.6764C40.7213 41.3813 41.1293 42.1156 41.5602 42.8351C41.706 43.0788 41.8469 43.3258 41.991 43.5678C42.0074 43.5973 42.0205 43.6414 42.0615 43.6381C42.1024 43.6349 42.1024 43.5858 42.1123 43.5531L42.1319 43.4811C42.3263 42.743 42.5208 42.0055 42.7152 41.2684C42.7758 41.0313 42.8315 40.8007 42.8905 40.5766ZM40.8835 44.3544C40.8393 44.2645 40.8147 44.2105 40.7852 44.1582C40.2577 43.2489 39.7171 42.3478 39.2125 41.4254C39.1618 41.3161 39.0778 41.2256 38.9724 41.1668C38.867 41.1081 38.7458 41.0841 38.6259 41.0983C37.9018 41.0983 37.1777 41.1098 36.4535 41.0787C36.1911 41.058 35.9273 41.0618 35.6655 41.0902C35.6278 41.0902 35.5738 41.082 35.5574 41.1261C35.541 41.1703 35.5918 41.2063 35.6213 41.2357C36.2995 41.9308 36.9811 42.6225 37.6561 43.3209C37.7605 43.43 37.8932 43.5081 38.0394 43.5466C38.562 43.6905 39.0814 43.8426 39.6024 43.9897C40.0152 44.1075 40.4297 44.222 40.8835 44.3479V44.3544Z" fill="#143274"/>
</svg>
