<svg width="60" height="60" viewBox="0 0 60 60" fill="none" xmlns="http://www.w3.org/2000/svg">
<path d="M30.9251 12.752C30.9016 12.4191 31.117 12.2298 31.4302 12.2141C31.7435 12.1984 31.9524 12.3734 31.9654 12.7364C31.9419 13.0484 31.7683 13.2247 31.4316 13.2195C31.3671 13.2245 31.3022 13.2162 31.2411 13.195C31.18 13.1738 31.1239 13.1402 31.0763 13.0963C31.0288 13.0524 30.9908 12.9992 30.9648 12.94C30.9388 12.8807 30.9252 12.8167 30.9251 12.752Z" fill="#143274"/>
<path d="M31.9654 15.114C31.908 15.4051 31.7422 15.5931 31.4433 15.5775C31.113 15.5618 30.9055 15.3568 30.9407 15.0291C30.9455 14.9632 30.9639 14.8991 30.9948 14.8407C31.0257 14.7824 31.0685 14.7311 31.1203 14.6902C31.1721 14.6493 31.2319 14.6197 31.2959 14.6031C31.3598 14.5866 31.4264 14.5836 31.4916 14.5943C31.6232 14.6008 31.7469 14.659 31.8357 14.7564C31.9245 14.8538 31.9711 14.9823 31.9654 15.114Z" fill="#143274"/>
<path d="M31.4603 16.9471C31.754 16.9941 31.955 17.1417 31.9563 17.4433C31.9628 17.5136 31.9532 17.5845 31.9283 17.6506C31.9034 17.7167 31.8638 17.7763 31.8125 17.8248C31.7612 17.8733 31.6996 17.9096 31.6322 17.9308C31.5649 17.952 31.4936 17.9576 31.4237 17.9472C31.3532 17.9504 31.2829 17.9379 31.2178 17.9105C31.1527 17.8832 31.0945 17.8417 31.0474 17.7891C31.0003 17.7365 30.9655 17.6741 30.9455 17.6064C30.9254 17.5386 30.9207 17.4673 30.9316 17.3976C30.9603 17.1116 31.1718 16.9615 31.4603 16.9471Z" fill="#143274"/>
<path d="M30.9212 19.8509C30.9178 19.7858 30.9277 19.7207 30.9505 19.6597C30.9732 19.5986 31.0083 19.5428 31.0534 19.4958C31.0986 19.4489 31.1529 19.4116 31.213 19.3865C31.2731 19.3613 31.3377 19.3487 31.4028 19.3495C31.4706 19.3388 31.5398 19.3425 31.606 19.3604C31.6722 19.3783 31.7339 19.4099 31.787 19.4533C31.8401 19.4967 31.8835 19.5508 31.9142 19.6122C31.945 19.6735 31.9624 19.7406 31.9654 19.8091C31.9654 20.1747 31.767 20.3444 31.4524 20.3588C31.1378 20.3732 30.9303 20.1799 30.9212 19.8509Z" fill="#143274"/>
<path d="M38.0301 26.4183C38.1515 26.6612 38.0301 26.8466 37.8891 27.0111C36.4637 28.7328 35.033 30.4519 33.5971 32.1684C33.3361 32.4883 33.0202 32.4661 32.7656 32.1684C31.3089 30.4437 29.8508 28.7189 28.4188 26.9732C28.0624 26.5385 28.2883 26.1246 28.8613 26.1011C29.403 26.0776 29.9487 26.0736 30.4904 26.1011C30.8455 26.1193 30.9277 25.9836 30.9225 25.6532C30.9042 24.5878 30.9225 23.5224 30.9133 22.4583C30.9133 22.0496 30.976 21.6749 31.472 21.6879C31.9289 21.7023 31.9707 22.0718 31.9681 22.4491C31.9602 23.7548 31.9472 25.0605 31.9681 26.3661C31.9798 26.9759 31.707 27.1861 31.1405 27.16C30.775 27.1443 30.4082 27.16 29.8899 27.16C30.9577 28.4304 31.9367 29.5846 32.9001 30.7518C33.1429 31.0443 33.2734 30.902 33.447 30.6957C34.4065 29.5506 35.3724 28.4095 36.4284 27.16C35.9063 27.16 35.4834 27.1534 35.0644 27.16C34.5748 27.1691 34.3477 26.9367 34.349 26.4497C34.349 25.08 34.349 23.7078 34.349 22.3421C34.349 21.9739 34.4796 21.6736 34.896 21.6893C35.2797 21.7049 35.3711 21.9987 35.3711 22.3421C35.3711 23.4284 35.3881 24.516 35.3607 25.6062C35.3502 26.0149 35.4795 26.1389 35.8828 26.1141C36.4049 26.0828 36.9271 26.1141 37.4492 26.105C37.5666 26.0906 37.6855 26.113 37.7896 26.1691C37.8936 26.2252 37.9777 26.3123 38.0301 26.4183Z" fill="#143274"/>
<path d="M52.8628 23.8214C51.6306 17.3584 44.8493 12.9975 38.4543 14.6975C37.9635 14.828 37.7482 14.7562 37.5524 14.2588C35.6583 9.45918 30.4486 6.41047 25.3199 7.06983C19.1704 7.85322 14.774 12.9152 14.8562 19.1119C14.8627 19.608 15.1173 20.2321 14.9019 20.5651C14.6513 20.9568 13.9464 20.7505 13.4477 20.8824C10.1595 21.7571 7.92216 23.7705 7.02147 27.0581C6.10772 30.3771 6.99928 33.2926 9.48728 35.665C11.3565 37.4459 13.6644 38.07 16.1955 37.9447C16.685 37.9199 16.8142 38.0596 16.8116 38.5544C16.7894 42.2298 16.7973 45.9066 16.8012 49.582C16.8012 51.137 17.6523 51.9792 19.2187 51.9805C22.6552 51.9805 26.0927 51.9805 29.531 51.9805C32.9693 51.9805 36.4067 51.9805 39.8432 51.9805C41.3614 51.9805 42.1602 51.171 42.1602 49.646C42.1602 45.947 42.1733 42.2494 42.1485 38.5479C42.1485 38.0256 42.3051 37.8781 42.7946 37.8533C43.5322 37.8154 44.2449 37.6078 44.9459 37.3819C50.4075 35.6245 54.0246 29.9136 52.8628 23.8214ZM41.1029 49.3705C41.1029 50.6604 40.864 50.9046 39.5978 50.9046H19.3205C18.177 50.9046 17.8755 50.6095 17.8755 49.4932C17.8755 43.6243 17.8833 37.7553 17.8598 31.8851C17.8598 31.3315 18.0543 31.2571 18.5281 31.2623C20.5058 31.2845 22.4834 31.2702 24.461 31.2728C25.7663 31.2728 26.6161 32.1449 26.59 33.4441C26.5822 33.8358 26.2754 33.6556 26.1122 33.6569C24.0472 33.67 21.9821 33.666 19.9184 33.666C19.7656 33.666 19.6142 33.666 19.4615 33.666C19.1299 33.6726 18.9171 33.8319 18.9067 34.17C18.8963 34.5082 19.1103 34.6792 19.4288 34.7119C19.6011 34.7288 19.7761 34.7119 19.951 34.7119H40.1644C41.1016 34.7119 41.1029 34.7119 41.1029 35.6689V49.3705ZM42.9408 36.7578C42.1576 36.8884 42.1106 36.8884 42.1576 36.0919C42.3051 33.8319 41.3744 33.525 39.6252 33.5511C35.8632 33.6047 32.1012 33.5616 28.3392 33.5746C27.9319 33.5746 27.6721 33.5107 27.633 33.0524C27.5948 32.8616 27.5362 32.6756 27.4581 32.4975C26.8315 30.4985 26.2937 30.1068 24.1751 30.1068C21.892 30.1068 19.6064 30.1173 17.3259 30.0964C16.8938 30.0964 16.7738 30.2191 16.7868 30.6434C16.8168 31.5992 16.7959 32.5562 16.7959 33.5159C16.7959 34.5173 16.7959 35.5175 16.7959 36.5189C16.7959 36.7513 16.7959 36.9302 16.4696 36.9445C13.2402 37.0855 10.5655 36.0854 8.82155 33.2091C5.91062 28.4029 9.29539 22.0614 14.9045 21.8498C16.1498 21.8015 16.1772 21.7872 16.0049 20.475C15.3692 15.6623 17.6092 11.3929 21.9429 9.15365C27.5468 6.25902 34.6975 9.13276 36.7339 15.0983C37.0746 16.0971 37.1255 16.1219 38.1241 15.8229C44.2527 13.995 50.662 17.9264 51.7898 24.2157C52.0452 25.6217 52.018 27.0645 51.7098 28.4599C51.4016 29.8553 50.8186 31.1753 49.9948 32.3428C49.1711 33.5104 48.123 34.5021 46.9119 35.2602C45.7008 36.0182 44.3508 36.5273 42.9408 36.7578Z" fill="#143274"/>
<path d="M30.9251 12.752C30.9016 12.4191 31.117 12.2298 31.4302 12.2141C31.7435 12.1984 31.9524 12.3734 31.9654 12.7364C31.9419 13.0484 31.7683 13.2247 31.4316 13.2195C31.3671 13.2245 31.3022 13.2162 31.2411 13.195C31.18 13.1738 31.1239 13.1402 31.0763 13.0963C31.0288 13.0524 30.9908 12.9992 30.9648 12.94C30.9388 12.8807 30.9252 12.8167 30.9251 12.752Z" fill="#F4F4F6"/>
<path d="M31.9654 15.114C31.908 15.4051 31.7422 15.5931 31.4433 15.5775C31.113 15.5618 30.9055 15.3568 30.9407 15.0291C30.9455 14.9632 30.9639 14.8991 30.9948 14.8407C31.0257 14.7824 31.0685 14.7311 31.1203 14.6902C31.1721 14.6493 31.2319 14.6197 31.2959 14.6031C31.3598 14.5866 31.4264 14.5836 31.4916 14.5943C31.6232 14.6008 31.7469 14.659 31.8357 14.7564C31.9245 14.8538 31.9711 14.9823 31.9654 15.114Z" fill="#F4F4F6"/>
<path d="M31.4603 16.9471C31.754 16.9941 31.955 17.1417 31.9563 17.4433C31.9628 17.5136 31.9532 17.5845 31.9283 17.6506C31.9034 17.7167 31.8638 17.7763 31.8125 17.8248C31.7612 17.8733 31.6996 17.9096 31.6322 17.9308C31.5649 17.952 31.4936 17.9576 31.4237 17.9472C31.3532 17.9504 31.2829 17.9379 31.2178 17.9105C31.1527 17.8832 31.0945 17.8417 31.0474 17.7891C31.0003 17.7365 30.9655 17.6741 30.9455 17.6064C30.9254 17.5386 30.9207 17.4673 30.9316 17.3976C30.9603 17.1116 31.1718 16.9615 31.4603 16.9471Z" fill="#F4F4F6"/>
<path d="M30.9212 19.8509C30.9178 19.7858 30.9277 19.7207 30.9505 19.6597C30.9732 19.5986 31.0083 19.5428 31.0534 19.4958C31.0986 19.4489 31.1529 19.4116 31.213 19.3865C31.2731 19.3613 31.3377 19.3487 31.4028 19.3495C31.4706 19.3388 31.5398 19.3425 31.606 19.3604C31.6722 19.3783 31.7339 19.4099 31.787 19.4533C31.8401 19.4967 31.8835 19.5508 31.9142 19.6122C31.945 19.6735 31.9624 19.7406 31.9654 19.8091C31.9654 20.1747 31.767 20.3444 31.4524 20.3588C31.1378 20.3732 30.9303 20.1799 30.9212 19.8509Z" fill="#F4F4F6"/>
<path d="M37.8891 27.0111C36.4637 28.7328 35.033 30.4519 33.5971 32.1684C33.3361 32.4883 33.0202 32.4661 32.7656 32.1684C31.3089 30.4437 29.8508 28.7189 28.4188 26.9732C28.0624 26.5385 28.2883 26.1246 28.8613 26.1011C29.403 26.0776 29.9487 26.0736 30.4904 26.1011C30.8455 26.1193 30.9277 25.9836 30.9225 25.6532C30.9042 24.5878 30.9225 23.5224 30.9133 22.4583C30.9133 22.0496 30.976 21.6749 31.472 21.6879C31.9289 21.7023 31.9707 22.0718 31.9681 22.4491C31.9602 23.7548 31.9472 25.0605 31.9681 26.3661C31.9798 26.9759 31.707 27.1861 31.1405 27.16C30.775 27.1443 30.4082 27.16 29.8899 27.16C30.9577 28.4304 31.9367 29.5846 32.9001 30.7518C33.1429 31.0443 33.2734 30.902 33.447 30.6957C34.4065 29.5506 35.3724 28.4095 36.4284 27.16C35.9063 27.16 35.4834 27.1534 35.0644 27.16C34.5748 27.1691 34.3477 26.9367 34.349 26.4497C34.349 25.08 34.349 23.7078 34.349 22.3421C34.349 21.9739 34.4796 21.6736 34.896 21.6893C35.2797 21.7049 35.3711 21.9987 35.3711 22.3421C35.3711 23.4284 35.3881 24.516 35.3607 25.6062C35.3502 26.0149 35.4795 26.1389 35.8828 26.1141C36.4049 26.0828 36.9271 26.1141 37.4492 26.105C37.5683 26.0919 37.6885 26.1166 37.7928 26.1756C37.8971 26.2347 37.9801 26.3251 38.0301 26.434C38.1515 26.6664 38.0262 26.8466 37.8891 27.0111Z" fill="#F4F4F6"/>
<path d="M37.8891 27.0111C36.4637 28.7328 35.033 30.4519 33.5971 32.1684C33.3361 32.4883 33.0202 32.4661 32.7656 32.1684C31.3089 30.4437 29.8508 28.7189 28.4188 26.9732C28.0624 26.5385 28.2883 26.1246 28.8613 26.1011C29.403 26.0776 29.9487 26.0736 30.4904 26.1011C30.8455 26.1193 30.9277 25.9836 30.9225 25.6532C30.9042 24.5878 30.9225 23.5224 30.9133 22.4583C30.9133 22.0496 30.976 21.6749 31.472 21.6879C31.9289 21.7023 31.9707 22.0718 31.9681 22.4491C31.9602 23.7548 31.9472 25.0605 31.9681 26.3661C31.9798 26.9759 31.707 27.1861 31.1405 27.16C30.775 27.1443 30.4082 27.16 29.8899 27.16C30.9577 28.4304 31.9367 29.5846 32.9001 30.7518C33.1429 31.0443 33.2734 30.902 33.447 30.6957C34.4065 29.5506 35.3724 28.4095 36.4284 27.16C35.9063 27.16 35.4834 27.1534 35.0644 27.16C34.5748 27.1691 34.3477 26.9367 34.349 26.4497C34.349 25.08 34.349 23.7078 34.349 22.3421C34.349 21.9739 34.4796 21.6736 34.896 21.6893C35.2797 21.7049 35.3711 21.9987 35.3711 22.3421C35.3711 23.4284 35.3881 24.516 35.3607 25.6062C35.3502 26.0149 35.4795 26.1389 35.8828 26.1141C36.4049 26.0828 36.9271 26.1141 37.4492 26.105C37.5683 26.0919 37.6885 26.1166 37.7928 26.1756C37.8971 26.2347 37.9801 26.3251 38.0301 26.434C38.1515 26.6664 38.0262 26.8466 37.8891 27.0111Z" fill="#143274"/>
<path d="M31.9654 12.7377C31.9419 13.0497 31.7683 13.226 31.4316 13.2208C31.3669 13.2258 31.302 13.2174 31.2408 13.1962C31.1796 13.1749 31.1234 13.1412 31.0759 13.0972C31.0283 13.0531 30.9903 12.9998 30.9644 12.9404C30.9384 12.881 30.9251 12.8169 30.9251 12.752C30.9016 12.4191 31.117 12.2298 31.4302 12.2141C31.7435 12.1984 31.9524 12.3734 31.9654 12.7377Z" fill="#171718"/>
<path d="M31.9654 19.8091C31.9654 20.1747 31.767 20.3444 31.4524 20.3588C31.1378 20.3732 30.9303 20.1799 30.9212 19.8509C30.9178 19.7858 30.9277 19.7207 30.9505 19.6597C30.9732 19.5986 31.0083 19.5428 31.0534 19.4958C31.0986 19.4489 31.1529 19.4116 31.213 19.3865C31.2731 19.3613 31.3377 19.3487 31.4028 19.3495C31.4706 19.3388 31.5398 19.3425 31.606 19.3604C31.6722 19.3783 31.7339 19.4099 31.787 19.4533C31.8401 19.4967 31.8835 19.5508 31.9142 19.6122C31.945 19.6735 31.9624 19.7406 31.9654 19.8091Z" fill="#1B1B1B"/>
<path d="M31.9563 17.4433C31.9628 17.5136 31.9532 17.5845 31.9283 17.6506C31.9034 17.7167 31.8638 17.7763 31.8125 17.8248C31.7612 17.8733 31.6996 17.9096 31.6322 17.9308C31.5649 17.952 31.4936 17.9576 31.4237 17.9472C31.3532 17.9504 31.2829 17.9379 31.2178 17.9105C31.1527 17.8832 31.0945 17.8417 31.0474 17.7891C31.0003 17.7365 30.9655 17.6741 30.9455 17.6064C30.9254 17.5386 30.9207 17.4673 30.9316 17.3976C30.9603 17.1116 31.1718 16.9615 31.4537 16.9471C31.754 16.9941 31.955 17.1417 31.9563 17.4433Z" fill="#131313"/>
<path d="M31.9654 15.114C31.908 15.4051 31.7422 15.5931 31.4433 15.5775C31.113 15.5618 30.9055 15.3568 30.9407 15.0291C30.9455 14.9632 30.9639 14.8991 30.9948 14.8407C31.0257 14.7824 31.0685 14.7311 31.1203 14.6902C31.1721 14.6493 31.2319 14.6197 31.2959 14.6031C31.3598 14.5866 31.4264 14.5836 31.4916 14.5943C31.6232 14.6008 31.7469 14.659 31.8357 14.7564C31.9245 14.8538 31.9711 14.9823 31.9654 15.114Z" fill="#143274"/>
</svg>
