<svg width="47" height="56" viewBox="0 0 47 56" fill="none" xmlns="http://www.w3.org/2000/svg">
<path fill-rule="evenodd" clip-rule="evenodd" d="M3.96569 0.72841C3.95219 0.769075 3.81636 0.800522 3.66391 0.798381C3.51145 0.796406 3.38666 0.822418 3.38666 0.856334C3.38666 0.890249 3.35521 0.918073 3.31685 0.918073C3.27849 0.918073 3.26878 0.881029 3.29528 0.835754C3.32179 0.790478 3.28096 0.80826 3.20457 0.875103C3.12818 0.94211 3.03417 0.977342 2.99564 0.953634C2.95712 0.929762 2.92567 0.941616 2.92567 0.979976C2.92567 1.01834 2.86887 1.04978 2.79939 1.04978C2.73008 1.04978 2.6634 1.07234 2.65122 1.09983C2.60051 1.21607 2.09557 1.57662 1.98394 1.57662C1.83544 1.57662 1.67442 1.72826 1.67442 1.8682C1.67442 1.9301 1.61482 1.9739 1.52625 1.97702C1.44475 1.97982 1.41479 1.99694 1.45973 2.01522C1.56724 2.05852 1.39981 2.23518 1.25114 2.23518C1.19417 2.23518 1.14758 2.27963 1.14758 2.33396C1.14758 2.38829 1.11482 2.43274 1.07465 2.43274C1.03464 2.43274 1.01818 2.47571 1.03843 2.52823C1.06411 2.59524 1.04336 2.61154 0.968783 2.58289C0.907044 2.55918 0.879386 2.56939 0.902764 2.60709C0.924826 2.64298 0.866379 2.75477 0.7727 2.8557C0.64527 2.99317 0.623538 3.05227 0.686265 3.09096C0.746522 3.12834 0.730882 3.15517 0.629465 3.18728C0.552249 3.21181 0.489028 3.2612 0.489028 3.29725C0.489028 3.33315 0.518663 3.34418 0.554884 3.32179C0.660252 3.25659 0.630782 3.36574 0.521133 3.44625C0.466473 3.48642 0.409179 3.58405 0.394032 3.66324C0.378885 3.74243 0.334762 3.86641 0.296072 3.93885C0.205851 4.10727 0.206509 4.16457 0.298048 4.10793C0.348427 4.07681 0.347439 4.10612 0.29492 4.20424C0.253431 4.28179 0.239437 4.37761 0.263968 4.41712C0.288334 4.45663 0.274505 4.50981 0.233346 4.53533C0.125343 4.60201 0.125343 51.6305 0.233346 51.6972C0.274505 51.7227 0.288334 51.7759 0.263968 51.8154C0.239437 51.8549 0.253431 51.9507 0.29492 52.0282C0.347439 52.1264 0.348427 52.1557 0.298048 52.1246C0.206509 52.0679 0.205851 52.1252 0.296072 52.2936C0.334762 52.3661 0.378885 52.4901 0.394032 52.5692C0.409179 52.6484 0.466473 52.7461 0.521133 52.7862C0.630782 52.8667 0.660252 52.9759 0.554884 52.9107C0.518663 52.8883 0.489028 52.8993 0.489028 52.9352C0.489028 52.9713 0.548298 53.0194 0.620739 53.0424C0.693179 53.0655 0.752449 53.1135 0.752449 53.1496C0.752449 53.1855 0.722814 53.1965 0.686594 53.1741C0.54517 53.0867 0.631441 53.2359 0.834439 53.43C0.951991 53.5423 1.03958 53.6713 1.02904 53.7169C1.01867 53.7625 1.04106 53.7998 1.07876 53.7998C1.11663 53.7998 1.14758 53.8442 1.14758 53.8985C1.14758 53.9529 1.19417 53.9973 1.25114 53.9973C1.39981 53.9973 1.56724 54.174 1.45973 54.2173C1.41479 54.2355 1.44475 54.2527 1.52625 54.2555C1.61482 54.2586 1.67442 54.3024 1.67442 54.3643C1.67442 54.4912 1.83099 54.6559 1.95151 54.6559C2.00041 54.6559 2.08322 54.7151 2.13541 54.7876C2.1876 54.86 2.28309 54.9193 2.34746 54.9193C2.412 54.9193 2.5228 54.9774 2.59393 55.0485C2.6797 55.1343 2.73831 55.1536 2.76795 55.1055C2.79594 55.0605 2.84286 55.0895 2.89274 55.1827C2.95136 55.2922 2.98659 55.3098 3.02445 55.2486C3.06298 55.1863 3.10908 55.2051 3.20424 55.322C3.2747 55.4084 3.31306 55.442 3.28969 55.3967C3.26631 55.3515 3.27849 55.3144 3.31685 55.3144C3.35521 55.3144 3.38666 55.3441 3.38666 55.3803C3.38666 55.4165 3.45828 55.4461 3.54586 55.4461C3.63329 55.4461 3.72005 55.4832 3.73833 55.5285C3.76352 55.5904 3.78903 55.5864 3.84155 55.512C3.8893 55.4446 3.91185 55.4395 3.91251 55.4957C3.91399 55.6132 35.8943 55.6146 36.0357 55.4972C36.0876 55.4542 36.2158 55.4257 36.3209 55.4336C36.4259 55.4417 36.5118 55.4181 36.5118 55.3813C36.5118 55.3445 36.5765 55.3144 36.6557 55.3144C36.7349 55.3144 36.873 55.2477 36.9628 55.1662C37.0523 55.0847 37.104 55.0625 37.0774 55.1169C37.0507 55.1712 37.0756 55.1582 37.1325 55.0879C37.1896 55.0174 37.2367 54.9878 37.2372 55.022C37.2377 55.0561 37.2603 55.0492 37.2873 55.0069C37.3143 54.9646 37.3793 54.9201 37.4318 54.9081C37.5742 54.8757 37.6883 54.7629 37.6472 54.695C37.6273 54.6623 37.6409 54.6539 37.6773 54.6764C37.7139 54.699 37.8 54.6718 37.8686 54.616C37.9373 54.5601 37.9491 54.5365 37.8948 54.5635C37.8288 54.5964 37.8375 54.5653 37.9215 54.4697C38.0599 54.3118 38.1266 54.2808 38.0525 54.4089C38.0262 54.4542 38.106 54.3875 38.2297 54.2607C38.3533 54.134 38.4544 54.012 38.4546 53.9894C38.4546 53.8972 38.7773 53.5363 38.8596 53.5363C38.9111 53.5363 38.9485 53.4654 38.9485 53.3677C38.9485 53.2723 38.977 53.2169 39.0143 53.24C39.0519 53.2632 39.0802 53.2064 39.0802 53.1083C39.0802 53.0101 39.1085 52.9533 39.146 52.9766C39.1823 52.9989 39.2119 52.9563 39.2119 52.8817C39.2119 52.8072 39.2415 52.7461 39.2778 52.7461C39.314 52.7461 39.3436 52.6405 39.3436 52.5116C39.3436 52.3827 39.3691 52.2932 39.4004 52.3124C39.4315 52.3317 39.4575 52.2816 39.4582 52.201C39.461 51.8447 39.4796 51.7531 39.5412 51.7912C39.5774 51.8136 39.607 51.8006 39.607 51.7622C39.607 51.7238 39.57 51.6919 39.5247 51.6914C39.4679 51.6907 39.4648 51.6754 39.5147 51.642C39.5545 51.6153 39.5868 51.4899 39.5866 51.3631C39.5846 50.4023 39.6151 49.9143 39.6768 49.9143C39.7152 49.9143 39.7282 49.9439 39.7058 49.9801C39.6834 50.0164 39.6964 50.046 39.7348 50.046C39.7731 50.046 39.8046 50.0164 39.8046 49.9801C39.8046 49.9439 39.8769 49.9143 39.9653 49.9143C40.0537 49.9143 40.1452 49.8832 40.1688 49.8453C40.1979 49.7981 40.2409 49.8005 40.3044 49.8534C40.3711 49.9087 40.3973 49.9097 40.3973 49.8565C40.3973 49.8158 40.501 49.7826 40.6278 49.7826C40.7546 49.7826 40.8583 49.753 40.8583 49.7167C40.8583 49.6805 40.9345 49.6509 41.0277 49.6509C41.1207 49.6509 41.2417 49.6061 41.2964 49.5514C41.351 49.4968 41.4199 49.467 41.4493 49.4852C41.479 49.5035 41.5198 49.4745 41.5404 49.421C41.5616 49.3659 41.6214 49.3405 41.679 49.3628C41.7346 49.384 41.7803 49.3687 41.7803 49.3287C41.7803 49.2885 41.8268 49.2557 41.8838 49.2557C41.9406 49.2557 42.032 49.211 42.0866 49.1563C42.1413 49.1016 42.2133 49.0738 42.2465 49.0944C42.2799 49.115 42.3071 49.1005 42.3071 49.0621C42.3071 49.0238 42.3629 48.9923 42.4311 48.9923C42.4997 48.9923 42.5705 48.9335 42.5896 48.8606C42.6094 48.785 42.6795 48.7289 42.7539 48.7289C42.8254 48.7289 42.9332 48.6622 42.9936 48.5807C43.0541 48.4992 43.0825 48.477 43.0569 48.5313C43.0312 48.5857 43.0881 48.5592 43.1835 48.4724C43.2788 48.3856 43.3379 48.2842 43.315 48.2472C43.2903 48.2073 43.3148 48.1956 43.3749 48.2187C43.4894 48.2625 43.6227 48.1588 43.5969 48.0458C43.5877 48.005 43.5918 47.9921 43.6063 48.0173C43.6425 48.0799 43.8218 48.0053 43.8218 47.9278C43.8218 47.8932 43.7847 47.8866 43.7394 47.9131C43.6942 47.9396 43.7129 47.8976 43.7811 47.8198C43.8494 47.7421 43.9257 47.6909 43.9505 47.7063C44.002 47.7383 44.2169 47.5061 44.2169 47.4184C44.2169 47.3868 44.3055 47.2908 44.4138 47.2052C44.6058 47.0536 44.6942 46.8924 44.5297 46.9938C44.4844 47.0218 44.5215 46.9533 44.612 46.8417C44.7026 46.73 44.7986 46.6512 44.8252 46.6665C44.8521 46.6818 44.8578 46.652 44.8379 46.6005C44.8014 46.505 44.9668 46.2923 45.0778 46.2923C45.1114 46.2923 45.1389 46.233 45.1389 46.1606C45.1389 46.0881 45.1685 46.0288 45.2047 46.0288C45.2409 46.0288 45.2706 45.9696 45.2706 45.8971C45.2706 45.8247 45.3037 45.7654 45.3442 45.7654C45.3845 45.7654 45.4026 45.7081 45.3843 45.638C45.3654 45.5657 45.3893 45.4957 45.4393 45.4767C45.4879 45.4579 45.5164 45.3843 45.5027 45.313C45.4889 45.2412 45.5205 45.1668 45.5733 45.1465C45.6334 45.1233 45.658 45.0501 45.6395 44.9487C45.6214 44.8486 45.6458 44.774 45.7039 44.7517C45.7553 44.732 45.7974 44.6688 45.7974 44.6111C45.7974 44.5448 45.7671 44.5245 45.7151 44.5558C45.6563 44.5911 45.658 44.5741 45.7207 44.4967C45.7691 44.4371 45.7915 44.3604 45.7706 44.3263C45.7495 44.2924 45.7742 44.2485 45.8254 44.2289C45.8923 44.2032 45.9153 44.0896 45.9074 43.8268C45.9011 43.6253 45.9253 43.4508 45.9607 43.4389C46.0661 43.4039 46.0564 41.6108 45.9507 41.5701C45.897 41.5495 45.8786 41.4796 45.9023 41.3854C45.9232 41.3019 45.9053 41.1681 45.8623 41.0879C45.8099 40.9901 45.8081 40.9568 45.8567 40.9868C45.8978 41.0122 45.9291 40.9863 45.9291 40.9269C45.9291 40.8693 45.8848 40.8052 45.8307 40.7845C45.7767 40.7636 45.7495 40.7188 45.7706 40.6849C45.7915 40.6508 45.7691 40.5741 45.7207 40.5145C45.658 40.4371 45.6563 40.4201 45.7151 40.4554C45.7658 40.4858 45.7974 40.4682 45.7974 40.4091C45.7974 40.3566 45.7546 40.2971 45.7024 40.2771C45.6394 40.2529 45.6183 40.1802 45.6397 40.0617C45.6682 39.9051 45.6593 39.8935 45.5687 39.9687C45.4808 40.0416 45.4714 40.0383 45.5067 39.9466C45.5325 39.8793 45.5144 39.8381 45.4588 39.8375C45.3898 39.8367 45.3919 39.8218 45.4681 39.7726C45.534 39.7301 45.5394 39.7084 45.4846 39.7077C45.4393 39.7072 45.4023 39.6753 45.4023 39.6369C45.4023 39.5986 45.4365 39.5884 45.4784 39.6142C45.5258 39.6435 45.5365 39.6323 45.5067 39.5841C45.4805 39.5418 45.4346 39.5222 45.4046 39.5406C45.3748 39.5592 45.3323 39.5276 45.3104 39.4705C45.2548 39.3253 45.2605 39.2976 45.3364 39.3446C45.3727 39.3669 45.4023 39.3539 45.4023 39.3156C45.4023 39.2772 45.3559 39.2458 45.2991 39.2458C45.2273 39.2458 45.208 39.2072 45.236 39.1193C45.2647 39.0289 45.2378 38.9809 45.1417 38.9502C45.0116 38.9091 44.9795 38.8439 45.0024 38.6687C45.0085 38.6229 44.9658 38.5671 44.9077 38.5449C44.8496 38.5227 44.8177 38.4637 44.8366 38.414C44.8557 38.3645 44.8427 38.3238 44.8075 38.3238C44.7724 38.3238 44.7437 38.2942 44.7437 38.2579C44.7437 38.2217 44.6919 38.1349 44.6285 38.0651C44.4327 37.8495 44.3486 37.7383 44.3486 37.6959C44.3486 37.6089 43.8069 37.1397 43.7485 37.1759C43.7146 37.1968 43.691 37.1896 43.6961 37.1598C43.7194 37.0264 43.6846 36.9364 43.6242 36.9738C43.588 36.9962 43.5583 36.9665 43.5583 36.9079C43.5583 36.8493 43.5287 36.8197 43.4925 36.8421C43.4563 36.8644 43.4266 36.8399 43.4266 36.7874C43.4266 36.735 43.3766 36.6962 43.3152 36.7011C43.2539 36.7062 43.1698 36.6438 43.1283 36.5625C43.0867 36.4813 43.0331 36.4344 43.0091 36.4583C42.9852 36.4822 42.9656 36.4489 42.9656 36.3844C42.9656 36.2994 42.9293 36.2764 42.8339 36.3014C42.7462 36.3243 42.7022 36.3034 42.7022 36.2388C42.7022 36.1748 42.6612 36.1547 42.582 36.1799C42.4979 36.2066 42.4352 36.168 42.3726 36.0513C42.3079 35.9303 42.2689 35.9076 42.2304 35.9682C42.1912 36.0301 42.1772 36.0236 42.1764 35.9436C42.1752 35.8218 42.0025 35.7324 41.8958 35.7984C41.857 35.8223 41.8448 35.8108 41.8685 35.7726C41.892 35.7345 41.8654 35.6858 41.8094 35.6642C41.7409 35.6381 41.723 35.6519 41.7546 35.7069C41.7804 35.7517 41.73 35.7235 41.6428 35.6441C41.4823 35.4984 41.4669 35.492 41.2824 35.492C41.2215 35.492 41.1989 35.4611 41.2269 35.4158C41.2592 35.3634 41.229 35.3513 41.1309 35.3769C41.0483 35.3985 40.9475 35.3743 40.8929 35.3196C40.8301 35.2569 40.7378 35.2398 40.6207 35.2693C40.4981 35.2999 40.4576 35.291 40.489 35.2401C40.545 35.1496 40.2611 35.0697 40.0359 35.1129C39.9383 35.1315 39.8905 35.1176 39.9152 35.0778C39.9401 35.0375 39.8884 35.0248 39.7814 35.0454L39.607 35.0786L39.5965 20.0893C39.5907 11.8451 39.5863 4.99615 39.5866 4.86938C39.5868 4.74261 39.5545 4.61716 39.5147 4.59048C39.4648 4.55706 39.4679 4.54175 39.5247 4.54109C39.57 4.5406 39.607 4.50866 39.607 4.4703C39.607 4.43194 39.5774 4.41893 39.5412 4.44132C39.4796 4.47935 39.461 4.38782 39.4582 4.03154C39.4575 3.95087 39.4315 3.90082 39.4004 3.92008C39.3691 3.93934 39.3436 3.84978 39.3436 3.72087C39.3436 3.59196 39.314 3.48642 39.2778 3.48642C39.2415 3.48642 39.2119 3.42534 39.2119 3.35076C39.2119 3.27618 39.1823 3.23354 39.146 3.25593C39.1082 3.27931 39.0797 3.21806 39.0792 3.11171C39.0784 2.96798 39.0639 2.94872 39.0143 3.02544C38.9659 3.10035 38.9503 3.07252 38.9495 2.91019C38.9488 2.78095 38.9152 2.69616 38.8643 2.69616C38.8181 2.69616 38.7292 2.63656 38.6668 2.56363C38.5334 2.40788 38.5199 2.33989 38.6357 2.40656C38.6834 2.43406 38.6949 2.42879 38.6632 2.39389C38.6329 2.36096 38.5736 2.33396 38.5315 2.33396C38.4891 2.33396 38.4546 2.30432 38.4546 2.2681C38.4544 2.23188 38.3533 2.09853 38.2297 1.97176C38.106 1.84498 38.0301 1.78571 38.0612 1.84005C38.1098 1.925 38.1021 1.92632 38.0069 1.8491C37.946 1.79971 37.9116 1.73451 37.9304 1.70422C37.9751 1.63161 37.7297 1.50171 37.6623 1.56247C37.6337 1.58831 37.6268 1.57992 37.6469 1.5437C37.6669 1.50748 37.6421 1.43965 37.5915 1.39289C37.541 1.3463 37.4997 1.32851 37.4997 1.3537C37.4997 1.37889 37.4404 1.3458 37.368 1.28028C37.2955 1.21475 37.2362 1.1861 37.2362 1.21673C37.2362 1.24751 37.1896 1.21508 37.1325 1.14461C37.0756 1.07431 37.0507 1.06131 37.0774 1.11564C37.104 1.16997 37.0523 1.14774 36.9628 1.06625C36.873 0.984751 36.7349 0.918073 36.6557 0.918073C36.5765 0.918073 36.5118 0.887944 36.5118 0.85123C36.5118 0.814351 36.4259 0.790808 36.3209 0.798875C36.2158 0.806778 36.0853 0.776484 36.0309 0.731209C35.9516 0.665519 35.9252 0.666012 35.8977 0.734172C35.8722 0.798052 35.8623 0.798875 35.8585 0.737795C35.8513 0.625018 4.00323 0.615798 3.96569 0.72841ZM35.4152 3.01704C35.5074 3.0936 35.5248 3.0936 35.5293 3.01704C35.5331 2.95036 35.5431 2.94822 35.5676 3.00897C35.5859 3.05425 35.6429 3.09129 35.6941 3.09129C35.7454 3.09129 35.7874 3.12438 35.7874 3.16489C35.7874 3.20555 35.8452 3.22317 35.9168 3.20456C35.9881 3.18596 36.0438 3.18991 36.0408 3.21329C36.0243 3.33957 36.0606 3.37562 36.1167 3.28886C36.1592 3.223 36.1809 3.21757 36.1816 3.27239C36.1821 3.31767 36.227 3.35471 36.2813 3.35471C36.3362 3.35471 36.3801 3.41332 36.3801 3.48642C36.3801 3.55886 36.4116 3.61813 36.4499 3.61813C36.4883 3.61813 36.4985 3.58389 36.4726 3.54207C36.4442 3.49614 36.4545 3.48395 36.4988 3.51128C36.539 3.53614 36.5533 3.60513 36.5304 3.66456C36.4995 3.74523 36.5164 3.76219 36.5971 3.73124C36.6566 3.70836 36.7255 3.72268 36.7504 3.76285C36.7777 3.80714 36.7655 3.81751 36.7196 3.78903C36.6146 3.72416 36.6241 3.80566 36.7344 3.91613C36.7845 3.96601 36.8437 3.98857 36.8661 3.96618C36.8887 3.94379 36.907 3.99186 36.907 4.07286C36.907 4.24079 37.0614 4.42519 37.1439 4.35588C37.1742 4.33036 37.1594 4.36147 37.1108 4.42486C37.052 4.50158 37.0472 4.54011 37.0965 4.54011C37.1371 4.54011 37.1704 4.59938 37.1704 4.67182C37.1704 4.74426 37.2074 4.80402 37.2527 4.80451C37.3085 4.80517 37.3032 4.82806 37.2362 4.87547C37.1618 4.92799 37.1579 4.95351 37.2198 4.9787C37.2853 5.00521 37.3021 8.07439 37.3021 20.0151V35.018L36.905 35.0641C36.6865 35.0895 36.4708 35.1474 36.4254 35.1927C36.3801 35.238 36.2698 35.2721 36.1804 35.2683C36.0882 35.2645 36.0243 35.2951 36.0329 35.3392C36.0423 35.3888 35.9861 35.4058 35.878 35.3862C35.7846 35.3692 35.6638 35.3923 35.6095 35.4372C35.5551 35.4823 35.4647 35.5259 35.4088 35.5342C35.3526 35.5424 35.2856 35.5832 35.2598 35.625C35.2341 35.6667 35.1941 35.6983 35.1709 35.6952C35.0452 35.6784 34.993 35.6955 35.023 35.7439C35.0415 35.7737 34.9912 35.7959 34.9116 35.7933C34.8217 35.7902 34.7739 35.8228 34.7858 35.8788C34.798 35.9362 34.7682 35.955 34.7035 35.9303C34.6476 35.9089 34.602 35.9199 34.602 35.9552C34.602 35.9902 34.5428 36.0189 34.4703 36.0189C34.3933 36.0189 34.3386 36.0628 34.3386 36.1247C34.3386 36.1842 34.3012 36.2163 34.2535 36.1978C34.1401 36.1544 33.9188 36.3208 33.9733 36.4089C34.0003 36.4525 33.9741 36.4622 33.9031 36.4349C33.8407 36.411 33.8067 36.4188 33.8269 36.4522C33.8472 36.4855 33.8225 36.551 33.7719 36.5977C33.697 36.667 33.6791 36.667 33.6748 36.5977C33.6708 36.5315 33.6623 36.5309 33.6364 36.5951C33.6182 36.6404 33.5747 36.6774 33.5398 36.6774C33.4295 36.6774 33.14 37.009 33.1736 37.0966C33.1914 37.1428 33.1496 37.2159 33.0808 37.2589C32.9828 37.3202 32.9545 37.3192 32.9504 37.2541C32.9474 37.2087 32.9043 37.2602 32.8546 37.3689C32.8047 37.4776 32.7627 37.5421 32.7611 37.5123C32.7573 37.4423 32.5605 37.6379 32.5605 37.7118C32.5605 37.7426 32.5019 37.8101 32.4303 37.8618C32.3345 37.9308 32.3215 37.9692 32.3809 38.007C32.438 38.0433 32.429 38.0587 32.3504 38.0594C32.2892 38.0599 32.2179 38.0946 32.1921 38.1364C32.1629 38.1835 32.174 38.1946 32.221 38.1654C32.2629 38.1396 32.2971 38.1498 32.2971 38.1881C32.2971 38.2265 32.2675 38.2579 32.2312 38.2579C32.195 38.2579 32.1649 38.3098 32.1644 38.3732C32.1636 38.4716 32.154 38.4741 32.0995 38.3896C32.045 38.3052 32.0355 38.3077 32.0347 38.4061C32.0342 38.4695 32.0022 38.5214 31.9639 38.5214C31.9255 38.5214 31.9127 38.5512 31.9352 38.5877C31.9578 38.6241 31.9298 38.6718 31.8732 38.6936C31.8134 38.7165 31.7703 38.8111 31.7703 38.9198C31.7703 39.0359 31.7171 39.1439 31.6298 39.2049C31.5442 39.2649 31.5049 39.3434 31.5291 39.4061C31.5544 39.4721 31.532 39.5092 31.4672 39.5092C31.4023 39.5092 31.37 39.5627 31.3778 39.6574C31.4011 39.947 31.3741 40.1091 31.3093 40.069C31.2717 40.0457 31.2434 40.1025 31.2434 40.2007C31.2434 40.2955 31.2174 40.3571 31.1858 40.3375C31.154 40.3177 31.1354 40.3895 31.1446 40.4968C31.1537 40.6042 31.1247 40.7222 31.0803 40.7593C31.0356 40.7962 31.0057 40.9376 31.0136 41.0732C31.0215 41.2091 30.995 41.3619 30.9546 41.4127C30.911 41.4677 30.8812 41.7925 30.8812 42.214C30.8812 42.6037 30.8641 42.9397 30.8433 42.9607C30.8224 42.9814 27.2425 42.9992 22.888 43C17.7108 43.001 14.9846 43.024 15.0108 43.0663C15.0328 43.1021 15.022 43.1312 14.9866 43.1312C14.9512 43.1312 14.9051 43.0942 14.8838 43.0489C14.8532 42.983 14.8377 42.983 14.8071 43.0489C14.7859 43.0942 14.7118 43.1312 14.6425 43.1312C14.573 43.1312 14.5162 43.1599 14.5162 43.1949C14.5162 43.2302 14.5681 43.2409 14.6314 43.2191C14.7243 43.187 14.7212 43.1994 14.615 43.2824C14.5425 43.339 14.4735 43.3581 14.4615 43.3248C14.4495 43.2914 14.3949 43.309 14.3399 43.364C14.2849 43.419 14.2566 43.5072 14.277 43.5601C14.2977 43.6144 14.2798 43.6497 14.2358 43.6408C14.1178 43.6171 14.1132 44.4312 14.2312 44.4765C14.2924 44.5 14.3094 44.5769 14.2845 44.7182C14.2541 44.8912 14.2659 44.9184 14.3565 44.8836C14.4337 44.854 14.4543 44.8698 14.4281 44.9381C14.4032 45.003 14.4225 45.0222 14.4874 44.9974C14.5552 44.9714 14.5715 44.9918 14.5427 45.0672C14.5112 45.149 14.5376 45.1698 14.6571 45.1568C14.7482 45.1469 14.8063 45.1719 14.7976 45.2175C14.789 45.2623 14.8583 45.2936 14.9622 45.2914C17.7727 45.2348 31.3751 45.3216 31.3751 45.3961C31.3751 45.4467 31.4214 45.5056 31.478 45.5274C31.5347 45.5491 31.5617 45.5983 31.538 45.6367C31.5141 45.6752 31.5567 45.7603 31.6325 45.826C31.7082 45.8917 31.7703 46.0109 31.7703 46.0906C31.7703 46.2457 31.925 46.4447 31.9928 46.3769C32.0154 46.3545 32.0337 46.4152 32.0337 46.5117C32.0337 46.6084 32.0599 46.6874 32.0918 46.6874C32.1239 46.6874 32.1664 46.7496 32.1861 46.8257C32.2061 46.9018 32.2523 46.9455 32.2889 46.923C32.3254 46.9004 32.4048 46.986 32.4652 47.1133C32.5256 47.2406 32.5953 47.3323 32.62 47.317C32.6446 47.3017 32.6692 47.3461 32.6744 47.4158C32.6843 47.5471 33.1955 48.1362 33.2996 48.1362C33.332 48.1362 33.3402 48.1066 33.3179 48.0704C33.2449 47.9525 33.3272 48.0009 33.4558 48.1515C33.58 48.2971 33.58 48.2976 33.4496 48.2021C33.3192 48.1066 33.3192 48.1071 33.4433 48.2526C33.5123 48.3334 33.6308 48.4001 33.7067 48.4006C33.8111 48.4014 33.8226 48.4156 33.7537 48.4592C33.6822 48.5045 33.6927 48.5266 33.803 48.5615C33.8803 48.586 33.9435 48.6337 33.9435 48.6675C33.9435 48.7012 33.9749 48.7289 34.0133 48.7289C34.0517 48.7289 34.0638 48.6919 34.0406 48.6466C34.0172 48.6013 34.0892 48.6606 34.2003 48.7783C34.3116 48.896 34.4474 48.9923 34.5023 48.9923C34.5571 48.9923 34.602 49.022 34.602 49.0582C34.602 49.0944 34.6616 49.124 34.7346 49.124C34.8575 49.124 35.1182 49.2388 35.1947 49.3264C35.243 49.3817 35.4827 49.476 35.5423 49.4632C35.5704 49.4571 35.6108 49.4968 35.6317 49.5514C35.6526 49.6061 35.7407 49.6509 35.8274 49.6509C35.914 49.6509 35.985 49.6805 35.985 49.7167C35.985 49.753 36.0164 49.7826 36.0548 49.7826C36.0932 49.7826 36.1062 49.753 36.0838 49.7167C35.9929 49.5695 36.4127 49.7255 36.5273 49.8814C36.5558 49.9201 36.5765 49.9066 36.5777 49.8484C36.5793 49.7666 36.5895 49.7653 36.6371 49.8404C36.6687 49.8903 36.7224 49.9141 36.7562 49.8932C36.7899 49.8723 36.9001 49.898 37.0008 49.9502C37.1016 50.0025 37.2107 50.0289 37.2432 50.0088C37.2762 49.9884 37.3021 50.2455 37.3021 50.5964C37.3021 51.0338 37.2776 51.2304 37.2198 51.2538C37.1579 51.279 37.1618 51.3045 37.2362 51.357C37.3032 51.4044 37.3085 51.4273 37.2527 51.428C37.2074 51.4285 37.1704 51.4882 37.1704 51.5607C37.1704 51.6331 37.1371 51.6924 37.0965 51.6924C37.0472 51.6924 37.052 51.7309 37.1108 51.8076C37.1594 51.871 37.1742 51.9021 37.1439 51.8766C37.0612 51.8071 36.907 51.9917 36.907 52.16C36.907 52.3539 36.7254 52.5505 36.593 52.4998C36.5166 52.4703 36.5 52.4884 36.5304 52.5679C36.5533 52.6274 36.539 52.6963 36.4988 52.7212C36.4545 52.7485 36.4442 52.7364 36.4726 52.6904C36.4985 52.6486 36.4883 52.6144 36.4499 52.6144C36.4116 52.6144 36.3801 52.6736 36.3801 52.7461C36.3801 52.8185 36.3388 52.8778 36.2884 52.8778C36.2379 52.8778 36.1784 52.9254 36.156 52.9835C36.1276 53.0576 36.068 53.0773 35.9568 53.0495C35.8697 53.0276 35.7884 53.0385 35.7764 53.0735C35.7644 53.1086 35.6908 53.147 35.6127 53.1588C35.5347 53.1707 35.4284 53.2156 35.3762 53.2589C35.2171 53.391 4.50208 53.3396 4.33909 53.2071C4.27225 53.1527 4.238 53.1425 4.26319 53.1845C4.29776 53.2421 4.26879 53.2421 4.14465 53.1845C4.05427 53.1425 3.98018 53.086 3.97985 53.0589C3.97952 53.0317 3.92009 53.0095 3.84764 53.0095C3.7752 53.0095 3.71593 52.9836 3.71593 52.9519C3.71593 52.9203 3.62703 52.8765 3.51837 52.8547C3.40971 52.833 3.3208 52.7828 3.3208 52.7429C3.3208 52.7033 3.27635 52.6264 3.22202 52.572C3.14596 52.496 3.12307 52.4933 3.12274 52.5602C3.12258 52.6081 3.06495 52.5602 2.99482 52.4538C2.92468 52.3475 2.87875 52.2418 2.89274 52.2192C2.90674 52.1967 2.84763 52.0961 2.76136 51.9956C2.67526 51.8954 2.62076 51.7712 2.64052 51.7199C2.66027 51.6685 2.64348 51.6265 2.60347 51.6265C2.56215 51.6265 2.53054 51.5108 2.53054 51.3592C2.53054 51.2121 2.50831 51.1056 2.48115 51.1224C2.45398 51.1392 2.43176 40.7864 2.43176 28.1162C2.43176 15.446 2.45316 5.09279 2.47917 5.10893C2.50535 5.12506 2.52264 5.03073 2.5177 4.89918C2.51276 4.76582 2.54635 4.63691 2.59393 4.60744C2.64085 4.57847 2.66027 4.5243 2.63723 4.48693C2.61401 4.44955 2.63986 4.37431 2.69452 4.31966C2.74918 4.265 2.79396 4.18844 2.79396 4.14975C2.79396 4.11089 2.8236 4.07912 2.85982 4.07912C2.89604 4.07912 2.92221 4.05689 2.91793 4.02973C2.89719 3.89851 2.93226 3.81208 2.99153 3.84863C3.02808 3.87118 3.05788 3.82163 3.05837 3.73733C3.05919 3.61501 3.07187 3.60447 3.12324 3.68399C3.17658 3.76664 3.18728 3.76219 3.1881 3.65649C3.1886 3.58718 3.20868 3.54997 3.23256 3.57385C3.25643 3.59772 3.31751 3.55821 3.36805 3.48593C3.4186 3.41382 3.51755 3.35471 3.58801 3.35471C3.65831 3.35471 3.71593 3.32508 3.71593 3.28886C3.71593 3.25264 3.7752 3.223 3.84764 3.223C3.92009 3.223 3.97952 3.20078 3.97985 3.17361C3.98018 3.14645 4.05427 3.08998 4.14465 3.04799C4.26879 2.99037 4.29776 2.99037 4.26319 3.04799C4.22895 3.10529 4.24113 3.10512 4.31242 3.04766C4.47953 2.91315 4.56135 2.9125 20.0545 2.91958C32.8771 2.9255 35.3235 2.94098 35.4152 3.01704ZM5.29646 8.17251C5.29646 8.19622 5.36314 8.20297 5.44463 8.18749C5.58194 8.16148 5.58326 8.16395 5.4611 8.22042C5.38866 8.25384 5.27012 8.26948 5.19768 8.25499C5.10515 8.23655 5.02514 8.29237 4.92899 8.44235C4.85358 8.5599 4.75365 8.64749 4.70689 8.63695C4.65355 8.62494 4.63659 8.65655 4.66161 8.72174C4.68466 8.78183 4.66112 8.84127 4.6058 8.86234C4.47739 8.91174 4.46438 15.1337 4.59214 15.3636C4.72796 15.6077 4.85078 15.7338 4.9145 15.6943C4.94841 15.6734 4.99237 15.7192 5.01246 15.7957C5.03255 15.8725 5.08243 15.9312 5.12326 15.9263C5.3936 15.894 5.71579 15.9406 5.62574 15.9989C5.5612 16.0407 6.5217 16.0631 8.40269 16.0638C10.2453 16.0644 11.2862 16.0414 11.3003 15.9994C11.3123 15.9635 11.4037 15.9274 11.5033 15.9192C11.6029 15.911 11.6844 15.8848 11.6844 15.8611C11.6844 15.8372 11.7753 15.7997 11.8864 15.7775C11.9985 15.7549 12.07 15.7075 12.0471 15.6704C12.0244 15.6337 12.045 15.6038 12.0927 15.6038C12.3323 15.6038 12.3453 15.4202 12.3417 12.0718L12.3384 8.80505L12.1925 8.67614C12.1123 8.60518 12.0858 8.56748 12.1339 8.59201C12.206 8.62922 12.2062 8.61308 12.1344 8.49833C12.0425 8.35114 11.9111 8.30274 11.9818 8.44202C12.0046 8.4873 11.9768 8.46688 11.9198 8.39642C11.8627 8.32612 11.7672 8.26142 11.7075 8.25269C11.6477 8.24396 11.581 8.21252 11.5593 8.18305C11.5127 8.1195 5.29646 8.10913 5.29646 8.17251ZM10.038 12.1134V13.694H8.42458H6.81113V12.1134V10.5329H8.42458H10.038V12.1134ZM14.7966 11.0117C14.8063 11.0609 14.7518 11.0861 14.6571 11.0757C14.5376 11.0627 14.5112 11.0835 14.5427 11.1653C14.5715 11.2407 14.5552 11.2611 14.4874 11.2351C14.4225 11.2102 14.4032 11.2295 14.4281 11.2944C14.4541 11.362 14.4337 11.3785 14.359 11.3499C14.3005 11.3275 14.2528 11.342 14.2528 11.382C14.2528 11.4221 14.2796 11.4549 14.3125 11.4549C14.3972 11.4549 14.3166 11.7233 14.2208 11.76C14.1118 11.8018 14.1267 12.6136 14.2358 12.5917C14.2798 12.5828 14.2977 12.6181 14.277 12.6724C14.2297 12.7952 14.4238 13.0078 14.4727 12.8866C14.491 12.8416 14.5081 12.8716 14.5109 12.9531C14.5145 13.0557 14.5567 13.1013 14.6479 13.1013C14.7203 13.1013 14.7796 13.1302 14.7796 13.1655C14.7796 13.207 18.2796 13.2305 24.6454 13.2322L34.511 13.2346L34.6597 13.0637C34.7413 12.9697 34.8467 12.9077 34.8936 12.9258C35.0671 12.9923 35.2687 12.4834 35.2472 12.0329C35.2365 11.8052 35.198 11.6241 35.1618 11.6297C35.1256 11.6353 35.0525 11.5925 34.9993 11.5349C34.9135 11.4417 34.9155 11.4346 35.0158 11.4732C35.1495 11.5245 35.1577 11.4654 35.0388 11.309C34.9761 11.2262 34.9334 11.2157 34.8799 11.2692C34.8266 11.3225 34.8174 11.3023 34.8459 11.1934C34.8794 11.065 34.8655 11.0509 34.7435 11.0896C34.6401 11.1223 34.602 11.1069 34.602 11.0319C34.602 10.9396 33.6193 10.9294 24.6913 10.93C16.8796 10.9304 14.7839 10.9476 14.7966 11.0117ZM5.35096 18.8531C5.30502 18.9021 5.21348 18.9283 5.14746 18.911C5.08144 18.8939 5.03617 18.9057 5.0467 18.9375C5.05724 18.9693 5.03633 19.008 5.00011 19.0235C4.89145 19.0701 4.76962 19.2115 4.76962 19.2908C4.76962 19.3318 4.73998 19.347 4.70376 19.3246C4.66754 19.3022 4.63791 19.3448 4.63791 19.4194C4.63791 19.494 4.60465 19.5551 4.56399 19.5551C4.51575 19.5551 4.52151 19.5939 4.58045 19.6665C4.63659 19.7357 4.64054 19.7597 4.59098 19.7301C4.48084 19.6639 4.46767 25.6162 4.57749 25.8214C4.63001 25.9196 4.63033 25.9462 4.57864 25.9142C4.44808 25.8335 4.50274 25.9519 4.65437 26.0785C4.74624 26.1551 4.76863 26.2028 4.71331 26.2043C4.66408 26.2055 4.72072 26.2968 4.8391 26.4073C5.00192 26.5596 5.06728 26.5874 5.10844 26.5226C5.15652 26.4468 5.19027 26.4916 5.17496 26.6108C5.17199 26.634 5.24164 26.6668 5.32988 26.6836C5.41796 26.7005 5.4746 26.6892 5.45567 26.6587C5.43673 26.6281 5.46011 26.618 5.50769 26.6362C5.62837 26.6826 11.4138 26.7088 11.3853 26.6628C11.3726 26.6422 11.4506 26.6385 11.5588 26.6543C11.6933 26.674 11.7494 26.6572 11.7364 26.6009C11.7259 26.5556 11.7873 26.5125 11.8736 26.5048C11.9594 26.497 12.0563 26.443 12.0891 26.3848C12.1217 26.3265 12.1956 26.2315 12.2534 26.1737C12.3114 26.1157 12.3423 26.0522 12.3224 26.0323C12.3025 26.0123 12.2475 26.0583 12.1999 26.1342C12.1525 26.2101 12.0856 26.2723 12.0514 26.2723C12.0171 26.2723 12.0687 26.1892 12.166 26.0876L12.343 25.9029L12.3387 22.6631C12.3351 20.0215 12.3183 19.4234 12.2471 19.4234C12.1992 19.4234 12.1642 19.3715 12.1691 19.3081C12.1742 19.2441 12.1395 19.2009 12.0911 19.211C12.0425 19.221 12.0236 19.1973 12.0484 19.1571C12.0735 19.1165 12.0328 19.0696 11.9544 19.049C11.8784 19.0292 11.8161 18.9867 11.8161 18.9546C11.8161 18.9227 11.7847 18.8965 11.7463 18.8965C11.708 18.8965 11.6989 18.9336 11.7261 18.9788C11.7656 19.0445 11.755 19.0447 11.6745 18.9793C11.6191 18.9344 11.5516 18.9196 11.5247 18.9464C11.4979 18.9734 11.4857 18.9509 11.4979 18.8965C11.5293 18.7549 5.48267 18.7121 5.35096 18.8531ZM10.038 22.7161V24.2966H8.42458H6.81113V22.7161V21.1356H8.42458H10.038V22.7161ZM14.7796 21.6463C14.7796 21.6738 14.6981 21.7323 14.5985 21.7765C14.4989 21.8207 14.3782 21.9199 14.3301 21.997C14.2822 22.0742 14.2748 22.1175 14.3137 22.0935C14.3527 22.0694 14.3845 22.0791 14.3845 22.115C14.3845 22.1511 14.3288 22.198 14.2608 22.2196C14.1331 22.2602 14.0866 22.967 14.204 23.0844C14.2309 23.1113 14.2523 23.1653 14.2518 23.2046C14.2513 23.2438 14.222 23.2314 14.1869 23.1771C14.0894 23.0263 14.109 23.1327 14.2193 23.3539C14.346 23.6076 14.4954 23.7403 14.7964 23.8661C15.2327 24.0484 34.6779 24.0118 34.565 23.8289C34.5454 23.7973 34.5699 23.7869 34.6195 23.8059C34.7423 23.8531 35.0324 23.6142 35.1579 23.363C35.296 23.0857 35.2991 22.3317 35.1621 22.2792C35.1081 22.2583 35.0816 22.2123 35.1035 22.1771C35.17 22.0694 34.7904 21.7224 34.6536 21.7658C34.5742 21.791 34.5391 21.7741 34.551 21.7168C34.5732 21.6098 15.5172 21.5503 15.1336 21.6563C14.9984 21.6936 14.9247 21.6941 14.9474 21.6573C14.9681 21.6239 14.9388 21.5966 14.8823 21.5966C14.8259 21.5966 14.7796 21.619 14.7796 21.6463ZM34.9362 21.9683L35.0959 22.1424L34.9148 22.0266C34.8152 21.9629 34.7337 21.8845 34.7337 21.8524C34.7337 21.7629 34.7637 21.78 34.9362 21.9683ZM5.30897 29.559C5.22534 29.5804 5.15866 29.6202 5.1608 29.6474C5.17084 29.7745 5.15866 29.7891 5.10844 29.7099C5.06728 29.6451 5.00192 29.6729 4.8391 29.8252C4.72072 29.9357 4.66408 30.027 4.71331 30.0282C4.76863 30.0297 4.74624 30.0774 4.65437 30.154C4.51558 30.2697 4.4438 30.4016 4.55789 30.3311C4.58638 30.3135 4.60975 30.3563 4.60975 30.426C4.60975 30.4958 4.58588 30.5529 4.55674 30.5529C4.5276 30.5529 4.50554 31.9023 4.50751 33.5516C4.51031 35.8804 4.52908 36.5403 4.59098 36.5055C4.65272 36.4708 4.65305 36.4797 4.5928 36.545C4.53221 36.6104 4.536 36.6509 4.60975 36.7247C4.66211 36.7769 4.69306 36.8396 4.67841 36.8638C4.65058 36.9097 4.75431 37.0256 4.8684 37.0762C4.90462 37.0923 4.92685 37.1277 4.91779 37.1549C4.90874 37.182 4.93837 37.1968 4.98365 37.1878C5.02892 37.1787 5.05724 37.2122 5.0467 37.262C5.0337 37.3236 5.06992 37.3417 5.15948 37.3182C5.23225 37.2993 5.32593 37.3251 5.36791 37.3756C5.48085 37.5118 11.3347 37.5123 11.5209 37.3761C11.5897 37.3259 11.6842 37.2994 11.731 37.3174C11.7778 37.3353 11.8161 37.3207 11.8161 37.2848C11.8161 37.249 11.8756 37.2041 11.9482 37.1852C12.0366 37.1619 12.0667 37.1158 12.0395 37.0449C12.0086 36.9644 12.0269 36.9501 12.1166 36.9845C12.2078 37.0194 12.2246 37.0049 12.1918 36.9193C12.1643 36.848 12.1828 36.8091 12.2439 36.8091C12.3245 36.8091 12.3382 36.3215 12.3382 33.4482C12.3382 30.3945 12.3285 30.0889 12.2322 30.1061C12.1739 30.1164 12.1135 30.0804 12.0978 30.026C12.0726 29.9383 12.0772 29.9383 12.1393 30.026C12.1778 30.0804 12.2088 30.0952 12.2081 30.059C12.206 29.9281 12.0129 29.7406 11.8667 29.7272C11.7845 29.7198 11.7238 29.6834 11.7315 29.6466C11.7392 29.6095 11.6577 29.5664 11.5504 29.5507C11.4431 29.5349 11.3551 29.5465 11.3551 29.5764C11.3551 29.6064 11.3237 29.6309 11.2853 29.6309C11.247 29.6309 11.2371 29.5962 11.2633 29.5539C11.2955 29.5018 11.2748 29.4906 11.1992 29.5196C11.0825 29.5646 5.59116 29.5893 5.50868 29.5453C5.4825 29.5313 5.39261 29.5376 5.30897 29.559ZM10.038 33.5164V35.0969H8.42458H6.81113V33.5164V31.9358H8.42458H10.038V33.5164ZM14.894 32.3107C14.8302 32.3274 14.7948 32.368 14.8152 32.4011C14.8356 32.4342 14.8117 32.4456 14.7622 32.4266C14.6393 32.3794 14.3492 32.6183 14.2238 32.8695C14.1097 33.0982 14.0878 33.2088 14.1869 33.0554C14.222 33.001 14.2513 32.9887 14.2518 33.0279C14.2523 33.0672 14.2324 33.1196 14.2075 33.1446C14.088 33.264 14.1405 33.9392 14.2789 34.062C14.355 34.1296 14.3782 34.1647 14.3301 34.1402C14.2579 34.103 14.2579 34.1191 14.3301 34.2355C14.3782 34.3126 14.4989 34.4118 14.5985 34.456C14.6981 34.5002 14.7796 34.5587 14.7796 34.5862C14.7796 34.6135 14.8259 34.6359 14.8823 34.6359C14.9388 34.6359 14.9681 34.6086 14.9474 34.5752C14.9247 34.5384 14.9984 34.5389 15.1336 34.5761C15.5172 34.6822 34.5732 34.6227 34.551 34.5157C34.5391 34.4584 34.5742 34.4415 34.6536 34.4667C34.7904 34.5101 35.17 34.1631 35.1035 34.0554C35.0816 34.0202 35.1081 33.9742 35.1621 33.9533C35.5222 33.8152 35.1827 32.6619 34.7102 32.4176C34.6065 32.3639 34.5414 32.3522 34.5658 32.3914C34.59 32.4306 34.5775 32.4627 34.538 32.4627C34.4985 32.4627 34.4491 32.4182 34.4283 32.3639C34.3918 32.2686 15.2551 32.2166 14.894 32.3107ZM34.9315 34.2734C34.8467 34.3639 34.7599 34.4206 34.739 34.3995C34.7179 34.3784 34.7708 34.3045 34.8562 34.2352C35.0749 34.058 35.1149 34.0783 34.9315 34.2734ZM39.3591 37.3873C39.4263 37.4431 39.5578 37.458 39.7478 37.4315C39.9541 37.4025 40.0078 37.4102 39.9381 37.4588C39.8197 37.5414 39.9806 37.6266 40.1795 37.5865C40.2448 37.5734 40.356 37.6154 40.4261 37.6797C40.4964 37.7443 40.6075 37.797 40.6731 37.797C40.7388 37.797 40.7924 37.8297 40.7924 37.8699C40.7924 37.9099 40.8344 37.9267 40.8858 37.9069C40.9371 37.8872 40.9954 37.9137 41.0153 37.9657C41.0354 38.0177 41.0906 38.0604 41.138 38.0604C41.1854 38.0604 41.2671 38.1196 41.3193 38.1921C41.3715 38.2645 41.4521 38.3238 41.4984 38.3238C41.5448 38.3238 41.5827 38.3552 41.5827 38.3936C41.5827 38.432 41.6105 38.4461 41.6444 38.425C41.6785 38.4041 41.733 38.4346 41.7656 38.4929C41.7984 38.5513 41.852 38.5994 41.885 38.5997C41.9179 38.6001 41.9375 38.6271 41.9284 38.6597C41.9194 38.6923 41.9614 38.7189 42.0218 38.7189C42.082 38.7189 42.1135 38.7369 42.0916 38.7588C42.0348 38.8156 42.3619 39.1287 42.4324 39.0851C42.4994 39.0438 42.5705 39.1972 42.5705 39.3829C42.5705 39.4524 42.6053 39.5092 42.6477 39.5092C42.7417 39.5092 42.9656 39.7044 42.9656 39.7868C42.9656 39.8194 42.9286 39.8271 42.8833 39.8037C42.8381 39.7803 42.8616 39.8156 42.9355 39.8821C43.1158 40.0441 43.2872 40.2741 43.1797 40.2094C43.1344 40.1822 43.0974 40.1882 43.0974 40.2227C43.0974 40.2571 43.1413 40.3022 43.195 40.3228C43.2488 40.3434 43.2758 40.4043 43.2551 40.4582C43.2345 40.512 43.2794 40.6225 43.355 40.7036C43.4306 40.7848 43.4925 40.9178 43.4925 40.9995C43.4925 41.081 43.5221 41.1661 43.5583 41.1885C43.5946 41.2109 43.6237 41.2646 43.6232 41.3077C43.6226 41.3548 43.5967 41.3467 43.5583 41.2873C43.5032 41.2018 43.4943 41.2033 43.4935 41.2983C43.493 41.3586 43.5231 41.4182 43.5605 41.4307C43.5979 41.4432 43.6311 41.5938 43.6346 41.7654C43.638 41.9371 43.6619 42.0775 43.6874 42.0775C43.7129 42.0775 43.734 42.1207 43.734 42.1734C43.734 42.2262 43.7096 42.2544 43.68 42.2361C43.6314 42.206 43.6611 42.5063 43.7279 42.7231C43.7424 42.7702 43.7251 42.7907 43.6892 42.7685C43.6535 42.7465 43.6242 42.7596 43.6242 42.798C43.6242 42.8363 43.6612 42.8683 43.7065 42.8688C43.7576 42.8694 43.7638 42.8882 43.723 42.9182C43.6868 42.9448 43.6499 43.0999 43.641 43.2628C43.6321 43.4258 43.5951 43.569 43.5587 43.5812C43.5223 43.5932 43.4925 43.7027 43.4925 43.8243C43.4925 43.9458 43.4657 44.0621 43.4329 44.0823C43.4 44.1026 43.3886 44.1785 43.4075 44.2508C43.4316 44.3423 43.4095 44.3825 43.3356 44.3825C43.2659 44.3825 43.2291 44.4394 43.2291 44.5471C43.2291 44.6376 43.1976 44.7117 43.1593 44.7117C43.1209 44.7117 43.1058 44.7381 43.1257 44.7702C43.1456 44.8023 43.1163 44.8663 43.0606 44.9124C43.0052 44.9585 42.9749 45.0359 42.9935 45.0845C43.0124 45.1335 42.9844 45.1727 42.9306 45.1727C42.8774 45.1727 42.8339 45.2159 42.8339 45.2684C42.8339 45.4477 42.6866 45.6884 42.5559 45.7225C42.4842 45.7412 42.4421 45.7834 42.4623 45.8161C42.5223 45.9131 42.3106 46.1606 42.1678 46.1606C42.0952 46.1606 42.0542 46.1902 42.0766 46.2264C42.099 46.2626 42.0694 46.2923 42.0107 46.2923C41.9521 46.2923 41.9204 46.3186 41.9403 46.3507C41.9852 46.4235 41.8558 46.5326 41.6815 46.569C41.609 46.584 41.5568 46.6306 41.5654 46.6724C41.5743 46.7151 41.5381 46.732 41.4831 46.7109C41.4205 46.6869 41.3851 46.7129 41.3851 46.7831C41.3851 46.8433 41.3573 46.8756 41.3234 46.8545C41.2893 46.8336 41.2322 46.8688 41.1963 46.933C41.1604 46.9971 41.1141 47.0422 41.0934 47.0331C41.0728 47.0241 41.0547 47.0389 41.0532 47.0661C41.0479 47.1652 40.5032 47.3915 40.3211 47.3703C40.2182 47.3583 40.1339 47.3776 40.1339 47.4131C40.1339 47.4487 40.0894 47.4777 40.0351 47.4777C39.9808 47.4777 39.9363 47.5073 39.9363 47.5435C39.9363 47.5797 39.9049 47.6094 39.8665 47.6094C39.8281 47.6094 39.8151 47.5797 39.8375 47.5435C39.8599 47.5073 39.85 47.4777 39.8155 47.4777C39.7811 47.4777 39.7363 47.521 39.7159 47.5738C39.6898 47.6416 39.6103 47.6612 39.4455 47.6402C39.3146 47.6234 39.2119 47.639 39.2119 47.6756C39.2119 47.7152 38.9124 47.7411 38.4546 47.7411C37.9839 47.7411 37.6972 47.7157 37.6972 47.6739C37.6972 47.637 37.6264 47.6196 37.5398 47.6354C37.4534 47.651 37.3018 47.622 37.2032 47.5707C36.9937 47.4622 36.8823 47.4503 36.9394 47.5427C36.9621 47.5794 36.9371 47.5916 36.8826 47.5705C36.8291 47.5501 36.7693 47.4912 36.7494 47.4396C36.7292 47.3864 36.6253 47.3459 36.5095 47.3459C36.2682 47.3459 36.0311 47.2335 36.0858 47.1451C36.1072 47.1107 36.0635 47.0825 35.9889 47.0825C35.9144 47.0825 35.8528 47.0455 35.8523 47.0002C35.8516 46.9454 35.8299 46.9508 35.7874 47.0167C35.7336 47.1 35.7234 47.0962 35.7226 46.9931C35.7219 46.9136 35.6882 46.8836 35.6261 46.9075C35.5711 46.9286 35.5158 46.8968 35.4952 46.8321C35.4756 46.7704 35.3926 46.6783 35.3106 46.6273C35.1743 46.5423 35.1694 46.5437 35.2522 46.6439C35.3047 46.7073 35.3134 46.7533 35.2731 46.7533C35.2349 46.7533 35.1825 46.6866 35.1569 46.6051C35.1004 46.4264 34.8715 46.2149 34.7894 46.2656C34.757 46.2857 34.7387 46.2648 34.7486 46.2192C34.7586 46.1737 34.6852 46.0958 34.5856 46.0461C34.486 45.9964 34.4045 45.9113 34.4045 45.8568C34.4045 45.8023 34.3776 45.7743 34.3447 45.7946C34.3119 45.8148 34.3019 45.7671 34.3225 45.6885C34.3516 45.5766 34.3368 45.5545 34.2538 45.5863C34.1794 45.6149 34.1587 45.5985 34.1843 45.5316C34.2064 45.4742 34.1814 45.4361 34.1213 45.4361C34.0541 45.4361 34.0329 45.3933 34.0561 45.3044C34.0826 45.2034 34.0581 45.1727 33.9512 45.1727C33.8745 45.1727 33.8081 45.1283 33.8035 45.0739C33.7881 44.8879 33.7788 44.8543 33.7295 44.8051C33.7023 44.7779 33.6801 44.6867 33.6801 44.6026C33.6801 44.5183 33.6223 44.4134 33.5516 44.3693C33.4484 44.3048 33.4387 44.27 33.5023 44.1915C33.5643 44.1148 33.5637 44.1044 33.499 44.1432C33.4201 44.1905 33.3847 44.0804 33.4117 43.8721C33.4176 43.8268 33.3914 43.7898 33.3537 43.7898C33.3159 43.7898 33.2849 43.7583 33.2849 43.72C33.2849 43.6816 33.3126 43.6673 33.3463 43.6882C33.3801 43.7091 33.3633 43.6371 33.309 43.5283C33.2546 43.4195 33.2275 43.3024 33.2487 43.2684C33.2698 43.2341 33.2569 43.1875 33.2202 43.1648C33.1833 43.1421 33.1532 43.079 33.1532 43.0247C33.1532 42.9704 33.1829 42.9442 33.2191 42.9666C33.2553 42.989 33.2849 42.9776 33.2849 42.9414C33.2849 42.9052 33.2553 42.8573 33.2191 42.8349C33.1829 42.8125 33.1532 42.6625 33.1532 42.5016C33.1532 42.3408 33.1829 42.2092 33.2191 42.2092C33.2553 42.2092 33.2844 42.1574 33.2839 42.094C33.2831 41.9955 33.2736 41.9931 33.2191 42.0775C33.1646 42.162 33.155 42.1595 33.1542 42.0611C33.1537 41.9977 33.1768 41.9458 33.2056 41.9458C33.2344 41.9458 33.2655 41.8355 33.2746 41.7008C33.2836 41.5662 33.3267 41.4305 33.3702 41.3996C33.4306 41.3566 33.431 41.3355 33.372 41.3113C33.2895 41.2776 33.3842 40.8921 33.4749 40.8921C33.4999 40.8921 33.5243 40.8403 33.5293 40.7769C33.5447 40.58 33.6733 40.2994 33.7482 40.2994C33.7874 40.2994 33.8027 40.2723 33.7821 40.2389C33.7616 40.2056 33.7844 40.1386 33.8328 40.0902C33.8814 40.0416 33.9089 39.9651 33.8939 39.9201C33.8789 39.8752 33.9135 39.8385 33.971 39.8385C34.0283 39.8385 34.0752 39.8075 34.0752 39.7698C34.0752 39.7321 34.1323 39.6399 34.2021 39.565C34.2718 39.4901 34.3131 39.3877 34.2938 39.3373C34.2728 39.2825 34.3012 39.2458 34.3645 39.2458C34.4264 39.2458 34.4703 39.1911 34.4703 39.1141C34.4703 38.9962 34.5388 38.9516 34.6844 38.9746C34.7115 38.9789 34.7342 38.9157 34.7347 38.8342C34.7356 38.7143 34.7479 38.7049 34.7996 38.7848C34.8538 38.8686 34.8636 38.8655 34.8645 38.7644C34.8651 38.6904 34.8946 38.6633 34.9425 38.6929C34.9939 38.7247 35.0059 38.7051 34.9787 38.6343C34.9501 38.5597 34.9664 38.539 35.0334 38.5647C35.0933 38.5877 35.1289 38.5604 35.1289 38.4916C35.1289 38.4313 35.1585 38.4002 35.1947 38.4226C35.231 38.445 35.2606 38.432 35.2606 38.3936C35.2606 38.3552 35.2932 38.3238 35.333 38.3238C35.3727 38.3238 35.4847 38.2423 35.5816 38.1427C35.7695 37.9499 36.0942 37.7393 36.0209 37.8579C35.9968 37.8969 36.0085 37.9287 36.0469 37.9287C36.0853 37.9287 36.1167 37.899 36.1167 37.8628C36.1167 37.8266 36.1638 37.797 36.2214 37.797C36.279 37.797 36.3849 37.7303 36.4568 37.6488C36.5288 37.5673 36.5658 37.5428 36.539 37.5941C36.5028 37.6636 36.5197 37.6763 36.6052 37.6435C36.6684 37.6193 36.7639 37.5994 36.8174 37.5994C36.875 37.5994 36.8953 37.5679 36.8671 37.5223C36.8352 37.4705 36.8554 37.4591 36.929 37.4873C36.9893 37.5105 37.0387 37.5026 37.0387 37.4698C37.0387 37.4369 37.1386 37.4264 37.2608 37.4461C37.4032 37.4693 37.5013 37.4524 37.5344 37.3989C37.5678 37.3447 37.5593 37.332 37.5099 37.3626C37.4681 37.3885 37.4338 37.3817 37.4338 37.3477C37.4338 37.2487 39.2369 37.2859 39.3591 37.3873ZM40.6373 39.7385C40.6168 39.7924 40.5614 39.8215 40.5145 39.8036C40.4676 39.7854 40.3988 39.8378 40.3616 39.92C40.3242 40.0019 40.2577 40.0615 40.2137 40.0525C40.1698 40.0434 40.1413 40.0731 40.1503 40.1183C40.1594 40.1636 40.1298 40.1933 40.0845 40.1842C40.0392 40.1751 40.0096 40.2023 40.0186 40.2446C40.0277 40.2869 39.961 40.3607 39.8705 40.4083C39.7799 40.456 39.7354 40.496 39.7717 40.497C39.8079 40.498 39.7634 40.538 39.6729 40.5858C39.5823 40.6333 39.5163 40.7092 39.5264 40.7542C39.5362 40.7993 39.518 40.8197 39.4857 40.7998C39.4055 40.7502 38.54 41.6075 38.5894 41.6875C38.6111 41.7227 38.5897 41.7433 38.5418 41.7334C38.4937 41.7234 38.462 41.7524 38.471 41.7977C38.4801 41.8429 38.4529 41.8726 38.4106 41.8635C38.3683 41.8545 38.2945 41.9211 38.247 42.0117C38.1992 42.1022 38.1592 42.1467 38.1582 42.1105C38.1572 42.0742 38.1172 42.1187 38.0695 42.2092C38.0219 42.2998 37.9407 42.364 37.8894 42.352C37.838 42.3398 37.8179 42.352 37.8449 42.3788C37.9783 42.5122 37.6923 42.6516 37.551 42.5221C37.5016 42.4768 37.4032 42.4055 37.3322 42.3635C37.2613 42.3217 37.2107 42.255 37.2198 42.2153C37.2288 42.1758 37.1869 42.1434 37.1264 42.1434C37.0662 42.1434 37.0344 42.1258 37.056 42.104C37.1062 42.0538 36.58 41.525 36.4178 41.4629C36.3505 41.4371 36.3131 41.3982 36.3347 41.3767C36.3563 41.3551 36.3381 41.3024 36.2947 41.2596C36.2076 41.174 35.1126 41.1417 35.1648 41.2262C35.1819 41.254 35.092 41.311 34.9649 41.353C34.8072 41.405 34.7337 41.4694 34.7337 41.5558C34.7337 41.6254 34.701 41.6824 34.6608 41.6824C34.6208 41.6824 34.6055 41.728 34.6267 41.7837C34.649 41.8413 34.6236 41.901 34.568 41.9224C34.5143 41.943 34.4703 41.9881 34.4703 42.0225C34.4703 42.0571 34.5 42.067 34.5362 42.0446C34.5724 42.0222 34.602 42.0352 34.602 42.0736C34.602 42.1119 34.5772 42.1434 34.5467 42.1434C34.4754 42.1434 34.482 42.625 34.554 42.6762C34.5841 42.6976 34.6134 42.7791 34.6193 42.8573C34.6252 42.9355 34.67 42.9995 34.7188 42.9995C34.7675 42.9995 34.7896 43.0283 34.7678 43.0634C34.7461 43.0986 34.805 43.1465 34.8987 43.1701C34.9926 43.1936 35.055 43.227 35.0377 43.2443C34.9924 43.2896 35.4157 43.7107 35.4738 43.6783C35.5006 43.6633 35.5029 43.7023 35.4789 43.7649C35.4458 43.8508 35.4613 43.8685 35.5421 43.8375C35.6211 43.8072 35.6383 43.8243 35.608 43.9034C35.5765 43.9852 35.5945 43.9997 35.6845 43.9651C35.7746 43.9305 35.7925 43.9449 35.7611 44.0268C35.7308 44.1059 35.7479 44.123 35.8269 44.0927C35.906 44.0624 35.9231 44.0795 35.8928 44.1586C35.8638 44.2341 35.88 44.2545 35.9479 44.2285C36.0159 44.2025 36.0321 44.2229 36.0031 44.2985C35.9728 44.3775 35.9899 44.3946 36.069 44.3644C36.1445 44.3354 36.1649 44.3515 36.1389 44.4195C36.1129 44.4875 36.1333 44.5036 36.2089 44.4747C36.2879 44.4444 36.305 44.4615 36.2748 44.5405C36.2445 44.6195 36.2616 44.6367 36.3406 44.6064C36.4196 44.5761 36.4368 44.5932 36.4065 44.6722C36.375 44.7542 36.393 44.7685 36.483 44.734C36.5731 44.6994 36.591 44.7139 36.5596 44.7957C36.5293 44.8747 36.5464 44.8919 36.6254 44.8616C36.6997 44.8331 36.7217 44.8492 36.6977 44.9144C36.6561 45.0269 36.9111 45.2921 37.0245 45.2542C37.0721 45.2384 37.0897 45.2662 37.068 45.3232C37.0374 45.4027 37.123 45.4161 37.5782 45.4029C38.2354 45.3838 38.4279 45.3316 38.3727 45.1877C38.3433 45.111 38.3615 45.095 38.4432 45.1263C38.5165 45.1544 38.5533 45.135 38.5533 45.068C38.5533 45.0127 38.583 44.9857 38.6192 45.0081C38.6554 45.0305 38.6851 44.9977 38.6851 44.9352C38.6851 44.8726 38.7025 44.839 38.7239 44.8604C38.7743 44.9106 39.8589 43.8385 39.8237 43.7733C39.8089 43.7461 39.8448 43.7239 39.9034 43.7239C39.962 43.7239 39.9916 43.6943 39.9692 43.6581C39.9468 43.6218 39.9765 43.5922 40.0351 43.5922C40.0937 43.5922 40.1233 43.5626 40.1009 43.5263C40.0786 43.4901 40.1082 43.4605 40.1668 43.4605C40.2254 43.4605 40.255 43.4309 40.2327 43.3946C40.2103 43.3584 40.2399 43.3288 40.2985 43.3288C40.3571 43.3288 40.3868 43.2991 40.3644 43.2629C40.342 43.2267 40.365 43.1971 40.4157 43.1971C40.5214 43.1971 40.99 42.7125 40.99 42.6034C40.99 42.5634 41.0196 42.5491 41.0558 42.5714C41.0921 42.5938 41.1217 42.5642 41.1217 42.5056C41.1217 42.447 41.1513 42.4174 41.1876 42.4397C41.2238 42.4621 41.2534 42.4325 41.2534 42.3739C41.2534 42.3153 41.283 42.2856 41.3193 42.308C41.3555 42.3304 41.3851 42.2977 41.3851 42.2351C41.3851 42.1725 41.4027 42.1391 41.4245 42.1607C41.473 42.2092 42.0025 41.6872 42.062 41.5321C42.0858 41.4699 42.1509 41.419 42.2062 41.419C42.2617 41.419 42.3071 41.3875 42.3071 41.3492C42.3071 41.3108 42.2775 41.2978 42.2412 41.3202C42.205 41.3426 42.1754 41.3296 42.1754 41.2912C42.1754 41.2529 42.205 41.2214 42.2412 41.2214C42.2775 41.2214 42.3071 41.1603 42.3071 41.0858C42.3071 41.0112 42.3367 40.9685 42.373 40.9909C42.4092 41.0133 42.4388 41.002 42.4388 40.9657C42.4388 40.9295 42.4092 40.8816 42.373 40.8592C42.2798 40.8016 42.2911 40.5792 42.3888 40.5466C42.447 40.5271 42.4365 40.4853 42.352 40.4009C42.287 40.3358 42.2483 40.2441 42.2664 40.1972C42.2844 40.1503 42.2259 40.0639 42.1364 40.0052C42.0412 39.9428 41.9925 39.8656 42.0191 39.819C42.0443 39.7754 42.0414 39.7609 42.0127 39.7868C41.9839 39.8126 41.8986 39.7904 41.8227 39.7374C41.6281 39.6009 40.6897 39.6019 40.6373 39.7385ZM5.52695 40.2336C5.50456 40.2698 5.39886 40.2994 5.29201 40.2994C5.17446 40.2994 5.01954 40.3693 4.89968 40.4759C4.50027 40.8317 4.50932 40.7473 4.51064 44.1589L4.51196 47.2799L4.65733 47.4362C4.95912 47.7607 5.08194 47.9337 5.04176 47.9777C5.01888 48.0027 5.0742 48.0068 5.16475 47.987C5.2553 47.9673 5.38866 47.9786 5.4611 48.0121C5.57832 48.0664 5.57552 48.0697 5.43509 48.0425C5.34849 48.0256 5.30403 48.0325 5.3363 48.0575C5.36874 48.0827 6.73622 48.0885 8.37519 48.0704C10.0142 48.0522 11.3551 48.0597 11.3551 48.0868C11.3551 48.1629 11.5387 48.1453 11.5649 48.0667C11.5776 48.0285 11.6393 47.9898 11.702 47.9806C11.7648 47.9714 11.8627 47.9064 11.9198 47.8361C11.9768 47.7656 12.0046 47.7452 11.9818 47.7905C11.9111 47.9297 12.0425 47.8813 12.1344 47.7342C12.2062 47.6194 12.206 47.6033 12.1339 47.6405C12.0858 47.665 12.1123 47.6273 12.1925 47.5564L12.3384 47.4274L12.3417 44.1607C12.3453 40.8123 12.3323 40.6287 12.0927 40.6287C12.045 40.6287 12.0237 40.5999 12.0455 40.5648C12.0672 40.5296 12.0099 40.482 11.918 40.459C11.8263 40.4359 11.7648 40.3951 11.7814 40.3683C11.798 40.3414 11.7196 40.3167 11.6072 40.3136C11.4949 40.3103 11.3714 40.2762 11.3329 40.2377C11.2391 40.1439 5.58491 40.1398 5.52695 40.2336ZM10.038 44.119V45.6996H8.42458H6.81113V44.119V42.5385H8.42458H10.038V44.119ZM33.1624 47.8929C33.2377 48.0364 33.2372 48.0366 33.0969 47.912C33.0192 47.843 32.9557 47.7597 32.9557 47.7269C32.9557 47.6342 33.0785 47.7328 33.1624 47.8929Z" fill="#143474"/>
<path fill-rule="evenodd" clip-rule="evenodd" d="M3.71475 0.754115C3.66618 0.812726 3.6917 0.824745 3.81468 0.801366C3.9054 0.783914 3.97981 0.748517 3.97981 0.722504C3.97981 0.645618 3.78554 0.668833 3.71475 0.754115ZM2.16254 1.45383L2.03708 1.59574L2.21819 1.47918C2.40489 1.35899 2.44028 1.31191 2.34364 1.31191C2.31302 1.31191 2.23152 1.37579 2.16254 1.45383ZM38.5033 2.36559C38.5485 2.43803 38.6083 2.4973 38.6361 2.4973C38.6639 2.4973 38.6496 2.43803 38.6044 2.36559C38.5591 2.29315 38.4993 2.23388 38.4715 2.23388C38.4437 2.23388 38.458 2.29315 38.5033 2.36559ZM12.3322 2.94182C16.5096 2.95121 23.3256 2.95121 27.4789 2.94182C31.6323 2.93244 28.2145 2.92487 19.8839 2.92487C11.5532 2.92487 8.15487 2.93244 12.3322 2.94182ZM0.126953 28.115C0.126953 40.8102 0.134527 46.0037 0.143746 39.6561C0.152966 33.3085 0.152966 22.9215 0.143746 16.5738C0.134527 10.2262 0.126953 15.4197 0.126953 28.115ZM5.3957 8.19772C5.28704 8.2509 5.2574 8.27181 5.32984 8.24415C5.40229 8.21649 6.79512 8.1783 8.42504 8.1592L11.3885 8.12462L8.4909 8.11277C6.05771 8.10289 5.56166 8.11639 5.3957 8.19772ZM4.8659 8.44731C4.71591 8.61228 4.69533 8.71172 4.83972 8.57425C4.92418 8.49374 4.98015 8.41521 4.96402 8.39973C4.94788 8.38442 4.90376 8.40583 4.8659 8.44731ZM14.2532 11.5799C14.2532 11.6492 14.2228 11.7211 14.1857 11.7396C14.1485 11.758 14.1531 11.7662 14.1959 11.758C14.2927 11.7394 14.4065 11.4536 14.3169 11.4536C14.2819 11.4536 14.2532 11.5104 14.2532 11.5799ZM7.6221 13.676C8.08605 13.6874 8.82692 13.6874 9.26848 13.676C9.71004 13.6647 9.33055 13.6553 8.42504 13.6553C7.51953 13.6555 7.15815 13.6647 7.6221 13.676ZM7.6221 21.1835C8.08605 21.1949 8.82692 21.1949 9.26848 21.1835C9.71004 21.1722 9.33055 21.1628 8.42504 21.1628C7.51953 21.163 7.15815 21.1722 7.6221 21.1835ZM34.7342 21.8511C34.7342 21.8832 34.8157 21.9616 34.9153 22.0253L35.0964 22.1411L34.9367 21.967C34.7642 21.7787 34.7342 21.7616 34.7342 21.8511ZM12.1459 26.1064C12.0607 26.1969 12.0186 26.27 12.052 26.2689C12.1083 26.2671 12.3798 25.9417 12.325 25.9417C12.3115 25.9417 12.231 26.0158 12.1459 26.1064ZM7.09147 26.7155C7.84305 26.7261 9.07289 26.7261 9.82446 26.7155C10.576 26.7048 9.96111 26.6963 8.45797 26.6963C6.95482 26.6963 6.3399 26.7048 7.09147 26.7155ZM5.4716 29.5473C5.44394 29.5921 9.04161 29.5899 10.5653 29.5442C10.9094 29.534 9.91106 29.5193 8.34667 29.5117C6.78228 29.5042 5.48856 29.5201 5.4716 29.5473ZM34.8567 34.2339C34.7712 34.3032 34.7184 34.3771 34.7395 34.3982C34.7604 34.4193 34.8471 34.3626 34.9319 34.2721C35.1153 34.077 35.0753 34.0567 34.8567 34.2339ZM7.6221 35.079C8.08605 35.0903 8.82692 35.0903 9.26848 35.079C9.71004 35.0676 9.33055 35.0582 8.42504 35.0582C7.51953 35.0584 7.15815 35.0676 7.6221 35.079ZM33.0318 37.1812C32.9123 37.3105 32.9602 37.3452 33.1084 37.2369C33.1738 37.189 33.2034 37.1351 33.1741 37.1174C33.1448 37.0996 33.0807 37.1284 33.0318 37.1812ZM38.1093 37.3172C38.2813 37.3307 38.5629 37.3307 38.7349 37.3172C38.907 37.3037 38.7662 37.2925 38.4221 37.2925C38.078 37.2925 37.9372 37.3037 38.1093 37.3172ZM45.271 39.3401C45.271 39.4195 45.4299 39.7055 45.4742 39.7055C45.5017 39.7055 45.48 39.6166 45.4258 39.5079C45.3374 39.3306 45.271 39.2586 45.271 39.3401ZM41.0892 39.5737C41.066 39.6113 41.1228 39.6396 41.2209 39.6396C41.3191 39.6396 41.3759 39.6113 41.3527 39.5737C41.3303 39.5375 41.271 39.5079 41.2209 39.5079C41.1709 39.5079 41.1116 39.5375 41.0892 39.5737ZM42.8025 39.658C42.866 39.7588 42.9347 39.8247 42.9549 39.8044C42.9752 39.7842 42.9231 39.7018 42.8393 39.6213L42.6869 39.475L42.8025 39.658ZM40.0983 40.1829L39.838 40.4628L40.1179 40.2025C40.3782 39.9603 40.428 39.903 40.3782 39.903C40.3675 39.903 40.2415 40.029 40.0983 40.1829ZM42.3076 40.6893C42.3076 40.7596 42.3372 40.8355 42.3734 40.8579C42.4108 40.881 42.4393 40.8257 42.4393 40.7302C42.4393 40.6375 42.4096 40.5616 42.3734 40.5616C42.3372 40.5616 42.3076 40.619 42.3076 40.6893ZM46.0165 42.5372C46.0165 42.7727 46.0285 42.869 46.043 42.7513C46.0577 42.6335 46.0577 42.4409 46.043 42.3232C46.0285 42.2055 46.0165 42.3018 46.0165 42.5372ZM37.8582 42.422L37.6648 42.636L37.8788 42.4426C37.9965 42.3362 38.0928 42.2399 38.0928 42.2285C38.0928 42.1777 38.0385 42.2224 37.8582 42.422ZM30.8654 42.5043C30.866 42.6492 30.8795 42.7007 30.8953 42.6187C30.9111 42.5369 30.9105 42.4184 30.894 42.3553C30.8776 42.2924 30.8645 42.3594 30.8654 42.5043ZM7.6221 42.5865C8.08605 42.5978 8.82692 42.5978 9.26848 42.5865C9.71004 42.5751 9.33055 42.5657 8.42504 42.5657C7.51953 42.5659 7.15815 42.5751 7.6221 42.5865ZM36.5456 44.8425C36.6114 44.9153 36.6787 44.961 36.6954 44.9444C36.7309 44.9088 36.5432 44.7104 36.4739 44.7104C36.4476 44.7104 36.4799 44.7699 36.5456 44.8425ZM40.7379 47.1789C40.4424 47.3417 40.4333 47.4237 40.727 47.278C40.89 47.1971 41.0357 47.1198 41.0509 47.1061C41.1169 47.0463 40.8773 47.102 40.7379 47.1789ZM36.1461 47.2492C36.2877 47.3549 36.4082 47.3769 36.3526 47.2867C36.3328 47.2549 36.2497 47.212 36.1675 47.1912C36.0237 47.155 36.0228 47.157 36.1461 47.2492ZM4.71624 47.5752C4.7574 47.6657 4.81683 47.7398 4.84795 47.7398C4.87923 47.7398 4.85635 47.6657 4.79691 47.5752C4.73764 47.4846 4.67837 47.4105 4.6652 47.4105C4.65203 47.4105 4.67491 47.4846 4.71624 47.5752ZM32.9561 47.7256C32.9561 47.7584 33.0197 47.8417 33.0974 47.9107C33.2376 48.0353 33.2381 48.0352 33.1629 47.8916C33.0789 47.7316 32.9561 47.6329 32.9561 47.7256ZM5.3957 48.0338C5.61088 48.1374 11.3556 48.1873 11.3556 48.0855C11.3556 48.0584 10.0443 48.0361 8.4415 48.0361C6.83875 48.0361 5.45332 48.0142 5.36277 47.9874C5.23831 47.9505 5.24621 47.9619 5.3957 48.0338ZM36.0842 49.7154C36.1066 49.7517 36.1693 49.7813 36.2237 49.7813C36.278 49.7813 36.3042 49.7517 36.2818 49.7154C36.2594 49.6792 36.1967 49.6496 36.1424 49.6496C36.088 49.6496 36.0618 49.6792 36.0842 49.7154ZM12.3322 53.321C16.5096 53.3304 23.3256 53.3304 27.4789 53.321C31.6323 53.3116 28.2145 53.3041 19.8839 53.3041C11.5532 53.3041 8.15487 53.3116 12.3322 53.321ZM38.5033 53.8643C38.458 53.9368 38.4437 53.996 38.4715 53.996C38.4993 53.996 38.5591 53.9368 38.6044 53.8643C38.6496 53.7919 38.6639 53.7326 38.6361 53.7326C38.6083 53.7326 38.5485 53.7919 38.5033 53.8643Z" fill="#183474"/>
<path fill-rule="evenodd" clip-rule="evenodd" d="M3.71475 0.754115C3.66618 0.812726 3.6917 0.824745 3.81468 0.801366C3.9054 0.783914 3.97981 0.748517 3.97981 0.722504C3.97981 0.645618 3.78554 0.668833 3.71475 0.754115ZM2.16254 1.45383L2.03708 1.59574L2.21819 1.47918C2.40489 1.35899 2.44028 1.31191 2.34364 1.31191C2.31302 1.31191 2.23152 1.37579 2.16254 1.45383ZM38.5033 2.36559C38.5485 2.43803 38.6083 2.4973 38.6361 2.4973C38.6639 2.4973 38.6496 2.43803 38.6044 2.36559C38.5591 2.29315 38.4993 2.23388 38.4715 2.23388C38.4437 2.23388 38.458 2.29315 38.5033 2.36559ZM12.3322 2.94182C16.5096 2.95121 23.3256 2.95121 27.4789 2.94182C31.6323 2.93244 28.2145 2.92487 19.8839 2.92487C11.5532 2.92487 8.15487 2.93244 12.3322 2.94182ZM0.126953 28.115C0.126953 40.8102 0.134527 46.0037 0.143746 39.6561C0.152966 33.3085 0.152966 22.9215 0.143746 16.5738C0.134527 10.2262 0.126953 15.4197 0.126953 28.115ZM5.3957 8.19772C5.28704 8.2509 5.2574 8.27181 5.32984 8.24415C5.40229 8.21649 6.79512 8.1783 8.42504 8.1592L11.3885 8.12462L8.4909 8.11277C6.05771 8.10289 5.56166 8.11639 5.3957 8.19772ZM4.8659 8.44731C4.71591 8.61228 4.69533 8.71172 4.83972 8.57425C4.92418 8.49374 4.98015 8.41521 4.96402 8.39973C4.94788 8.38442 4.90376 8.40583 4.8659 8.44731ZM14.2532 11.5799C14.2532 11.6492 14.2228 11.7211 14.1857 11.7396C14.1485 11.758 14.1531 11.7662 14.1959 11.758C14.2927 11.7394 14.4065 11.4536 14.3169 11.4536C14.2819 11.4536 14.2532 11.5104 14.2532 11.5799ZM7.6221 13.676C8.08605 13.6874 8.82692 13.6874 9.26848 13.676C9.71004 13.6647 9.33055 13.6553 8.42504 13.6553C7.51953 13.6555 7.15815 13.6647 7.6221 13.676ZM7.6221 21.1835C8.08605 21.1949 8.82692 21.1949 9.26848 21.1835C9.71004 21.1722 9.33055 21.1628 8.42504 21.1628C7.51953 21.163 7.15815 21.1722 7.6221 21.1835ZM34.7342 21.8511C34.7342 21.8832 34.8157 21.9616 34.9153 22.0253L35.0964 22.1411L34.9367 21.967C34.7642 21.7787 34.7342 21.7616 34.7342 21.8511ZM12.1459 26.1064C12.0607 26.1969 12.0186 26.27 12.052 26.2689C12.1083 26.2671 12.3798 25.9417 12.325 25.9417C12.3115 25.9417 12.231 26.0158 12.1459 26.1064ZM7.09147 26.7155C7.84305 26.7261 9.07289 26.7261 9.82446 26.7155C10.576 26.7048 9.96111 26.6963 8.45797 26.6963C6.95482 26.6963 6.3399 26.7048 7.09147 26.7155ZM5.4716 29.5473C5.44394 29.5921 9.04161 29.5899 10.5653 29.5442C10.9094 29.534 9.91106 29.5193 8.34667 29.5117C6.78228 29.5042 5.48856 29.5201 5.4716 29.5473ZM34.8567 34.2339C34.7712 34.3032 34.7184 34.3771 34.7395 34.3982C34.7604 34.4193 34.8471 34.3626 34.9319 34.2721C35.1153 34.077 35.0753 34.0567 34.8567 34.2339ZM7.6221 35.079C8.08605 35.0903 8.82692 35.0903 9.26848 35.079C9.71004 35.0676 9.33055 35.0582 8.42504 35.0582C7.51953 35.0584 7.15815 35.0676 7.6221 35.079ZM33.0318 37.1812C32.9123 37.3105 32.9602 37.3452 33.1084 37.2369C33.1738 37.189 33.2034 37.1351 33.1741 37.1174C33.1448 37.0996 33.0807 37.1284 33.0318 37.1812ZM38.1093 37.3172C38.2813 37.3307 38.5629 37.3307 38.7349 37.3172C38.907 37.3037 38.7662 37.2925 38.4221 37.2925C38.078 37.2925 37.9372 37.3037 38.1093 37.3172ZM45.271 39.3401C45.271 39.4195 45.4299 39.7055 45.4742 39.7055C45.5017 39.7055 45.48 39.6166 45.4258 39.5079C45.3374 39.3306 45.271 39.2586 45.271 39.3401ZM41.0892 39.5737C41.066 39.6113 41.1228 39.6396 41.2209 39.6396C41.3191 39.6396 41.3759 39.6113 41.3527 39.5737C41.3303 39.5375 41.271 39.5079 41.2209 39.5079C41.1709 39.5079 41.1116 39.5375 41.0892 39.5737ZM42.8025 39.658C42.866 39.7588 42.9347 39.8247 42.9549 39.8044C42.9752 39.7842 42.9231 39.7018 42.8393 39.6213L42.6869 39.475L42.8025 39.658ZM40.0983 40.1829L39.838 40.4628L40.1179 40.2025C40.3782 39.9603 40.428 39.903 40.3782 39.903C40.3675 39.903 40.2415 40.029 40.0983 40.1829ZM42.3076 40.6893C42.3076 40.7596 42.3372 40.8355 42.3734 40.8579C42.4108 40.881 42.4393 40.8257 42.4393 40.7302C42.4393 40.6375 42.4096 40.5616 42.3734 40.5616C42.3372 40.5616 42.3076 40.619 42.3076 40.6893ZM46.0165 42.5372C46.0165 42.7727 46.0285 42.869 46.043 42.7513C46.0577 42.6335 46.0577 42.4409 46.043 42.3232C46.0285 42.2055 46.0165 42.3018 46.0165 42.5372ZM37.8582 42.422L37.6648 42.636L37.8788 42.4426C37.9965 42.3362 38.0928 42.2399 38.0928 42.2285C38.0928 42.1777 38.0385 42.2224 37.8582 42.422ZM30.8654 42.5043C30.866 42.6492 30.8795 42.7007 30.8953 42.6187C30.9111 42.5369 30.9105 42.4184 30.894 42.3553C30.8776 42.2924 30.8645 42.3594 30.8654 42.5043ZM7.6221 42.5865C8.08605 42.5978 8.82692 42.5978 9.26848 42.5865C9.71004 42.5751 9.33055 42.5657 8.42504 42.5657C7.51953 42.5659 7.15815 42.5751 7.6221 42.5865ZM36.5456 44.8425C36.6114 44.9153 36.6787 44.961 36.6954 44.9444C36.7309 44.9088 36.5432 44.7104 36.4739 44.7104C36.4476 44.7104 36.4799 44.7699 36.5456 44.8425ZM40.7379 47.1789C40.4424 47.3417 40.4333 47.4237 40.727 47.278C40.89 47.1971 41.0357 47.1198 41.0509 47.1061C41.1169 47.0463 40.8773 47.102 40.7379 47.1789ZM36.1461 47.2492C36.2877 47.3549 36.4082 47.3769 36.3526 47.2867C36.3328 47.2549 36.2497 47.212 36.1675 47.1912C36.0237 47.155 36.0228 47.157 36.1461 47.2492ZM4.71624 47.5752C4.7574 47.6657 4.81683 47.7398 4.84795 47.7398C4.87923 47.7398 4.85635 47.6657 4.79691 47.5752C4.73764 47.4846 4.67837 47.4105 4.6652 47.4105C4.65203 47.4105 4.67491 47.4846 4.71624 47.5752ZM32.9561 47.7256C32.9561 47.7584 33.0197 47.8417 33.0974 47.9107C33.2376 48.0353 33.2381 48.0352 33.1629 47.8916C33.0789 47.7316 32.9561 47.6329 32.9561 47.7256ZM5.3957 48.0338C5.61088 48.1374 11.3556 48.1873 11.3556 48.0855C11.3556 48.0584 10.0443 48.0361 8.4415 48.0361C6.83875 48.0361 5.45332 48.0142 5.36277 47.9874C5.23831 47.9505 5.24621 47.9619 5.3957 48.0338ZM36.0842 49.7154C36.1066 49.7517 36.1693 49.7813 36.2237 49.7813C36.278 49.7813 36.3042 49.7517 36.2818 49.7154C36.2594 49.6792 36.1967 49.6496 36.1424 49.6496C36.088 49.6496 36.0618 49.6792 36.0842 49.7154ZM12.3322 53.321C16.5096 53.3304 23.3256 53.3304 27.4789 53.321C31.6323 53.3116 28.2145 53.3041 19.8839 53.3041C11.5532 53.3041 8.15487 53.3116 12.3322 53.321ZM38.5033 53.8643C38.458 53.9368 38.4437 53.996 38.4715 53.996C38.4993 53.996 38.5591 53.9368 38.6044 53.8643C38.6496 53.7919 38.6639 53.7326 38.6361 53.7326C38.6083 53.7326 38.5485 53.7919 38.5033 53.8643Z" fill="#183474"/>
<path fill-rule="evenodd" clip-rule="evenodd" d="M3.71475 0.754115C3.66618 0.812726 3.6917 0.824745 3.81468 0.801366C3.9054 0.783914 3.97981 0.748517 3.97981 0.722504C3.97981 0.645618 3.78554 0.668833 3.71475 0.754115ZM2.16254 1.45383L2.03708 1.59574L2.21819 1.47918C2.40489 1.35899 2.44028 1.31191 2.34364 1.31191C2.31302 1.31191 2.23152 1.37579 2.16254 1.45383ZM38.5033 2.36559C38.5485 2.43803 38.6083 2.4973 38.6361 2.4973C38.6639 2.4973 38.6496 2.43803 38.6044 2.36559C38.5591 2.29315 38.4993 2.23388 38.4715 2.23388C38.4437 2.23388 38.458 2.29315 38.5033 2.36559ZM12.3322 2.94182C16.5096 2.95121 23.3256 2.95121 27.4789 2.94182C31.6323 2.93244 28.2145 2.92487 19.8839 2.92487C11.5532 2.92487 8.15487 2.93244 12.3322 2.94182ZM0.126953 28.115C0.126953 40.8102 0.134527 46.0037 0.143746 39.6561C0.152966 33.3085 0.152966 22.9215 0.143746 16.5738C0.134527 10.2262 0.126953 15.4197 0.126953 28.115ZM5.3957 8.19772C5.28704 8.2509 5.2574 8.27181 5.32984 8.24415C5.40229 8.21649 6.79512 8.1783 8.42504 8.1592L11.3885 8.12462L8.4909 8.11277C6.05771 8.10289 5.56166 8.11639 5.3957 8.19772ZM4.8659 8.44731C4.71591 8.61228 4.69533 8.71172 4.83972 8.57425C4.92418 8.49374 4.98015 8.41521 4.96402 8.39973C4.94788 8.38442 4.90376 8.40583 4.8659 8.44731ZM14.2532 11.5799C14.2532 11.6492 14.2228 11.7211 14.1857 11.7396C14.1485 11.758 14.1531 11.7662 14.1959 11.758C14.2927 11.7394 14.4065 11.4536 14.3169 11.4536C14.2819 11.4536 14.2532 11.5104 14.2532 11.5799ZM7.6221 13.676C8.08605 13.6874 8.82692 13.6874 9.26848 13.676C9.71004 13.6647 9.33055 13.6553 8.42504 13.6553C7.51953 13.6555 7.15815 13.6647 7.6221 13.676ZM7.6221 21.1835C8.08605 21.1949 8.82692 21.1949 9.26848 21.1835C9.71004 21.1722 9.33055 21.1628 8.42504 21.1628C7.51953 21.163 7.15815 21.1722 7.6221 21.1835ZM34.7342 21.8511C34.7342 21.8832 34.8157 21.9616 34.9153 22.0253L35.0964 22.1411L34.9367 21.967C34.7642 21.7787 34.7342 21.7616 34.7342 21.8511ZM12.1459 26.1064C12.0607 26.1969 12.0186 26.27 12.052 26.2689C12.1083 26.2671 12.3798 25.9417 12.325 25.9417C12.3115 25.9417 12.231 26.0158 12.1459 26.1064ZM7.09147 26.7155C7.84305 26.7261 9.07289 26.7261 9.82446 26.7155C10.576 26.7048 9.96111 26.6963 8.45797 26.6963C6.95482 26.6963 6.3399 26.7048 7.09147 26.7155ZM5.4716 29.5473C5.44394 29.5921 9.04161 29.5899 10.5653 29.5442C10.9094 29.534 9.91106 29.5193 8.34667 29.5117C6.78228 29.5042 5.48856 29.5201 5.4716 29.5473ZM34.8567 34.2339C34.7712 34.3032 34.7184 34.3771 34.7395 34.3982C34.7604 34.4193 34.8471 34.3626 34.9319 34.2721C35.1153 34.077 35.0753 34.0567 34.8567 34.2339ZM7.6221 35.079C8.08605 35.0903 8.82692 35.0903 9.26848 35.079C9.71004 35.0676 9.33055 35.0582 8.42504 35.0582C7.51953 35.0584 7.15815 35.0676 7.6221 35.079ZM33.0318 37.1812C32.9123 37.3105 32.9602 37.3452 33.1084 37.2369C33.1738 37.189 33.2034 37.1351 33.1741 37.1174C33.1448 37.0996 33.0807 37.1284 33.0318 37.1812ZM38.1093 37.3172C38.2813 37.3307 38.5629 37.3307 38.7349 37.3172C38.907 37.3037 38.7662 37.2925 38.4221 37.2925C38.078 37.2925 37.9372 37.3037 38.1093 37.3172ZM45.271 39.3401C45.271 39.4195 45.4299 39.7055 45.4742 39.7055C45.5017 39.7055 45.48 39.6166 45.4258 39.5079C45.3374 39.3306 45.271 39.2586 45.271 39.3401ZM41.0892 39.5737C41.066 39.6113 41.1228 39.6396 41.2209 39.6396C41.3191 39.6396 41.3759 39.6113 41.3527 39.5737C41.3303 39.5375 41.271 39.5079 41.2209 39.5079C41.1709 39.5079 41.1116 39.5375 41.0892 39.5737ZM42.8025 39.658C42.866 39.7588 42.9347 39.8247 42.9549 39.8044C42.9752 39.7842 42.9231 39.7018 42.8393 39.6213L42.6869 39.475L42.8025 39.658ZM40.0983 40.1829L39.838 40.4628L40.1179 40.2025C40.3782 39.9603 40.428 39.903 40.3782 39.903C40.3675 39.903 40.2415 40.029 40.0983 40.1829ZM42.3076 40.6893C42.3076 40.7596 42.3372 40.8355 42.3734 40.8579C42.4108 40.881 42.4393 40.8257 42.4393 40.7302C42.4393 40.6375 42.4096 40.5616 42.3734 40.5616C42.3372 40.5616 42.3076 40.619 42.3076 40.6893ZM46.0165 42.5372C46.0165 42.7727 46.0285 42.869 46.043 42.7513C46.0577 42.6335 46.0577 42.4409 46.043 42.3232C46.0285 42.2055 46.0165 42.3018 46.0165 42.5372ZM37.8582 42.422L37.6648 42.636L37.8788 42.4426C37.9965 42.3362 38.0928 42.2399 38.0928 42.2285C38.0928 42.1777 38.0385 42.2224 37.8582 42.422ZM30.8654 42.5043C30.866 42.6492 30.8795 42.7007 30.8953 42.6187C30.9111 42.5369 30.9105 42.4184 30.894 42.3553C30.8776 42.2924 30.8645 42.3594 30.8654 42.5043ZM7.6221 42.5865C8.08605 42.5978 8.82692 42.5978 9.26848 42.5865C9.71004 42.5751 9.33055 42.5657 8.42504 42.5657C7.51953 42.5659 7.15815 42.5751 7.6221 42.5865ZM36.5456 44.8425C36.6114 44.9153 36.6787 44.961 36.6954 44.9444C36.7309 44.9088 36.5432 44.7104 36.4739 44.7104C36.4476 44.7104 36.4799 44.7699 36.5456 44.8425ZM40.7379 47.1789C40.4424 47.3417 40.4333 47.4237 40.727 47.278C40.89 47.1971 41.0357 47.1198 41.0509 47.1061C41.1169 47.0463 40.8773 47.102 40.7379 47.1789ZM36.1461 47.2492C36.2877 47.3549 36.4082 47.3769 36.3526 47.2867C36.3328 47.2549 36.2497 47.212 36.1675 47.1912C36.0237 47.155 36.0228 47.157 36.1461 47.2492ZM4.71624 47.5752C4.7574 47.6657 4.81683 47.7398 4.84795 47.7398C4.87923 47.7398 4.85635 47.6657 4.79691 47.5752C4.73764 47.4846 4.67837 47.4105 4.6652 47.4105C4.65203 47.4105 4.67491 47.4846 4.71624 47.5752ZM32.9561 47.7256C32.9561 47.7584 33.0197 47.8417 33.0974 47.9107C33.2376 48.0353 33.2381 48.0352 33.1629 47.8916C33.0789 47.7316 32.9561 47.6329 32.9561 47.7256ZM5.3957 48.0338C5.61088 48.1374 11.3556 48.1873 11.3556 48.0855C11.3556 48.0584 10.0443 48.0361 8.4415 48.0361C6.83875 48.0361 5.45332 48.0142 5.36277 47.9874C5.23831 47.9505 5.24621 47.9619 5.3957 48.0338ZM36.0842 49.7154C36.1066 49.7517 36.1693 49.7813 36.2237 49.7813C36.278 49.7813 36.3042 49.7517 36.2818 49.7154C36.2594 49.6792 36.1967 49.6496 36.1424 49.6496C36.088 49.6496 36.0618 49.6792 36.0842 49.7154ZM12.3322 53.321C16.5096 53.3304 23.3256 53.3304 27.4789 53.321C31.6323 53.3116 28.2145 53.3041 19.8839 53.3041C11.5532 53.3041 8.15487 53.3116 12.3322 53.321ZM38.5033 53.8643C38.458 53.9368 38.4437 53.996 38.4715 53.996C38.4993 53.996 38.5591 53.9368 38.6044 53.8643C38.6496 53.7919 38.6639 53.7326 38.6361 53.7326C38.6083 53.7326 38.5485 53.7919 38.5033 53.8643Z" fill="#183474"/>
<path fill-rule="evenodd" clip-rule="evenodd" d="M3.71475 0.754115C3.66618 0.812726 3.6917 0.824745 3.81468 0.801366C3.9054 0.783914 3.97981 0.748517 3.97981 0.722504C3.97981 0.645618 3.78554 0.668833 3.71475 0.754115ZM2.16254 1.45383L2.03708 1.59574L2.21819 1.47918C2.40489 1.35899 2.44028 1.31191 2.34364 1.31191C2.31302 1.31191 2.23152 1.37579 2.16254 1.45383ZM38.5033 2.36559C38.5485 2.43803 38.6083 2.4973 38.6361 2.4973C38.6639 2.4973 38.6496 2.43803 38.6044 2.36559C38.5591 2.29315 38.4993 2.23388 38.4715 2.23388C38.4437 2.23388 38.458 2.29315 38.5033 2.36559ZM12.3322 2.94182C16.5096 2.95121 23.3256 2.95121 27.4789 2.94182C31.6323 2.93244 28.2145 2.92487 19.8839 2.92487C11.5532 2.92487 8.15487 2.93244 12.3322 2.94182ZM0.126953 28.115C0.126953 40.8102 0.134527 46.0037 0.143746 39.6561C0.152966 33.3085 0.152966 22.9215 0.143746 16.5738C0.134527 10.2262 0.126953 15.4197 0.126953 28.115ZM5.3957 8.19772C5.28704 8.2509 5.2574 8.27181 5.32984 8.24415C5.40229 8.21649 6.79512 8.1783 8.42504 8.1592L11.3885 8.12462L8.4909 8.11277C6.05771 8.10289 5.56166 8.11639 5.3957 8.19772ZM4.8659 8.44731C4.71591 8.61228 4.69533 8.71172 4.83972 8.57425C4.92418 8.49374 4.98015 8.41521 4.96402 8.39973C4.94788 8.38442 4.90376 8.40583 4.8659 8.44731ZM14.2532 11.5799C14.2532 11.6492 14.2228 11.7211 14.1857 11.7396C14.1485 11.758 14.1531 11.7662 14.1959 11.758C14.2927 11.7394 14.4065 11.4536 14.3169 11.4536C14.2819 11.4536 14.2532 11.5104 14.2532 11.5799ZM7.6221 13.676C8.08605 13.6874 8.82692 13.6874 9.26848 13.676C9.71004 13.6647 9.33055 13.6553 8.42504 13.6553C7.51953 13.6555 7.15815 13.6647 7.6221 13.676ZM7.6221 21.1835C8.08605 21.1949 8.82692 21.1949 9.26848 21.1835C9.71004 21.1722 9.33055 21.1628 8.42504 21.1628C7.51953 21.163 7.15815 21.1722 7.6221 21.1835ZM34.7342 21.8511C34.7342 21.8832 34.8157 21.9616 34.9153 22.0253L35.0964 22.1411L34.9367 21.967C34.7642 21.7787 34.7342 21.7616 34.7342 21.8511ZM12.1459 26.1064C12.0607 26.1969 12.0186 26.27 12.052 26.2689C12.1083 26.2671 12.3798 25.9417 12.325 25.9417C12.3115 25.9417 12.231 26.0158 12.1459 26.1064ZM7.09147 26.7155C7.84305 26.7261 9.07289 26.7261 9.82446 26.7155C10.576 26.7048 9.96111 26.6963 8.45797 26.6963C6.95482 26.6963 6.3399 26.7048 7.09147 26.7155ZM5.4716 29.5473C5.44394 29.5921 9.04161 29.5899 10.5653 29.5442C10.9094 29.534 9.91106 29.5193 8.34667 29.5117C6.78228 29.5042 5.48856 29.5201 5.4716 29.5473ZM34.8567 34.2339C34.7712 34.3032 34.7184 34.3771 34.7395 34.3982C34.7604 34.4193 34.8471 34.3626 34.9319 34.2721C35.1153 34.077 35.0753 34.0567 34.8567 34.2339ZM7.6221 35.079C8.08605 35.0903 8.82692 35.0903 9.26848 35.079C9.71004 35.0676 9.33055 35.0582 8.42504 35.0582C7.51953 35.0584 7.15815 35.0676 7.6221 35.079ZM33.0318 37.1812C32.9123 37.3105 32.9602 37.3452 33.1084 37.2369C33.1738 37.189 33.2034 37.1351 33.1741 37.1174C33.1448 37.0996 33.0807 37.1284 33.0318 37.1812ZM38.1093 37.3172C38.2813 37.3307 38.5629 37.3307 38.7349 37.3172C38.907 37.3037 38.7662 37.2925 38.4221 37.2925C38.078 37.2925 37.9372 37.3037 38.1093 37.3172ZM45.271 39.3401C45.271 39.4195 45.4299 39.7055 45.4742 39.7055C45.5017 39.7055 45.48 39.6166 45.4258 39.5079C45.3374 39.3306 45.271 39.2586 45.271 39.3401ZM41.0892 39.5737C41.066 39.6113 41.1228 39.6396 41.2209 39.6396C41.3191 39.6396 41.3759 39.6113 41.3527 39.5737C41.3303 39.5375 41.271 39.5079 41.2209 39.5079C41.1709 39.5079 41.1116 39.5375 41.0892 39.5737ZM42.8025 39.658C42.866 39.7588 42.9347 39.8247 42.9549 39.8044C42.9752 39.7842 42.9231 39.7018 42.8393 39.6213L42.6869 39.475L42.8025 39.658ZM40.0983 40.1829L39.838 40.4628L40.1179 40.2025C40.3782 39.9603 40.428 39.903 40.3782 39.903C40.3675 39.903 40.2415 40.029 40.0983 40.1829ZM42.3076 40.6893C42.3076 40.7596 42.3372 40.8355 42.3734 40.8579C42.4108 40.881 42.4393 40.8257 42.4393 40.7302C42.4393 40.6375 42.4096 40.5616 42.3734 40.5616C42.3372 40.5616 42.3076 40.619 42.3076 40.6893ZM46.0165 42.5372C46.0165 42.7727 46.0285 42.869 46.043 42.7513C46.0577 42.6335 46.0577 42.4409 46.043 42.3232C46.0285 42.2055 46.0165 42.3018 46.0165 42.5372ZM37.8582 42.422L37.6648 42.636L37.8788 42.4426C37.9965 42.3362 38.0928 42.2399 38.0928 42.2285C38.0928 42.1777 38.0385 42.2224 37.8582 42.422ZM30.8654 42.5043C30.866 42.6492 30.8795 42.7007 30.8953 42.6187C30.9111 42.5369 30.9105 42.4184 30.894 42.3553C30.8776 42.2924 30.8645 42.3594 30.8654 42.5043ZM7.6221 42.5865C8.08605 42.5978 8.82692 42.5978 9.26848 42.5865C9.71004 42.5751 9.33055 42.5657 8.42504 42.5657C7.51953 42.5659 7.15815 42.5751 7.6221 42.5865ZM36.5456 44.8425C36.6114 44.9153 36.6787 44.961 36.6954 44.9444C36.7309 44.9088 36.5432 44.7104 36.4739 44.7104C36.4476 44.7104 36.4799 44.7699 36.5456 44.8425ZM40.7379 47.1789C40.4424 47.3417 40.4333 47.4237 40.727 47.278C40.89 47.1971 41.0357 47.1198 41.0509 47.1061C41.1169 47.0463 40.8773 47.102 40.7379 47.1789ZM36.1461 47.2492C36.2877 47.3549 36.4082 47.3769 36.3526 47.2867C36.3328 47.2549 36.2497 47.212 36.1675 47.1912C36.0237 47.155 36.0228 47.157 36.1461 47.2492ZM4.71624 47.5752C4.7574 47.6657 4.81683 47.7398 4.84795 47.7398C4.87923 47.7398 4.85635 47.6657 4.79691 47.5752C4.73764 47.4846 4.67837 47.4105 4.6652 47.4105C4.65203 47.4105 4.67491 47.4846 4.71624 47.5752ZM32.9561 47.7256C32.9561 47.7584 33.0197 47.8417 33.0974 47.9107C33.2376 48.0353 33.2381 48.0352 33.1629 47.8916C33.0789 47.7316 32.9561 47.6329 32.9561 47.7256ZM5.3957 48.0338C5.61088 48.1374 11.3556 48.1873 11.3556 48.0855C11.3556 48.0584 10.0443 48.0361 8.4415 48.0361C6.83875 48.0361 5.45332 48.0142 5.36277 47.9874C5.23831 47.9505 5.24621 47.9619 5.3957 48.0338ZM36.0842 49.7154C36.1066 49.7517 36.1693 49.7813 36.2237 49.7813C36.278 49.7813 36.3042 49.7517 36.2818 49.7154C36.2594 49.6792 36.1967 49.6496 36.1424 49.6496C36.088 49.6496 36.0618 49.6792 36.0842 49.7154ZM12.3322 53.321C16.5096 53.3304 23.3256 53.3304 27.4789 53.321C31.6323 53.3116 28.2145 53.3041 19.8839 53.3041C11.5532 53.3041 8.15487 53.3116 12.3322 53.321ZM38.5033 53.8643C38.458 53.9368 38.4437 53.996 38.4715 53.996C38.4993 53.996 38.5591 53.9368 38.6044 53.8643C38.6496 53.7919 38.6639 53.7326 38.6361 53.7326C38.6083 53.7326 38.5485 53.7919 38.5033 53.8643Z" fill="#183474"/>
</svg>
