<svg width="114" height="104" viewBox="0 0 114 104" fill="none" xmlns="http://www.w3.org/2000/svg">
<g id="Group 1261152879">
<path id="Vector 16" d="M99.9391 78.5265C92.7407 84.3123 51.8119 103.581 40.8095 103.581C-31.1744 99.9651 9.18797 8.01157 32.8398 1.03757C56.4917 -5.93643 52.1493 24.3876 68.6028 28.262C81.7656 31.3616 94.626 34.1856 98.6537 35.9076C127.131 49.3706 108.937 71.2942 99.9391 78.5265Z" fill="#CA256D"/>
<path id="Vector" d="M37.1022 46.0616L34.3309 48.1756L37.0924 50.2813M44.0835 50.294L46.8534 48.1658L44.1018 46.0517M42.5291 44.896L38.7413 51.2312M43.3056 74.2086C49.6953 78.7684 56.1052 78.7684 62.5354 74.2086M61.8012 73.1346C62.2756 73.8746 62.7641 74.5933 63.5278 74.9231M44.1484 73.0021C43.6755 73.9788 43.0529 74.4806 42.3667 74.7794M28.2349 57.9667H38.1046M28.2349 61.8848H37.7291M28.2349 65.5676H37.9027M28.1883 69.2856H33.5672M25.6245 53.0085H55.5344M55.5344 42.7734V59.0477C55.281 58.8155 55.0152 58.5972 54.7381 58.3938C54.6407 58.3205 54.5405 58.2528 54.4402 58.1809C52.755 57.021 50.7568 56.3988 48.7098 56.3966C48.6011 56.3966 48.4939 56.3966 48.3851 56.3966C48.2764 56.3966 48.1677 56.4051 48.059 56.4122C47.9503 56.4192 47.8402 56.4277 47.7315 56.4389C47.6228 56.4502 47.5141 56.4615 47.404 56.4756C46.9611 56.5339 46.5225 56.621 46.091 56.7363C43.7002 57.374 41.6261 58.864 40.261 60.9247C38.8958 62.9853 38.3341 65.4738 38.682 67.9199C38.6872 67.9534 38.6895 67.9874 38.6891 68.0213C38.6892 68.1545 38.6502 68.2847 38.5769 68.3959C38.5036 68.5071 38.3993 68.5945 38.2768 68.6471C36.6589 69.37 35.3706 70.671 34.6651 72.2944C33.9597 73.9178 33.8883 75.7459 34.465 77.4192H25.6273V42.7734H55.5344ZM65.733 82.1731H41.1681C39.5455 82.1738 37.9717 81.6183 36.7101 80.5996C35.4484 79.5808 34.5753 78.1606 34.2368 76.5763C33.8982 74.992 34.1147 73.3397 34.8501 71.8956C35.5855 70.4516 36.7951 69.3033 38.2768 68.6429C38.3993 68.5902 38.5036 68.5029 38.5769 68.3917C38.6502 68.2805 38.6892 68.1502 38.6891 68.0171C38.6895 67.9831 38.6872 67.9492 38.682 67.9156C38.3374 65.4716 38.9007 62.9862 40.2656 60.9283C41.6305 58.8704 43.7026 57.3823 46.091 56.7448C46.5225 56.6295 46.9611 56.5424 47.404 56.484C47.5141 56.4699 47.6228 56.4573 47.7315 56.4474C47.8402 56.4375 47.9503 56.4277 48.059 56.4206C48.1677 56.4136 48.2764 56.4079 48.3851 56.4051C48.4938 56.4023 48.6011 56.4051 48.7099 56.4051C50.7568 56.4072 52.755 57.0294 54.4402 58.1894C54.5405 58.2585 54.6407 58.3303 54.7381 58.4022C55.0152 58.6057 55.281 58.824 55.5344 59.0562C56.9626 60.3556 57.9856 62.0384 58.4807 63.9031C58.5227 64.0647 58.6223 64.2054 58.7609 64.2988C58.8994 64.3922 59.0674 64.432 59.2332 64.4105C60.2931 64.303 61.358 64.5601 62.2516 65.1391C63.1449 65.7099 63.8148 66.5697 64.149 67.5746C64.1994 67.7216 64.297 67.8479 64.4267 67.9338C64.5564 68.0197 64.7109 68.0604 64.8662 68.0495C65.0074 68.0368 65.1486 68.027 65.2897 68.0227C66.2223 67.9912 67.1519 68.1435 68.0254 68.4712C68.8989 68.7988 69.6991 69.2952 70.3801 69.932C71.0611 70.5688 71.6096 71.3335 71.9941 72.1822C72.3786 73.031 72.5917 73.9471 72.621 74.8782C72.6503 75.8093 72.4954 76.737 72.1651 77.6082C71.8347 78.4793 71.3355 79.2769 70.6959 79.9552C70.0563 80.6335 69.289 81.1791 68.4379 81.5609C67.5868 81.9427 66.6686 82.1531 65.7359 82.1801L65.733 82.1731Z" stroke="white" stroke-width="2" stroke-linecap="round" stroke-linejoin="round"/>
</g>
</svg>
