<svg width="114" height="104" viewBox="0 0 114 104" fill="none" xmlns="http://www.w3.org/2000/svg">
<g id="Group 1261152879">
<path id="Vector 16" d="M99.9391 78.5265C92.7407 84.3123 51.8119 103.581 40.8095 103.581C-31.1744 99.9651 9.18797 8.01157 32.8398 1.03757C56.4917 -5.93643 52.1493 24.3876 68.6028 28.262C81.7656 31.3616 94.626 34.1856 98.6537 35.9076C127.131 49.3706 108.937 71.2942 99.9391 78.5265Z" fill="#CA256D"/>
<path id="Vector" d="M27.5595 80.4356V79.9356H27.0595V80.4356H27.5595ZM39.9693 80.4356H40.4693V79.9356H39.9693V80.4356ZM39.9693 86.2109V86.7109H40.4693V86.2109H39.9693ZM27.5595 86.2109H27.0595V86.7109H27.5595V86.2109ZM71.1477 42.8927L71.1457 43.3927H71.1477V42.8927ZM65.4754 42.8703H64.9754V43.3683L65.4734 43.3703L65.4754 42.8703ZM65.4754 41.4136H64.9754H65.4754ZM64.3701 40.3083V39.8083V40.3083ZM63.568 40.3083L63.568 40.8083H63.568V40.3083ZM62.4612 41.4136L61.9612 41.4129V41.4136H62.4612ZM62.4612 42.8895V43.3895H62.9612V42.8895H62.4612ZM42.0884 42.8895H41.5884V43.3895H42.0884V42.8895ZM33.2479 67.8004H32.7479V67.8093L32.7482 67.8181L33.2479 67.8004ZM33.2832 67.9753L33.7828 67.9559L33.7796 67.8742L33.7506 67.7978L33.2832 67.9753ZM37.685 72.2186L37.6839 72.7186H37.685V72.2186ZM64.877 72.2186V72.7186L64.8795 72.7186L64.877 72.2186ZM66.855 71.256L66.5014 70.9025L66.481 70.9229L66.463 70.9456L66.855 71.256ZM66.8854 71.2352L66.5263 70.8873L66.5133 70.9007L66.5013 70.9151L66.8854 71.2352ZM71.1028 66.8812L71.4619 67.2291L71.4852 67.2051L71.505 67.1782L71.1028 66.8812ZM71.1397 66.8235L70.7853 66.4707L70.7352 66.521L70.7011 66.5833L71.1397 66.8235ZM71.6803 65.54L72.1803 65.5471V65.54H71.6803ZM71.6803 43.4189H71.1803H71.6803ZM71.1541 42.8927V42.3927V42.8927ZM63.5905 41.2804L63.6198 40.7813L63.0979 40.7506L63.0905 41.2734L63.5905 41.2804ZM64.492 41.3334H64.992V40.8619L64.5213 40.8342L64.492 41.3334ZM64.492 44.4553V44.9553H64.992V44.4553H64.492ZM63.5456 44.4553L63.0456 44.4482L63.0385 44.9553H63.5456V44.4553ZM65.4593 45.5574V46.0574H65.4931L65.5265 46.0529L65.4593 45.5574ZM62.4788 45.6665H61.9788H62.4788ZM62.4788 48.8894L62.9788 48.8895V48.8894H62.4788ZM62.5863 48.9953V48.4953L62.5787 48.4954L62.5863 48.9953ZM65.4738 48.9953L65.4738 48.4953H65.4738V48.9953ZM65.5813 48.8862H65.0812L65.0813 48.8937L65.5813 48.8862ZM65.5813 45.6649L65.0813 45.6603V45.6649H65.5813ZM64.107 48.0745V48.5745H64.1436L64.1799 48.5691L64.107 48.0745ZM64.0942 48.0745V47.5745H64.0656L64.0373 47.5777L64.0942 48.0745ZM63.2344 47.3911L62.7375 47.4465L62.7376 47.4477L63.2344 47.3911ZM63.9129 46.5087V46.0087H63.8758L63.839 46.0142L63.9129 46.5087ZM63.9258 46.5087V47.0087H63.9549L63.9839 47.0053L63.9258 46.5087ZM64.7872 47.1905L65.284 47.1342L65.2839 47.133L64.7872 47.1905ZM65.5973 50.083L66.0781 49.9457L65.9432 49.4733L65.4685 49.5999L65.5973 50.083ZM68.042 58.6465L67.5612 58.7838L67.562 58.7866L68.042 58.6465ZM68.3629 61.0818L68.8627 61.0942L68.8628 61.0927L68.3629 61.0818ZM68.2987 62.1278L67.8171 62.2622L68.7963 62.1763L68.2987 62.1278ZM64.946 50.1151V49.6151H64.2874L64.4644 50.2495L64.946 50.1151ZM65.4385 50.1151V50.6151H65.4731L65.5074 50.6103L65.4385 50.1151ZM63.1606 50.1151L63.6422 50.2496L63.8194 49.6151H63.1606V50.1151ZM59.8047 62.131L59.3068 62.1767L60.2863 62.2655L59.8047 62.131ZM59.7437 61.0818L59.2438 61.0927L59.2439 61.094L59.7437 61.0818ZM60.0646 58.6433L60.5446 58.7832L60.5456 58.7798L60.0646 58.6433ZM62.4884 50.099V49.599H62.1106L62.0074 49.9626L62.4884 50.099ZM34.2713 41.9237H33.7713V41.9238L34.2713 41.9237ZM40.9783 43.3981H40.4783V43.8981H40.9783V43.3981ZM41.0649 43.3981H41.5649V42.8981H41.0649V43.3981ZM41.0649 64.9657L40.6871 65.2932L41.5649 66.3059V64.9657H41.0649ZM37.7235 63.3903L37.5696 63.8661L37.6387 63.8884L37.7112 63.8902L37.7235 63.3903ZM37.6577 63.3566L37.9539 62.9538L37.8217 62.8566H37.6577V63.3566ZM37.6256 63.3566L37.6066 63.8563L37.6161 63.8566H37.6256V63.3566ZM34.2729 64.9737L33.7729 64.9738L33.773 66.4979L34.6758 65.2699L34.2729 64.9737ZM40.5051 68.6796L40.7633 69.1078L40.7762 69.1L40.7885 69.0915L40.5051 68.6796ZM39.5634 68.9459V69.4459L39.5677 69.4459L39.5634 68.9459ZM39.5554 68.9459L39.5455 69.4459H39.5554V68.9459ZM38.1406 67.4796L38.6406 67.4875V67.4796H38.1406ZM38.1406 64.4395L38.2198 63.9458L37.6406 63.8529V64.4395H38.1406ZM40.9671 67.2181L41.4602 67.1354L41.4593 67.1304L40.9671 67.2181ZM70.6392 65.5914H70.1392L70.1392 65.5944L70.6392 65.5914ZM70.19 66.3165L70.4084 66.7663L70.41 66.7655L70.19 66.3165ZM67.0362 66.5828L66.9428 67.0741L66.9527 67.0758L67.0362 66.5828ZM66.4315 66.9983L66.9215 67.0985L66.9235 67.0873L66.4315 66.9983ZM66.4218 67.1058H66.922L66.9217 67.0943L66.4218 67.1058ZM66.4218 69.6855H65.9218H66.4218ZM64.9268 71.1822V71.6822H64.9273L64.9268 71.1822ZM34.2441 67.8855L33.7442 67.8958L33.7442 67.8965L34.2441 67.8855ZM37.1091 64.4732H37.6091V63.8901L37.0328 63.9791L37.1091 64.4732ZM37.1091 67.5133L37.6091 67.5153V67.5133H37.1091ZM39.5811 70.0288L39.5998 69.529L39.5878 69.5288L39.5811 70.0288ZM41.1435 69.5764L40.8613 69.1636L40.8607 69.164L41.1435 69.5764ZM42.0756 67.5999L41.5963 67.4575L41.5748 67.5296L41.5756 67.6048L42.0756 67.5999ZM42.0948 67.5005L42.5926 67.5472L42.5948 67.5238L42.5948 67.5003L42.0948 67.5005ZM42.0868 43.9259V43.4259H41.5866L41.5868 43.926L42.0868 43.9259ZM62.4724 43.9259H62.9724V43.4259H62.4724V43.9259ZM62.4724 44.5579L62.517 45.0559L62.9724 45.0152V44.5579H62.4724ZM61.4409 45.697H61.941L61.9409 45.6921L61.4409 45.697ZM61.4409 48.875H60.9408L60.9411 48.886L61.4409 48.875ZM61.6013 49.4317L62.0823 49.5683L62.1414 49.3604L62.0304 49.175L61.6013 49.4317ZM59.0748 58.3273L59.5554 58.4653L59.5558 58.4639L59.0748 58.3273ZM58.7171 61.0946L58.2172 61.1059V61.106L58.7171 61.0946ZM58.9737 63.5845L58.4821 63.6753L58.4821 63.6753L58.9737 63.5845ZM59.2047 64.8342H59.7047V64.7884L59.6964 64.7433L59.2047 64.8342ZM59.2047 65.3058L59.7047 65.3145V65.3058H59.2047ZM59.6571 65.8416L59.5819 66.336L59.5905 66.3373L59.5991 66.3383L59.6571 65.8416ZM60.233 65.3909L60.729 65.4538L60.733 65.4225V65.3909H60.233ZM60.233 64.7925L59.7469 64.6754L59.733 64.7331V64.7925H60.233ZM60.7816 62.5144L60.3 62.3799L60.2976 62.3886L60.2955 62.3973L60.7816 62.5144ZM64.0605 50.7728L64.5421 50.6385L64.0608 48.913L63.5789 50.6384L64.0605 50.7728ZM67.3362 62.5144L67.8223 62.3973L67.8202 62.3887L67.8178 62.3801L67.3362 62.5144ZM67.8848 64.7925H68.3848V64.7331L68.3709 64.6754L67.8848 64.7925ZM67.8848 65.3122L68.3848 65.3194V65.3122H67.8848ZM68.3372 65.8465L68.2619 66.3408L68.269 66.3418L68.2761 66.3427L68.3372 65.8465ZM68.9131 65.3957L69.4095 65.4556L69.4108 65.4448L69.4116 65.4339L68.9131 65.3957ZM68.9131 65.3331H68.4131V65.3522L68.4146 65.3713L68.9131 65.3331ZM68.9131 64.7459L68.4215 64.6546L68.4131 64.6999V64.7459H68.9131ZM69.1425 63.5107L69.6341 63.6019L69.6343 63.601L69.1425 63.5107ZM69.3976 61.0529L69.8974 61.0655L69.8974 61.0633L69.3976 61.0529ZM69.0414 58.3161L68.5606 58.4533L68.5608 58.454L69.0414 58.3161ZM66.5037 49.4221L66.0458 49.2211L65.9734 49.3861L66.0228 49.5592L66.5037 49.4221ZM66.5983 48.9696H66.0983V48.9702L66.5983 48.9696ZM66.5983 45.6954L66.0983 45.6905V45.6954H66.5983ZM65.5668 44.5563H65.0668V45.0136L65.5222 45.0543L65.5668 44.5563ZM65.5668 43.9243L65.5689 43.4243L65.0668 43.4222V43.9243H65.5668ZM70.6392 43.9451H71.1392V43.4472L70.6412 43.4451L70.6392 43.9451ZM26.1206 78.9597V78.4597H25.6206V78.9597H26.1206ZM40.3735 78.9597H40.8735V78.4597H40.3735V78.9597ZM40.3735 83.7516V84.2516H40.8735V83.7516H40.3735ZM26.1206 83.7516H25.6206V84.2516H26.1206V83.7516ZM56.282 50.3894H56.782C56.782 50.2039 56.6793 50.0336 56.5151 49.9471L56.282 50.3894ZM56.282 60.6904V61.1904C56.5581 61.1904 56.782 60.9665 56.782 60.6904H56.282ZM44.8267 60.6904H44.3267C44.3267 60.9665 44.5505 61.1904 44.8267 61.1904V60.6904ZM44.8267 50.2258L44.6056 49.7773C44.4348 49.8615 44.3267 50.0354 44.3267 50.2258H44.8267ZM50.5856 47.3862L50.8188 46.944C50.6771 46.8692 50.5082 46.867 50.3645 46.9378L50.5856 47.3862ZM43.2482 50.7343L43.0269 50.2859L43.2482 51.2343V50.7343ZM57.6439 50.8338V51.3338L57.8768 50.3914L57.6439 50.8338ZM53.6859 53.1086C53.6859 52.8325 53.4621 52.6086 53.1859 52.6086C52.9098 52.6086 52.6859 52.8325 52.6859 53.1086H53.6859ZM53.1859 57.6904V58.1904C53.4621 58.1904 53.6859 57.9665 53.6859 57.6904H53.1859ZM47.9901 57.6904H47.4901C47.4901 57.9665 47.7139 58.1904 47.9901 58.1904V57.6904ZM48.4901 53.1086C48.4901 52.8325 48.2662 52.6086 47.9901 52.6086C47.7139 52.6086 47.4901 52.8325 47.4901 53.1086H48.4901ZM44.4529 63.5304C44.1768 63.5304 43.9529 63.7543 43.9529 64.0304C43.9529 64.3066 44.1768 64.5304 44.4529 64.5304V63.5304ZM47.5329 64.0304H48.0329C48.0329 63.7543 47.809 63.5304 47.5329 63.5304V64.0304ZM47.0329 67.0352C47.0329 67.3114 47.2567 67.5352 47.5329 67.5352C47.809 67.5352 48.0329 67.3114 48.0329 67.0352H47.0329ZM53.156 67.0352C53.156 67.3114 53.3798 67.5352 53.656 67.5352C53.9321 67.5352 54.156 67.3114 54.156 67.0352H53.156ZM53.656 64.0304V63.5304C53.3798 63.5304 53.156 63.7543 53.156 64.0304H53.656ZM56.6622 64.5304C56.9383 64.5304 57.1622 64.3066 57.1622 64.0304C57.1622 63.7543 56.9383 63.5304 56.6622 63.5304V64.5304ZM44.0422 68.1234C43.7661 68.1234 43.5422 68.3473 43.5422 68.6234C43.5422 68.8996 43.7661 69.1234 44.0422 69.1234V68.1234ZM57.1883 69.1234C57.4645 69.1234 57.6883 68.8996 57.6883 68.6234C57.6883 68.3473 57.4645 68.1234 57.1883 68.1234V69.1234ZM51.0535 63.4673C51.0535 63.1912 50.8297 62.9673 50.5535 62.9673C50.2774 62.9673 50.0535 63.1912 50.0535 63.4673H51.0535ZM50.0535 68.6234C50.0535 68.8996 50.2774 69.1234 50.5535 69.1234C50.8297 69.1234 51.0535 68.8996 51.0535 68.6234H50.0535ZM34.0371 75.4945L33.8677 75.024C33.669 75.0956 33.5367 75.2843 33.5371 75.4955C33.5376 75.7067 33.6707 75.8949 33.8697 75.9656L34.0371 75.4945ZM38.4887 73.8918V73.3918C38.4309 73.3918 38.3736 73.4018 38.3193 73.4214L38.4887 73.8918ZM38.4887 77.0763L38.3212 77.5474C38.375 77.5665 38.4316 77.5763 38.4887 77.5763V77.0763ZM65.4898 73.8918H65.9898C65.9898 73.6157 65.766 73.3918 65.4898 73.3918V73.8918ZM65.4898 77.0763V77.5763C65.766 77.5763 65.9898 77.3524 65.9898 77.0763H65.4898ZM27.5595 80.9356H39.9693V79.9356H27.5595V80.9356ZM39.4693 80.4356V86.2109H40.4693V80.4356H39.4693ZM39.9693 85.7109H27.5595V86.7109H39.9693V85.7109ZM28.0595 86.2109V80.4356H27.0595V86.2109H28.0595ZM71.1497 42.3927L65.4774 42.3703L65.4734 43.3703L71.1457 43.3927L71.1497 42.3927ZM65.9754 42.8703V41.4136H64.9754V42.8703H65.9754ZM65.9754 41.4136C65.9754 40.9878 65.8063 40.5795 65.5052 40.2785L64.7981 40.9855C64.9116 41.0991 64.9754 41.253 64.9754 41.4136H65.9754ZM65.5052 40.2785C65.2042 39.9774 64.7959 39.8083 64.3701 39.8083V40.8083C64.5306 40.8083 64.6846 40.872 64.7981 40.9855L65.5052 40.2785ZM64.3701 39.8083H63.568V40.8083H64.3701V39.8083ZM63.568 39.8083C63.1423 39.8083 62.7339 39.9772 62.4326 40.2781L63.1392 40.9857C63.253 40.8721 63.4073 40.8083 63.568 40.8083L63.568 39.8083ZM62.4326 40.2781C62.1314 40.579 61.9618 40.9871 61.9612 41.4129L62.9612 41.4143C62.9614 41.2535 63.0255 41.0993 63.1392 40.9857L62.4326 40.2781ZM61.9612 41.4136V42.8895H62.9612V41.4136H61.9612ZM62.4612 42.3895H42.0884V43.3895H62.4612V42.3895ZM42.5884 42.8895V41.9719H41.5884V42.8895H42.5884ZM42.5884 41.9719C42.5884 40.9677 41.9567 40.1394 41.0712 39.5867C40.182 39.0317 38.9806 38.7109 37.6657 38.7109V39.7109C38.8293 39.7109 39.8392 39.9966 40.5417 40.435C41.2479 40.8758 41.5884 41.428 41.5884 41.9719H42.5884ZM37.6657 38.7109C36.3509 38.7109 35.1505 39.0317 34.2624 39.5869C33.3777 40.1398 32.7479 40.9682 32.7479 41.9719H33.7479C33.7479 41.4274 34.0877 40.8753 34.7924 40.4348C35.4936 39.9966 36.5022 39.7109 37.6657 39.7109V38.7109ZM32.7479 41.9719V67.8004H33.7479V41.9719H32.7479ZM32.7482 67.8181C32.7522 67.9326 32.7751 68.0457 32.8157 68.1528L33.7506 67.7978C33.7488 67.793 33.7477 67.7879 33.7476 67.7828L32.7482 67.8181ZM32.7835 67.9948C32.8329 69.2624 33.3704 70.4619 34.2837 71.3423L34.9777 70.6223C34.2502 69.921 33.8221 68.9656 33.7828 67.9559L32.7835 67.9948ZM34.2837 71.3423C35.197 72.2227 36.4154 72.7159 37.6839 72.7186L37.686 71.7186C36.6756 71.7164 35.7052 71.3236 34.9777 70.6223L34.2837 71.3423ZM37.685 72.7186H64.877V71.7186H37.685V72.7186ZM64.8795 72.7186C65.3352 72.7163 65.7846 72.6116 66.1944 72.4122L65.7568 71.513C65.4819 71.6468 65.1803 71.7171 64.8746 71.7186L64.8795 72.7186ZM66.1944 72.4122C66.6042 72.2128 66.9639 71.9237 67.2469 71.5665L66.463 70.9456C66.2731 71.1853 66.0318 71.3792 65.7568 71.513L66.1944 72.4122ZM67.2085 71.6096C67.1761 71.642 67.1453 71.6632 67.1251 71.6756C67.1153 71.6817 67.1075 71.686 67.1036 71.6881C67.1006 71.6897 67.0973 71.6914 67.101 71.6895C67.1027 71.6885 67.11 71.6848 67.1186 71.68C67.1276 71.675 67.1408 71.6673 67.156 71.6572C67.1872 71.6363 67.2292 71.6037 67.2696 71.5552L66.5013 70.9151C66.5193 70.8935 66.5376 70.8754 66.5551 70.8603C66.5724 70.8453 66.5884 70.8337 66.6013 70.8251C66.614 70.8166 66.6246 70.8105 66.631 70.8069C66.637 70.8036 66.6416 70.8012 66.6406 70.8017C66.6404 70.8018 66.6405 70.8018 66.6398 70.8021C66.6394 70.8024 66.6386 70.8028 66.6377 70.8032C66.636 70.8041 66.6332 70.8056 66.6299 70.8074C66.6232 70.811 66.6127 70.8168 66.6002 70.8245C66.5746 70.8403 66.5386 70.8653 66.5014 70.9025L67.2085 71.6096ZM67.2446 71.583L71.4619 67.2291L70.7436 66.5333L66.5263 70.8873L67.2446 71.583ZM71.505 67.1782C71.5319 67.1417 71.5564 67.1035 71.5782 67.0636L70.7011 66.5833C70.701 66.5836 70.7008 66.5839 70.7005 66.5842L71.505 67.1782ZM71.494 67.1762C71.9255 66.7428 72.1716 66.1586 72.1802 65.5471L71.1803 65.533C71.1753 65.885 71.0337 66.2212 70.7853 66.4707L71.494 67.1762ZM72.1803 65.54V43.4189H71.1803V65.54H72.1803ZM72.1803 43.4189C72.1803 43.1468 72.0722 42.8857 71.8797 42.6933L71.1726 43.4004C71.1775 43.4053 71.1803 43.412 71.1803 43.4189H72.1803ZM71.8797 42.6933C71.6873 42.5008 71.4263 42.3927 71.1541 42.3927V43.3927C71.161 43.3927 71.1677 43.3955 71.1726 43.4004L71.8797 42.6933ZM71.1541 42.3927H71.1477V43.3927H71.1541V42.3927ZM63.5612 41.7796L64.4627 41.8325L64.5213 40.8342L63.6198 40.7813L63.5612 41.7796ZM63.992 41.3334V44.4553H64.992V41.3334H63.992ZM64.492 43.9553H63.5456V44.9553H64.492V43.9553ZM64.0455 44.4623L64.0905 41.2875L63.0905 41.2734L63.0456 44.4482L64.0455 44.4623ZM65.4593 45.0574H62.5879V46.0574H65.4593V45.0574ZM62.5879 45.0574C62.4264 45.0574 62.2714 45.1216 62.1572 45.2358L62.8643 45.9429C62.791 46.0162 62.6916 46.0574 62.5879 46.0574V45.0574ZM62.1572 45.2358C62.043 45.35 61.9788 45.505 61.9788 45.6665H62.9788C62.9788 45.7701 62.9377 45.8696 62.8643 45.9429L62.1572 45.2358ZM61.9788 45.6665V48.8894H62.9788V45.6665H61.9788ZM61.9788 48.8894C61.9788 48.9697 61.9948 49.0492 62.0258 49.1234L62.9483 48.7373C62.9685 48.7855 62.9788 48.8373 62.9788 48.8895L61.9788 48.8894ZM62.0258 49.1234C62.0568 49.1975 62.1023 49.2647 62.1595 49.3211L62.8613 48.6087C62.8985 48.6453 62.9281 48.689 62.9483 48.7373L62.0258 49.1234ZM62.1595 49.3211C62.2167 49.3774 62.2846 49.4219 62.3592 49.4518L62.7314 48.5236C62.78 48.5431 62.8241 48.5721 62.8613 48.6087L62.1595 49.3211ZM62.3592 49.4518C62.4337 49.4817 62.5135 49.4965 62.5939 49.4953L62.5787 48.4954C62.631 48.4946 62.6829 48.5042 62.7314 48.5236L62.3592 49.4518ZM62.5863 49.4953H65.4738V48.4953H62.5863V49.4953ZM65.4737 49.4953C65.5543 49.4953 65.634 49.4793 65.7083 49.4482L65.3223 48.5258C65.3703 48.5057 65.4218 48.4953 65.4738 48.4953L65.4737 49.4953ZM65.7083 49.4482C65.7826 49.4171 65.85 49.3716 65.9065 49.3142L65.1942 48.6124C65.2307 48.5753 65.2743 48.5458 65.3223 48.5258L65.7083 49.4482ZM65.9065 49.3142C65.963 49.2568 66.0076 49.1888 66.0376 49.114L65.1095 48.7417C65.1289 48.6934 65.1577 48.6494 65.1942 48.6124L65.9065 49.3142ZM66.0376 49.114C66.0676 49.0392 66.0824 48.9592 66.0812 48.8788L65.0813 48.8937C65.0805 48.8417 65.0901 48.79 65.1095 48.7417L66.0376 49.114ZM66.0813 48.8862V45.6649H65.0813V48.8862H66.0813ZM66.0812 45.6694C66.082 45.5822 66.0641 45.496 66.0286 45.4164L65.1153 45.8238C65.0924 45.7724 65.0808 45.7167 65.0813 45.6603L66.0812 45.6694ZM66.0286 45.4164C65.9931 45.3369 65.9409 45.2659 65.8755 45.2082L65.2142 45.9583C65.1719 45.9211 65.1382 45.8752 65.1153 45.8238L66.0286 45.4164ZM65.8755 45.2082C65.8102 45.1506 65.7332 45.1077 65.6498 45.0825L65.3601 46.0396C65.3062 46.0233 65.2564 45.9955 65.2142 45.9583L65.8755 45.2082ZM65.6498 45.0825C65.5663 45.0572 65.4785 45.0502 65.3922 45.0619L65.5265 46.0529C65.4708 46.0604 65.414 46.0559 65.3601 46.0396L65.6498 45.0825ZM64.107 47.5745H64.0942V48.5745H64.107V47.5745ZM64.0373 47.5777C64.0012 47.5819 63.9647 47.5788 63.9298 47.5689L63.6546 48.5303C63.8158 48.5764 63.9846 48.5903 64.1512 48.5712L64.0373 47.5777ZM63.9298 47.5689C63.8949 47.5589 63.8623 47.5421 63.8338 47.5195L63.2116 48.3023C63.3429 48.4067 63.4934 48.4841 63.6546 48.5303L63.9298 47.5689ZM63.8338 47.5195C63.8054 47.4969 63.7817 47.4689 63.7641 47.4372L62.8896 47.9222C62.9709 48.0688 63.0803 48.198 63.2116 48.3023L63.8338 47.5195ZM63.7641 47.4372C63.7465 47.4054 63.7353 47.3705 63.7312 47.3344L62.7376 47.4477C62.7566 47.6143 62.8083 47.7756 62.8896 47.9222L63.7641 47.4372ZM63.7313 47.3356C63.7226 47.2579 63.7444 47.1798 63.7921 47.1178L62.9994 46.5082C62.794 46.7753 62.7001 47.1117 62.7375 47.4465L63.7313 47.3356ZM63.7921 47.1178C63.8397 47.0559 63.9095 47.0148 63.9869 47.0032L63.839 46.0142C63.5058 46.064 63.2048 46.2411 62.9994 46.5082L63.7921 47.1178ZM63.9129 47.0087H63.9258V46.0087H63.9129V47.0087ZM63.9839 47.0053C64.0199 47.0011 64.0565 47.004 64.0914 47.014L64.3645 46.052C64.2031 46.0062 64.0343 45.9926 63.8677 46.0121L63.9839 47.0053ZM64.0914 47.014C64.1264 47.0239 64.159 47.0406 64.1875 47.0631L64.8081 46.279C64.6766 46.1749 64.5258 46.0978 64.3645 46.052L64.0914 47.014ZM64.1875 47.0631C64.216 47.0857 64.2397 47.1136 64.2574 47.1453L65.131 46.6586C65.0493 46.5121 64.9396 46.3831 64.8081 46.279L64.1875 47.0631ZM64.2574 47.1453C64.2751 47.1771 64.2863 47.212 64.2905 47.2481L65.2839 47.133C65.2646 46.9664 65.2126 46.8052 65.131 46.6586L64.2574 47.1453ZM64.2904 47.2469C64.2992 47.3248 64.2774 47.403 64.2296 47.4652L65.0222 48.075C65.2282 47.8072 65.3221 47.4699 65.284 47.1342L64.2904 47.2469ZM64.2296 47.4652C64.1818 47.5273 64.1118 47.5684 64.0342 47.5798L64.1799 48.5691C64.5141 48.5199 64.8161 48.3427 65.0222 48.075L64.2296 47.4652ZM65.1165 50.2203L67.5612 58.7838L68.5228 58.5093L66.0781 49.9457L65.1165 50.2203ZM67.562 58.7866C67.7784 59.5282 67.8799 60.2985 67.863 61.0709L68.8628 61.0927C68.8819 60.2183 68.767 59.3461 68.522 58.5065L67.562 58.7866ZM67.863 61.0695C67.8548 61.4037 67.8341 61.7403 67.8011 62.0792L68.7963 62.1763C68.8317 61.8137 68.8539 61.453 68.8627 61.0942L67.863 61.0695ZM68.7803 61.9934L65.4276 49.9807L64.4644 50.2495L67.8171 62.2622L68.7803 61.9934ZM64.946 50.6151H65.4385V49.6151H64.946V50.6151ZM65.5074 50.6103C65.5811 50.6001 65.6541 50.5853 65.7261 50.5661L65.4685 49.5999C65.436 49.6085 65.403 49.6152 65.3696 49.6199L65.5074 50.6103ZM62.679 49.9806L59.3231 61.9965L60.2863 62.2655L63.6422 50.2496L62.679 49.9806ZM60.3026 62.0853C60.2715 61.7467 60.2519 61.4081 60.2436 61.0696L59.2439 61.094C59.2527 61.455 59.2737 61.8159 59.3068 62.1767L60.3026 62.0853ZM60.2436 61.0709C60.2267 60.2974 60.3282 59.5259 60.5446 58.7832L59.5845 58.5035C59.3396 59.3441 59.2247 60.2173 59.2438 61.0927L60.2436 61.0709ZM60.5456 58.7798L62.9695 50.2355L62.0074 49.9626L59.5835 58.5069L60.5456 58.7798ZM62.4884 50.599C62.4428 50.599 62.4073 50.5919 62.3878 50.5871C62.378 50.5847 62.3708 50.5825 62.3677 50.5815C62.3651 50.5807 62.3634 50.5801 62.3672 50.5814C62.3694 50.5821 62.3772 50.5847 62.3858 50.5874C62.3949 50.5903 62.4082 50.5942 62.4241 50.5981C62.4558 50.6059 62.5038 50.6151 62.5622 50.6151V49.6151C62.6079 49.6151 62.6434 49.6222 62.6629 49.6271C62.6727 49.6295 62.6799 49.6316 62.683 49.6326C62.6855 49.6334 62.6873 49.634 62.6835 49.6327C62.6813 49.632 62.6735 49.6294 62.6649 49.6267C62.6558 49.6239 62.6425 49.6199 62.6266 49.616C62.5948 49.6082 62.5469 49.599 62.4884 49.599V50.599ZM62.5622 50.6151H63.1606V49.6151H62.5622V50.6151ZM34.7713 41.9237C34.7713 41.7962 34.9082 41.4963 35.4502 41.1951C35.9571 40.9134 36.7098 40.7024 37.6256 40.7024V39.7024C36.5651 39.7024 35.6406 39.9453 34.9645 40.321C34.3235 40.6772 33.7713 41.2379 33.7713 41.9237H34.7713ZM37.6256 40.7024C38.5417 40.7024 39.294 40.9128 39.8003 41.194C40.3411 41.4943 40.4783 41.7941 40.4783 41.9237H41.4783C41.4783 41.2368 40.9273 40.676 40.2858 40.3197C39.6099 39.9444 38.6858 39.7024 37.6256 39.7024V40.7024ZM40.4783 41.9237V43.3981H41.4783V41.9237H40.4783ZM40.9783 43.8981H41.0649V42.8981H40.9783V43.8981ZM40.5649 43.3981V64.9657H41.5649V43.3981H40.5649ZM41.4427 64.6382C40.9805 64.105 40.412 63.674 39.7737 63.3731L39.3472 64.2776C39.8597 64.5192 40.316 64.8651 40.6871 65.2932L41.4427 64.6382ZM39.7737 63.3731C39.1353 63.0721 38.4412 62.9078 37.7357 62.8905L37.7112 63.8902C38.2776 63.9041 38.8348 64.036 39.3472 64.2776L39.7737 63.3731ZM37.8773 62.9146C37.9048 62.9235 37.9307 62.9367 37.9539 62.9538L37.3615 63.7595C37.4247 63.8059 37.495 63.8419 37.5696 63.8661L37.8773 62.9146ZM37.6577 62.8566H37.6256V63.8566H37.6577V62.8566ZM37.6447 62.857C36.9147 62.8292 36.189 62.9806 35.531 63.298L35.9654 64.1987C36.4763 63.9522 37.0398 63.8347 37.6066 63.8563L37.6447 62.857ZM35.531 63.298C34.873 63.6153 34.3028 64.089 33.8701 64.6776L34.6758 65.2699C35.0118 64.8129 35.4545 64.4451 35.9654 64.1987L35.531 63.298ZM34.7729 64.9737L34.7713 41.9237L33.7713 41.9238L33.7729 64.9738L34.7729 64.9737ZM40.2469 68.2514C40.0392 68.3767 39.8017 68.4438 39.5591 68.4459L39.5677 69.4459C39.9893 69.4422 40.4022 69.3255 40.7633 69.1078L40.2469 68.2514ZM39.5634 68.4459H39.5554V69.4459H39.5634V68.4459ZM39.5654 68.446C39.3158 68.441 39.0784 68.3374 38.905 68.1577L38.1854 68.8521C38.5424 69.2221 39.0315 69.4356 39.5455 69.4458L39.5654 68.446ZM38.905 68.1577C38.7317 67.9781 38.6366 67.7371 38.6405 67.4875L37.6406 67.4717C37.6325 67.9858 37.8284 68.4821 38.1854 68.8521L38.905 68.1577ZM38.6406 67.4796V64.4395H37.6406V67.4796H38.6406ZM38.0613 64.9332C38.6601 65.0293 39.2141 65.3093 39.6465 65.7344L40.3476 65.0213C39.7671 64.4507 39.0235 64.0748 38.2198 63.9458L38.0613 64.9332ZM39.6465 65.7344C40.079 66.1596 40.3685 66.7087 40.4748 67.3058L41.4593 67.1304C41.3166 66.329 40.928 65.5919 40.3476 65.0213L39.6465 65.7344ZM40.474 67.3008C40.4902 67.3978 40.5146 67.5986 40.4813 67.8047C40.4486 68.0069 40.37 68.1655 40.2216 68.2677L40.7885 69.0915C41.2369 68.7829 41.4093 68.3304 41.4685 67.9642C41.527 67.602 41.484 67.2774 41.4602 67.1354L40.474 67.3008ZM70.1392 65.5944C70.1395 65.6512 70.1238 65.707 70.0939 65.7553L70.944 66.2819C71.073 66.0737 71.1406 65.8333 71.1392 65.5884L70.1392 65.5944ZM70.0939 65.7553C70.064 65.8036 70.021 65.8425 69.97 65.8675L70.41 66.7655C70.63 66.6577 70.815 66.4901 70.944 66.2819L70.0939 65.7553ZM69.9716 65.8667C69.5163 66.0878 68.6175 66.3438 67.1198 66.0898L66.9527 67.0758C68.6344 67.3609 69.7472 67.0874 70.4084 66.7663L69.9716 65.8667ZM67.1296 66.0916C66.9977 66.0665 66.8622 66.0678 66.7308 66.0954L66.9364 67.0741C66.9385 67.0736 66.9407 67.0736 66.9428 67.074L67.1296 66.0916ZM66.7308 66.0954C66.5994 66.123 66.4748 66.1764 66.3641 66.2524L66.9304 67.0766C66.9322 67.0754 66.9342 67.0745 66.9364 67.0741L66.7308 66.0954ZM66.3641 66.2524C66.2535 66.3284 66.159 66.4256 66.0861 66.5384L66.9259 67.0813C66.9271 67.0794 66.9286 67.0779 66.9304 67.0766L66.3641 66.2524ZM66.0861 66.5384C66.0132 66.6511 65.9634 66.7772 65.9394 66.9093L66.9235 67.0873C66.9239 67.0852 66.9247 67.0831 66.9259 67.0813L66.0861 66.5384ZM65.9416 66.8982C65.9269 66.9703 65.9203 67.0438 65.922 67.1173L66.9217 67.0943C66.9217 67.0957 66.9216 67.0971 66.9213 67.0985L65.9416 66.8982ZM65.9218 67.1058V69.6855H66.9218V67.1058H65.9218ZM65.9218 69.6855C65.9218 69.9496 65.817 70.203 65.6303 70.3899L66.3378 71.0966C66.7118 70.7222 66.9218 70.2147 66.9218 69.6855H65.9218ZM65.6303 70.3899C65.4436 70.5768 65.1904 70.6819 64.9262 70.6822L64.9273 71.6822C65.4565 71.6817 65.9638 71.471 66.3378 71.0966L65.6303 70.3899ZM64.9268 70.6822H37.6737V71.6822H64.9268V70.6822ZM37.6737 70.6822C36.12 70.6822 34.7778 69.4059 34.7439 67.8744L33.7442 67.8965C33.7905 69.9939 35.5989 71.6822 37.6737 71.6822V70.6822ZM34.7439 67.8751C34.7295 67.1769 34.9691 66.4971 35.4181 65.9623L34.6523 65.3193C34.0474 66.0397 33.7247 66.9553 33.7442 67.8958L34.7439 67.8751ZM35.4181 65.9623C35.8672 65.4274 36.4952 65.0739 37.1854 64.9674L37.0328 63.9791C36.1031 64.1226 35.2572 64.5988 34.6523 65.3193L35.4181 65.9623ZM36.6091 64.4732V67.5133H37.6091V64.4732H36.6091ZM36.6091 67.5113C36.606 68.3036 36.9157 69.065 37.471 69.6301L38.1843 68.9291C37.8137 68.5521 37.607 68.0439 37.6091 67.5153L36.6091 67.5113ZM37.471 69.6301C38.0263 70.1951 38.7822 70.5181 39.5744 70.5287L39.5878 69.5288C39.0592 69.5217 38.5548 69.3062 38.1843 68.9291L37.471 69.6301ZM39.5623 70.5284C40.2255 70.5533 40.8791 70.3641 41.4263 69.9887L40.8607 69.164C40.4905 69.4179 40.0484 69.546 39.5998 69.5291L39.5623 70.5284ZM41.4258 69.9891C42.2156 69.449 42.5848 68.554 42.5755 67.5951L41.5756 67.6048C41.5823 68.3046 41.3195 68.8503 40.8613 69.1636L41.4258 69.9891ZM42.5548 67.7423C42.5738 67.6786 42.5864 67.6133 42.5926 67.5472L41.597 67.4537C41.5969 67.455 41.5966 67.4563 41.5963 67.4575L42.5548 67.7423ZM42.5948 67.5003L42.5868 43.9257L41.5868 43.926L41.5948 67.5006L42.5948 67.5003ZM42.0868 44.4259H62.4724V43.4259H42.0868V44.4259ZM61.9724 43.9259V44.5579H62.9724V43.9259H61.9724ZM62.4278 44.0599C62.0189 44.0965 61.6389 44.2858 61.3633 44.5901L62.1046 45.2614C62.2113 45.1435 62.3586 45.0701 62.517 45.0559L62.4278 44.0599ZM61.3633 44.5901C61.0878 44.8944 60.937 45.2913 60.941 45.7018L61.9409 45.6921C61.9394 45.5331 61.9978 45.3793 62.1046 45.2614L61.3633 44.5901ZM60.9409 45.697V48.875H61.9409V45.697H60.9409ZM60.9411 48.886C60.9473 49.169 61.0269 49.4455 61.1723 49.6884L62.0304 49.175C61.9741 49.0808 61.9432 48.9737 61.9408 48.864L60.9411 48.886ZM61.1204 49.2951L58.5938 58.1907L59.5558 58.4639L62.0823 49.5683L61.1204 49.2951ZM58.5942 58.1893C58.3221 59.1369 58.195 60.1202 58.2172 61.1059L59.2169 61.0834C59.197 60.1986 59.3111 59.3159 59.5554 58.4653L58.5942 58.1893ZM58.2172 61.106C58.2368 61.9681 58.3254 62.8273 58.4821 63.6753L59.4654 63.4936C59.3184 62.6981 59.2353 61.8921 59.2169 61.0833L58.2172 61.106ZM58.4821 63.6753L58.7131 64.9251L59.6964 64.7433L59.4654 63.4936L58.4821 63.6753ZM58.7047 64.8342V65.3058H59.7047V64.8342H58.7047ZM58.7048 65.2971C58.7005 65.5471 58.787 65.7902 58.9483 65.9812L59.7124 65.3361C59.7073 65.3301 59.7045 65.3224 59.7047 65.3145L58.7048 65.2971ZM58.9483 65.9812C59.1095 66.1723 59.3347 66.2983 59.5819 66.336L59.7323 65.3473C59.7245 65.3462 59.7174 65.3422 59.7124 65.3361L58.9483 65.9812ZM59.5991 66.3383C59.866 66.3694 60.1344 66.294 60.3459 66.1284L59.7296 65.341C59.7255 65.3442 59.7203 65.3456 59.7151 65.345L59.5991 66.3383ZM60.3459 66.1284C60.5575 65.9628 60.6952 65.7204 60.729 65.4538L59.737 65.3279C59.7363 65.3331 59.7337 65.3378 59.7296 65.341L60.3459 66.1284ZM60.733 65.3909C60.733 65.3908 60.733 65.3908 60.733 65.3907C60.733 65.3907 60.733 65.3906 60.733 65.3906C60.733 65.3906 60.733 65.3905 60.733 65.3905C60.733 65.3904 60.733 65.3904 60.733 65.3904C60.733 65.3903 60.733 65.3903 60.733 65.3902C60.733 65.3902 60.733 65.3902 60.733 65.3901C60.733 65.3901 60.733 65.39 60.733 65.39C60.733 65.39 60.733 65.3899 60.733 65.3899C60.733 65.3898 60.733 65.3898 60.733 65.3898C60.733 65.3897 60.733 65.3897 60.733 65.3896C60.733 65.3896 60.733 65.3895 60.733 65.3895C60.733 65.3895 60.733 65.3894 60.733 65.3894C60.733 65.3893 60.733 65.3893 60.733 65.3893C60.733 65.3892 60.733 65.3892 60.733 65.3891C60.733 65.3891 60.733 65.3891 60.733 65.389C60.733 65.389 60.733 65.3889 60.733 65.3889C60.733 65.3889 60.733 65.3888 60.733 65.3888C60.733 65.3887 60.733 65.3887 60.733 65.3887C60.733 65.3886 60.733 65.3886 60.733 65.3885C60.733 65.3885 60.733 65.3884 60.733 65.3884C60.733 65.3884 60.733 65.3883 60.733 65.3883C60.733 65.3882 60.733 65.3882 60.733 65.3882C60.733 65.3881 60.733 65.3881 60.733 65.388C60.733 65.388 60.733 65.388 60.733 65.3879C60.733 65.3879 60.733 65.3878 60.733 65.3878C60.733 65.3878 60.733 65.3877 60.733 65.3877C60.733 65.3876 60.733 65.3876 60.733 65.3876C60.733 65.3875 60.733 65.3875 60.733 65.3874C60.733 65.3874 60.733 65.3873 60.733 65.3873C60.733 65.3873 60.733 65.3872 60.733 65.3872C60.733 65.3871 60.733 65.3871 60.733 65.3871C60.733 65.387 60.733 65.387 60.733 65.3869C60.733 65.3869 60.733 65.3869 60.733 65.3868C60.733 65.3868 60.733 65.3867 60.733 65.3867C60.733 65.3867 60.733 65.3866 60.733 65.3866C60.733 65.3865 60.733 65.3865 60.733 65.3865C60.733 65.3864 60.733 65.3864 60.733 65.3863C60.733 65.3863 60.733 65.3862 60.733 65.3862C60.733 65.3862 60.733 65.3861 60.733 65.3861C60.733 65.386 60.733 65.386 60.733 65.386C60.733 65.3859 60.733 65.3859 60.733 65.3858C60.733 65.3858 60.733 65.3858 60.733 65.3857C60.733 65.3857 60.733 65.3856 60.733 65.3856C60.733 65.3856 60.733 65.3855 60.733 65.3855C60.733 65.3854 60.733 65.3854 60.733 65.3854C60.733 65.3853 60.733 65.3853 60.733 65.3852C60.733 65.3852 60.733 65.3851 60.733 65.3851C60.733 65.3851 60.733 65.385 60.733 65.385C60.733 65.3849 60.733 65.3849 60.733 65.3849C60.733 65.3848 60.733 65.3848 60.733 65.3847C60.733 65.3847 60.733 65.3847 60.733 65.3846C60.733 65.3846 60.733 65.3845 60.733 65.3845C60.733 65.3845 60.733 65.3844 60.733 65.3844C60.733 65.3843 60.733 65.3843 60.733 65.3843C60.733 65.3842 60.733 65.3842 60.733 65.3841C60.733 65.3841 60.733 65.384 60.733 65.384C60.733 65.384 60.733 65.3839 60.733 65.3839C60.733 65.3838 60.733 65.3838 60.733 65.3838C60.733 65.3837 60.733 65.3837 60.733 65.3836C60.733 65.3836 60.733 65.3836 60.733 65.3835C60.733 65.3835 60.733 65.3834 60.733 65.3834C60.733 65.3834 60.733 65.3833 60.733 65.3833C60.733 65.3832 60.733 65.3832 60.733 65.3832C60.733 65.3831 60.733 65.3831 60.733 65.383C60.733 65.383 60.733 65.3829 60.733 65.3829C60.733 65.3829 60.733 65.3828 60.733 65.3828C60.733 65.3827 60.733 65.3827 60.733 65.3827C60.733 65.3826 60.733 65.3826 60.733 65.3825C60.733 65.3825 60.733 65.3825 60.733 65.3824C60.733 65.3824 60.733 65.3823 60.733 65.3823C60.733 65.3823 60.733 65.3822 60.733 65.3822C60.733 65.3821 60.733 65.3821 60.733 65.3821C60.733 65.382 60.733 65.382 60.733 65.3819C60.733 65.3819 60.733 65.3818 60.733 65.3818C60.733 65.3818 60.733 65.3817 60.733 65.3817C60.733 65.3816 60.733 65.3816 60.733 65.3816C60.733 65.3815 60.733 65.3815 60.733 65.3814C60.733 65.3814 60.733 65.3814 60.733 65.3813C60.733 65.3813 60.733 65.3812 60.733 65.3812C60.733 65.3812 60.733 65.3811 60.733 65.3811C60.733 65.381 60.733 65.381 60.733 65.381C60.733 65.3809 60.733 65.3809 60.733 65.3808C60.733 65.3808 60.733 65.3807 60.733 65.3807C60.733 65.3807 60.733 65.3806 60.733 65.3806C60.733 65.3805 60.733 65.3805 60.733 65.3805C60.733 65.3804 60.733 65.3804 60.733 65.3803C60.733 65.3803 60.733 65.3803 60.733 65.3802C60.733 65.3802 60.733 65.3801 60.733 65.3801C60.733 65.3801 60.733 65.38 60.733 65.38C60.733 65.3799 60.733 65.3799 60.733 65.3799C60.733 65.3798 60.733 65.3798 60.733 65.3797C60.733 65.3797 60.733 65.3797 60.733 65.3796C60.733 65.3796 60.733 65.3795 60.733 65.3795C60.733 65.3794 60.733 65.3794 60.733 65.3794C60.733 65.3793 60.733 65.3793 60.733 65.3792C60.733 65.3792 60.733 65.3792 60.733 65.3791C60.733 65.3791 60.733 65.379 60.733 65.379C60.733 65.379 60.733 65.3789 60.733 65.3789C60.733 65.3788 60.733 65.3788 60.733 65.3788C60.733 65.3787 60.733 65.3787 60.733 65.3786C60.733 65.3786 60.733 65.3785 60.733 65.3785C60.733 65.3785 60.733 65.3784 60.733 65.3784C60.733 65.3783 60.733 65.3783 60.733 65.3783C60.733 65.3782 60.733 65.3782 60.733 65.3781C60.733 65.3781 60.733 65.3781 60.733 65.378C60.733 65.378 60.733 65.3779 60.733 65.3779C60.733 65.3779 60.733 65.3778 60.733 65.3778C60.733 65.3777 60.733 65.3777 60.733 65.3777C60.733 65.3776 60.733 65.3776 60.733 65.3775C60.733 65.3775 60.733 65.3774 60.733 65.3774C60.733 65.3774 60.733 65.3773 60.733 65.3773C60.733 65.3772 60.733 65.3772 60.733 65.3772C60.733 65.3771 60.733 65.3771 60.733 65.377C60.733 65.377 60.733 65.377 60.733 65.3769C60.733 65.3769 60.733 65.3768 60.733 65.3768C60.733 65.3768 60.733 65.3767 60.733 65.3767C60.733 65.3766 60.733 65.3766 60.733 65.3766C60.733 65.3765 60.733 65.3765 60.733 65.3764C60.733 65.3764 60.733 65.3764 60.733 65.3763C60.733 65.3763 60.733 65.3762 60.733 65.3762C60.733 65.3761 60.733 65.3761 60.733 65.3761C60.733 65.376 60.733 65.376 60.733 65.3759C60.733 65.3759 60.733 65.3759 60.733 65.3758C60.733 65.3758 60.733 65.3757 60.733 65.3757C60.733 65.3757 60.733 65.3756 60.733 65.3756C60.733 65.3755 60.733 65.3755 60.733 65.3755C60.733 65.3754 60.733 65.3754 60.733 65.3753C60.733 65.3753 60.733 65.3752 60.733 65.3752C60.733 65.3752 60.733 65.3751 60.733 65.3751C60.733 65.375 60.733 65.375 60.733 65.375C60.733 65.3749 60.733 65.3749 60.733 65.3748C60.733 65.3748 60.733 65.3748 60.733 65.3747C60.733 65.3747 60.733 65.3746 60.733 65.3746C60.733 65.3746 60.733 65.3745 60.733 65.3745C60.733 65.3744 60.733 65.3744 60.733 65.3744C60.733 65.3743 60.733 65.3743 60.733 65.3742C60.733 65.3742 60.733 65.3742 60.733 65.3741C60.733 65.3741 60.733 65.374 60.733 65.374C60.733 65.3739 60.733 65.3739 60.733 65.3739C60.733 65.3738 60.733 65.3738 60.733 65.3737C60.733 65.3737 60.733 65.3737 60.733 65.3736C60.733 65.3736 60.733 65.3735 60.733 65.3735C60.733 65.3735 60.733 65.3734 60.733 65.3734C60.733 65.3733 60.733 65.3733 60.733 65.3733C60.733 65.3732 60.733 65.3732 60.733 65.3731C60.733 65.3731 60.733 65.3731 60.733 65.373C60.733 65.373 60.733 65.3729 60.733 65.3729C60.733 65.3728 60.733 65.3728 60.733 65.3728C60.733 65.3727 60.733 65.3727 60.733 65.3726C60.733 65.3726 60.733 65.3726 60.733 65.3725C60.733 65.3725 60.733 65.3724 60.733 65.3724C60.733 65.3724 60.733 65.3723 60.733 65.3723C60.733 65.3722 60.733 65.3722 60.733 65.3722C60.733 65.3721 60.733 65.3721 60.733 65.372C60.733 65.372 60.733 65.372 60.733 65.3719C60.733 65.3719 60.733 65.3718 60.733 65.3718C60.733 65.3717 60.733 65.3717 60.733 65.3717C60.733 65.3716 60.733 65.3716 60.733 65.3715C60.733 65.3715 60.733 65.3715 60.733 65.3714C60.733 65.3714 60.733 65.3713 60.733 65.3713C60.733 65.3713 60.733 65.3712 60.733 65.3712C60.733 65.3711 60.733 65.3711 60.733 65.3711C60.733 65.371 60.733 65.371 60.733 65.3709C60.733 65.3709 60.733 65.3709 60.733 65.3708C60.733 65.3708 60.733 65.3707 60.733 65.3707C60.733 65.3706 60.733 65.3706 60.733 65.3706C60.733 65.3705 60.733 65.3705 60.733 65.3704C60.733 65.3704 60.733 65.3704 60.733 65.3703C60.733 65.3703 60.733 65.3702 60.733 65.3702C60.733 65.3702 60.733 65.3701 60.733 65.3701C60.733 65.37 60.733 65.37 60.733 65.37C60.733 65.3699 60.733 65.3699 60.733 65.3698C60.733 65.3698 60.733 65.3698 60.733 65.3697C60.733 65.3697 60.733 65.3696 60.733 65.3696C60.733 65.3695 60.733 65.3695 60.733 65.3695C60.733 65.3694 60.733 65.3694 60.733 65.3693C60.733 65.3693 60.733 65.3693 60.733 65.3692C60.733 65.3692 60.733 65.3691 60.733 65.3691C60.733 65.3691 60.733 65.369 60.733 65.369C60.733 65.3689 60.733 65.3689 60.733 65.3689C60.733 65.3688 60.733 65.3688 60.733 65.3687C60.733 65.3687 60.733 65.3687 60.733 65.3686C60.733 65.3686 60.733 65.3685 60.733 65.3685C60.733 65.3684 60.733 65.3684 60.733 65.3684C60.733 65.3683 60.733 65.3683 60.733 65.3682C60.733 65.3682 60.733 65.3682 60.733 65.3681C60.733 65.3681 60.733 65.368 60.733 65.368C60.733 65.368 60.733 65.3679 60.733 65.3679C60.733 65.3678 60.733 65.3678 60.733 65.3678C60.733 65.3677 60.733 65.3677 60.733 65.3676C60.733 65.3676 60.733 65.3676 60.733 65.3675C60.733 65.3675 60.733 65.3674 60.733 65.3674C60.733 65.3673 60.733 65.3673 60.733 65.3673C60.733 65.3672 60.733 65.3672 60.733 65.3671C60.733 65.3671 60.733 65.3671 60.733 65.367C60.733 65.367 60.733 65.3669 60.733 65.3669C60.733 65.3669 60.733 65.3668 60.733 65.3668C60.733 65.3667 60.733 65.3667 60.733 65.3667C60.733 65.3666 60.733 65.3666 60.733 65.3665C60.733 65.3665 60.733 65.3665 60.733 65.3664C60.733 65.3664 60.733 65.3663 60.733 65.3663C60.733 65.3662 60.733 65.3662 60.733 65.3662C60.733 65.3661 60.733 65.3661 60.733 65.366C60.733 65.366 60.733 65.366 60.733 65.3659C60.733 65.3659 60.733 65.3658 60.733 65.3658C60.733 65.3658 60.733 65.3657 60.733 65.3657C60.733 65.3656 60.733 65.3656 60.733 65.3656C60.733 65.3655 60.733 65.3655 60.733 65.3654C60.733 65.3654 60.733 65.3654 60.733 65.3653C60.733 65.3653 60.733 65.3652 60.733 65.3652C60.733 65.3651 60.733 65.3651 60.733 65.3651C60.733 65.365 60.733 65.365 60.733 65.3649C60.733 65.3649 60.733 65.3649 60.733 65.3648C60.733 65.3648 60.733 65.3647 60.733 65.3647C60.733 65.3647 60.733 65.3646 60.733 65.3646C60.733 65.3645 60.733 65.3645 60.733 65.3645C60.733 65.3644 60.733 65.3644 60.733 65.3643C60.733 65.3643 60.733 65.3643 60.733 65.3642C60.733 65.3642 60.733 65.3641 60.733 65.3641C60.733 65.364 60.733 65.364 60.733 65.364C60.733 65.3639 60.733 65.3639 60.733 65.3638C60.733 65.3638 60.733 65.3638 60.733 65.3637C60.733 65.3637 60.733 65.3636 60.733 65.3636C60.733 65.3636 60.733 65.3635 60.733 65.3635C60.733 65.3634 60.733 65.3634 60.733 65.3634C60.733 65.3633 60.733 65.3633 60.733 65.3632C60.733 65.3632 60.733 65.3632 60.733 65.3631C60.733 65.3631 60.733 65.363 60.733 65.363C60.733 65.3629 60.733 65.3629 60.733 65.3629C60.733 65.3628 60.733 65.3628 60.733 65.3627C60.733 65.3627 60.733 65.3627 60.733 65.3626C60.733 65.3626 60.733 65.3625 60.733 65.3625C60.733 65.3625 60.733 65.3624 60.733 65.3624C60.733 65.3623 60.733 65.3623 60.733 65.3623C60.733 65.3622 60.733 65.3622 60.733 65.3621C60.733 65.3621 60.733 65.3621 60.733 65.362C60.733 65.362 60.733 65.3619 60.733 65.3619C60.733 65.3618 60.733 65.3618 60.733 65.3618C60.733 65.3617 60.733 65.3617 60.733 65.3616C60.733 65.3616 60.733 65.3616 60.733 65.3615C60.733 65.3615 60.733 65.3614 60.733 65.3614C60.733 65.3614 60.733 65.3613 60.733 65.3613C60.733 65.3612 60.733 65.3612 60.733 65.3612C60.733 65.3611 60.733 65.3611 60.733 65.361C60.733 65.361 60.733 65.361 60.733 65.3609C60.733 65.3609 60.733 65.3608 60.733 65.3608C60.733 65.3608 60.733 65.3607 60.733 65.3607C60.733 65.3606 60.733 65.3606 60.733 65.3605C60.733 65.3605 60.733 65.3605 60.733 65.3604C60.733 65.3604 60.733 65.3603 60.733 65.3603C60.733 65.3603 60.733 65.3602 60.733 65.3602C60.733 65.3601 60.733 65.3601 60.733 65.3601C60.733 65.36 60.733 65.36 60.733 65.3599C60.733 65.3599 60.733 65.3599 60.733 65.3598C60.733 65.3598 60.733 65.3597 60.733 65.3597C60.733 65.3596 60.733 65.3596 60.733 65.3596C60.733 65.3595 60.733 65.3595 60.733 65.3594C60.733 65.3594 60.733 65.3594 60.733 65.3593C60.733 65.3593 60.733 65.3592 60.733 65.3592C60.733 65.3592 60.733 65.3591 60.733 65.3591C60.733 65.359 60.733 65.359 60.733 65.359C60.733 65.3589 60.733 65.3589 60.733 65.3588C60.733 65.3588 60.733 65.3588 60.733 65.3587C60.733 65.3587 60.733 65.3586 60.733 65.3586C60.733 65.3585 60.733 65.3585 60.733 65.3585C60.733 65.3584 60.733 65.3584 60.733 65.3583C60.733 65.3583 60.733 65.3583 60.733 65.3582C60.733 65.3582 60.733 65.3581 60.733 65.3581C60.733 65.3581 60.733 65.358 60.733 65.358C60.733 65.3579 60.733 65.3579 60.733 65.3579C60.733 65.3578 60.733 65.3578 60.733 65.3577C60.733 65.3577 60.733 65.3577 60.733 65.3576C60.733 65.3576 60.733 65.3575 60.733 65.3575C60.733 65.3575 60.733 65.3574 60.733 65.3574C60.733 65.3573 60.733 65.3573 60.733 65.3572C60.733 65.3572 60.733 65.3572 60.733 65.3571C60.733 65.3571 60.733 65.357 60.733 65.357C60.733 65.357 60.733 65.3569 60.733 65.3569C60.733 65.3568 60.733 65.3568 60.733 65.3568C60.733 65.3567 60.733 65.3567 60.733 65.3566C60.733 65.3566 60.733 65.3566 60.733 65.3565C60.733 65.3565 60.733 65.3564 60.733 65.3564C60.733 65.3563 60.733 65.3563 60.733 65.3563C60.733 65.3562 60.733 65.3562 60.733 65.3561C60.733 65.3561 60.733 65.3561 60.733 65.356C60.733 65.356 60.733 65.3559 60.733 65.3559C60.733 65.3559 60.733 65.3558 60.733 65.3558C60.733 65.3557 60.733 65.3557 60.733 65.3557C60.733 65.3556 60.733 65.3556 60.733 65.3555C60.733 65.3555 60.733 65.3555 60.733 65.3554C60.733 65.3554 60.733 65.3553 60.733 65.3553C60.733 65.3553 60.733 65.3552 60.733 65.3552C60.733 65.3551 60.733 65.3551 60.733 65.355C60.733 65.355 60.733 65.355 60.733 65.3549C60.733 65.3549 60.733 65.3548 60.733 65.3548C60.733 65.3548 60.733 65.3547 60.733 65.3547C60.733 65.3546 60.733 65.3546 60.733 65.3546C60.733 65.3545 60.733 65.3545 60.733 65.3544C60.733 65.3544 60.733 65.3544 60.733 65.3543C60.733 65.3543 60.733 65.3542 60.733 65.3542C60.733 65.3542 60.733 65.3541 60.733 65.3541C60.733 65.354 60.733 65.354 60.733 65.3539C60.733 65.3539 60.733 65.3539 60.733 65.3538C60.733 65.3538 60.733 65.3537 60.733 65.3537C60.733 65.3537 60.733 65.3536 60.733 65.3536C60.733 65.3535 60.733 65.3535 60.733 65.3535C60.733 65.3534 60.733 65.3534 60.733 65.3533C60.733 65.3533 60.733 65.3533 60.733 65.3532C60.733 65.3532 60.733 65.3531 60.733 65.3531C60.733 65.3531 60.733 65.353 60.733 65.353C60.733 65.3529 60.733 65.3529 60.733 65.3528C60.733 65.3528 60.733 65.3528 60.733 65.3527C60.733 65.3527 60.733 65.3526 60.733 65.3526C60.733 65.3526 60.733 65.3525 60.733 65.3525C60.733 65.3524 60.733 65.3524 60.733 65.3524C60.733 65.3523 60.733 65.3523 60.733 65.3522C60.733 65.3522 60.733 65.3522 60.733 65.3521C60.733 65.3521 60.733 65.352 60.733 65.352C60.733 65.352 60.733 65.3519 60.733 65.3519C60.733 65.3518 60.733 65.3518 60.733 65.3517C60.733 65.3517 60.733 65.3517 60.733 65.3516C60.733 65.3516 60.733 65.3515 60.733 65.3515C60.733 65.3515 60.733 65.3514 60.733 65.3514C60.733 65.3513 60.733 65.3513 60.733 65.3513C60.733 65.3512 60.733 65.3512 60.733 65.3511C60.733 65.3511 60.733 65.3511 60.733 65.351C60.733 65.351 60.733 65.3509 60.733 65.3509C60.733 65.3509 60.733 65.3508 60.733 65.3508C60.733 65.3507 60.733 65.3507 60.733 65.3506C60.733 65.3506 60.733 65.3506 60.733 65.3505C60.733 65.3505 60.733 65.3504 60.733 65.3504C60.733 65.3504 60.733 65.3503 60.733 65.3503C60.733 65.3502 60.733 65.3502 60.733 65.3502C60.733 65.3501 60.733 65.3501 60.733 65.35C60.733 65.35 60.733 65.35 60.733 65.3499C60.733 65.3499 60.733 65.3498 60.733 65.3498C60.733 65.3498 60.733 65.3497 60.733 65.3497C60.733 65.3496 60.733 65.3496 60.733 65.3495C60.733 65.3495 60.733 65.3495 60.733 65.3494C60.733 65.3494 60.733 65.3493 60.733 65.3493C60.733 65.3493 60.733 65.3492 60.733 65.3492C60.733 65.3491 60.733 65.3491 60.733 65.3491C60.733 65.349 60.733 65.349 60.733 65.3489C60.733 65.3489 60.733 65.3489 60.733 65.3488C60.733 65.3488 60.733 65.3487 60.733 65.3487C60.733 65.3487 60.733 65.3486 60.733 65.3486C60.733 65.3485 60.733 65.3485 60.733 65.3484C60.733 65.3484 60.733 65.3484 60.733 65.3483C60.733 65.3483 60.733 65.3482 60.733 65.3482C60.733 65.3482 60.733 65.3481 60.733 65.3481C60.733 65.348 60.733 65.348 60.733 65.348C60.733 65.3479 60.733 65.3479 60.733 65.3478C60.733 65.3478 60.733 65.3478 60.733 65.3477C60.733 65.3477 60.733 65.3476 60.733 65.3476C60.733 65.3476 60.733 65.3475 60.733 65.3475C60.733 65.3474 60.733 65.3474 60.733 65.3473C60.733 65.3473 60.733 65.3473 60.733 65.3472C60.733 65.3472 60.733 65.3471 60.733 65.3471C60.733 65.3471 60.733 65.347 60.733 65.347C60.733 65.3469 60.733 65.3469 60.733 65.3469C60.733 65.3468 60.733 65.3468 60.733 65.3467C60.733 65.3467 60.733 65.3467 60.733 65.3466C60.733 65.3466 60.733 65.3465 60.733 65.3465C60.733 65.3465 60.733 65.3464 60.733 65.3464C60.733 65.3463 60.733 65.3463 60.733 65.3462C60.733 65.3462 60.733 65.3462 60.733 65.3461C60.733 65.3461 60.733 65.346 60.733 65.346C60.733 65.346 60.733 65.3459 60.733 65.3459C60.733 65.3458 60.733 65.3458 60.733 65.3458C60.733 65.3457 60.733 65.3457 60.733 65.3456C60.733 65.3456 60.733 65.3456 60.733 65.3455C60.733 65.3455 60.733 65.3454 60.733 65.3454C60.733 65.3454 60.733 65.3453 60.733 65.3453C60.733 65.3452 60.733 65.3452 60.733 65.3451C60.733 65.3451 60.733 65.3451 60.733 65.345C60.733 65.345 60.733 65.3449 60.733 65.3449C60.733 65.3449 60.733 65.3448 60.733 65.3448C60.733 65.3447 60.733 65.3447 60.733 65.3447C60.733 65.3446 60.733 65.3446 60.733 65.3445C60.733 65.3445 60.733 65.3445 60.733 65.3444C60.733 65.3444 60.733 65.3443 60.733 65.3443C60.733 65.3443 60.733 65.3442 60.733 65.3442C60.733 65.3441 60.733 65.3441 60.733 65.344C60.733 65.344 60.733 65.344 60.733 65.3439C60.733 65.3439 60.733 65.3438 60.733 65.3438C60.733 65.3438 60.733 65.3437 60.733 65.3437C60.733 65.3436 60.733 65.3436 60.733 65.3436C60.733 65.3435 60.733 65.3435 60.733 65.3434C60.733 65.3434 60.733 65.3434 60.733 65.3433C60.733 65.3433 60.733 65.3432 60.733 65.3432C60.733 65.3432 60.733 65.3431 60.733 65.3431C60.733 65.343 60.733 65.343 60.733 65.3429C60.733 65.3429 60.733 65.3429 60.733 65.3428C60.733 65.3428 60.733 65.3427 60.733 65.3427C60.733 65.3427 60.733 65.3426 60.733 65.3426C60.733 65.3425 60.733 65.3425 60.733 65.3425C60.733 65.3424 60.733 65.3424 60.733 65.3423C60.733 65.3423 60.733 65.3423 60.733 65.3422C60.733 65.3422 60.733 65.3421 60.733 65.3421C60.733 65.3421 60.733 65.342 60.733 65.342C60.733 65.3419 60.733 65.3419 60.733 65.3418C60.733 65.3418 60.733 65.3418 60.733 65.3417C60.733 65.3417 60.733 65.3416 60.733 65.3416C60.733 65.3416 60.733 65.3415 60.733 65.3415C60.733 65.3414 60.733 65.3414 60.733 65.3414C60.733 65.3413 60.733 65.3413 60.733 65.3412C60.733 65.3412 60.733 65.3412 60.733 65.3411C60.733 65.3411 60.733 65.341 60.733 65.341C60.733 65.341 60.733 65.3409 60.733 65.3409C60.733 65.3408 60.733 65.3408 60.733 65.3407C60.733 65.3407 60.733 65.3407 60.733 65.3406C60.733 65.3406 60.733 65.3405 60.733 65.3405C60.733 65.3405 60.733 65.3404 60.733 65.3404C60.733 65.3403 60.733 65.3403 60.733 65.3403C60.733 65.3402 60.733 65.3402 60.733 65.3401C60.733 65.3401 60.733 65.3401 60.733 65.34C60.733 65.34 60.733 65.3399 60.733 65.3399C60.733 65.3399 60.733 65.3398 60.733 65.3398C60.733 65.3397 60.733 65.3397 60.733 65.3396C60.733 65.3396 60.733 65.3396 60.733 65.3395C60.733 65.3395 60.733 65.3394 60.733 65.3394C60.733 65.3394 60.733 65.3393 60.733 65.3393C60.733 65.3392 60.733 65.3392 60.733 65.3392C60.733 65.3391 60.733 65.3391 60.733 65.339C60.733 65.339 60.733 65.339 60.733 65.3389C60.733 65.3389 60.733 65.3388 60.733 65.3388C60.733 65.3388 60.733 65.3387 60.733 65.3387C60.733 65.3386 60.733 65.3386 60.733 65.3386C60.733 65.3385 60.733 65.3385 60.733 65.3384C60.733 65.3384 60.733 65.3383 60.733 65.3383C60.733 65.3383 60.733 65.3382 60.733 65.3382C60.733 65.3381 60.733 65.3381 60.733 65.3381C60.733 65.338 60.733 65.338 60.733 65.3379C60.733 65.3379 60.733 65.3379 60.733 65.3378C60.733 65.3378 60.733 65.3377 60.733 65.3377C60.733 65.3377 60.733 65.3376 60.733 65.3376C60.733 65.3375 60.733 65.3375 60.733 65.3375C60.733 65.3374 60.733 65.3374 60.733 65.3373C60.733 65.3373 60.733 65.3372 60.733 65.3372C60.733 65.3372 60.733 65.3371 60.733 65.3371C60.733 65.337 60.733 65.337 60.733 65.337C60.733 65.3369 60.733 65.3369 60.733 65.3368C60.733 65.3368 60.733 65.3368 60.733 65.3367C60.733 65.3367 60.733 65.3366 60.733 65.3366C60.733 65.3366 60.733 65.3365 60.733 65.3365C60.733 65.3364 60.733 65.3364 60.733 65.3363C60.733 65.3363 60.733 65.3363 60.733 65.3362C60.733 65.3362 60.733 65.3361 60.733 65.3361C60.733 65.3361 60.733 65.336 60.733 65.336C60.733 65.3359 60.733 65.3359 60.733 65.3359C60.733 65.3358 60.733 65.3358 60.733 65.3357C60.733 65.3357 60.733 65.3357 60.733 65.3356C60.733 65.3356 60.733 65.3355 60.733 65.3355C60.733 65.3355 60.733 65.3354 60.733 65.3354C60.733 65.3353 60.733 65.3353 60.733 65.3353C60.733 65.3352 60.733 65.3352 60.733 65.3351C60.733 65.3351 60.733 65.335 60.733 65.335C60.733 65.335 60.733 65.3349 60.733 65.3349C60.733 65.3348 60.733 65.3348 60.733 65.3348C60.733 65.3347 60.733 65.3347 60.733 65.3346C60.733 65.3346 60.733 65.3346 60.733 65.3345C60.733 65.3345 60.733 65.3344 60.733 65.3344C60.733 65.3344 60.733 65.3343 60.733 65.3343C60.733 65.3342 60.733 65.3342 60.733 65.3342C60.733 65.3341 60.733 65.3341 60.733 65.334C60.733 65.334 60.733 65.3339 60.733 65.3339C60.733 65.3339 60.733 65.3338 60.733 65.3338C60.733 65.3337 60.733 65.3337 60.733 65.3337C60.733 65.3336 60.733 65.3336 60.733 65.3335C60.733 65.3335 60.733 65.3335 60.733 65.3334C60.733 65.3334 60.733 65.3333 60.733 65.3333C60.733 65.3333 60.733 65.3332 60.733 65.3332C60.733 65.3331 60.733 65.3331 60.733 65.3331C60.733 65.333 60.733 65.333 60.733 65.3329C60.733 65.3329 60.733 65.3328 60.733 65.3328C60.733 65.3328 60.733 65.3327 60.733 65.3327C60.733 65.3326 60.733 65.3326 60.733 65.3326C60.733 65.3325 60.733 65.3325 60.733 65.3324C60.733 65.3324 60.733 65.3324 60.733 65.3323C60.733 65.3323 60.733 65.3322 60.733 65.3322C60.733 65.3322 60.733 65.3321 60.733 65.3321C60.733 65.332 60.733 65.332 60.733 65.332C60.733 65.3319 60.733 65.3319 60.733 65.3318C60.733 65.3318 60.733 65.3317 60.733 65.3317C60.733 65.3317 60.733 65.3316 60.733 65.3316C60.733 65.3315 60.733 65.3315 60.733 65.3315C60.733 65.3314 60.733 65.3314 60.733 65.3313C60.733 65.3313 60.733 65.3313 60.733 65.3312C60.733 65.3312 60.733 65.3311 60.733 65.3311C60.733 65.3311 60.733 65.331 60.733 65.331C60.733 65.3309 60.733 65.3309 60.733 65.3309C60.733 65.3308 60.733 65.3308 60.733 65.3307C60.733 65.3307 60.733 65.3306 60.733 65.3306C60.733 65.3306 60.733 65.3305 60.733 65.3305C60.733 65.3304 60.733 65.3304 60.733 65.3304C60.733 65.3303 60.733 65.3303 60.733 65.3302C60.733 65.3302 60.733 65.3302 60.733 65.3301C60.733 65.3301 60.733 65.33 60.733 65.33C60.733 65.33 60.733 65.3299 60.733 65.3299C60.733 65.3298 60.733 65.3298 60.733 65.3298C60.733 65.3297 60.733 65.3297 60.733 65.3296C60.733 65.3296 60.733 65.3295 60.733 65.3295C60.733 65.3295 60.733 65.3294 60.733 65.3294C60.733 65.3293 60.733 65.3293 60.733 65.3293C60.733 65.3292 60.733 65.3292 60.733 65.3291C60.733 65.3291 60.733 65.3291 60.733 65.329C60.733 65.329 60.733 65.3289 60.733 65.3289C60.733 65.3289 60.733 65.3288 60.733 65.3288C60.733 65.3287 60.733 65.3287 60.733 65.3287C60.733 65.3286 60.733 65.3286 60.733 65.3285C60.733 65.3285 60.733 65.3284 60.733 65.3284C60.733 65.3284 60.733 65.3283 60.733 65.3283H59.733C59.733 65.3283 59.733 65.3284 59.733 65.3284C59.733 65.3284 59.733 65.3285 59.733 65.3285C59.733 65.3286 59.733 65.3286 59.733 65.3287C59.733 65.3287 59.733 65.3287 59.733 65.3288C59.733 65.3288 59.733 65.3289 59.733 65.3289C59.733 65.3289 59.733 65.329 59.733 65.329C59.733 65.3291 59.733 65.3291 59.733 65.3291C59.733 65.3292 59.733 65.3292 59.733 65.3293C59.733 65.3293 59.733 65.3293 59.733 65.3294C59.733 65.3294 59.733 65.3295 59.733 65.3295C59.733 65.3295 59.733 65.3296 59.733 65.3296C59.733 65.3297 59.733 65.3297 59.733 65.3298C59.733 65.3298 59.733 65.3298 59.733 65.3299C59.733 65.3299 59.733 65.33 59.733 65.33C59.733 65.33 59.733 65.3301 59.733 65.3301C59.733 65.3302 59.733 65.3302 59.733 65.3302C59.733 65.3303 59.733 65.3303 59.733 65.3304C59.733 65.3304 59.733 65.3304 59.733 65.3305C59.733 65.3305 59.733 65.3306 59.733 65.3306C59.733 65.3306 59.733 65.3307 59.733 65.3307C59.733 65.3308 59.733 65.3308 59.733 65.3309C59.733 65.3309 59.733 65.3309 59.733 65.331C59.733 65.331 59.733 65.3311 59.733 65.3311C59.733 65.3311 59.733 65.3312 59.733 65.3312C59.733 65.3313 59.733 65.3313 59.733 65.3313C59.733 65.3314 59.733 65.3314 59.733 65.3315C59.733 65.3315 59.733 65.3315 59.733 65.3316C59.733 65.3316 59.733 65.3317 59.733 65.3317C59.733 65.3317 59.733 65.3318 59.733 65.3318C59.733 65.3319 59.733 65.3319 59.733 65.332C59.733 65.332 59.733 65.332 59.733 65.3321C59.733 65.3321 59.733 65.3322 59.733 65.3322C59.733 65.3322 59.733 65.3323 59.733 65.3323C59.733 65.3324 59.733 65.3324 59.733 65.3324C59.733 65.3325 59.733 65.3325 59.733 65.3326C59.733 65.3326 59.733 65.3326 59.733 65.3327C59.733 65.3327 59.733 65.3328 59.733 65.3328C59.733 65.3328 59.733 65.3329 59.733 65.3329C59.733 65.333 59.733 65.333 59.733 65.3331C59.733 65.3331 59.733 65.3331 59.733 65.3332C59.733 65.3332 59.733 65.3333 59.733 65.3333C59.733 65.3333 59.733 65.3334 59.733 65.3334C59.733 65.3335 59.733 65.3335 59.733 65.3335C59.733 65.3336 59.733 65.3336 59.733 65.3337C59.733 65.3337 59.733 65.3337 59.733 65.3338C59.733 65.3338 59.733 65.3339 59.733 65.3339C59.733 65.3339 59.733 65.334 59.733 65.334C59.733 65.3341 59.733 65.3341 59.733 65.3342C59.733 65.3342 59.733 65.3342 59.733 65.3343C59.733 65.3343 59.733 65.3344 59.733 65.3344C59.733 65.3344 59.733 65.3345 59.733 65.3345C59.733 65.3346 59.733 65.3346 59.733 65.3346C59.733 65.3347 59.733 65.3347 59.733 65.3348C59.733 65.3348 59.733 65.3348 59.733 65.3349C59.733 65.3349 59.733 65.335 59.733 65.335C59.733 65.335 59.733 65.3351 59.733 65.3351C59.733 65.3352 59.733 65.3352 59.733 65.3353C59.733 65.3353 59.733 65.3353 59.733 65.3354C59.733 65.3354 59.733 65.3355 59.733 65.3355C59.733 65.3355 59.733 65.3356 59.733 65.3356C59.733 65.3357 59.733 65.3357 59.733 65.3357C59.733 65.3358 59.733 65.3358 59.733 65.3359C59.733 65.3359 59.733 65.3359 59.733 65.336C59.733 65.336 59.733 65.3361 59.733 65.3361C59.733 65.3361 59.733 65.3362 59.733 65.3362C59.733 65.3363 59.733 65.3363 59.733 65.3363C59.733 65.3364 59.733 65.3364 59.733 65.3365C59.733 65.3365 59.733 65.3366 59.733 65.3366C59.733 65.3366 59.733 65.3367 59.733 65.3367C59.733 65.3368 59.733 65.3368 59.733 65.3368C59.733 65.3369 59.733 65.3369 59.733 65.337C59.733 65.337 59.733 65.337 59.733 65.3371C59.733 65.3371 59.733 65.3372 59.733 65.3372C59.733 65.3372 59.733 65.3373 59.733 65.3373C59.733 65.3374 59.733 65.3374 59.733 65.3375C59.733 65.3375 59.733 65.3375 59.733 65.3376C59.733 65.3376 59.733 65.3377 59.733 65.3377C59.733 65.3377 59.733 65.3378 59.733 65.3378C59.733 65.3379 59.733 65.3379 59.733 65.3379C59.733 65.338 59.733 65.338 59.733 65.3381C59.733 65.3381 59.733 65.3381 59.733 65.3382C59.733 65.3382 59.733 65.3383 59.733 65.3383C59.733 65.3383 59.733 65.3384 59.733 65.3384C59.733 65.3385 59.733 65.3385 59.733 65.3386C59.733 65.3386 59.733 65.3386 59.733 65.3387C59.733 65.3387 59.733 65.3388 59.733 65.3388C59.733 65.3388 59.733 65.3389 59.733 65.3389C59.733 65.339 59.733 65.339 59.733 65.339C59.733 65.3391 59.733 65.3391 59.733 65.3392C59.733 65.3392 59.733 65.3392 59.733 65.3393C59.733 65.3393 59.733 65.3394 59.733 65.3394C59.733 65.3394 59.733 65.3395 59.733 65.3395C59.733 65.3396 59.733 65.3396 59.733 65.3396C59.733 65.3397 59.733 65.3397 59.733 65.3398C59.733 65.3398 59.733 65.3399 59.733 65.3399C59.733 65.3399 59.733 65.34 59.733 65.34C59.733 65.3401 59.733 65.3401 59.733 65.3401C59.733 65.3402 59.733 65.3402 59.733 65.3403C59.733 65.3403 59.733 65.3403 59.733 65.3404C59.733 65.3404 59.733 65.3405 59.733 65.3405C59.733 65.3405 59.733 65.3406 59.733 65.3406C59.733 65.3407 59.733 65.3407 59.733 65.3407C59.733 65.3408 59.733 65.3408 59.733 65.3409C59.733 65.3409 59.733 65.341 59.733 65.341C59.733 65.341 59.733 65.3411 59.733 65.3411C59.733 65.3412 59.733 65.3412 59.733 65.3412C59.733 65.3413 59.733 65.3413 59.733 65.3414C59.733 65.3414 59.733 65.3414 59.733 65.3415C59.733 65.3415 59.733 65.3416 59.733 65.3416C59.733 65.3416 59.733 65.3417 59.733 65.3417C59.733 65.3418 59.733 65.3418 59.733 65.3418C59.733 65.3419 59.733 65.3419 59.733 65.342C59.733 65.342 59.733 65.3421 59.733 65.3421C59.733 65.3421 59.733 65.3422 59.733 65.3422C59.733 65.3423 59.733 65.3423 59.733 65.3423C59.733 65.3424 59.733 65.3424 59.733 65.3425C59.733 65.3425 59.733 65.3425 59.733 65.3426C59.733 65.3426 59.733 65.3427 59.733 65.3427C59.733 65.3427 59.733 65.3428 59.733 65.3428C59.733 65.3429 59.733 65.3429 59.733 65.3429C59.733 65.343 59.733 65.343 59.733 65.3431C59.733 65.3431 59.733 65.3432 59.733 65.3432C59.733 65.3432 59.733 65.3433 59.733 65.3433C59.733 65.3434 59.733 65.3434 59.733 65.3434C59.733 65.3435 59.733 65.3435 59.733 65.3436C59.733 65.3436 59.733 65.3436 59.733 65.3437C59.733 65.3437 59.733 65.3438 59.733 65.3438C59.733 65.3438 59.733 65.3439 59.733 65.3439C59.733 65.344 59.733 65.344 59.733 65.344C59.733 65.3441 59.733 65.3441 59.733 65.3442C59.733 65.3442 59.733 65.3443 59.733 65.3443C59.733 65.3443 59.733 65.3444 59.733 65.3444C59.733 65.3445 59.733 65.3445 59.733 65.3445C59.733 65.3446 59.733 65.3446 59.733 65.3447C59.733 65.3447 59.733 65.3447 59.733 65.3448C59.733 65.3448 59.733 65.3449 59.733 65.3449C59.733 65.3449 59.733 65.345 59.733 65.345C59.733 65.3451 59.733 65.3451 59.733 65.3451C59.733 65.3452 59.733 65.3452 59.733 65.3453C59.733 65.3453 59.733 65.3454 59.733 65.3454C59.733 65.3454 59.733 65.3455 59.733 65.3455C59.733 65.3456 59.733 65.3456 59.733 65.3456C59.733 65.3457 59.733 65.3457 59.733 65.3458C59.733 65.3458 59.733 65.3458 59.733 65.3459C59.733 65.3459 59.733 65.346 59.733 65.346C59.733 65.346 59.733 65.3461 59.733 65.3461C59.733 65.3462 59.733 65.3462 59.733 65.3462C59.733 65.3463 59.733 65.3463 59.733 65.3464C59.733 65.3464 59.733 65.3465 59.733 65.3465C59.733 65.3465 59.733 65.3466 59.733 65.3466C59.733 65.3467 59.733 65.3467 59.733 65.3467C59.733 65.3468 59.733 65.3468 59.733 65.3469C59.733 65.3469 59.733 65.3469 59.733 65.347C59.733 65.347 59.733 65.3471 59.733 65.3471C59.733 65.3471 59.733 65.3472 59.733 65.3472C59.733 65.3473 59.733 65.3473 59.733 65.3473C59.733 65.3474 59.733 65.3474 59.733 65.3475C59.733 65.3475 59.733 65.3476 59.733 65.3476C59.733 65.3476 59.733 65.3477 59.733 65.3477C59.733 65.3478 59.733 65.3478 59.733 65.3478C59.733 65.3479 59.733 65.3479 59.733 65.348C59.733 65.348 59.733 65.348 59.733 65.3481C59.733 65.3481 59.733 65.3482 59.733 65.3482C59.733 65.3482 59.733 65.3483 59.733 65.3483C59.733 65.3484 59.733 65.3484 59.733 65.3484C59.733 65.3485 59.733 65.3485 59.733 65.3486C59.733 65.3486 59.733 65.3487 59.733 65.3487C59.733 65.3487 59.733 65.3488 59.733 65.3488C59.733 65.3489 59.733 65.3489 59.733 65.3489C59.733 65.349 59.733 65.349 59.733 65.3491C59.733 65.3491 59.733 65.3491 59.733 65.3492C59.733 65.3492 59.733 65.3493 59.733 65.3493C59.733 65.3493 59.733 65.3494 59.733 65.3494C59.733 65.3495 59.733 65.3495 59.733 65.3495C59.733 65.3496 59.733 65.3496 59.733 65.3497C59.733 65.3497 59.733 65.3498 59.733 65.3498C59.733 65.3498 59.733 65.3499 59.733 65.3499C59.733 65.35 59.733 65.35 59.733 65.35C59.733 65.3501 59.733 65.3501 59.733 65.3502C59.733 65.3502 59.733 65.3502 59.733 65.3503C59.733 65.3503 59.733 65.3504 59.733 65.3504C59.733 65.3504 59.733 65.3505 59.733 65.3505C59.733 65.3506 59.733 65.3506 59.733 65.3506C59.733 65.3507 59.733 65.3507 59.733 65.3508C59.733 65.3508 59.733 65.3509 59.733 65.3509C59.733 65.3509 59.733 65.351 59.733 65.351C59.733 65.3511 59.733 65.3511 59.733 65.3511C59.733 65.3512 59.733 65.3512 59.733 65.3513C59.733 65.3513 59.733 65.3513 59.733 65.3514C59.733 65.3514 59.733 65.3515 59.733 65.3515C59.733 65.3515 59.733 65.3516 59.733 65.3516C59.733 65.3517 59.733 65.3517 59.733 65.3517C59.733 65.3518 59.733 65.3518 59.733 65.3519C59.733 65.3519 59.733 65.352 59.733 65.352C59.733 65.352 59.733 65.3521 59.733 65.3521C59.733 65.3522 59.733 65.3522 59.733 65.3522C59.733 65.3523 59.733 65.3523 59.733 65.3524C59.733 65.3524 59.733 65.3524 59.733 65.3525C59.733 65.3525 59.733 65.3526 59.733 65.3526C59.733 65.3526 59.733 65.3527 59.733 65.3527C59.733 65.3528 59.733 65.3528 59.733 65.3528C59.733 65.3529 59.733 65.3529 59.733 65.353C59.733 65.353 59.733 65.3531 59.733 65.3531C59.733 65.3531 59.733 65.3532 59.733 65.3532C59.733 65.3533 59.733 65.3533 59.733 65.3533C59.733 65.3534 59.733 65.3534 59.733 65.3535C59.733 65.3535 59.733 65.3535 59.733 65.3536C59.733 65.3536 59.733 65.3537 59.733 65.3537C59.733 65.3537 59.733 65.3538 59.733 65.3538C59.733 65.3539 59.733 65.3539 59.733 65.3539C59.733 65.354 59.733 65.354 59.733 65.3541C59.733 65.3541 59.733 65.3542 59.733 65.3542C59.733 65.3542 59.733 65.3543 59.733 65.3543C59.733 65.3544 59.733 65.3544 59.733 65.3544C59.733 65.3545 59.733 65.3545 59.733 65.3546C59.733 65.3546 59.733 65.3546 59.733 65.3547C59.733 65.3547 59.733 65.3548 59.733 65.3548C59.733 65.3548 59.733 65.3549 59.733 65.3549C59.733 65.355 59.733 65.355 59.733 65.355C59.733 65.3551 59.733 65.3551 59.733 65.3552C59.733 65.3552 59.733 65.3553 59.733 65.3553C59.733 65.3553 59.733 65.3554 59.733 65.3554C59.733 65.3555 59.733 65.3555 59.733 65.3555C59.733 65.3556 59.733 65.3556 59.733 65.3557C59.733 65.3557 59.733 65.3557 59.733 65.3558C59.733 65.3558 59.733 65.3559 59.733 65.3559C59.733 65.3559 59.733 65.356 59.733 65.356C59.733 65.3561 59.733 65.3561 59.733 65.3561C59.733 65.3562 59.733 65.3562 59.733 65.3563C59.733 65.3563 59.733 65.3563 59.733 65.3564C59.733 65.3564 59.733 65.3565 59.733 65.3565C59.733 65.3566 59.733 65.3566 59.733 65.3566C59.733 65.3567 59.733 65.3567 59.733 65.3568C59.733 65.3568 59.733 65.3568 59.733 65.3569C59.733 65.3569 59.733 65.357 59.733 65.357C59.733 65.357 59.733 65.3571 59.733 65.3571C59.733 65.3572 59.733 65.3572 59.733 65.3572C59.733 65.3573 59.733 65.3573 59.733 65.3574C59.733 65.3574 59.733 65.3575 59.733 65.3575C59.733 65.3575 59.733 65.3576 59.733 65.3576C59.733 65.3577 59.733 65.3577 59.733 65.3577C59.733 65.3578 59.733 65.3578 59.733 65.3579C59.733 65.3579 59.733 65.3579 59.733 65.358C59.733 65.358 59.733 65.3581 59.733 65.3581C59.733 65.3581 59.733 65.3582 59.733 65.3582C59.733 65.3583 59.733 65.3583 59.733 65.3583C59.733 65.3584 59.733 65.3584 59.733 65.3585C59.733 65.3585 59.733 65.3585 59.733 65.3586C59.733 65.3586 59.733 65.3587 59.733 65.3587C59.733 65.3588 59.733 65.3588 59.733 65.3588C59.733 65.3589 59.733 65.3589 59.733 65.359C59.733 65.359 59.733 65.359 59.733 65.3591C59.733 65.3591 59.733 65.3592 59.733 65.3592C59.733 65.3592 59.733 65.3593 59.733 65.3593C59.733 65.3594 59.733 65.3594 59.733 65.3594C59.733 65.3595 59.733 65.3595 59.733 65.3596C59.733 65.3596 59.733 65.3596 59.733 65.3597C59.733 65.3597 59.733 65.3598 59.733 65.3598C59.733 65.3599 59.733 65.3599 59.733 65.3599C59.733 65.36 59.733 65.36 59.733 65.3601C59.733 65.3601 59.733 65.3601 59.733 65.3602C59.733 65.3602 59.733 65.3603 59.733 65.3603C59.733 65.3603 59.733 65.3604 59.733 65.3604C59.733 65.3605 59.733 65.3605 59.733 65.3605C59.733 65.3606 59.733 65.3606 59.733 65.3607C59.733 65.3607 59.733 65.3608 59.733 65.3608C59.733 65.3608 59.733 65.3609 59.733 65.3609C59.733 65.361 59.733 65.361 59.733 65.361C59.733 65.3611 59.733 65.3611 59.733 65.3612C59.733 65.3612 59.733 65.3612 59.733 65.3613C59.733 65.3613 59.733 65.3614 59.733 65.3614C59.733 65.3614 59.733 65.3615 59.733 65.3615C59.733 65.3616 59.733 65.3616 59.733 65.3616C59.733 65.3617 59.733 65.3617 59.733 65.3618C59.733 65.3618 59.733 65.3618 59.733 65.3619C59.733 65.3619 59.733 65.362 59.733 65.362C59.733 65.3621 59.733 65.3621 59.733 65.3621C59.733 65.3622 59.733 65.3622 59.733 65.3623C59.733 65.3623 59.733 65.3623 59.733 65.3624C59.733 65.3624 59.733 65.3625 59.733 65.3625C59.733 65.3625 59.733 65.3626 59.733 65.3626C59.733 65.3627 59.733 65.3627 59.733 65.3627C59.733 65.3628 59.733 65.3628 59.733 65.3629C59.733 65.3629 59.733 65.3629 59.733 65.363C59.733 65.363 59.733 65.3631 59.733 65.3631C59.733 65.3632 59.733 65.3632 59.733 65.3632C59.733 65.3633 59.733 65.3633 59.733 65.3634C59.733 65.3634 59.733 65.3634 59.733 65.3635C59.733 65.3635 59.733 65.3636 59.733 65.3636C59.733 65.3636 59.733 65.3637 59.733 65.3637C59.733 65.3638 59.733 65.3638 59.733 65.3638C59.733 65.3639 59.733 65.3639 59.733 65.364C59.733 65.364 59.733 65.364 59.733 65.3641C59.733 65.3641 59.733 65.3642 59.733 65.3642C59.733 65.3643 59.733 65.3643 59.733 65.3643C59.733 65.3644 59.733 65.3644 59.733 65.3645C59.733 65.3645 59.733 65.3645 59.733 65.3646C59.733 65.3646 59.733 65.3647 59.733 65.3647C59.733 65.3647 59.733 65.3648 59.733 65.3648C59.733 65.3649 59.733 65.3649 59.733 65.3649C59.733 65.365 59.733 65.365 59.733 65.3651C59.733 65.3651 59.733 65.3651 59.733 65.3652C59.733 65.3652 59.733 65.3653 59.733 65.3653C59.733 65.3654 59.733 65.3654 59.733 65.3654C59.733 65.3655 59.733 65.3655 59.733 65.3656C59.733 65.3656 59.733 65.3656 59.733 65.3657C59.733 65.3657 59.733 65.3658 59.733 65.3658C59.733 65.3658 59.733 65.3659 59.733 65.3659C59.733 65.366 59.733 65.366 59.733 65.366C59.733 65.3661 59.733 65.3661 59.733 65.3662C59.733 65.3662 59.733 65.3662 59.733 65.3663C59.733 65.3663 59.733 65.3664 59.733 65.3664C59.733 65.3665 59.733 65.3665 59.733 65.3665C59.733 65.3666 59.733 65.3666 59.733 65.3667C59.733 65.3667 59.733 65.3667 59.733 65.3668C59.733 65.3668 59.733 65.3669 59.733 65.3669C59.733 65.3669 59.733 65.367 59.733 65.367C59.733 65.3671 59.733 65.3671 59.733 65.3671C59.733 65.3672 59.733 65.3672 59.733 65.3673C59.733 65.3673 59.733 65.3673 59.733 65.3674C59.733 65.3674 59.733 65.3675 59.733 65.3675C59.733 65.3676 59.733 65.3676 59.733 65.3676C59.733 65.3677 59.733 65.3677 59.733 65.3678C59.733 65.3678 59.733 65.3678 59.733 65.3679C59.733 65.3679 59.733 65.368 59.733 65.368C59.733 65.368 59.733 65.3681 59.733 65.3681C59.733 65.3682 59.733 65.3682 59.733 65.3682C59.733 65.3683 59.733 65.3683 59.733 65.3684C59.733 65.3684 59.733 65.3684 59.733 65.3685C59.733 65.3685 59.733 65.3686 59.733 65.3686C59.733 65.3687 59.733 65.3687 59.733 65.3687C59.733 65.3688 59.733 65.3688 59.733 65.3689C59.733 65.3689 59.733 65.3689 59.733 65.369C59.733 65.369 59.733 65.3691 59.733 65.3691C59.733 65.3691 59.733 65.3692 59.733 65.3692C59.733 65.3693 59.733 65.3693 59.733 65.3693C59.733 65.3694 59.733 65.3694 59.733 65.3695C59.733 65.3695 59.733 65.3695 59.733 65.3696C59.733 65.3696 59.733 65.3697 59.733 65.3697C59.733 65.3698 59.733 65.3698 59.733 65.3698C59.733 65.3699 59.733 65.3699 59.733 65.37C59.733 65.37 59.733 65.37 59.733 65.3701C59.733 65.3701 59.733 65.3702 59.733 65.3702C59.733 65.3702 59.733 65.3703 59.733 65.3703C59.733 65.3704 59.733 65.3704 59.733 65.3704C59.733 65.3705 59.733 65.3705 59.733 65.3706C59.733 65.3706 59.733 65.3706 59.733 65.3707C59.733 65.3707 59.733 65.3708 59.733 65.3708C59.733 65.3709 59.733 65.3709 59.733 65.3709C59.733 65.371 59.733 65.371 59.733 65.3711C59.733 65.3711 59.733 65.3711 59.733 65.3712C59.733 65.3712 59.733 65.3713 59.733 65.3713C59.733 65.3713 59.733 65.3714 59.733 65.3714C59.733 65.3715 59.733 65.3715 59.733 65.3715C59.733 65.3716 59.733 65.3716 59.733 65.3717C59.733 65.3717 59.733 65.3717 59.733 65.3718C59.733 65.3718 59.733 65.3719 59.733 65.3719C59.733 65.372 59.733 65.372 59.733 65.372C59.733 65.3721 59.733 65.3721 59.733 65.3722C59.733 65.3722 59.733 65.3722 59.733 65.3723C59.733 65.3723 59.733 65.3724 59.733 65.3724C59.733 65.3724 59.733 65.3725 59.733 65.3725C59.733 65.3726 59.733 65.3726 59.733 65.3726C59.733 65.3727 59.733 65.3727 59.733 65.3728C59.733 65.3728 59.733 65.3728 59.733 65.3729C59.733 65.3729 59.733 65.373 59.733 65.373C59.733 65.3731 59.733 65.3731 59.733 65.3731C59.733 65.3732 59.733 65.3732 59.733 65.3733C59.733 65.3733 59.733 65.3733 59.733 65.3734C59.733 65.3734 59.733 65.3735 59.733 65.3735C59.733 65.3735 59.733 65.3736 59.733 65.3736C59.733 65.3737 59.733 65.3737 59.733 65.3737C59.733 65.3738 59.733 65.3738 59.733 65.3739C59.733 65.3739 59.733 65.3739 59.733 65.374C59.733 65.374 59.733 65.3741 59.733 65.3741C59.733 65.3742 59.733 65.3742 59.733 65.3742C59.733 65.3743 59.733 65.3743 59.733 65.3744C59.733 65.3744 59.733 65.3744 59.733 65.3745C59.733 65.3745 59.733 65.3746 59.733 65.3746C59.733 65.3746 59.733 65.3747 59.733 65.3747C59.733 65.3748 59.733 65.3748 59.733 65.3748C59.733 65.3749 59.733 65.3749 59.733 65.375C59.733 65.375 59.733 65.375 59.733 65.3751C59.733 65.3751 59.733 65.3752 59.733 65.3752C59.733 65.3752 59.733 65.3753 59.733 65.3753C59.733 65.3754 59.733 65.3754 59.733 65.3755C59.733 65.3755 59.733 65.3755 59.733 65.3756C59.733 65.3756 59.733 65.3757 59.733 65.3757C59.733 65.3757 59.733 65.3758 59.733 65.3758C59.733 65.3759 59.733 65.3759 59.733 65.3759C59.733 65.376 59.733 65.376 59.733 65.3761C59.733 65.3761 59.733 65.3761 59.733 65.3762C59.733 65.3762 59.733 65.3763 59.733 65.3763C59.733 65.3764 59.733 65.3764 59.733 65.3764C59.733 65.3765 59.733 65.3765 59.733 65.3766C59.733 65.3766 59.733 65.3766 59.733 65.3767C59.733 65.3767 59.733 65.3768 59.733 65.3768C59.733 65.3768 59.733 65.3769 59.733 65.3769C59.733 65.377 59.733 65.377 59.733 65.377C59.733 65.3771 59.733 65.3771 59.733 65.3772C59.733 65.3772 59.733 65.3772 59.733 65.3773C59.733 65.3773 59.733 65.3774 59.733 65.3774C59.733 65.3774 59.733 65.3775 59.733 65.3775C59.733 65.3776 59.733 65.3776 59.733 65.3777C59.733 65.3777 59.733 65.3777 59.733 65.3778C59.733 65.3778 59.733 65.3779 59.733 65.3779C59.733 65.3779 59.733 65.378 59.733 65.378C59.733 65.3781 59.733 65.3781 59.733 65.3781C59.733 65.3782 59.733 65.3782 59.733 65.3783C59.733 65.3783 59.733 65.3783 59.733 65.3784C59.733 65.3784 59.733 65.3785 59.733 65.3785C59.733 65.3785 59.733 65.3786 59.733 65.3786C59.733 65.3787 59.733 65.3787 59.733 65.3788C59.733 65.3788 59.733 65.3788 59.733 65.3789C59.733 65.3789 59.733 65.379 59.733 65.379C59.733 65.379 59.733 65.3791 59.733 65.3791C59.733 65.3792 59.733 65.3792 59.733 65.3792C59.733 65.3793 59.733 65.3793 59.733 65.3794C59.733 65.3794 59.733 65.3794 59.733 65.3795C59.733 65.3795 59.733 65.3796 59.733 65.3796C59.733 65.3797 59.733 65.3797 59.733 65.3797C59.733 65.3798 59.733 65.3798 59.733 65.3799C59.733 65.3799 59.733 65.3799 59.733 65.38C59.733 65.38 59.733 65.3801 59.733 65.3801C59.733 65.3801 59.733 65.3802 59.733 65.3802C59.733 65.3803 59.733 65.3803 59.733 65.3803C59.733 65.3804 59.733 65.3804 59.733 65.3805C59.733 65.3805 59.733 65.3805 59.733 65.3806C59.733 65.3806 59.733 65.3807 59.733 65.3807C59.733 65.3807 59.733 65.3808 59.733 65.3808C59.733 65.3809 59.733 65.3809 59.733 65.381C59.733 65.381 59.733 65.381 59.733 65.3811C59.733 65.3811 59.733 65.3812 59.733 65.3812C59.733 65.3812 59.733 65.3813 59.733 65.3813C59.733 65.3814 59.733 65.3814 59.733 65.3814C59.733 65.3815 59.733 65.3815 59.733 65.3816C59.733 65.3816 59.733 65.3816 59.733 65.3817C59.733 65.3817 59.733 65.3818 59.733 65.3818C59.733 65.3818 59.733 65.3819 59.733 65.3819C59.733 65.382 59.733 65.382 59.733 65.3821C59.733 65.3821 59.733 65.3821 59.733 65.3822C59.733 65.3822 59.733 65.3823 59.733 65.3823C59.733 65.3823 59.733 65.3824 59.733 65.3824C59.733 65.3825 59.733 65.3825 59.733 65.3825C59.733 65.3826 59.733 65.3826 59.733 65.3827C59.733 65.3827 59.733 65.3827 59.733 65.3828C59.733 65.3828 59.733 65.3829 59.733 65.3829C59.733 65.3829 59.733 65.383 59.733 65.383C59.733 65.3831 59.733 65.3831 59.733 65.3832C59.733 65.3832 59.733 65.3832 59.733 65.3833C59.733 65.3833 59.733 65.3834 59.733 65.3834C59.733 65.3834 59.733 65.3835 59.733 65.3835C59.733 65.3836 59.733 65.3836 59.733 65.3836C59.733 65.3837 59.733 65.3837 59.733 65.3838C59.733 65.3838 59.733 65.3838 59.733 65.3839C59.733 65.3839 59.733 65.384 59.733 65.384C59.733 65.384 59.733 65.3841 59.733 65.3841C59.733 65.3842 59.733 65.3842 59.733 65.3843C59.733 65.3843 59.733 65.3843 59.733 65.3844C59.733 65.3844 59.733 65.3845 59.733 65.3845C59.733 65.3845 59.733 65.3846 59.733 65.3846C59.733 65.3847 59.733 65.3847 59.733 65.3847C59.733 65.3848 59.733 65.3848 59.733 65.3849C59.733 65.3849 59.733 65.3849 59.733 65.385C59.733 65.385 59.733 65.3851 59.733 65.3851C59.733 65.3851 59.733 65.3852 59.733 65.3852C59.733 65.3853 59.733 65.3853 59.733 65.3854C59.733 65.3854 59.733 65.3854 59.733 65.3855C59.733 65.3855 59.733 65.3856 59.733 65.3856C59.733 65.3856 59.733 65.3857 59.733 65.3857C59.733 65.3858 59.733 65.3858 59.733 65.3858C59.733 65.3859 59.733 65.3859 59.733 65.386C59.733 65.386 59.733 65.386 59.733 65.3861C59.733 65.3861 59.733 65.3862 59.733 65.3862C59.733 65.3862 59.733 65.3863 59.733 65.3863C59.733 65.3864 59.733 65.3864 59.733 65.3865C59.733 65.3865 59.733 65.3865 59.733 65.3866C59.733 65.3866 59.733 65.3867 59.733 65.3867C59.733 65.3867 59.733 65.3868 59.733 65.3868C59.733 65.3869 59.733 65.3869 59.733 65.3869C59.733 65.387 59.733 65.387 59.733 65.3871C59.733 65.3871 59.733 65.3871 59.733 65.3872C59.733 65.3872 59.733 65.3873 59.733 65.3873C59.733 65.3873 59.733 65.3874 59.733 65.3874C59.733 65.3875 59.733 65.3875 59.733 65.3876C59.733 65.3876 59.733 65.3876 59.733 65.3877C59.733 65.3877 59.733 65.3878 59.733 65.3878C59.733 65.3878 59.733 65.3879 59.733 65.3879C59.733 65.388 59.733 65.388 59.733 65.388C59.733 65.3881 59.733 65.3881 59.733 65.3882C59.733 65.3882 59.733 65.3882 59.733 65.3883C59.733 65.3883 59.733 65.3884 59.733 65.3884C59.733 65.3884 59.733 65.3885 59.733 65.3885C59.733 65.3886 59.733 65.3886 59.733 65.3887C59.733 65.3887 59.733 65.3887 59.733 65.3888C59.733 65.3888 59.733 65.3889 59.733 65.3889C59.733 65.3889 59.733 65.389 59.733 65.389C59.733 65.3891 59.733 65.3891 59.733 65.3891C59.733 65.3892 59.733 65.3892 59.733 65.3893C59.733 65.3893 59.733 65.3893 59.733 65.3894C59.733 65.3894 59.733 65.3895 59.733 65.3895C59.733 65.3895 59.733 65.3896 59.733 65.3896C59.733 65.3897 59.733 65.3897 59.733 65.3898C59.733 65.3898 59.733 65.3898 59.733 65.3899C59.733 65.3899 59.733 65.39 59.733 65.39C59.733 65.39 59.733 65.3901 59.733 65.3901C59.733 65.3902 59.733 65.3902 59.733 65.3902C59.733 65.3903 59.733 65.3903 59.733 65.3904C59.733 65.3904 59.733 65.3904 59.733 65.3905C59.733 65.3905 59.733 65.3906 59.733 65.3906C59.733 65.3906 59.733 65.3907 59.733 65.3907C59.733 65.3908 59.733 65.3908 59.733 65.3909H60.733ZM60.733 65.3283V64.7925H59.733V65.3283H60.733ZM60.7191 64.9095L61.2677 62.6315L60.2955 62.3973L59.7469 64.6754L60.7191 64.9095ZM61.2632 62.6489L64.5421 50.9073L63.5789 50.6384L60.3 62.3799L61.2632 62.6489ZM63.5789 50.9072L66.8546 62.6488L67.8178 62.3801L64.5421 50.6385L63.5789 50.9072ZM66.8501 62.6315L67.3987 64.9095L68.3709 64.6754L67.8223 62.3973L66.8501 62.6315ZM67.3848 64.7925V65.3122H68.3848V64.7925H67.3848ZM67.3849 65.305C67.3813 65.5545 67.4681 65.7968 67.6294 65.9872L68.3925 65.341C68.3874 65.335 68.3847 65.3273 68.3848 65.3194L67.3849 65.305ZM67.6294 65.9872C67.7906 66.1776 68.0153 66.3032 68.2619 66.3408L68.4125 65.3522C68.4047 65.351 68.3976 65.347 68.3925 65.341L67.6294 65.9872ZM68.2761 66.3427C68.4088 66.359 68.5434 66.349 68.6723 66.3133L68.4047 65.3497C68.4026 65.3503 68.4004 65.3505 68.3983 65.3502L68.2761 66.3427ZM68.6723 66.3133C68.8011 66.2775 68.9216 66.2167 69.0269 66.1343L68.4105 65.3468C68.4088 65.3481 68.4068 65.3491 68.4047 65.3497L68.6723 66.3133ZM69.0269 66.1343C69.1321 66.0518 69.2201 65.9495 69.2858 65.833L68.4147 65.3419C68.4136 65.3438 68.4122 65.3455 68.4105 65.3468L69.0269 66.1343ZM69.2858 65.833C69.3514 65.7166 69.3935 65.5883 69.4095 65.4556L68.4167 65.3357C68.4164 65.3379 68.4157 65.34 68.4147 65.3419L69.2858 65.833ZM69.4116 65.4339C69.4152 65.3876 69.4152 65.3411 69.4116 65.2949L68.4146 65.3713C68.4142 65.3667 68.4142 65.3621 68.4146 65.3574L69.4116 65.4339ZM69.4131 65.3331V64.7459H68.4131V65.3331H69.4131ZM69.4047 64.8372L69.6341 63.6019L68.6509 63.4194L68.4215 64.6546L69.4047 64.8372ZM69.6343 63.601C69.788 62.764 69.876 61.9162 69.8974 61.0655L68.8977 61.0404C68.8776 61.8389 68.795 62.6347 68.6507 63.4203L69.6343 63.601ZM69.8974 61.0633C69.9177 60.0882 69.7911 59.1156 69.522 58.1781L68.5608 58.454C68.8023 59.2951 68.9158 60.1677 68.8977 61.0426L69.8974 61.0633ZM69.5222 58.1789L66.9845 49.2849L66.0228 49.5592L68.5606 58.4533L69.5222 58.1789ZM66.9615 49.623C67.0519 49.4169 67.0985 49.1942 67.0983 48.9691L66.0983 48.9702C66.0984 49.0566 66.0805 49.142 66.0458 49.2211L66.9615 49.623ZM67.0983 48.9696V45.6954H66.0983V48.9696H67.0983ZM67.0983 45.7002C67.1022 45.2897 66.9514 44.8928 66.6759 44.5885L65.9346 45.2598C66.0414 45.3777 66.0999 45.5315 66.0983 45.6905L67.0983 45.7002ZM66.6759 44.5885C66.4003 44.2842 66.0203 44.0949 65.6114 44.0583L65.5222 45.0543C65.6806 45.0685 65.8279 45.1419 65.9346 45.2598L66.6759 44.5885ZM66.0668 44.5563V43.9243H65.0668V44.5563H66.0668ZM65.5648 44.4242L70.6371 44.4451L70.6412 43.4451L65.5689 43.4243L65.5648 44.4242ZM70.1392 43.9451V65.5914H71.1392V43.9451H70.1392ZM26.1206 79.4597H40.3735V78.4597H26.1206V79.4597ZM39.8735 78.9597V83.7516H40.8735V78.9597H39.8735ZM40.3735 83.2516H26.1206V84.2516H40.3735V83.2516ZM26.6206 83.7516V78.9597H25.6206V83.7516H26.6206ZM55.782 50.3894V60.6904H56.782V50.3894H55.782ZM56.282 60.1904H44.8267V61.1904H56.282V60.1904ZM45.3267 60.6904V50.2258H44.3267V60.6904H45.3267ZM44.8477 49.3876L43.0269 50.2859L43.4694 51.1827L45.2902 50.2843L44.8477 49.3876ZM43.2482 51.2343H45.0689V50.2343H43.2482V51.2343ZM56.0153 50.5415L57.411 51.2762L57.8768 50.3914L56.4812 49.6566L56.0153 50.5415ZM57.6439 50.3338H56.2483V51.3338H57.6439V50.3338ZM52.6859 53.1086V57.6904H53.6859V53.1086H52.6859ZM53.1859 57.1904H47.9901V58.1904H53.1859V57.1904ZM48.4901 57.6904V53.1086H47.4901V57.6904H48.4901ZM44.4529 64.5304H47.5329V63.5304H44.4529V64.5304ZM47.0329 64.0304V67.0352H48.0329V64.0304H47.0329ZM54.156 67.0352V64.0304H53.156V67.0352H54.156ZM53.656 64.5304H56.6622V63.5304H53.656V64.5304ZM44.0422 69.1234H57.1883V68.1234H44.0422V69.1234ZM50.0535 63.4673V68.6234H51.0535V63.4673H50.0535ZM34.2065 75.9649L38.658 74.3623L38.3193 73.4214L33.8677 75.024L34.2065 75.9649ZM37.9887 73.8918V77.0763H38.9887V73.8918H37.9887ZM38.6561 76.6051L34.2045 75.0233L33.8697 75.9656L38.3212 77.5474L38.6561 76.6051ZM63.159 74.3918H65.4898V73.3918H63.159V74.3918ZM64.9898 73.8918V77.0763H65.9898V73.8918H64.9898ZM65.4898 76.5763H63.159V77.5763H65.4898V76.5763ZM38.4887 74.3918H63.159V73.3918H38.4887V74.3918ZM62.659 73.8918V77.0763H63.659V73.8918H62.659ZM63.159 76.5763H38.4887V77.5763H63.159V76.5763ZM45.0478 50.6742L50.8067 47.8347L50.3645 46.9378L44.6056 49.7773L45.0478 50.6742ZM50.3524 47.8285L56.0488 50.8317L56.5151 49.9471L50.8188 46.944L50.3524 47.8285Z" fill="#FFFDFD"/>
</g>
</svg>
