<svg width="114" height="104" viewBox="0 0 114 104" fill="none" xmlns="http://www.w3.org/2000/svg">
<g id="Group 1261152879">
<path id="Vector 16" d="M99.9391 78.5265C92.7407 84.3123 51.8119 103.581 40.8095 103.581C-31.1744 99.9651 9.18797 8.01157 32.8398 1.03757C56.4917 -5.93643 52.1493 24.3876 68.6028 28.262C81.7656 31.3616 94.626 34.1856 98.6537 35.9076C127.131 49.3706 108.937 71.2942 99.9391 78.5265Z" fill="#CA256D"/>
<path id="Vector" d="M66.6562 55.2004L66.1562 55.2004V55.2004H66.6562ZM66.6562 74.1299H67.1562H66.6562ZM63.888 76.8981V76.3981V76.8981ZM55.9776 83.5991L55.5199 83.8004C55.5998 83.9819 55.7793 84.0991 55.9776 84.0991V83.5991ZM58.9966 85.7223H59.4966H58.9966ZM58.9966 86V86.5C59.2728 86.5 59.4966 86.2761 59.4966 86H58.9966ZM37.7559 86H37.2559C37.2559 86.2761 37.4797 86.5 37.7559 86.5V86ZM37.7559 85.7223H38.2559V85.7222L37.7559 85.7223ZM39.8522 83.5991V83.0991L39.8459 83.0991L39.8522 83.5991ZM40.748 83.5991V84.0991C40.9465 84.0991 41.1261 83.9818 41.2059 83.8001L40.748 83.5991ZM42.0829 77.2744L42.5829 77.2755V77.2744H42.0829ZM42.0829 76.8981H42.5829C42.5829 76.622 42.359 76.3981 42.0829 76.3981V76.8981ZM30.7682 76.8981V76.3981V76.8981ZM28 55.2004L27.5 55.1988V55.2004H28ZM30.7682 52.4323V51.9322L30.7666 51.9323L30.7682 52.4323ZM63.9149 52.4323L63.9198 51.9323H63.9149V52.4323ZM47.9149 75.1601L48.4148 75.1715L48.4149 75.1658L47.9149 75.1601ZM47.1265 75.9306L47.1208 76.4306H47.1264L47.1265 75.9306ZM37.7469 38.5H65.3124V37.5H37.7469V38.5ZM65.3124 38.5C67.2776 38.5 68.8707 40.0931 68.8707 42.0582H69.8707C69.8707 39.5408 67.8299 37.5 65.3124 37.5V38.5ZM68.8707 42.0582V59.2945H69.8707V42.0582H68.8707ZM68.8707 59.2945C68.8707 61.2597 67.2776 62.8527 65.3124 62.8527V63.8527C67.8299 63.8527 69.8707 61.812 69.8707 59.2945H68.8707ZM65.3124 62.8527H37.7469V63.8527H65.3124V62.8527ZM37.7469 62.8527C35.7818 62.8527 34.1887 61.2597 34.1887 59.2945H33.1887C33.1887 61.812 35.2295 63.8527 37.7469 63.8527V62.8527ZM34.1887 59.2945V42.0582H33.1887V59.2945H34.1887ZM34.1887 42.0582C34.1887 40.0931 35.7818 38.5 37.7469 38.5V37.5C35.2295 37.5 33.1887 39.5408 33.1887 42.0582H34.1887ZM66.1562 55.2004V74.1299H67.1562V55.2004H66.1562ZM66.1562 74.1299C66.1562 74.7315 65.9172 75.3084 65.4919 75.7338L66.199 76.4409C66.8119 75.828 67.1562 74.9967 67.1562 74.1299H66.1562ZM65.4919 75.7338C65.0665 76.1591 64.4896 76.3981 63.888 76.3981V77.3981C64.7548 77.3981 65.5861 77.0538 66.199 76.4409L65.4919 75.7338ZM63.888 76.3981H54.6338V77.3981H63.888V76.3981ZM54.1339 76.8888C54.0898 79.2659 54.5627 81.6241 55.5199 83.8004L56.4353 83.3978C55.5364 81.3541 55.0923 79.1396 55.1337 76.9074L54.1339 76.8888ZM55.9776 84.0991H56.8735V83.0991H55.9776V84.0991ZM56.8735 84.0991C57.304 84.0991 57.7168 84.2701 58.0212 84.5745L58.7283 83.8674C58.2364 83.3755 57.5692 83.0991 56.8735 83.0991V84.0991ZM58.0212 84.5745C58.3256 84.8789 58.4966 85.2918 58.4966 85.7223H59.4966C59.4966 85.0266 59.2203 84.3594 58.7283 83.8674L58.0212 84.5745ZM58.4966 85.7223V86H59.4966V85.7223H58.4966ZM58.9966 85.5H37.7559V86.5H58.9966V85.5ZM38.2559 86V85.7223H37.2559V86H38.2559ZM38.2559 85.7222C38.2558 85.2953 38.424 84.8855 38.724 84.5817L38.0124 83.8791C37.5276 84.3701 37.2558 85.0323 37.2559 85.7223L38.2559 85.7222ZM38.724 84.5817C39.024 84.2779 39.4316 84.1045 39.8585 84.0991L39.8459 83.0991C39.1559 83.1079 38.4972 83.3881 38.0124 83.8791L38.724 84.5817ZM39.8522 84.0991H40.748V83.0991H39.8522V84.0991ZM41.2059 83.8001C42.1088 81.7431 42.5775 79.5219 42.5829 77.2755L41.5829 77.2732C41.5779 79.382 41.1378 81.4671 40.2902 83.3981L41.2059 83.8001ZM42.5829 77.2744V76.8981H41.5829V77.2744H42.5829ZM42.0829 76.3981H30.7682V77.3981H42.0829V76.3981ZM30.7682 76.3981C30.1666 76.3981 29.5897 76.1591 29.1643 75.7338L28.4572 76.4409C29.0701 77.0538 29.9014 77.3981 30.7682 77.3981V76.3981ZM29.1643 75.7338C28.739 75.3084 28.5 74.7315 28.5 74.1299H27.5C27.5 74.9967 27.8443 75.828 28.4572 76.4409L29.1643 75.7338ZM28.5 74.1299V55.2004H27.5V74.1299H28.5ZM28.5 55.2021C28.5019 54.6007 28.7417 54.0245 29.1669 53.5992L28.4598 52.8921C27.8478 53.5041 27.5028 54.3333 27.5 55.1988L28.5 55.2021ZM29.1669 53.5992C29.5922 53.1739 30.1684 52.9342 30.7698 52.9322L30.7666 51.9323C29.9011 51.935 29.0718 52.2801 28.4598 52.8921L29.1669 53.5992ZM30.7682 52.9323H63.9149V51.9323H30.7682V52.9323ZM63.91 52.9322C64.5078 52.938 65.0791 53.1796 65.4997 53.6043L66.2102 52.9007C65.6042 52.2887 64.781 51.9406 63.9198 51.9323L63.91 52.9322ZM65.4997 53.6043C65.9203 54.029 66.1562 54.6027 66.1562 55.2004L67.1562 55.2005C67.1563 54.3392 66.8163 53.5127 66.2102 52.9007L65.4997 53.6043ZM65.4216 41.1713C65.4216 41.291 65.3246 41.388 65.2049 41.388V42.388C65.8769 42.388 66.4216 41.8433 66.4216 41.1713H65.4216ZM65.2049 41.388C65.0853 41.388 64.9882 41.291 64.9882 41.1713H63.9882C63.9882 41.8433 64.533 42.388 65.2049 42.388V41.388ZM64.9882 41.1713C64.9882 41.0517 65.0853 40.9546 65.2049 40.9546V39.9546C64.533 39.9546 63.9882 40.4994 63.9882 41.1713H64.9882ZM65.2049 40.9546C65.3246 40.9546 65.4216 41.0517 65.4216 41.1713H66.4216C66.4216 40.4994 65.8769 39.9546 65.2049 39.9546V40.9546ZM63.2178 41.1713C63.2178 41.291 63.1208 41.388 63.0011 41.388V42.388C63.6731 42.388 64.2178 41.8433 64.2178 41.1713H63.2178ZM63.0011 41.388C62.8815 41.388 62.7844 41.291 62.7844 41.1713H61.7844C61.7844 41.8433 62.3292 42.388 63.0011 42.388V41.388ZM62.7844 41.1713C62.7844 41.0517 62.8815 40.9546 63.0011 40.9546V39.9546C62.3292 39.9546 61.7844 40.4994 61.7844 41.1713H62.7844ZM63.0011 40.9546C63.1208 40.9546 63.2178 41.0517 63.2178 41.1713H64.2178C64.2178 40.4994 63.6731 39.9546 63.0011 39.9546V40.9546ZM60.9961 41.1713C60.9961 41.291 60.8991 41.388 60.7794 41.388V42.388C61.4514 42.388 61.9961 41.8433 61.9961 41.1713H60.9961ZM60.7794 41.388C60.6597 41.388 60.5627 41.291 60.5627 41.1713H59.5627C59.5627 41.8433 60.1074 42.388 60.7794 42.388V41.388ZM60.5627 41.1713C60.5627 41.0517 60.6597 40.9546 60.7794 40.9546V39.9546C60.1074 39.9546 59.5627 40.4994 59.5627 41.1713H60.5627ZM60.7794 40.9546C60.8991 40.9546 60.9961 41.0517 60.9961 41.1713H61.9961C61.9961 40.4994 61.4514 39.9546 60.7794 39.9546V40.9546ZM48.4149 75.1658C48.4178 74.9128 48.3456 74.6646 48.2074 74.4527L47.3696 74.9987C47.3998 75.045 47.4156 75.0992 47.4149 75.1544L48.4149 75.1658ZM48.2074 74.4527C48.0692 74.2407 47.8713 74.0744 47.6387 73.9749L47.2454 74.8943C47.2962 74.9161 47.3394 74.9524 47.3696 74.9987L48.2074 74.4527ZM47.6387 73.9749C47.406 73.8754 47.1491 73.8471 46.9004 73.8936L47.0842 74.8766C47.1385 74.8664 47.1946 74.8726 47.2454 74.8943L47.6387 73.9749ZM46.9004 73.8936C46.6517 73.9401 46.4223 74.0594 46.2413 74.2362L46.9403 74.9514C46.9798 74.9128 47.0299 74.8868 47.0842 74.8766L46.9004 73.8936ZM46.2413 74.2362C46.0604 74.4131 45.9359 74.6396 45.8837 74.8872L46.8622 75.0936C46.8736 75.0395 46.9008 74.99 46.9403 74.9514L46.2413 74.2362ZM45.8837 74.8872C45.8315 75.1348 45.8538 75.3923 45.948 75.6272L46.8762 75.2552C46.8556 75.2039 46.8508 75.1476 46.8622 75.0936L45.8837 74.8872ZM45.948 75.6272C46.0421 75.862 46.2038 76.0637 46.4125 76.2067L46.9777 75.3817C46.9321 75.3505 46.8968 75.3065 46.8762 75.2552L45.948 75.6272ZM46.4125 76.2067C46.6213 76.3497 46.8677 76.4276 47.1208 76.4305L47.1323 75.4306C47.0771 75.43 47.0232 75.413 46.9777 75.3817L46.4125 76.2067ZM47.1264 76.4306C47.4631 76.4307 47.7864 76.2989 48.0272 76.0636L47.3283 75.3484C47.2744 75.4011 47.202 75.4306 47.1267 75.4306L47.1264 76.4306ZM48.0272 76.0636C48.268 75.8283 48.4071 75.5081 48.4148 75.1715L47.415 75.1488C47.4133 75.2241 47.3822 75.2958 47.3283 75.3484L48.0272 76.0636ZM33.6887 44.8158H69.3707V43.8158H33.6887V44.8158ZM28.2688 73.7967H66.925V72.7967H28.2688V73.7967ZM42.1277 77.3981H54.6338V76.3981H42.1277V77.3981Z" fill="white"/>
</g>
</svg>
