<svg width="114" height="104" viewBox="0 0 114 104" fill="none" xmlns="http://www.w3.org/2000/svg">
<g id="Group 1261152879">
<path id="Vector 16" d="M99.9391 78.5265C92.7407 84.3123 51.8119 103.581 40.8095 103.581C-31.1744 99.9651 9.18797 8.01157 32.8398 1.03757C56.4917 -5.93643 52.1493 24.3876 68.6028 28.262C81.7656 31.3616 94.626 34.1856 98.6537 35.9076C127.131 49.3706 108.937 71.2942 99.9391 78.5265Z" fill="#CA256D"/>
<path id="Vector" d="M60.2041 51.6325V38.5463C60.2041 38.2472 60.4518 38 60.7516 38H75.0649C75.3647 38 75.6124 38.2472 75.6124 38.5463V76.439C75.6124 76.7382 75.3647 76.9854 75.0649 76.9854H63.1502V74.2016C63.2023 74.2146 63.2545 74.2146 63.2936 74.2146H72.4969C72.9531 74.2016 73.292 73.8114 73.279 73.3691C73.266 72.9398 72.927 72.6016 72.4969 72.5886H63.2806C63.2284 72.5886 63.1763 72.5886 63.1372 72.6016V69.8959C63.1893 69.9089 63.2414 69.9089 63.2806 69.9089H72.4838C72.9401 69.8959 73.279 69.5057 73.266 69.0634C73.2529 68.6341 72.914 68.2959 72.4838 68.2829H63.2806C63.2284 68.2829 63.1763 68.2829 63.1372 68.2959V65.5902C63.1893 65.6033 63.2414 65.6033 63.2806 65.6033H72.4838C72.9401 65.5902 73.279 65.2 73.266 64.7577C73.2529 64.3285 72.914 63.9902 72.4838 63.9772H63.2806C63.2284 63.9772 63.1763 63.9772 63.1372 63.9902V54.2602M63.1763 73.9805H23.013V76.1268C23.013 77.3366 23.9907 78.3122 25.203 78.3122H60.9863C62.1986 78.3122 63.1763 77.3366 63.1763 76.1268V73.9805ZM63.1763 73.9805V53.0114C63.1763 52.2439 62.5506 51.6325 61.7814 51.6325H25.19C23.9777 51.6325 23 52.6081 23 53.8179V73.9805L63.1763 73.9805ZM45.5389 76.1398C45.5389 76.5951 45.1739 76.9593 44.7306 76.9593H41.4326C40.9763 76.9463 40.6374 76.5561 40.6504 76.1138C40.6635 75.6845 41.0024 75.3463 41.4326 75.3333H44.7306C45.1739 75.3333 45.5389 75.6976 45.5389 76.1398ZM69.3813 49.9154C69.3813 50.6569 68.7817 51.2553 68.0386 51.2553C67.2956 51.2553 66.6959 50.6569 66.6959 49.9154C66.6959 49.174 67.2956 48.5756 68.0386 48.5756C68.7686 48.5756 69.3813 49.174 69.3813 49.9154ZM64.1279 41.9415H71.7017V44.2049H64.1279V41.9415ZM72.5229 40.3154H63.3066C62.8504 40.3154 62.4984 40.6797 62.4984 41.122V45.0114C62.4984 45.4667 62.8634 45.8309 63.3066 45.8309H72.5099C72.9661 45.8309 73.3181 45.4667 73.3181 45.0114V41.122C73.3442 40.6797 72.9792 40.3154 72.5229 40.3154ZM48.9803 83.9707H37.7435C38.3431 82.3447 38.7211 80.2374 38.7603 78.3122H47.8853C47.9374 80.2374 48.3155 82.1496 48.9803 83.9707ZM54.4684 84.9854C54.4684 85.5447 54.0121 86 53.4516 86H33.9109C33.3504 86 32.8942 85.5447 32.8942 84.9854C32.8942 84.426 33.3504 83.9837 33.9109 83.9707H53.4516C54.0121 83.9707 54.4684 84.426 54.4684 84.9854ZM44.2222 66.9431C44.2222 67.5897 43.697 68.1138 43.049 68.1138C42.4011 68.1138 41.8758 67.5897 41.8758 66.9431C41.8758 66.2965 42.4011 65.7724 43.049 65.7724C43.697 65.7724 44.2222 66.2965 44.2222 66.9431ZM43.1012 63.3659C41.4326 63.3659 39.8553 64.1593 38.9819 65.5772C38.7472 65.9675 38.2649 66.0455 37.8738 65.8114C37.4827 65.5772 37.4045 65.0959 37.6392 64.7057C38.9037 62.8846 40.8851 61.7789 43.1012 61.7789C45.3303 61.7919 47.416 62.9106 48.6414 64.7837C48.876 65.174 48.7978 65.6553 48.4067 65.8894C48.2894 65.9675 48.1591 66.0195 48.0157 66.0455C47.7549 66.0325 47.5203 65.8764 47.3769 65.6553C46.3471 64.2374 44.7567 63.3659 43.1012 63.3659ZM43.1142 58.6569C40.3376 58.6439 37.7435 60.0358 36.2183 62.3382C36.0097 62.6114 35.6186 62.6764 35.3449 62.4683C35.0972 62.2862 35.019 61.935 35.1754 61.6618C36.9613 59.0341 39.9335 57.4732 43.1142 57.4862C46.321 57.4732 49.3192 59.0862 51.053 61.7789C51.2485 62.052 51.1703 62.4293 50.8966 62.6244C50.8835 62.6374 50.8705 62.6374 50.8705 62.6504C50.7532 62.7154 50.6359 62.7545 50.5055 62.7675C50.323 62.7545 50.1405 62.6634 50.0101 62.5203C48.5501 60.1138 45.9299 58.6439 43.1142 58.6569Z" stroke="white" stroke-miterlimit="10" stroke-linecap="round" stroke-linejoin="round"/>
</g>
</svg>
