<svg width="788" height="141" viewBox="0 0 788 141" fill="none" xmlns="http://www.w3.org/2000/svg">
<path d="M186.682 116.533C184.196 116.533 181.945 115.893 179.928 114.615C177.925 113.322 176.334 111.426 175.155 108.926C173.99 106.412 173.408 103.33 173.408 99.679C173.408 95.929 174.011 92.8111 175.219 90.3253C176.426 87.8253 178.031 85.9574 180.034 84.7216C182.051 83.4716 184.26 82.8466 186.661 82.8466C188.493 82.8466 190.02 83.1591 191.241 83.7841C192.477 84.3949 193.472 85.1619 194.224 86.0852C194.991 86.9943 195.574 87.8892 195.972 88.7699H196.249V72.3636H205.304V116H196.355V110.759H195.972C195.545 111.668 194.942 112.57 194.161 113.464C193.393 114.345 192.392 115.077 191.156 115.659C189.935 116.241 188.443 116.533 186.682 116.533ZM189.558 109.31C191.021 109.31 192.257 108.912 193.266 108.116C194.288 107.307 195.07 106.178 195.609 104.729C196.163 103.28 196.44 101.582 196.44 99.6364C196.44 97.6903 196.17 96 195.631 94.5653C195.091 93.1307 194.31 92.0227 193.287 91.2415C192.264 90.4602 191.021 90.0696 189.558 90.0696C188.067 90.0696 186.81 90.4744 185.787 91.2841C184.764 92.0937 183.99 93.2159 183.464 94.6506C182.939 96.0852 182.676 97.7472 182.676 99.6364C182.676 101.54 182.939 103.223 183.464 104.686C184.004 106.135 184.778 107.271 185.787 108.095C186.81 108.905 188.067 109.31 189.558 109.31ZM227.681 116.639C224.315 116.639 221.417 115.957 218.988 114.594C216.574 113.216 214.713 111.27 213.406 108.756C212.099 106.227 211.446 103.237 211.446 99.7855C211.446 96.419 212.099 93.4645 213.406 90.9219C214.713 88.3793 216.552 86.3977 218.924 84.9773C221.311 83.5568 224.109 82.8466 227.319 82.8466C229.478 82.8466 231.488 83.1946 233.349 83.8906C235.224 84.5724 236.858 85.6023 238.25 86.9801C239.656 88.358 240.75 90.0909 241.531 92.179C242.312 94.2528 242.703 96.6818 242.703 99.4659V101.959H215.068V96.3338H234.159C234.159 95.027 233.875 93.8693 233.306 92.8608C232.738 91.8523 231.95 91.0639 230.941 90.4957C229.947 89.9134 228.789 89.6222 227.468 89.6222C226.091 89.6222 224.869 89.9418 223.804 90.581C222.752 91.206 221.929 92.0511 221.332 93.1165C220.735 94.1676 220.43 95.3395 220.416 96.6321V101.98C220.416 103.599 220.714 104.999 221.311 106.178C221.922 107.357 222.781 108.266 223.889 108.905C224.997 109.544 226.311 109.864 227.831 109.864C228.839 109.864 229.762 109.722 230.6 109.438C231.439 109.153 232.156 108.727 232.752 108.159C233.349 107.591 233.804 106.895 234.116 106.071L242.511 106.625C242.085 108.642 241.211 110.403 239.89 111.909C238.583 113.401 236.893 114.565 234.819 115.403C232.76 116.227 230.38 116.639 227.681 116.639ZM278.259 83.2727L266.817 116H256.589L245.148 83.2727H254.736L261.533 106.689H261.874L268.649 83.2727H278.259ZM296.763 116.639C293.397 116.639 290.499 115.957 288.07 114.594C285.656 113.216 283.795 111.27 282.488 108.756C281.181 106.227 280.528 103.237 280.528 99.7855C280.528 96.419 281.181 93.4645 282.488 90.9219C283.795 88.3793 285.634 86.3977 288.006 84.9773C290.393 83.5568 293.191 82.8466 296.401 82.8466C298.56 82.8466 300.57 83.1946 302.431 83.8906C304.306 84.5724 305.94 85.6023 307.332 86.9801C308.738 88.358 309.832 90.0909 310.613 92.179C311.394 94.2528 311.785 96.6818 311.785 99.4659V101.959H284.15V96.3338H303.241C303.241 95.027 302.957 93.8693 302.388 92.8608C301.82 91.8523 301.032 91.0639 300.023 90.4957C299.029 89.9134 297.871 89.6222 296.55 89.6222C295.173 89.6222 293.951 89.9418 292.886 90.581C291.835 91.206 291.011 92.0511 290.414 93.1165C289.817 94.1676 289.512 95.3395 289.498 96.6321V101.98C289.498 103.599 289.796 104.999 290.393 106.178C291.004 107.357 291.863 108.266 292.971 108.905C294.079 109.544 295.393 109.864 296.913 109.864C297.921 109.864 298.844 109.722 299.683 109.438C300.521 109.153 301.238 108.727 301.835 108.159C302.431 107.591 302.886 106.895 303.198 106.071L311.593 106.625C311.167 108.642 310.293 110.403 308.972 111.909C307.665 113.401 305.975 114.565 303.901 115.403C301.842 116.227 299.462 116.639 296.763 116.639ZM326.785 72.3636V116H317.708V72.3636H326.785ZM348.843 116.639C345.533 116.639 342.671 115.936 340.256 114.53C337.855 113.109 336.002 111.135 334.695 108.607C333.388 106.064 332.735 103.116 332.735 99.7642C332.735 96.3835 333.388 93.429 334.695 90.9006C336.002 88.358 337.855 86.3835 340.256 84.9773C342.671 83.5568 345.533 82.8466 348.843 82.8466C352.152 82.8466 355.007 83.5568 357.408 84.9773C359.823 86.3835 361.684 88.358 362.99 90.9006C364.297 93.429 364.951 96.3835 364.951 99.7642C364.951 103.116 364.297 106.064 362.99 108.607C361.684 111.135 359.823 113.109 357.408 114.53C355.007 115.936 352.152 116.639 348.843 116.639ZM348.885 109.608C350.391 109.608 351.648 109.182 352.657 108.33C353.665 107.463 354.425 106.284 354.936 104.793C355.462 103.301 355.725 101.604 355.725 99.7003C355.725 97.7969 355.462 96.0994 354.936 94.608C354.425 93.1165 353.665 91.9375 352.657 91.071C351.648 90.2045 350.391 89.7713 348.885 89.7713C347.365 89.7713 346.087 90.2045 345.05 91.071C344.027 91.9375 343.253 93.1165 342.728 94.608C342.216 96.0994 341.961 97.7969 341.961 99.7003C341.961 101.604 342.216 103.301 342.728 104.793C343.253 106.284 344.027 107.463 345.05 108.33C346.087 109.182 347.365 109.608 348.885 109.608ZM370.853 128.273V83.2727H379.801V88.7699H380.206C380.604 87.8892 381.179 86.9943 381.932 86.0852C382.699 85.1619 383.694 84.3949 384.915 83.7841C386.151 83.1591 387.685 82.8466 389.517 82.8466C391.904 82.8466 394.105 83.4716 396.123 84.7216C398.14 85.9574 399.752 87.8253 400.959 90.3253C402.167 92.8111 402.77 95.929 402.77 99.679C402.77 103.33 402.181 106.412 401.002 108.926C399.837 111.426 398.246 113.322 396.229 114.615C394.226 115.893 391.982 116.533 389.496 116.533C387.735 116.533 386.236 116.241 385 115.659C383.779 115.077 382.777 114.345 381.996 113.464C381.215 112.57 380.618 111.668 380.206 110.759H379.929V128.273H370.853ZM379.738 99.6364C379.738 101.582 380.007 103.28 380.547 104.729C381.087 106.178 381.868 107.307 382.891 108.116C383.914 108.912 385.157 109.31 386.62 109.31C388.097 109.31 389.347 108.905 390.37 108.095C391.392 107.271 392.167 106.135 392.692 104.686C393.232 103.223 393.502 101.54 393.502 99.6364C393.502 97.7472 393.239 96.0852 392.713 94.6506C392.188 93.2159 391.414 92.0937 390.391 91.2841C389.368 90.4744 388.111 90.0696 386.62 90.0696C385.142 90.0696 383.892 90.4602 382.87 91.2415C381.861 92.0227 381.087 93.1307 380.547 94.5653C380.007 96 379.738 97.6903 379.738 99.6364ZM408.821 116V83.2727H417.472V89.0469H417.855C418.537 87.1293 419.674 85.6165 421.265 84.5085C422.855 83.4006 424.759 82.8466 426.975 82.8466C429.219 82.8466 431.13 83.4077 432.706 84.5298C434.283 85.6378 435.334 87.1435 435.86 89.0469H436.201C436.868 87.1719 438.076 85.6733 439.823 84.5511C441.584 83.4148 443.665 82.8466 446.066 82.8466C449.12 82.8466 451.598 83.8196 453.502 85.7656C455.419 87.6974 456.378 90.4389 456.378 93.9901V116H447.323V95.7798C447.323 93.9616 446.84 92.598 445.874 91.6889C444.908 90.7798 443.701 90.3253 442.252 90.3253C440.604 90.3253 439.319 90.8509 438.395 91.902C437.472 92.9389 437.01 94.3097 437.01 96.0142V116H428.211V95.5881C428.211 93.983 427.749 92.7045 426.826 91.7528C425.917 90.8011 424.716 90.3253 423.225 90.3253C422.216 90.3253 421.307 90.581 420.498 91.0923C419.702 91.5895 419.07 92.2926 418.601 93.2017C418.132 94.0966 417.898 95.1477 417.898 96.3551V116H408.821ZM478.463 116.639C475.096 116.639 472.199 115.957 469.77 114.594C467.355 113.216 465.494 111.27 464.187 108.756C462.88 106.227 462.227 103.237 462.227 99.7855C462.227 96.419 462.88 93.4645 464.187 90.9219C465.494 88.3793 467.333 86.3977 469.706 84.9773C472.092 83.5568 474.89 82.8466 478.1 82.8466C480.26 82.8466 482.27 83.1946 484.13 83.8906C486.005 84.5724 487.639 85.6023 489.031 86.9801C490.437 88.358 491.531 90.0909 492.312 92.179C493.093 94.2528 493.484 96.6818 493.484 99.4659V101.959H465.849V96.3338H484.94C484.94 95.027 484.656 93.8693 484.088 92.8608C483.52 91.8523 482.731 91.0639 481.723 90.4957C480.728 89.9134 479.571 89.6222 478.25 89.6222C476.872 89.6222 475.65 89.9418 474.585 90.581C473.534 91.206 472.71 92.0511 472.113 93.1165C471.517 94.1676 471.211 95.3395 471.197 96.6321V101.98C471.197 103.599 471.495 104.999 472.092 106.178C472.703 107.357 473.562 108.266 474.67 108.905C475.778 109.544 477.092 109.864 478.612 109.864C479.62 109.864 480.544 109.722 481.382 109.438C482.22 109.153 482.937 108.727 483.534 108.159C484.13 107.591 484.585 106.895 484.897 106.071L493.292 106.625C492.866 108.642 491.993 110.403 490.672 111.909C489.365 113.401 487.674 114.565 485.6 115.403C483.541 116.227 481.162 116.639 478.463 116.639ZM508.484 97.0795V116H499.407V83.2727H508.058V89.0469H508.441C509.166 87.1435 510.38 85.6378 512.085 84.5298C513.789 83.4077 515.856 82.8466 518.285 82.8466C520.558 82.8466 522.539 83.3438 524.23 84.3381C525.92 85.3324 527.234 86.7528 528.172 88.5994C529.109 90.4318 529.578 92.6193 529.578 95.1619V116H520.501V96.7812C520.515 94.7784 520.004 93.2159 518.967 92.0938C517.93 90.9574 516.502 90.3892 514.684 90.3892C513.463 90.3892 512.383 90.652 511.446 91.1776C510.522 91.7031 509.798 92.4702 509.272 93.4787C508.761 94.473 508.498 95.6733 508.484 97.0795ZM554.139 83.2727V90.0909H534.43V83.2727H554.139ZM538.905 75.4318H547.982V105.943C547.982 106.781 548.109 107.435 548.365 107.903C548.621 108.358 548.976 108.678 549.43 108.862C549.899 109.047 550.439 109.139 551.05 109.139C551.476 109.139 551.902 109.104 552.328 109.033C552.754 108.947 553.081 108.884 553.308 108.841L554.736 115.595C554.281 115.737 553.642 115.901 552.818 116.085C551.994 116.284 550.993 116.405 549.814 116.447C547.626 116.533 545.709 116.241 544.061 115.574C542.428 114.906 541.156 113.869 540.247 112.463C539.338 111.057 538.891 109.281 538.905 107.136V75.4318Z" fill="#143274"/>
<path opacity="0.05" d="M31.3636 117.065C26.392 117.065 21.8892 115.787 17.8551 113.23C13.8494 110.645 10.6676 106.852 8.30966 101.852C5.98011 96.8239 4.81534 90.6591 4.81534 83.358C4.81534 75.858 6.02273 69.6222 8.4375 64.6506C10.8523 59.6506 14.0625 55.9148 18.0682 53.4432C22.1023 50.9432 26.5199 49.6932 31.321 49.6932C34.9858 49.6932 38.0398 50.3182 40.483 51.5682C42.9545 52.7898 44.9432 54.3239 46.4489 56.1705C47.983 57.9886 49.1477 59.7784 49.9432 61.5398H50.4972V28.7273H68.608V116H50.7102V105.517H49.9432C49.0909 107.335 47.8835 109.139 46.321 110.929C44.7869 112.69 42.7841 114.153 40.3125 115.318C37.8693 116.483 34.8864 117.065 31.3636 117.065ZM37.1165 102.619C40.0426 102.619 42.5142 101.824 44.5312 100.233C46.5767 98.6136 48.1392 96.3551 49.2188 93.4574C50.3267 90.5597 50.8807 87.1648 50.8807 83.2727C50.8807 79.3807 50.3409 76 49.2614 73.1307C48.1818 70.2614 46.6193 68.0455 44.5739 66.483C42.5284 64.9205 40.0426 64.1392 37.1165 64.1392C34.1335 64.1392 31.6193 64.9489 29.5739 66.5682C27.5284 68.1875 25.9801 70.4318 24.929 73.3011C23.8778 76.1705 23.3523 79.4943 23.3523 83.2727C23.3523 87.0795 23.8778 90.446 24.929 93.3722C26.0085 96.2699 27.5568 98.5426 29.5739 100.19C31.6193 101.81 34.1335 102.619 37.1165 102.619ZM113.363 117.278C106.63 117.278 100.835 115.915 95.9766 113.188C91.147 110.432 87.4254 106.54 84.8118 101.511C82.1982 96.4545 80.8913 90.4744 80.8913 83.571C80.8913 76.8381 82.1982 70.929 84.8118 65.8438C87.4254 60.7585 91.1044 56.7955 95.8487 53.9545C100.621 51.1136 106.218 49.6932 112.638 49.6932C116.957 49.6932 120.977 50.3892 124.698 51.7812C128.448 53.1449 131.715 55.2045 134.499 57.9602C137.312 60.7159 139.499 64.1818 141.062 68.358C142.624 72.5057 143.406 77.3636 143.406 82.9318V87.9176H88.1357V76.6676H126.317C126.317 74.054 125.749 71.7386 124.613 69.7216C123.477 67.7045 121.9 66.1278 119.883 64.9915C117.894 63.8267 115.579 63.2443 112.937 63.2443C110.181 63.2443 107.738 63.8835 105.607 65.1619C103.505 66.4119 101.857 68.1023 100.664 70.233C99.4709 72.3352 98.8601 74.679 98.8317 77.2642V87.9602C98.8317 91.1989 99.4283 93.9972 100.621 96.3551C101.843 98.7131 103.562 100.531 105.778 101.81C107.994 103.088 110.621 103.727 113.661 103.727C115.678 103.727 117.525 103.443 119.201 102.875C120.877 102.307 122.312 101.455 123.505 100.318C124.698 99.1818 125.607 97.7898 126.232 96.142L143.022 97.25C142.17 101.284 140.423 104.807 137.781 107.818C135.167 110.801 131.786 113.131 127.638 114.807C123.519 116.455 118.761 117.278 113.363 117.278ZM214.517 50.5455L191.634 116H171.179L148.295 50.5455H167.472L181.065 97.3778H181.747L195.298 50.5455H214.517ZM251.527 117.278C244.794 117.278 238.999 115.915 234.141 113.188C229.311 110.432 225.589 106.54 222.976 101.511C220.362 96.4545 219.055 90.4744 219.055 83.571C219.055 76.8381 220.362 70.929 222.976 65.8438C225.589 60.7585 229.268 56.7955 234.013 53.9545C238.786 51.1136 244.382 49.6932 250.803 49.6932C255.121 49.6932 259.141 50.3892 262.862 51.7812C266.612 53.1449 269.879 55.2045 272.663 57.9602C275.476 60.7159 277.663 64.1818 279.226 68.358C280.788 72.5057 281.57 77.3636 281.57 82.9318V87.9176H226.3V76.6676H264.482C264.482 74.054 263.913 71.7386 262.777 69.7216C261.641 67.7045 260.064 66.1278 258.047 64.9915C256.058 63.8267 253.743 63.2443 251.101 63.2443C248.345 63.2443 245.902 63.8835 243.771 65.1619C241.669 66.4119 240.021 68.1023 238.828 70.233C237.635 72.3352 237.024 74.679 236.996 77.2642V87.9602C236.996 91.1989 237.592 93.9972 238.786 96.3551C240.007 98.7131 241.726 100.531 243.942 101.81C246.158 103.088 248.786 103.727 251.825 103.727C253.842 103.727 255.689 103.443 257.365 102.875C259.041 102.307 260.476 101.455 261.669 100.318C262.862 99.1818 263.771 97.7898 264.396 96.142L281.186 97.25C280.334 101.284 278.587 104.807 275.945 107.818C273.331 110.801 269.95 113.131 265.803 114.807C261.683 116.455 256.925 117.278 251.527 117.278ZM311.57 28.7273V116H293.416V28.7273H311.57ZM355.685 117.278C349.066 117.278 343.342 115.872 338.512 113.06C333.711 110.219 330.004 106.27 327.39 101.213C324.776 96.1278 323.469 90.233 323.469 83.5284C323.469 76.767 324.776 70.858 327.39 65.8011C330.004 60.7159 333.711 56.767 338.512 53.9545C343.342 51.1136 349.066 49.6932 355.685 49.6932C362.305 49.6932 368.015 51.1136 372.816 53.9545C377.646 56.767 381.367 60.7159 383.981 65.8011C386.594 70.858 387.901 76.767 387.901 83.5284C387.901 90.233 386.594 96.1278 383.981 101.213C381.367 106.27 377.646 110.219 372.816 113.06C368.015 115.872 362.305 117.278 355.685 117.278ZM355.771 103.216C358.782 103.216 361.296 102.364 363.313 100.659C365.33 98.9261 366.85 96.5682 367.873 93.5852C368.924 90.6023 369.45 87.2074 369.45 83.4006C369.45 79.5938 368.924 76.1989 367.873 73.2159C366.85 70.233 365.33 67.875 363.313 66.142C361.296 64.4091 358.782 63.5426 355.771 63.5426C352.731 63.5426 350.174 64.4091 348.1 66.142C346.055 67.875 344.506 70.233 343.455 73.2159C342.433 76.1989 341.921 79.5938 341.921 83.4006C341.921 87.2074 342.433 90.6023 343.455 93.5852C344.506 96.5682 346.055 98.9261 348.1 100.659C350.174 102.364 352.731 103.216 355.771 103.216ZM399.705 140.545V50.5455H417.603V61.5398H418.413C419.208 59.7784 420.359 57.9886 421.864 56.1705C423.398 54.3239 425.387 52.7898 427.83 51.5682C430.302 50.3182 433.37 49.6932 437.035 49.6932C441.808 49.6932 446.211 50.9432 450.245 53.4432C454.279 55.9148 457.504 59.6506 459.918 64.6506C462.333 69.6222 463.54 75.858 463.54 83.358C463.54 90.6591 462.362 96.8239 460.004 101.852C457.674 106.852 454.492 110.645 450.458 113.23C446.452 115.787 441.964 117.065 436.992 117.065C433.469 117.065 430.472 116.483 428.001 115.318C425.558 114.153 423.555 112.69 421.992 110.929C420.43 109.139 419.237 107.335 418.413 105.517H417.859V140.545H399.705ZM417.475 83.2727C417.475 87.1648 418.015 90.5597 419.094 93.4574C420.174 96.3551 421.737 98.6136 423.782 100.233C425.827 101.824 428.313 102.619 431.239 102.619C434.194 102.619 436.694 101.81 438.739 100.19C440.785 98.5426 442.333 96.2699 443.384 93.3722C444.464 90.446 445.004 87.0795 445.004 83.2727C445.004 79.4943 444.478 76.1705 443.427 73.3011C442.376 70.4318 440.827 68.1875 438.782 66.5682C436.737 64.9489 434.222 64.1392 431.239 64.1392C428.285 64.1392 425.785 64.9205 423.739 66.483C421.722 68.0455 420.174 70.2614 419.094 73.1307C418.015 76 417.475 79.3807 417.475 83.2727ZM475.643 116V50.5455H492.944V62.0938H493.711C495.075 58.2585 497.347 55.233 500.529 53.017C503.711 50.8011 507.518 49.6932 511.95 49.6932C516.438 49.6932 520.259 50.8153 523.413 53.0597C526.566 55.2756 528.668 58.2869 529.719 62.0938H530.401C531.737 58.3438 534.151 55.3466 537.646 53.1023C541.168 50.8295 545.33 49.6932 550.131 49.6932C556.239 49.6932 561.197 51.6392 565.004 55.5312C568.839 59.3949 570.756 64.8778 570.756 71.9801V116H552.646V75.5597C552.646 71.9233 551.68 69.196 549.748 67.3778C547.816 65.5597 545.401 64.6506 542.504 64.6506C539.208 64.6506 536.637 65.7017 534.79 67.804C532.944 69.8778 532.021 72.6193 532.021 76.0284V116H514.421V75.1761C514.421 71.9659 513.498 69.4091 511.651 67.5057C509.833 65.6023 507.433 64.6506 504.45 64.6506C502.433 64.6506 500.614 65.1619 498.995 66.1847C497.404 67.179 496.14 68.5852 495.202 70.4034C494.265 72.1932 493.796 74.2955 493.796 76.7102V116H475.643ZM614.925 117.278C608.192 117.278 602.397 115.915 597.539 113.188C592.71 110.432 588.988 106.54 586.374 101.511C583.761 96.4545 582.454 90.4744 582.454 83.571C582.454 76.8381 583.761 70.929 586.374 65.8438C588.988 60.7585 592.667 56.7955 597.411 53.9545C602.184 51.1136 607.781 49.6932 614.201 49.6932C618.519 49.6932 622.539 50.3892 626.261 51.7812C630.011 53.1449 633.278 55.2045 636.062 57.9602C638.874 60.7159 641.062 64.1818 642.624 68.358C644.187 72.5057 644.968 77.3636 644.968 82.9318V87.9176H589.698V76.6676H627.88C627.88 74.054 627.312 71.7386 626.175 69.7216C625.039 67.7045 623.462 66.1278 621.445 64.9915C619.457 63.8267 617.141 63.2443 614.499 63.2443C611.744 63.2443 609.3 63.8835 607.17 65.1619C605.067 66.4119 603.42 68.1023 602.227 70.233C601.033 72.3352 600.423 74.679 600.394 77.2642V87.9602C600.394 91.1989 600.991 93.9972 602.184 96.3551C603.406 98.7131 605.124 100.531 607.34 101.81C609.556 103.088 612.184 103.727 615.224 103.727C617.241 103.727 619.087 103.443 620.763 102.875C622.44 102.307 623.874 101.455 625.067 100.318C626.261 99.1818 627.17 97.7898 627.795 96.142L644.585 97.25C643.732 101.284 641.985 104.807 639.343 107.818C636.729 110.801 633.349 113.131 629.201 114.807C625.082 116.455 620.323 117.278 614.925 117.278ZM674.968 78.1591V116H656.815V50.5455H674.116V62.0938H674.883C676.332 58.2869 678.761 55.2756 682.17 53.0597C685.579 50.8153 689.712 49.6932 694.57 49.6932C699.116 49.6932 703.079 50.6875 706.46 52.6761C709.84 54.6648 712.468 57.5057 714.343 61.1989C716.218 64.8636 717.156 69.2386 717.156 74.3239V116H699.002V77.5625C699.031 73.5568 698.008 70.4318 695.934 68.1875C693.86 65.9148 691.005 64.7784 687.369 64.7784C684.925 64.7784 682.766 65.304 680.891 66.3551C679.045 67.4062 677.596 68.9403 676.545 70.9574C675.522 72.946 674.996 75.3466 674.968 78.1591ZM766.278 50.5455V64.1818H726.861V50.5455H766.278ZM735.81 34.8636H753.963V95.8864C753.963 97.5625 754.219 98.8693 754.73 99.8068C755.241 100.716 755.952 101.355 756.861 101.724C757.798 102.094 758.878 102.278 760.099 102.278C760.952 102.278 761.804 102.207 762.656 102.065C763.509 101.895 764.162 101.767 764.616 101.682L767.472 115.19C766.563 115.474 765.284 115.801 763.636 116.17C761.989 116.568 759.986 116.81 757.628 116.895C753.253 117.065 749.418 116.483 746.122 115.148C742.855 113.812 740.313 111.739 738.494 108.926C736.676 106.114 735.781 102.562 735.81 98.2727V34.8636Z" fill="#143274"/>
</svg>
